<svg width="24" height="24" fill="none" xmlns="http://www.w3.org/2000/svg"><path opacity=".3" d="M12.5 22c-.6 0-1-.4-1-1V3c0-.6.4-1 1-1s1 .4 1 1v18c0 .6-.4 1-1 1z" fill="#000"/><path d="M17.8 14.7c0 .8-.2 1.6-.6 2.2-.4.7-1 1.2-1.9 1.5-.8.4-1.8.6-2.9.6-1.3 0-2.4-.3-3.3-.8-.6-.4-1.1-.8-1.5-1.5-.4-.6-.6-1.2-.6-1.8 0-.3.1-.6.3-.9.2-.2.5-.4.9-.4.3 0 .5.1.7.3.2.2.4.5.5.8.2.4.4.8.6 1.1.2.3.5.5.8.7.4.2.8.3 1.4.3.8 0 1.5-.2 2-.6.5-.4.8-.9.8-1.4 0-.4-.1-.8-.4-1.1-.3-.3-.6-.5-1.1-.6-.4-.1-1-.3-1.7-.5-1-.2-1.8-.5-2.4-.8-.7-.3-1.2-.7-1.6-1.2-.4-.5-.6-1.2-.6-2 0-.7.2-1.4.6-2 .4-.6 1-1 1.8-1.3.8-.3 1.7-.5 2.7-.5.8 0 1.5.1 2.2.3.6.2 1.1.5 1.5.8.4.3.7.7.9 1.1.2.4.3.7.3 1.1 0 .3-.1.6-.3.9-.2.3-.5.4-.9.4-.3 0-.6-.1-.7-.2-.1-.1-.3-.4-.5-.8-.2-.5-.5-.9-.9-1.2-.4-.3-.9-.4-1.7-.4-.7 0-1.3.2-1.7.5-.4.3-.7.7-.7 1.1 0 .3.1.5.2.7.1.2.4.4.6.5.2.1.5.3.8.3.3.1.7.2 1.3.4.8.2 1.5.4 2.1.6.6.2 1.1.5 1.6.8.4.3.8.7 1 1.2.2.5.4 1.1.4 1.8z" fill="#000"/></svg>