<svg width="24" height="24" fill="none" xmlns="http://www.w3.org/2000/svg"><path d="M20 19.725v-1c0-.6-.4-1-1-1H5c-.6 0-1 .4-1 1v1H3c-.6 0-1 .4-1 1v1h20v-1c0-.6-.4-1-1-1h-1z" fill="#000"/><path opacity=".3" d="M22 6.725v1c0 .6-.4 1-1 1h-3c.6 0 1 .4 1 1s-.4 1-1 1v5c.6 0 1 .4 1 1v1h-4v-1c0-.6.4-1 1-1v-5c-.6 0-1-.4-1-1s.4-1 1-1h-3c.6 0 1 .4 1 1s-.4 1-1 1v5c.6 0 1 .4 1 1v1h-4v-1c0-.6.4-1 1-1v-5c-.6 0-1-.4-1-1s.4-1 1-1H8c.6 0 1 .4 1 1s-.4 1-1 1v5c.6 0 1 .4 1 1v1H5v-1c0-.6.4-1 1-1v-5c-.6 0-1-.4-1-1s.4-1 1-1H3c-.6 0-1-.4-1-1v-1l9-4.5c.6-.3 1.4-.3 2.1 0l8.9 4.5zm-10-3c-.8 0-1.5.7-1.5 1.5s.7 1.5 1.5 1.5 1.5-.7 1.5-1.5-.7-1.5-1.5-1.5z" fill="#000"/></svg>