<svg width="24" height="24" fill="none" xmlns="http://www.w3.org/2000/svg"><path opacity=".3" d="M18 20.3a4 4 0 100-8 4 4 0 000 8z" fill="#000"/><path d="M18 18.3c-.6 0-1-.4-1-1v-2c0-.6.4-1 1-1s1 .4 1 1v2c0 .6-.4 1-1 1zM14.4 18.1c.1.4 0 .9-.4 1.1-.2.1-.3.1-.5.1-.3 0-.7-.2-.9-.5v-.1c-.5.2-1 .3-1.6.4v.1c0 .6-.4 1-1 1s-1-.4-1-1v-.1c-.6-.1-1.1-.2-1.6-.4v.1c-.2.3-.5.5-.9.5-.2 0-.3 0-.5-.1-.5-.3-.6-.9-.4-1.4v-.1c-.4-.3-.8-.7-1.2-1.2h-.1c-.2.1-.3.1-.5.1-.3 0-.7-.2-.9-.5-.3-.5-.1-1.1.4-1.4h.1c-.2-.5-.3-1-.4-1.6-.6 0-1-.4-1-1s.4-1 1-1h.1c.1-.6.2-1.1.4-1.6h-.1c-.5-.3-.6-.9-.4-1.4.3-.5.9-.6 1.4-.4h.1c.3-.4.7-.8 1.2-1.2v-.1c-.3-.5-.1-1.1.4-1.4.5-.3 1.1-.1 1.4.4v.1c.5-.2 1-.3 1.6-.4V5c0-.6.4-1 1-1s1 .4 1 1v.1c.6.1 1.1.2 1.6.4v-.1c.3-.5.9-.6 1.4-.4.5.3.6.9.4 1.4v.1c.4.3.8.7 1.2 1.2h.1c.5-.3 1.1-.1 1.4.4.3.5.1 1.1-.4 1.4h-.1c.2.5.3 1 .4 1.6h.1c.6 0 1 .4 1 1-2.2 0-4 1.8-4 4-.2.9 0 1.5.2 2zm-2.6-9.7H8.9c-.3 0-.5.1-.7.2-.1.1-.2.4-.3.7l-.5 2.6c0 .2-.1.4-.1.4 0 .2.1.3.2.4.1.1.3.2.5.2s.4-.1.6-.3c.3-.2.5-.3.6-.4.1-.1.4-.1.7-.1.3 0 .5.1.7.2.2.1.4.3.5.6.1.3.2.6.2.9 0 .3-.1.6-.2.9-.1.3-.3.5-.5.6-.2.1-.5.2-.7.2-.3 0-.6-.1-.8-.3-.3-.2-.4-.4-.6-.8-.2-.4-.4-.5-.7-.5-.2 0-.3.1-.5.2-.1.1-.2.3-.2.4 0 .2.1.5.3.8.2.3.5.6.9.8.4.2.9.4 1.6.4.6 0 1.1-.1 1.6-.4.5-.3.8-.6 1-1 .2-.4.4-.9.4-1.5 0-.4-.1-.7-.2-1-.1-.3-.3-.6-.5-.8-.2-.2-.5-.4-.8-.5-.3-.1-.6-.2-1-.2s-.9.1-1.4.4l.3-1.8h2.6c.3 0 .5-.1.6-.2.1-.1.2-.3.2-.5-.1-.4-.4-.6-.9-.6z" fill="#000"/></svg>