<svg width="24" height="24" fill="none" xmlns="http://www.w3.org/2000/svg"><path opacity=".3" d="M15.8 11.4H6c-.6 0-1-.4-1-1s.4-1 1-1h9.8c.6 0 1 .4 1 1s-.5 1-1 1zm-.1 2.4c0-.6-.4-1-1-1H6c-.6 0-1 .4-1 1s.4 1 1 1h8.8c.5 0 .9-.5.9-1z" fill="#000"/><path d="M18.8 15.5l.3.6c.1.6-.4 1.1-.7 1.5-.5.5-1.1.9-1.8 1.2-.7.3-1.6.5-2.5.5-.7 0-1.4-.1-2-.2-.6-.1-1.1-.4-1.6-.6-.5-.3-.9-.7-1.3-1.2-.4-.4-.7-.9-.9-1.5-.2-.6-.5-1.1-.6-1.7-.1-.6-.2-1.3-.2-1.9 0-1.1.2-2.1.5-3 .3-.9.8-1.6 1.4-2.3.6-.6 1.3-1.1 2.1-1.4.8-.3 1.7-.5 2.6-.5 1.1 0 2.1.2 3 .7.7.4 1.6.9 1.7 1.8 0 .4-.2.8-.5 1.1-.1.1-.2.1-.3.2-.3.1-.6 0-.8-.1-.5-.2-.7-.7-1.2-1-.5-.3-1.1-.5-1.8-.5-1.1 0-2.1.4-2.7 1.3-.6.9-1 2.1-1 3.7 0 1.1.2 2 .5 2.7.3.7.7 1.2 1.3 1.6.6.4 1.2.5 1.9.5.8 0 1.5-.2 2-.6.6-.4 1-1.2 1.7-1.3.1-.1.6.1.9.4z" fill="#000"/></svg>