<svg width="24" height="24" fill="none" xmlns="http://www.w3.org/2000/svg"><path d="M6 20c0 .6-.4 1-1 1s-1-.4-1-1h2zm12 0c0 .6.4 1 1 1s1-.4 1-1h-2z" fill="#000"/><path opacity=".3" d="M21 20H3c-.6 0-1-.4-1-1V3c0-.6.4-1 1-1h18c.6 0 1 .4 1 1v16c0 .6-.4 1-1 1zm-9-10h-1.3c-.2-.3-.4-.5-.7-.7V8c0-.6-.4-1-1-1s-1 .4-1 1v1.3c-.3.2-.5.4-.7.7H6c-.6 0-1 .4-1 1s.4 1 1 1h1.3c.2.3.4.5.7.7V14c0 .6.4 1 1 1s1-.4 1-1v-1.3c.3-.2.5-.4.7-.7H12c.6 0 1-.4 1-1s-.4-1-1-1z" fill="#000"/><path d="M18.5 11c0-.8-.7-1.5-1.5-1.5s-1.5.7-1.5 1.5c0 .4.2.8.5 1.1v.9c0 .6.4 1 1 1s1-.4 1-1v-.9c.3-.3.5-.7.5-1.1z" fill="#000"/></svg>