<svg width="24" height="24" fill="none" xmlns="http://www.w3.org/2000/svg"><path opacity=".3" d="M5 15c-1.7 0-3-1.3-3-3s1.3-3 3-3h.1C5 8.7 5 8.3 5 8c0-2.8 2.2-5 5-5 1.9 0 3.5 1 4.3 2.5.5-.3 1.1-.5 1.7-.5 1.7 0 3 1.3 3 3 0 .4-.1.7-.2 1h.2c1.7 0 3 1.3 3 3s-1.3 3-3 3H5zm0-2.4h8L9.7 9.3c-.4-.4-1-.4-1.4 0L5 12.6z" fill="#000"/><path d="M17 17.4V12c0-.6-.4-1-1-1s-1 .4-1 1v5.4h2z" fill="#000"/><path opacity=".3" d="M12 17.4h8l-3.3 3.3c-.4.4-1 .4-1.4 0L12 17.4z" fill="#000"/><path d="M8 12.6V18c0 .6.4 1 1 1s1-.4 1-1v-5.4H8z" fill="#000"/></svg>