<svg width="24" height="24" fill="none" xmlns="http://www.w3.org/2000/svg"><path opacity=".3" d="M19 22H5c-.6 0-1-.4-1-1V3c0-.6.4-1 1-1h9l6 6v13c0 .6-.4 1-1 1zm-4.5-10l-1.8-2.7c-.4-.4-1-.4-1.4 0L10 12h1.5v5c0 .6-.1 1 .5 1s.5-.4.5-1v-5h2z" fill="#000"/><path d="M13 11.5v6.436c0 .338-.4 1.064-1 1.064s-1-.726-1-1.064V11.5h2z" fill="#000"/><path d="M8.258 11.441a.6.6 0 00.386 1.059h6.712a.6.6 0 00.386-1.059l-3.305-2.783a.685.685 0 00-.874 0L8.256 11.44zM15 8h5l-6-6v5c0 .6.4 1 1 1z" fill="#000"/></svg>