<svg width="24" height="24" fill="none" xmlns="http://www.w3.org/2000/svg"><path opacity=".3" d="M20.284 3.716a5.857 5.857 0 00-8.284 0L7.858 7.858l1.414 1.414 4.142-4.142A3.831 3.831 0 0116.142 4a1 1 0 110 2 1.848 1.848 0 00-1.314.544l-4.142 4.142 5.456 5.456L20.284 12a5.857 5.857 0 000-8.284z" fill="#000"/><path d="M10.686 10.686l5.456 5.456L12 20.284A5.858 5.858 0 013.716 12l4.142-4.142 1.414 1.414-.3.3a1 1 0 101.414 1.414l.3-.3zm-3.36 3.36l.569-.568a1 1 0 10-1.412-1.416l-.571.57a1 1 0 101.414 1.414z" fill="#000"/></svg>