<svg width="24" height="24" fill="none" xmlns="http://www.w3.org/2000/svg"><path opacity=".3" d="M6.974 21.847c-2-1.1-3.6-2.7-4.8-4.9-.3-.6-.2-1.3.2-1.8l12.7-12.7c.5-.5 1.3-.6 1.9-.2 2 1.2 3.6 2.8 4.8 4.8.4.6.3 1.4-.2 1.9l-12.7 12.7c-.5.4-1.3.5-1.9.2z" fill="#000"/><path d="M15.874 11.647c-.4.4-1 .4-1.4 0-.4-.4-.4-1 0-1.4.4-.4 1-.4 1.4 0 .4.4.4 1 0 1.4zm-2.1-3.5c-.4-.4-1-.4-1.4 0-.4.4-.4 1 0 1.4.4.4 1 .4 1.4 0 .4-.4.4-1.1 0-1.4zm0 4.2c-.4-.4-1-.4-1.4 0-.4.4-.4 1 0 1.4.4.4 1 .4 1.4 0 .4-.3.4-1 0-1.4zm-2.2-2.1c-.4-.4-1-.4-1.4 0-.4.4-.4 1 0 1.4.4.4 1 .4 1.4 0 .4-.4.4-1 0-1.4zm0 4.3c-.4-.4-1-.4-1.4 0-.4.4-.4 1 0 1.4.4.4 1 .4 1.4 0 .4-.4.4-1 0-1.4zm-2.1-2.2c-.4-.4-1-.4-1.4 0-.4.4-.4 1 0 1.4.4.4 1 .4 1.4 0 .4-.4.4-1 0-1.4z" fill="#000"/></svg>