<svg width="24" height="24" fill="none" xmlns="http://www.w3.org/2000/svg"><path opacity=".3" d="M11 3c0 .6-.4 1-1 1v5H4h1c.6 0 1-.4 1-1s-.4-1-1-1H4V4c-.6 0-1-.4-1-1s.4-1 1-1h6c.6 0 1 .4 1 1zm9-1h-6c-.6 0-1 .4-1 1s.4 1 1 1v3h1c.6 0 1 .4 1 1s-.4 1-1 1h-1v3h1c.6 0 1 .4 1 1s-.4 1-1 1h-1 6V4c.6 0 1-.4 1-1s-.4-1-1-1z" fill="#000"/><path d="M10 9v10c0 1.7-1.3 3-3 3s-3-1.3-3-3h1c.6 0 1-.4 1-1s-.4-1-1-1H4v-3h1c.6 0 1-.4 1-1s-.4-1-1-1H4V9h6zm4 5v3h1c.6 0 1 .4 1 1s-.4 1-1 1h-1c0 1.7 1.3 3 3 3s3-1.3 3-3v-5h-6z" fill="#000"/></svg>