<svg width="24" height="24" fill="none" xmlns="http://www.w3.org/2000/svg"><path opacity=".3" d="M19.049 19.049c-3.9 3.9-10.2 3.9-14.1 0-3.7-3.7-3.9-9.5-.7-13.4l1.4 1.4c-2.4 3.1-2.2 7.7.7 10.6.2.2.5.3.7.3.2 0 .5-.1.7-.3.4-.4.4-1 0-1.4-2.1-2.1-2.3-5.4-.6-7.7l9.1 9.1c.2.2.5.3.7.3.2 0 .5-.1.7-.3.4-.4.4-1 0-1.4l-12-12c3.9-3.2 9.7-3 13.4.7 3.9 3.8 3.9 10.2 0 14.1zm-1.4-11.3c.4-.4.4-1 0-1.4-2-2-4.8-2.8-7.6-2.1-.5.1-.9.7-.7 1.2.1.5.7.9 1.2.7 2.1-.5 4.2.1 5.7 1.6.2.2.5.3.7.3.2 0 .5-.1.7-.3z" fill="#000"/></svg>