<svg width="24" height="24" fill="none" xmlns="http://www.w3.org/2000/svg"><path opacity=".3" d="M14 3v17H2V3c0-.6.4-1 1-1h10c.6 0 1 .4 1 1zm-3 10v-2c0-1.3-.8-2.4-2-2.8V7c0-.6-.4-1-1-1s-1 .4-1 1v1.2c-1.2.4-2 1.5-2 2.8v2c0 .6-.4 1-1 1v1c0 .6.4 1 1 1h6c.6 0 1-.4 1-1v-1c-.6 0-1-.4-1-1z" fill="#000"/><path d="M2 20h12v1c0 .6-.4 1-1 1H3c-.6 0-1-.4-1-1v-1zM9 3V2H7v1c0 .6.4 1 1 1s1-.4 1-1zM6.5 16c0 .8.7 1.5 1.5 1.5s1.5-.7 1.5-1.5h-3zm15.2-4c0-.6-.4-1-1-1h-3.1c-.6 0-1 .4-1 1s.4 1 1 1h3.1c.5 0 1-.4 1-1zM17 8c-.4 0-.8-.2-.9-.6-.2-.5 0-1.1.5-1.3L19.1 5c.5-.2 1.1 0 1.3.5.2.5 0 1.1-.5 1.3l-2.5 1.1c-.1.1-.3.1-.4.1zm2.5 11.1c-.1 0-.3 0-.4-.1l-2.5-1.1c-.5-.2-.7-.8-.5-1.3.2-.5.8-.7 1.3-.5l2.5 1.1c.5.2.7.8.5 1.3-.2.4-.5.6-.9.6z" fill="#000"/></svg>