<svg width="24" height="24" fill="none" xmlns="http://www.w3.org/2000/svg"><path d="M16.017 9h-.622a3 3 0 00-2.652 1.596l-.589 1.113a.4.4 0 00.102.498l.384.311a5 5 0 011.436 1.885l.156.357a.4.4 0 00.367.24h4.076a1.4 1.4 0 001.237-2.055l-1.243-2.349A3 3 0 0016.017 9z" fill="#000"/><rect opacity=".3" x="14" y="4" width="4" height="4" rx="2" fill="#000"/><path d="M4.655 14.856a4.733 4.733 0 018.69 0l1.448 3.35A2 2 0 0112.957 21H5.043a2 2 0 01-1.836-2.793l1.448-3.351z" fill="#000"/><rect opacity=".3" x="6" y="5" width="6" height="6" rx="3" fill="#000"/></svg>