<svg width="24" height="24" fill="none" xmlns="http://www.w3.org/2000/svg"><path opacity=".3" d="M4.425 20.525c-1.9-1.9-1.9-5 0-7l10.4-10.4c1.5-1.5 4-1.5 5.6 0 .4.4.4 1 0 1.4-.4.4-1 .4-1.4 0-.8-.8-2-.8-2.8 0l-10.4 10.4c-1.2 1.2-1.2 3 0 4.2 1.2 1.2 3 1.2 4.2 0l8.4-8.4c.4-.4 1-.4 1.4 0 .4.4.4 1 0 1.4l-8.4 8.4c-1.9 1.9-5 1.9-7 0z" fill="#000"/><path d="M9.325 15.625c-1.2-1.2-1.2-3 0-4.2l4.9-4.9c.4-.4 1-.4 1.4 0 .4.4.4 1 0 1.4l-4.9 4.9c-.4.4-.4 1 0 1.4.4.4 1 .4 1.4 0l7-7c.4-.4.6-.8.6-1.3 0-.6-.2-1.1-.6-1.5-.4-.4-.4-1 0-1.4.4-.4 1-.4 1.4 0 .8.8 1.2 1.8 1.2 2.9 0 1-.4 1.9-1.2 2.6l-7 7c-1.2 1.2-3 1.2-4.2.1z" fill="#000"/></svg>