<svg width="24" height="24" fill="none" xmlns="http://www.w3.org/2000/svg"><path opacity=".3" d="M12 22c5.523 0 10-4.477 10-10S17.523 2 12 2 2 6.477 2 12s4.477 10 10 10z" fill="#000"/><path d="M19 10.4V10c0-1.1-.9-2-2-2h-.1c-1.3-1.8-2.3-3.7-3-5.8-.6-.1-1.3-.2-1.9-.2h-.3c.7 2.6 1.8 5.1 3.4 7.3-.1.2-.1.4-.1.7 0 1.1.9 2 2 2 .1 0 .3 0 .4-.1 1.2 1.1 2.5 2.1 4 2.9 0 0 .1 0 .1.1.2-.7.3-1.4.4-2.2-1-.6-2-1.4-2.9-2.3zM12 15c-1-1.9-1.8-3.8-2.4-5.8.3-.3.4-.8.4-1.2 0-.9-.6-1.6-1.3-1.9C8.4 5 8.2 3.9 8 2.8c-.7.3-1.3.6-1.8 1.1.2.9.3 1.7.6 2.6-.4.4-.7.9-.7 1.5 0 1 .7 1.8 1.7 2 .5 1.6 1.2 3.2 1.9 4.7-2.6-1.5-5-3.2-7.3-5.2-.2.8-.3 1.6-.3 2.4 2.5 2 5.2 3.8 8 5.3.1 1 .9 1.8 1.9 1.8.6 1 1.2 1.9 1.9 2.8.7-.1 1.4-.3 2-.6l-1.5-2.1c1.1.4 2.1.8 3.2 1.1.7-.4 1.3-1 1.8-1.6-1.8-.5-3.7-1.1-5.4-1.9-.1-.9-.9-1.7-2-1.7z" fill="#000"/></svg>