<svg width="24" height="24" fill="none" xmlns="http://www.w3.org/2000/svg"><path opacity=".3" d="M20.335 15.537c1.39-1.112 1.235-2.725 1.218-4.313a7.489 7.489 0 00-1.979-4.6 10.731 10.731 0 00-3.757-2.867 13.1 13.1 0 00-4.317-.74A10.842 10.842 0 004 5.354c-1.711 1.371-2.769 3.771-1.314 5.735a4.287 4.287 0 002.023 1.25c.739.275 1.538.35 2.315.216a2.987 2.987 0 00.42 2.634 3.024 3.024 0 002.387 1.044c.243-.003.483-.052.708-.144.198-.102.39-.216.574-.341a5.343 5.343 0 013.332-.332c1.335.305 2.685.536 4.045.691.303.037.61.024.908-.037a2.57 2.57 0 00.937-.533z" fill="#000"/><path d="M19.008 16.114c-.06.492-.215.968-.457 1.4-.322.6-.97.8-1.448 1.238-.646.591-.508 1.628-.471 2.412a.955.955 0 01-.09.524.75.75 0 01-.97.209 1.832 1.832 0 01-.719-.8c-.272-.49-.491-1.012-.8-1.485a8.505 8.505 0 00-2.642-2.066 2.687 2.687 0 01-.989-1.422c.037-.013.077-.018.114-.034.198-.102.389-.216.573-.341a5.343 5.343 0 013.332-.332 36.84 36.84 0 004.045.691c.174.011.348.013.522.006zm-.208-5.836V3a1 1 0 00-2 0v7.278a2 2 0 102 0zM13.8 2a1 1 0 00-1 1v5.586l-.488.488a2.033 2.033 0 101.414 1.414l.781-.781A1 1 0 0014.8 9V3a1 1 0 00-1-1zm-4 0a1 1 0 00-1 1v1.586L7.312 6.074a2.033 2.033 0 101.414 1.414l1.781-1.781A1 1 0 0010.8 5V3a1 1 0 00-1-1z" fill="#000"/></svg>