<svg width="24" height="24" fill="none" xmlns="http://www.w3.org/2000/svg"><path opacity=".3" d="M20.038 4v6c0 .6-.4 1-1 1h-2c-.6 0-1-.4-1-1V4c0-1.1.9-2 2-2s2 .9 2 2zm-10.3 14.9c1-.4 1.5-1.6 1.1-2.6l-5-13c-.4-1-1.6-1.5-2.6-1.1-1 .4-1.5 1.6-1.1 2.6l5 13c.3.8 1.1 1.3 1.9 1.3.2-.1.5-.1.7-.2zm9.3-.9h-2v2h2v-2z" fill="#000"/><path d="M18.038 6h-14c-1.1 0-2-.9-2-2s.9-2 2-2h14c1.1 0 2 .9 2 2s-.9 2-2 2zm-14-3c-.6 0-1 .4-1 1s.4 1 1 1 1-.4 1-1-.4-1-1-1zm14 0c-.6 0-1 .4-1 1s.4 1 1 1 1-.4 1-1-.4-1-1-1zm-6 14v5h-6v-5c0-1.7 1.3-3 3-3s3 1.3 3 3zm-3-1.5c-.8 0-1.5.7-1.5 1.5s.7 1.5 1.5 1.5 1.5-.7 1.5-1.5-.7-1.5-1.5-1.5zm6-.5h2v-2h-1V8l-2 2v4c0 .6.4 1 1 1zm4 0h2c.6 0 1-.4 1-1v-4l-2-2v5h-1v2zm2 5h-6v2h6v-2z" fill="#000"/></svg>