<svg width="24" height="24" fill="none" xmlns="http://www.w3.org/2000/svg"><path opacity=".3" d="M3 6c-.6 0-1-.4-1-1V3c0-.6.4-1 1-1h2c.6 0 1 .4 1 1s-.4 1-1 1H4v1c0 .6-.4 1-1 1zm19-1V3c0-.6-.4-1-1-1h-2c-.6 0-1 .4-1 1s.4 1 1 1h1v1c0 .6.4 1 1 1s1-.4 1-1zM6 21c0-.6-.4-1-1-1H4v-1c0-.6-.4-1-1-1s-1 .4-1 1v2c0 .6.4 1 1 1h2c.6 0 1-.4 1-1zm16 0v-2c0-.6-.4-1-1-1s-1 .4-1 1v1h-1c-.6 0-1 .4-1 1s.4 1 1 1h2c.6 0 1-.4 1-1zm-6-10V9c0-2.2-1.8-4-4-4S8 6.8 8 9v2c-.8 0-1.5.7-1.5 1.5S7.2 14 8 14v1c0 2.2 1.8 4 4 4s4-1.8 4-4v-1c.8 0 1.5-.7 1.5-1.5S16.8 11 16 11zm-2.6 4c.3 0 .6.3.5.6-.3.8-1 1.4-1.9 1.4-.9 0-1.6-.5-1.9-1.3-.1-.3.1-.7.5-.7h2.8z" fill="#000"/><path d="M9.2 12.9c-.1-.1-.1-.2-.1-.3-.1-.4.2-.9.6-1 .4-.1.9.2 1 .6v.3l-1.5.4zm5.6 0c.1-.1.1-.2.1-.3.1-.4-.2-.9-.6-1-.4-.1-.9.2-1 .6v.3l1.5.4zM16 7.3c.3-.3.5-.6.7-1-.4 0-.9 0-1.3-.1s-.7-.3-1-.5c-.6-.5-1.4-.7-2.2-.8-2.3-.1-4.1 1.9-4.1 4.2v2.3c.8-.7 1.3-1.6 1.5-2.4 1.4.1 3.8-.3 4.9-.7.2 1.1.8 2.2 1.6 3.1V9c0-.5-.1-1-.3-1.5l.2-.2z" fill="#000"/></svg>