<svg width="24" height="24" fill="none" xmlns="http://www.w3.org/2000/svg"><path opacity=".3" d="M11.85 21.977l-1.8-.8c-.5-.2-.7-.8-.5-1.3l.4-.9c.9-2.1.9-4.1 0-6.2-1.4-3.1-1.4-6.2 0-9.3l.4-.9c.2-.5.8-.7 1.3-.5l1.8.8c.5.2.7.8.5 1.3l-.4.9c-.9 2.1-.9 4.1 0 6.2 1.4 3.1 1.4 6.2 0 9.3l-.4.9c-.2.5-.8.7-1.3.5zm8.2-.5l.4-.9c1.4-3.1 1.4-6.2 0-9.3-.9-2.1-.9-4.1 0-6.2l.4-.9c.2-.5 0-1.1-.5-1.3l-1.8-.8c-.5-.2-1.1 0-1.3.5l-.4.9c-1.4 3.1-1.4 6.2 0 9.3.9 2.1.9 4.1 0 6.2l-.4.9c-.2.5 0 1.1.5 1.3l1.8.8c.5.2 1.1 0 1.3-.5z" fill="#000"/><path d="M4.95 21.977l-1.8-.8c-.5-.2-.7-.8-.5-1.3l.4-.9c.9-2.1.9-4.1 0-6.2-1.4-3.1-1.4-6.2 0-9.3l.4-.9c.2-.5.8-.7 1.3-.5l1.8.8c.5.2.7.8.5 1.3l-.4.9c-.9 2.1-.9 4.1 0 6.2 1.4 3.1 1.4 6.2 0 9.3l-.4.9c-.2.5-.8.7-1.3.5z" fill="#000"/></svg>