<svg width="24" height="24" fill="none" xmlns="http://www.w3.org/2000/svg"><path d="M22 12v.7l-2.5-2.5-2.6 2.6c0-.3.1-.5.1-.8 0-2.5-1.8-4.5-4.2-4.9l-2.6-2.6L12.7 2c5.2.4 9.3 4.7 9.3 10zm-10.8 4.9C8.8 16.5 7 14.5 7 12c0-.3 0-.5.1-.8l-2.6 2.6L2 11.3v.7c0 5.3 4.1 9.6 9.3 10l2.5-2.5-2.6-2.6z" fill="#000"/><path opacity=".3" d="M22 12.7c-.4 5.2-4.7 9.3-10 9.3h-.7l2.5-2.5-2.6-2.6c.3 0 .5.1.8.1 2.5 0 4.5-1.8 4.9-4.2l2.6-2.6 2.5 2.5zM10.2 4.5L12.7 2H12C6.7 2 2.4 6.1 2 11.3l2.5 2.5 2.6-2.6C7.5 8.8 9.5 7 12 7c.3 0 .5 0 .8.1l-2.6-2.6z" fill="#000"/></svg>