<svg width="24" height="24" fill="none" xmlns="http://www.w3.org/2000/svg"><path opacity=".3" d="M12 22c5.523 0 10-4.477 10-10S17.523 2 12 2 2 6.477 2 12s4.477 10 10 10z" fill="#000"/><path d="M8.7 6c-.6-.3-1.3-.6-1.9-.9C7.8 4 8.9 3 10.1 2.2c.6-.1 1.3-.2 1.9-.2.7 0 1.3.1 1.9.2-1.9 1-3.7 2.3-5.2 3.8zM12 8.4c1.9-1.8 4.2-3.1 6.7-3.8-.6-.6-1.3-1-2-1.4-2.3.9-4.5 2.2-6.2 3.9.5.4 1 .8 1.5 1.3zM7 20v.6c-.8-.5-1.5-1-2.1-1.6-.3-1-.9-1.8-1.7-2.4-.4-.8-.7-1.6-.9-2.5C5 14.7 7 17.1 7 20zm3.6-10.1c-1.9-1.8-4.2-3-6.8-3.6-.4.6-.8 1.2-1 1.9 2.6.4 4.9 1.6 6.7 3.4.3-.7.7-1.2 1.1-1.7zm-8.4.2c-.1.6-.2 1.3-.2 1.9v.1c2.3.3 4.4 1.6 5.6 3.5.2-.8.5-1.5.8-2.2-1.5-1.8-3.7-3-6.2-3.3zM11 20c0-6 4.4-11 10.2-11.9-.3-.7-.6-1.3-1-1.9C13.8 7.5 9 13.1 9 19.9c0 .5 0 1.1.1 1.6.7.2 1.4.3 2.1.4-.1-.6-.2-1.2-.2-1.9zm8.1-1c.3-1 .9-1.8 1.7-2.4.4-.8.7-1.6.9-2.5-2.7.6-4.8 3-4.8 5.9v.6c.9-.4 1.6-1 2.2-1.6zM15 20c0-4.1 3.1-7.4 7-7.9V12c0-.7-.1-1.3-.2-1.9-5 .6-8.8 4.8-8.8 9.9 0 .7.1 1.3.2 1.9.7-.1 1.3-.2 2-.4-.1-.5-.2-1-.2-1.5z" fill="#000"/></svg>