<svg width="24" height="24" fill="none" xmlns="http://www.w3.org/2000/svg"><path opacity=".3" d="M13.341 22h-2c-.6 0-1-.4-1-1v-3c0-.6.4-1 1-1h2c.6 0 1 .4 1 1v3c0 .6-.4 1-1 1zm5.2-11.3l2.6-1.5c.5-.3.6-.9.4-1.4l-1-1.7c-.3-.5-.9-.6-1.4-.4l-2.6 1.5c-.5.3-.6.9-.4 1.4l1 1.7c.3.5.9.7 1.4.4zM8.14 7.3l-2.6-1.5c-.5-.3-1.1-.1-1.4.4l-1 1.7c-.3.5-.1 1.1.4 1.4l2.6 1.5c.5.3 1.1.1 1.4-.4l1-1.7c.2-.5.1-1.2-.4-1.4z" fill="#000"/><path d="M13.34 7h-2c-.6 0-1-.4-1-1V3c0-.6.4-1 1-1h2c.6 0 1 .4 1 1v3c0 .6-.4 1-1 1zm-7.8 11.2l2.601-1.5c.5-.3.6-.9.4-1.4l-1-1.7c-.3-.5-.9-.6-1.4-.4l-2.6 1.5c-.5.3-.6.9-.4 1.4l1 1.7c.3.5.9.7 1.4.4zm15.6-3.4l-2.6-1.5c-.5-.3-1.1-.1-1.4.4l-1 1.7c-.3.5-.1 1.1.4 1.4l2.6 1.5c.5.3 1.1.1 1.4-.4l1-1.7c.2-.5.1-1.2-.4-1.4z" fill="#000"/></svg>