<svg width="24" height="24" fill="none" xmlns="http://www.w3.org/2000/svg"><path d="M12.044 17.944v-5.8l5 2.9c1.6.9 2.1 3 1.2 4.6-.9 1.6-3 2.1-4.6 1.2-1-.6-1.6-1.7-1.6-2.9zm-5-2.9l5-2.9-5-2.9c-1.6-.9-3.6-.4-4.6 1.2-.9 1.6-.4 3.6 1.2 4.6 1.1.6 2.4.6 3.4 0zm5-8.7v5.8l5-2.9c1.6-.9 2.1-3 1.2-4.6-.9-1.6-3-2.1-4.6-1.2-1 .6-1.6 1.7-1.6 2.9z" fill="#000"/><path opacity=".3" d="M7.044 9.244c-1-.6-1.7-1.7-1.7-2.9 0-1.8 1.5-3.3 3.3-3.3 1.8 0 3.3 1.5 3.3 3.3v5.8l-4.9-2.9zm10 5.8c1 .6 2.3.6 3.3 0 1.6-.9 2.1-3 1.2-4.6-.9-1.6-3-2.1-4.6-1.2l-5 2.9 5.1 2.9zm-10 0c-1 .6-1.7 1.7-1.7 2.9 0 1.8 1.5 3.3 3.3 3.3 1.8 0 3.3-1.5 3.3-3.3v-5.8l-4.9 2.9z" fill="#000"/></svg>