<svg width="24" height="24" fill="none" xmlns="http://www.w3.org/2000/svg"><path opacity=".3" d="M22.1 11.5v1.1c0 .6-.4 1-.9 1.1l-1.3.2c-.2.8-.5 1.6-1 2.3l.8 1.1c.3.4.3 1.1-.1 1.5l-.8.8c-.4.4-1 .4-1.5.1l-1.1-.8c-.7.4-1.5.8-2.3 1l-.2 1.3c-.1.5-.6.9-1.1.9h-1.1c-.6 0-1-.4-1.1-.9l-.2-1.3c-.8-.2-1.6-.5-2.3-1l-1.1.8c-.4.3-1.1.3-1.5-.1l-.8-.8c-.4-.4-.4-1-.1-1.5l.8-1.1c-.4-.7-.8-1.5-1-2.3l-1.3-.2c-.5-.1-.9-.6-.9-1.1v-1.1c0-.6.4-1 .9-1.1l1.3-.2c.2-.8.5-1.6 1-2.3l-.8-1.1c-.3-.4-.3-1.1.1-1.5l.8-.8c.4-.4 1-.4 1.5-.1l1.1.8c.7-.4 1.5-.8 2.3-1l.2-1.3c.1-.5.6-.9 1.1-.9h1.1c.6 0 1 .4 1.1.9l.2 1.3c.8.2 1.6.5 2.3 1l1.1-.8c.4-.3 1.1-.3 1.5.1l.8.8c.4.4.4 1 .1 1.5l-.8 1.1c.4.7.8 1.5 1 2.3l1.3.2c.5.1.9.6.9 1.1zm-10-2.9c-1.9 0-3.5 1.6-3.5 3.5s1.6 3.5 3.5 3.5 3.5-1.6 3.5-3.5-1.6-3.5-3.5-3.5z" fill="#000"/><path d="M17.1 12.1c0 2.8-2.2 5-5 5s-5-2.2-5-5 2.2-5 5-5 5 2.2 5 5zm-5-2c-1.1 0-2 .9-2 2s.9 2 2 2 2-.9 2-2-.9-2-2-2z" fill="#000"/></svg>