<svg width="24" height="24" fill="none" xmlns="http://www.w3.org/2000/svg"><path d="M12.6 7c-.6 0-1-.4-1-1V3c0-.6.4-1 1-1s1 .4 1 1v3c0 .6-.4 1-1 1zm-2.6.6c.5-.3.6-.9.4-1.4L9 3.8c-.3-.5-.9-.6-1.4-.4-.5.3-.6.9-.4 1.4l1.4 2.4c.2.3.5.5.9.5.2 0 .4 0 .5-.1zM8 9.3c.3-.5.1-1.1-.4-1.4L5.5 6.7c-.5-.3-1.1-.1-1.4.4-.3.5-.1 1.1.4 1.4l2.1 1.2c.2.1.3.1.5.1.4 0 .8-.1.9-.5zM7.2 12c0-.6-.4-1-1-1H4c-.6 0-1 .4-1 1s.4 1 1 1h2.2c.5 0 1-.4 1-1z" fill="#000"/><path opacity=".3" d="M17.4 5.5c0 .6-.4 1-1 1s-1-.4-1-1 .4-1 1-1 1 .5 1 1zM5.8 17.1l1.6-1c.5-.3.6-.9.4-1.4-.3-.5-.9-.6-1.4-.4l-1.6 1c-.5.3-.6.9-.4 1.4.2.3.5.5.9.5.2.1.3 0 .5-.1zm2.6 3.1c-.2 0-.3 0-.5-.1-.5-.3-.6-.9-.4-1.4l.8-1.4c.3-.5.9-.6 1.4-.4.5.3.6.9.4 1.4l-.8 1.4c-.2.3-.6.5-.9.5zm4.2 1c-.6 0-1-.4-1-1v-1.4c0-.6.4-1 1-1s1 .4 1 1v1.4c0 .5-.4 1-1 1zm4.1-1.3c-.3 0-.7-.2-.9-.5l-.6-.9c-.3-.5-.1-1.1.4-1.4.5-.3 1.1-.1 1.4.4l.6.9c.3.5.1 1.1-.4 1.4-.2.1-.4.1-.5.1zm2.7-2.9c-.2 0-.3 0-.5-.1l-.7-.4c-.5-.3-.6-.9-.4-1.4.3-.5.9-.6 1.4-.4l.7.4c.5.3.6.9.4 1.4-.2.3-.5.5-.9.5zm1-4h-.5c-.6 0-1-.4-1-1s.4-1 1-1h.5c.6 0 1 .4 1 1s-.5 1-1 1zm-1.5-3.7c-.3 0-.7-.2-.9-.5-.3-.5-.1-1.1.4-1.4l.2-.1c.5-.3 1.1-.1 1.4.4.3.5.1 1.1-.4 1.4l-.2.1c-.1 0-.3.1-.5.1z" fill="#000"/></svg>