<svg width="24" height="24" fill="none" xmlns="http://www.w3.org/2000/svg"><path opacity=".3" d="M21 2h-8c-.6 0-1 .4-1 1v10c0 .6.4 1 1 1h8c.6 0 1-.4 1-1V3c0-.6-.4-1-1-1zm-5.3 6L14 10.1V5.8L15.7 8zm-.6-4h3.8L17 6.4 15.1 4zM17 9.6l1.9 2.4h-3.8L17 9.6zM18.3 8L20 5.9v4.3L18.3 8zM9 2H3c-.6 0-1 .4-1 1v18c0 .6.4 1 1 1h6c.6 0 1-.4 1-1V3c0-.6-.4-1-1-1zM4.9 12L4 14.8V9.1l.9 2.9zm-.5-8h3.2L6 8.8 4.4 4zM6 15.2L7.6 20H4.4L6 15.2zM7.1 12L8 9.2v5.7L7.1 12z" fill="#000"/><path d="M21 18h-8c-.6 0-1-.4-1-1s.4-1 1-1h8c.6 0 1 .4 1 1s-.4 1-1 1zm-2 3c0-.6-.4-1-1-1h-5c-.6 0-1 .4-1 1s.4 1 1 1h5c.6 0 1-.4 1-1z" fill="#000"/></svg>