<svg width="24" height="24" fill="none" xmlns="http://www.w3.org/2000/svg"><path d="M16.95 18.969c-.2 0-.4-.1-.6-.2-.5-.3-.6-.9-.3-1.4l3.6-5.4-3.6-5.4c-.3-.5-.2-1.1.3-1.4.5-.3 1.1-.2 1.4.3l4 6c.2.3.2.8 0 1.1l-4 6c-.2.2-.5.4-.8.4zm-9.4-.2c.5-.3.6-.9.3-1.4l-3.6-5.4 3.6-5.4c.3-.5.2-1.1-.3-1.4-.5-.3-1.1-.2-1.4.3l-4 6c-.2.3-.2.8 0 1.1l4 6c.2.3.5.4.8.4.2 0 .4-.1.6-.2z" fill="#000"/><path opacity=".3" d="M10.45 18.969h-.2c-.5-.1-.9-.7-.7-1.2l3-12c.1-.5.7-.9 1.2-.7.5.1.9.7.7 1.2l-3 12c-.1.4-.6.7-1 .7z" fill="#000"/></svg>