<svg width="24" height="24" fill="none" xmlns="http://www.w3.org/2000/svg"><path opacity=".3" d="M18.4 5.6a2.012 2.012 0 010 2.843L14.843 12A2.01 2.01 0 0112 9.157l3.553-3.553a2.012 2.012 0 012.843 0L18.4 5.6zm2.128-2.128a5.025 5.025 0 00-7.107 0L9.868 7.025a5.026 5.026 0 007.107 7.107l3.553-3.553a5.025 5.025 0 000-7.107z" fill="#000"/><path d="M14.132 9.868a5 5 0 00-1.721-1.121l-.411.41A2.012 2.012 0 0012 12a2.012 2.012 0 010 2.843l-3.553 3.553a2.01 2.01 0 11-2.843-2.843l3.143-3.142a5.037 5.037 0 010-3.664 5 5 0 00-1.722 1.121l-3.553 3.553a5.026 5.026 0 007.107 7.107l3.553-3.553a5.025 5.025 0 000-7.107z" fill="#000"/></svg>