<svg width="24" height="24" fill="none" xmlns="http://www.w3.org/2000/svg"><path d="M15.008 5.052c.5-.6.9-1.4 1-2.2.1-.6-.5-1-1-.8-.8.3-1.5.8-2.1 1.4-.5.6-.9 1.4-1 2.3 0 .5.5.9.9.7.9-.1 1.7-.7 2.2-1.4z" fill="#000"/><path opacity=".3" d="M18.408 10.052c.4-.4.4-1.1-.1-1.5-.7-.5-1.5-.9-2.4-1-1.3-.1-2.4.8-3.7.8-1.2 0-2.1-.8-3.5-.8s-2.9.9-3.9 2.4c-1.3 2.1-1.1 6 1.1 9.4.8 1.2 1.8 2.5 3.2 2.6 1.2 0 1.6-.8 3.2-.8s2 .8 3.2.8c1.4 0 2.5-1.5 3.2-2.7.4-.6.6-.9.8-1.4.2-.4 0-1-.4-1.2-2.3-1.6-2.6-4.8-.7-6.6z" fill="#000"/></svg>