<svg width="24" height="24" fill="none" xmlns="http://www.w3.org/2000/svg"><path d="M4.335 8.615A1.338 1.338 0 003 9.954v5.353a1.335 1.335 0 002.67 0V9.954a1.338 1.338 0 00-1.335-1.339zm16.018 0a1.337 1.337 0 00-1.334 1.339v5.353a1.334 1.334 0 102.669 0V9.954a1.338 1.338 0 00-1.335-1.339zM8.339 18.062v2.6a1.335 1.335 0 002.67 0v-2.6h-2.67z" fill="#000"/><path opacity=".3" d="M16.344 18.062a1.337 1.337 0 001.335-1.338V8.693H7.004v8.031a1.337 1.337 0 001.335 1.338h8.005z" fill="#000"/><path d="M13.679 18.062v2.6a1.335 1.335 0 102.67 0v-2.6h-2.67zM15.676 4.539l1.188-1.444a.667.667 0 10-1.029-.852l-1.3 1.578a5.206 5.206 0 00-4.41.016L8.86 2.252a.668.668 0 00-1.042.837L8.99 4.558a5.322 5.322 0 00-1.987 4.135h10.681a5.328 5.328 0 00-2.008-4.154zm-5 2.808a1 1 0 110-2 1 1 0 010 2zm3.329 0a1 1 0 110-2 1 1 0 010 2z" fill="#000"/></svg>