<svg width="24" height="24" fill="none" xmlns="http://www.w3.org/2000/svg"><path d="M11.2 7.2c.4.5.6 1.1.6 1.9 0 .7-.2 1.3-.6 1.8-.2.3-.5.5-.9.7.6.2 1.1.6 1.4 1.1.3.5.5 1.1.5 1.8s-.2 1.4-.6 1.9c-.2.4-.5.7-.9 1-.4.3-.9.5-1.4.6-.5.1-1.1.2-1.7.2H3c-.6 0-1-.4-1-1V7c0-.6.4-1 1-1h5c1.5 0 2.5.4 3.2 1.2zm-6.7.9v2.7h3c.5 0 1-.1 1.3-.3.3-.2.5-.6.5-1.1 0-.6-.2-.9-.7-1.1-.4-.1-.9-.2-1.5-.2H4.5zm0 4.7v3.3h3c.5 0 1-.1 1.3-.2.5-.3.8-.8.8-1.5 0-.6-.3-1.1-.8-1.3-.3-.1-.7-.2-1.2-.2l-3.1-.1zm15.1-3.5c.6.3 1.2.7 1.6 1.3.4.5.6 1.2.7 1.9 0 .2.1.5.1.8 0 .6-.4 1-1 1h-5.6c0 .9.4 1.5 1 1.9.4.2.8.3 1.3.3.4 0 1.1-.2 1.5-.6.3-.3.7-.4 1.2-.4h.6c.5 0 .8.6.5 1-.9 1.4-2.7 2-3.9 2-1.2 0-2.3-.4-3.2-1.1-.9-.7-1.4-1.9-1.4-3.6 0-1.6.4-2.8 1.3-3.6.8-.8 1.9-1.3 3.3-1.3.7 0 1.4.1 2 .4zm-3.6 2c-.3.3-.6.8-.6 1.4h4.1c0-.6-.3-1.1-.6-1.4-.4-.3-.9-.5-1.4-.5-.6 0-1.1.2-1.5.5z" fill="#000"/><path opacity=".3" d="M15.5 8h3.8c.4 0 .8-.3.8-.8 0-.4-.3-.8-.8-.8h-3.8c-.4 0-.8.3-.8.8.1.5.4.8.8.8z" fill="#000"/></svg>