<svg width="24" height="24" fill="none" xmlns="http://www.w3.org/2000/svg"><path opacity=".3" d="M19 4.4c-.8-.9-1.9-1.4-3.2-1.4-1.7 0-3.3 1-4 2.6-.8 1.8.1 3.9-.6 5.7-1.1 3-3.4 5.6-6.3 6.6-.4.1-1.1.3-1.8.3-.5.1-.7.8-.2 1 1.5.6 3.1 1 4.9 1 8 0 12.4-6.6 12.4-12.4v-.6c.6-.5 1.2-1.1 1.7-1.9.3-.5 0-1.1-.5-1.2-.9.1-1.7.1-2.4.3z" fill="#000"/><path d="M11.5 8.3c-3.2-.2-5.9-1.5-8.2-3.8-.4-.4-1-.2-1.1.3-.6 1.8.2 3.6 1.7 4.8-.4 0-.8-.1-1.2-.2-.3-.1-.7.2-.6.6.4 1.8 1.5 2.9 3.3 3.4-.3.1-.7.1-1.1.2-.4 0-.6.5-.4.8.8 1.3 2 2.1 3.6 2.1 1.3 0 2.6 0 3.7-.7 1.5-.9 2.7-2.6 2.6-4.4.1-1.4-.7-3-2.3-3.1z" fill="#000"/></svg>