<svg width="24" height="24" fill="none" xmlns="http://www.w3.org/2000/svg"><path opacity=".3" d="M17.1 10.5h-6c-.6 0-1-.4-1-1v-1c0-.6.4-1 1-1h6c.6 0 1 .4 1 1v1c0 .6-.4 1-1 1zm5-6v-1c0-.6-.4-1-1-1h-10c-.6 0-1 .4-1 1v1c0 .6.4 1 1 1h10c.6 0 1-.4 1-1zm0 11v-1c0-.6-.4-1-1-1h-10c-.6 0-1 .4-1 1v1c0 .6.4 1 1 1h10c.6 0 1-.4 1-1zm-4 5v-1c0-.6-.4-1-1-1h-6c-.6 0-1 .4-1 1v1c0 .6.4 1 1 1h6c.6 0 1-.4 1-1z" fill="#000"/><path d="M5.6 10.5c-.3 0-.6-.1-.8-.3-.2-.2-.3-.5-.3-.9V5.4c-.8.5-1.1.6-1.4.6-.2 0-.5-.1-.6-.3-.2-.2-.3-.4-.3-.7 0-.4.2-.6.3-.7.1-.1.3-.2.6-.4.4-.2.7-.4.9-.6l.6-.6c.2-.3.3-.5.4-.5.1-.1.3-.2.6-.2s.5.1.7.4c.2.2.2.5.2.8V9c.1 1.4-.6 1.5-.9 1.5zm1.5 11c.3 0 .6-.1.8-.3.2-.2.3-.4.3-.7 0-.3-.1-.6-.4-.7-.2-.2-.5-.2-.8-.2H5.1c.2-.2.4-.4.7-.6.5-.4.9-.7 1.1-.9.2-.2.5-.5.7-.9.2-.4.4-.9.4-1.3 0-.3-.1-.6-.2-.9-.1-.3-.3-.5-.5-.8-.2-.2-.5-.4-.7-.5-.4-.2-.9-.3-1.5-.3-.5 0-.9.1-1.3.2s-.7.3-.9.6c-.2.2-.4.5-.6.8-.1.3-.2.6-.2.9 0 .4.2.6.3.7.2.2.4.3.7.3.4 0 .6-.2.7-.3l.3-.6c.1-.2.1-.3.1-.3.2-.3.4-.4.7-.4.1 0 .3 0 .4.1.1.1.2.1.3.3.1.1.1.2.1.4 0 .1 0 .3-.1.5s-.2.3-.4.5-.4.4-.6.5c-.2.1-.4.3-.8.7-.4.3-.8.7-1.2 1.2-.1.1-.3.3-.4.6-.1.3-.2.5-.2.6 0 .3.1.6.3.8.2.2.5.3.9.3h3.9v-.3z" fill="#000"/></svg>