<svg width="24" height="24" fill="none" xmlns="http://www.w3.org/2000/svg"><path d="M6.5 22c-.8 0-1.5-.7-1.5-1.5S5.7 19 6.5 19h11c.8 0 1.5.7 1.5 1.5s-.7 1.5-1.5 1.5h-11zm5.7-4.8c-1.1 0-2.1-.1-2.9-.4-.8-.2-1.5-.6-2-1.2-.5-.5-.9-1.2-1.2-2-.2-.8-.4-1.7-.4-2.8V4c0-.7.2-1.2.5-1.5.3-.4.7-.5 1.3-.5.5 0 1 .2 1.3.5.3.3.5.9.5 1.5v6.9c0 .7.1 1.4.2 1.9.2.5.4.8.8 1.1.4.3 1 .4 1.7.4 1 0 1.7-.3 2.1-.8.4-.5.6-1.4.6-2.5V4c0-.7.2-1.2.5-1.5.3-.4.7-.5 1.3-.5.5 0 1 .2 1.3.5.3.3.5.9.5 1.5v6.8c0 1.1-.1 2.1-.3 2.8-.2.8-.7 1.5-1.3 2.1-.5.5-1.2.9-1.9 1.1-.8.3-1.6.4-2.6.4z" fill="#000"/></svg>