<svg width="24" height="24" fill="none" xmlns="http://www.w3.org/2000/svg"><path opacity=".3" d="M17 10h-6c-.6 0-1-.4-1-1V8c0-.6.4-1 1-1h6c.6 0 1 .4 1 1v1c0 .6-.4 1-1 1zm5-6V3c0-.6-.4-1-1-1H11c-.6 0-1 .4-1 1v1c0 .6.4 1 1 1h10c.6 0 1-.4 1-1zm0 11v-1c0-.6-.4-1-1-1H11c-.6 0-1 .4-1 1v1c0 .6.4 1 1 1h10c.6 0 1-.4 1-1zm-4 5v-1c0-.6-.4-1-1-1h-6c-.6 0-1 .4-1 1v1c0 .6.4 1 1 1h6c.6 0 1-.4 1-1z" fill="#000"/><path d="M8 5c0 1.7-1.3 3-3 3S2 6.7 2 5s1.3-3 3-3 3 1.3 3 3zM5 4c-.6 0-1 .4-1 1s.4 1 1 1 1-.4 1-1-.4-1-1-1zm3 12c0 1.7-1.3 3-3 3s-3-1.3-3-3 1.3-3 3-3 3 1.3 3 3zm-3-1c-.6 0-1 .4-1 1s.4 1 1 1 1-.4 1-1-.4-1-1-1z" fill="#000"/></svg>