<svg width="24" height="24" fill="none" xmlns="http://www.w3.org/2000/svg"><path opacity=".3" d="M21.3 11.9c0 5.2-4.2 9.4-9.3 9.4-5.2 0-9.3-4.2-9.3-9.4S6.9 2.5 12 2.5c5.2.1 9.3 4.3 9.3 9.4z" fill="#000"/><path d="M12 2C6.5 2 2 6.5 2 12s4.5 10 10 10 10-4.5 10-10S17.5 2 12 2zm8 9.5c-1.8-.2-3.6-.2-5.2.1-.2-.6-.5-1.2-.7-1.7 1.5-.8 3-1.8 4.2-3 .9 1.3 1.6 2.9 1.7 4.6zm-3.3-5.9c-1.1 1-2.3 1.9-3.6 2.6-.7-1.4-1.5-2.7-2.4-4 .4-.1.8-.1 1.3-.1 1.8-.1 3.4.5 4.7 1.5zm-8-.9c1 1.4 1.8 2.8 2.6 4.2-2.2.8-4.5 1.1-7 .9.6-2.2 2.3-4.1 4.4-5.1zM4 12v-.2c.5 0 1.1.1 1.6.1 2.3 0 4.5-.4 6.5-1.2.2.5.4 1 .6 1.4-2.6.9-5 2.5-7 4.9-1-1.4-1.7-3.1-1.7-5zm3.2 6.4c1.8-2.1 3.9-3.6 6.2-4.4.6 1.8 1 3.6 1.3 5.5-.9.3-1.8.5-2.8.5-1.7 0-3.3-.6-4.7-1.6zm9.4.1c-.3-1.7-.7-3.3-1.2-5 1.4-.2 2.9-.2 4.4 0-.4 2.1-1.5 3.8-3.2 5z" fill="#000"/></svg>