<svg width="24" height="24" fill="none" xmlns="http://www.w3.org/2000/svg"><path opacity=".3" d="M5.725 20.19c-.01-.007-.021-.011-.031-.017A6.08 6.08 0 018.349 9.1c.144-.015.327-.026.527-.031a1 1 0 011 .807c-.013 0-.023-.007-.036-.007a6.96 6.96 0 00-.527.031A6.06 6.06 0 005.73 20.191l-.005-.001zM18.252 6.695c.44.274.924.47 1.431.581a1.093 1.093 0 00-.845-.765 4.567 4.567 0 01-1.478-.581c.262.292.561.549.889.765h.003zm-9.473 11.7a2.78 2.78 0 004.03-2.472V3.8a1 1 0 011-1h1.3c.034 0 .062.014.1.017A1.118 1.118 0 0014.149 2h-1.3a1 1 0 00-1 1v12.126a2.779 2.779 0 01-4.021 2.476c.253.334.578.607.951.798v-.005zm8.511-12.5c.022.014.048.022.07.035a4.575 4.575 0 01-1.148-2.194 1.136 1.136 0 00-1.008-.919c.018.039.032.078.045.119A4.6 4.6 0 0017.29 5.9v-.005zm-7.379 5.46a1 1 0 01-.952.99 2.831 2.831 0 00-2.672 2.771 2.777 2.777 0 001.529 2.482h.01a2.759 2.759 0 01-.576-1.686 2.83 2.83 0 012.672-2.77 1 1 0 00.951-.991v-1.287a1 1 0 00-1-.993c.02.063.033.127.04.193l-.002 1.291zM19.8 7.311c-.04-.008-.077-.026-.117-.035.032.094.05.192.053.291v1.306a.949.949 0 01-1.07.94 7.847 7.847 0 01-3.512-1.394v6.493A6.218 6.218 0 019.6 21.178a6.06 6.06 0 01-3.875-.988c.284.29.596.553.931.783a6.069 6.069 0 003.906 1.005 6.219 6.219 0 005.555-6.266V9.219a7.842 7.842 0 003.511 1.394.947.947 0 001.07-.94V8.367A1.085 1.085 0 0019.8 7.31z" fill="#000"/><path d="M15.149 14.912V8.419a7.847 7.847 0 003.512 1.394.948.948 0 001.07-.94V7.567a1.012 1.012 0 00-.053-.291 4.544 4.544 0 01-1.431-.581 4.596 4.596 0 01-.892-.765c-.022-.013-.048-.021-.07-.035a4.6 4.6 0 01-2.041-2.959 1.009 1.009 0 00-.045-.119c-.033 0-.061-.017-.1-.017h-1.3a1 1 0 00-1 1v12.126a2.774 2.774 0 01-4.983 1.676h-.01a2.778 2.778 0 01-1.529-2.482 2.831 2.831 0 012.672-2.77 1 1 0 00.952-.991v-1.287a.96.96 0 00-.04-.193c-.013 0-.023-.007-.036-.007a6.96 6.96 0 00-.527.031 5.663 5.663 0 10.292 11.279 6.218 6.218 0 005.559-6.27z" fill="#000"/></svg>