<svg width="24" height="24" fill="none" xmlns="http://www.w3.org/2000/svg"><path opacity=".3" d="M22 8.203v7.5c0 3.4-2.8 6.3-6.3 6.3H8.2c-3.4 0-6.2-2.8-6.2-6.3v-7.5c0-3.4 2.8-6.2 6.2-6.2h7.5c3.5-.1 6.3 2.7 6.3 6.2zm-10-.9c-2.5 0-4.6 2.1-4.6 4.6 0 2.5 2.1 4.6 4.6 4.6 2.5 0 4.6-2.1 4.6-4.6 0-2.6-2.1-4.6-4.6-4.6zm5.9-2.3c-.6 0-1 .4-1 1s.4 1 1 1 1-.4 1-1c0-.5-.5-1-1-1z" fill="#000"/><path d="M12 17.503c-3.1 0-5.6-2.5-5.6-5.6 0-3.1 2.5-5.6 5.6-5.6 3.1 0 5.6 2.5 5.6 5.6 0 3.1-2.5 5.6-5.6 5.6zm0-9.2c-2 0-3.6 1.6-3.6 3.6s1.6 3.6 3.6 3.6 3.6-1.6 3.6-3.6-1.6-3.6-3.6-3.6z" fill="#000"/></svg>