<svg width="2898" height="1674" fill="none" xmlns="http://www.w3.org/2000/svg"><g clip-path="url(#clip0)"><mask id="a" maskUnits="userSpaceOnUse" x="-311" y="-313" width="3520" height="1557"><path fill="#C4C4C4" d="M-310.439-312.316h3518.88v1555.45h-3518.88z"/></mask><g mask="url(#a)"><circle cx="1449" cy="-2166.41" r="3409.75" fill="#2A182E"/></g><mask id="c" maskUnits="userSpaceOnUse" x="-311" y="-313" width="3520" height="1557"><mask id="b" maskUnits="userSpaceOnUse" x="-311" y="-313" width="3520" height="1557"><path fill="#C4C4C4" d="M-310.439-312.316h3518.88v1555.45h-3518.88z"/></mask><g mask="url(#b)"><circle cx="1449" cy="-2166.41" r="3409.75" fill="#2A182E"/></g></mask><g mask="url(#c)" fill="#fff" fill-opacity=".04"><path d="M164.002 1428.23c-62.729-62.8-62.729-164.61 0-227.4L1299.81 63.808c62.72-62.796 164.43-62.796 227.16 0l392.37 392.788c62.72 62.796 62.72 164.608 0 227.404L783.531 1821.02c-62.728 62.79-164.432 62.79-227.161 0l-392.368-392.79zM1650.86 1428.23c-62.73-62.8-62.73-164.61 0-227.4l392.37-392.791c62.73-62.796 164.43-62.796 227.16 0l392.37 392.791c62.73 62.79 62.73 164.6 0 227.4l-392.37 392.79c-62.73 62.79-164.43 62.79-227.16 0l-392.37-392.79zM1103.61 2368.85c-171.073-171.26-171.073-448.93 0-620.19 171.08-171.26 448.46-171.26 619.53 0 171.08 171.26 171.08 448.93 0 620.19-171.07 171.26-448.45 171.26-619.53 0z"/></g></g><defs><clipPath id="clip0"><path fill="#fff" d="M0 0h2898v1674H0z"/></clipPath></defs></svg>