<svg width="25" height="25" viewBox="0 0 200 200" xmlns="http://www.w3.org/2000/svg"><path d="M50 50C22.386 50 0 72.386 0 100h100c0-27.614-22.386-50-50-50z" fill="rgba(255,255,255,0.02)"/><g transform="translate(100)"><g clip-path="url(#a)"><path d="M0 50c0 27.614 22.386 50 50 50s50-22.386 50-50V0H50C22.386 0 0 22.386 0 50z" fill="rgba(255,255,255,0.02)"/></g><defs><clipPath id="a"><path fill="#fff" d="M0 0h100v100H0z"/></clipPath></defs></g><g clip-path="url(#a)" transform="translate(0 100)"><path d="M0 50C0 22.386 22.386 0 50 0s50 22.386 50 50v50H50C22.386 100 0 77.614 0 50z" fill="rgba(255,255,255,0.02)"/></g><g clip-path="url(#a)" transform="translate(100 100)"><path d="M0 100c55.228 0 100-44.772 100-100H0v100z" fill="rgba(255,255,255,0.02)"/></g></svg>