<svg fill="none" height="360" width="1160" xmlns="http://www.w3.org/2000/svg"><g fill="#fff" opacity=".2"><path d="M140.333 80.667h-32.666a7 7 0 00-7 7V111a6.999 6.999 0 007 7h7v4.667h-7a2.334 2.334 0 00-1.65 3.983 2.33 2.33 0 001.65.683h32.666a2.33 2.33 0 002.334-2.333 2.333 2.333 0 00-2.334-2.333h-7V118h7a6.999 6.999 0 007-7V87.667a6.999 6.999 0 00-7-7zm-11.666 42h-9.334V118h9.334zm14-11.667a2.333 2.333 0 01-2.334 2.333h-32.666a2.33 2.33 0 01-2.334-2.333v-2.333h37.334zM44.333 14h-7v-2.333A4.672 4.672 0 0032.667 7h-9.334a4.672 4.672 0 00-4.667 4.667V14h-7a7.008 7.008 0 00-7 7v21a7.008 7.008 0 007 7h32.667a7.008 7.008 0 007-7V21a7.008 7.008 0 00-7-7zm-21-2.333h9.333V14h-9.333zM46.667 42a2.335 2.335 0 01-2.334 2.333H11.667A2.335 2.335 0 019.332 42V30.333h9.333v2.334a2.333 2.333 0 104.667 0v-2.334h9.333v2.334a2.333 2.333 0 104.667 0v-2.334h9.333zM236.333 4.667h-32.666a7.008 7.008 0 00-7 7v32.666a7.008 7.008 0 007 7h32.666a7.01 7.01 0 007-7V11.667a7.008 7.008 0 00-7-7zM220 14a6.482 6.482 0 110 12.964A6.482 6.482 0 01220 14zm9.936 28.01h-19.872a2.35 2.35 0 01-2.327-2.077 2.35 2.35 0 01.14-1.117 12.979 12.979 0 0124.246 0 2.363 2.363 0 01-.255 2.17 2.348 2.348 0 01-1.932 1.025zM316 80.667a23.332 23.332 0 00-22.885 27.885A23.333 23.333 0 00339.333 104 23.361 23.361 0 00316 80.667zm0 4.666a18.682 18.682 0 0118.504 16.334H316zm9.323 34.814l-7.976-13.814h17.161a18.697 18.697 0 01-9.185 13.814zM237.803 160.515a2.333 2.333 0 00-1.95-.471 18.66 18.66 0 01-14.518-2.958 2.325 2.325 0 00-2.67 0 18.668 18.668 0 01-14.517 2.958 2.336 2.336 0 00-2.815 2.283v17.399a21.036 21.036 0 008.794 17.088l8.517 6.084a2.332 2.332 0 002.712 0l8.518-6.084a21.043 21.043 0 008.793-17.087v-17.4a2.328 2.328 0 00-.864-1.812zM226.9 177.683l-7.934 7.934a2.329 2.329 0 01-2.543.506 2.329 2.329 0 01-.757-.506l-3.732-3.735a2.33 2.33 0 01.01-3.289 2.332 2.332 0 013.289-.01l2.083 2.085 6.284-6.285a2.337 2.337 0 013.309-.009c.218.217.39.476.507.76a2.317 2.317 0 01-.005 1.792 2.36 2.36 0 01-.511.757zM433.386 4.807a30.414 30.414 0 00-5.053-.451A30.06 30.06 0 00412 9.156a30.06 30.06 0 00-16.333-4.8c-1.694.009-3.384.16-5.053.45a2.337 2.337 0 00-1.947 2.302v28a2.329 2.329 0 00.826 1.781 2.335 2.335 0 001.893.52 25.705 25.705 0 014.281-.387 25.47 25.47 0 0114.969 4.85 2.337 2.337 0 002.728 0 25.157 25.157 0 0119.25-4.462 2.334 2.334 0 002.719-2.302v-28a2.33 2.33 0 00-1.947-2.301zm0 37.333a30.42 30.42 0 00-5.053-.451 30.06 30.06 0 00-16.333 4.8 30.06 30.06 0 00-16.333-4.8 30.42 30.42 0 00-5.053.451 2.332 2.332 0 10.772 4.603 25.695 25.695 0 014.281-.387 25.47 25.47 0 0114.969 4.849 2.338 2.338 0 002.728 0 25.155 25.155 0 0119.25-4.462 2.333 2.333 0 10.772-4.603zM46.666 175.8v-7.467c0-3.966-3.033-7-7-7H37.8l-1.867-5.366c-.233-.934-1.167-1.634-2.1-1.634H22.166c-.933 0-1.866.7-2.1 1.634l-1.866 5.366h-1.867c-3.967 0-7 3.034-7 7v7.467c-2.8.933-4.667 3.5-4.667 6.533v14c0 1.4.934 2.334 2.334 2.334h2.333V201c0 1.4.933 2.333 2.333 2.333S14 202.4 14 201v-2.333h28V201c0 1.4.933 2.333 2.333 2.333s2.333-.933 2.333-2.333v-2.333H49c1.4 0 2.333-.934 2.333-2.334v-14c0-3.033-1.867-5.6-4.667-6.533zm-30.333 13.533c-1.4 0-2.333-.933-2.333-2.333s.933-2.333 2.333-2.333 2.333.933 2.333 2.333-.933 2.333-2.333 2.333zm14 0h-4.667c-1.4 0-2.333-.933-2.333-2.333s.933-2.333 2.333-2.333h4.667c1.4 0 2.333.933 2.333 2.333s-.933 2.333-2.333 2.333zm9.333 0c-1.4 0-2.333-.933-2.333-2.333s.933-2.333 2.333-2.333S42 185.6 42 187s-.933 2.333-2.333 2.333zm2.334-14H14v-7c0-1.4.933-2.333 2.333-2.333h23.334c1.4 0 2.333.933 2.333 2.333zM144.381 241.706l-2.358-2.357-4.521-4.522a2.333 2.333 0 10-3.299 3.299l2.271 2.272-1.93 5.817a6.96 6.96 0 001.694 7.153l6.893 6.895v11.097a2.33 2.33 0 01-2.333 2.334 2.333 2.333 0 01-2.333-2.334v-4.666a7.006 7.006 0 00-7-7h-2.334v-21a7.009 7.009 0 00-7-7h-14a7.006 7.006 0 00-7 7v32.666a7.01 7.01 0 007 7h14a7.009 7.009 0 007-7v-7h2.334a2.34 2.34 0 011.649.684c.437.438.683 1.031.684 1.65v4.666a7.003 7.003 0 007 7 6.999 6.999 0 007-7v-21.405a11.584 11.584 0 00-3.417-8.249zm-36.25-5.346h14a2.341 2.341 0 011.65.684c.437.438.683 1.031.684 1.65v11.666h-18.667v-11.666a2.341 2.341 0 01.684-1.65 2.34 2.34 0 011.649-.684zM51.334 308.667H4.666c-1.4 0-2.334.933-2.334 2.333v9.333c0 3.034 1.867 5.6 4.667 6.534V353c0 1.4.933 2.333 2.333 2.333h37.334c1.4 0 2.333-.933 2.333-2.333v-26.133c2.8-.934 4.667-3.5 4.667-6.534V311c0-1.4-.934-2.333-2.334-2.333zm-14 42v-9.334c0-5.133-4.2-9.333-9.334-9.333-5.133 0-9.333 4.2-9.333 9.333v9.334h-7v-23.8c.933-.234 1.633-.7 2.333-1.4 1.167 1.166 2.8 1.866 4.667 1.866s3.5-.7 4.667-1.866c1.166 1.166 2.8 1.866 4.666 1.866 1.867 0 3.5-.7 4.667-1.866 1.167 1.166 2.8 1.866 4.667 1.866s3.5-.7 4.666-1.866c.7.7 1.4 1.166 2.333 1.4v23.8zM1148.33 308.667h-32.66a7.003 7.003 0 00-7 7v32.666a6.982 6.982 0 002.05 4.95 6.993 6.993 0 004.95 2.05h32.66a6.993 6.993 0 004.95-2.05 6.982 6.982 0 002.05-4.95v-32.666a7.003 7.003 0 00-7-7zm-32.66 39.666a2.335 2.335 0 01-2.16-1.44 2.305 2.305 0 01-.13-1.348c.09-.453.31-.869.64-1.195.32-.326.74-.548 1.19-.638a2.341 2.341 0 012.4.992c.25.383.39.835.39 1.296 0 .619-.25 1.212-.68 1.65-.44.438-1.03.683-1.65.683zm9.33 0c-.46 0-.91-.136-1.3-.393a2.38 2.38 0 01-.86-1.047 2.389 2.389 0 01-.13-1.348 2.346 2.346 0 011.83-1.833 2.343 2.343 0 012.4.992c.26.383.39.835.39 1.296 0 .619-.24 1.212-.68 1.65s-1.03.683-1.65.683zm25.67-9.333h-37.34v-11.667h9.34c.62 0 1.21-.246 1.65-.683l2.9-2.903 6.52 7.457c.21.24.47.435.76.571.29.137.6.213.92.224l.08.001c.31 0 .61-.06.89-.178a2.3 2.3 0 00.76-.506l3.98-3.983h9.54zm0-16.333h-10.5c-.62 0-1.22.246-1.65.683l-2.91 2.903-6.52-7.457a2.32 2.32 0 00-.76-.571c-.29-.137-.6-.213-.92-.224-.32-.015-.64.038-.94.156-.29.117-.56.297-.79.527l-3.98 3.983h-8.37v-7c0-.619.25-1.212.69-1.649a2.322 2.322 0 011.65-.685h32.66a2.34 2.34 0 011.65.685c.44.437.69 1.03.69 1.649zM1150.92 192.806L1139 172.369v-11.036h2.33c.62 0 1.22-.245 1.65-.683.44-.438.69-1.031.69-1.65s-.25-1.212-.69-1.65a2.32 2.32 0 00-1.65-.683h-18.66c-.62 0-1.22.246-1.65.683-.44.438-.69 1.031-.69 1.65s.25 1.212.69 1.65c.43.438 1.03.683 1.65.683h2.33v11.036l-11.92 20.437a7.073 7.073 0 00-.96 3.504c0 1.231.32 2.441.94 3.509a6.94 6.94 0 002.56 2.571c1.06.617 2.27.943 3.5.943h25.75a6.96 6.96 0 003.51-.941 7.036 7.036 0 002.57-2.572 7.08 7.08 0 00.93-3.51 7.073 7.073 0 00-.96-3.504zm-21.57-18.63c.21-.357.32-.763.32-1.176v-11.667h4.66V173c0 .413.11.819.32 1.176l2.04 3.491h-9.38zm-2.02 17.49c-.46 0-.91-.137-1.29-.394a2.25 2.25 0 01-.86-1.047c-.18-.426-.23-.895-.14-1.348s.32-.868.64-1.195a2.35 2.35 0 012.55-.506c.42.177.79.476 1.04.86a2.312 2.312 0 01-.29 2.946c-.43.438-1.03.684-1.65.684zm9.34 2.333c-.46 0-.92-.137-1.3-.393a2.383 2.383 0 01-.86-1.048 2.304 2.304 0 01-.13-1.348c.09-.452.31-.868.64-1.194.32-.327.74-.549 1.19-.639a2.342 2.342 0 012.4.992c.25.384.39.835.39 1.297a2.36 2.36 0 01-.68 1.649c-.44.438-1.03.684-1.65.684zM841.664 103.764v11.905a2.333 2.333 0 004.667 0v-11.905a11.664 11.664 0 009.274-12.603 11.666 11.666 0 10-13.941 12.603zm12.163 5.889a2.338 2.338 0 00-2.777 1.786 2.336 2.336 0 001.785 2.776c5.72 1.242 7.496 3.209 7.496 3.785 0 1.354-5.724 4.667-16.333 4.667-10.61 0-16.334-3.313-16.334-4.667 0-.576 1.776-2.543 7.496-3.785a2.335 2.335 0 10-.991-4.562c-7.099 1.545-11.171 4.587-11.171 8.347 0 6.127 10.563 9.333 21 9.333 10.436 0 21-3.206 21-9.333 0-3.76-4.072-6.802-11.171-8.347zM1148.33 6.861H1146V4.528c0-.62-.25-1.213-.68-1.65a2.336 2.336 0 00-3.3 0 2.33 2.33 0 00-.69 1.65V6.86h-18.66V4.528a2.33 2.33 0 00-.69-1.65 2.336 2.336 0 00-3.3 0 2.362 2.362 0 00-.68 1.65V6.86h-2.33a7.002 7.002 0 00-7 7v32.667a7.006 7.006 0 007 7h32.66a7.003 7.003 0 007-7V13.86a7.006 7.006 0 00-7-7zm-28 37.332c-.46 0-.91-.137-1.29-.393-.39-.256-.69-.62-.86-1.047a2.308 2.308 0 01-.14-1.348c.09-.453.32-.869.64-1.195a2.344 2.344 0 012.55-.506c.42.177.79.476 1.04.86a2.312 2.312 0 01-.29 2.946c-.43.437-1.03.683-1.65.683zm0-9.333c-.46 0-.91-.137-1.29-.393-.39-.257-.69-.621-.86-1.047-.18-.427-.23-.896-.14-1.349s.32-.868.64-1.194a2.345 2.345 0 012.55-.506c.42.176.79.476 1.04.86a2.311 2.311 0 01-.29 2.945c-.43.438-1.03.684-1.65.684zm11.67 9.333c-.46 0-.91-.137-1.3-.393-.38-.256-.68-.62-.86-1.047a2.389 2.389 0 01-.13-1.348 2.344 2.344 0 011.83-1.833 2.34 2.34 0 012.4.992c.26.383.39.834.39 1.296 0 .619-.24 1.212-.68 1.65s-1.03.683-1.65.683zm0-9.333c-.46 0-.91-.137-1.3-.393-.38-.257-.68-.621-.86-1.047-.17-.427-.22-.896-.13-1.349s.31-.868.64-1.194.74-.549 1.19-.639a2.34 2.34 0 012.4.992c.26.384.39.835.39 1.297a2.32 2.32 0 01-.68 1.65c-.44.437-1.03.683-1.65.683zm11.67 9.333c-.46 0-.92-.137-1.3-.393s-.68-.62-.86-1.047-.22-.896-.13-1.348c.09-.453.31-.869.64-1.195.32-.326.74-.549 1.19-.639a2.344 2.344 0 012.4.992c.25.384.39.835.39 1.297 0 .619-.25 1.212-.68 1.65-.44.437-1.03.683-1.65.683zm0-9.333c-.46 0-.92-.137-1.3-.393s-.68-.621-.86-1.047c-.18-.427-.22-.896-.13-1.349s.31-.868.64-1.194c.32-.327.74-.549 1.19-.639a2.345 2.345 0 012.4.992c.25.384.39.835.39 1.296 0 .62-.25 1.213-.68 1.65-.44.438-1.03.684-1.65.684zm7-13.999h-37.34v-7c0-.619.25-1.212.69-1.65s1.03-.683 1.65-.683h2.33v2.333c0 .619.25 1.212.68 1.65a2.336 2.336 0 003.3 0 2.33 2.33 0 00.69-1.65v-2.333h18.66v2.333c0 .619.25 1.212.69 1.65a2.336 2.336 0 003.3 0c.43-.438.68-1.031.68-1.65v-2.333h2.33c.62 0 1.22.246 1.65.683.44.438.69 1.031.69 1.65zM938.35 184.128a2.335 2.335 0 00-.506 2.543 2.34 2.34 0 002.156 1.44 2.335 2.335 0 000-4.667c-.619 0-1.212.246-1.65.684zm-5.775-5.775a2.333 2.333 0 103.3 3.298 2.333 2.333 0 00-3.3-3.298zm24.23 1.318l.788-.788a11.65 11.65 0 00-8.24-19.874 11.65 11.65 0 00-8.233 3.4l-.788.789-.648-.648a12.117 12.117 0 00-17.136 17.135l.648.648-.789.79a11.647 11.647 0 008.24 19.873 11.643 11.643 0 008.233-3.4l.79-.789.645.645a12.116 12.116 0 0017.135-17.136zm-2.654 14.481a7.63 7.63 0 01-10.537 0l-17.766-17.766a7.462 7.462 0 010-10.537 7.619 7.619 0 0110.536 0l17.767 17.767a7.441 7.441 0 010 10.536zm-15.801-21.574a2.338 2.338 0 00.354 3.591 2.332 2.332 0 003.584-2.396 2.336 2.336 0 00-3.938-1.195zm5.775 5.775a2.327 2.327 0 00-.506 2.543 2.34 2.34 0 002.156 1.44 2.337 2.337 0 002.155-1.44 2.331 2.331 0 00-2.155-3.226 2.335 2.335 0 00-1.65.683zM954 4.667h-28c-3.967 0-7 3.033-7 7v28c0 3.033 1.867 5.6 4.667 6.533V49c0 1.4.933 2.333 2.333 2.333s2.333-.933 2.333-2.333v-2.333h23.334V49c0 1.4.933 2.333 2.333 2.333s2.333-.933 2.333-2.333v-2.8c2.8-.933 4.667-3.5 4.667-6.533v-28c0-3.967-3.033-7-7-7zm-23.333 35c-1.4 0-2.334-.934-2.334-2.334S929.267 35 930.667 35s2.333.933 2.333 2.333-.933 2.334-2.333 2.334zm7-9.334H926c-1.4 0-2.333-.933-2.333-2.333v-9.333c0-1.4.933-2.334 2.333-2.334h11.667zm11.666 9.334c-1.4 0-2.333-.934-2.333-2.334S947.933 35 949.333 35s2.334.933 2.334 2.333-.934 2.334-2.334 2.334zm7-11.667c0 1.4-.933 2.333-2.333 2.333h-11.667v-14H954c1.4 0 2.333.934 2.333 2.334zM1054.67 239.667h-37.34c-1.85.002-3.63.74-4.94 2.052a7.017 7.017 0 00-2.06 4.948v18.666a7.017 7.017 0 002.06 4.948 6.997 6.997 0 004.94 2.052h37.34a6.997 6.997 0 004.94-2.052 7.017 7.017 0 002.06-4.948v-18.666a7.017 7.017 0 00-2.06-4.948 6.997 6.997 0 00-4.94-2.052zm-24.5 9.333h2.33c.62 0 1.21.246 1.65.683.44.438.68 1.032.68 1.65 0 .619-.24 1.213-.68 1.65-.44.438-1.03.684-1.65.684h-2.33c-.62 0-1.22-.246-1.65-.684a2.328 2.328 0 01-.69-1.65c0-.618.25-1.212.69-1.65a2.32 2.32 0 011.65-.683zm-9.34 14c-.46 0-.91-.137-1.29-.393a2.259 2.259 0 01-.86-1.047 2.311 2.311 0 01-.14-1.349c.1-.452.32-.868.64-1.194a2.342 2.342 0 012.55-.506c.42.177.79.476 1.04.859a2.313 2.313 0 01-.29 2.947 2.32 2.32 0 01-1.65.683zm2.34-9.333h-2.34c-.62 0-1.21-.246-1.65-.684a2.361 2.361 0 01-.68-1.65c0-.618.25-1.212.68-1.65a2.338 2.338 0 011.65-.683h2.34c.62 0 1.21.246 1.65.683.43.438.68 1.032.68 1.65 0 .619-.25 1.213-.68 1.65-.44.438-1.03.684-1.65.684zm18.66 9.333h-11.66a2.32 2.32 0 01-1.65-.683c-.44-.438-.69-1.031-.69-1.65s.25-1.213.69-1.65a2.317 2.317 0 011.65-.684h11.66c.62 0 1.22.246 1.65.684.44.437.69 1.031.69 1.65s-.25 1.212-.69 1.65a2.32 2.32 0 01-1.65.683zm0-9.333h-2.33c-.62 0-1.21-.246-1.65-.684a2.319 2.319 0 01-.68-1.65c0-.618.24-1.212.68-1.65a2.338 2.338 0 011.65-.683h2.33c.62 0 1.22.246 1.65.683.44.438.69 1.032.69 1.65 0 .619-.25 1.213-.69 1.65-.43.438-1.03.684-1.65.684zm9.34 9.333c-.46 0-.92-.137-1.3-.393a2.386 2.386 0 01-.86-1.047 2.308 2.308 0 01-.13-1.349c.09-.452.31-.868.64-1.194.32-.327.74-.549 1.19-.639a2.342 2.342 0 012.4.992c.25.384.39.835.39 1.297 0 .619-.25 1.212-.68 1.65-.44.437-1.03.683-1.65.683zm0-9.333h-2.34c-.62 0-1.21-.246-1.65-.684a2.361 2.361 0 01-.68-1.65c0-.618.25-1.212.68-1.65a2.338 2.338 0 011.65-.683h2.34c.62 0 1.21.246 1.65.683.43.438.68 1.032.68 1.65 0 .619-.25 1.213-.68 1.65-.44.438-1.03.684-1.65.684zM1051.17 90h-7c-.62 0-1.22.246-1.65.684a2.33 2.33 0 00-.69 1.65c0 .618.25 1.212.69 1.65.43.437 1.03.683 1.65.683h7c.62 0 1.21-.246 1.65-.683.43-.438.68-1.032.68-1.65 0-.62-.25-1.213-.68-1.65a2.336 2.336 0 00-1.65-.684zm3.5-11.666h-37.34c-1.85.002-3.63.74-4.94 2.052a7.016 7.016 0 00-2.06 4.948v37.333a7.014 7.014 0 002.06 4.947 6.994 6.994 0 004.94 2.053h37.34a6.994 6.994 0 004.94-2.053 7.014 7.014 0 002.06-4.947V85.334a7.016 7.016 0 00-2.06-4.948 6.996 6.996 0 00-4.94-2.052zM1020.83 90h1.17v-1.166c0-.62.25-1.213.68-1.65a2.336 2.336 0 013.3 0c.44.437.69 1.03.69 1.65V90h1.16c.62 0 1.22.246 1.65.684.44.437.69 1.03.69 1.65a2.33 2.33 0 01-.69 1.65c-.43.437-1.03.683-1.65.683h-1.16v1.167a2.33 2.33 0 01-.69 1.65 2.336 2.336 0 01-3.3 0 2.362 2.362 0 01-.68-1.65v-1.167h-1.17c-.62 0-1.21-.246-1.65-.683a2.362 2.362 0 01-.68-1.65c0-.62.25-1.213.68-1.65a2.336 2.336 0 011.65-.684zm12.84 35h-16.34c-.62 0-1.21-.246-1.65-.684a2.359 2.359 0 01-.68-1.649v-16.333h18.67zm17.5-3.5h-7a2.32 2.32 0 01-1.65-.683c-.44-.438-.69-1.031-.69-1.65s.25-1.212.69-1.65a2.316 2.316 0 011.65-.683h7c.62 0 1.21.245 1.65.683.43.438.68 1.031.68 1.65s-.25 1.212-.68 1.65c-.44.437-1.03.683-1.65.683zm0-7h-7a2.32 2.32 0 01-1.65-.683c-.44-.438-.69-1.031-.69-1.65s.25-1.212.69-1.65a2.316 2.316 0 011.65-.683h7c.62 0 1.21.245 1.65.683.43.438.68 1.031.68 1.65s-.25 1.212-.68 1.65c-.44.437-1.03.683-1.65.683zm5.83-12.833h-18.67V83h16.34c.62 0 1.21.247 1.65.684.43.438.68 1.03.68 1.65zm-37.62 18.949a2.337 2.337 0 002.55.506c.28-.117.54-.289.75-.506l1.65-1.65 1.65 1.65c.44.438 1.03.683 1.65.683s1.22-.245 1.65-.683c.44-.437.69-1.031.69-1.65 0-.618-.25-1.212-.69-1.649l-1.65-1.65 1.65-1.65c.44-.437.69-1.031.69-1.649 0-.619-.25-1.213-.69-1.65a2.335 2.335 0 00-3.3 0l-1.65 1.649-1.65-1.649a2.317 2.317 0 00-1.65-.684c-.61 0-1.21.246-1.65.684a2.36 2.36 0 00-.68 1.649c0 .619.25 1.213.68 1.65l1.65 1.65-1.65 1.649c-.21.217-.38.474-.5.757s-.18.587-.18.893c0 .307.06.61.18.893s.29.541.5.757zM764.333 14H762V7a2.339 2.339 0 00-.683-1.65 2.336 2.336 0 00-1.65-.683h-23.334A2.332 2.332 0 00734 7v7h-2.333a7.008 7.008 0 00-7 7v14a7.008 7.008 0 007 7H734v7a2.327 2.327 0 001.44 2.156c.283.117.587.177.893.177h23.334a2.336 2.336 0 002.156-1.44c.117-.283.177-.587.177-.893v-7h2.333a7.01 7.01 0 007-7V21a7.008 7.008 0 00-7-7zm-28 14a2.334 2.334 0 11.001-4.668 2.334 2.334 0 01-.001 4.668zm21 18.667h-18.666v-7h18.666zm0-32.667h-18.666V9.333h18.666z"/></g></svg>