<svg xmlns="http://www.w3.org/2000/svg" width="1152.997" height="353.139"><g opacity=".2" fill="#202323"><path d="M138 78.473h-32.666a7 7 0 00-7 7v23.333a7 7 0 007 7h7v4.667h-7a2.333 2.333 0 100 4.666H138a2.333 2.333 0 100-4.666h-7v-4.667h7a7 7 0 007-7V85.473a7 7 0 00-7-7zm-11.666 42H117v-4.667h9.334zm14-11.667a2.334 2.334 0 01-2.334 2.333h-32.666a2.334 2.334 0 01-2.334-2.333v-2.333h37.334zM42 11.806h-7V9.473a4.672 4.672 0 00-4.667-4.667H21a4.672 4.672 0 00-4.667 4.667v2.333h-7a7.008 7.008 0 00-7 7v21a7.008 7.008 0 007 7H42a7.008 7.008 0 007-7v-21a7.008 7.008 0 00-7-7zM21 9.473h9.333v2.333H21zm23.333 30.333A2.336 2.336 0 0142 42.139H9.333A2.336 2.336 0 017 39.806V28.139h9.333v2.333a2.333 2.333 0 004.667 0v-2.333h9.333v2.333a2.333 2.333 0 004.667 0v-2.333h9.333zM234 2.473h-32.666a7.007 7.007 0 00-7 7v32.666a7.007 7.007 0 007 7H234a7.007 7.007 0 007-7V9.473a7.007 7.007 0 00-7-7zm-16.333 9.333a6.482 6.482 0 11-2.48.493 6.482 6.482 0 012.48-.493zm9.936 28.01h-19.872a2.352 2.352 0 01-2.187-3.195 12.98 12.98 0 0124.246 0 2.352 2.352 0 01-2.187 3.195zM313.667 78.473a23.36 23.36 0 1016.491 6.842 23.332 23.332 0 00-16.491-6.842zm0 4.667a18.683 18.683 0 0118.5 16.334h-18.5zm9.323 34.814l-7.976-13.814h17.161a18.69 18.69 0 01-9.185 13.814zM235.467 158.321a2.341 2.341 0 00-1.95-.471 18.668 18.668 0 01-14.518-2.958 2.332 2.332 0 00-2.67 0 18.667 18.667 0 01-14.517 2.958 2.336 2.336 0 00-2.815 2.283v17.4a21.039 21.039 0 008.794 17.088l8.517 6.084a2.331 2.331 0 002.712 0l8.518-6.084a21.042 21.042 0 008.793-17.087v-17.4a2.331 2.331 0 00-.864-1.812zm-10.9 17.168l-7.934 7.934a2.333 2.333 0 01-3.3 0l-3.732-3.735a2.333 2.333 0 013.3-3.3l2.083 2.085 6.284-6.285a2.33 2.33 0 012.549-.516 2.336 2.336 0 011.444 2.163 2.338 2.338 0 01-.693 1.653zM431.053 2.613A30.414 30.414 0 00426 2.162a30.06 30.06 0 00-16.333 4.8 30.06 30.06 0 00-16.333-4.8 30.414 30.414 0 00-5.053.451 2.334 2.334 0 00-1.947 2.3v28a2.334 2.334 0 002.719 2.3 25.164 25.164 0 0119.25 4.462 2.335 2.335 0 002.728 0 25.164 25.164 0 0119.25-4.462 2.332 2.332 0 002.719-2.3v-28a2.334 2.334 0 00-1.947-2.3zm0 37.333a30.42 30.42 0 00-5.053-.451 30.06 30.06 0 00-16.333 4.8 30.06 30.06 0 00-16.333-4.8 30.42 30.42 0 00-5.053.451 2.334 2.334 0 10.772 4.6 25.162 25.162 0 0119.25 4.462 2.335 2.335 0 002.728 0 25.163 25.163 0 0119.25-4.462 2.334 2.334 0 10.772-4.6zM44.334 173.606v-7.467a6.875 6.875 0 00-7-7h-1.867l-1.867-5.366a2.241 2.241 0 00-2.1-1.634H19.834a2.241 2.241 0 00-2.1 1.634l-1.867 5.366H14a6.875 6.875 0 00-7 7v7.467a6.8 6.8 0 00-4.667 6.533v14a2.205 2.205 0 002.334 2.334H7v2.333a2.2 2.2 0 002.333 2.333 2.2 2.2 0 002.334-2.333v-2.333h28v2.333a2.333 2.333 0 004.667 0v-2.333h2.333A2.205 2.205 0 0049 194.139v-14a6.8 6.8 0 00-4.667-6.533zM14 187.139a2.333 2.333 0 110-4.666 2.333 2.333 0 110 4.666zm14 0h-4.666a2.333 2.333 0 110-4.666h4.667a2.333 2.333 0 110 4.666zm9.333 0a2.333 2.333 0 112.334-2.333 2.2 2.2 0 01-2.333 2.333zm2.333-14H11.667v-7A2.2 2.2 0 0114 163.806h23.334a2.2 2.2 0 012.333 2.333zM142.048 239.512l-2.358-2.357-4.521-4.522a2.333 2.333 0 10-3.3 3.3l2.271 2.272-1.93 5.817a6.961 6.961 0 001.694 7.153l6.893 6.9v11.1a2.333 2.333 0 11-4.666 0v-4.666a7.008 7.008 0 00-7-7h-2.334v-21a7.006 7.006 0 00-7-7h-14a7.008 7.008 0 00-7 7v32.657a7.008 7.008 0 007 7h14a7.006 7.006 0 007-7v-7h2.334a2.335 2.335 0 012.333 2.334v4.666a7 7 0 1014 0v-21.4a11.586 11.586 0 00-3.417-8.249zm-36.25-5.346h14a2.335 2.335 0 012.334 2.334v11.666h-18.665V236.5a2.335 2.335 0 012.333-2.334zM49 306.473H2.334A2.2 2.2 0 000 308.806v9.333a6.8 6.8 0 004.667 6.534v26.133A2.2 2.2 0 007 353.139h37.334a2.2 2.2 0 002.333-2.333v-26.133a6.8 6.8 0 004.667-6.534v-9.333A2.2 2.2 0 0049 306.473zm-14 42v-9.334a9.334 9.334 0 00-18.667 0v9.334h-7v-23.8a4.847 4.847 0 002.333-1.4 6.517 6.517 0 004.667 1.866A6.517 6.517 0 0021 323.273a6.768 6.768 0 009.333 0 6.769 6.769 0 009.333 0 4.847 4.847 0 002.333 1.4v23.8zM1145.997 306.473h-32.66a7 7 0 00-7 7v32.666a7 7 0 007 7h32.66a6.991 6.991 0 007-7v-32.666a7 7 0 00-7-7zm-32.66 39.666a2.335 2.335 0 01-1.3-.393 2.38 2.38 0 01-.86-1.047 2.338 2.338 0 011.7-3.181 2.338 2.338 0 012.4.992 2.344 2.344 0 01-.29 2.946 2.334 2.334 0 01-1.65.683zm9.33 0a2.334 2.334 0 01-2.16-1.44 2.389 2.389 0 01-.13-1.348 2.307 2.307 0 01.64-1.2 2.335 2.335 0 013.59.354 2.344 2.344 0 01-.29 2.946 2.334 2.334 0 01-1.65.683zm25.67-9.333h-37.34v-11.667h9.34a2.338 2.338 0 001.65-.683l2.9-2.9 6.52 7.457a2.356 2.356 0 001.68.8h.08a2.349 2.349 0 001.65-.684l3.98-3.983h9.54zm0-16.333h-10.5a2.321 2.321 0 00-1.65.683l-2.91 2.9-6.52-7.457a2.356 2.356 0 00-1.68-.8 2.275 2.275 0 00-.94.156 2.385 2.385 0 00-.79.527l-3.98 3.983h-8.37v-7a2.347 2.347 0 012.34-2.334h32.66a2.347 2.347 0 012.34 2.334zM1148.587 190.612l-11.92-20.437v-11.036h2.33a2.333 2.333 0 100-4.666h-18.66a2.333 2.333 0 100 4.666h2.33v11.036l-11.92 20.437a7.073 7.073 0 00-.96 3.5 7.012 7.012 0 007 7.023h25.75a6.961 6.961 0 003.51-.941 6.983 6.983 0 002.54-9.586zm-21.57-18.63a2.319 2.319 0 00.32-1.176v-11.667h4.66v11.667a2.319 2.319 0 00.32 1.176l2.04 3.491h-9.38zm-2.02 17.49a2.3 2.3 0 01-1.29-.394 2.249 2.249 0 01-.86-1.047 2.307 2.307 0 01-.14-1.348 2.333 2.333 0 011.84-1.833 2.35 2.35 0 011.35.132 2.335 2.335 0 01-.9 4.49zm9.34 2.333a2.343 2.343 0 01-1.3-.393 2.383 2.383 0 01-.86-1.048 2.34 2.34 0 011.7-3.181 2.343 2.343 0 012.4.992 2.344 2.344 0 01-.29 2.946 2.334 2.334 0 01-1.65.684zM839.331 101.57v11.9a2.334 2.334 0 004.667 0v-11.9a11.666 11.666 0 10-4.667 0zm12.163 5.889a2.334 2.334 0 00-.992 4.562c5.72 1.242 7.5 3.209 7.5 3.785 0 1.354-5.724 4.667-16.333 4.667s-16.334-3.313-16.334-4.667c0-.576 1.776-2.543 7.5-3.785a2.334 2.334 0 00-.991-4.562c-7.107 1.547-11.177 4.587-11.177 8.347 0 6.127 10.563 9.333 21 9.333s21-3.206 21-9.333c0-3.76-4.072-6.8-11.171-8.347zM1145.997 4.667h-2.33V2.334a2.362 2.362 0 00-.68-1.65 2.34 2.34 0 00-3.99 1.65v2.333h-18.66V2.334a2.338 2.338 0 00-3.99-1.65 2.362 2.362 0 00-.68 1.65v2.333h-2.33a7 7 0 00-7 7v32.667a7 7 0 007 7h32.66a7 7 0 007-7V11.667a7 7 0 00-7-7zm-28 37.332a2.308 2.308 0 01-1.29-.393 2.255 2.255 0 01-.86-1.047 2.308 2.308 0 01-.14-1.348 2.334 2.334 0 011.84-1.833 2.344 2.344 0 011.35.133 2.335 2.335 0 01-.9 4.489zm0-9.333a2.308 2.308 0 01-1.29-.393 2.255 2.255 0 01-.86-1.047 2.308 2.308 0 01-.14-1.348 2.335 2.335 0 011.84-1.833 2.345 2.345 0 011.35.133 2.335 2.335 0 01-.9 4.489zm11.67 9.333a2.335 2.335 0 01-2.16-1.44 2.389 2.389 0 01-.13-1.348 2.309 2.309 0 01.64-1.195 2.335 2.335 0 013.59.354 2.345 2.345 0 01-.29 2.946 2.336 2.336 0 01-1.65.683zm0-9.333a2.335 2.335 0 01-2.16-1.44 2.389 2.389 0 01-.13-1.348 2.309 2.309 0 01.64-1.195 2.335 2.335 0 013.59.354 2.345 2.345 0 01-.29 2.946 2.336 2.336 0 01-1.65.683zm11.67 9.333a2.34 2.34 0 01-1.3-.393 2.381 2.381 0 01-.86-1.047 2.339 2.339 0 011.7-3.181 2.341 2.341 0 012.4.992 2.345 2.345 0 01-.29 2.946 2.336 2.336 0 01-1.65.683zm0-9.333a2.34 2.34 0 01-1.3-.393 2.381 2.381 0 01-.86-1.047 2.339 2.339 0 011.7-3.182 2.342 2.342 0 012.4.992 2.345 2.345 0 01-.29 2.946 2.336 2.336 0 01-1.65.683zm7-14h-37.34v-7a2.345 2.345 0 012.34-2.333h2.33v2.333a2.362 2.362 0 00.68 1.65 2.34 2.34 0 003.99-1.65V9.334h18.66v2.333a2.338 2.338 0 003.99 1.65 2.362 2.362 0 00.68-1.65V9.334h2.33a2.345 2.345 0 012.34 2.333zM936.017 181.934a2.332 2.332 0 101.65-.684 2.335 2.335 0 00-1.65.684zm-5.775-5.775a2.329 2.329 0 10.757-.506 2.333 2.333 0 00-.757.506zm24.23 1.318l.788-.788a11.649 11.649 0 00-16.473-16.474l-.788.789-.648-.648a12.117 12.117 0 00-17.136 17.135l.648.648-.789.79a11.65 11.65 0 0016.473 16.477l.79-.789.645.645a12.117 12.117 0 0017.135-17.136zm-2.654 14.481a7.627 7.627 0 01-10.537 0l-17.766-17.766a7.461 7.461 0 010-10.537 7.621 7.621 0 0110.536 0l17.767 17.767a7.45 7.45 0 010 10.536zm-15.8-21.574a2.335 2.335 0 101.649-.678 2.342 2.342 0 00-1.65.678zm5.775 5.775a2.329 2.329 0 10.757-.506 2.326 2.326 0 00-.758.506zM951.667 2.473h-28a6.875 6.875 0 00-7 7v28a6.8 6.8 0 004.667 6.533v2.8a2.333 2.333 0 104.666 0v-2.333h23.334v2.333a2.333 2.333 0 104.666 0v-2.8a6.8 6.8 0 004.667-6.533v-28a6.875 6.875 0 00-7-7zm-23.333 35a2.333 2.333 0 112.333-2.334 2.2 2.2 0 01-2.333 2.334zm7-9.333h-11.667a2.2 2.2 0 01-2.333-2.334v-9.333a2.2 2.2 0 012.333-2.334h11.667zM947 37.473a2.333 2.333 0 112.334-2.333A2.2 2.2 0 01947 37.473zm7-11.667a2.2 2.2 0 01-2.333 2.333H940v-14h11.667A2.2 2.2 0 01954 16.472zM1052.337 237.473h-37.34a7.02 7.02 0 00-7 7v18.666a7.02 7.02 0 007 7h37.34a7.02 7.02 0 007-7v-18.666a7.02 7.02 0 00-7-7zm-24.5 9.333h2.33a2.333 2.333 0 010 4.667h-2.33a2.333 2.333 0 110-4.667zm-9.34 14a2.31 2.31 0 01-1.29-.393 2.259 2.259 0 01-.86-1.047 2.312 2.312 0 01-.14-1.349 2.461 2.461 0 01.64-1.194 2.37 2.37 0 011.2-.639 2.318 2.318 0 012.39.992 2.333 2.333 0 01-1.94 3.63zm2.34-9.333h-2.34a2.335 2.335 0 01-1.65-.684 2.333 2.333 0 011.65-3.983h2.34a2.338 2.338 0 011.65.683 2.342 2.342 0 010 3.3 2.334 2.334 0 01-1.65.684zm18.66 9.333h-11.66a2.333 2.333 0 010-4.667h11.66a2.333 2.333 0 110 4.667zm0-9.333h-2.33a2.333 2.333 0 110-4.667h2.33a2.333 2.333 0 010 4.667zm9.34 9.333a2.343 2.343 0 01-1.3-.393 2.386 2.386 0 01-.86-1.047 2.34 2.34 0 011.7-3.182 2.343 2.343 0 012.4.992 2.346 2.346 0 01-.29 2.947 2.338 2.338 0 01-1.65.683zm0-9.333h-2.34a2.335 2.335 0 01-1.65-.684 2.333 2.333 0 011.65-3.983h2.34a2.338 2.338 0 011.65.683 2.342 2.342 0 010 3.3 2.334 2.334 0 01-1.65.684zM1048.837 87.806h-7a2.333 2.333 0 100 4.667h7a2.336 2.336 0 001.65-.683 2.342 2.342 0 000-3.3 2.336 2.336 0 00-1.65-.684zm3.5-11.667h-37.34a7.02 7.02 0 00-7 7v37.333a7.021 7.021 0 007 7h37.34a7.022 7.022 0 007-7V83.14a7.021 7.021 0 00-7-7zm-33.84 11.667h1.17V86.64a2.363 2.363 0 01.68-1.65 2.34 2.34 0 013.99 1.65v1.166h1.16a2.333 2.333 0 110 4.667h-1.16v1.167a2.338 2.338 0 01-3.99 1.65 2.362 2.362 0 01-.68-1.65v-1.167h-1.17a2.336 2.336 0 01-1.65-.683 2.342 2.342 0 010-3.3 2.336 2.336 0 011.65-.683zm12.84 35h-16.34a2.335 2.335 0 01-1.65-.684 2.359 2.359 0 01-.68-1.649V104.14h18.67zm17.5-3.5h-7a2.333 2.333 0 110-4.666h7a2.334 2.334 0 011.65.683 2.342 2.342 0 010 3.3 2.338 2.338 0 01-1.65.683zm0-7h-7a2.333 2.333 0 110-4.666h7a2.334 2.334 0 011.65.683 2.342 2.342 0 010 3.3 2.338 2.338 0 01-1.65.683zm5.83-12.833h-18.67V80.806h16.34a2.328 2.328 0 012.33 2.333zm-37.62 18.949a2.406 2.406 0 00.76.506 2.337 2.337 0 00.89.178 2.387 2.387 0 00.9-.178 2.258 2.258 0 00.75-.506l1.65-1.65 1.65 1.65a2.333 2.333 0 103.3-3.3l-1.65-1.65 1.65-1.65a2.333 2.333 0 10-3.3-3.3l-1.65 1.649-1.65-1.649a2.317 2.317 0 00-1.65-.684 2.336 2.336 0 00-1.65 3.983l1.65 1.65-1.65 1.649a2.482 2.482 0 00-.5.757 2.305 2.305 0 000 1.786 2.47 2.47 0 00.5.759zM762 11.806h-2.333v-7a2.332 2.332 0 00-2.333-2.333H734a2.331 2.331 0 00-2.333 2.333v7h-2.333a7.007 7.007 0 00-7 7v14a7.007 7.007 0 007 7h2.333v7A2.332 2.332 0 00734 49.139h23.334a2.331 2.331 0 002.333-2.333v-7H762a7.007 7.007 0 007-7v-14a7.007 7.007 0 00-7-7zm-28 14a2.334 2.334 0 111.65-.683 2.334 2.334 0 01-1.65.683zm21 18.667h-18.666v-7H755zm0-32.667h-18.666V7.139H755z"/></g></svg>