<svg width="360" height="315" fill="none" xmlns="http://www.w3.org/2000/svg"><g clip-path="url(#clip0)" stroke="#D8DBEB" stroke-miterlimit="10" stroke-linecap="round" stroke-linejoin="round"><path d="M126.167 306.831h-42" stroke-width="2"/><path d="M107.5 297.498h-9.333c-5.134 0-9.334-4.2-9.334-9.334v-18.666h28v18.666c0 5.134-4.2 9.334-9.333 9.334z"/><path d="M107.5 297.498h-9.333c-5.134 0-9.334-4.2-9.334-9.334v-18.666h28v18.666c0 5.134-4.2 9.334-9.333 9.334zM126.167 278.831a4.68 4.68 0 01-4.667 4.667h-4.667v-9.334h4.667a4.68 4.68 0 014.667 4.667z" stroke-width="2"/></g><g clip-path="url(#clip1)" stroke="#D8DBEB" stroke-width="2" stroke-miterlimit="10" stroke-linecap="round" stroke-linejoin="round"><path d="M5.842 251.779l6.569-6.569 9.852 9.853v6.568h-6.568l-9.853-9.852zM33.21 250.684h5.474M22.263 239.737h16.421M35.947 228.79h2.737M33.21 261.632h10.948c3.01 0 5.474-2.463 5.474-5.474v-38.315c0-3.011-2.464-5.474-5.474-5.474H27.737M11.316 228.79v5.473M11.316 228.789h10.947c3.01 0 5.474-2.463 5.474-5.473v-10.948l-16.421 16.421z"/></g><g clip-path="url(#clip2)"><path d="M29.167 8.167c-11.667 0-21 9.333-21 21C8.167 35 10.5 40.133 14.233 44.1l-6.066 6.066h21c11.666 0 21-9.333 21-21 0-11.666-9.334-21-21-21z" stroke="#D8DBEB" stroke-width="2" stroke-miterlimit="10" stroke-linecap="round" stroke-linejoin="round"/><path d="M29.167 30.333a1.167 1.167 0 100-2.333 1.167 1.167 0 000 2.333zM22.167 30.333a1.167 1.167 0 100-2.333 1.167 1.167 0 000 2.333zM36.167 30.333a1.167 1.167 0 100-2.333 1.167 1.167 0 000 2.333z" fill="#D8DBEB"/></g><g clip-path="url(#clip3)" stroke="#D8DBEB" stroke-width="2" stroke-miterlimit="10" stroke-linecap="round" stroke-linejoin="round"><path d="M35.167 132.833l-9.334 9.334-4.666-4.667"/><path d="M28.167 121.167L27 117.433c-.7-1.866-2.333-3.266-4.433-3.266H11.833a4.68 4.68 0 00-4.666 4.666v30.334a4.68 4.68 0 004.666 4.666H44.5a4.68 4.68 0 004.667-4.666v-23.334a4.68 4.68 0 00-4.667-4.666H28.167z"/></g><path d="M169.5 122.431c-1.633 1.167-3.033 2.334-4.2 3.967-2.567 3.033-3.967 7-3.967 11.433 0 7.934 4.9 14.467 11.667 17.267-1.4-4.9-.467-10.033 1.867-14.233.233.933.233 1.633.466 2.566 1.634 5.6 5.6 10.034 10.5 12.134 7.467-2.334 12.834-9.567 12.834-17.734 0-5.133-2.1-9.8-5.367-13.066-1.867 3.733-5.367 6.766-9.333 7.933 1.4-2.567 2.1-5.367 2.1-8.4 0-1.4-.234-3.033-.467-4.2-1.4-4.9-4.667-9.1-8.867-11.433a17.814 17.814 0 01-6.533 13.066l-.7.7z" stroke="#D8DBEB" stroke-width="2" stroke-miterlimit="10" stroke-linecap="round" stroke-linejoin="round"/><g clip-path="url(#clip4)" stroke="#D8DBEB" stroke-width="2" stroke-miterlimit="10" stroke-linecap="round" stroke-linejoin="round"><path d="M181.167 258.835c11.598 0 21-9.402 21-21s-9.402-21-21-21-21 9.402-21 21 9.402 21 21 21zM181.167 230.835v14"/><path d="M174.167 237.835l7-7 7 7"/></g><g clip-path="url(#clip5)"><path d="M105.167 64.998c-4.9-4.667-12.6-4.667-17.5 0-4.667 4.9-4.667 12.6 0 17.5L92.1 86.93l9.8 9.8c1.867 1.867 4.667 1.867 6.533 0l14-14c4.9-5.133 4.9-12.833.234-17.733-4.9-4.667-12.6-4.667-17.5 0z" stroke="#D8DBEB" stroke-width="2" stroke-miterlimit="10" stroke-linecap="round" stroke-linejoin="round"/></g><g clip-path="url(#clip6)"><path d="M257.167 272.998c-4.9-4.667-12.6-4.667-17.5 0-4.667 4.9-4.667 12.6 0 17.5l4.433 4.433 9.8 9.8c1.867 1.867 4.667 1.867 6.533 0l14-14c4.9-5.133 4.9-12.833.234-17.733-4.9-4.667-12.6-4.667-17.5 0z" stroke="#D8DBEB" stroke-width="2" stroke-miterlimit="10" stroke-linecap="round" stroke-linejoin="round"/></g><g clip-path="url(#clip7)" stroke="#D8DBEB" stroke-width="2" stroke-miterlimit="10" stroke-linecap="round" stroke-linejoin="round"><path d="M354.167 231.3l-21 12.133-21-12.133 21-12.133 21 12.133z"/><path d="M354.167 240.633l-21 12.134-21-12.134"/><path d="M354.167 249.967l-21 12.133-21-12.133"/></g><g clip-path="url(#clip8)" stroke="#D8DBEB" stroke-width="2" stroke-miterlimit="10" stroke-linecap="round" stroke-linejoin="round"><path d="M117.767 192.233l6.067-6.066-6.067-6.067v-8.867h-8.866l-6.067-6.066-6.067 6.066H87.9v8.867l-6.066 6.067 6.066 6.066v8.867h8.867l6.067 6.067 6.067-6.067h8.866v-8.867zM102.834 181.5v9.333M107.501 186.167h-9.334"/></g><g clip-path="url(#clip9)" stroke="#D8DBEB" stroke-miterlimit="10" stroke-linecap="round" stroke-linejoin="round"><path d="M278.167 204.831h-42" stroke-width="2"/><path d="M259.5 195.498h-9.333c-5.134 0-9.334-4.2-9.334-9.334v-18.666h28v18.666c0 5.134-4.2 9.334-9.333 9.334z"/><path d="M259.5 195.498h-9.333c-5.134 0-9.334-4.2-9.334-9.334v-18.666h28v18.666c0 5.134-4.2 9.334-9.333 9.334zM278.167 176.831a4.68 4.68 0 01-4.667 4.667h-4.667v-9.334h4.667a4.68 4.68 0 014.667 4.667z" stroke-width="2"/></g><defs><clipPath id="clip0"><path fill="#fff" d="M83 268.331h44.333v39.667H83z"/></clipPath><clipPath id="clip1"><path transform="matrix(-1 0 0 1 51 211)" fill="#fff" d="M0 0h46.526v52H0z"/></clipPath><clipPath id="clip2"><path fill="#fff" d="M7 7h44.333v44.333H7z"/></clipPath><clipPath id="clip3"><path fill="#fff" d="M6 113h44.333v42H6z"/></clipPath><clipPath id="clip4"><path fill="#fff" d="M159 215.669h44.333v44.333H159z"/></clipPath><clipPath id="clip5"><path fill="#fff" d="M83 60.331h44.333v38.733H83z"/></clipPath><clipPath id="clip6"><path fill="#fff" d="M235 268.331h44.333v38.733H235z"/></clipPath><clipPath id="clip7"><path fill="#fff" d="M311 218h44.333v45.267H311z"/></clipPath><clipPath id="clip8"><path fill="#fff" d="M80.667 164H125v44.333H80.667z"/></clipPath><clipPath id="clip9"><path fill="#fff" d="M235 166.331h44.333v39.667H235z"/></clipPath></defs></svg>