<svg width="1693" height="267" fill="none" xmlns="http://www.w3.org/2000/svg"><path d="M114.473 183.457l55.091 41.816a6.643 6.643 0 011.279 9.306l-13.058 17.203a6.642 6.642 0 01-9.307 1.27l-55.09-41.815a6.642 6.642 0 01-1.28-9.306l13.057-17.203a6.643 6.643 0 019.308-1.271z" stroke="#3B85DB" stroke-width="4"/><path d="M265.413 100.138l3.39 36.002c.646 6.853-4.387 12.932-11.241 13.578l-36.001 3.39c-6.853.646-12.933-4.387-13.578-11.241l-3.39-36.001c-.646-6.853 4.387-12.933 11.24-13.578l36.002-3.39c6.853-.646 12.932 4.387 13.578 11.24z" stroke="#F9A619" stroke-width="4"/><path d="M410 204.49c0 19.267-15.619 34.886-34.886 34.886-19.268 0-34.887-15.619-34.887-34.886 0-19.267 15.619-34.886 34.887-34.886 19.267 0 34.886 15.619 34.886 34.886z" stroke="#EB3669" stroke-width="4"/><path d="M99.853 85.927c0 6.586-5.34 11.926-11.926 11.926C81.34 97.853 76 92.513 76 85.927 76 79.34 81.34 74 87.927 74c6.586 0 11.926 5.34 11.926 11.927z" stroke="#28192D" stroke-width="4"/><path d="M1528.27 67.665l63.44-51.885c3.53-2.883 8.72-2.364 11.6 1.156l16.2 19.81c2.88 3.52 2.36 8.711-1.17 11.594l-63.44 51.885a8.233 8.233 0 01-11.59-1.156l-16.2-19.809c-2.88-3.52-2.36-8.712 1.16-11.595z" stroke="#F9A619" stroke-width="4"/><path d="M1435.71 115.555l-15.15 26.239a10.127 10.127 0 01-13.83 3.704l-26.23-15.149c-4.84-2.795-6.5-8.984-3.71-13.824l15.15-26.239c2.8-4.84 8.98-6.498 13.82-3.704l26.24 15.149c4.84 2.795 6.5 8.984 3.71 13.824z" stroke="#EB3669" stroke-width="4"/><path d="M1608.28 151.102l-5.77 9.996a2.62 2.62 0 01-3.58.958l-9.99-5.771a2.622 2.622 0 01-.96-3.575l5.77-9.996a2.622 2.622 0 013.58-.958l9.99 5.771a2.622 2.622 0 01.96 3.575z" stroke="#28192D" stroke-width="4"/><path d="M1490.8 28.618c0 11.387-9.23 20.618-20.61 20.618-11.39 0-20.62-9.231-20.62-20.618C1449.57 17.23 1458.8 8 1470.19 8c11.38 0 20.61 9.23 20.61 20.618z" stroke="#3B85DB" stroke-width="4"/></svg>