<svg width="670" height="499" xmlns="http://www.w3.org/2000/svg"><path d="M36.88 189.058c-1.087.45-1.954.856-2.6 1.217-.646.36-1.15.718-1.51 1.073-.354.354-.712.853-1.072 1.496-.36.643-.773 1.523-1.235 2.64h-.37c-.469-1.117-.883-1.997-1.244-2.64-.36-.643-.715-1.142-1.063-1.496-.36-.355-.864-.712-1.51-1.073-.646-.36-1.516-.766-2.61-1.217v-.37c1.1-.45 1.973-.856 2.619-1.216.646-.36 1.146-.718 1.5-1.073.35-.354.704-.853 1.064-1.496.36-.643.775-1.524 1.244-2.641h.37c.462 1.117.874 1.998 1.235 2.64.36.644.718 1.143 1.072 1.497.349.355.846.712 1.492 1.073.646.36 1.519.766 2.619 1.217v.37zM240.215 41.39c-1.087.451-1.954.857-2.6 1.217-.646.36-1.15.718-1.51 1.073-.355.354-.712.853-1.073 1.496-.36.643-.772 1.523-1.235 2.641h-.37c-.468-1.118-.883-1.998-1.243-2.64-.36-.644-.715-1.143-1.064-1.497-.36-.355-.864-.712-1.51-1.073-.646-.36-1.515-.766-2.609-1.217v-.37c1.1-.45 1.973-.856 2.619-1.216.645-.36 1.146-.718 1.5-1.073.349-.354.703-.853 1.064-1.496.36-.643.775-1.523 1.244-2.641h.37c.462 1.118.874 1.998 1.234 2.641s.718 1.142 1.073 1.496c.348.355.846.712 1.492 1.073.646.36 1.519.766 2.618 1.217v.37zm33.367 154.28c-1.087.45-1.954.856-2.6 1.217-.646.36-1.15.718-1.51 1.072-.354.355-.712.854-1.073 1.497-.36.642-.772 1.523-1.234 2.64h-.37c-.469-1.117-.883-1.998-1.244-2.64-.36-.643-.715-1.142-1.064-1.497-.36-.354-.863-.712-1.51-1.072-.645-.361-1.515-.767-2.609-1.217v-.37c1.1-.45 1.973-.856 2.619-1.217.646-.36 1.146-.718 1.5-1.072.349-.355.704-.854 1.064-1.497.36-.643.775-1.523 1.244-2.64h.37c.462 1.117.874 1.997 1.234 2.64.361.643.719 1.142 1.073 1.497.349.354.846.712 1.492 1.072.646.36 1.519.766 2.618 1.217v.37zM425.866 14.01c-1.088.45-1.955.856-2.6 1.216-.647.36-1.15.718-1.51 1.073-.355.354-.713.853-1.073 1.496s-.773 1.523-1.235 2.641h-.37c-.469-1.118-.883-1.998-1.244-2.641-.36-.643-.715-1.142-1.063-1.496-.36-.355-.864-.712-1.51-1.073-.646-.36-1.516-.766-2.61-1.217v-.37c1.1-.45 1.973-.856 2.619-1.216.646-.36 1.146-.718 1.5-1.073.35-.354.704-.853 1.064-1.496.36-.643.775-1.523 1.244-2.641h.37c.462 1.118.874 1.998 1.235 2.64.36.644.718 1.143 1.072 1.497.349.355.846.712 1.492 1.073.646.36 1.519.766 2.619 1.217v.37zM13.655 7.397c-1.088.45-1.955.856-2.6 1.216-.647.361-1.15.719-1.51 1.073-.355.355-.713.853-1.073 1.496s-.772 1.524-1.235 2.641h-.37c-.468-1.117-.883-1.998-1.244-2.64-.36-.644-.715-1.142-1.063-1.497-.36-.354-.864-.712-1.51-1.073-.646-.36-1.516-.766-2.61-1.216v-.37c1.1-.45 1.973-.856 2.619-1.217.646-.36 1.146-.718 1.5-1.072.35-.355.704-.854 1.064-1.497.36-.643.776-1.523 1.244-2.64h.37c.463 1.117.874 1.997 1.235 2.64.36.643.718 1.142 1.072 1.497.349.354.846.712 1.492 1.072.646.36 1.519.766 2.619 1.217v.37zM489.86 182.447c-1.088.45-1.954.856-2.6 1.216-.646.36-1.15.718-1.51 1.073-.355.355-.712.853-1.073 1.496-.36.643-.772 1.524-1.235 2.641h-.37c-.468-1.117-.883-1.998-1.243-2.64-.36-.644-.715-1.142-1.064-1.497-.36-.355-.864-.712-1.51-1.073-.646-.36-1.516-.766-2.61-1.216v-.37c1.1-.45 1.973-.856 2.62-1.217.645-.36 1.146-.718 1.5-1.073.349-.354.703-.853 1.064-1.496.36-.643.775-1.523 1.244-2.64h.37c.462 1.117.874 1.997 1.234 2.64s.718 1.142 1.073 1.496c.348.355.846.713 1.492 1.073.645.36 1.518.766 2.618 1.217v.37zM439.08 338.43c-1.088.45-1.955.856-2.6 1.217-.647.36-1.15.718-1.51 1.072-.355.355-.713.854-1.073 1.497-.36.643-.772 1.523-1.235 2.64h-.37c-.468-1.117-.883-1.997-1.244-2.64-.36-.643-.715-1.142-1.063-1.497-.36-.354-.864-.712-1.51-1.072-.646-.36-1.516-.767-2.61-1.217v-.37c1.1-.45 1.973-.856 2.62-1.217.645-.36 1.145-.718 1.5-1.072.348-.355.703-.854 1.063-1.497.361-.643.776-1.523 1.244-2.64h.37c.463 1.117.874 1.997 1.235 2.64.36.643.718 1.142 1.072 1.497.349.354.846.712 1.492 1.072.646.36 1.52.767 2.619 1.217v.37zM320.623 450.15c-1.088.451-1.955.857-2.6 1.217-.647.36-1.15.718-1.51 1.073-.355.354-.713.853-1.073 1.496s-.772 1.523-1.235 2.641h-.37c-.468-1.118-.883-1.998-1.244-2.64-.36-.644-.715-1.143-1.063-1.497-.36-.355-.864-.712-1.51-1.073-.646-.36-1.516-.766-2.61-1.217v-.37c1.1-.45 1.973-.856 2.619-1.216.646-.36 1.146-.718 1.5-1.073.35-.354.704-.853 1.064-1.496.361-.643.776-1.523 1.244-2.641h.37c.463 1.118.874 1.998 1.235 2.64.36.644.718 1.143 1.072 1.497.349.355.846.712 1.492 1.073.646.36 1.519.766 2.619 1.217v.37zM636.725 14.01c-1.087.45-1.954.857-2.6 1.217-.646.36-1.15.718-1.51 1.073-.355.354-.712.853-1.073 1.496-.36.643-.772 1.523-1.235 2.641h-.37c-.468-1.118-.882-1.998-1.243-2.641-.36-.643-.715-1.142-1.064-1.496-.36-.355-.863-.712-1.51-1.073-.645-.36-1.515-.766-2.609-1.217v-.37c1.1-.45 1.973-.856 2.619-1.216.646-.36 1.146-.718 1.5-1.073.349-.354.703-.853 1.064-1.496.36-.643.775-1.523 1.244-2.641h.37c.462 1.118.874 1.998 1.234 2.64.36.644.718 1.143 1.073 1.497.349.355.846.712 1.492 1.073.646.36 1.519.766 2.618 1.217v.37zM184.931 338.43c-1.088.451-1.955.857-2.6 1.218-.647.36-1.15.718-1.51 1.072-.355.355-.713.854-1.073 1.497-.36.643-.772 1.523-1.235 2.64h-.37c-.468-1.117-.883-1.997-1.244-2.64-.36-.643-.715-1.142-1.063-1.497-.36-.354-.864-.712-1.51-1.072-.646-.36-1.516-.767-2.61-1.217v-.37c1.1-.45 1.973-.856 2.619-1.217.646-.36 1.146-.718 1.5-1.072.35-.355.704-.854 1.064-1.497.361-.643.776-1.523 1.244-2.64h.37c.463 1.117.874 1.997 1.235 2.64.36.643.718 1.142 1.072 1.497.349.354.846.712 1.492 1.072.646.36 1.519.767 2.619 1.217v.37zm-82.707 153.367c-1.088.451-1.955.857-2.6 1.217-.647.36-1.15.718-1.51 1.073-.355.354-.713.853-1.073 1.496s-.772 1.524-1.235 2.641h-.37c-.468-1.117-.883-1.998-1.244-2.64-.36-.644-.715-1.143-1.063-1.497-.36-.355-.864-.712-1.51-1.073-.646-.36-1.516-.766-2.61-1.217v-.37c1.1-.45 1.973-.855 2.619-1.216.646-.36 1.146-.718 1.5-1.073.35-.354.704-.853 1.064-1.496.36-.643.776-1.523 1.244-2.641h.37c.463 1.118.874 1.998 1.235 2.641.36.643.718 1.142 1.072 1.496.349.355.846.712 1.492 1.073.646.36 1.519.766 2.619 1.217v.37zm483.132-28.421c-1.087.45-1.954.856-2.6 1.216-.646.36-1.15.718-1.51 1.073-.354.355-.712.853-1.072 1.496-.361.643-.773 1.524-1.235 2.641h-.37c-.469-1.117-.883-1.998-1.244-2.64-.36-.644-.715-1.142-1.063-1.497-.361-.355-.864-.712-1.51-1.073-.646-.36-1.516-.766-2.61-1.216v-.37c1.1-.45 1.973-.856 2.619-1.217.646-.36 1.146-.718 1.5-1.073.35-.354.704-.853 1.064-1.496.36-.643.775-1.523 1.244-2.64h.37c.462 1.117.874 1.997 1.235 2.64.36.643.718 1.142 1.072 1.496.349.355.846.713 1.492 1.073s1.519.766 2.618 1.217v.37zm84.262-138.168c-1.087.45-1.954.856-2.6 1.216-.646.361-1.15.719-1.51 1.073-.355.355-.712.853-1.073 1.496-.36.643-.772 1.524-1.235 2.641h-.37c-.468-1.117-.883-1.998-1.243-2.64-.36-.644-.715-1.142-1.064-1.497-.36-.354-.864-.712-1.51-1.073-.646-.36-1.515-.766-2.609-1.216v-.37c1.1-.45 1.972-.856 2.618-1.217.646-.36 1.147-.718 1.501-1.073.349-.354.703-.853 1.064-1.496.36-.643.775-1.523 1.244-2.64h.37c.462 1.117.874 1.997 1.234 2.64s.718 1.142 1.073 1.496c.348.355.846.713 1.492 1.073s1.518.766 2.618 1.217v.37z" opacity=".5" fill-rule="nonzero" fill="#57E0EF"/></svg>