<svg xmlns="http://www.w3.org/2000/svg" width="702" height="831"><g opacity=".12"><path d="M612.511 56.572c-26.483 5.681-29.643 26.925-33.655 53.85-4.514 30.061-10.081 67.46-50.608 97.285-20.313 14.912-39.774 24.262-59.536 28.582a117.989 117.989 0 01-53.567-.769c-34.107-8.166-66.307-29.943-97.5-50.95-29.191-19.706-59.386-40.121-91.887-50.181a136.123 136.123 0 00-50.909-6.273c-18.859 1.361-37.417 6.746-56.677 16.51-33.655 17.043-67.11 22.96-99.411 17.634A143.678 143.678 0 011 158.117v-1.834a147.767 147.767 0 0018.006 4.2c32.05 5.326 65.2-.592 98.608-17.457 23.724-12.013 45.693-16.983 66.408-16.983 50.006 0 92.69 28.819 134.37 56.927 32.5 21.954 63.147 42.666 97.053 50.773a115.388 115.388 0 0052.966.769c19.611-4.261 38.922-13.551 59.034-28.345 17.806-13.078 39.975-29.351 49.956-96.042 2.056-13.906 3.862-25.919 8.627-35.565 5.266-10.711 13.643-16.983 26.232-19.706 37.266-8.048 59.436-20.771 69.718-40.062A58.554 58.554 0 00687.445 0H689a60.228 60.228 0 01-5.768 15.741c-10.532 19.705-33.003 32.665-70.721 40.831z"/><path d="M583.335 37.147c-31.544 5.56-34.5 16.74-40.922 41.111-5.617 21.236-14.092 53.414-47.241 100.085-44.583 62.819-91.872 23.542-146.637-21.943-55.515-46.138-118.453-98.37-195.282-60.749-29.438 14.433-59.126 21.531-88.313 21.236A174.628 174.628 0 011 103.871v-1.893a173.292 173.292 0 0063.94 13.072c28.986.355 58.474-6.8 87.711-21.117 34.6-16.977 69.557-17.272 106.768-1.006 32.547 14.256 61.734 38.508 89.968 61.932 27.081 22.478 52.657 43.713 76.578 51.285 26.429 8.4 48.043-.828 68.053-29.044 32.948-46.434 41.373-78.376 46.94-99.493 6.419-24.371 9.679-36.615 42.176-42.353 19.007-3.372 30.892-11.653 35.355-24.607A41.451 41.451 0 00620.5 0h1.5a40.009 40.009 0 01-2.106 11.3c-4.714 13.721-17.001 22.357-36.559 25.847z"/><path d="M427.467 117.081c-13.937 10.928-32.637 10.574-55.548-1.241-18.2-9.333-39.1-25.874-62.166-49.03C286.191 43.064 265.135 17.072 252 0h2.005c13.135 17.072 33.695 42.355 56.701 65.511 22.961 23.1 43.716 39.519 61.765 48.794 22.41 11.519 40.608 11.992 54.094 1.359 31.333-24.633 47.978-66.22 62.667-102.9 1.755-4.312 3.409-8.565 5.114-12.7H496q-2.707 6.557-5.414 13.468c-14.686 36.857-31.434 78.68-63.119 103.549z"/><path d="M387.628 54.973c-6.494 5.485-14.886 5.366-24.926-.358-7.892-4.531-16.834-12.521-26.574-23.79A320.8 320.8 0 01313 0h1.948c15.585 23.194 51.3 70.833 71.78 53.542C399.966 42.333 407.708 20.093 414.4 0h1.6c-6.793 20.451-14.586 43.347-28.372 54.973zM140.3 55.913c-12.891 3.889-26.234 7.9-38.222 12.667-29.745 11.96-64.206 1.885-87.881-8.661A206.809 206.809 0 011 53.5v-1.947c4.264 2.239 8.878 4.537 13.744 6.717 23.425 10.428 57.534 20.386 86.828 8.6 11.988-4.831 25.381-8.838 38.323-12.726 29.093-8.72 56.581-16.968 58.487-31.934.8-6.3-2.909-13.669-11.236-22.212h2.207c7.875 8.543 11.336 15.967 10.534 22.507C197.83 38.65 171.195 46.6 140.3 55.913z"/><path d="M121.009 30.557a85.565 85.565 0 01-33.08-.359C67.36 26 27.124 12.582 1 3.535V1.678c26.124 9.047 66.61 22.528 87.229 26.782 10.96 2.217 22.821 2.4 32.579.359 14.113-2.936 19.067-9.107 20.769-13.841 1.551-4.254 1.151-9.287-1.151-14.979h1.7c2.2 5.872 2.452 11.144.8 15.7-3.351 9.226-13.76 13.18-21.917 14.858zM62.741 356.894c22.688-18.009 37.5-43.837 50.5-66.645 14.759-25.828 27.554-48.161 47.532-51.775a30.2 30.2 0 015.672-.474c15.41 0 33.731 10.485 56.972 32.582 17.418 16.587 31.924 31.634 44.724 44.963 27.005 28.139 46.531 48.458 68.116 55.034 22.036 6.753 46.23-.355 83.475-24.466 30.419-19.727 66.71-33.293 99.488-37.2 15.259-1.836 29.113-1.481 40.106 1.126 11.6 2.725 19.727 7.642 24.094 14.691 5.973 9.656 7.429 27.606-19.727 58.351-32.477 36.788-69.421 41.231-108.523 45.911-25.9 3.08-52.705 6.339-79.761 19.194-30.619 14.514-57.173 39.75-81.217 77.012-17.769 27.546-38.5 40.579-60.034 37.676-14.657-1.955-29.063-11.078-42.817-27.013-13.8-16.113-26.252-38.328-36.894-66.052-7.931-20.556-16.665-31.1-26.855-32.167-22.036-2.31-47.535 41.409-72.131 83.706-12.3 21.149-25 42.949-37.095 58.588C12.093 588.048 6.371 594.031 1 598v-2.192c16.916-13.151 35.288-44.667 53.207-75.471 12.348-21.208 25.148-43.186 37.446-59.181 13.151-17.061 24.4-25.414 34.284-25.414.6 0 1.2.059 1.807.118 10.742 1.126 19.928 11.966 28.059 33.174 10.591 27.546 22.889 49.584 36.593 65.519 13.5 15.7 27.608 24.644 41.913 26.539 20.932 2.784 41.261-10.012 58.679-37.025 24.194-37.558 51-62.913 81.819-77.545 27.256-12.974 54.161-16.172 80.162-19.312 38.851-4.68 75.544-9.064 107.67-45.437 26.4-29.916 25.2-46.977 19.576-56.041-8.232-13.21-31.724-18.838-62.845-15.106-32.577 3.91-68.668 17.417-98.936 37.025-37.6 24.348-62.092 31.456-84.58 24.585-21.935-6.694-41.562-27.132-68.718-55.448-12.8-13.329-27.256-28.376-44.674-44.9-25.8-24.525-45.327-34.6-61.49-31.693-19.324 3.433-31.923 25.47-46.53 51.005-13.1 22.926-27.959 48.873-50.9 67.119C44.52 373.422 26.4 381 9.483 381A57.9 57.9 0 011 380.353v-1.777c19.024 3.024 39.755-4.265 61.741-21.682zM29.125 183.072c23.212-.415 49.181-5.924 72.093-10.723 32.838-6.932 58.707-12.382 61.916.178 4.813 18.839-10.829 34.421-36.8 60.192-18.6 18.484-41.812 41.471-66.628 74.528-18.65 24.823-37.25 36.079-55.2 33.354a50.062 50.062 0 01-3.509-.711v-1.837c1.2.3 2.457.592 3.71.77 17.447 2.607 35.545-8.413 53.894-32.762 24.92-33.175 48.132-56.221 66.781-74.761 25.469-25.3 40.86-40.585 36.348-58.3-2.808-11.018-29.43-5.39-60.211 1.067-33.239 6.991-72.243 15.226-100.469 8.117v-1.837a105.339 105.339 0 0028.075 2.725z"/><path d="M95.055 192c12.994 0 20.29 2.788 21.69 8.424 3.1 12.281-22.739 34.41-38.482 46.513-22.239 17.146-48.727 33.283-62.97 38.444A74.749 74.749 0 011.05 289v-1.78a74.762 74.762 0 0013.793-3.56c14.143-5.1 40.481-21.12 62.57-38.207 25.738-19.875 39.881-36.486 37.832-44.5-2-7.831-19.791-9.255-50.126-4.034A477.676 477.676 0 001 213.061v-1.839a476.7 476.7 0 0163.87-16.078C77.114 193.068 87.109 192 95.055 192z"/><path d="M30.812 224c6.033 0 9.4 1.371 10.055 4.113 1.408 5.487-8.647 14.605-17.344 21.282A159.437 159.437 0 011 264v-1.967a162.414 162.414 0 0021.718-14.188c11.161-8.584 17.546-15.976 16.691-19.255-1.357-5.305-21.517-2.325-38.409 2.146v-1.788c5.078-1.312 10.759-2.623 16.289-3.577A87.441 87.441 0 0130.812 224zM172.415 271a14.158 14.158 0 00-4.208.593c-12.279 3.615-22.05 13.879-28.257 29.682-6.281 16.163-8.36 36.978-6.012 60.195a164.231 164.231 0 0018.237 60.135C187.1 487.076 216.1 522.976 238.4 528.308a24.23 24.23 0 005.635.692 21.174 21.174 0 0013.754-5.135c21.228-17.438 35.073-34.411 47.289-49.386l.456-.558.109-.134c18.9-23.174 33.821-41.478 66.523-52.063 10.456-3.383 17.949-6.554 22.908-9.694a20.377 20.377 0 005.428-4.644 6.414 6.414 0 001.473-4.561c-.249-2.328-2.139-4.449-5.618-6.3s-8.615-3.48-15.274-4.836c-13.1-2.631-31.824-4.208-54.158-4.562-16.977-.3-34.578-8.107-53.806-23.876-16.939-13.951-32.825-32-46.842-47.93l-.006-.007c-10.361-11.778-20.143-22.899-29.147-31.022a73.427 73.427 0 00-12.942-9.692c-4.326-2.423-8.175-3.6-11.767-3.6zm71.642 256.242a23.847 23.847 0 01-5.31-.652c-5.434-1.312-11.374-4.551-17.656-9.628a139.753 139.753 0 01-20.15-20.92 344.713 344.713 0 01-22.564-32.129c-7.891-12.53-16.268-27.083-24.9-43.255a162.177 162.177 0 01-17.986-59.425c-2.3-22.886-.256-43.353 5.909-59.187 5.967-15.36 15.374-25.3 27.2-28.734a14.131 14.131 0 013.858-.534c3.434 0 7.149 1.164 11.357 3.558a73.443 73.443 0 0112.653 9.579c8.842 8.028 18.509 19.013 28.744 30.644 13.258 15.12 29.757 33.938 47.044 48.11 19.561 16.01 37.444 23.931 54.665 24.231 22.27.354 40.91 1.931 53.907 4.562 7.284 1.483 12.657 3.255 15.969 5.266 2.858 1.735 3.6 3.313 3.72 4.332.3 2.924-3.319 6.278-10.765 9.969a139.258 139.258 0 01-17.942 7.035 109.078 109.078 0 00-38.94 21.6c-10.331 8.925-19.08 19.68-28.343 31.067l-.2.248c-12.219 14.981-26.068 31.961-47.343 49.461a21.675 21.675 0 01-6.162 3.6 19.366 19.366 0 01-6.765 1.202zM556.047 333c-7.3 0-17.285 1.089-30.531 3.329a677.731 677.731 0 00-66.282 15.339c-6.73 1.935-12.321 3.766-17.092 5.6a78.081 78.081 0 00-11.9 5.558 27.313 27.313 0 00-7.183 5.792 12.563 12.563 0 00-2.941 6.3c-1.153 8.009 6.154 17.7 23 30.5a31.741 31.741 0 009.49 4.936A36.322 36.322 0 00463.7 412a55.078 55.078 0 0015.068-2.309c11.5-3.27 24.608-10.05 38.965-20.154 23.975-16.875 43.567-37.537 44.39-38.405a36.457 36.457 0 007.4-7.758c1.431-2.253 1.819-4.149 1.187-5.8-.6-1.515-2.132-2.668-4.545-3.426A35.272 35.272 0 00556.047 333zM463.7 410.286a34.854 34.854 0 01-10.655-1.586 30.574 30.574 0 01-9.076-4.711c-7.969-6.068-13.876-11.531-17.556-16.242a26.908 26.908 0 01-3.974-6.647 11.381 11.381 0 01-.816-5.714c1.409-10.06 19.981-16.7 37.962-21.877 16.942-4.874 35.669-9.425 52.732-12.809 19.044-3.781 34.333-5.78 44.214-5.78 7.586 0 11.883 1.175 12.772 3.493.5 1.313.124 4.542-8.084 11.415l-.05.059c-.012.01-.087.089-.225.232-4.951 5.141-22.752 23.073-43.964 37.994-14.252 10.015-27.21 16.716-38.514 19.914a54.967 54.967 0 01-14.766 2.259zM702 367.6a157.161 157.161 0 01-12.252 13.374c-17.575 17.1-39.869 31.187-66.282 41.9-32.99 13.374-72.508 21.541-117.449 24.263-25.709 1.539-75.019 6.924-116.646 25.8-43.836 19.825-68.14 49.118-72.157 87.052-4.67 43.911-.1 71.133 14.411 85.75 15.867 15.978 44.59 16.688 87.773 2.012 29.977-10.179 54.23-24.145 73.713-35.389 19.232-11.126 34.446-19.884 48-21.423 14.713-1.657 26.211 5.385 37.258 22.843 7.03 11.126 12.6 21.66 17.524 30.951 9.892 18.76 17.073 32.312 28.772 37.342 12.352 5.326 29.074.828 55.988-15.031A185.151 185.151 0 00702 652.314v2.13a189.4 189.4 0 01-20.638 14.2c-27.316 16.1-44.389 20.594-57.193 15.15-12.2-5.267-19.433-19-29.525-38.052-4.871-9.232-10.444-19.707-17.424-30.832-22.7-35.922-45.544-22.725-83.4-.888-19.533 11.3-43.887 25.329-73.964 35.507-43.736 14.795-72.91 14.025-89.179-2.367-14.919-15.028-19.639-42.783-14.919-87.345 4.117-38.644 28.722-68.411 73.111-88.532 41.828-18.937 91.338-24.323 117.1-25.92 44.79-2.663 84.107-10.83 116.947-24.145 26.211-10.652 48.355-24.618 65.78-41.544A154.637 154.637 0 00702 365v2.6z"/><path d="M702 405.314a276.457 276.457 0 01-37.915 27.892c-41.175 25.518-89.723 43.262-136.616 49.909-47.495 6.765-82.15 14.183-109.032 23.441-34.355 11.75-56.021 26.408-66.252 44.687-6.921 12.4-8.426 26.705-4.564 42.61 2.909 11.75 8.225 19.524 16.3 23.738 27.333 14.361 79.743-15.726 125.984-42.253 16.9-9.733 32.9-18.872 46.492-25.162 22.92-10.623 37.013-13 47.144-7.833 9.78 4.985 15.4 16.5 23.12 32.462a342.427 342.427 0 0017.353 32.462c7.924 12.818 17.955 19.524 29.841 19.94 16.249.534 33.853-10.8 48.147-23.263v2.2c-22.218 19.168-38.216 23.144-48.147 22.848-12.338-.415-22.769-7.359-30.994-20.652-7.473-12.047-12.739-23.026-17.453-32.64-15.146-31.156-22.067-45.4-68.458-23.857-13.541 6.291-29.49 15.43-46.391 25.1-46.542 26.705-99.3 56.971-127.237 42.253-8.429-4.396-14.197-12.821-17.156-24.928-4.012-16.379-2.457-31.215 4.714-44.093 10.482-18.575 32.4-33.47 67.154-45.339 26.982-9.258 61.738-16.676 109.283-23.441 46.692-6.647 95.039-24.331 136.064-49.731A274.568 274.568 0 00702 403z"/><path d="M701.95 432.426c-28.608 29.291-67.405 41.007-97.82 50.12-29.512 8.876-50.793 15.267-48.484 32.546.652 5.03 6.575 4.675 16.964 3.61 9.636-.947 21.582-2.189 32.874 2.308 13.351 5.326 22.535 17.338 28.056 36.747 3.865 13.61 10.038 21.421 18.269 23.078 15.057 3.077 34.832-14.2 50.19-31.362v2.485c-.4.414-.753.888-1.154 1.3-20.277 22.013-36.839 31.895-49.287 29.35-8.833-1.775-15.358-9.941-19.424-24.261-12.144-42.664-40.552-39.764-59.373-37.87-10.239 1.065-17.667 1.775-18.571-5.149-1.154-8.757 2.91-15.503 12.949-21.128 8.934-5.03 21.782-8.935 36.639-13.373C634.444 471.6 673.542 459.824 702 430v2.426z"/><path d="M702 448.142a180.951 180.951 0 00-29.492 28.616c-13.7 16.6-21.844 31.947-22.894 43.311-.55 6.128 1 11.006 4.7 14.457 12.996 12.135 34.186-8.092 47.686-24.215v2.559c-2.8 3.272-5.848 6.663-9.048 9.876-7.452 7.436-14.346 12.554-20.394 15.17-7.7 3.332-14.2 2.677-19.195-2.023-4.098-3.807-5.848-9.221-5.248-16.063 2.099-23.202 31.341-57.172 53.885-73.83v2.142zM519.408 501c-10.537 0-25.5 2.106-41.042 5.777-33.41 7.839-65.276 21.151-85.24 35.61-22.456 16.275-30.063 33.909-22 51a15.7 15.7 0 0010.675 8.841 25.459 25.459 0 006.479.772 53.226 53.226 0 0014.66-2.443 129.714 129.714 0 0018.6-7.311c13.659-6.469 30.08-16.26 48.806-29.1 27.976-19.146 52.615-39.455 59.5-45.221l.285-.238c5.92-5.209 8.027-9.533 6.264-12.853-.958-1.662-2.994-2.915-6.051-3.721A44.28 44.28 0 00519.408 501zM388.165 601.225a24.347 24.347 0 01-6.064-.707 14.267 14.267 0 01-9.671-7.959 28.41 28.41 0 01.2-25.646c3.74-7.743 10.888-15.479 21.247-22.992 19.885-14.392 51.563-27.616 84.739-35.374 14.257-3.355 27.729-5.365 37.935-5.66.924-.027 1.83-.041 2.693-.041 11.756 0 14.976 2.537 15.848 4.05.72 1.3.385 3-1 5.07a28.523 28.523 0 01-4.867 5.247c-.053.046-6.376 5.408-16.749 13.6-9.1 7.182-23.191 18.014-38.693 28.827-17.328 12.088-32.882 21.716-46.234 28.616a160.475 160.475 0 01-21.448 9.405c-6.947 2.365-12.981 3.564-17.936 3.564z"/><path d="M475.339 527c-6.616 0-17.4 2.682-23.244 4.28-16.753 4.7-32.255 11.452-41.468 18.06-9.277 6.677-12.5 13.187-9.589 19.35a5.476 5.476 0 003.515 2.932 9.815 9.815 0 002.847.378c3.7 0 8.966-1.51 15.658-4.487a219.374 219.374 0 0024.519-13.364c9.479-5.826 20.038-12.918 30.535-20.51.367-.265.568-.411.591-.424l.143-.132c.87-.8 2.907-2.675 1.865-4.5-.594-1.065-2.35-1.583-5.372-1.583zm-67.974 43.215a8.21 8.21 0 01-2.51-.352 3.87 3.87 0 01-2.56-2.052c-2.462-5.165.578-10.867 9.036-16.946 9.077-6.565 24.429-13.246 41.069-17.884 9.651-2.687 18.1-4.228 23.189-4.228 2.183 0 3.556.294 3.866.827.064.148-.1.865-1.657 2.169-.117.088-13.535 9.929-29.1 19.629a250.065 250.065 0 01-23.05 12.975c-8.084 3.89-14.236 5.862-18.283 5.862zM169.803 312a12.822 12.822 0 00-8.081 2.642 16 16 0 00-4.519 5.883c-13.343 27.982 16.8 118.16 57.807 153.331C225.203 482.577 234.564 487 242.821 487a21.945 21.945 0 004.844-.534c7.747-1.775 14.41-7.77 19.8-17.819a65.25 65.25 0 007.5-32.917 66.132 66.132 0 00-9.351-32.323l-1.551-2.546-.091-.149c-19.062-31.377-38.778-63.822-81.716-85.219-4.661-2.318-8.853-3.493-12.453-3.493zm73.01 173.223A29.691 29.691 0 01230.112 482a66.563 66.563 0 01-14.2-9.62c-18.559-15.934-36.809-45.347-48.809-78.68-5.524-15.352-9.255-30.261-10.788-43.116-1.535-12.873-.779-22.961 2.188-29.172a14.006 14.006 0 014.636-5.712 11.564 11.564 0 016.613-1.9c3.375 0 7.38 1.149 11.9 3.414a161.611 161.611 0 0114.951 8.458 152.982 152.982 0 0113.048 9.354 160.018 160.018 0 0121.452 20.82c12.629 14.669 22.329 30.668 31.71 46.14l1.551 2.546a63.924 63.924 0 019.1 31.317 63.093 63.093 0 01-7.25 31.85 42.364 42.364 0 01-8.6 11.47 22.739 22.739 0 01-10.208 5.521 20.028 20.028 0 01-4.592.533z"/><path d="M188.91 354a7.572 7.572 0 00-4.65 1.461 9.021 9.021 0 00-2.62 3.285c-3.455 7.228-1.361 22.526 5.461 39.925 7.162 18.14 17.865 34.462 28.631 43.662 5.969 5.087 11.455 7.667 16.295 7.667a13.116 13.116 0 002.862-.312c4.605-1.018 8.536-4.53 11.682-10.441a39.144 39.144 0 00-1.1-38.145c-6.316-10.376-12.16-17.925-18.949-24.477a101.05 101.05 0 00-12.987-10.568 138.526 138.526 0 00-16.903-9.857 17.988 17.988 0 00-7.722-2.2zm43.121 94.2a16.924 16.924 0 01-7.264-1.854 38.868 38.868 0 01-8.129-5.5c-10.588-9.08-21.104-25.136-28.129-42.946-6.508-16.583-8.672-31.625-5.515-38.324a6.161 6.161 0 015.919-3.85 16.8 16.8 0 017.167 2.074c25.368 12.632 37.245 26.32 48.186 44.311a36.96 36.96 0 011.053 36.128 24.582 24.582 0 01-4.889 6.525 12.877 12.877 0 01-5.791 3.144 12.518 12.518 0 01-2.608.292z"/><path d="M208.021 388a5.423 5.423 0 012.379.641 30.5 30.5 0 0113.933 12.752 11.478 11.478 0 01.347 11.3 5.829 5.829 0 01-3.619 3.2c-1.686.408-3.669-.349-5.8-2.155-6.497-5.532-12.05-19.274-9.719-24.108a2.665 2.665 0 012.479-1.63z"/><path d="M208.021 385.5a7.9 7.9 0 013.485.9 35.64 35.64 0 019.157 6.228 36.118 36.118 0 015.8 7.457 13.943 13.943 0 01.41 13.808 8.264 8.264 0 01-5.221 4.43 6.427 6.427 0 01-1.51.178c-2.074 0-4.26-.96-6.5-2.854h-.006c-3.345-2.849-6.66-7.815-8.866-13.284a32.527 32.527 0 01-2.081-7.35 11.305 11.305 0 01.601-6.468l.01-.027a5.155 5.155 0 014.721-3.018zm12.12 28a1.4 1.4 0 00.332-.038c.263-.064 1.073-.261 2.016-1.976a8.988 8.988 0 00-.284-8.781v-.007a27.95 27.95 0 00-12.905-11.814 3 3 0 00-1.279-.384.5.5 0 00-.087.006.864.864 0 00-.147.223c-.6 1.276-.352 4.866 1.622 9.758 1.89 4.683 4.751 9.031 7.469 11.346.738.624 2.139 1.667 3.263 1.667z" fill="#575757"/><path d="M701.849 51.661a184.428 184.428 0 00-40.649 6.524c-16.26 4.686-29.91 11.744-40.55 20.879-13.05 11.211-21.63 25.684-25.595 43.122-5.52 24.5-14.253 47.63-25.243 66.966-12.9 22.718-28.706 40.215-47.074 52.078-33.775 21.887-74.876 23.963-122.1 6.169-57.211-21.531-101.726-44.13-134.246-60.679-41.504-21.056-64.392-32.682-69.607-19.929a5.247 5.247 0 00-.1 3.618c2.961 9.668 27.5 22.836 55.957 38.021 21.178 11.329 45.217 24.2 64.137 37.843 21.881 15.778 33.373 30.073 35.13 43.656 2.459 19.1 8.983 32.5 18.819 38.733 11.191 7.058 26.5 5.22 45.568-5.457 35.028-19.575 120.544-42.945 172.486-42.945 17.916 0 31.868 2.788 38.342 9.49 3.914 4.033 5.019 9.312 3.262 15.718-5.771 21.175.9 43.063 15.507 50.833 18.318 9.728 38.542-4.389 55.957-26.988v2.966q-10.238 12.99-20.727 20.286c-12.8 8.957-25.544 10.855-35.832 5.338-15.307-8.126-22.332-30.9-16.31-52.968 1.556-5.694.6-10.261-2.81-13.82-10.79-11.151-45.669-12.1-95.754-2.551-43.26 8.245-89.882 23.133-113.419 36.3-19.522 10.914-35.28 12.693-46.873 5.4-10.288-6.465-17.063-20.345-19.622-40.038-3.814-29.479-56.258-57.595-98.413-80.134-29.912-16.016-53.549-28.65-56.71-39.03a7.06 7.06 0 01.151-4.982c2.81-6.881 9.686-8.067 22.383-3.855 11.693 3.915 28.254 12.278 49.182 22.9 32.47 16.49 76.984 39.088 134.1 60.62 46.823 17.617 87.523 15.6 120.947-5.991 18.117-11.744 33.775-29.064 46.522-51.485 10.883-19.224 19.565-42.179 25.035-66.439 4.015-17.794 12.8-32.623 26.147-44.071 10.79-9.253 24.641-16.371 41.1-21.175A181.679 181.679 0 01702 50v1.661z"/><path d="M701.95 87.865c-23.508-6.457-42.042-5.45-56.308 3.021-21.042 12.559-30.288 39.928-37.119 67.653-7.233 29.261-27.978 50.888-44.654 68.245-11.2 11.67-20.042 20.853-20.443 28.2a8.316 8.316 0 001.808 5.628c4.571 6.043 19.137 2.251 37.622-2.547 14.818-3.851 33.3-8.649 52.54-9.952 8.891-.592 14.717 1.185 17.882 5.45 4.521 6.161 2.813 16.469 1 27.369-2.562 15.225-5.174 30.924 7.032 39.573a14.068 14.068 0 0013.411 1.777c8.137-2.9 17.43-12.5 27.275-27.962v3.021c-8.037 12.322-17.43 23.282-26.823 26.6a15.18 15.18 0 01-14.617-1.9c-13.11-9.3-10.247-26.362-7.735-41.468 1.758-10.486 3.416-20.379-.653-25.888-2.813-3.791-8.288-5.391-16.676-4.8-19.137 1.3-37.521 6.1-52.289 9.952-19.64 5.095-33.855 8.827-39.028 2.014a10.249 10.249 0 01-2.16-6.931c.4-8.057 9.443-17.476 20.946-29.383 16.526-17.18 37.12-38.625 44.2-67.416 6.939-28.077 16.28-55.861 37.879-68.716C653.328 84.488 663.022 82 674.223 82A105.534 105.534 0 01702 86.147v1.718z"/><path d="M702 133.455c-11.815-3.617-26.234-5.692-37.95-.415-8.611 3.854-14.869 11.325-18.574 22.117-5.107 14.943-14.068 28.817-21.276 39.964-7.111 10.969-13.219 20.456-11.317 24.726 1.2 2.668 5.557 3.676 13.317 3.143l2.6-.178c23.23-1.66 34.946-2.49 40.7 3.736 2.8 3.024 4.155 7.768 4.306 15.3.25 10.376 4.906 19.033 11.615 21.583 5.007 1.9 10.664.415 16.572-4.091v2.194c-7.61 5.455-13.518 4.921-17.022 3.558-7.31-2.787-12.416-12.1-12.667-23.243-.15-7-1.352-11.325-3.8-13.993-5.304-5.756-17.471-4.867-39.604-3.266l-2.6.178c-8.56.593-13.216-.712-14.769-4.091-2.353-5.277 3.4-14.231 11.415-26.682 7.16-11.089 16.071-24.845 21.078-39.55 3.855-11.266 10.414-19.033 19.425-23.125a41.353 41.353 0 0116.923-3.32 76.537 76.537 0 0121.578 3.5v1.955z"/><path d="M702 166.79c-12.142-.358-29.344 1.432-32.582 13.96-1.973 7.636-.607 15.034 3.744 20.821 5.869 7.816 16.238 11.872 28.838 11.629v1.79c-13.053.179-23.829-4.057-29.951-12.23-4.756-6.32-6.223-14.314-4.098-22.547 2.327-8.949 10.928-14.02 25.549-15.034a92.578 92.578 0 015.667-.179c.961 0 1.872 0 2.783.06v1.73zM56.33 385.034C75.361 375.839 93.536 367 105.82 367a16.33 16.33 0 018.559 2.076c3.323 2.017 5.437 5.636 6.344 10.678 2.165 11.864-8.559 23.314-24.821 40.636-16.111 17.144-38.162 40.576-57.646 75.695C25.065 519.873 12.58 535.178 1.05 542v-1.958c11.127-6.822 23.159-21.771 35.95-44.906 19.632-35.356 41.734-58.848 57.9-76.051 15.859-16.907 26.381-28.059 24.367-38.915-.856-4.568-2.668-7.653-5.588-9.432-10.422-6.466-32.926 4.449-56.74 16.017-15.713 7.592-31.974 15.482-46.071 19.045A67.737 67.737 0 011 407.576V405.8a63.6 63.6 0 009.566-1.72c13.946-3.622 30.107-11.453 45.764-19.046z"/><path d="M48.581 417c5.176 0 8.461 1.533 9.8 4.541 3.285 7.548-6.62 21.937-29.514 42.93C18.519 473.906 7.769 482.634 1 488v-2.064c22.646-17.868 61.268-51.658 56.092-63.57-1.092-2.535-4.081-3.656-8.262-3.656-11 0-30.51 7.43-47.83 15.332v-1.887c3.733-1.71 7.665-3.42 11.646-5.071C28.822 420.361 40.867 417 48.581 417zM241.315 235c-3.714 0-5.553.656-6.147 2.2-1.008 2.723 2.633 6.652 8.662 13.161 6.446 6.939 15.271 16.434 20.963 27.766a114.532 114.532 0 008.615 14.534 50.917 50.917 0 007.213 8.226 44.918 44.918 0 008.368 6.07 40.25 40.25 0 009.194 3.757 37.428 37.428 0 009.692 1.286 36.991 36.991 0 004.177-.238c4.265-.5 7.517-1.655 9.667-3.426a9.041 9.041 0 003.282-7.251c.1-20.223-52.141-62.465-75.676-65.433a60.161 60.161 0 00-8.01-.652zm66.656 75.161a36.269 36.269 0 01-9.377-1.242 38.909 38.909 0 01-8.88-3.619 43.453 43.453 0 01-8.078-5.847 49.356 49.356 0 01-6.968-7.915 110.518 110.518 0 01-8.465-14.3c-5.743-11.466-14.613-21.018-21.089-27.993l-.172-.185-.233-.252c-4.24-4.585-8.624-9.327-8.03-10.842.287-.771 1.838-1.166 4.611-1.166a66.412 66.412 0 017.985.63c10.75 1.36 28.747 11.489 45.849 25.8a134.66 134.66 0 0120.845 21.215c5.01 6.653 7.645 12.387 7.62 16.581a7.314 7.314 0 01-2.935 6.006c-1.917 1.476-4.812 2.449-8.6 2.892a31.516 31.516 0 01-4.083.237zM50.049 595.311c11.296-24.548 23.395-49.811 35.193-68.248C98.245 506.843 109.541 497 119.832 497h.3c10.242.178 19.278 9.9 27.612 29.588 17.523 41.329 38.256 66.588 59.995 72.933 14.86 4.329 30.122.059 45.334-12.808 11.7-9.9 20.031-13.163 25.353-10.021 7.882 4.625 8.334 21.88 8.836 41.8.552 21.88 1.155 46.724 12.25 58.109 5.171 5.277 12.1 7.234 21.186 6.048 23.8-3.2 46.439 1.067 65.466 12.215a97.162 97.162 0 0140.464 46.843c7.982 19.034 10.292 40.5 6.778 61.963a128.982 128.982 0 01-7.28 26.33h-1.707c11.748-29.292 12.4-60.125.9-87.519a95.407 95.407 0 00-39.761-46.013c-18.776-11.029-41.167-15.179-64.662-12.037-9.388 1.245-16.919-.889-22.341-6.463-11.6-11.859-12.2-37.119-12.8-59.354-.452-18.559-.9-36.111-7.982-40.261-4.82-2.846-12.6.415-23.847 9.9-15.613 13.163-31.277 17.551-46.589 13.1-22.19-6.522-43.276-32.079-60.947-73.881-8.083-19.034-16.668-28.4-26.257-28.58h-.3c-21.839 0-45.786 48.088-68.478 97.421-13.907 30.246-30.826 51-50.355 62.028v-1.957c19.027-11.147 35.494-31.544 49.049-61.073z"/><path d="M68.8 671c8.676 0 16.3 1.478 22.567 4.494 14.292 6.859 21.413 20.874 21.163 41.806-.251 20.519 4.413 35.775 14.242 46.6 24.222 26.846 76.376 22.234 131.639 17.266 8.124-.71 16.549-1.478 24.823-2.129 8.074-.65 15.5-.946 22.316-.946 31.142 0 48.794 6.564 52.656 19.632 2.708 9.225-1.805 20.4-9.027 31.281h-1.956c7.422-10.821 12.136-21.879 9.578-30.749-4.413-15.019-29.086-20.933-73.417-17.5-8.274.65-16.7 1.419-24.823 2.129-55.564 4.967-108.069 9.638-132.792-17.74-10.13-11.235-14.944-26.9-14.693-47.956.251-20.1-6.569-33.646-20.21-40.15-17.552-8.4-46.086-4.553-78.382 10.525-3.861 1.768-7.673 3.719-11.484 5.73v-1.952a173.596 173.596 0 0110.932-5.44C33.045 676.085 52.7 671 68.8 671z"/><path d="M40.142 727.118c18.043 1.3 33.329 12.5 45.507 33.289l2 3.436c14.785 25.233 22.2 37.909 33.178 43.181s25.861 3.376 55.531-.474c3.609-.474 7.468-.948 11.527-1.481 35.133-4.5 60.593-5.983 77.834-4.561 16.589 1.362 26.011 5.331 29.62 12.5 2.205 4.383 2.1 9.714.3 15.993h-1.554c1.8-6.042 2-11.077-.05-15.1-3.308-6.575-12.58-10.366-28.417-11.669-17.14-1.362-42.5.118-77.583 4.62-4.06.533-7.919 1.007-11.527 1.481-29.921 3.909-44.906 5.864-56.283.355S101.337 790.38 86.4 764.85l-2-3.436C72.469 741.1 57.584 730.139 40.042 728.9c-9.021-.656-22.102 1.18-39.042 10.539v-1.955C15.885 729.369 27.813 727 36.684 727c1.203 0 2.356.059 3.458.118z"/><path d="M60.477 769.294c7.147 3.941 12.045 10.647 14.494 19.941A129.265 129.265 0 0178.82 829h-1.5a127.38 127.38 0 00-3.8-39.235c-2.349-8.824-7-15.176-13.745-18.882C43.733 762 18.743 769.294 1 776.471v-1.883C12.945 769.765 28.039 765 41.634 765c6.847.059 13.345 1.235 18.843 4.294zM370.454 786.281c-9.99-23.163-53.967-20.023-54.469-19.964-24.649 0-47.541 2.073-67.723 3.969-30.021 2.784-55.975 5.154-75.153-.711-10.141-3.08-18.023-8.353-24.047-16.054-6.526-8.294-10.944-19.49-13.555-34.122-8.685-48.932-31.427-54.8-49.75-59.477-11.044-2.844-20.583-5.272-23.746-16.883-2.862-10.6.452-31.693 8.534-53.73 8.637-23.637 20.384-41.942 31.429-48.932A19.78 19.78 0 01112.466 537c6.426 0 12.5 4.028 17.822 11.907 8.083 11.966 14.659 25 21.035 37.617 11.9 23.577 22.139 43.9 38.053 48.458 9.789 2.784 21.185-.652 34.74-10.663 17.972-13.21 30.422-17.357 38.1-12.677 9.538 5.805 10.492 23.755 11.5 42.83 1.355 25.592 2.761 52.072 25.051 50.887 5.121-.237 10.04-.415 14.81-.415 48.194 0 79.47 13.447 92.974 40.105 10.643 20.912 7.932 46.148 3.815 63.564A170.048 170.048 0 01403.789 830h-1.657a166.09 166.09 0 006.777-21.919c7.279-30.982 2.008-50.887-3.665-62.143-14.559-28.672-50.4-41.764-106.428-38.861-10.693.533-17.822-4.8-21.788-16.35-3.464-10.012-4.167-23.34-4.819-36.255-.954-18.542-1.908-36.018-10.693-41.349-7.179-4.384-19.127-.237-36.648 12.618-13.956 10.248-25.7 13.8-35.894 10.841-16.516-4.739-26.959-25.355-39.007-49.288-6.325-12.559-12.9-25.532-20.934-37.38-7.833-11.551-16.718-14.214-26.457-8.056C91.833 548.67 80.286 566.62 71.8 589.9c-7.779 21.327-11.193 42.417-8.482 52.488 2.912 10.663 11.6 12.914 22.641 15.7 9.237 2.37 19.679 5.035 29.017 13.447 10.793 9.715 17.972 25.236 21.888 47.451 4.87 27.546 16.115 42.593 36.5 48.814 8.534 2.607 18.525 3.554 29.619 3.554 13.454 0 28.665-1.422 45.031-2.9 20.231-1.836 43.124-3.969 67.773-3.969h.05a108.682 108.682 0 0123.846 1.244c16.868 2.844 27.611 9.478 32.029 19.668 4.769 11.078 1.707 26.006-9.137 44.548h-1.807c11.042-18.369 14.255-33.001 9.686-43.664z"/><path d="M373.52 764.606c-8.233-12.165-33.134-17.209-71.94-14.6a457.907 457.907 0 00-57.03 7.774 90.524 90.524 0 01-35.594-.771 66.232 66.232 0 01-28.716-13.945c-9.99-8.426-17.37-20.057-21.888-34.537-8.736-28.067-18.525-47.234-29.971-58.627-9.94-9.91-19.629-12.521-28.666-14.361-13.203-2.67-17.671-12.639-19.077-20.532-2.811-15.429 3.962-36.257 14.508-44.625a13.971 13.971 0 018.585-3.382 11.9 11.9 0 017.581 2.908c9.89 7.952 20.031 23.262 30.774 39.4 20.432 30.8 41.568 62.6 62.8 46.642a401.3 401.3 0 008.986-6.884c15.563-12.046 27.913-21.6 35.694-17.09 4.619 2.67 7.229 9.732 8.183 22.312 1.958 25.991 5.572 45.574 16.868 56.611 8.032 7.892 19.479 10.8 35.041 9.02 43.576-5.044 72.292 4.095 85.395 27.06 10.492 18.4 8.685 42.31 5.321 59.163A179.909 179.909 0 01393.8 830h-1.6a177.854 177.854 0 006.727-24.271c3.263-16.5 5.02-39.877-5.121-57.739-12.751-22.372-41.016-31.213-83.989-26.288-15.964 1.84-27.762-1.246-36.146-9.435-11.647-11.453-15.412-31.391-17.42-57.858-.9-11.75-3.263-18.574-7.33-20.888-7.028-4.035-19.027 5.222-34.188 16.972a585.326 585.326 0 01-9.036 6.884c-10.091 7.6-20.985 5.7-33.284-5.815-10.748-9.97-21.291-25.874-31.482-41.243-10.643-16.081-20.731-31.213-30.423-39.046-5.672-4.573-10.994-2.255-14.508.534-10.091 8.011-16.567 28.009-13.906 42.785 1.355 7.358 5.522 16.674 17.872 19.167 9.237 1.9 19.127 4.569 29.369 14.776 11.647 11.631 21.587 31.035 30.423 59.4 4.418 14.183 11.6 25.517 21.286 33.706a65.747 65.747 0 0028.113 13.648 88.131 88.131 0 0019.428 2.136 84.519 84.519 0 0015.663-1.365 461.127 461.127 0 0157.231-7.774c39.861-2.67 64.51 2.433 73.2 15.251 8.585 12.64 10.593 29.611 5.773 49.253a119.563 119.563 0 01-5.727 17.21h-1.707a111.4 111.4 0 005.974-17.684c3.263-13.351 4.97-32.341-5.472-47.71z"/><path d="M232.881 657c-3.317 0-7.091 4.6-11.869 10.43l-.081.1c-4.511 5.507-9.625 11.751-15.831 16.176a41.67 41.67 0 00-11.522 11.717 23.069 23.069 0 00-3.566 12.966 27.054 27.054 0 003.11 11.268 46.14 46.14 0 006.755 9.683 66.243 66.243 0 007.773 7.387 53.834 53.834 0 006.162 4.373 20.714 20.714 0 0010.35 2.9 18.865 18.865 0 006.379-1.113c5.342-1.908 9.359-5.887 11.949-11.837 7.769-17.906.9-49.348-3.883-66.5-1.249-4.532-2.784-6.895-4.83-7.43a4.565 4.565 0 00-.896-.12zm-8.762 85.173a19.127 19.127 0 01-9.66-2.677 52.93 52.93 0 01-5.953-4.209 64.518 64.518 0 01-7.5-7.07A44.226 44.226 0 01194.49 719a25.247 25.247 0 01-2.984-10.67 21.071 21.071 0 013.4-12.051 39.965 39.965 0 0110.994-11.026c6.258-4.419 11.66-11.019 16-16.322l.126-.154.053-.064c4.37-5.333 8.144-9.938 10.849-9.938a2.182 2.182 0 01.55.069 3.79 3.79 0 012.022 1.856 18.018 18.018 0 011.718 4.394c4.814 17.3 7.266 32.288 7.288 44.534.011 5.856-.563 14.173-3.354 20.535-2.39 5.472-6.109 9.154-11.054 10.944a17.264 17.264 0 01-5.979 1.066z"/><path d="M222.516 686c-1.222 0-2.367 1.427-3.951 3.4l-.043.053a25.659 25.659 0 01-4.686 4.885c-3.305 2.383-4.931 5.128-4.836 8.162.078 2.39 1.241 4.8 3.457 7.166a22.5 22.5 0 003.948 3.313c.055.036.088.058.091.062a6.715 6.715 0 003.381.959 5.892 5.892 0 002.047-.366 6.768 6.768 0 003.946-3.991c2.458-5.7.345-15.544-1.134-20.9-.378-1.553-.992-2.455-1.826-2.684a.911.911 0 00-.394-.059zm-2.616 26.2a5.126 5.126 0 01-2.71-.77 20.419 20.419 0 01-3.772-3.209c-1.851-2.021-2.818-3.987-2.886-5.844-.1-2.28 1.278-4.464 4.093-6.491a27.739 27.739 0 004.981-5.181l.206-.25c1.015-1.229 2.166-2.622 2.717-2.622a.269.269 0 01.084.013c.147 0 .441.466.74 1.49 1.67 6.321 3.248 14.84 1.282 19.534a5.186 5.186 0 01-3.057 3.038 5.506 5.506 0 01-1.678.292zM702 692.569c-27.705 23.36-61.072 42.806-87.525 31.9-19.138-7.885-32.415-30.889-39.379-68.36-3.206-17.312-11.222-28.221-23.8-32.431-23.544-7.947-61.219 10.314-87.521 42.508-21.092 25.731-29.559 54.014-23.246 77.549 5.862 21.818 7.515 45.534 4.96 70.375-.551 5.277-1.3 10.553-2.2 15.889h-1.558a234.13 234.13 0 002.254-16.126c2.555-24.6.9-48.083-4.86-69.664-6.513-24.19 2.1-53.063 23.6-79.328 12.525-15.3 28.256-28.162 44.338-36.225 11.421-5.751 22.443-8.656 32.162-8.656a40.252 40.252 0 0112.525 1.9c12.926 4.328 21.543 16.008 24.85 33.794 6.864 36.818 19.739 59.348 38.377 67.055 26.152 10.791 59.469-9.012 87.024-32.431v2.253z"/><path d="M702 738.773c-20.459 20.674-52.552 38.979-78.628 32.759-16.2-3.85-28.533-16.587-36.606-37.735-11.182-29.264-25.373-49.76-42.222-61.016-18.052-12.025-34.098-10.011-44.378-6.22-12.436 4.621-23.166 14.339-30.238 27.368a70.57 70.57 0 00-7.571 44.671c5.065 31.87 7.02 62.556 5.767 91.4h-1.5a462.145 462.145 0 00-5.724-91.049 72.6 72.6 0 017.772-45.91c7.271-13.388 18.3-23.34 31.09-28.079a46.446 46.446 0 0116.4-2.962c9.879 0 19.858 3.14 29.138 9.3 17.15 11.433 31.541 32.226 42.874 61.845 7.873 20.615 19.807 32.937 35.5 36.728 12.737 3.021 28.031.3 44.228-8A134.049 134.049 0 00702 736.463v2.31zM374.575 20.156a5.282 5.282 0 01-4.818 1.794C363.349 21.14 354.607 10.434 348 1h1.937c6.309 8.913 14.356 18.462 19.969 19.214a3.939 3.939 0 003.626-1.331c3.427-3.762 7.252-10.649 10.729-17.883H386c-3.626 7.639-7.749 15.047-11.425 19.156z"/><path d="M702 772.83a65.327 65.327 0 00-13.576.119c-17.146 1.9-37.862 9.717-56.869 21.568-22.023 13.746-40.427-6.755-61.7-30.455-16.186-18.073-34.539-38.515-57.266-45.922-7.995-2.607-14.18-1.24-18.454 3.911-14.535 17.716-4.827 75.723 1.81 106.949h-1.558c-2.011-9.54-4.324-21.449-6.134-33.892-5.582-38.691-3.973-63.695 4.776-74.361A15.051 15.051 0 01505.2 715a25.964 25.964 0 017.794 1.363c23.026 7.465 41.58 28.085 57.871 46.337 20.867 23.224 38.868 43.31 59.935 30.157 19.409-12.147 39.823-19.849 57.422-21.745a67.019 67.019 0 0113.727-.178v1.9z"/><path d="M516.537 751.177a15.772 15.772 0 012.352-.177c13.311 0 28.177 17.241 36.135 27.988A241.084 241.084 0 01583 829h-1.652a240.087 240.087 0 00-27.425-48.831c-14.214-19.131-27.423-28.815-37.186-27.22a9.694 9.694 0 00-8.107 6.551c-5.255 14.171 8.958 47.119 20.119 69.438H527c-2.2-4.488-4.554-9.329-6.806-14.348-12.265-27.218-16.619-45.99-12.916-55.796a11.1 11.1 0 019.259-7.617z"/><path d="M536.469 791.059a5.566 5.566 0 011.015-.059c3.044 0 7.865 2.127 14.562 11.05a93.339 93.339 0 0112.533 23.282c.457 1.3.964 2.9 1.421 4.609h-1.573q-.533-1.861-1.218-3.9c-5.733-16.073-18.824-34.45-26.486-33.15a3.383 3.383 0 00-2.841 2.245c-2.588 6.855 7.918 27.123 12.431 34.864h-1.827c-3.247-5.732-15.069-27.3-11.974-35.573a4.825 4.825 0 013.957-3.368zM701.95 796.925c-6.85-4.418-14.809-6.025-23.714-4.656-9.956 1.492-21.112 6.507-33.219 14.925A200.292 200.292 0 00618.3 830H616a204.38 204.38 0 0128.266-24.358c12.308-8.542 23.664-13.672 33.82-15.164a43.976 43.976 0 016.204-.478 32.944 32.944 0 0117.71 4.9v2.03zM375.251 258c-9.146 0-14.495 2.612-15.9 7.764a13.458 13.458 0 00.563 7.807 34.727 34.727 0 004.686 8.829 71.573 71.573 0 0016.8 16.453 26.57 26.57 0 008.714 3.859A46.494 46.494 0 00401.541 304c8.082 0 17.859-1.571 29.059-4.669a234.823 234.823 0 0031.632-11.512l.166-.075c6.721-1.487 11.269-2.994 13.905-4.607 2.5-1.53 2.734-2.876 2.693-3.755a3.537 3.537 0 00-1.155-2.4 14.866 14.866 0 00-4.707-2.832c-5.455-2.322-14.756-4.635-28.436-7.07-18.028-3.217-39.08-5.85-57.398-8.065l-4.049-.478a66.33 66.33 0 00-8-.537zm26.249 44.2c-8.216 0-14.743-1.648-19.4-4.9a71.2 71.2 0 01-16.349-15.947 33.619 33.619 0 01-4.494-8.4 11.6 11.6 0 01-.557-6.653 7.614 7.614 0 014.576-4.857 24.74 24.74 0 019.907-1.643 64.488 64.488 0 017.817.529l4.1.418 3.695.459c16.165 2.007 36.281 4.5 53.6 7.6 12.828 2.3 22.113 4.578 27.6 6.771a17.108 17.108 0 014.392 2.341 2.3 2.3 0 011.008 1.518c.021.31-.159 1.158-2.288 2.344-2.556 1.425-6.985 2.847-13.161 4.226l-.15.059-.126.057A227.846 227.846 0 01430.2 297.6a142.254 142.254 0 01-14.07 3.216 87.116 87.116 0 01-14.63 1.384zM420.625 663a64.514 64.514 0 00-19.024 3.219 20.7 20.7 0 00-7.022 3.433 6.474 6.474 0 00-2.558 4.53c-.2 2.325 1.06 4.893 3.737 7.632s6.8 5.693 12.3 8.818a17.979 17.979 0 008.817 2.368 18.376 18.376 0 0013.087-5.705 36.051 36.051 0 006.431-8.423c1.769-3.45 2.078-6.506.919-9.081-1.928-4.316-8.011-6.791-16.687-6.791zm-3.824 28.217a16.339 16.339 0 01-8.145-2.166c-10.095-5.745-15.491-10.964-15.195-14.694.199-2.517 3.14-4.744 8.492-6.439a62.578 62.578 0 0118.6-3.1 29.889 29.889 0 019.986 1.474c2.762 1.008 4.594 2.461 5.431 4.318.84 1.835.665 4.083-.521 6.681a31.93 31.93 0 01-6.481 8.657 17.3 17.3 0 01-12.167 5.269zM550.15 19.3c-26.127 3.9-41.472 30-60.829 63.062-5.416 9.211-11.033 18.777-17.351 28.7-15.847 24.859-33.6 39.8-52.705 44.4-21.714 5.2-45.584-2.834-70.909-23.855C320.523 108.525 280.254 71.384 245.7 36.9 236.024 27.217 223.387 14.345 211 1h2.207c9.829 10.51 21.012 22.084 33.449 34.543 34.5 34.424 74.72 71.565 102.5 94.593 47.189 39.148 88.11 32.358 121.558-20.194 6.268-9.861 11.885-19.426 17.3-28.638 19.608-33.421 35.1-59.756 61.883-63.771C568.905 14.7 579.788 9.148 582.4 1h1.6c-2.457 9.152-13.841 15.293-33.85 18.3z"/><path d="M407.305 87.722c-9.505 4.89-19.262 4.3-29.019-1.709a328.24 328.24 0 01-65.178-52.257A273.27 273.27 0 01286 1h2.012c14.888 21.032 43.653 54.437 90.928 83.481 9.354 5.715 18.658 6.3 27.711 1.65 18.256-9.367 32.539-38.235 41.29-60.858 3.37-8.6 6.186-17.026 8.449-24.273H458c-2.313 7.423-5.18 16.084-8.65 24.98-12.875 33.286-27.058 54.083-42.045 61.742zM611.821 364.6a14.053 14.053 0 014.006-.6c6.8 0 11.564 5.668 13.339 11.753 2.13 7.458.456 17.481-8.267 21.777-14.099 6.981-23.989 9.07-29.467 6.265-2.485-1.253-3.652-4.236-3.398-8.413.355-5.31 3.043-11.932 7.2-17.779 4.666-6.563 10.551-11.157 16.587-13.003z"/><path d="M615.827 361.5a14.655 14.655 0 0110.286 4.293 21.226 21.226 0 015.453 9.26v.013a24.386 24.386 0 01.93 6.624 22.8 22.8 0 01-1.011 6.883 18.212 18.212 0 01-9.483 11.2 99.042 99.042 0 01-13.827 5.745 37.391 37.391 0 01-10.951 1.982 15.123 15.123 0 01-6.924-1.476c-3.39-1.712-5.081-5.545-4.762-10.793v-.015a31.433 31.433 0 012.354-9.461 47.907 47.907 0 015.307-9.6c4.962-6.981 11.315-11.934 17.889-13.949l.027-.008a16.484 16.484 0 014.712-.698zm10.937 14.947a16.159 16.159 0 00-4.118-7.047 9.623 9.623 0 00-6.819-2.9 11.553 11.553 0 00-3.288.491c-5.52 1.696-10.939 5.979-15.266 12.061-3.9 5.48-6.419 11.644-6.745 16.491-.109 1.816.011 5 2.029 6.02l.014.007a10.236 10.236 0 004.653.931c5.31 0 12.9-2.426 22.566-7.21a13.146 13.146 0 004.436-3.5 14.046 14.046 0 002.485-4.7 19.053 19.053 0 00.053-10.644z" fill="#575757"/><path d="M180.078 201a7.739 7.739 0 00-4.919 1.839 11.3 11.3 0 00-3.173 4.33c-1.776 4.285-1.442 10.456 3.489 13.879a17.257 17.257 0 009.86 2.952 19.825 19.825 0 006.8-1.2 13.593 13.593 0 004.939-3c1.734-1.735 2.327-3.736 1.669-5.635-1.322-4.044-6.359-8.175-14.973-12.275a8.827 8.827 0 00-3.692-.89zm5.209 21.174a15.959 15.959 0 01-9.053-2.674c-2.999-2.054-5.053-6.41-2.883-11.5a9.563 9.563 0 012.669-3.652 6.46 6.46 0 014.114-1.548 7.081 7.081 0 013.079.75c8.096 3.858 12.99 7.75 14.162 11.27.547 1.605-.589 2.956-1.315 3.618a12.117 12.117 0 01-4.514 2.669 18.844 18.844 0 01-6.259 1.067zM217.795 38c-.114 0-.23 0-.345.007a8.727 8.727 0 00-5.635 2.153 13.347 13.347 0 00-3.65 5.134 15.558 15.558 0 00-.924 8.573 12.053 12.053 0 004.917 7.806 33.778 33.778 0 0011.7 4.742A63.442 63.442 0 00237.761 68a39.23 39.23 0 008.144-.753 10.088 10.088 0 005.043-2.262 3.258 3.258 0 00.849-3.552c-1.95-5.973-23.093-18.984-30.054-22.402A8.386 8.386 0 00217.795 38zm20.368 28.145a65.17 65.17 0 01-13.79-1.528c-4.894-1.094-8.858-2.653-11.469-4.509a10.348 10.348 0 01-4.225-6.654 13.2 13.2 0 01.83-7.377 11.565 11.565 0 013.146-4.419 7.474 7.474 0 014.836-1.875 8.06 8.06 0 013.654.934 153.842 153.842 0 0117.335 10.576c6.968 4.884 11.183 8.72 11.869 10.8a1.293 1.293 0 01-.4 1.5c-1.579 1.624-5.875 2.552-11.786 2.552zM41.612 789.084c8.073 6.616 5.382 27.635 2.741 40.916h-1.545c.7-3.335 1.345-7.206 1.894-11.256 1.298-10.304 1.698-23.585-3.937-28.23-6.578-5.36-19.932 1.667-39.765 20.904V809.1C16.3 794.385 27.909 787 35.682 787a9.345 9.345 0 015.93 2.084zM339.872 397c-11.072 0-17.551 1.838-21.035 3.38-8.108 3.563-8.49 8.876-7.383 12.705a13.707 13.707 0 007.13 8.975 21.339 21.339 0 009.549 1.94c5.587 0 12.48-1.437 20.488-4.271a144.38 144.38 0 0018.305-8.1 8.68 8.68 0 003.723-3.5 3.538 3.538 0 00.12-2.8 6.5 6.5 0 00-2.753-2.942 22.907 22.907 0 00-5.123-2.281 67.408 67.408 0 00-13.564-2.64 95.719 95.719 0 00-9.457-.466zm-11.832 25.234a19.372 19.372 0 01-8.849-1.748 11.937 11.937 0 01-6.321-7.926c-1.27-4.566.942-8.115 6.573-10.548a37.346 37.346 0 019.006-2.431 74.428 74.428 0 0111.5-.833c3.055 0 6.177.157 9.281.467 10.77 1.107 19.063 3.911 20.17 6.818.555 1.51-1.4 3.02-3.135 4.021a135.752 135.752 0 01-13.388 6.2 104.734 104.734 0 01-12.277 4.118 50.73 50.73 0 01-12.56 1.862zM611.511 57.572c-26.483 5.681-29.643 26.925-33.655 53.85-4.514 30.061-10.081 67.46-50.608 97.285-20.313 14.912-39.774 24.262-59.536 28.582a117.989 117.989 0 01-53.567-.769c-34.107-8.166-66.307-29.943-97.5-50.95-29.191-19.706-59.386-40.121-91.887-50.181a136.123 136.123 0 00-50.909-6.273c-18.859 1.361-37.417 6.746-56.677 16.51-33.655 17.043-67.11 22.96-99.411 17.634A143.678 143.678 0 010 159.117v-1.834a147.767 147.767 0 0018.006 4.2c32.05 5.326 65.2-.592 98.608-17.457 23.724-12.013 45.693-16.983 66.408-16.983 50.006 0 92.69 28.819 134.37 56.927 32.5 21.954 63.147 42.666 97.053 50.773a115.388 115.388 0 0052.966.769c19.611-4.261 38.922-13.551 59.034-28.345 17.806-13.078 39.975-29.351 49.956-96.042 2.056-13.906 3.862-25.919 8.627-35.565 5.266-10.711 13.643-16.983 26.232-19.706 37.266-8.048 59.436-20.771 69.718-40.062A58.554 58.554 0 00686.445 1H688a60.228 60.228 0 01-5.768 15.741c-10.532 19.705-33.003 32.724-70.721 40.831z"/><path d="M582.335 38.147c-31.544 5.56-34.5 16.74-40.922 41.111-5.617 21.236-14.092 53.414-47.241 100.085-44.583 62.819-91.872 23.542-146.637-21.943-55.515-46.138-118.453-98.37-195.282-60.749-29.438 14.433-59.126 21.531-88.313 21.236A174.628 174.628 0 010 104.871v-1.893a173.292 173.292 0 0063.94 13.072c28.986.355 58.474-6.8 87.711-21.117 34.6-16.977 69.557-17.272 106.768-1.006 32.547 14.256 61.734 38.508 89.968 61.932 27.081 22.478 52.657 43.713 76.578 51.285 26.429 8.4 48.043-.828 68.053-29.044 32.948-46.434 41.373-78.376 46.94-99.493 6.419-24.371 9.679-36.615 42.176-42.353 19.007-3.372 30.892-11.653 35.355-24.607A41.451 41.451 0 00619.5 1h1.5a40.009 40.009 0 01-2.106 11.3c-4.714 13.721-17.001 22.357-36.559 25.847z"/><path d="M426.467 118.081c-13.937 10.928-32.637 10.574-55.548-1.241-18.2-9.333-39.1-25.874-62.166-49.03C285.191 44.064 264.135 18.072 251 1h2.005c13.135 17.072 33.695 42.355 56.701 65.511 22.961 23.1 43.716 39.519 61.765 48.794 22.41 11.519 40.608 11.992 54.094 1.359 31.333-24.633 47.978-66.22 62.667-102.9 1.755-4.312 3.409-8.565 5.114-12.7H495q-2.707 6.557-5.414 13.468c-14.686 36.857-31.434 78.68-63.119 103.549z"/><path d="M385.628 54.973c-6.494 5.485-14.886 5.366-24.926-.358-7.892-4.531-16.834-12.521-26.574-23.79A320.8 320.8 0 01311 0h1.948c15.585 23.194 51.3 70.833 71.78 53.542C397.966 42.333 405.708 20.093 412.4 0h1.6c-6.793 20.451-14.636 43.347-28.372 54.973zM139.3 56.913c-12.891 3.889-26.234 7.9-38.222 12.667-29.745 11.96-64.206 1.885-87.881-8.661A206.809 206.809 0 010 54.5v-1.947c4.264 2.239 8.878 4.537 13.744 6.717 23.425 10.428 57.534 20.386 86.828 8.6 11.988-4.831 25.381-8.838 38.323-12.726 29.093-8.72 56.581-16.968 58.487-31.934.8-6.3-2.909-13.669-11.236-22.212h2.207c7.875 8.543 11.336 15.967 10.534 22.507-2.107 16.145-28.742 24.158-59.587 33.408z"/><path d="M120.009 30.557a85.565 85.565 0 01-33.08-.359C66.36 26 26.124 12.582 0 3.535V1.678c26.124 9.047 66.61 22.528 87.229 26.782 10.96 2.217 22.821 2.4 32.579.359 14.113-2.936 19.067-9.107 20.769-13.841 1.551-4.254 1.151-9.287-1.151-14.979h1.7c2.2 5.872 2.452 11.144.8 15.7-3.351 9.226-13.76 13.18-21.917 14.858zM61.59 357.855c22.652-18 37.435-43.823 50.415-66.623 14.734-25.82 27.513-48.146 47.459-51.758a30.113 30.113 0 015.663-.474c15.385 0 33.677 10.482 56.88 32.571 17.39 16.582 31.873 31.624 44.652 44.948 26.961 28.13 46.456 48.442 68.005 55.016 22 6.751 46.155-.355 83.34-24.458 30.369-19.72 66.6-33.282 99.327-37.19 15.235-1.836 29.066-1.48 40.041 1.125 11.576 2.724 19.695 7.639 24.055 14.687 5.964 9.653 7.417 27.6-19.695 58.332-32.424 36.776-69.308 41.217-108.347 45.9-25.859 3.079-52.62 6.337-79.632 19.187-30.57 14.509-57.08 39.737-81.085 76.986-17.74 27.537-38.438 40.566-59.937 37.664-14.633-1.954-29.016-11.074-42.747-27-13.781-16.108-26.21-38.316-36.834-66.031-7.918-20.549-16.638-31.091-26.811-32.157-22-2.31-47.458 41.395-72.014 83.678-12.278 21.142-24.957 42.935-37.034 58.569C11.025 589.051 5.312 595.032 0 599v-2.191c16.889-13.147 35.23-44.652 53.121-75.447 12.328-21.2 25.107-43.172 37.385-59.161 13.13-17.055 24.356-25.406 34.228-25.406.6 0 1.2.059 1.8.118 10.724 1.125 19.9 11.962 28.014 33.163 10.574 27.537 22.852 49.567 36.533 65.5 13.481 15.693 27.563 24.636 41.845 26.531 20.9 2.783 41.194-10.008 58.584-37.013 24.155-37.546 50.916-62.892 81.686-77.519 27.212-12.969 54.073-16.167 80.033-19.306 38.788-4.678 75.422-9.061 107.5-45.422 26.36-29.906 25.157-46.962 19.545-56.022-8.219-13.206-31.672-18.832-62.743-15.1-32.524 3.909-68.556 17.411-98.775 37.013-37.536 24.34-61.991 31.446-84.443 24.576-21.9-6.692-41.495-27.123-68.606-55.43-12.779-13.325-27.212-28.367-44.6-44.889-25.762-24.52-45.256-34.587-61.393-31.685-19.294 3.434-31.872 25.464-46.456 50.99-13.08 22.918-27.914 48.857-50.816 67.1-18.993 15.1-37.085 22.681-53.973 22.681A57.733 57.733 0 010 381.425v-1.777c18.993 2.902 39.64-4.323 61.59-21.793zM28.125 183.078c23.212-.415 49.181-5.926 72.093-10.727 32.838-6.934 58.707-12.386 61.916.178 4.813 18.846-10.829 34.432-36.8 60.212-18.6 18.49-41.812 41.484-66.628 74.554-18.65 24.772-37.25 36.032-55.2 33.306a50.062 50.062 0 01-3.509-.711v-1.837c1.2.3 2.457.593 3.71.77 17.447 2.608 35.545-8.415 53.894-32.773 24.917-33.188 48.129-56.241 66.779-74.791 25.468-25.306 40.859-40.6 36.347-58.315-2.805-11.023-29.427-5.393-60.208 1.067C67.28 181.064 28.225 189.3 0 182.13v-1.837c8.021 2.074 17.346 2.963 28.125 2.785z"/><path d="M94.046 193c13 0 20.3 2.788 21.7 8.424 3.1 12.281-22.749 34.41-38.5 46.513C55 265.083 28.5 281.22 14.249 286.381A74.807 74.807 0 010 290v-1.78a74.821 74.821 0 0013.8-3.56c14.149-5.1 40.5-21.12 62.6-38.207 25.749-19.875 39.9-36.486 37.848-44.5-2-7.831-19.8-9.255-50.148-4.034A468.316 468.316 0 00.05 214v-1.837a477.071 477.071 0 0163.9-16.078C76.1 194.009 86.146 193 94.046 193z"/><path d="M29.812 225c6.033 0 9.4 1.371 10.055 4.113 1.408 5.487-8.647 14.605-17.344 21.282A159.437 159.437 0 010 265v-1.967a162.414 162.414 0 0021.718-14.188c11.161-8.584 17.546-15.976 16.691-19.255-1.357-5.305-21.517-2.325-38.409 2.146v-1.788c5.078-1.312 10.759-2.623 16.289-3.577A88.617 88.617 0 0129.812 225zM170.415 272a14.158 14.158 0 00-4.208.593c-12.253 3.548-22.024 13.807-28.257 29.682-6.281 16.163-8.36 36.978-6.012 60.195a164.231 164.231 0 0018.237 60.135C185.1 488.076 214.1 523.976 236.4 529.308a24.23 24.23 0 005.635.692 21.174 21.174 0 0013.754-5.135c21.228-17.438 35.073-34.411 47.289-49.386l.456-.558.109-.134c18.9-23.174 33.821-41.478 66.523-52.063 10.456-3.383 17.949-6.554 22.908-9.694a20.377 20.377 0 005.428-4.644 6.414 6.414 0 001.473-4.561c-.249-2.328-2.139-4.449-5.618-6.3s-8.615-3.48-15.274-4.836c-13.1-2.631-31.824-4.208-54.158-4.562-16.977-.3-34.578-8.107-53.806-23.876-16.939-13.951-32.825-32-46.842-47.93l-.006-.007c-10.361-11.778-20.143-22.899-29.147-31.022a73.427 73.427 0 00-12.942-9.692c-4.326-2.423-8.175-3.6-11.767-3.6zm71.642 256.182a23.851 23.851 0 01-5.31-.652c-5.433-1.3-11.373-4.525-17.656-9.594a139.308 139.308 0 01-20.15-20.9 344.168 344.168 0 01-22.564-32.123c-7.89-12.528-16.267-27.08-24.9-43.254a162.177 162.177 0 01-17.986-59.426c-2.3-22.917-.259-43.4 5.912-59.247 5.968-15.36 15.374-25.3 27.2-28.734a14.13 14.13 0 013.858-.534c3.434 0 7.149 1.164 11.355 3.558a73.432 73.432 0 0112.651 9.577c8.841 8.026 18.507 19.01 28.74 30.639l.008.009c13.257 15.12 29.755 33.937 47.043 48.109 19.555 16.009 37.433 23.936 54.658 24.232 22.269.354 40.91 1.931 53.907 4.562 7.284 1.483 12.657 3.255 15.969 5.266 2.858 1.735 3.6 3.314 3.72 4.333.3 2.923-3.319 6.277-10.765 9.968a139.36 139.36 0 01-17.942 7.036 109.081 109.081 0 00-38.94 21.6c-10.331 8.925-19.08 19.68-28.343 31.067l-.2.247c-12.219 14.981-26.068 31.961-47.343 49.461a21.675 21.675 0 01-6.162 3.6 19.365 19.365 0 01-6.76 1.2zM555.047 334c-7.3 0-17.285 1.089-30.531 3.329a677.723 677.723 0 00-66.282 15.339c-26.534 7.615-37.865 14.349-39.116 23.245-1.153 8.009 6.154 17.7 23 30.5a31.741 31.741 0 009.49 4.936A36.323 36.323 0 00462.7 413a55.079 55.079 0 0015.068-2.309c11.5-3.27 24.608-10.05 38.965-20.154 23.975-16.875 43.567-37.537 44.39-38.405a36.456 36.456 0 007.4-7.758c1.431-2.253 1.819-4.149 1.187-5.8-.6-1.515-2.132-2.668-4.545-3.426A35.272 35.272 0 00555.047 334zm-92.394 77.226a34.857 34.857 0 01-10.658-1.59 30.574 30.574 0 01-9.076-4.711c-7.954-6.052-13.854-11.515-17.537-16.238a27.06 27.06 0 01-3.972-6.644 11.522 11.522 0 01-.836-5.714c1.408-10.06 19.98-16.7 37.962-21.877 16.941-4.876 35.664-9.427 52.731-12.815 19.044-3.781 34.333-5.78 44.214-5.78 7.586 0 11.884 1.175 12.773 3.493.5 1.313.122 4.543-8.085 11.415l-.05.059-.223.229c-4.953 5.143-22.755 23.075-43.966 38-14.252 10.016-27.211 16.717-38.514 19.914a54.99 54.99 0 01-14.763 2.259z"/><path d="M516.9 358a75.408 75.408 0 00-11.634 1.241c-9 1.557-19.133 4.1-25.074 5.8-8.612 2.472-14.482 4.998-15.135 9.281-.5 3.313 2.242 7.033 8.89 12.064a12.884 12.884 0 008.045 2.614c5.6 0 12.542-2.889 20.626-8.587a123.468 123.468 0 0016.833-14.548c1.83-1.517 4.174-3.769 3.4-5.8-.366-.959-1.368-2.065-5.951-2.065zm-34.911 29.155a11.585 11.585 0 01-7.189-2.307 37.389 37.389 0 01-6.431-5.869c-1.384-1.713-2.01-3.18-1.861-4.362.228-1.591 1.762-3.063 4.689-4.5a59.122 59.122 0 019.3-3.3c7.618-2.2 15.2-4.021 21.916-5.269a89.518 89.518 0 0114.754-1.763c2.547 0 4.027.344 4.282.994 0 .009.264.917-2.9 3.607l-.05.059-.1.107a128.306 128.306 0 01-13.364 11.937 72.528 72.528 0 01-11.449 7.372c-4.364 2.186-8.266 3.294-11.597 3.294zM622.886 684.77c-12.191-5.271-19.415-19.012-29.5-38.082-4.866-9.239-10.435-19.722-17.408-30.857-22.676-35.95-45.5-22.743-83.328-.888-19.515 11.312-43.846 25.349-73.9 35.536-43.7 14.807-72.843 14.037-89.1-2.369-14.9-15.043-19.616-42.821-14.9-87.418 4.114-38.675 28.7-68.466 73.044-88.6 41.79-18.952 91.255-24.342 116.991-25.941 44.749-2.665 84.031-10.838 116.84-24.164 26.187-10.661 48.311-24.638 65.719-41.577A149.62 149.62 0 00702 364v2.606a160.966 160.966 0 01-13.545 15.043c-17.555 17.117-39.833 31.213-66.221 41.933-32.96 13.385-72.442 21.558-117.342 24.283-25.686 1.54-74.95 6.929-116.539 25.823-43.8 19.841-68.077 49.158-72.091 87.122-4.666 43.946-.1 71.19 14.4 85.819 15.853 15.991 44.549 16.7 87.693 2.014 29.95-10.187 54.181-24.164 73.646-35.417 19.214-11.135 34.415-19.9 47.96-21.44 14.7-1.658 26.187 5.39 37.224 22.861 7.023 11.135 12.592 21.677 17.508 30.975 9.883 18.775 17.057 32.338 28.746 37.372 12.341 5.33 29.047.829 55.937-15.043A188.411 188.411 0 00702 652.136v2.251a180.835 180.835 0 01-21.973 15.221c-27.342 16.109-44.399 20.67-57.141 15.162z"/><path d="M652.634 628.98c-12.329-.415-22.753-7.351-30.972-20.629-7.467-12.034-12.73-23-17.441-32.6-15.135-31.122-22.052-45.348-68.41-23.83-13.532 6.284-29.469 15.413-46.358 25.075-46.509 26.671-99.233 56.904-127.148 42.204-8.42-4.387-14.183-12.8-17.14-24.9-4.009-16.361-2.456-31.181 4.711-44.044 10.424-18.673 32.376-33.493 67.057-45.349 26.963-9.248 61.694-16.657 109.206-23.415 46.659-6.639 94.972-24.3 135.968-49.676A269.122 269.122 0 00702 402v2.371a272.427 272.427 0 01-39.242 29.047c-41.146 25.49-89.66 43.214-136.519 49.854-47.461 6.758-82.092 14.168-108.955 23.415-34.33 11.737-55.981 26.379-66.2 44.637-6.921 12.389-8.425 26.676-4.566 42.562 2.907 11.737 8.219 19.5 16.288 23.712 27.314 14.346 79.687-15.709 125.894-42.207 16.89-9.722 32.877-18.851 46.459-25.134 22.9-10.611 36.987-12.982 47.11-7.825 9.773 4.979 15.386 16.48 23.1 32.426a341.994 341.994 0 0017.341 32.426c7.919 12.8 17.942 19.5 29.82 19.918 16.739.534 34.932-11.559 49.416-24.423v2.253c-22.746 20.154-39.188 24.303-49.312 23.948z"/><path d="M650.327 583.607c-8.812-1.783-15.322-9.982-19.377-24.362-12.117-42.845-40.457-39.929-59.234-38.027-10.216 1.069-17.625 1.782-18.526-5.17-1.152-8.794 2.9-15.568 12.918-21.212 8.913-5.051 21.731-8.972 36.552-13.429 31.04-9.388 70.8-21.45 99.29-52.407v2.436c-28.64 30.423-68.096 42.364-98.94 51.694-29.441 8.913-50.671 15.33-48.368 32.681.651 5.05 6.558 4.689 16.924 3.624 9.614-.951 21.53-2.2 32.8 2.317 13.319 5.348 22.482 17.41 27.989 36.9 3.855 13.666 10.014 21.51 18.226 23.173 15.472 3.209 35.851-15.271 51.423-32.977v2.5c-.8.951-1.652 1.842-2.5 2.793-20.236 22.098-36.759 32.021-49.177 29.466z"/><path d="M671.425 537.915c-7.656 3.333-14.119 2.679-19.091-2.024-4.076-3.809-5.816-9.226-5.22-16.071 2.138-23.69 32.315-58.57 54.886-74.82v2.143c-9.993 7.321-21.129 18.035-30.674 29.642-13.626 16.607-21.726 31.964-22.77 43.333-.547 6.131.994 11.012 4.673 14.464 13.371 12.559 35.398-9.465 48.771-25.774v2.559a165.06 165.06 0 01-10.341 11.428c-7.407 7.382-14.218 12.505-20.234 15.12zM518.389 501c-10.536 0-25.493 2.127-41.036 5.835-33.406 7.916-65.267 21.365-85.23 35.965-22.452 16.437-30.059 34.247-21.997 51.5a15.742 15.742 0 0010.675 8.936 25.327 25.327 0 006.422.763c16.931 0 44.559-13.218 82.115-39.288 27.983-19.346 52.614-39.849 59.5-45.673l.28-.236c5.961-5.3 8.068-9.645 6.263-12.92-.958-1.679-2.993-2.944-6.05-3.759A43.849 43.849 0 00518.389 501zM387.162 602.225a24.1 24.1 0 01-6.062-.715 14.3 14.3 0 01-9.67-8.039 28.952 28.952 0 01.2-25.9c3.74-7.821 10.888-15.634 21.245-23.222 19.878-14.535 51.552-27.89 84.726-35.728 14.256-3.388 27.726-5.418 37.931-5.716a89.189 89.189 0 012.69-.042c11.758 0 14.977 2.563 15.849 4.091.745 1.287.423 3-.958 5.1a27.437 27.437 0 01-4.9 5.322c-.053.046-6.353 5.444-16.747 13.735-9.094 7.254-23.188 18.193-38.689 29.114-17.33 12.21-32.885 21.934-46.233 28.9a159.631 159.631 0 01-21.446 9.5c-6.948 2.389-12.981 3.6-17.936 3.6z"/><path d="M474.317 528c-6.617 0-17.401 2.683-23.237 4.282-16.749 4.7-32.247 11.457-41.456 18.067-9.274 6.68-12.5 13.193-9.586 19.358a5.48 5.48 0 003.514 2.933 9.906 9.906 0 002.8.36c7.468 0 21.014-6 40.263-17.841 9.475-5.827 20.03-12.921 30.524-20.516.368-.267.57-.412.592-.425a8.958 8.958 0 001.694-1.833 2.525 2.525 0 00.264-2.8c-.594-1.067-2.351-1.585-5.372-1.585zm-67.905 43.29a8.207 8.207 0 01-2.512-.352 3.87 3.87 0 01-2.56-2.053c-2.462-5.167.577-10.871 9.034-16.952 9.078-6.563 24.426-13.252 41.057-17.891 9.652-2.687 18.1-4.229 23.186-4.229 2.182 0 3.555.294 3.865.827a.063.063 0 01.024.051c.02.206-.305.915-1.68 2.119-.116.088-13.5 9.912-29.09 19.636a249.94 249.94 0 01-23.045 12.98c-8.083 3.891-14.232 5.864-18.279 5.864zM168.803 313c-5.65 0-9.89 2.868-12.6 8.525-13.343 27.982 16.8 118.16 57.807 153.331C224.203 483.577 233.564 488 241.821 488a21.944 21.944 0 004.844-.534c7.747-1.775 14.41-7.77 19.8-17.819a65.25 65.25 0 007.5-32.917 66.132 66.132 0 00-9.351-32.323l-1.551-2.546-.091-.149c-19.063-31.377-38.778-63.822-81.716-85.219-4.661-2.318-8.853-3.493-12.453-3.493zm73.01 173.164a29.692 29.692 0 01-12.7-3.226 66.564 66.564 0 01-14.2-9.62c-18.56-15.931-36.81-45.344-48.81-78.68-5.514-15.293-9.238-30.193-10.769-43.091-1.531-12.876-.778-22.971 2.169-29.193a14.006 14.006 0 014.636-5.712 11.564 11.564 0 016.613-1.906c3.375 0 7.38 1.148 11.9 3.413a161.623 161.623 0 0114.951 8.464 152.982 152.982 0 0113.048 9.354 160.017 160.017 0 0121.452 20.819c12.629 14.67 22.329 30.668 31.71 46.14l1.551 2.546a63.929 63.929 0 019.1 31.317 63.089 63.089 0 01-7.25 31.85 42.358 42.358 0 01-8.6 11.471 22.739 22.739 0 01-10.208 5.52 19.979 19.979 0 01-4.592.534z"/><path d="M187.91 355a7.632 7.632 0 00-4.688 1.461 8.648 8.648 0 00-2.582 3.285c-3.455 7.228-1.361 22.526 5.461 39.925 7.162 18.14 17.865 34.462 28.631 43.662 5.969 5.087 11.455 7.667 16.295 7.667a13.116 13.116 0 002.862-.312c4.605-1.018 8.536-4.53 11.682-10.441a39.144 39.144 0 00-1.1-38.145c-6.316-10.376-12.16-17.925-18.949-24.477a101.05 101.05 0 00-12.987-10.568 138.526 138.526 0 00-16.903-9.857 17.988 17.988 0 00-7.722-2.2zm43.121 94.2a16.924 16.924 0 01-7.264-1.854 38.868 38.868 0 01-8.129-5.5c-10.588-9.08-21.104-25.136-28.129-42.946a103.863 103.863 0 01-6.424-22.855c-.984-6.828-.667-12.177.909-15.469a6.161 6.161 0 015.919-3.85 16.8 16.8 0 017.167 2.074c25.368 12.632 37.245 26.32 48.186 44.311a36.96 36.96 0 011.053 36.128 24.582 24.582 0 01-4.889 6.525 12.877 12.877 0 01-5.791 3.144 12.518 12.518 0 01-2.608.292zM679.831 352.567c-12.79 8.955-25.529 10.853-35.811 5.337-15.3-8.125-22.319-30.9-16.3-52.958 1.555-5.693.6-10.26-2.809-13.818-10.783-11.149-45.641-12.1-95.7-2.55-43.234 8.243-89.828 23.128-113.351 36.294-19.51 10.912-35.259 12.691-46.845 5.4-10.282-6.464-17.053-20.341-19.611-40.03-3.812-29.474-56.224-57.584-98.354-80.119-29.888-16.015-53.511-28.647-56.671-39.023a7.062 7.062 0 01.15-4.981c2.809-6.879 9.68-8.065 22.369-3.855 11.686 3.914 28.237 12.276 49.152 22.891 32.45 16.486 76.938 39.081 134.015 60.608 46.795 17.613 87.471 15.6 120.874-5.99 18.106-11.742 33.754-29.059 46.494-51.475 10.884-19.214 19.561-42.165 25.027-66.42 4.012-17.791 12.79-32.617 26.131-44.063 10.783-9.251 24.626-16.368 41.077-21.171A182.359 182.359 0 01702 50v1.779a179.321 179.321 0 00-41.98 6.642c-16.25 4.685-29.892 11.742-40.525 20.875-13.041 11.204-21.617 25.678-25.579 43.114-5.516 24.49-14.245 47.62-25.228 66.953-12.888 22.714-28.688 40.208-47.046 52.069-33.754 21.883-74.832 23.9-122.028 6.168-57.177-21.527-101.665-44.122-134.165-60.668-41.478-21.053-64.349-32.676-69.565-19.926a5.248 5.248 0 00-.1 3.618c2.959 9.666 27.485 22.832 55.923 38.014 21.165 11.327 45.19 24.2 64.1 37.836 21.868 15.775 33.353 30.067 35.109 43.647 2.458 19.1 8.978 32.5 18.808 38.725 11.185 7.057 26.482 5.219 45.541-5.456 35.008-19.57 120.473-42.936 172.383-42.936 17.905 0 31.849 2.787 38.319 9.489 3.912 4.033 5.016 9.311 3.26 15.715-5.768 21.171.9 43.054 15.5 50.823 18.758 9.963 39.522-5.1 57.227-28.7v3.019c-7.327 9.194-14.7 16.548-22.123 21.767z"/><path d="M673.883 323.939a15.118 15.118 0 01-14.585-1.9c-13.081-9.3-10.224-26.362-7.718-41.468 1.754-10.486 3.408-20.379-.652-25.888-2.807-3.791-8.27-5.391-16.639-4.8-19.1 1.3-37.439 6.1-52.174 9.952-19.6 5.095-33.78 8.827-38.942 2.014a10.265 10.265 0 01-2.155-6.931c.4-8.057 9.422-17.476 20.9-29.383 16.489-17.18 37.038-38.625 44.1-67.416 6.916-28.08 16.238-55.864 37.789-68.719 8.275-4.912 17.948-7.4 29.124-7.4a106.844 106.844 0 0129.019 4.5v1.839c-24.057-6.872-43.002-5.984-57.486 2.661-21 12.559-30.222 39.928-37.038 67.653-7.217 29.269-27.916 50.892-44.555 68.247-11.176 11.67-20 20.853-20.4 28.2a8.328 8.328 0 001.8 5.628c4.561 6.043 19.1 2.251 37.539-2.547 14.785-3.851 33.229-8.649 52.424-9.952 8.871-.592 14.685 1.185 17.842 5.45 4.511 6.161 2.807 16.469 1 27.369-2.556 15.225-5.162 30.924 7.017 39.573a14.011 14.011 0 0013.382 1.777c8.47-3.021 18.243-13.388 28.518-30.035v3.081c-8.313 12.974-18.236 25-28.11 28.495z"/><path d="M683.736 265.111c-7.286-2.787-12.376-12.1-12.625-23.247-.15-7-1.347-11.327-3.793-14-5.29-5.752-17.416-4.863-39.472-3.262l-2.595.178c-8.533.597-13.174-.707-14.721-4.088-2.345-5.278 3.393-14.233 11.378-26.687 7.136-11.09 16.019-24.848 21.009-39.556 3.842-11.267 10.383-19.036 19.361-23.128A41.1 41.1 0 01679.145 128 77.432 77.432 0 01702 131.914v1.9c-11.976-3.857-27-6.288-39.173-.832-8.583 3.854-14.821 11.327-18.514 22.118-5.09 14.945-14.022 28.822-21.208 39.971-7.086 10.973-13.174 20.462-11.278 24.729 1.2 2.669 5.539 3.677 13.274 3.143l2.595-.178c23.155-1.661 34.832-2.491 40.57 3.736 2.795 3.025 4.142 7.769 4.292 15.3.25 10.378 4.89 19.037 11.577 21.587 5.34 2.016 11.477.178 17.865-5.1v2.254c-8.184 6.467-14.521 5.992-18.264 4.569z"/><path d="M671 203.7c-4.71-6.311-6.164-14.292-4.058-22.512 2.308-8.934 10.834-13.997 25.328-15.009a90.976 90.976 0 015.617-.179c1.405 0 2.813.06 4.113.119v1.787c-12.087-.536-30.343.894-33.653 13.878-1.956 7.624-.6 15.01 3.711 20.787 6.018 8.041 16.8 12.151 29.892 11.615v1.787c-13.441.416-24.626-3.873-30.95-12.273zM55.357 386.034C74.38 376.839 92.547 368 104.827 368a16.317 16.317 0 018.555 2.076c3.321 2.017 5.435 5.636 6.341 10.678 2.164 11.864-8.555 23.314-24.81 40.636-16.1 17.144-38.146 40.576-57.622 75.695Q17.438 532.767.05 543v-1.958c11.122-6.822 23.149-21.771 35.932-44.907 19.627-35.355 41.718-58.847 57.874-76.05 15.852-16.907 26.37-28.059 24.357-38.915-.856-4.568-2.667-7.653-5.586-9.432-10.417-6.467-32.912 4.448-56.716 16.016-15.701 7.593-31.956 15.483-46.047 19.046A67.683 67.683 0 010 408.576V406.8a63.553 63.553 0 009.562-1.72c13.99-3.622 30.195-11.453 45.795-19.046z"/><path d="M47.581 418c5.176 0 8.461 1.533 9.8 4.541 3.285 7.548-6.62 21.937-29.514 42.93C17.519 474.906 6.769 483.634 0 489v-2.064c22.646-17.868 61.268-51.658 56.092-63.57-1.092-2.535-4.081-3.656-8.262-3.656-11 0-30.51 7.43-47.83 15.332v-1.887c3.733-1.71 7.665-3.42 11.646-5.071C27.772 421.361 39.817 418 47.581 418zM239.315 235c-3.714 0-5.553.656-6.147 2.2-1.008 2.723 2.633 6.652 8.662 13.161 6.446 6.939 15.271 16.434 20.963 27.766a114.532 114.532 0 008.615 14.534 50.4 50.4 0 007.193 8.226 44.751 44.751 0 008.368 6.07 40.29 40.29 0 009.2 3.757 37.507 37.507 0 009.705 1.286 37 37 0 004.179-.238c4.265-.5 7.517-1.655 9.667-3.426a9.041 9.041 0 003.281-7.251c.1-20.223-52.141-62.465-75.676-65.433a60.161 60.161 0 00-8.01-.652zm66.605 75.161a36.269 36.269 0 01-9.377-1.242 38.909 38.909 0 01-8.88-3.619 43.453 43.453 0 01-8.078-5.847 49.356 49.356 0 01-6.968-7.915 110.518 110.518 0 01-8.465-14.3c-5.742-11.466-14.612-21.018-21.089-27.993l-.172-.185-.228-.246c-4.241-4.588-8.628-9.332-8.034-10.848.286-.771 1.838-1.166 4.611-1.166a66.425 66.425 0 017.985.63c10.75 1.36 28.746 11.489 45.848 25.8a134.638 134.638 0 0120.846 21.215c5.01 6.653 7.645 12.387 7.62 16.581a7.252 7.252 0 01-2.916 6.028c-1.934 1.491-4.834 2.456-8.621 2.87a31.516 31.516 0 01-4.082.237zM48.936 596.311c11.27-24.548 23.341-49.811 35.112-68.248C97.021 507.843 108.291 498 118.559 498h.3c10.218.178 19.234 9.9 27.548 29.588 17.481 41.329 38.167 66.588 59.855 72.933 14.826 4.329 30.053.059 45.23-12.808 11.671-9.9 19.985-13.163 25.294-10.021 7.864 4.625 8.315 21.88 8.816 41.8.551 21.88 1.152 46.724 12.221 58.109 5.159 5.277 12.071 7.234 21.137 6.048 23.742-3.2 46.332 1.067 65.315 12.215a97.1 97.1 0 0140.371 46.843c7.964 19.034 10.268 40.5 6.762 61.963a129.215 129.215 0 01-7.262 26.33h-1.7c11.721-29.292 12.372-60.125.9-87.519a95.343 95.343 0 00-39.67-46.013c-18.733-11.029-41.072-15.179-64.513-12.037-9.366 1.245-16.88-.889-22.289-6.463-11.574-11.859-12.174-37.119-12.774-59.354-.451-18.559-.9-36.111-7.964-40.261-4.808-2.846-12.572.415-23.792 9.9-15.577 13.163-31.2 17.551-46.482 13.1-22.139-6.522-43.176-32.079-60.807-73.881-8.064-19.034-16.629-28.4-26.2-28.58h-.3c-21.788 0-45.68 48.088-68.32 97.421C36.364 627.381 19.534 648.135 0 659.163v-1.957c18.933-10.969 35.362-31.366 48.936-60.895z"/><path d="M67.8 672c8.676 0 16.3 1.478 22.567 4.494 14.292 6.859 21.413 20.874 21.163 41.806-.251 20.519 4.413 35.775 14.242 46.6 24.222 26.846 76.376 22.234 131.639 17.266 8.124-.71 16.549-1.478 24.823-2.129 8.074-.65 15.5-.946 22.316-.946 31.142 0 48.794 6.564 52.656 19.632 2.708 9.225-1.805 20.4-9.027 31.281h-1.956c7.422-10.821 12.136-21.879 9.578-30.749-4.413-15.019-29.086-20.933-73.417-17.5-8.274.65-16.7 1.419-24.823 2.129-55.564 4.967-108.069 9.638-132.792-17.74-10.13-11.235-14.944-26.9-14.693-47.956.251-20.1-6.569-33.646-20.21-40.15-17.552-8.4-46.086-4.553-78.382 10.525-3.861 1.768-7.673 3.719-11.484 5.73v-1.952a173.596 173.596 0 0110.932-5.44C32.095 677.085 51.753 672 67.8 672z"/><path d="M39.142 728.118c18.043 1.3 33.329 12.5 45.507 33.289l2 3.436c14.785 25.233 22.2 37.909 33.178 43.181s25.861 3.376 55.531-.474c3.609-.474 7.468-.948 11.527-1.481 35.183-4.443 60.643-5.983 77.834-4.561 16.589 1.362 26.011 5.331 29.62 12.5 2.205 4.383 2.1 9.714.3 15.993h-1.554c1.8-6.042 2-11.077-.05-15.1-3.308-6.456-12.58-10.307-28.417-11.61-17.14-1.422-42.5.059-77.583 4.561-4.06.533-7.919 1.007-11.527 1.481-29.921 3.909-44.906 5.864-56.283.355S100.337 791.38 85.4 765.85l-2-3.436C71.469 742.1 56.584 731.139 39.042 729.9c-9.021-.656-22.102 1.18-39.042 10.539v-1.955C14.885 730.369 26.813 728 35.684 728c1.253 0 2.406.059 3.458.118z"/><path d="M59.477 770.239c7.147 3.945 12.045 10.661 14.494 19.961A129.5 129.5 0 0177.82 830h-1.5a127.61 127.61 0 00-3.8-39.271c-2.349-8.832-7-15.19-13.745-18.9C42.733 763 17.793 770.239 0 777.481V775.6c11.945-4.831 27.039-9.6 40.634-9.6 6.847 0 13.345 1.236 18.843 4.239zM369.454 786.281c-9.94-23.163-53.967-20.023-54.469-19.964-24.649 0-47.541 2.073-67.723 3.969-30.021 2.784-55.975 5.154-75.153-.711-10.141-3.08-18.023-8.353-24.047-16.054-6.526-8.294-10.944-19.49-13.555-34.122-8.685-48.932-31.427-54.8-49.75-59.477-11.044-2.844-20.583-5.272-23.746-16.883-2.862-10.6.452-31.693 8.534-53.73 8.637-23.637 20.384-41.942 31.429-48.932A19.78 19.78 0 01111.466 537c6.426 0 12.5 4.028 17.822 11.907 8.083 11.966 14.659 25 21.035 37.617 11.9 23.577 22.139 43.9 38.053 48.458 9.789 2.784 21.185-.652 34.74-10.663 17.972-13.21 30.422-17.357 38.1-12.677 9.538 5.805 10.492 23.755 11.5 42.83 1.355 25.592 2.761 52.072 25.051 50.887 5.121-.237 10.04-.415 14.81-.415 48.194 0 79.47 13.447 92.974 40.105 10.643 20.912 7.932 46.148 3.815 63.564A170.048 170.048 0 01402.789 830h-1.657a166.09 166.09 0 006.777-21.919c7.279-30.982 2.008-50.887-3.665-62.143-14.559-28.672-50.4-41.764-106.428-38.861-10.693.533-17.822-4.8-21.788-16.35-3.464-10.012-4.167-23.34-4.819-36.255-.954-18.542-1.908-36.018-10.693-41.349-7.179-4.384-19.127-.237-36.648 12.618-13.956 10.248-25.7 13.8-35.894 10.841-16.516-4.739-26.959-25.355-39.007-49.288-6.325-12.559-12.9-25.532-20.934-37.38-7.833-11.551-16.718-14.214-26.457-8.056C90.833 548.67 79.286 566.62 70.8 589.9c-7.779 21.327-11.193 42.417-8.482 52.488 2.912 10.663 11.6 12.914 22.641 15.7 9.237 2.37 19.679 5.035 29.017 13.447 10.793 9.715 17.972 25.236 21.888 47.451 4.87 27.546 16.115 42.593 36.5 48.814 8.534 2.607 18.525 3.554 29.619 3.554 13.454 0 28.665-1.422 45.031-2.9 20.231-1.836 43.124-3.969 67.773-3.969h.05a108.682 108.682 0 0123.846 1.244c16.868 2.844 27.611 9.478 32.029 19.668 4.769 11.078 1.707 26.006-9.137 44.548h-1.807c11.042-18.309 14.255-33.001 9.686-43.664z"/><path d="M372.52 765.606c-8.233-12.165-33.134-17.209-71.94-14.6a457.907 457.907 0 00-57.03 7.774 90.524 90.524 0 01-35.594-.771 66.232 66.232 0 01-28.716-13.945c-9.99-8.426-17.37-20.057-21.888-34.537-8.736-28.067-18.525-47.234-29.971-58.627-9.94-9.91-19.629-12.521-28.666-14.361-13.203-2.67-17.671-12.639-19.077-20.532-2.811-15.429 3.962-36.257 14.508-44.625a13.971 13.971 0 018.585-3.382 11.9 11.9 0 017.581 2.908c9.89 7.952 20.031 23.262 30.774 39.4 20.432 30.8 41.568 62.6 62.8 46.642a401.3 401.3 0 008.986-6.884c15.563-12.046 27.913-21.6 35.694-17.09 4.619 2.67 7.229 9.732 8.183 22.312 1.958 25.991 5.572 45.574 16.868 56.611 8.032 7.892 19.479 10.8 35.041 9.02 43.576-5.044 72.292 4.095 85.395 27.06 10.492 18.4 8.685 42.31 5.321 59.163A179.909 179.909 0 01392.8 831h-1.6a177.854 177.854 0 006.727-24.271c3.263-16.5 5.02-39.877-5.121-57.739-12.751-22.372-41.016-31.213-83.989-26.288-15.964 1.84-27.762-1.246-36.146-9.435-11.647-11.453-15.412-31.391-17.42-57.858-.9-11.75-3.263-18.574-7.33-20.888-7.028-4.035-19.027 5.222-34.188 16.972a585.326 585.326 0 01-9.036 6.884c-10.091 7.6-20.985 5.7-33.284-5.815-10.748-9.97-21.291-25.874-31.482-41.243-10.643-16.081-20.731-31.213-30.423-39.046-5.672-4.573-10.994-2.255-14.508.534-10.091 8.011-16.567 28.009-13.906 42.785 1.355 7.358 5.522 16.674 17.872 19.167 9.237 1.9 19.127 4.569 29.369 14.776 11.647 11.631 21.587 31.035 30.423 59.4 4.418 14.183 11.6 25.517 21.286 33.706a65.747 65.747 0 0028.113 13.648 88.131 88.131 0 0019.428 2.136 84.519 84.519 0 0015.663-1.365 461.127 461.127 0 0157.231-7.774c39.861-2.67 64.51 2.433 73.2 15.251 8.585 12.58 10.593 29.611 5.773 49.194a119.563 119.563 0 01-5.723 17.209h-1.707a111.406 111.406 0 005.974-17.684c3.259-13.232 4.916-32.281-5.476-47.65z"/><path d="M230.881 658c-3.317 0-7.091 4.6-11.869 10.43l-.081.1c-4.511 5.507-9.625 11.751-15.831 16.176a41.67 41.67 0 00-11.522 11.717 23.069 23.069 0 00-3.566 12.966 27.054 27.054 0 003.11 11.268 46.14 46.14 0 006.755 9.683 66.243 66.243 0 007.773 7.387 53.834 53.834 0 006.162 4.373 20.714 20.714 0 0010.35 2.9 18.865 18.865 0 006.379-1.113c5.391-1.908 9.411-5.887 11.949-11.837 7.769-17.906.9-49.348-3.883-66.5-1.249-4.532-2.784-6.895-4.83-7.43a4.565 4.565 0 00-.896-.12zm-8.762 85.173a19.127 19.127 0 01-9.66-2.677 52.93 52.93 0 01-5.953-4.209 64.518 64.518 0 01-7.5-7.07A44.226 44.226 0 01192.49 720a25.247 25.247 0 01-2.984-10.67 21.071 21.071 0 013.4-12.051 39.965 39.965 0 0110.994-11.026c6.258-4.419 11.66-11.019 16-16.322l.126-.154.053-.064c4.37-5.333 8.144-9.938 10.849-9.938a2.182 2.182 0 01.55.069 3.79 3.79 0 012.022 1.856 18.018 18.018 0 011.718 4.394c4.839 17.315 7.3 32.3 7.326 44.534.011 5.871-.569 14.2-3.392 20.535-2.39 5.472-6.109 9.154-11.054 10.944a17.264 17.264 0 01-5.979 1.066z"/><path d="M220.516 687c-1.222 0-2.367 1.427-3.951 3.4l-.043.053a25.659 25.659 0 01-4.686 4.885c-3.305 2.383-4.931 5.128-4.836 8.162.078 2.39 1.241 4.8 3.457 7.166a22.5 22.5 0 003.948 3.313c.055.036.088.058.091.062a6.715 6.715 0 003.381.959 5.892 5.892 0 002.047-.366 7.037 7.037 0 003.946-3.991c2.458-5.7.345-15.544-1.134-20.9-.378-1.553-.992-2.455-1.826-2.684a.911.911 0 00-.394-.059zm-2.663 26.2a5.126 5.126 0 01-2.713-.77 20.419 20.419 0 01-3.772-3.209c-1.851-2.021-2.822-3.987-2.885-5.844-.1-2.28 1.278-4.464 4.093-6.491a27.739 27.739 0 004.981-5.181l.206-.249c1.015-1.229 2.166-2.623 2.718-2.623a.269.269 0 01.084.013c.147 0 .441.466.74 1.49a68.066 68.066 0 011.9 9.32c.551 4.483.344 7.919-.617 10.214a5.186 5.186 0 01-3.057 3.038 5.506 5.506 0 01-1.678.292zM612.94 724.466c-19.188-7.885-32.5-30.889-39.482-68.36-3.214-17.312-11.251-28.221-23.858-32.43-23.61-7.945-61.384 10.316-87.755 42.51-21.145 25.731-29.636 54.014-23.307 77.549 5.877 21.818 7.535 45.534 4.973 70.375-.553 5.218-1.311 10.554-2.211 15.89h-1.557A228.179 228.179 0 00442 813.874c2.562-24.6.9-48.083-4.872-69.664-6.528-24.19 2.113-53.064 23.662-79.329 12.558-15.3 28.33-28.162 44.455-36.225C516.7 622.905 527.748 620 537.493 620a40.454 40.454 0 0112.558 1.9c12.96 4.328 21.6 16.008 24.915 33.794 6.882 36.818 19.791 59.348 38.477 67.055 26.622 10.966 60.729-9.666 88.557-33.559v2.194c-28.029 23.893-62.136 44.11-89.06 33.082z"/><path d="M622.169 771.532c-16.177-3.85-28.5-16.587-36.56-37.735-11.168-29.264-25.342-49.76-42.169-61.016-18.031-12.025-34.057-10.011-44.324-6.22-12.416 4.621-23.138 14.339-30.2 27.368a70.646 70.646 0 00-7.562 44.671 462.593 462.593 0 015.759 91.4h-1.5a462.713 462.713 0 00-5.713-91.049 72.678 72.678 0 017.763-45.91c7.263-13.388 18.281-23.341 31.052-28.079A46.336 46.336 0 01515.092 662c9.866 0 19.833 3.14 29.1 9.3 17.128 11.433 31.5 32.226 42.821 61.845 7.863 20.615 19.783 32.937 35.458 36.728 12.721 3.021 28 .3 44.173-8A132.106 132.106 0 00702 735.1v2.37c-20.384 21.207-53.238 40.4-79.831 34.062zM373.575 20.069a5.155 5.155 0 01-4.818 1.88C362.349 21.1 353.607 9.883 347 0h1.937c6.309 9.337 14.356 19.341 19.969 20.129a3.843 3.843 0 003.626-1.395c3.427-3.94 7.252-11.155 10.729-18.734H385c-3.626 8-7.7 15.825-11.425 20.069z"/><path d="M687.087 773.889c-17.122 1.9-37.809 9.717-56.789 21.568C608.306 809.2 589.929 788.7 568.69 765c-16.168-18.071-34.495-38.512-57.19-45.919-7.984-2.607-14.16-1.244-18.428 3.911-14.511 17.716-4.772 75.723 1.858 107.008h-1.557c-2.008-9.54-4.318-21.449-6.126-33.892-5.573-38.691-3.967-63.7 4.77-74.361A15.022 15.022 0 01504.169 716a25.894 25.894 0 017.783 1.363c23 7.466 41.524 28.085 57.793 46.335 20.837 23.226 38.812 43.312 59.855 30.159 19.381-12.147 39.767-19.849 57.341-21.745a63.919 63.919 0 0115.063 0v1.778a62.634 62.634 0 00-14.917-.001z"/><path d="M515.537 752.177a15.772 15.772 0 012.352-.177c13.311 0 28.177 17.241 36.135 27.988A241.084 241.084 0 01582 830h-1.652a240.087 240.087 0 00-27.425-48.831c-14.214-19.131-27.423-28.815-37.186-27.22a9.694 9.694 0 00-8.107 6.551c-5.255 14.171 8.958 47.119 20.119 69.438H526c-2.2-4.488-4.554-9.329-6.806-14.348-12.265-27.218-16.619-45.99-12.916-55.796a11.254 11.254 0 019.259-7.617z"/><path d="M535.469 791.059a5.566 5.566 0 011.015-.059c3.044 0 7.865 2.127 14.562 11.05a93.339 93.339 0 0112.533 23.282c.457 1.3.964 2.9 1.421 4.609h-1.573q-.533-1.861-1.218-3.9c-5.733-16.073-18.824-34.45-26.486-33.15a3.383 3.383 0 00-2.841 2.245c-2.588 6.855 7.918 27.123 12.431 34.864h-1.827c-3.247-5.732-15.069-27.3-11.974-35.573a4.713 4.713 0 013.957-3.368zM676.7 793.269c-10.031 1.492-21.27 6.507-33.467 14.925A201.384 201.384 0 00616.318 831H614a205.471 205.471 0 0128.477-24.358c12.398-8.542 23.839-13.672 34.071-15.164A44.625 44.625 0 01682.8 791a33.691 33.691 0 0119.2 5.731v2.09c-7.308-5.075-15.725-6.985-25.3-5.552zM373.251 258c-9.146 0-14.495 2.612-15.9 7.764a13.458 13.458 0 00.563 7.807 34.727 34.727 0 004.686 8.829 71.573 71.573 0 0016.8 16.453 26.57 26.57 0 008.714 3.859A46.494 46.494 0 00399.541 304c8.082 0 17.859-1.571 29.059-4.669a231.894 231.894 0 0031.8-11.587c6.721-1.487 11.269-2.994 13.905-4.607 2.5-1.53 2.734-2.876 2.693-3.755a3.537 3.537 0 00-1.155-2.4 14.866 14.866 0 00-4.707-2.832c-5.455-2.322-14.756-4.635-28.436-7.07-18.03-3.217-39.082-5.85-57.4-8.065l-4.049-.478a66.33 66.33 0 00-8-.537zm26.349 44.138c-8.216 0-14.743-1.648-19.4-4.9a71.16 71.16 0 01-16.349-15.945 33.609 33.609 0 01-4.494-8.4 11.6 11.6 0 01-.557-6.651 7.614 7.614 0 014.576-4.859 24.74 24.74 0 019.907-1.643 64.491 64.491 0 017.818.53l4.05.478 3.655.454.049.006c16.162 2.007 36.275 4.5 53.593 7.6 12.828 2.3 22.113 4.578 27.6 6.771a17.1 17.1 0 014.392 2.341 2.3 2.3 0 011.008 1.518c0 .73-1.11 3.358-15.4 6.511l-.15.059-.135.061a228.558 228.558 0 01-31.463 11.47 142.256 142.256 0 01-14.07 3.218 87.118 87.118 0 01-14.63 1.381zM419.625 664a64.514 64.514 0 00-19.024 3.219 20.7 20.7 0 00-7.022 3.433 6.474 6.474 0 00-2.558 4.53c-.2 2.325 1.06 4.893 3.737 7.632s6.8 5.693 12.3 8.818a18 18 0 008.83 2.368 18.259 18.259 0 0013.073-5.705 36.051 36.051 0 006.431-8.423c1.769-3.45 2.078-6.506.919-9.081-1.927-4.316-8.01-6.791-16.686-6.791zm-3.774 28.217a16.333 16.333 0 01-8.144-2.166c-10.096-5.745-15.493-10.964-15.196-14.694.199-2.517 3.135-4.744 8.49-6.439a62.579 62.579 0 0118.6-3.1 29.891 29.891 0 019.986 1.474c2.766 1.01 4.593 2.465 5.431 4.322.817 1.868.635 4.123-.541 6.7a31.778 31.778 0 01-6.462 8.635 17.3 17.3 0 01-12.164 5.268zM549.15 18.422c-26.127 3.922-41.472 30.188-60.829 63.467-5.416 9.27-11.033 18.9-17.351 28.881-15.847 25.018-33.6 40.053-52.705 44.688-21.714 5.229-45.584-2.852-70.909-24.008-27.833-23.236-68.102-60.615-102.656-95.319C235.024 26.385 222.387 13.43 210 0h2.207c9.829 10.578 21.012 22.225 33.449 34.764 34.5 34.645 74.72 72.024 102.5 95.2 47.189 39.4 88.11 32.565 121.558-20.324 6.268-9.924 11.885-19.551 17.3-28.821 19.608-33.635 35.1-60.139 61.883-64.18C567.905 13.787 578.788 8.2 581.4 0h1.6c-2.457 9.211-13.841 15.391-33.85 18.422z"/><path d="M405.6 87.685c-9.45 4.944-19.15 4.349-28.85-1.727a327.372 327.372 0 01-64.8-52.838A275.373 275.373 0 01285 0h2c14.8 21.266 43.4 55.042 90.4 84.409 9.3 5.778 18.55 6.374 27.55 1.668 18.15-9.472 32.35-38.66 41.05-61.535 3.35-8.7 6.15-17.215 8.4-24.542h1.6c-2.3 7.506-5.15 16.262-8.6 25.257-12.8 33.657-26.9 54.684-41.8 62.428zM179.078 201a7.739 7.739 0 00-4.919 1.839 11.3 11.3 0 00-3.173 4.33c-1.776 4.285-1.442 10.456 3.489 13.879a17.134 17.134 0 009.838 2.952 19.9 19.9 0 006.81-1.2 13.591 13.591 0 004.948-3c1.734-1.735 2.327-3.736 1.669-5.635-1.319-4.044-6.356-8.175-14.97-12.275a8.827 8.827 0 00-3.692-.89zm5.159 21.174a15.959 15.959 0 01-9.053-2.674c-2.999-2.054-5.054-6.41-2.881-11.5a9.563 9.563 0 012.667-3.652 6.46 6.46 0 014.114-1.548 7.081 7.081 0 013.079.75c8.1 3.857 12.993 7.754 14.162 11.269a3.438 3.438 0 01-1.315 3.618 12.123 12.123 0 01-4.514 2.669 18.842 18.842 0 01-6.259 1.068zM216.743 38c-.1 0-.2 0-.293.006a8.727 8.727 0 00-5.635 2.153 13.347 13.347 0 00-3.65 5.134 15.561 15.561 0 00-.924 8.574 12.053 12.053 0 004.917 7.806 33.778 33.778 0 0011.7 4.742A63.442 63.442 0 00236.761 68a39.23 39.23 0 008.144-.753 10.088 10.088 0 005.043-2.262 3.26 3.26 0 00.849-3.553c-1.95-5.973-23.093-18.984-30.054-22.402a9.292 9.292 0 00-4-1.03zm20.42 28.145a65.167 65.167 0 01-13.791-1.529c-4.893-1.093-8.857-2.653-11.468-4.509a10.348 10.348 0 01-4.225-6.654 13.2 13.2 0 01.83-7.377 11.609 11.609 0 013.133-4.418 7.439 7.439 0 014.829-1.875 8.171 8.171 0 013.674.934 153.843 153.843 0 0117.335 10.575c6.968 4.884 11.183 8.72 11.869 10.8a1.3 1.3 0 01-.4 1.506c-1.579 1.619-5.875 2.547-11.786 2.547zM40.59 790.028c8.078 6.62 5.435 27.672 2.742 40.972h-1.546c.7-3.34 1.346-7.216 1.895-11.272 1.3-10.318 1.7-23.617-3.889-28.269-6.582-5.367-19.946 1.67-39.792 20.934v-2.267C15.308 795.4 26.927 788 34.706 788a9.162 9.162 0 015.884 2.028zM337.883 397c-11.069 0-17.545 1.838-21.028 3.38-3.643 1.575-6.051 3.668-7.159 6.22a9.339 9.339 0 00-.221 6.483 13.7 13.7 0 007.129 8.977 21.323 21.323 0 009.543 1.94c5.584 0 12.475-1.437 20.481-4.271a144.4 144.4 0 0018.3-8.1 8.678 8.678 0 003.722-3.5 3.539 3.539 0 00.12-2.8 6.5 6.5 0 00-2.751-2.942 22.893 22.893 0 00-5.121-2.281 67.364 67.364 0 00-13.562-2.64 95.637 95.637 0 00-9.453-.466zm-11.879 25.176a19.36 19.36 0 01-8.846-1.748 11.933 11.933 0 01-6.318-7.928c-1.27-4.506.941-8.055 6.571-10.546a37.311 37.311 0 019-2.431 74.372 74.372 0 0111.493-.833c3.053 0 6.175.157 9.277.467 10.769 1.106 19.062 3.91 20.172 6.818.554 1.51-1.4 3.02-3.134 4.021a134.669 134.669 0 01-13.383 6.2 104.677 104.677 0 01-12.279 4.118 50.7 50.7 0 01-12.553 1.862z"/></g></svg>