<svg xmlns="http://www.w3.org/2000/svg" width="1726.101" height="121.9"><g fill="#66c4c5"><path d="M46.3 67.6h-8.2a4.828 4.828 0 01-3.213-1.176A4 4 0 0133.5 63.4v-9.7a1 1 0 012 0v9.7a2.4 2.4 0 002.6 2.2h8.2a1 1 0 010 2z"/><path d="M91.2 67.6H45a1 1 0 01-1-1 1 1 0 011-1h46.2a1 1 0 011 1 1 1 0 01-1 1zm-56.8-8.1a1 1 0 01-1-1v-50a1 1 0 011-1 1 1 0 011 1v50a1 1 0 01-1 1z"/><path d="M34.4 0a4.663 4.663 0 014.5 4.8 4.663 4.663 0 01-4.5 4.8 4.663 4.663 0 01-4.5-4.8A4.663 4.663 0 0134.4 0zm0 7.6a2.666 2.666 0 002.5-2.8A2.666 2.666 0 0034.4 2a2.666 2.666 0 00-2.5 2.8 2.666 2.666 0 002.5 2.8zm61 54.4a4.663 4.663 0 014.5 4.8 4.663 4.663 0 01-4.5 4.8 4.663 4.663 0 01-4.5-4.8 4.663 4.663 0 014.5-4.8zm0 7.6a2.666 2.666 0 002.5-2.8 2.666 2.666 0 00-2.5-2.8 2.666 2.666 0 00-2.5 2.8 2.666 2.666 0 002.5 2.8zm19.2-28.4a1 1 0 01-1-1v-9.7a2.4 2.4 0 00-2.6-2.2h-8.2a1 1 0 010-2h8.2a4.828 4.828 0 013.213 1.176A4 4 0 01115.6 30.5v9.7a1 1 0 01-1 1z"/><path d="M8.1 28.5a1 1 0 01-1-1 1 1 0 011-1l96-.2a1 1 0 011 1 1 1 0 01-1 1l-96 .2zm106.7 57.8a1 1 0 01-1-1l-.1-50a1 1 0 011-1 1 1 0 011 1l.1 50a1 1 0 01-1 1z"/><path d="M114.9 84.3a4.663 4.663 0 014.5 4.8 4.663 4.663 0 01-4.5 4.8 4.663 4.663 0 01-4.5-4.8 4.663 4.663 0 014.5-4.8zm0 7.6a2.666 2.666 0 002.5-2.8 2.666 2.666 0 00-2.5-2.8 2.666 2.666 0 00-2.5 2.8 2.666 2.666 0 002.5 2.8zM4.5 22.5A4.663 4.663 0 019 27.3a4.663 4.663 0 01-4.5 4.8A4.663 4.663 0 010 27.3a4.663 4.663 0 014.5-4.8zm0 7.6A2.666 2.666 0 007 27.3a2.666 2.666 0 00-2.5-2.8A2.666 2.666 0 002 27.3a2.666 2.666 0 002.5 2.8zm134.1 26.1a1 1 0 01-1-1v-9.7a4 4 0 011.387-3.024A4.828 4.828 0 01142.2 41.3h8.2a1 1 0 010 2h-8.2a2.4 2.4 0 00-2.6 2.2v9.7a1 1 0 01-1 1z"/><path d="M245.1 43.5l-95.9-.2a1 1 0 01-1-1 1 1 0 011-1l95.9.2a1 1 0 010 2zm-106.7 57.8a1 1 0 01-1-1l.2-50a1 1 0 011-1 1 1 0 011 1l-.2 50a1 1 0 01-1 1z"/><path d="M138.4 99.3a4.663 4.663 0 014.5 4.8 4.663 4.663 0 01-4.5 4.8 4.663 4.663 0 01-4.5-4.8 4.663 4.663 0 014.5-4.8zm0 7.6a2.666 2.666 0 002.5-2.8 2.666 2.666 0 00-2.5-2.8 2.666 2.666 0 00-2.5 2.8 2.666 2.666 0 002.5 2.8zm110.3-69.4a4.663 4.663 0 014.5 4.8 4.663 4.663 0 01-4.5 4.8 4.663 4.663 0 01-4.5-4.8 4.663 4.663 0 014.5-4.8zm0 7.6a2.666 2.666 0 002.5-2.8 2.666 2.666 0 00-2.5-2.8 2.666 2.666 0 00-2.5 2.8 2.666 2.666 0 002.5 2.8zM194 78.6h-8.2a4.828 4.828 0 01-3.213-1.176A4 4 0 01181.2 74.4v-9.7a1 1 0 112 0v9.7a2.4 2.4 0 002.6 2.2h8.2a1 1 0 010 2z"/><path d="M192.8 78.6a1 1 0 01-1-1 1 1 0 011-1l156-.1a1 1 0 011 1 1 1 0 01-1 1l-156 .1zm-10.7-8.1a1 1 0 01-1-1v-50a1 1 0 011-1 1 1 0 011 1v50a1 1 0 01-1 1z"/><path d="M182.1 11a4.663 4.663 0 014.5 4.8 4.663 4.663 0 01-4.5 4.8 4.663 4.663 0 01-4.5-4.8 4.663 4.663 0 014.5-4.8zm0 7.6a2.666 2.666 0 002.5-2.8 2.666 2.666 0 00-2.5-2.8 2.666 2.666 0 00-2.5 2.8 2.666 2.666 0 002.5 2.8zM352.4 73a4.663 4.663 0 014.5 4.8 4.663 4.663 0 01-4.5 4.8 4.663 4.663 0 01-4.5-4.8 4.663 4.663 0 014.5-4.8zm0 7.6a2.666 2.666 0 002.5-2.8 2.666 2.666 0 00-2.5-2.8 2.666 2.666 0 00-2.5 2.8 2.666 2.666 0 002.5 2.8zm254.5-3h-8.2a1 1 0 010-2h8.2a2.4 2.4 0 002.6-2.2v-9.7a1 1 0 012 0v9.7a4 4 0 01-1.387 3.024A4.828 4.828 0 01606.9 77.6z"/><path d="M599.9 77.6h-46.1a1 1 0 01-1-1 1 1 0 011-1h46.1a1 1 0 011 1 1 1 0 01-1 1zm10.6-8.1a1 1 0 01-1-1v-50a1 1 0 011-1 1 1 0 011 1v50a1 1 0 01-1 1z"/><path d="M610.5 10a4.663 4.663 0 014.5 4.8 4.663 4.663 0 01-4.5 4.8 4.663 4.663 0 01-4.5-4.8 4.663 4.663 0 014.5-4.8zm0 7.6a2.666 2.666 0 002.5-2.8 2.666 2.666 0 00-2.5-2.8 2.666 2.666 0 00-2.5 2.8 2.666 2.666 0 002.5 2.8zM549.6 72a4.663 4.663 0 014.5 4.8 4.663 4.663 0 01-4.5 4.8 4.663 4.663 0 01-4.5-4.8 4.663 4.663 0 014.5-4.8zm0 7.6a2.666 2.666 0 002.5-2.8 2.666 2.666 0 00-2.5-2.8 2.666 2.666 0 00-2.5 2.8 2.666 2.666 0 002.5 2.8zm-43.3-13.4a1 1 0 01-1-1v-9.7a2.4 2.4 0 00-2.6-2.2h-8.2a1 1 0 010-2h8.2a4.828 4.828 0 013.213 1.176A4 4 0 01507.3 55.5v9.7a1 1 0 01-1 1z"/><path d="M399.8 53.5a1 1 0 01-1-1 1 1 0 011-1l96-.2a1 1 0 011 1 1 1 0 01-1 1l-96 .2zm106.8 57.8a1 1 0 01-1-1l-.2-50a1 1 0 011-1 1 1 0 011 1l.2 50a1 1 0 01-1 1z"/><path d="M506.6 109.3a4.663 4.663 0 014.5 4.8 4.663 4.663 0 01-4.5 4.8 4.663 4.663 0 01-4.5-4.8 4.663 4.663 0 014.5-4.8zm0 7.6a2.666 2.666 0 002.5-2.8 2.666 2.666 0 00-2.5-2.8 2.666 2.666 0 00-2.5 2.8 2.666 2.666 0 002.5 2.8zM396.2 47.5a4.663 4.663 0 014.5 4.8 4.663 4.663 0 01-4.5 4.8 4.663 4.663 0 01-4.5-4.8 4.663 4.663 0 014.5-4.8zm0 7.6a2.666 2.666 0 002.5-2.8 2.666 2.666 0 00-2.5-2.8 2.666 2.666 0 00-2.5 2.8 2.666 2.666 0 002.5 2.8zm63 33.5H451a1 1 0 010-2h8.2a2.4 2.4 0 002.6-2.2v-9.7a1 1 0 012 0v9.7a4 4 0 01-1.387 3.024A4.828 4.828 0 01459.2 88.6z"/><path d="M452.2 88.6l-156-.1a1 1 0 01-1-1 1 1 0 011-1l156 .1a1 1 0 010 2zm10.6-8.1a1 1 0 01-1-1v-50a1 1 0 011-1 1 1 0 011 1v50a1 1 0 01-1 1z"/><path d="M462.8 21a4.663 4.663 0 014.5 4.8 4.663 4.663 0 01-4.5 4.8 4.663 4.663 0 01-4.5-4.8 4.663 4.663 0 014.5-4.8zm0 7.6a2.666 2.666 0 002.5-2.8 2.666 2.666 0 00-2.5-2.8 2.666 2.666 0 00-2.5 2.8 2.666 2.666 0 002.5 2.8zM292.6 83a4.663 4.663 0 014.5 4.8 4.663 4.663 0 01-4.5 4.8 4.663 4.663 0 01-4.5-4.8 4.663 4.663 0 014.5-4.8zm0 7.6a2.666 2.666 0 002.5-2.8 2.666 2.666 0 00-2.5-2.8 2.666 2.666 0 00-2.5 2.8 2.666 2.666 0 002.5 2.8zm404.6-53.4a1 1 0 01-1-1v-9.7a2.4 2.4 0 00-2.6-2.2h-8.2a1 1 0 010-2h8.2a4.828 4.828 0 013.213 1.176A4 4 0 01698.2 26.5v9.7a1 1 0 01-1 1z"/><path d="M590.7 24.5a1 1 0 01-1-1 1 1 0 011-1l95.9-.2a1 1 0 011 1 1 1 0 01-1 1l-95.9.2zm106.7 57.8a1 1 0 01-1-1l-.1-50a1 1 0 011-1 1 1 0 011 1l.1 50a1 1 0 01-1 1z"/><path d="M697.4 80.3a4.663 4.663 0 014.5 4.8 4.663 4.663 0 01-4.5 4.8 4.663 4.663 0 01-4.5-4.8 4.663 4.663 0 014.5-4.8zm0 7.6a2.666 2.666 0 002.5-2.8 2.666 2.666 0 00-2.5-2.8 2.666 2.666 0 00-2.5 2.8 2.666 2.666 0 002.5 2.8zM587.1 18.5a4.663 4.663 0 014.5 4.8 4.663 4.663 0 01-4.5 4.8 4.663 4.663 0 01-4.5-4.8 4.663 4.663 0 014.5-4.8zm0 7.6a2.666 2.666 0 002.5-2.8 2.666 2.666 0 00-2.5-2.8 2.666 2.666 0 00-2.5 2.8 2.666 2.666 0 002.5 2.8zm134.1 26.1a1 1 0 01-1-1v-9.7a4 4 0 011.387-3.024A4.828 4.828 0 01724.8 37.3h8.2a1 1 0 010 2h-8.2a2.4 2.4 0 00-2.6 2.2v9.7a1 1 0 01-1 1z"/><path d="M827.7 39.5l-95.9-.2a1 1 0 01-1-1 1 1 0 011-1l95.9.2a1 1 0 010 2zM721 97.3a1 1 0 01-1-1l.1-50a1 1 0 011-1 1 1 0 011 1l-.1 50a1 1 0 01-1 1z"/><path d="M721 95.3a4.663 4.663 0 014.5 4.8 4.663 4.663 0 01-4.5 4.8 4.663 4.663 0 01-4.5-4.8 4.663 4.663 0 014.5-4.8zm0 7.6a2.666 2.666 0 002.5-2.8 2.666 2.666 0 00-2.5-2.8 2.666 2.666 0 00-2.5 2.8 2.666 2.666 0 002.5 2.8zm110.3-69.4a4.663 4.663 0 014.5 4.8 4.663 4.663 0 01-4.5 4.8 4.663 4.663 0 01-4.5-4.8 4.663 4.663 0 014.5-4.8zm0 7.6a2.666 2.666 0 002.5-2.8 2.666 2.666 0 00-2.5-2.8 2.666 2.666 0 00-2.5 2.8 2.666 2.666 0 002.5 2.8zm-54.7 33.5h-8.2a4.828 4.828 0 01-3.213-1.176A4 4 0 01763.8 70.4v-9.7a1 1 0 012 0v9.7a2.4 2.4 0 002.6 2.2h8.2a1 1 0 010 2z"/><path d="M775.3 74.6a1 1 0 01-1-1 1 1 0 011-1l156.1-.1a1 1 0 011 1 1 1 0 01-1 1l-156.1.1zm-10.6-8.1a1 1 0 01-1-1v-50a1 1 0 011-1 1 1 0 011 1v50a1 1 0 01-1 1z"/><path d="M764.7 7a4.663 4.663 0 014.5 4.8 4.663 4.663 0 01-4.5 4.8 4.663 4.663 0 01-4.5-4.8 4.663 4.663 0 014.5-4.8zm0 7.6a2.666 2.666 0 002.5-2.8 2.666 2.666 0 00-2.5-2.8 2.666 2.666 0 00-2.5 2.8 2.666 2.666 0 002.5 2.8zM935 69a4.663 4.663 0 014.5 4.8 4.663 4.663 0 01-4.5 4.8 4.663 4.663 0 01-4.5-4.8A4.663 4.663 0 01935 69zm0 7.6a2.666 2.666 0 002.5-2.8A2.666 2.666 0 00935 71a2.666 2.666 0 00-2.5 2.8 2.666 2.666 0 002.5 2.8zm254.5-3h-8.2a1 1 0 010-2h8.2a2.4 2.4 0 002.6-2.2v-9.7a1 1 0 012 0v9.7a4 4 0 01-1.387 3.024 4.828 4.828 0 01-3.213 1.176z"/><path d="M1182.5 73.6h-46.2a1 1 0 01-1-1 1 1 0 011-1h46.2a1 1 0 011 1 1 1 0 01-1 1zm10.6-8.1a1 1 0 01-1-1v-50a1 1 0 011-1 1 1 0 011 1v50a1 1 0 01-1 1z"/><path d="M1193.1 6a4.663 4.663 0 014.5 4.8 4.663 4.663 0 01-4.5 4.8 4.663 4.663 0 01-4.5-4.8 4.663 4.663 0 014.5-4.8zm0 7.6a2.666 2.666 0 002.5-2.8 2.666 2.666 0 00-2.5-2.8 2.666 2.666 0 00-2.5 2.8 2.666 2.666 0 002.5 2.8zM1132.2 68a4.663 4.663 0 014.5 4.8 4.663 4.663 0 01-4.5 4.8 4.663 4.663 0 01-4.5-4.8 4.663 4.663 0 014.5-4.8zm0 7.6a2.666 2.666 0 002.5-2.8 2.666 2.666 0 00-2.5-2.8 2.666 2.666 0 00-2.5 2.8 2.666 2.666 0 002.5 2.8zm-19.3-28.4a1 1 0 01-1-1v-9.7a4 4 0 011.387-3.024 4.828 4.828 0 013.213-1.176h8.2a1 1 0 110 2h-8.2a2.4 2.4 0 00-2.6 2.2v9.7a1 1 0 01-1 1z"/><path d="M1219.4 34.5l-95.9-.2a1 1 0 01-1-1 1 1 0 011-1l95.9.2a1 1 0 010 2zm-106.7 57.8a1 1 0 01-1-1l.1-50a1 1 0 011-1 1 1 0 011 1l-.1 50a1 1 0 01-1 1z"/><path d="M1112.7 90.3a4.663 4.663 0 014.5 4.8 4.663 4.663 0 01-4.5 4.8 4.663 4.663 0 01-4.5-4.8 4.663 4.663 0 014.5-4.8zm0 7.6a2.666 2.666 0 002.5-2.8 2.666 2.666 0 00-2.5-2.8 2.666 2.666 0 00-2.5 2.8 2.666 2.666 0 002.5 2.8zM1223 28.5a4.663 4.663 0 014.5 4.8 4.663 4.663 0 01-4.5 4.8 4.663 4.663 0 01-4.5-4.8 4.663 4.663 0 014.5-4.8zm0 7.6a2.666 2.666 0 002.5-2.8 2.666 2.666 0 00-2.5-2.8 2.666 2.666 0 00-2.5 2.8 2.666 2.666 0 002.5 2.8zm-134.1 26.1a1 1 0 01-1-1v-9.7a2.4 2.4 0 00-2.6-2.2h-8.2a1 1 0 010-2h8.2a4.828 4.828 0 013.213 1.176 4 4 0 011.387 3.024v9.7a1 1 0 01-1 1z"/><path d="M982.4 49.5a1 1 0 01-1-1 1 1 0 011-1l95.9-.2a1 1 0 011 1 1 1 0 01-1 1l-95.9.2zm106.7 57.8a1 1 0 01-1-1l-.1-50a1 1 0 011-1 1 1 0 011 1l.1 50a1 1 0 01-1 1z"/><path d="M1089.2 105.3a4.663 4.663 0 014.5 4.8 4.663 4.663 0 01-4.5 4.8 4.663 4.663 0 01-4.5-4.8 4.663 4.663 0 014.5-4.8zm0 7.6a2.666 2.666 0 002.5-2.8 2.666 2.666 0 00-2.5-2.8 2.666 2.666 0 00-2.5 2.8 2.666 2.666 0 002.5 2.8zM978.8 43.5a4.663 4.663 0 014.5 4.8 4.663 4.663 0 01-4.5 4.8 4.663 4.663 0 01-4.5-4.8 4.663 4.663 0 014.5-4.8zm0 7.6a2.666 2.666 0 002.5-2.8 2.666 2.666 0 00-2.5-2.8 2.666 2.666 0 00-2.5 2.8 2.666 2.666 0 002.5 2.8zm62.9 33.5h-8.2a1 1 0 010-2h8.2a2.4 2.4 0 002.6-2.2v-9.7a1 1 0 012 0v9.7a4 4 0 01-1.387 3.024 4.828 4.828 0 01-3.213 1.176z"/><path d="M1034.8 84.6l-156.1-.1a1 1 0 01-1-1 1 1 0 011-1l156.1.1a1 1 0 010 2zm10.6-8.1a1 1 0 01-1-1v-50a1 1 0 011-1 1 1 0 011 1v50a1 1 0 01-1 1z"/><path d="M1045.4 17a4.663 4.663 0 014.5 4.8 4.663 4.663 0 01-4.5 4.8 4.663 4.663 0 01-4.5-4.8 4.663 4.663 0 014.5-4.8zm0 7.6a2.666 2.666 0 002.5-2.8 2.666 2.666 0 00-2.5-2.8 2.666 2.666 0 00-2.5 2.8 2.666 2.666 0 002.5 2.8zM875.1 79a4.663 4.663 0 014.5 4.8 4.663 4.663 0 01-4.5 4.8 4.663 4.663 0 01-4.5-4.8 4.663 4.663 0 014.5-4.8zm0 7.6a2.666 2.666 0 002.5-2.8 2.666 2.666 0 00-2.5-2.8 2.666 2.666 0 00-2.5 2.8 2.666 2.666 0 002.5 2.8zm344.7-27.4a1 1 0 01-1-1v-9.7a4 4 0 011.387-3.024 4.828 4.828 0 013.213-1.176h8.2a1 1 0 010 2h-8.2a2.4 2.4 0 00-2.6 2.2v9.7a1 1 0 01-1 1z"/><path d="M1326.3 46.5l-96-.2a1 1 0 01-1-1 1 1 0 011-1l96 .2a1 1 0 010 2zm-106.8 57.8a1 1 0 01-1-1l.2-50a1 1 0 011-1 1 1 0 011 1l-.2 50a1 1 0 01-1 1z"/><path d="M1219.5 102.3a4.663 4.663 0 014.5 4.8 4.663 4.663 0 01-4.5 4.8 4.663 4.663 0 01-4.5-4.8 4.663 4.663 0 014.5-4.8zm0 7.6a2.666 2.666 0 002.5-2.8 2.666 2.666 0 00-2.5-2.8 2.666 2.666 0 00-2.5 2.8 2.666 2.666 0 002.5 2.8zm110.4-69.4a4.663 4.663 0 014.5 4.8 4.663 4.663 0 01-4.5 4.8 4.663 4.663 0 01-4.5-4.8 4.663 4.663 0 014.5-4.8zm0 7.6a2.666 2.666 0 002.5-2.8 2.666 2.666 0 00-2.5-2.8 2.666 2.666 0 00-2.5 2.8 2.666 2.666 0 002.5 2.8zm-54.8 33.5h-8.2a4.828 4.828 0 01-3.213-1.176 4 4 0 01-1.387-3.024v-9.7a1 1 0 012 0v9.7a2.4 2.4 0 002.6 2.2h8.2a1 1 0 010 2z"/><path d="M1273.9 81.6a1 1 0 01-1-1 1 1 0 011-1l156-.1a1 1 0 011 1 1 1 0 01-1 1l-156 .1zm-10.6-8.1a1 1 0 01-1-1v-50a1 1 0 011-1 1 1 0 011 1v50a1 1 0 01-1 1z"/><path d="M1263.3 14a4.663 4.663 0 014.5 4.8 4.663 4.663 0 01-4.5 4.8 4.663 4.663 0 01-4.5-4.8 4.663 4.663 0 014.5-4.8zm0 7.6a2.666 2.666 0 002.5-2.8 2.666 2.666 0 00-2.5-2.8 2.666 2.666 0 00-2.5 2.8 2.666 2.666 0 002.5 2.8zM1433.5 76a4.663 4.663 0 014.5 4.8 4.663 4.663 0 01-4.5 4.8 4.663 4.663 0 01-4.5-4.8 4.663 4.663 0 014.5-4.8zm0 7.6a2.666 2.666 0 002.5-2.8 2.666 2.666 0 00-2.5-2.8 2.666 2.666 0 00-2.5 2.8 2.666 2.666 0 002.5 2.8zm254.5-3h-8.2a1 1 0 010-2h8.2a2.4 2.4 0 002.6-2.2v-9.7a1 1 0 012 0v9.7a4 4 0 01-1.387 3.024A4.828 4.828 0 011688 80.6z"/><path d="M1681.1 80.6h-46.2a1 1 0 01-1-1 1 1 0 011-1h46.2a1 1 0 011 1 1 1 0 01-1 1zm10.6-8.1a1 1 0 01-1-1v-50a1 1 0 011-1 1 1 0 011 1v50a1 1 0 01-1 1z"/><path d="M1691.7 13a4.663 4.663 0 014.5 4.8 4.663 4.663 0 01-4.5 4.8 4.663 4.663 0 01-4.5-4.8 4.663 4.663 0 014.5-4.8zm0 7.6a2.666 2.666 0 002.5-2.8 2.666 2.666 0 00-2.5-2.8 2.666 2.666 0 00-2.5 2.8 2.666 2.666 0 002.5 2.8zm-61 54.4a4.663 4.663 0 014.5 4.8 4.663 4.663 0 01-4.5 4.8 4.663 4.663 0 01-4.5-4.8 4.663 4.663 0 014.5-4.8zm0 7.6a2.666 2.666 0 002.5-2.8 2.666 2.666 0 00-2.5-2.8 2.666 2.666 0 00-2.5 2.8 2.666 2.666 0 002.5 2.8zm-19.2-28.4a1 1 0 01-1-1v-9.7a4 4 0 011.387-3.024 4.828 4.828 0 013.213-1.176h8.2a1 1 0 010 2h-8.2a2.4 2.4 0 00-2.6 2.2v9.7a1 1 0 01-1 1z"/><path d="M1718 41.5l-96-.2a1 1 0 01-1-1 1 1 0 011-1l96 .2a1 1 0 010 2zm-106.7 57.8a1 1 0 01-1-1l.1-50a1 1 0 011-1 1 1 0 011 1l-.1 50a1 1 0 01-1 1z"/><path d="M1611.2 97.3a4.663 4.663 0 014.5 4.8 4.663 4.663 0 01-4.5 4.8 4.663 4.663 0 01-4.5-4.8 4.663 4.663 0 014.5-4.8zm0 7.6a2.666 2.666 0 002.5-2.8 2.666 2.666 0 00-2.5-2.8 2.666 2.666 0 00-2.5 2.8 2.666 2.666 0 002.5 2.8zm110.4-69.4a4.663 4.663 0 014.5 4.8 4.663 4.663 0 01-4.5 4.8 4.663 4.663 0 01-4.5-4.8 4.663 4.663 0 014.5-4.8zm0 7.6a2.666 2.666 0 002.5-2.8 2.666 2.666 0 00-2.5-2.8 2.666 2.666 0 00-2.5 2.8 2.666 2.666 0 002.5 2.8zm-134.1 26.1a1 1 0 01-1-1v-9.7a2.4 2.4 0 00-2.6-2.2h-8.2a1 1 0 010-2h8.2a4.828 4.828 0 013.213 1.176 4 4 0 011.387 3.024v9.7a1 1 0 01-1 1z"/><path d="M1481 56.5a1 1 0 01-1-1 1 1 0 011-1l95.9-.2a1 1 0 011 1 1 1 0 01-1 1l-95.9.2zm106.7 57.8a1 1 0 01-1-1l-.2-50a1 1 0 011-1 1 1 0 011 1l.2 50a1 1 0 01-1 1z"/><path d="M1587.7 112.3a4.663 4.663 0 014.5 4.8 4.663 4.663 0 01-4.5 4.8 4.663 4.663 0 01-4.5-4.8 4.663 4.663 0 014.5-4.8zm0 7.6a2.666 2.666 0 002.5-2.8 2.666 2.666 0 00-2.5-2.8 2.666 2.666 0 00-2.5 2.8 2.666 2.666 0 002.5 2.8zm-110.3-69.4a4.663 4.663 0 014.5 4.8 4.663 4.663 0 01-4.5 4.8 4.663 4.663 0 01-4.5-4.8 4.663 4.663 0 014.5-4.8zm0 7.6a2.666 2.666 0 002.5-2.8 2.666 2.666 0 00-2.5-2.8 2.666 2.666 0 00-2.5 2.8 2.666 2.666 0 002.5 2.8zm62.9 33.5h-8.2a1 1 0 010-2h8.2a2.4 2.4 0 002.6-2.2v-9.7a1 1 0 012 0v9.7a4 4 0 01-1.387 3.024 4.828 4.828 0 01-3.213 1.176z"/><path d="M1533.3 91.6l-156-.1a1 1 0 01-1-1 1 1 0 011-1l156 .1a1 1 0 010 2zm10.7-8.1a1 1 0 01-1-1v-50a1 1 0 011-1 1 1 0 011 1v50a1 1 0 01-1 1z"/><path d="M1544 24a4.663 4.663 0 014.5 4.8 4.663 4.663 0 01-4.5 4.8 4.663 4.663 0 01-4.5-4.8 4.663 4.663 0 014.5-4.8zm0 7.6a2.666 2.666 0 002.5-2.8 2.666 2.666 0 00-2.5-2.8 2.666 2.666 0 00-2.5 2.8 2.666 2.666 0 002.5 2.8zM1373.7 86a4.663 4.663 0 014.5 4.8 4.663 4.663 0 01-4.5 4.8 4.663 4.663 0 01-4.5-4.8 4.663 4.663 0 014.5-4.8zm0 7.6a2.666 2.666 0 002.5-2.8 2.666 2.666 0 00-2.5-2.8 2.666 2.666 0 00-2.5 2.8 2.666 2.666 0 002.5 2.8z"/></g></svg>