<svg width="50" height="10" fill="none" xmlns="http://www.w3.org/2000/svg"><path fill-rule="evenodd" clip-rule="evenodd" d="M10.592 10l.544-.2.884-.332C16.82 7.674 19.823 7 25 7c5.136 0 7.68.61 12.314 2.464.478.191.935.37 1.375.536h3.113c-1.255-.365-2.57-.846-4.116-1.464C32.944 6.639 30.28 6 25 6c-5.313 0-8.428.699-13.33 2.532l-.883.33C9.549 9.324 8.457 9.7 7.425 10h3.167zm0-10C6.63 1.446 4.038 2 0 2V1C2.872 1 4.976.713 7.425 0h3.167zM38.69 0C42.62 1.483 45.251 2 50 2V1c-3.421 0-5.693-.271-8.198-1h-3.113zM0 7c4.22 0 6.86-.605 11.136-2.2l.884-.332C16.82 2.674 19.823 2 25 2c5.136 0 7.68.61 12.314 2.464C42.056 6.361 44.72 7 50 7V6c-5.136 0-7.68-.61-12.314-2.464C32.944 1.639 30.28 1 25 1c-5.313 0-8.428.699-13.33 2.532l-.883.33C6.612 5.42 4.082 6 0 6v1z" fill="#fff" fill-opacity=".1"/></svg>