<svg xmlns="http://www.w3.org/2000/svg" width="1726.101" height="121.9" viewBox="0 0 1726.101 121.9"><g transform="translate(-69.6 0.5)"><path d="M115.9,67.1h-8.2a4.828,4.828,0,0,1-3.213-1.176A4,4,0,0,1,103.1,62.9V53.2a1,1,0,0,1,2,0v9.7a2.4,2.4,0,0,0,2.6,2.2h8.2a1,1,0,0,1,0,2Z" fill="#66c4c5"/><path d="M46.2,1H0A1,1,0,0,1-1,0,1,1,0,0,1,0-1H46.2a1,1,0,0,1,1,1A1,1,0,0,1,46.2,1Z" transform="translate(114.6 66.1)" fill="#66c4c5"/><path d="M0,51a1,1,0,0,1-1-1V0A1,1,0,0,1,0-1,1,1,0,0,1,1,0V50A1,1,0,0,1,0,51Z" transform="translate(104 8)" fill="#66c4c5"/><path d="M3.5-1A4.663,4.663,0,0,1,8,3.8,4.663,4.663,0,0,1,3.5,8.6,4.663,4.663,0,0,1-1,3.8,4.663,4.663,0,0,1,3.5-1Zm0,7.6A2.666,2.666,0,0,0,6,3.8,2.666,2.666,0,0,0,3.5,1,2.666,2.666,0,0,0,1,3.8,2.666,2.666,0,0,0,3.5,6.6Z" transform="translate(100.5 0.5)" fill="#66c4c5"/><path d="M3.5-1A4.663,4.663,0,0,1,8,3.8,4.663,4.663,0,0,1,3.5,8.6,4.663,4.663,0,0,1-1,3.8,4.663,4.663,0,0,1,3.5-1Zm0,7.6A2.666,2.666,0,0,0,6,3.8,2.666,2.666,0,0,0,3.5,1,2.666,2.666,0,0,0,1,3.8,2.666,2.666,0,0,0,3.5,6.6Z" transform="translate(161.5 62.5)" fill="#66c4c5"/><path d="M184.2,40.7a1,1,0,0,1-1-1V30a2.4,2.4,0,0,0-2.6-2.2h-8.2a1,1,0,0,1,0-2h8.2a4.828,4.828,0,0,1,3.213,1.176A4,4,0,0,1,185.2,30v9.7A1,1,0,0,1,184.2,40.7Z" fill="#66c4c5"/><path d="M0,1.2a1,1,0,0,1-1-1,1,1,0,0,1,1-1L96-1h0a1,1,0,0,1,1,1,1,1,0,0,1-1,1L0,1.2Z" transform="translate(77.7 26.8)" fill="#66c4c5"/><path d="M.1,51a1,1,0,0,1-1-1L-1,0A1,1,0,0,1,0-1,1,1,0,0,1,1,0l.1,50a1,1,0,0,1-1,1Z" transform="translate(184.3 34.8)" fill="#66c4c5"/><path d="M3.5-1A4.663,4.663,0,0,1,8,3.8,4.663,4.663,0,0,1,3.5,8.6,4.663,4.663,0,0,1-1,3.8,4.663,4.663,0,0,1,3.5-1Zm0,7.6A2.666,2.666,0,0,0,6,3.8,2.666,2.666,0,0,0,3.5,1,2.666,2.666,0,0,0,1,3.8,2.666,2.666,0,0,0,3.5,6.6Z" transform="translate(181 84.8)" fill="#66c4c5"/><path d="M3.5-1A4.663,4.663,0,0,1,8,3.8,4.663,4.663,0,0,1,3.5,8.6,4.663,4.663,0,0,1-1,3.8,4.663,4.663,0,0,1,3.5-1Zm0,7.6A2.666,2.666,0,0,0,6,3.8,2.666,2.666,0,0,0,3.5,1,2.666,2.666,0,0,0,1,3.8,2.666,2.666,0,0,0,3.5,6.6Z" transform="translate(70.6 23)" fill="#66c4c5"/><path d="M208.2,55.7a1,1,0,0,1-1-1V45a4,4,0,0,1,1.387-3.024A4.828,4.828,0,0,1,211.8,40.8H220a1,1,0,0,1,0,2h-8.2a2.4,2.4,0,0,0-2.6,2.2v9.7A1,1,0,0,1,208.2,55.7Z" fill="#66c4c5"/><path d="M95.9,1.2h0L0,1A1,1,0,0,1-1,0,1,1,0,0,1,0-1l95.9.2a1,1,0,0,1,0,2Z" transform="translate(218.8 41.8)" fill="#66c4c5"/><path d="M0,51H0a1,1,0,0,1-1-1L-.8,0a1,1,0,0,1,1-1,1,1,0,0,1,1,1L1,50A1,1,0,0,1,0,51Z" transform="translate(208 49.8)" fill="#66c4c5"/><path d="M3.5-1A4.663,4.663,0,0,1,8,3.8,4.663,4.663,0,0,1,3.5,8.6,4.663,4.663,0,0,1-1,3.8,4.663,4.663,0,0,1,3.5-1Zm0,7.6A2.666,2.666,0,0,0,6,3.8,2.666,2.666,0,0,0,3.5,1,2.666,2.666,0,0,0,1,3.8,2.666,2.666,0,0,0,3.5,6.6Z" transform="translate(204.5 99.8)" fill="#66c4c5"/><path d="M3.5-1A4.663,4.663,0,0,1,8,3.8,4.663,4.663,0,0,1,3.5,8.6,4.663,4.663,0,0,1-1,3.8,4.663,4.663,0,0,1,3.5-1Zm0,7.6A2.666,2.666,0,0,0,6,3.8,2.666,2.666,0,0,0,3.5,1,2.666,2.666,0,0,0,1,3.8,2.666,2.666,0,0,0,3.5,6.6Z" transform="translate(314.8 38)" fill="#66c4c5"/><path d="M263.6,78.1h-8.2a4.828,4.828,0,0,1-3.213-1.176A4,4,0,0,1,250.8,73.9V64.2a1,1,0,1,1,2,0v9.7a2.4,2.4,0,0,0,2.6,2.2h8.2a1,1,0,0,1,0,2Z" fill="#66c4c5"/><path d="M0,1.1a1,1,0,0,1-1-1,1,1,0,0,1,1-1L156-1h0a1,1,0,0,1,1,1,1,1,0,0,1-1,1L0,1.1Z" transform="translate(262.4 77)" fill="#66c4c5"/><path d="M0,51a1,1,0,0,1-1-1V0A1,1,0,0,1,0-1,1,1,0,0,1,1,0V50A1,1,0,0,1,0,51Z" transform="translate(251.7 19)" fill="#66c4c5"/><path d="M3.5-1A4.663,4.663,0,0,1,8,3.8,4.663,4.663,0,0,1,3.5,8.6,4.663,4.663,0,0,1-1,3.8,4.663,4.663,0,0,1,3.5-1Zm0,7.6A2.666,2.666,0,0,0,6,3.8,2.666,2.666,0,0,0,3.5,1,2.666,2.666,0,0,0,1,3.8,2.666,2.666,0,0,0,3.5,6.6Z" transform="translate(248.2 11.5)" fill="#66c4c5"/><path d="M3.5-1A4.663,4.663,0,0,1,8,3.8,4.663,4.663,0,0,1,3.5,8.6,4.663,4.663,0,0,1-1,3.8,4.663,4.663,0,0,1,3.5-1Zm0,7.6A2.666,2.666,0,0,0,6,3.8,2.666,2.666,0,0,0,3.5,1,2.666,2.666,0,0,0,1,3.8,2.666,2.666,0,0,0,3.5,6.6Z" transform="translate(418.5 73.5)" fill="#66c4c5"/><path d="M676.5,77.1h-8.2a1,1,0,0,1,0-2h8.2a2.4,2.4,0,0,0,2.6-2.2V63.2a1,1,0,0,1,2,0v9.7a4,4,0,0,1-1.387,3.024A4.828,4.828,0,0,1,676.5,77.1Z" fill="#66c4c5"/><path d="M46.1,1H0A1,1,0,0,1-1,0,1,1,0,0,1,0-1H46.1a1,1,0,0,1,1,1A1,1,0,0,1,46.1,1Z" transform="translate(623.4 76.1)" fill="#66c4c5"/><path d="M0,51a1,1,0,0,1-1-1V0A1,1,0,0,1,0-1,1,1,0,0,1,1,0V50A1,1,0,0,1,0,51Z" transform="translate(680.1 18)" fill="#66c4c5"/><path d="M3.5-1A4.663,4.663,0,0,1,8,3.8,4.663,4.663,0,0,1,3.5,8.6,4.663,4.663,0,0,1-1,3.8,4.663,4.663,0,0,1,3.5-1Zm0,7.6A2.666,2.666,0,0,0,6,3.8,2.666,2.666,0,0,0,3.5,1,2.666,2.666,0,0,0,1,3.8,2.666,2.666,0,0,0,3.5,6.6Z" transform="translate(676.6 10.5)" fill="#66c4c5"/><path d="M3.5-1A4.663,4.663,0,0,1,8,3.8,4.663,4.663,0,0,1,3.5,8.6,4.663,4.663,0,0,1-1,3.8,4.663,4.663,0,0,1,3.5-1Zm0,7.6A2.666,2.666,0,0,0,6,3.8,2.666,2.666,0,0,0,3.5,1,2.666,2.666,0,0,0,1,3.8,2.666,2.666,0,0,0,3.5,6.6Z" transform="translate(615.7 72.5)" fill="#66c4c5"/><path d="M575.9,65.7a1,1,0,0,1-1-1V55a2.4,2.4,0,0,0-2.6-2.2h-8.2a1,1,0,0,1,0-2h8.2a4.828,4.828,0,0,1,3.213,1.176A4,4,0,0,1,576.9,55v9.7A1,1,0,0,1,575.9,65.7Z" fill="#66c4c5"/><path d="M0,1.2a1,1,0,0,1-1-1,1,1,0,0,1,1-1L96-1h0a1,1,0,0,1,1,1,1,1,0,0,1-1,1L0,1.2Z" transform="translate(469.4 51.8)" fill="#66c4c5"/><path d="M.2,51a1,1,0,0,1-1-1L-1,0A1,1,0,0,1,0-1,1,1,0,0,1,1,0l.2,50a1,1,0,0,1-1,1Z" transform="translate(576 59.8)" fill="#66c4c5"/><path d="M3.5-1A4.663,4.663,0,0,1,8,3.8,4.663,4.663,0,0,1,3.5,8.6,4.663,4.663,0,0,1-1,3.8,4.663,4.663,0,0,1,3.5-1Zm0,7.6A2.666,2.666,0,0,0,6,3.8,2.666,2.666,0,0,0,3.5,1,2.666,2.666,0,0,0,1,3.8,2.666,2.666,0,0,0,3.5,6.6Z" transform="translate(572.7 109.8)" fill="#66c4c5"/><path d="M3.5-1A4.663,4.663,0,0,1,8,3.8,4.663,4.663,0,0,1,3.5,8.6,4.663,4.663,0,0,1-1,3.8,4.663,4.663,0,0,1,3.5-1Zm0,7.6A2.666,2.666,0,0,0,6,3.8,2.666,2.666,0,0,0,3.5,1,2.666,2.666,0,0,0,1,3.8,2.666,2.666,0,0,0,3.5,6.6Z" transform="translate(462.3 48)" fill="#66c4c5"/><path d="M528.8,88.1h-8.2a1,1,0,0,1,0-2h8.2a2.4,2.4,0,0,0,2.6-2.2V74.2a1,1,0,0,1,2,0v9.7a4,4,0,0,1-1.387,3.024A4.828,4.828,0,0,1,528.8,88.1Z" fill="#66c4c5"/><path d="M156,1.1h0L0,1A1,1,0,0,1-1,0,1,1,0,0,1,0-1L156-.9a1,1,0,0,1,0,2Z" transform="translate(365.8 87)" fill="#66c4c5"/><path d="M0,51a1,1,0,0,1-1-1V0A1,1,0,0,1,0-1,1,1,0,0,1,1,0V50A1,1,0,0,1,0,51Z" transform="translate(532.4 29)" fill="#66c4c5"/><path d="M3.5-1A4.663,4.663,0,0,1,8,3.8,4.663,4.663,0,0,1,3.5,8.6,4.663,4.663,0,0,1-1,3.8,4.663,4.663,0,0,1,3.5-1Zm0,7.6A2.666,2.666,0,0,0,6,3.8,2.666,2.666,0,0,0,3.5,1,2.666,2.666,0,0,0,1,3.8,2.666,2.666,0,0,0,3.5,6.6Z" transform="translate(528.9 21.5)" fill="#66c4c5"/><path d="M3.5-1A4.663,4.663,0,0,1,8,3.8,4.663,4.663,0,0,1,3.5,8.6,4.663,4.663,0,0,1-1,3.8,4.663,4.663,0,0,1,3.5-1Zm0,7.6A2.666,2.666,0,0,0,6,3.8,2.666,2.666,0,0,0,3.5,1,2.666,2.666,0,0,0,1,3.8,2.666,2.666,0,0,0,3.5,6.6Z" transform="translate(358.7 83.5)" fill="#66c4c5"/><path d="M766.8,36.7a1,1,0,0,1-1-1V26a2.4,2.4,0,0,0-2.6-2.2H755a1,1,0,0,1,0-2h8.2a4.828,4.828,0,0,1,3.213,1.176A4,4,0,0,1,767.8,26v9.7A1,1,0,0,1,766.8,36.7Z" fill="#66c4c5"/><path d="M0,1.2a1,1,0,0,1-1-1,1,1,0,0,1,1-1L95.9-1h0a1,1,0,0,1,1,1,1,1,0,0,1-1,1L0,1.2Z" transform="translate(660.3 22.8)" fill="#66c4c5"/><path d="M.1,51a1,1,0,0,1-1-1L-1,0A1,1,0,0,1,0-1,1,1,0,0,1,1,0l.1,50a1,1,0,0,1-1,1Z" transform="translate(766.9 30.8)" fill="#66c4c5"/><path d="M3.5-1A4.663,4.663,0,0,1,8,3.8,4.663,4.663,0,0,1,3.5,8.6,4.663,4.663,0,0,1-1,3.8,4.663,4.663,0,0,1,3.5-1Zm0,7.6A2.666,2.666,0,0,0,6,3.8,2.666,2.666,0,0,0,3.5,1,2.666,2.666,0,0,0,1,3.8,2.666,2.666,0,0,0,3.5,6.6Z" transform="translate(763.5 80.8)" fill="#66c4c5"/><path d="M3.5-1A4.663,4.663,0,0,1,8,3.8,4.663,4.663,0,0,1,3.5,8.6,4.663,4.663,0,0,1-1,3.8,4.663,4.663,0,0,1,3.5-1Zm0,7.6A2.666,2.666,0,0,0,6,3.8,2.666,2.666,0,0,0,3.5,1,2.666,2.666,0,0,0,1,3.8,2.666,2.666,0,0,0,3.5,6.6Z" transform="translate(653.2 19)" fill="#66c4c5"/><path d="M790.8,51.7a1,1,0,0,1-1-1V41a4,4,0,0,1,1.387-3.024A4.828,4.828,0,0,1,794.4,36.8h8.2a1,1,0,0,1,0,2h-8.2a2.4,2.4,0,0,0-2.6,2.2v9.7A1,1,0,0,1,790.8,51.7Z" fill="#66c4c5"/><path d="M95.9,1.2h0L0,1A1,1,0,0,1-1,0,1,1,0,0,1,0-1l95.9.2a1,1,0,0,1,0,2Z" transform="translate(801.4 37.8)" fill="#66c4c5"/><path d="M0,51H0a1,1,0,0,1-1-1L-.9,0a1,1,0,0,1,1-1,1,1,0,0,1,1,1L1,50A1,1,0,0,1,0,51Z" transform="translate(790.6 45.8)" fill="#66c4c5"/><path d="M3.5-1A4.663,4.663,0,0,1,8,3.8,4.663,4.663,0,0,1,3.5,8.6,4.663,4.663,0,0,1-1,3.8,4.663,4.663,0,0,1,3.5-1Zm0,7.6A2.666,2.666,0,0,0,6,3.8,2.666,2.666,0,0,0,3.5,1,2.666,2.666,0,0,0,1,3.8,2.666,2.666,0,0,0,3.5,6.6Z" transform="translate(787.1 95.8)" fill="#66c4c5"/><path d="M3.5-1A4.663,4.663,0,0,1,8,3.8,4.663,4.663,0,0,1,3.5,8.6,4.663,4.663,0,0,1-1,3.8,4.663,4.663,0,0,1,3.5-1Zm0,7.6A2.666,2.666,0,0,0,6,3.8,2.666,2.666,0,0,0,3.5,1,2.666,2.666,0,0,0,1,3.8,2.666,2.666,0,0,0,3.5,6.6Z" transform="translate(897.4 34)" fill="#66c4c5"/><path d="M846.2,74.1H838a4.828,4.828,0,0,1-3.213-1.176A4,4,0,0,1,833.4,69.9V60.2a1,1,0,0,1,2,0v9.7a2.4,2.4,0,0,0,2.6,2.2h8.2a1,1,0,0,1,0,2Z" fill="#66c4c5"/><path d="M0,1.1a1,1,0,0,1-1-1,1,1,0,0,1,1-1L156.1-1h0a1,1,0,0,1,1,1,1,1,0,0,1-1,1L0,1.1Z" transform="translate(844.9 73)" fill="#66c4c5"/><path d="M0,51a1,1,0,0,1-1-1V0A1,1,0,0,1,0-1,1,1,0,0,1,1,0V50A1,1,0,0,1,0,51Z" transform="translate(834.3 15)" fill="#66c4c5"/><path d="M3.5-1A4.663,4.663,0,0,1,8,3.8,4.663,4.663,0,0,1,3.5,8.6,4.663,4.663,0,0,1-1,3.8,4.663,4.663,0,0,1,3.5-1Zm0,7.6A2.666,2.666,0,0,0,6,3.8,2.666,2.666,0,0,0,3.5,1,2.666,2.666,0,0,0,1,3.8,2.666,2.666,0,0,0,3.5,6.6Z" transform="translate(830.8 7.5)" fill="#66c4c5"/><path d="M3.5-1A4.663,4.663,0,0,1,8,3.8,4.663,4.663,0,0,1,3.5,8.6,4.663,4.663,0,0,1-1,3.8,4.663,4.663,0,0,1,3.5-1Zm0,7.6A2.666,2.666,0,0,0,6,3.8,2.666,2.666,0,0,0,3.5,1,2.666,2.666,0,0,0,1,3.8,2.666,2.666,0,0,0,3.5,6.6Z" transform="translate(1001.1 69.5)" fill="#66c4c5"/><path d="M1259.1,73.1h-8.2a1,1,0,0,1,0-2h8.2a2.4,2.4,0,0,0,2.6-2.2V59.2a1,1,0,0,1,2,0v9.7a4,4,0,0,1-1.387,3.024A4.828,4.828,0,0,1,1259.1,73.1Z" fill="#66c4c5"/><path d="M46.2,1H0A1,1,0,0,1-1,0,1,1,0,0,1,0-1H46.2a1,1,0,0,1,1,1A1,1,0,0,1,46.2,1Z" transform="translate(1205.9 72.1)" fill="#66c4c5"/><path d="M0,51a1,1,0,0,1-1-1V0A1,1,0,0,1,0-1,1,1,0,0,1,1,0V50A1,1,0,0,1,0,51Z" transform="translate(1262.7 14)" fill="#66c4c5"/><path d="M3.5-1A4.663,4.663,0,0,1,8,3.8,4.663,4.663,0,0,1,3.5,8.6,4.663,4.663,0,0,1-1,3.8,4.663,4.663,0,0,1,3.5-1Zm0,7.6A2.666,2.666,0,0,0,6,3.8,2.666,2.666,0,0,0,3.5,1,2.666,2.666,0,0,0,1,3.8,2.666,2.666,0,0,0,3.5,6.6Z" transform="translate(1259.2 6.5)" fill="#66c4c5"/><path d="M3.5-1A4.663,4.663,0,0,1,8,3.8,4.663,4.663,0,0,1,3.5,8.6,4.663,4.663,0,0,1-1,3.8,4.663,4.663,0,0,1,3.5-1Zm0,7.6A2.666,2.666,0,0,0,6,3.8,2.666,2.666,0,0,0,3.5,1,2.666,2.666,0,0,0,1,3.8,2.666,2.666,0,0,0,3.5,6.6Z" transform="translate(1198.3 68.5)" fill="#66c4c5"/><path d="M1182.5,46.7a1,1,0,0,1-1-1V36a4,4,0,0,1,1.387-3.024A4.828,4.828,0,0,1,1186.1,31.8h8.2a1,1,0,1,1,0,2h-8.2a2.4,2.4,0,0,0-2.6,2.2v9.7A1,1,0,0,1,1182.5,46.7Z" fill="#66c4c5"/><path d="M95.9,1.2h0L0,1A1,1,0,0,1-1,0,1,1,0,0,1,0-1l95.9.2a1,1,0,0,1,0,2Z" transform="translate(1193.1 32.8)" fill="#66c4c5"/><path d="M0,51H0a1,1,0,0,1-1-1L-.9,0a1,1,0,0,1,1-1,1,1,0,0,1,1,1L1,50A1,1,0,0,1,0,51Z" transform="translate(1182.3 40.8)" fill="#66c4c5"/><path d="M3.5-1A4.663,4.663,0,0,1,8,3.8,4.663,4.663,0,0,1,3.5,8.6,4.663,4.663,0,0,1-1,3.8,4.663,4.663,0,0,1,3.5-1Zm0,7.6A2.666,2.666,0,0,0,6,3.8,2.666,2.666,0,0,0,3.5,1,2.666,2.666,0,0,0,1,3.8,2.666,2.666,0,0,0,3.5,6.6Z" transform="translate(1178.8 90.8)" fill="#66c4c5"/><path d="M3.5-1A4.663,4.663,0,0,1,8,3.8,4.663,4.663,0,0,1,3.5,8.6,4.663,4.663,0,0,1-1,3.8,4.663,4.663,0,0,1,3.5-1Zm0,7.6A2.666,2.666,0,0,0,6,3.8,2.666,2.666,0,0,0,3.5,1,2.666,2.666,0,0,0,1,3.8,2.666,2.666,0,0,0,3.5,6.6Z" transform="translate(1289.1 29)" fill="#66c4c5"/><path d="M1158.5,61.7a1,1,0,0,1-1-1V51a2.4,2.4,0,0,0-2.6-2.2h-8.2a1,1,0,0,1,0-2h8.2a4.828,4.828,0,0,1,3.213,1.176A4,4,0,0,1,1159.5,51v9.7A1,1,0,0,1,1158.5,61.7Z" fill="#66c4c5"/><path d="M0,1.2a1,1,0,0,1-1-1,1,1,0,0,1,1-1L95.9-1h0a1,1,0,0,1,1,1,1,1,0,0,1-1,1L0,1.2Z" transform="translate(1052 47.8)" fill="#66c4c5"/><path d="M.1,51a1,1,0,0,1-1-1L-1,0A1,1,0,0,1,0-1,1,1,0,0,1,1,0l.1,50a1,1,0,0,1-1,1Z" transform="translate(1158.6 55.8)" fill="#66c4c5"/><path d="M3.5-1A4.663,4.663,0,0,1,8,3.8,4.663,4.663,0,0,1,3.5,8.6,4.663,4.663,0,0,1-1,3.8,4.663,4.663,0,0,1,3.5-1Zm0,7.6A2.666,2.666,0,0,0,6,3.8,2.666,2.666,0,0,0,3.5,1,2.666,2.666,0,0,0,1,3.8,2.666,2.666,0,0,0,3.5,6.6Z" transform="translate(1155.3 105.8)" fill="#66c4c5"/><path d="M3.5-1A4.663,4.663,0,0,1,8,3.8,4.663,4.663,0,0,1,3.5,8.6,4.663,4.663,0,0,1-1,3.8,4.663,4.663,0,0,1,3.5-1Zm0,7.6A2.666,2.666,0,0,0,6,3.8,2.666,2.666,0,0,0,3.5,1,2.666,2.666,0,0,0,1,3.8,2.666,2.666,0,0,0,3.5,6.6Z" transform="translate(1044.9 44)" fill="#66c4c5"/><path d="M1111.3,84.1h-8.2a1,1,0,0,1,0-2h8.2a2.4,2.4,0,0,0,2.6-2.2V70.2a1,1,0,0,1,2,0v9.7a4,4,0,0,1-1.387,3.024A4.828,4.828,0,0,1,1111.3,84.1Z" fill="#66c4c5"/><path d="M156.1,1.1h0L0,1A1,1,0,0,1-1,0,1,1,0,0,1,0-1l156.1.1a1,1,0,0,1,0,2Z" transform="translate(948.3 83)" fill="#66c4c5"/><path d="M0,51a1,1,0,0,1-1-1V0A1,1,0,0,1,0-1,1,1,0,0,1,1,0V50A1,1,0,0,1,0,51Z" transform="translate(1115 25)" fill="#66c4c5"/><path d="M3.5-1A4.663,4.663,0,0,1,8,3.8,4.663,4.663,0,0,1,3.5,8.6,4.663,4.663,0,0,1-1,3.8,4.663,4.663,0,0,1,3.5-1Zm0,7.6A2.666,2.666,0,0,0,6,3.8,2.666,2.666,0,0,0,3.5,1,2.666,2.666,0,0,0,1,3.8,2.666,2.666,0,0,0,3.5,6.6Z" transform="translate(1111.5 17.5)" fill="#66c4c5"/><path d="M3.5-1A4.663,4.663,0,0,1,8,3.8,4.663,4.663,0,0,1,3.5,8.6,4.663,4.663,0,0,1-1,3.8,4.663,4.663,0,0,1,3.5-1Zm0,7.6A2.666,2.666,0,0,0,6,3.8,2.666,2.666,0,0,0,3.5,1,2.666,2.666,0,0,0,1,3.8,2.666,2.666,0,0,0,3.5,6.6Z" transform="translate(941.2 79.5)" fill="#66c4c5"/><path d="M1289.4,58.7a1,1,0,0,1-1-1V48a4,4,0,0,1,1.387-3.024A4.828,4.828,0,0,1,1293,43.8h8.2a1,1,0,0,1,0,2H1293a2.4,2.4,0,0,0-2.6,2.2v9.7A1,1,0,0,1,1289.4,58.7Z" fill="#66c4c5"/><path d="M96,1.2h0L0,1A1,1,0,0,1-1,0,1,1,0,0,1,0-1L96-.8a1,1,0,0,1,0,2Z" transform="translate(1299.9 44.8)" fill="#66c4c5"/><path d="M0,51H0a1,1,0,0,1-1-1L-.8,0a1,1,0,0,1,1-1,1,1,0,0,1,1,1L1,50A1,1,0,0,1,0,51Z" transform="translate(1289.1 52.8)" fill="#66c4c5"/><path d="M3.5-1A4.663,4.663,0,0,1,8,3.8,4.663,4.663,0,0,1,3.5,8.6,4.663,4.663,0,0,1-1,3.8,4.663,4.663,0,0,1,3.5-1Zm0,7.6A2.666,2.666,0,0,0,6,3.8,2.666,2.666,0,0,0,3.5,1,2.666,2.666,0,0,0,1,3.8,2.666,2.666,0,0,0,3.5,6.6Z" transform="translate(1285.6 102.8)" fill="#66c4c5"/><path d="M3.5-1A4.663,4.663,0,0,1,8,3.8,4.663,4.663,0,0,1,3.5,8.6,4.663,4.663,0,0,1-1,3.8,4.663,4.663,0,0,1,3.5-1Zm0,7.6A2.666,2.666,0,0,0,6,3.8,2.666,2.666,0,0,0,3.5,1,2.666,2.666,0,0,0,1,3.8,2.666,2.666,0,0,0,3.5,6.6Z" transform="translate(1396 41)" fill="#66c4c5"/><path d="M1344.7,81.1h-8.2a4.828,4.828,0,0,1-3.213-1.176A4,4,0,0,1,1331.9,76.9V67.2a1,1,0,0,1,2,0v9.7a2.4,2.4,0,0,0,2.6,2.2h8.2a1,1,0,0,1,0,2Z" fill="#66c4c5"/><path d="M0,1.1a1,1,0,0,1-1-1,1,1,0,0,1,1-1L156-1h0a1,1,0,0,1,1,1,1,1,0,0,1-1,1L0,1.1Z" transform="translate(1343.5 80)" fill="#66c4c5"/><path d="M0,51a1,1,0,0,1-1-1V0A1,1,0,0,1,0-1,1,1,0,0,1,1,0V50A1,1,0,0,1,0,51Z" transform="translate(1332.9 22)" fill="#66c4c5"/><path d="M3.5-1A4.663,4.663,0,0,1,8,3.8,4.663,4.663,0,0,1,3.5,8.6,4.663,4.663,0,0,1-1,3.8,4.663,4.663,0,0,1,3.5-1Zm0,7.6A2.666,2.666,0,0,0,6,3.8,2.666,2.666,0,0,0,3.5,1,2.666,2.666,0,0,0,1,3.8,2.666,2.666,0,0,0,3.5,6.6Z" transform="translate(1329.4 14.5)" fill="#66c4c5"/><path d="M3.5-1A4.663,4.663,0,0,1,8,3.8,4.663,4.663,0,0,1,3.5,8.6,4.663,4.663,0,0,1-1,3.8,4.663,4.663,0,0,1,3.5-1Zm0,7.6A2.666,2.666,0,0,0,6,3.8,2.666,2.666,0,0,0,3.5,1,2.666,2.666,0,0,0,1,3.8,2.666,2.666,0,0,0,3.5,6.6Z" transform="translate(1499.6 76.5)" fill="#66c4c5"/><path d="M1757.6,80.1h-8.2a1,1,0,0,1,0-2h8.2a2.4,2.4,0,0,0,2.6-2.2V66.2a1,1,0,0,1,2,0v9.7a4,4,0,0,1-1.387,3.024A4.828,4.828,0,0,1,1757.6,80.1Z" fill="#66c4c5"/><path d="M46.2,1H0A1,1,0,0,1-1,0,1,1,0,0,1,0-1H46.2a1,1,0,0,1,1,1A1,1,0,0,1,46.2,1Z" transform="translate(1704.5 79.1)" fill="#66c4c5"/><path d="M0,51a1,1,0,0,1-1-1V0A1,1,0,0,1,0-1,1,1,0,0,1,1,0V50A1,1,0,0,1,0,51Z" transform="translate(1761.3 21)" fill="#66c4c5"/><path d="M3.5-1A4.663,4.663,0,0,1,8,3.8,4.663,4.663,0,0,1,3.5,8.6,4.663,4.663,0,0,1-1,3.8,4.663,4.663,0,0,1,3.5-1Zm0,7.6A2.666,2.666,0,0,0,6,3.8,2.666,2.666,0,0,0,3.5,1,2.666,2.666,0,0,0,1,3.8,2.666,2.666,0,0,0,3.5,6.6Z" transform="translate(1757.8 13.5)" fill="#66c4c5"/><path d="M3.5-1A4.663,4.663,0,0,1,8,3.8,4.663,4.663,0,0,1,3.5,8.6,4.663,4.663,0,0,1-1,3.8,4.663,4.663,0,0,1,3.5-1Zm0,7.6A2.666,2.666,0,0,0,6,3.8,2.666,2.666,0,0,0,3.5,1,2.666,2.666,0,0,0,1,3.8,2.666,2.666,0,0,0,3.5,6.6Z" transform="translate(1696.8 75.5)" fill="#66c4c5"/><path d="M1681.1,53.7a1,1,0,0,1-1-1V43a4,4,0,0,1,1.387-3.024A4.828,4.828,0,0,1,1684.7,38.8h8.2a1,1,0,0,1,0,2h-8.2a2.4,2.4,0,0,0-2.6,2.2v9.7A1,1,0,0,1,1681.1,53.7Z" fill="#66c4c5"/><path d="M96,1.2h0L0,1A1,1,0,0,1-1,0,1,1,0,0,1,0-1L96-.8a1,1,0,0,1,0,2Z" transform="translate(1691.6 39.8)" fill="#66c4c5"/><path d="M0,51H0a1,1,0,0,1-1-1L-.9,0a1,1,0,0,1,1-1,1,1,0,0,1,1,1L1,50A1,1,0,0,1,0,51Z" transform="translate(1680.9 47.8)" fill="#66c4c5"/><path d="M3.5-1A4.663,4.663,0,0,1,8,3.8,4.663,4.663,0,0,1,3.5,8.6,4.663,4.663,0,0,1-1,3.8,4.663,4.663,0,0,1,3.5-1Zm0,7.6A2.666,2.666,0,0,0,6,3.8,2.666,2.666,0,0,0,3.5,1,2.666,2.666,0,0,0,1,3.8,2.666,2.666,0,0,0,3.5,6.6Z" transform="translate(1677.3 97.8)" fill="#66c4c5"/><path d="M3.5-1A4.663,4.663,0,0,1,8,3.8,4.663,4.663,0,0,1,3.5,8.6,4.663,4.663,0,0,1-1,3.8,4.663,4.663,0,0,1,3.5-1Zm0,7.6A2.666,2.666,0,0,0,6,3.8,2.666,2.666,0,0,0,3.5,1,2.666,2.666,0,0,0,1,3.8,2.666,2.666,0,0,0,3.5,6.6Z" transform="translate(1787.7 36)" fill="#66c4c5"/><path d="M1657.1,68.7a1,1,0,0,1-1-1V58a2.4,2.4,0,0,0-2.6-2.2h-8.2a1,1,0,0,1,0-2h8.2a4.828,4.828,0,0,1,3.213,1.176A4,4,0,0,1,1658.1,58v9.7A1,1,0,0,1,1657.1,68.7Z" fill="#66c4c5"/><path d="M0,1.2a1,1,0,0,1-1-1,1,1,0,0,1,1-1L95.9-1h0a1,1,0,0,1,1,1,1,1,0,0,1-1,1L0,1.2Z" transform="translate(1550.6 54.8)" fill="#66c4c5"/><path d="M.2,51a1,1,0,0,1-1-1L-1,0A1,1,0,0,1,0-1,1,1,0,0,1,1,0l.2,50a1,1,0,0,1-1,1Z" transform="translate(1657.1 62.8)" fill="#66c4c5"/><path d="M3.5-1A4.663,4.663,0,0,1,8,3.8,4.663,4.663,0,0,1,3.5,8.6,4.663,4.663,0,0,1-1,3.8,4.663,4.663,0,0,1,3.5-1Zm0,7.6A2.666,2.666,0,0,0,6,3.8,2.666,2.666,0,0,0,3.5,1,2.666,2.666,0,0,0,1,3.8,2.666,2.666,0,0,0,3.5,6.6Z" transform="translate(1653.8 112.8)" fill="#66c4c5"/><path d="M3.5-1A4.663,4.663,0,0,1,8,3.8,4.663,4.663,0,0,1,3.5,8.6,4.663,4.663,0,0,1-1,3.8,4.663,4.663,0,0,1,3.5-1Zm0,7.6A2.666,2.666,0,0,0,6,3.8,2.666,2.666,0,0,0,3.5,1,2.666,2.666,0,0,0,1,3.8,2.666,2.666,0,0,0,3.5,6.6Z" transform="translate(1543.5 51)" fill="#66c4c5"/><path d="M1609.9,91.1h-8.2a1,1,0,0,1,0-2h8.2a2.4,2.4,0,0,0,2.6-2.2V77.2a1,1,0,0,1,2,0v9.7a4,4,0,0,1-1.387,3.024A4.828,4.828,0,0,1,1609.9,91.1Z" fill="#66c4c5"/><path d="M156,1.1h0L0,1A1,1,0,0,1-1,0,1,1,0,0,1,0-1L156-.9a1,1,0,0,1,0,2Z" transform="translate(1446.9 90)" fill="#66c4c5"/><path d="M0,51a1,1,0,0,1-1-1V0A1,1,0,0,1,0-1,1,1,0,0,1,1,0V50A1,1,0,0,1,0,51Z" transform="translate(1613.6 32)" fill="#66c4c5"/><path d="M3.5-1A4.663,4.663,0,0,1,8,3.8,4.663,4.663,0,0,1,3.5,8.6,4.663,4.663,0,0,1-1,3.8,4.663,4.663,0,0,1,3.5-1Zm0,7.6A2.666,2.666,0,0,0,6,3.8,2.666,2.666,0,0,0,3.5,1,2.666,2.666,0,0,0,1,3.8,2.666,2.666,0,0,0,3.5,6.6Z" transform="translate(1610.1 24.5)" fill="#66c4c5"/><path d="M3.5-1A4.663,4.663,0,0,1,8,3.8,4.663,4.663,0,0,1,3.5,8.6,4.663,4.663,0,0,1-1,3.8,4.663,4.663,0,0,1,3.5-1Zm0,7.6A2.666,2.666,0,0,0,6,3.8,2.666,2.666,0,0,0,3.5,1,2.666,2.666,0,0,0,1,3.8,2.666,2.666,0,0,0,3.5,6.6Z" transform="translate(1439.8 86.5)" fill="#66c4c5"/></g></svg>