<svg xmlns="http://www.w3.org/2000/svg" width="1152.997" height="353.139" viewBox="0 0 1152.997 353.139"><g transform="translate(-2.333 -2.194)" opacity="0.2"><path d="M140.333,80.667H107.667a7,7,0,0,0-7,7V111a7,7,0,0,0,7,7h7v4.667h-7a2.333,2.333,0,1,0,0,4.666h32.666a2.333,2.333,0,1,0,0-4.666h-7V118h7a7,7,0,0,0,7-7V87.667a7,7,0,0,0-7-7Zm-11.666,42h-9.334V118h9.334Zm14-11.667a2.334,2.334,0,0,1-2.334,2.333H107.667A2.334,2.334,0,0,1,105.333,111v-2.333h37.334Z" fill="#202323"/><path d="M44.333,14h-7V11.667A4.672,4.672,0,0,0,32.666,7H23.333a4.672,4.672,0,0,0-4.667,4.667V14h-7a7.008,7.008,0,0,0-7,7V42a7.008,7.008,0,0,0,7,7H44.333a7.008,7.008,0,0,0,7-7V21a7.008,7.008,0,0,0-7-7Zm-21-2.333h9.333V14H23.333ZM46.666,42a2.336,2.336,0,0,1-2.333,2.333H11.666A2.336,2.336,0,0,1,9.333,42V30.333h9.333v2.333a2.333,2.333,0,0,0,4.667,0V30.333h9.333v2.333a2.333,2.333,0,0,0,4.667,0V30.333h9.333Z" fill="#202323"/><path d="M236.333,4.667H203.667a7.007,7.007,0,0,0-7,7V44.333a7.007,7.007,0,0,0,7,7h32.666a7.007,7.007,0,0,0,7-7V11.667a7.007,7.007,0,0,0-7-7ZM220,14a6.482,6.482,0,1,1-2.48.493A6.482,6.482,0,0,1,220,14Zm9.936,28.01H210.064a2.352,2.352,0,0,1-2.187-3.195,12.98,12.98,0,0,1,24.246,0,2.352,2.352,0,0,1-2.187,3.195Z" fill="#202323"/><path d="M316,80.667a23.36,23.36,0,1,0,16.491,6.842A23.332,23.332,0,0,0,316,80.667Zm0,4.667a18.683,18.683,0,0,1,18.5,16.334H316Zm9.323,34.814-7.976-13.814h17.161a18.69,18.69,0,0,1-9.185,13.814Z" fill="#202323"/><path d="M237.8,160.515a2.341,2.341,0,0,0-1.95-.471,18.668,18.668,0,0,1-14.518-2.958,2.332,2.332,0,0,0-2.67,0,18.667,18.667,0,0,1-14.517,2.958,2.336,2.336,0,0,0-2.815,2.283v17.4a21.039,21.039,0,0,0,8.794,17.088l8.517,6.084a2.331,2.331,0,0,0,2.712,0l8.518-6.084a21.042,21.042,0,0,0,8.793-17.087v-17.4a2.331,2.331,0,0,0-.864-1.812Zm-10.9,17.168-7.934,7.934a2.333,2.333,0,0,1-3.3,0l-3.732-3.735a2.333,2.333,0,0,1,3.3-3.3l2.083,2.085,6.284-6.285a2.33,2.33,0,0,1,2.549-.516,2.336,2.336,0,0,1,1.444,2.163,2.338,2.338,0,0,1-.693,1.653Z" fill="#202323"/><path d="M433.386,4.807a30.414,30.414,0,0,0-5.053-.451A30.06,30.06,0,0,0,412,9.156a30.06,30.06,0,0,0-16.333-4.8,30.414,30.414,0,0,0-5.053.451,2.334,2.334,0,0,0-1.947,2.3v28a2.334,2.334,0,0,0,2.719,2.3,25.164,25.164,0,0,1,19.25,4.462,2.335,2.335,0,0,0,2.728,0,25.164,25.164,0,0,1,19.25-4.462,2.332,2.332,0,0,0,2.719-2.3v-28a2.334,2.334,0,0,0-1.947-2.3Zm0,37.333a30.42,30.42,0,0,0-5.053-.451A30.06,30.06,0,0,0,412,46.489a30.06,30.06,0,0,0-16.333-4.8,30.42,30.42,0,0,0-5.053.451,2.334,2.334,0,1,0,.772,4.6,25.162,25.162,0,0,1,19.25,4.462,2.335,2.335,0,0,0,2.728,0,25.163,25.163,0,0,1,19.25-4.462,2.334,2.334,0,1,0,.772-4.6Z" fill="#202323"/><path d="M46.667,175.8v-7.467a6.875,6.875,0,0,0-7-7H37.8l-1.867-5.366a2.241,2.241,0,0,0-2.1-1.634H22.167a2.241,2.241,0,0,0-2.1,1.634L18.2,161.333H16.333a6.875,6.875,0,0,0-7,7V175.8a6.8,6.8,0,0,0-4.667,6.533v14A2.205,2.205,0,0,0,7,198.667H9.333V201a2.2,2.2,0,0,0,2.333,2.333A2.2,2.2,0,0,0,14,201v-2.333H42V201a2.333,2.333,0,0,0,4.667,0v-2.333H49a2.205,2.205,0,0,0,2.333-2.334v-14a6.8,6.8,0,0,0-4.667-6.533ZM16.333,189.333a2.333,2.333,0,1,1,0-4.666,2.333,2.333,0,1,1,0,4.666Zm14,0H25.667a2.333,2.333,0,1,1,0-4.666h4.667a2.333,2.333,0,1,1,0,4.666Zm9.333,0A2.333,2.333,0,1,1,42,187,2.2,2.2,0,0,1,39.667,189.333Zm2.333-14H14v-7A2.2,2.2,0,0,1,16.333,166H39.667A2.2,2.2,0,0,1,42,168.333Z" fill="#202323"/><path d="M144.381,241.706l-2.358-2.357-4.521-4.522a2.333,2.333,0,1,0-3.3,3.3l2.271,2.272-1.93,5.817a6.961,6.961,0,0,0,1.694,7.153l6.893,6.9v11.1a2.333,2.333,0,1,1-4.666,0v-4.666a7.008,7.008,0,0,0-7-7h-2.334v-21a7.006,7.006,0,0,0-7-7h-14a7.008,7.008,0,0,0-7,7V271.36a7.008,7.008,0,0,0,7,7h14a7.006,7.006,0,0,0,7-7v-7h2.334a2.335,2.335,0,0,1,2.333,2.334v4.666a7,7,0,1,0,14,0v-21.4a11.586,11.586,0,0,0-3.417-8.249Zm-36.25-5.346h14a2.335,2.335,0,0,1,2.334,2.334V250.36H105.8V238.694a2.335,2.335,0,0,1,2.333-2.334Z" fill="#202323"/><path d="M51.333,308.667H4.667A2.2,2.2,0,0,0,2.333,311v9.333A6.8,6.8,0,0,0,7,326.867V353a2.2,2.2,0,0,0,2.333,2.333H46.667A2.2,2.2,0,0,0,49,353V326.867a6.8,6.8,0,0,0,4.667-6.534V311A2.2,2.2,0,0,0,51.333,308.667Zm-14,42v-9.334a9.333,9.333,0,0,0-18.667,0v9.334h-7v-23.8a4.847,4.847,0,0,0,2.333-1.4,6.517,6.517,0,0,0,4.667,1.866,6.517,6.517,0,0,0,4.667-1.866,6.768,6.768,0,0,0,9.333,0,6.769,6.769,0,0,0,9.333,0,4.847,4.847,0,0,0,2.333,1.4v23.8Z" fill="#202323"/><path d="M1148.33,308.667h-32.66a7,7,0,0,0-7,7v32.666a7,7,0,0,0,7,7h32.66a6.991,6.991,0,0,0,7-7V315.667a7,7,0,0,0-7-7Zm-32.66,39.666a2.335,2.335,0,0,1-1.3-.393,2.38,2.38,0,0,1-.86-1.047,2.338,2.338,0,0,1,1.7-3.181,2.338,2.338,0,0,1,2.4.992,2.344,2.344,0,0,1-.29,2.946,2.334,2.334,0,0,1-1.65.683Zm9.33,0a2.334,2.334,0,0,1-2.16-1.44,2.389,2.389,0,0,1-.13-1.348,2.307,2.307,0,0,1,.64-1.2,2.335,2.335,0,0,1,3.59.354,2.344,2.344,0,0,1-.29,2.946,2.334,2.334,0,0,1-1.65.683ZM1150.67,339h-37.34V327.333h9.34a2.338,2.338,0,0,0,1.65-.683l2.9-2.9,6.52,7.457a2.356,2.356,0,0,0,1.68.8h.08a2.349,2.349,0,0,0,1.65-.684l3.98-3.983h9.54Zm0-16.333h-10.5a2.321,2.321,0,0,0-1.65.683l-2.91,2.9-6.52-7.457a2.356,2.356,0,0,0-1.68-.8,2.275,2.275,0,0,0-.94.156,2.385,2.385,0,0,0-.79.527l-3.98,3.983h-8.37v-7a2.347,2.347,0,0,1,2.34-2.334h32.66a2.347,2.347,0,0,1,2.34,2.334Z" fill="#202323"/><path d="M1150.92,192.806,1139,172.369V161.333h2.33a2.333,2.333,0,1,0,0-4.666h-18.66a2.333,2.333,0,1,0,0,4.666H1125v11.036l-11.92,20.437a7.073,7.073,0,0,0-.96,3.5,7.012,7.012,0,0,0,7,7.023h25.75a6.961,6.961,0,0,0,3.51-.941,6.983,6.983,0,0,0,2.54-9.586Zm-21.57-18.63a2.319,2.319,0,0,0,.32-1.176V161.333h4.66V173a2.319,2.319,0,0,0,.32,1.176l2.04,3.491h-9.38Zm-2.02,17.49a2.3,2.3,0,0,1-1.29-.394,2.249,2.249,0,0,1-.86-1.047,2.307,2.307,0,0,1-.14-1.348,2.333,2.333,0,0,1,1.84-1.833,2.35,2.35,0,0,1,1.35.132,2.335,2.335,0,0,1-.9,4.49Zm9.34,2.333a2.343,2.343,0,0,1-1.3-.393,2.383,2.383,0,0,1-.86-1.048,2.34,2.34,0,0,1,1.7-3.181,2.343,2.343,0,0,1,2.4.992,2.344,2.344,0,0,1-.29,2.946,2.334,2.334,0,0,1-1.65.684Z" fill="#202323"/><path d="M841.664,103.764v11.9a2.334,2.334,0,0,0,4.667,0v-11.9a11.666,11.666,0,1,0-4.667,0Zm12.163,5.889a2.334,2.334,0,0,0-.992,4.562c5.72,1.242,7.5,3.209,7.5,3.785,0,1.354-5.724,4.667-16.333,4.667s-16.334-3.313-16.334-4.667c0-.576,1.776-2.543,7.5-3.785a2.334,2.334,0,0,0-.991-4.562C827.07,111.2,823,114.24,823,118c0,6.127,10.563,9.333,21,9.333s21-3.206,21-9.333c0-3.76-4.072-6.8-11.171-8.347Z" fill="#202323"/><path d="M1148.33,6.861H1146V4.528a2.362,2.362,0,0,0-.68-1.65,2.34,2.34,0,0,0-3.99,1.65V6.861h-18.66V4.528a2.338,2.338,0,0,0-3.99-1.65,2.362,2.362,0,0,0-.68,1.65V6.861h-2.33a7,7,0,0,0-7,7V46.528a7,7,0,0,0,7,7h32.66a7,7,0,0,0,7-7V13.861a7,7,0,0,0-7-7Zm-28,37.332a2.308,2.308,0,0,1-1.29-.393,2.255,2.255,0,0,1-.86-1.047,2.308,2.308,0,0,1-.14-1.348,2.334,2.334,0,0,1,1.84-1.833,2.344,2.344,0,0,1,1.35.133,2.335,2.335,0,0,1-.9,4.489Zm0-9.333a2.308,2.308,0,0,1-1.29-.393,2.255,2.255,0,0,1-.86-1.047,2.308,2.308,0,0,1-.14-1.348,2.335,2.335,0,0,1,1.84-1.833,2.345,2.345,0,0,1,1.35.133,2.335,2.335,0,0,1-.9,4.489ZM1132,44.193a2.335,2.335,0,0,1-2.16-1.44,2.389,2.389,0,0,1-.13-1.348,2.309,2.309,0,0,1,.64-1.195,2.335,2.335,0,0,1,3.59.354,2.345,2.345,0,0,1-.29,2.946,2.336,2.336,0,0,1-1.65.683Zm0-9.333a2.335,2.335,0,0,1-2.16-1.44,2.389,2.389,0,0,1-.13-1.348,2.309,2.309,0,0,1,.64-1.195,2.335,2.335,0,0,1,3.59.354,2.345,2.345,0,0,1-.29,2.946,2.336,2.336,0,0,1-1.65.683Zm11.67,9.333a2.34,2.34,0,0,1-1.3-.393,2.381,2.381,0,0,1-.86-1.047,2.339,2.339,0,0,1,1.7-3.181,2.341,2.341,0,0,1,2.4.992,2.345,2.345,0,0,1-.29,2.946,2.336,2.336,0,0,1-1.65.683Zm0-9.333a2.34,2.34,0,0,1-1.3-.393,2.381,2.381,0,0,1-.86-1.047,2.339,2.339,0,0,1,1.7-3.182,2.342,2.342,0,0,1,2.4.992,2.345,2.345,0,0,1-.29,2.946,2.336,2.336,0,0,1-1.65.683Zm7-14h-37.34v-7a2.345,2.345,0,0,1,2.34-2.333H1118v2.333a2.362,2.362,0,0,0,.68,1.65,2.34,2.34,0,0,0,3.99-1.65V11.528h18.66v2.333a2.338,2.338,0,0,0,3.99,1.65,2.362,2.362,0,0,0,.68-1.65V11.528h2.33a2.345,2.345,0,0,1,2.34,2.333Z" fill="#202323"/><path d="M938.35,184.128a2.332,2.332,0,1,0,1.65-.684A2.335,2.335,0,0,0,938.35,184.128Zm-5.775-5.775a2.329,2.329,0,1,0,.757-.506A2.333,2.333,0,0,0,932.575,178.353Zm24.23,1.318.788-.788a11.649,11.649,0,0,0-16.473-16.474l-.788.789-.648-.648a12.117,12.117,0,0,0-17.136,17.135l.648.648-.789.79A11.648,11.648,0,0,0,938.88,197.6l.79-.789.645.645a12.117,12.117,0,0,0,17.135-17.136Zm-2.654,14.481a7.627,7.627,0,0,1-10.537,0l-17.766-17.766a7.461,7.461,0,0,1,0-10.537,7.621,7.621,0,0,1,10.536,0l17.767,17.767a7.45,7.45,0,0,1,0,10.536Zm-15.8-21.574A2.335,2.335,0,1,0,940,171.9,2.342,2.342,0,0,0,938.35,172.578Zm5.775,5.775a2.329,2.329,0,1,0,.757-.506A2.326,2.326,0,0,0,944.125,178.353Z" fill="#202323"/><path d="M954,4.667H926a6.875,6.875,0,0,0-7,7v28a6.8,6.8,0,0,0,4.667,6.533V49a2.333,2.333,0,1,0,4.666,0V46.667h23.334V49a2.333,2.333,0,1,0,4.666,0V46.2A6.8,6.8,0,0,0,961,39.667v-28a6.875,6.875,0,0,0-7-7Zm-23.333,35A2.333,2.333,0,1,1,933,37.333,2.2,2.2,0,0,1,930.667,39.667Zm7-9.333H926A2.2,2.2,0,0,1,923.667,28V18.667A2.2,2.2,0,0,1,926,16.333h11.667Zm11.666,9.333a2.333,2.333,0,1,1,2.334-2.333A2.2,2.2,0,0,1,949.333,39.667Zm7-11.667A2.2,2.2,0,0,1,954,30.333H942.333v-14H954a2.2,2.2,0,0,1,2.333,2.333Z" fill="#202323"/><path d="M1054.67,239.667h-37.34a7.02,7.02,0,0,0-7,7v18.666a7.02,7.02,0,0,0,7,7h37.34a7.02,7.02,0,0,0,7-7V246.667a7.02,7.02,0,0,0-7-7ZM1030.17,249h2.33a2.333,2.333,0,0,1,0,4.667h-2.33a2.333,2.333,0,1,1,0-4.667Zm-9.34,14a2.31,2.31,0,0,1-1.29-.393,2.259,2.259,0,0,1-.86-1.047,2.312,2.312,0,0,1-.14-1.349,2.461,2.461,0,0,1,.64-1.194,2.37,2.37,0,0,1,1.2-.639,2.318,2.318,0,0,1,2.39.992,2.333,2.333,0,0,1-1.94,3.63Zm2.34-9.333h-2.34a2.335,2.335,0,0,1-1.65-.684,2.333,2.333,0,0,1,1.65-3.983h2.34a2.338,2.338,0,0,1,1.65.683,2.342,2.342,0,0,1,0,3.3A2.334,2.334,0,0,1,1023.17,253.667ZM1041.83,263h-11.66a2.333,2.333,0,0,1,0-4.667h11.66a2.333,2.333,0,1,1,0,4.667Zm0-9.333h-2.33a2.333,2.333,0,1,1,0-4.667h2.33a2.333,2.333,0,0,1,0,4.667Zm9.34,9.333a2.343,2.343,0,0,1-1.3-.393,2.386,2.386,0,0,1-.86-1.047,2.34,2.34,0,0,1,1.7-3.182,2.343,2.343,0,0,1,2.4.992,2.346,2.346,0,0,1-.29,2.947,2.338,2.338,0,0,1-1.65.683Zm0-9.333h-2.34a2.335,2.335,0,0,1-1.65-.684,2.333,2.333,0,0,1,1.65-3.983h2.34a2.338,2.338,0,0,1,1.65.683,2.342,2.342,0,0,1,0,3.3A2.334,2.334,0,0,1,1051.17,253.667Z" fill="#202323"/><path d="M1051.17,90h-7a2.333,2.333,0,1,0,0,4.667h7a2.336,2.336,0,0,0,1.65-.683,2.342,2.342,0,0,0,0-3.3A2.336,2.336,0,0,0,1051.17,90Zm3.5-11.667h-37.34a7.02,7.02,0,0,0-7,7v37.333a7.021,7.021,0,0,0,7,7h37.34a7.022,7.022,0,0,0,7-7V85.334a7.021,7.021,0,0,0-7-7ZM1020.83,90H1022V88.834a2.363,2.363,0,0,1,.68-1.65,2.34,2.34,0,0,1,3.99,1.65V90h1.16a2.333,2.333,0,1,1,0,4.667h-1.16v1.167a2.338,2.338,0,0,1-3.99,1.65,2.362,2.362,0,0,1-.68-1.65V94.667h-1.17a2.336,2.336,0,0,1-1.65-.683,2.342,2.342,0,0,1,0-3.3,2.336,2.336,0,0,1,1.65-.683Zm12.84,35h-16.34a2.335,2.335,0,0,1-1.65-.684,2.359,2.359,0,0,1-.68-1.649V106.334h18.67Zm17.5-3.5h-7a2.333,2.333,0,1,1,0-4.666h7a2.334,2.334,0,0,1,1.65.683,2.342,2.342,0,0,1,0,3.3A2.338,2.338,0,0,1,1051.17,121.5Zm0-7h-7a2.333,2.333,0,1,1,0-4.666h7a2.334,2.334,0,0,1,1.65.683,2.342,2.342,0,0,1,0,3.3A2.338,2.338,0,0,1,1051.17,114.5Zm5.83-12.833h-18.67V83h16.34a2.328,2.328,0,0,1,2.33,2.333Zm-37.62,18.949a2.406,2.406,0,0,0,.76.506,2.337,2.337,0,0,0,.89.178,2.387,2.387,0,0,0,.9-.178,2.258,2.258,0,0,0,.75-.506l1.65-1.65,1.65,1.65a2.333,2.333,0,1,0,3.3-3.3l-1.65-1.65,1.65-1.65a2.333,2.333,0,1,0-3.3-3.3l-1.65,1.649-1.65-1.649a2.317,2.317,0,0,0-1.65-.684,2.336,2.336,0,0,0-1.65,3.983l1.65,1.65-1.65,1.649a2.482,2.482,0,0,0-.5.757,2.305,2.305,0,0,0,0,1.786A2.47,2.47,0,0,0,1019.38,120.616Z" fill="#202323"/><path d="M764.333,14H762V7a2.332,2.332,0,0,0-2.333-2.333H736.333A2.331,2.331,0,0,0,734,7v7h-2.333a7.007,7.007,0,0,0-7,7V35a7.007,7.007,0,0,0,7,7H734v7a2.332,2.332,0,0,0,2.333,2.333h23.334A2.331,2.331,0,0,0,762,49V42h2.333a7.007,7.007,0,0,0,7-7V21a7.007,7.007,0,0,0-7-7Zm-28,14a2.334,2.334,0,1,1,1.65-.683,2.334,2.334,0,0,1-1.65.683Zm21,18.667H738.667v-7h18.666Zm0-32.667H738.667V9.333h18.666Z" fill="#202323"/></g></svg>