<svg fill="none" height="360" viewBox="0 0 1160 360" width="1160" xmlns="http://www.w3.org/2000/svg"><g fill="#fff" opacity=".2"><path d="m140.333 80.6667h-32.666c-1.857 0-3.637.7375-4.95 2.0502-1.313 1.3128-2.05 3.0933-2.05 4.9498v23.3333c0 1.857.737 3.637 2.05 4.95s3.093 2.05 4.95 2.05h7v4.667h-7c-.619 0-1.213.246-1.65.683-.438.438-.684 1.031-.684 1.65s.246 1.212.684 1.65c.437.438 1.031.683 1.65.683h32.666c.619 0 1.213-.245 1.65-.683.438-.438.684-1.031.684-1.65s-.246-1.212-.684-1.65c-.437-.437-1.031-.683-1.65-.683h-7v-4.667h7c1.857 0 3.637-.737 4.95-2.05s2.05-3.093 2.05-4.95v-23.3333c0-1.8565-.737-3.637-2.05-4.9498-1.313-1.3127-3.093-2.0502-4.95-2.0502zm-11.666 42.0003h-9.334v-4.667h9.334zm14-11.667c0 .619-.246 1.212-.684 1.65-.437.438-1.031.683-1.65.683h-32.666c-.619 0-1.213-.245-1.65-.683-.438-.438-.684-1.031-.684-1.65v-2.333h37.334z"/><path d="m44.3332 14h-7v-2.3333c-.0014-1.2373-.4936-2.42344-1.3684-3.2983-.8749-.87487-2.0611-1.36699-3.2983-1.3684h-9.3333c-1.2373.00141-2.4234.49353-3.2983 1.3684-.8749.87486-1.367 2.061-1.3684 3.2983v2.3333h-7c-1.85589.002-3.63519.7402-4.94751 2.0525-1.31231 1.3123-2.05046 3.0916-2.05249 4.9475v21c.00203 1.8559.74018 3.6352 2.05249 4.9475 1.31232 1.3123 3.09162 2.0505 4.94751 2.0525h32.6667c1.8559-.002 3.6352-.7402 4.9475-2.0525s2.0504-3.0916 2.0525-4.9475v-21c-.0021-1.8559-.7402-3.6352-2.0525-4.9475s-3.0916-2.0505-4.9475-2.0525zm-21-2.3333h9.3333v2.3333h-9.3333zm23.3333 30.3333c-.0006.6186-.2466 1.2118-.6841 1.6492-.4374.4375-1.0306.6835-1.6492.6841h-32.6667c-.6186-.0006-1.2118-.2466-1.6492-.6841-.43748-.4374-.68351-1.0306-.68413-1.6492v-11.6667h9.33333v2.3334c0 .6188.2458 1.2123.6834 1.6499s1.0311.6834 1.6499.6834c.6189 0 1.2124-.2458 1.65-.6834.4375-.4376.6834-1.0311.6834-1.6499v-2.3334h9.3333v2.3334c0 .6188.2458 1.2123.6834 1.6499s1.0311.6834 1.6499.6834c.6189 0 1.2124-.2458 1.65-.6834.4375-.4376.6834-1.0311.6834-1.6499v-2.3334h9.3333z"/><path d="m236.333 4.66663h-32.666c-1.856.00202-3.636.74017-4.948 2.05249-1.312 1.31231-2.05 3.09161-2.052 4.94748v32.6667c.002 1.8559.74 3.6352 2.052 4.9475s3.092 2.0505 4.948 2.0525h32.666c1.856-.002 3.635-.7402 4.948-2.0525 1.312-1.3123 2.05-3.0916 2.052-4.9475v-32.6667c-.002-1.85587-.74-3.63517-2.052-4.94748-1.313-1.31232-3.092-2.05047-4.948-2.05249zm-16.333 9.33337c1.282 0 2.535.3801 3.601 1.0923s1.897 1.7245 2.387 2.9089c.491 1.1843.619 2.4876.369 3.7449s-.867 2.4122-1.774 3.3186c-.906.9065-2.061 1.5238-3.319 1.7739-1.257.2501-2.56.1218-3.744-.3688-1.185-.4906-2.197-1.3214-2.909-2.3872-.712-1.0659-1.093-2.3191-1.093-3.601 0-.8512.168-1.6941.494-2.4805.325-.7863.803-1.5009 1.405-2.1028.602-.6018 1.316-1.0793 2.103-1.405.786-.3257 1.629-.4934 2.48-.4933zm9.936 28.0105h-19.872c-.381-.0015-.756-.0954-1.092-.2737-.337-.1783-.625-.4356-.84-.7499-.215-.3142-.351-.676-.395-1.0543-.045-.3782.004-.7615.14-1.1171.939-2.4541 2.6-4.5655 4.765-6.0551 2.165-1.4895 4.73-2.287 7.358-2.287s5.193.7975 7.358 2.287c2.164 1.4896 3.826 3.601 4.765 6.0551.136.3556.184.7389.14 1.1171-.044.3783-.18.7401-.395 1.0543-.215.3143-.503.5716-.84.7499-.336.1783-.711.2722-1.092.2737z"/><path d="m316 80.6667c-4.615 0-9.126 1.3685-12.963 3.9324-3.838 2.5639-6.828 6.208-8.594 10.4716s-2.228 8.9553-1.328 13.4813 3.122 8.684 6.386 11.947c3.263 3.263 7.421 5.486 11.947 6.386s9.218.438 13.481-1.328c4.264-1.766 7.908-4.757 10.472-8.594s3.932-8.348 3.932-12.963c-.007-6.1862-2.468-12.117-6.842-16.4913s-10.305-6.8349-16.491-6.842zm0 4.6667c4.543.0073 8.927 1.6696 12.333 4.6759s5.6 7.1505 6.171 11.6577h-18.504zm9.323 34.8136-7.976-13.814h17.161c-.365 2.855-1.383 5.586-2.976 7.982s-3.718 4.392-6.209 5.832z"/><path d="m237.803 160.515c-.27-.218-.584-.374-.922-.455-.337-.082-.689-.087-1.028-.016-2.494.524-5.068.532-7.565.023-2.497-.508-4.863-1.523-6.953-2.981-.391-.274-.857-.42-1.335-.42s-.944.146-1.335.42c-2.09 1.458-4.456 2.472-6.953 2.981-2.496.508-5.071.5-7.564-.023-.34-.072-.692-.066-1.029.015-.337.082-.652.238-.922.456-.27.219-.487.495-.636.809-.15.313-.227.656-.228 1.003v17.399c.004 3.342.803 6.635 2.332 9.607 1.529 2.971 3.744 5.536 6.462 7.481l8.517 6.084c.396.283.87.435 1.356.435s.961-.152 1.356-.435l8.518-6.084c2.717-1.945 4.932-4.51 6.461-7.481 1.529-2.972 2.329-6.265 2.332-9.606v-17.4c0-.347-.077-.69-.227-1.004-.149-.313-.367-.589-.637-.808zm-10.903 17.168-7.934 7.934c-.217.217-.474.389-.757.506s-.587.177-.893.177c-.307 0-.61-.06-.893-.177s-.54-.289-.757-.506l-3.732-3.735c-.433-.438-.675-1.03-.673-1.646.002-.617.247-1.207.683-1.643s1.026-.681 1.642-.683c.617-.002 1.209.24 1.647.673l2.083 2.085 6.284-6.285c.217-.219.474-.392.758-.511.283-.119.587-.181.895-.182.307 0 .612.059.896.177.285.117.543.289.76.507.218.217.39.476.507.76.118.284.178.589.177.896-.001.308-.063.612-.182.896-.119.283-.293.54-.511.757z"/><path d="m433.386 4.80679c-1.669-.29086-3.359-.44177-5.053-.45118-5.793-.00729-11.465 1.65955-16.333 4.79998-4.868-3.14043-10.54-4.80727-16.333-4.79998-1.694.00941-3.384.16032-5.053.45118-.544.09162-1.038.37305-1.395.79435-.356.4213-.552.95524-.552 1.50709v27.99997c0 .3391.074.6741.217.9817.142.3076.35.5804.609.7994s.562.379.889.4689.67.1074 1.004.0514c1.414-.2484 2.846-.378 4.281-.3873 5.376-.0042 10.616 1.6932 14.969 4.8489.398.286.875.4398 1.364.4398.49 0 .967-.1538 1.364-.4398 2.741-2.0041 5.86-3.4326 9.169-4.1994 3.308-.7668 6.737-.8559 10.081-.2622.334.056.677.0385 1.004-.0514s.63-.2499.889-.4689.467-.4918.61-.7994c.142-.3076.216-.6426.216-.9817v-27.99997c0-.55185-.195-1.08579-.552-1.50709-.356-.4213-.851-.70273-1.395-.79435zm0 37.33331c-1.669-.2908-3.359-.4417-5.053-.4511-5.793-.0073-11.465 1.6595-16.333 4.7999-4.868-3.1404-10.54-4.8072-16.333-4.7999-1.694.0094-3.384.1603-5.053.4511-.303.0503-.593.1598-.853.3221-.26.1624-.486.3745-.664.6242s-.306.5321-.375.831-.078.6085-.027.911c.051.3026.16.5922.323.8522s.376.4854.626.6632.532.3046.831.3731.609.0774.911.0261c1.414-.2485 2.846-.3781 4.281-.3874 5.376-.0041 10.616 1.6932 14.969 4.849.398.2859.875.4398 1.364.4398.49 0 .967-.1539 1.364-.4398 2.741-2.0042 5.86-3.4327 9.169-4.1995 3.308-.7667 6.737-.8559 10.081-.2621.302.0513.612.0424.911-.0261s.582-.1953.832-.3731.462-.4032.625-.6632.273-.5496.323-.8522c.051-.3025.042-.6121-.027-.911s-.196-.5813-.375-.831c-.178-.2497-.404-.4618-.664-.6242-.26-.1623-.55-.2718-.853-.3221z"/><path d="m46.6665 175.8v-7.467c0-3.966-3.0333-7-7-7h-1.8667l-1.8666-5.366c-.2334-.934-1.1667-1.634-2.1-1.634h-11.6667c-.9333 0-1.8667.7-2.1 1.634l-1.8667 5.366h-1.8666c-3.9667 0-7.00003 3.034-7.00003 7v7.467c-2.8.933-4.66667 3.5-4.66667 6.533v14c0 1.4.93334 2.334 2.33334 2.334h2.33333v2.333c0 1.4.93333 2.333 2.33333 2.333s2.3333-.933 2.3333-2.333v-2.333h28v2.333c0 1.4.9334 2.333 2.3334 2.333s2.3333-.933 2.3333-2.333v-2.333h2.3333c1.4 0 2.3334-.934 2.3334-2.334v-14c0-3.033-1.8667-5.6-4.6667-6.533zm-30.3333 13.533c-1.4 0-2.3334-.933-2.3334-2.333s.9334-2.333 2.3334-2.333 2.3333.933 2.3333 2.333-.9333 2.333-2.3333 2.333zm14 0h-4.6667c-1.4 0-2.3333-.933-2.3333-2.333s.9333-2.333 2.3333-2.333h4.6667c1.4 0 2.3333.933 2.3333 2.333s-.9333 2.333-2.3333 2.333zm9.3333 0c-1.4 0-2.3333-.933-2.3333-2.333s.9333-2.333 2.3333-2.333 2.3333.933 2.3333 2.333-.9333 2.333-2.3333 2.333zm2.3333-14h-28v-7c0-1.4.9334-2.333 2.3334-2.333h23.3333c1.4 0 2.3333.933 2.3333 2.333z"/><path d="m144.381 241.706-2.358-2.357-4.521-4.522c-.438-.438-1.031-.684-1.65-.684-.618 0-1.212.246-1.649.684-.438.437-.684 1.031-.684 1.65 0 .618.246 1.212.684 1.649l2.271 2.272-1.93 5.817c-.413 1.232-.474 2.555-.174 3.819.299 1.264.946 2.419 1.868 3.334l6.893 6.895v11.097c0 .619-.245 1.213-.683 1.65-.438.438-1.031.684-1.65.684s-1.212-.246-1.65-.684c-.437-.437-.683-1.031-.683-1.65v-4.666c-.002-1.856-.74-3.636-2.053-4.948-1.312-1.312-3.091-2.05-4.947-2.052h-2.334v-21c-.002-1.856-.74-3.636-2.052-4.948s-3.092-2.05-4.948-2.052h-14c-1.856.002-3.635.74-4.947 2.052s-2.051 3.092-2.053 4.948v32.666c.002 1.856.741 3.636 2.053 4.948s3.091 2.05 4.947 2.052h14c1.856-.002 3.636-.74 4.948-2.052s2.05-3.092 2.052-4.948v-7h2.334c.618.001 1.211.247 1.649.684.437.438.683 1.031.684 1.65v4.666c0 1.857.738 3.637 2.05 4.95 1.313 1.313 3.094 2.05 4.95 2.05 1.857 0 3.637-.737 4.95-2.05s2.05-3.093 2.05-4.95v-21.405c.004-1.533-.295-3.051-.882-4.467-.586-1.416-1.448-2.701-2.535-3.782zm-36.25-5.346h14c.619.001 1.212.247 1.65.684.437.438.683 1.031.684 1.65v11.666h-18.667v-11.666c.001-.619.247-1.212.684-1.65.438-.437 1.031-.683 1.649-.684z"/><path d="m51.3335 308.667h-46.66667c-1.4 0-2.33333.933-2.33333 2.333v9.333c0 3.034 1.86666 5.6 4.66666 6.534v26.133c0 1.4.93334 2.333 2.33334 2.333h37.3333c1.4 0 2.3334-.933 2.3334-2.333v-26.133c2.8-.934 4.6666-3.5 4.6666-6.534v-9.333c0-1.4-.9333-2.333-2.3333-2.333zm-14 42v-9.334c0-5.133-4.2-9.333-9.3333-9.333-5.1334 0-9.3334 4.2-9.3334 9.333v9.334h-7v-23.8c.9334-.234 1.6334-.7 2.3334-1.4 1.1666 1.166 2.8 1.866 4.6666 1.866 1.8667 0 3.5-.7 4.6667-1.866 1.1667 1.166 2.8 1.866 4.6667 1.866 1.8666 0 3.5-.7 4.6666-1.866 1.1667 1.166 2.8 1.866 4.6667 1.866s3.5-.7 4.6667-1.866c.7.7 1.4 1.166 2.3333 1.4v23.8z"/><path d="m1148.33 308.667h-32.66c-1.86.002-3.64.74-4.95 2.052s-2.05 3.092-2.05 4.948v32.666c0 .92.18 1.83.53 2.679s.87 1.621 1.52 2.271 1.42 1.166 2.27 1.518c.85.351 1.76.532 2.68.532h32.66c.92 0 1.83-.181 2.68-.532.85-.352 1.62-.868 2.27-1.518s1.17-1.422 1.52-2.271.53-1.759.53-2.679v-32.666c0-1.856-.74-3.636-2.05-4.948s-3.09-2.05-4.95-2.052zm-32.66 39.666c-.46 0-.92-.136-1.3-.393-.38-.256-.68-.621-.86-1.047s-.22-.896-.13-1.348c.09-.453.31-.869.64-1.195.32-.326.74-.548 1.19-.638.45-.091.92-.044 1.35.132.43.177.79.476 1.05.86.25.383.39.835.39 1.296 0 .619-.25 1.212-.68 1.65-.44.438-1.03.683-1.65.683zm9.33 0c-.46 0-.91-.136-1.3-.393-.38-.256-.68-.621-.86-1.047-.17-.426-.22-.896-.13-1.348.09-.453.31-.869.64-1.195s.74-.548 1.19-.638c.46-.091.93-.044 1.35.132.43.177.79.476 1.05.86.26.383.39.835.39 1.296 0 .619-.24 1.212-.68 1.65s-1.03.683-1.65.683zm25.67-9.333h-37.34v-11.667h9.34c.62 0 1.21-.246 1.65-.683l2.9-2.903 6.52 7.457c.21.24.47.435.76.571.29.137.6.213.92.224l.08.001c.31 0 .61-.06.89-.178.29-.117.54-.289.76-.506l3.98-3.983h9.54zm0-16.333h-10.5c-.62 0-1.22.246-1.65.683l-2.91 2.903-6.52-7.457c-.21-.24-.47-.435-.76-.571-.29-.137-.6-.213-.92-.224-.32-.015-.64.038-.94.156-.29.117-.56.297-.79.527l-3.98 3.983h-8.37v-7c0-.619.25-1.212.69-1.649.43-.438 1.03-.684 1.65-.685h32.66c.62.001 1.21.247 1.65.685.44.437.69 1.03.69 1.649z"/><path d="m1150.92 192.806-11.92-20.437v-11.036h2.33c.62 0 1.22-.245 1.65-.683.44-.438.69-1.031.69-1.65s-.25-1.212-.69-1.65c-.43-.437-1.03-.683-1.65-.683h-18.66c-.62 0-1.22.246-1.65.683-.44.438-.69 1.031-.69 1.65s.25 1.212.69 1.65c.43.438 1.03.683 1.65.683h2.33v11.036l-11.92 20.437c-.62 1.064-.95 2.272-.96 3.504 0 1.231.32 2.441.94 3.509.61 1.067 1.49 1.954 2.56 2.571 1.06.617 2.27.943 3.5.943h25.75c1.24.001 2.45-.324 3.51-.941 1.07-.617 1.95-1.504 2.57-2.572.61-1.068.93-2.279.93-3.51-.01-1.232-.34-2.44-.96-3.504zm-21.57-18.63c.21-.357.32-.763.32-1.176v-11.667h4.66v11.667c0 .413.11.819.32 1.176l2.04 3.491h-9.38zm-2.02 17.49c-.46 0-.91-.137-1.29-.394-.39-.256-.69-.62-.86-1.047-.18-.426-.23-.895-.14-1.348s.32-.868.64-1.195c.33-.326.75-.548 1.2-.638s.92-.044 1.35.132c.42.177.79.476 1.04.86.26.384.4.835.4 1.296 0 .619-.25 1.213-.69 1.65-.43.438-1.03.684-1.65.684zm9.34 2.333c-.46 0-.92-.137-1.3-.393-.38-.257-.68-.621-.86-1.048-.18-.426-.22-.895-.13-1.348.09-.452.31-.868.64-1.194.32-.327.74-.549 1.19-.639s.92-.044 1.35.133c.43.176.79.476 1.05.859.25.384.39.835.39 1.297 0 .618-.25 1.212-.68 1.649-.44.438-1.03.684-1.65.684z"/><path d="m841.664 103.764v11.905c0 .619.246 1.212.684 1.65.437.437 1.031.683 1.65.683.618 0 1.212-.246 1.649-.683.438-.438.684-1.031.684-1.65v-11.905c2.833-.578 5.35-2.188 7.063-4.5162 1.714-2.3287 2.502-5.2106 2.211-8.0872-.29-2.8765-1.639-5.5427-3.783-7.4816-2.145-1.9389-4.933-3.0124-7.824-3.0124-2.892 0-5.68 1.0735-7.824 3.0124-2.145 1.9389-3.493 4.6051-3.784 7.4816-.291 2.8766.497 5.7585 2.211 8.0872 1.713 2.3282 4.23 3.9382 7.063 4.5162zm12.163 5.889c-.605-.131-1.238-.017-1.759.318-.52.335-.887.863-1.018 1.468s-.017 1.237.318 1.758c.334.52.862.887 1.467 1.018 5.72 1.242 7.496 3.209 7.496 3.785 0 1.354-5.724 4.667-16.333 4.667-10.61 0-16.334-3.313-16.334-4.667 0-.576 1.776-2.543 7.496-3.785.605-.131 1.133-.498 1.468-1.018.334-.521.449-1.153.317-1.758-.131-.605-.498-1.133-1.018-1.468-.521-.335-1.153-.449-1.758-.318-7.099 1.545-11.171 4.587-11.171 8.347 0 6.127 10.563 9.333 21 9.333 10.436 0 21-3.206 21-9.333 0-3.76-4.072-6.802-11.171-8.347z"/><path d="m1148.33 6.861h-2.33v-2.33333c0-.61884-.25-1.21233-.68-1.64992-.44-.43758-1.03-.68341-1.65-.68341s-1.22.24583-1.65.68341c-.44.43759-.69 1.03108-.69 1.64992v2.33333h-18.66v-2.33333c0-.61884-.25-1.21233-.69-1.64992-.43-.43758-1.03-.68341-1.65-.68341s-1.21.24583-1.65.68341c-.43.43759-.68 1.03108-.68 1.64992v2.33333h-2.33c-1.86.00203-3.64.74018-4.95 2.05249s-2.05 3.09161-2.05 4.94751v32.6667c0 1.8559.74 3.6352 2.05 4.9475s3.09 2.0504 4.95 2.0525h32.66c1.86-.0021 3.64-.7402 4.95-2.0525s2.05-3.0916 2.05-4.9475v-32.6667c0-1.8559-.74-3.6352-2.05-4.94751s-3.09-2.05046-4.95-2.05249zm-28 37.3322c-.46 0-.91-.1368-1.29-.3932-.39-.2564-.69-.6208-.86-1.0472-.18-.4264-.23-.8955-.14-1.3481.09-.4527.32-.8684.64-1.1948.33-.3263.75-.5485 1.2-.6385.45-.0901.92-.0439 1.35.1327.42.1766.79.4757 1.04.8594.26.3837.4.8349.4 1.2964 0 .6188-.25 1.2123-.69 1.6499-.43.4376-1.03.6834-1.65.6834zm0-9.3333c-.46 0-.91-.1369-1.29-.3933-.39-.2564-.69-.6208-.86-1.0471-.18-.4264-.23-.8956-.14-1.3482s.32-.8684.64-1.1947c.33-.3263.75-.5485 1.2-.6386.45-.09.92-.0438 1.35.1328.42.1766.79.4757 1.04.8594.26.3837.4.8348.4 1.2963 0 .6189-.25 1.2124-.69 1.6499-.43.4376-1.03.6835-1.65.6835zm11.67 9.3333c-.46 0-.91-.1368-1.3-.3932-.38-.2564-.68-.6208-.86-1.0472-.17-.4264-.22-.8955-.13-1.3481.09-.4527.31-.8684.64-1.1948.33-.3263.74-.5485 1.19-.6385.46-.0901.93-.0439 1.35.1327.43.1766.79.4757 1.05.8594s.39.8349.39 1.2964c0 .6188-.24 1.2123-.68 1.6499s-1.03.6834-1.65.6834zm0-9.3333c-.46 0-.91-.1369-1.3-.3933-.38-.2564-.68-.6208-.86-1.0471-.17-.4264-.22-.8956-.13-1.3482s.31-.8684.64-1.1947.74-.5485 1.19-.6386c.46-.09.93-.0438 1.35.1328.43.1766.79.4757 1.05.8594s.39.8348.39 1.2963c0 .6189-.24 1.2124-.68 1.6499-.44.4376-1.03.6835-1.65.6835zm11.67 9.3333c-.46 0-.92-.1368-1.3-.3932s-.68-.6208-.86-1.0472-.22-.8955-.13-1.3481c.09-.4527.31-.8684.64-1.1948.32-.3263.74-.5485 1.19-.6385.45-.0901.92-.0439 1.35.1327s.79.4757 1.05.8594c.25.3837.39.8349.39 1.2964 0 .6188-.25 1.2123-.68 1.6499-.44.4376-1.03.6834-1.65.6834zm0-9.3333c-.46 0-.92-.1369-1.3-.3933s-.68-.6208-.86-1.0471c-.18-.4264-.22-.8956-.13-1.3482s.31-.8684.64-1.1947c.32-.3263.74-.5485 1.19-.6386.45-.09.92-.0438 1.35.1328s.79.4757 1.05.8594c.25.3837.39.8348.39 1.2963 0 .6189-.25 1.2124-.68 1.6499-.44.4376-1.03.6835-1.65.6835zm7-13.9989h-37.34v-7c0-.6187.25-1.212.69-1.6495s1.03-.6834 1.65-.6838h2.33v2.3333c0 .6188.25 1.2123.68 1.6499.44.4376 1.03.6834 1.65.6834s1.22-.2458 1.65-.6834c.44-.4376.69-1.0311.69-1.6499v-2.3333h18.66v2.3333c0 .6188.25 1.2123.69 1.6499.43.4376 1.03.6834 1.65.6834s1.21-.2458 1.65-.6834c.43-.4376.68-1.0311.68-1.6499v-2.3333h2.33c.62.0004 1.22.2463 1.65.6838.44.4375.69 1.0308.69 1.6495z"/><path d="m938.35 184.128c-.326.326-.549.742-.639 1.194-.09.453-.043.922.133 1.349.177.426.476.79.86 1.047.383.256.834.393 1.296.393.461 0 .913-.137 1.296-.393.384-.257.683-.621.86-1.047.176-.427.222-.896.132-1.349-.09-.452-.312-.868-.638-1.194-.438-.438-1.031-.684-1.65-.684s-1.212.246-1.65.684zm-5.775-5.775c-.326.326-.548.742-.638 1.195-.09.452-.044.922.132 1.348.177.426.476.791.86 1.047s.835.393 1.296.393c.462 0 .913-.137 1.296-.393.384-.256.683-.621.86-1.047.176-.426.223-.896.133-1.348-.09-.453-.313-.869-.639-1.195-.217-.217-.474-.389-.757-.506s-.586-.177-.893-.177c-.306 0-.61.06-.893.177s-.54.289-.757.506zm24.23 1.318.788-.788c2.18-2.186 3.403-5.147 3.4-8.233-.002-3.087-1.229-6.046-3.411-8.229-2.183-2.182-5.142-3.41-8.229-3.412-3.086-.002-6.048 1.221-8.233 3.4l-.788.789-.648-.648c-2.274-2.266-5.354-3.537-8.564-3.534-3.209.003-6.287 1.279-8.557 3.549-2.269 2.269-3.546 5.347-3.549 8.557-.002 3.209 1.269 6.289 3.534 8.563l.648.648-.789.79c-2.18 2.185-3.403 5.147-3.401 8.233.003 3.087 1.23 6.046 3.412 8.229 2.183 2.182 5.142 3.409 8.229 3.411 3.086.003 6.047-1.22 8.233-3.4l.79-.789.645.645c2.273 2.267 5.353 3.539 8.564 3.537s6.289-1.278 8.56-3.549c2.27-2.27 3.547-5.349 3.549-8.559.002-3.211-1.27-6.292-3.538-8.565zm-2.654 14.481c-1.419 1.355-3.306 2.112-5.268 2.112-1.963 0-3.85-.757-5.269-2.112l-17.766-17.766c-1.395-1.399-2.178-3.294-2.178-5.269s.783-3.869 2.178-5.268c1.418-1.357 3.305-2.114 5.268-2.114s3.85.757 5.268 2.114l17.767 17.767c.692.691 1.241 1.513 1.615 2.417.375.904.568 1.873.568 2.851s-.193 1.947-.568 2.851c-.374.904-.923 1.726-1.615 2.417zm-15.801-21.574c-.326.327-.549.743-.639 1.195-.09.453-.043.922.133 1.348.177.427.476.791.86 1.048.383.256.834.393 1.296.393.461 0 .913-.137 1.296-.393.384-.257.683-.621.86-1.048.176-.426.222-.895.132-1.348-.09-.452-.312-.868-.638-1.195-.438-.437-1.031-.683-1.65-.683s-1.212.246-1.65.683zm5.775 5.775c-.327.326-.549.742-.639 1.195-.09.452-.044.921.133 1.348.177.426.476.791.859 1.047.384.256.835.393 1.297.393.461 0 .912-.137 1.296-.393.383-.256.683-.621.859-1.047.177-.427.223-.896.133-1.348-.09-.453-.312-.869-.639-1.195-.216-.217-.473-.388-.757-.506-.283-.117-.586-.177-.892-.177-.307 0-.61.06-.893.177-.283.118-.541.289-.757.506z"/><path d="m954 4.66663h-28c-3.967 0-7 3.03333-7 6.99997v28c0 3.0334 1.867 5.6 4.667 6.5334v2.8c0 1.4.933 2.3333 2.333 2.3333s2.333-.9333 2.333-2.3333v-2.3334h23.334v2.3334c0 1.4.933 2.3333 2.333 2.3333s2.333-.9333 2.333-2.3333v-2.8c2.8-.9334 4.667-3.5 4.667-6.5334v-28c0-3.96664-3.033-6.99997-7-6.99997zm-23.333 34.99997c-1.4 0-2.334-.9333-2.334-2.3333s.934-2.3333 2.334-2.3333 2.333.9333 2.333 2.3333-.933 2.3333-2.333 2.3333zm7-9.3333h-11.667c-1.4 0-2.333-.9333-2.333-2.3333v-9.3334c0-1.4.933-2.3333 2.333-2.3333h11.667zm11.666 9.3333c-1.4 0-2.333-.9333-2.333-2.3333s.933-2.3333 2.333-2.3333 2.334.9333 2.334 2.3333-.934 2.3333-2.334 2.3333zm7-11.6666c0 1.4-.933 2.3333-2.333 2.3333h-11.667v-14h11.667c1.4 0 2.333.9333 2.333 2.3333z"/><path d="m1054.67 239.667h-37.34c-1.85.002-3.63.74-4.94 2.052-1.32 1.312-2.05 3.092-2.06 4.948v18.666c.01 1.856.74 3.636 2.06 4.948 1.31 1.312 3.09 2.05 4.94 2.052h37.34c1.85-.002 3.63-.74 4.94-2.052 1.32-1.312 2.05-3.092 2.06-4.948v-18.666c-.01-1.856-.74-3.636-2.06-4.948-1.31-1.312-3.09-2.05-4.94-2.052zm-24.5 9.333h2.33c.62 0 1.21.246 1.65.683.44.438.68 1.032.68 1.65 0 .619-.24 1.213-.68 1.65-.44.438-1.03.684-1.65.684h-2.33c-.62 0-1.22-.246-1.65-.684-.44-.437-.69-1.031-.69-1.65 0-.618.25-1.212.69-1.65.43-.437 1.03-.683 1.65-.683zm-9.34 14c-.46 0-.91-.137-1.29-.393-.39-.257-.69-.621-.86-1.047-.18-.427-.23-.896-.14-1.349.1-.452.32-.868.64-1.194.33-.327.75-.549 1.2-.639s.92-.044 1.35.133c.42.177.79.476 1.04.859.26.384.4.835.4 1.297 0 .619-.25 1.212-.69 1.65-.43.437-1.03.683-1.65.683zm2.34-9.333h-2.34c-.62 0-1.21-.246-1.65-.684-.43-.437-.68-1.031-.68-1.65 0-.618.25-1.212.68-1.65.44-.437 1.03-.683 1.65-.683h2.34c.62 0 1.21.246 1.65.683.43.438.68 1.032.68 1.65 0 .619-.25 1.213-.68 1.65-.44.438-1.03.684-1.65.684zm18.66 9.333h-11.66c-.62 0-1.22-.246-1.65-.683-.44-.438-.69-1.031-.69-1.65s.25-1.213.69-1.65c.43-.438 1.03-.684 1.65-.684h11.66c.62 0 1.22.246 1.65.684.44.437.69 1.031.69 1.65s-.25 1.212-.69 1.65c-.43.437-1.03.683-1.65.683zm0-9.333h-2.33c-.62 0-1.21-.246-1.65-.684-.44-.437-.68-1.031-.68-1.65 0-.618.24-1.212.68-1.65.44-.437 1.03-.683 1.65-.683h2.33c.62 0 1.22.246 1.65.683.44.438.69 1.032.69 1.65 0 .619-.25 1.213-.69 1.65-.43.438-1.03.684-1.65.684zm9.34 9.333c-.46 0-.92-.137-1.3-.393-.38-.257-.68-.621-.86-1.047-.18-.427-.22-.896-.13-1.349.09-.452.31-.868.64-1.194.32-.327.74-.549 1.19-.639s.92-.044 1.35.133.79.476 1.05.859c.25.384.39.835.39 1.297 0 .619-.25 1.212-.68 1.65-.44.437-1.03.683-1.65.683zm0-9.333h-2.34c-.62 0-1.21-.246-1.65-.684-.43-.437-.68-1.031-.68-1.65 0-.618.25-1.212.68-1.65.44-.437 1.03-.683 1.65-.683h2.34c.62 0 1.21.246 1.65.683.43.438.68 1.032.68 1.65 0 .619-.25 1.213-.68 1.65-.44.438-1.03.684-1.65.684z"/><path d="m1051.17 90.0002h-7c-.62 0-1.22.2459-1.65.6834-.44.4376-.69 1.0311-.69 1.65 0 .6188.25 1.2123.69 1.6499.43.4376 1.03.6834 1.65.6834h7c.62 0 1.21-.2458 1.65-.6834.43-.4376.68-1.0311.68-1.6499 0-.6189-.25-1.2124-.68-1.65-.44-.4375-1.03-.6834-1.65-.6834zm3.5-11.6666h-37.34c-1.85.002-3.63.7401-4.94 2.0524-1.32 1.3124-2.05 3.0917-2.06 4.9476v37.3334c.01 1.856.74 3.635 2.06 4.947 1.31 1.313 3.09 2.051 4.94 2.053h37.34c1.85-.002 3.63-.74 4.94-2.053 1.32-1.312 2.05-3.091 2.06-4.947v-37.3334c-.01-1.8559-.74-3.6352-2.06-4.9476-1.31-1.3123-3.09-2.0504-4.94-2.0524zm-33.84 11.6666h1.17v-1.1666c0-.6189.25-1.2124.68-1.65.44-.4375 1.03-.6834 1.65-.6834s1.22.2459 1.65.6834c.44.4376.69 1.0311.69 1.65v1.1666h1.16c.62 0 1.22.2459 1.65.6834.44.4376.69 1.0311.69 1.65 0 .6188-.25 1.2123-.69 1.6499-.43.4376-1.03.6834-1.65.6834h-1.16v1.1667c0 .6188-.25 1.2123-.69 1.6499-.43.4376-1.03.6834-1.65.6834s-1.21-.2458-1.65-.6834c-.43-.4376-.68-1.0311-.68-1.6499v-1.1667h-1.17c-.62 0-1.21-.2458-1.65-.6834-.43-.4376-.68-1.0311-.68-1.6499 0-.6189.25-1.2124.68-1.65.44-.4375 1.03-.6834 1.65-.6834zm12.84 34.9998h-16.34c-.62 0-1.21-.246-1.65-.684-.43-.437-.68-1.03-.68-1.649v-16.333h18.67zm17.5-3.5h-7c-.62 0-1.22-.246-1.65-.683-.44-.438-.69-1.031-.69-1.65s.25-1.212.69-1.65c.43-.438 1.03-.683 1.65-.683h7c.62 0 1.21.245 1.65.683.43.438.68 1.031.68 1.65s-.25 1.212-.68 1.65c-.44.437-1.03.683-1.65.683zm0-7h-7c-.62 0-1.22-.246-1.65-.683-.44-.438-.69-1.031-.69-1.65s.25-1.212.69-1.65c.43-.438 1.03-.683 1.65-.683h7c.62 0 1.21.245 1.65.683.43.438.68 1.031.68 1.65s-.25 1.212-.68 1.65c-.44.437-1.03.683-1.65.683zm5.83-12.833h-18.67v-18.6668h16.34c.62.0004 1.21.2464 1.65.6839.43.4375.68 1.0307.68 1.6495zm-37.62 18.949c.22.217.48.389.76.506s.59.178.89.178c.31 0 .61-.061.9-.178.28-.117.54-.289.75-.506l1.65-1.65 1.65 1.65c.44.438 1.03.683 1.65.683s1.22-.245 1.65-.683c.44-.437.69-1.031.69-1.65 0-.618-.25-1.212-.69-1.649l-1.65-1.65 1.65-1.65c.44-.437.69-1.031.69-1.649 0-.619-.25-1.213-.69-1.65-.43-.438-1.03-.684-1.65-.684s-1.21.246-1.65.684l-1.65 1.649-1.65-1.649c-.43-.438-1.03-.684-1.65-.684-.61 0-1.21.246-1.65.684-.43.437-.68 1.031-.68 1.649 0 .619.25 1.213.68 1.65l1.65 1.65-1.65 1.649c-.21.217-.38.474-.5.757s-.18.587-.18.893c0 .307.06.61.18.893s.29.541.5.757z"/><path d="m764.333 14h-2.333v-7.00004c0-.30647-.06-.60996-.177-.89313-.118-.28318-.289-.54047-.506-.75718-.217-.2167-.474-.38857-.757-.50577-.284-.11719-.587-.17743-.893-.17725h-23.334c-.306-.00018-.61.06006-.893.17725-.283.1172-.54.28907-.757.50577-.217.21671-.389.474-.506.75718-.117.28317-.177.58666-.177.89313v7.00004h-2.333c-1.856.002-3.636.7401-4.948 2.0525-1.312 1.3123-2.05 3.0916-2.052 4.9475v14c.002 1.8559.74 3.6352 2.052 4.9475s3.092 2.0505 4.948 2.0525h2.333v7c0 .3064.06.6099.177.8931s.289.5405.506.7572.474.3886.757.5058.587.1774.893.1772h23.334c.306.0002.609-.06.893-.1772.283-.1172.54-.2891.757-.5058s.388-.474.506-.7572c.117-.2832.177-.5867.177-.8931v-7h2.333c1.856-.002 3.635-.7402 4.948-2.0525 1.312-1.3123 2.05-3.0916 2.052-4.9475v-14c-.002-1.8559-.74-3.6352-2.052-4.9475-1.313-1.3124-3.092-2.0505-4.948-2.0525zm-28 14c-.461 0-.912-.1369-1.296-.3933s-.683-.6208-.86-1.0471c-.176-.4264-.222-.8956-.132-1.3482s.312-.8684.638-1.1947c.327-.3263.742-.5485 1.195-.6386.453-.09.922-.0438 1.348.1328s.791.4757 1.047.8594c.257.3837.394.8348.394 1.2963 0 .6189-.246 1.2124-.684 1.65-.437.4375-1.031.6834-1.65.6834zm21 18.6666h-18.666v-7h18.666zm0-32.6666h-18.666v-4.6667h18.666z"/></g></svg>