<svg xmlns="http://www.w3.org/2000/svg" width="702" height="831" viewBox="0 0 702 831"><g transform="translate(62 -10)" opacity="0.12"><g transform="translate(-62 10)"><path d="M611.511,56.572c-26.483,5.681-29.643,26.925-33.655,53.85-4.514,30.061-10.081,67.46-50.608,97.285-20.313,14.912-39.774,24.262-59.536,28.582a117.989,117.989,0,0,1-53.567-.769c-34.107-8.166-66.307-29.943-97.5-50.95-29.191-19.706-59.386-40.121-91.887-50.181a136.123,136.123,0,0,0-50.909-6.273c-18.859,1.361-37.417,6.746-56.677,16.51-33.655,17.043-67.11,22.96-99.411,17.634A143.678,143.678,0,0,1,0,158.117v-1.834a147.767,147.767,0,0,0,18.006,4.2c32.05,5.326,65.2-.592,98.608-17.457,23.724-12.013,45.693-16.983,66.408-16.983,50.006,0,92.69,28.819,134.37,56.927,32.5,21.954,63.147,42.666,97.053,50.773a115.388,115.388,0,0,0,52.966.769c19.611-4.261,38.922-13.551,59.034-28.345,17.806-13.078,39.975-29.351,49.956-96.042,2.056-13.906,3.862-25.919,8.627-35.565,5.266-10.711,13.643-16.983,26.232-19.706,37.266-8.048,59.436-20.771,69.718-40.062A58.554,58.554,0,0,0,686.445,0H688a60.228,60.228,0,0,1-5.768,15.741C671.7,35.446,649.229,48.406,611.511,56.572Z" transform="translate(1 0)"/><path d="M582.335,37.147c-31.544,5.56-34.5,16.74-40.922,41.111-5.617,21.236-14.092,53.414-47.241,100.085C449.589,241.162,402.3,201.885,347.535,156.4c-55.515-46.138-118.453-98.37-195.282-60.749-29.438,14.433-59.126,21.531-88.313,21.236A174.628,174.628,0,0,1,0,103.871v-1.893A173.292,173.292,0,0,0,63.94,115.05c28.986.355,58.474-6.8,87.711-21.117,34.6-16.977,69.557-17.272,106.768-1.006,32.547,14.256,61.734,38.508,89.968,61.932,27.081,22.478,52.657,43.713,76.578,51.285,26.429,8.4,48.043-.828,68.053-29.044,32.948-46.434,41.373-78.376,46.94-99.493,6.419-24.371,9.679-36.615,42.176-42.353,19.007-3.372,30.892-11.653,35.355-24.607A41.451,41.451,0,0,0,619.5,0H621a40.009,40.009,0,0,1-2.106,11.3C614.18,25.021,601.893,33.657,582.335,37.147Z" transform="translate(1 0)"/><path d="M175.467,117.081c-13.937,10.928-32.637,10.574-55.548-1.241-18.2-9.333-39.1-25.874-62.166-49.03C34.191,43.064,13.135,17.072,0,0H2.005C15.14,17.072,35.7,42.355,58.706,65.511c22.961,23.1,43.716,39.519,61.765,48.794,22.41,11.519,40.608,11.992,54.094,1.359,31.333-24.633,47.978-66.22,62.667-102.9,1.755-4.312,3.409-8.565,5.114-12.7H244q-2.707,6.557-5.414,13.468C223.9,50.389,207.152,92.212,175.467,117.081Z" transform="translate(252 0)"/><path d="M74.628,54.973c-6.494,5.485-14.886,5.366-24.926-.358-7.892-4.531-16.834-12.521-26.574-23.79A320.8,320.8,0,0,1,0,0H1.948c15.585,23.194,51.3,70.833,71.78,53.542C86.966,42.333,94.708,20.093,101.4,0H103C96.207,20.451,88.414,43.347,74.628,54.973Z" transform="translate(313)"/><path d="M139.3,55.913c-12.891,3.889-26.234,7.9-38.222,12.667-29.745,11.96-64.206,1.885-87.881-8.661C8.527,57.857,4.113,55.677,0,53.5V51.553c4.264,2.239,8.878,4.537,13.744,6.717,23.425,10.428,57.534,20.386,86.828,8.6,11.988-4.831,25.381-8.838,38.323-12.726,29.093-8.72,56.581-16.968,58.487-31.934.8-6.3-2.909-13.669-11.236-22.212h2.207c7.875,8.543,11.336,15.967,10.534,22.507C196.83,38.65,170.195,46.6,139.3,55.913Z" transform="translate(1 0)"/><path d="M120.009,30.557a85.565,85.565,0,0,1-33.08-.359C66.36,26,26.124,12.582,0,3.535V1.678C26.124,10.725,66.61,24.206,87.229,28.46c10.96,2.217,22.821,2.4,32.579.359,14.113-2.936,19.067-9.107,20.769-13.841,1.551-4.254,1.151-9.287-1.151-14.979h1.7c2.2,5.872,2.452,11.144.8,15.7C138.575,24.925,128.166,28.879,120.009,30.557Z" transform="translate(1 0)"/><path d="M61.741,118.894c22.688-18.009,37.5-43.837,50.5-66.645C127,26.421,139.795,4.088,159.773.474A30.2,30.2,0,0,1,165.445,0c15.41,0,33.731,10.485,56.972,32.582,17.418,16.587,31.924,31.634,44.724,44.963,27.005,28.139,46.531,48.458,68.116,55.034,22.036,6.753,46.23-.355,83.475-24.466,30.419-19.727,66.71-33.293,99.488-37.2,15.259-1.836,29.113-1.481,40.106,1.126,11.6,2.725,19.727,7.642,24.094,14.691,5.973,9.656,7.429,27.606-19.727,58.351-32.477,36.788-69.421,41.231-108.523,45.911-25.9,3.08-52.705,6.339-79.761,19.194-30.619,14.514-57.173,39.75-81.217,77.012-17.769,27.546-38.5,40.579-60.034,37.676-14.657-1.955-29.063-11.078-42.817-27.013-13.8-16.113-26.252-38.328-36.894-66.052-7.931-20.556-16.665-31.1-26.855-32.167-22.036-2.31-47.535,41.409-72.131,83.706-12.3,21.149-25,42.949-37.095,58.588C11.093,350.048,5.371,356.031,0,360v-2.192c16.916-13.151,35.288-44.667,53.207-75.471,12.348-21.208,25.148-43.186,37.446-59.181,13.151-17.061,24.4-25.414,34.284-25.414.6,0,1.2.059,1.807.118,10.742,1.126,19.928,11.966,28.059,33.174,10.591,27.546,22.889,49.584,36.593,65.519,13.5,15.7,27.608,24.644,41.913,26.539,20.932,2.784,41.261-10.012,58.679-37.025,24.194-37.558,51-62.913,81.819-77.545,27.256-12.974,54.161-16.172,80.162-19.312,38.851-4.68,75.544-9.064,107.67-45.437,26.4-29.916,25.2-46.977,19.576-56.041-8.232-13.21-31.724-18.838-62.845-15.106-32.577,3.91-68.668,17.417-98.936,37.025-37.6,24.348-62.092,31.456-84.58,24.585-21.935-6.694-41.562-27.132-68.718-55.448-12.8-13.329-27.256-28.376-44.674-44.9-25.8-24.525-45.327-34.6-61.49-31.693C140.648,5.628,128.049,27.665,113.442,53.2c-13.1,22.926-27.959,48.873-50.9,67.119C43.52,135.422,25.4,143,8.483,143A57.9,57.9,0,0,1,0,142.353v-1.777C19.024,143.6,39.755,136.311,61.741,118.894Z" transform="translate(1 238)"/><path d="M28.125,18.072c23.212-.415,49.181-5.924,72.093-10.723,32.838-6.932,58.707-12.382,61.916.178,4.813,18.839-10.829,34.421-36.8,60.192-18.6,18.484-41.812,41.471-66.628,74.528-18.65,24.823-37.25,36.079-55.2,33.354-1.1-.178-2.256-.415-3.509-.711v-1.837c1.2.3,2.457.592,3.71.77,17.447,2.607,35.545-8.413,53.894-32.762C82.521,107.886,105.733,84.84,124.382,66.3,149.851,41,165.242,25.715,160.73,8,157.922-3.018,131.3,2.61,100.519,9.067,67.28,16.058,28.276,24.293.05,17.184V15.347A105.339,105.339,0,0,0,28.125,18.072Z" transform="translate(1 165)"/><path d="M94.055,0c12.994,0,20.29,2.788,21.69,8.424,3.1,12.281-22.739,34.41-38.482,46.513C55.024,72.083,28.536,88.22,14.293,93.381A74.749,74.749,0,0,1,.05,97V95.22a74.762,74.762,0,0,0,13.793-3.56c14.143-5.1,40.481-21.12,62.57-38.207,25.738-19.875,39.881-36.486,37.832-44.5-2-7.831-19.791-9.255-50.126-4.034A477.676,477.676,0,0,0,0,21.061V19.222A476.7,476.7,0,0,1,63.87,3.144C76.114,1.068,86.109,0,94.055,0Z" transform="translate(1 192)"/><path d="M29.812,0c6.033,0,9.4,1.371,10.055,4.113C41.275,9.6,31.22,18.718,22.523,25.395A159.437,159.437,0,0,1,0,40V38.033A162.414,162.414,0,0,0,21.718,23.845C32.879,15.261,39.264,7.869,38.409,4.59,37.052-.715,16.892,2.265,0,6.736V4.948C5.078,3.636,10.759,2.325,16.289,1.371A87.441,87.441,0,0,1,29.812,0Z" transform="translate(1 224)"/><path d="M39.415,0a14.158,14.158,0,0,0-4.208.593C22.928,4.208,13.157,14.472,6.95,30.275.669,46.438-1.41,67.253.938,90.47a164.231,164.231,0,0,0,18.237,60.135C54.1,216.076,83.1,251.976,105.4,257.308a24.23,24.23,0,0,0,5.635.692,21.174,21.174,0,0,0,13.754-5.135c21.228-17.438,35.073-34.411,47.289-49.386l.456-.558.109-.134c18.9-23.174,33.821-41.478,66.523-52.063,10.456-3.383,17.949-6.554,22.908-9.694a20.377,20.377,0,0,0,5.428-4.644,6.414,6.414,0,0,0,1.473-4.561c-.249-2.328-2.139-4.449-5.618-6.3s-8.615-3.48-15.274-4.836c-13.1-2.631-31.824-4.208-54.158-4.562-16.977-.3-34.578-8.107-53.806-23.876-16.939-13.951-32.825-32-46.842-47.93l-.006-.007C82.91,32.536,73.128,21.415,64.124,13.292A73.427,73.427,0,0,0,51.182,3.6C46.856,1.177,43.007,0,39.415,0Zm71.642,256.242a23.847,23.847,0,0,1-5.31-.652c-5.434-1.312-11.374-4.551-17.656-9.628a139.753,139.753,0,0,1-20.15-20.92,344.713,344.713,0,0,1-22.564-32.129c-7.891-12.53-16.268-27.083-24.9-43.255A162.177,162.177,0,0,1,2.491,90.233C.191,67.347,2.235,46.88,8.4,31.046c5.967-15.36,15.374-25.3,27.2-28.734a14.131,14.131,0,0,1,3.858-.534c3.434,0,7.149,1.164,11.357,3.558a73.443,73.443,0,0,1,12.653,9.579c8.842,8.028,18.509,19.013,28.744,30.644,13.258,15.12,29.757,33.938,47.044,48.11C158.817,109.679,176.7,117.6,193.921,117.9c22.27.354,40.91,1.931,53.907,4.562,7.284,1.483,12.657,3.255,15.969,5.266,2.858,1.735,3.6,3.313,3.72,4.332.3,2.924-3.319,6.278-10.765,9.969a139.258,139.258,0,0,1-17.942,7.035,109.078,109.078,0,0,0-38.94,21.6c-10.331,8.925-19.08,19.68-28.343,31.067l-.2.248c-12.219,14.981-26.068,31.961-47.343,49.461a21.675,21.675,0,0,1-6.162,3.6A19.366,19.366,0,0,1,111.057,256.242Z" transform="translate(133 271)"/><path d="M136.047,0c-7.3,0-17.285,1.089-30.531,3.329A677.731,677.731,0,0,0,39.234,18.668c-6.73,1.935-12.321,3.766-17.092,5.6a78.081,78.081,0,0,0-11.9,5.558,27.313,27.313,0,0,0-7.183,5.792,12.563,12.563,0,0,0-2.941,6.3c-1.153,8.009,6.154,17.7,23,30.5a31.741,31.741,0,0,0,9.49,4.936A36.322,36.322,0,0,0,43.7,79a55.078,55.078,0,0,0,15.068-2.309c11.5-3.27,24.608-10.05,38.965-20.154C121.708,39.662,141.3,19,142.123,18.132a36.457,36.457,0,0,0,7.4-7.758c1.431-2.253,1.819-4.149,1.187-5.8-.6-1.515-2.132-2.668-4.545-3.426A35.272,35.272,0,0,0,136.047,0ZM43.7,77.286A34.854,34.854,0,0,1,33.045,75.7a30.574,30.574,0,0,1-9.076-4.711C16,64.921,10.093,59.458,6.413,54.747A26.908,26.908,0,0,1,2.439,48.1a11.381,11.381,0,0,1-.816-5.714c1.409-10.06,19.981-16.7,37.962-21.877C56.527,15.635,75.254,11.084,92.317,7.7c19.044-3.781,34.333-5.78,44.214-5.78,7.586,0,11.883,1.175,12.772,3.493.5,1.313.124,4.542-8.084,11.415l-.05.059c-.012.01-.087.089-.225.232-4.951,5.141-22.752,23.073-43.964,37.994C82.728,65.128,69.77,71.829,58.466,75.027A54.967,54.967,0,0,1,43.7,77.286Z" transform="translate(420 333)"/><path d="M388,2.6a157.161,157.161,0,0,1-12.252,13.374c-17.575,17.1-39.869,31.187-66.282,41.9-32.99,13.374-72.508,21.541-117.449,24.263-25.709,1.539-75.019,6.924-116.646,25.8-43.836,19.825-68.14,49.118-72.157,87.052-4.67,43.911-.1,71.133,14.411,85.75,15.867,15.978,44.59,16.688,87.773,2.012,29.977-10.179,54.23-24.145,73.713-35.389,19.232-11.126,34.446-19.884,48-21.423,14.713-1.657,26.211,5.385,37.258,22.843,7.03,11.126,12.6,21.66,17.524,30.951,9.892,18.76,17.073,32.312,28.772,37.342,12.352,5.326,29.074.828,55.988-15.031A185.151,185.151,0,0,0,388,287.314v2.13a189.4,189.4,0,0,1-20.638,14.2c-27.316,16.1-44.389,20.594-57.193,15.15-12.2-5.267-19.433-19-29.525-38.052-4.871-9.232-10.444-19.707-17.424-30.832-22.7-35.922-45.544-22.725-83.4-.888-19.533,11.3-43.887,25.329-73.964,35.507-43.736,14.795-72.91,14.025-89.179-2.367C1.758,267.134-2.962,239.379,1.758,194.817c4.117-38.644,28.722-68.411,73.111-88.532,41.828-18.937,91.338-24.323,117.1-25.92,44.79-2.663,84.107-10.83,116.947-24.145,26.211-10.652,48.355-24.618,65.78-41.544A154.637,154.637,0,0,0,388,0V2.6Z" transform="translate(314 365)"/><path d="M358,2.314a276.457,276.457,0,0,1-37.915,27.892c-41.175,25.518-89.723,43.262-136.616,49.909-47.495,6.765-82.15,14.183-109.032,23.441-34.355,11.75-56.021,26.408-66.252,44.687-6.921,12.4-8.426,26.705-4.564,42.61,2.909,11.75,8.225,19.524,16.3,23.738,27.333,14.361,79.743-15.726,125.984-42.253,16.9-9.733,32.9-18.872,46.492-25.162,22.92-10.623,37.013-13,47.144-7.833,9.78,4.985,15.4,16.5,23.12,32.462a342.427,342.427,0,0,0,17.353,32.462c7.924,12.818,17.955,19.524,29.841,19.94,16.249.534,33.853-10.8,48.147-23.263v2.2c-22.218,19.168-38.216,23.144-48.147,22.848-12.338-.415-22.769-7.359-30.994-20.652-7.473-12.047-12.739-23.026-17.453-32.64-15.146-31.156-22.067-45.4-68.458-23.857-13.541,6.291-29.49,15.43-46.391,25.1-46.542,26.705-99.3,56.971-127.237,42.253C10.893,211.8,5.125,203.375,2.166,191.268c-4.012-16.379-2.457-31.215,4.714-44.093,10.482-18.575,32.4-33.47,67.154-45.339,26.982-9.258,61.738-16.676,109.283-23.441,46.692-6.647,95.039-24.331,136.064-49.731A274.568,274.568,0,0,0,358,0Z" transform="translate(344 403)"/><path d="M147.95,2.426c-28.608,29.291-67.405,41.007-97.82,50.12C20.618,61.422-.663,67.813,1.646,85.092c.652,5.03,6.575,4.675,16.964,3.61,9.636-.947,21.582-2.189,32.874,2.308,13.351,5.326,22.535,17.338,28.056,36.747,3.865,13.61,10.038,21.421,18.269,23.078,15.057,3.077,34.832-14.2,50.19-31.362v2.485c-.4.414-.753.888-1.154,1.3-20.277,22.013-36.839,31.895-49.287,29.35-8.833-1.775-15.358-9.941-19.424-24.261C65.99,85.683,37.582,88.583,18.761,90.477,8.522,91.542,1.094,92.252.19,85.328-.964,76.571,3.1,69.825,13.139,64.2c8.934-5.03,21.782-8.935,36.639-13.373C80.444,41.6,119.542,29.824,148,0V2.426Z" transform="translate(554 430)"/><path d="M54,2.142A180.951,180.951,0,0,0,24.508,30.758c-13.7,16.6-21.844,31.947-22.894,43.311-.55,6.128,1,11.006,4.7,14.457C19.31,100.661,40.5,80.434,54,64.311V66.87c-2.8,3.272-5.848,6.663-9.048,9.876C37.5,84.182,30.606,89.3,24.558,91.916c-7.7,3.332-14.2,2.677-19.195-2.023C1.265,86.086-.485,80.672.115,73.83,2.214,50.628,31.456,16.658,54,0V2.142Z" transform="translate(648 446)"/><path d="M151.407,0c-10.537,0-25.5,2.106-41.042,5.777-33.41,7.839-65.276,21.151-85.24,35.61-22.456,16.275-30.063,33.909-22,51A15.7,15.7,0,0,0,13.8,101.228a25.459,25.459,0,0,0,6.479.772,53.226,53.226,0,0,0,14.66-2.443,129.714,129.714,0,0,0,18.6-7.311c13.659-6.469,30.08-16.26,48.806-29.1C130.321,44,154.96,23.691,161.845,17.925l.285-.238c5.92-5.209,8.027-9.533,6.264-12.853-.958-1.662-2.994-2.915-6.051-3.721A44.28,44.28,0,0,0,151.407,0ZM20.164,100.225a24.347,24.347,0,0,1-6.064-.707,14.267,14.267,0,0,1-9.671-7.959,28.41,28.41,0,0,1,.2-25.646c3.74-7.743,10.888-15.479,21.247-22.992C45.761,28.529,77.439,15.305,110.615,7.547c14.257-3.355,27.729-5.365,37.935-5.66.924-.027,1.83-.041,2.693-.041,11.756,0,14.976,2.537,15.848,4.05.72,1.3.385,3-1,5.07a28.523,28.523,0,0,1-4.867,5.247c-.053.046-6.376,5.408-16.749,13.6-9.1,7.182-23.191,18.014-38.693,28.827C88.454,70.728,72.9,80.356,59.548,87.256A160.475,160.475,0,0,1,38.1,96.661C31.153,99.026,25.119,100.225,20.164,100.225Z" transform="translate(368.001 501)"/><path d="M75.339,0c-6.616,0-17.4,2.682-23.244,4.28-16.753,4.7-32.255,11.452-41.468,18.06-9.277,6.677-12.5,13.187-9.589,19.35a5.476,5.476,0,0,0,3.515,2.932A9.815,9.815,0,0,0,7.4,45c3.7,0,8.966-1.51,15.658-4.487A219.374,219.374,0,0,0,47.577,27.149c9.479-5.826,20.038-12.918,30.535-20.51.367-.265.568-.411.591-.424l.143-.132c.87-.8,2.907-2.675,1.865-4.5C80.117.518,78.361,0,75.339,0ZM7.365,43.215a8.21,8.21,0,0,1-2.51-.352,3.87,3.87,0,0,1-2.56-2.052c-2.462-5.165.578-10.867,9.036-16.946C20.408,17.3,35.76,10.619,52.4,5.981,62.051,3.294,70.5,1.753,75.589,1.753c2.183,0,3.556.294,3.866.827.064.148-.1.865-1.657,2.169-.117.088-13.535,9.929-29.1,19.629A250.065,250.065,0,0,1,25.648,37.353C17.564,41.243,11.412,43.215,7.365,43.215Z" transform="translate(400 527)"/><path d="M15.8,0A12.822,12.822,0,0,0,7.719,2.642,16,16,0,0,0,3.2,8.525C-10.143,36.507,20,126.685,61.007,161.856,71.2,170.577,80.561,175,88.818,175a21.945,21.945,0,0,0,4.844-.534c7.747-1.775,14.41-7.77,19.8-17.819a65.25,65.25,0,0,0,7.5-32.917,66.132,66.132,0,0,0-9.351-32.323l-1.551-2.546-.091-.149C90.907,57.335,71.191,24.89,28.253,3.493,23.592,1.175,19.4,0,15.8,0Zm73.01,173.223A29.691,29.691,0,0,1,76.109,170a66.563,66.563,0,0,1-14.2-9.62C43.35,144.446,25.1,115.033,13.1,81.7,7.576,66.348,3.845,51.439,2.312,38.584.777,25.711,1.533,15.623,4.5,9.412A14.006,14.006,0,0,1,9.136,3.7,11.564,11.564,0,0,1,15.749,1.8c3.375,0,7.38,1.149,11.9,3.414A161.611,161.611,0,0,1,42.6,13.672a152.982,152.982,0,0,1,13.048,9.354A160.018,160.018,0,0,1,77.1,43.846c12.629,14.669,22.329,30.668,31.71,46.14l1.551,2.546a63.924,63.924,0,0,1,9.1,31.317,63.093,63.093,0,0,1-7.25,31.85,42.364,42.364,0,0,1-8.6,11.47,22.739,22.739,0,0,1-10.208,5.521A20.028,20.028,0,0,1,88.811,173.223Z" transform="translate(154.003 312)"/><path d="M8.909,0A7.572,7.572,0,0,0,4.259,1.461a9.021,9.021,0,0,0-2.62,3.285C-1.816,11.974.278,27.272,7.1,44.671c7.162,18.14,17.865,34.462,28.631,43.662C41.7,93.42,47.186,96,52.026,96a13.116,13.116,0,0,0,2.862-.312c4.605-1.018,8.536-4.53,11.682-10.441a39.144,39.144,0,0,0-1.1-38.145C59.154,36.726,53.31,29.177,46.521,22.625A101.05,101.05,0,0,0,33.534,12.057,138.526,138.526,0,0,0,16.631,2.2,17.988,17.988,0,0,0,8.909,0ZM52.03,94.2a16.924,16.924,0,0,1-7.264-1.854,38.868,38.868,0,0,1-8.129-5.5C26.049,77.766,15.533,61.71,8.508,43.9,2,27.317-.164,12.275,2.993,5.576a6.161,6.161,0,0,1,5.919-3.85A16.8,16.8,0,0,1,16.079,3.8C41.447,16.432,53.324,30.12,64.265,48.111a36.96,36.96,0,0,1,1.053,36.128,24.582,24.582,0,0,1-4.889,6.525,12.877,12.877,0,0,1-5.791,3.144A12.518,12.518,0,0,1,52.03,94.2Z" transform="translate(180.001 354)"/><path d="M3.021,0A5.423,5.423,0,0,1,5.4.641,30.5,30.5,0,0,1,19.333,13.393a11.478,11.478,0,0,1,.347,11.3,5.829,5.829,0,0,1-3.619,3.2c-1.686.408-3.669-.349-5.8-2.155C3.764,20.206-1.789,6.464.542,1.63A2.665,2.665,0,0,1,3.021,0Z" transform="translate(205 388)"/><path d="M3.021-2.5a7.9,7.9,0,0,1,3.485.9,35.64,35.64,0,0,1,9.157,6.228,36.118,36.118,0,0,1,5.8,7.457,13.943,13.943,0,0,1,.41,13.808,8.264,8.264,0,0,1-5.221,4.43,6.427,6.427,0,0,1-1.51.178c-2.074,0-4.26-.96-6.5-2.854l-.006,0c-3.345-2.849-6.66-7.815-8.866-13.284A32.527,32.527,0,0,1-2.311,7.013,11.305,11.305,0,0,1-1.71.545L-1.7.518A5.155,5.155,0,0,1,3.021-2.5Zm12.12,28a1.4,1.4,0,0,0,.332-.038c.263-.064,1.073-.261,2.016-1.976a8.988,8.988,0,0,0-.284-8.781l0-.007A27.95,27.95,0,0,0,4.3,2.884l0,0A3,3,0,0,0,3.021,2.5a.5.5,0,0,0-.087.006.864.864,0,0,0-.147.223c-.6,1.276-.352,4.866,1.622,9.758,1.89,4.683,4.751,9.031,7.469,11.346C12.616,24.457,14.017,25.5,15.141,25.5Z" transform="translate(205 388)" fill="#575757"/><path d="M506.849,1.661A184.428,184.428,0,0,0,466.2,8.185c-16.26,4.686-29.91,11.744-40.55,20.879C412.6,40.275,404.02,54.748,400.055,72.186c-5.52,24.5-14.253,47.63-25.243,66.966-12.9,22.718-28.706,40.215-47.074,52.078-33.775,21.887-74.876,23.963-122.1,6.169-57.211-21.531-101.726-44.13-134.246-60.679C29.888,115.664,7,104.038,1.785,116.791a5.247,5.247,0,0,0-.1,3.618c2.961,9.668,27.5,22.836,55.957,38.021,21.178,11.329,45.217,24.2,64.137,37.843,21.881,15.778,33.373,30.073,35.13,43.656,2.459,19.1,8.983,32.5,18.819,38.733,11.191,7.058,26.5,5.22,45.568-5.457C256.324,253.63,341.84,230.26,393.782,230.26c17.916,0,31.868,2.788,38.342,9.49,3.914,4.033,5.019,9.312,3.262,15.718-5.771,21.175.9,43.063,15.507,50.833,18.318,9.728,38.542-4.389,55.957-26.988v2.966q-10.238,12.99-20.727,20.286c-12.8,8.957-25.544,10.855-35.832,5.338-15.307-8.126-22.332-30.9-16.31-52.968,1.556-5.694.6-10.261-2.81-13.82-10.79-11.151-45.669-12.1-95.754-2.551-43.26,8.245-89.882,23.133-113.419,36.3-19.522,10.914-35.28,12.693-46.873,5.4-10.288-6.465-17.063-20.345-19.622-40.038-3.814-29.479-56.258-57.595-98.413-80.134C27.178,144.076,3.541,131.442.38,121.062a7.06,7.06,0,0,1,.151-4.982c2.81-6.881,9.686-8.067,22.383-3.855,11.693,3.915,28.254,12.278,49.182,22.9,32.47,16.49,76.984,39.088,134.1,60.62,46.823,17.617,87.523,15.6,120.947-5.991,18.117-11.744,33.775-29.064,46.522-51.485C384.548,119.045,393.23,96.09,398.7,71.83c4.015-17.794,12.8-32.623,26.147-44.071,10.79-9.253,24.641-16.371,41.1-21.175A181.679,181.679,0,0,1,507,0V1.661Z" transform="translate(195 50)"/><path d="M159.95,5.865C136.442-.592,117.908.415,103.642,8.886,82.6,21.445,73.354,48.814,66.523,76.539,59.29,105.8,38.545,127.427,21.869,144.784c-11.2,11.67-20.042,20.853-20.443,28.2a8.316,8.316,0,0,0,1.808,5.628c4.571,6.043,19.137,2.251,37.622-2.547,14.818-3.851,33.3-8.649,52.54-9.952,8.891-.592,14.717,1.185,17.882,5.45,4.521,6.161,2.813,16.469,1,27.369-2.562,15.225-5.174,30.924,7.032,39.573a14.068,14.068,0,0,0,13.411,1.777c8.137-2.9,17.43-12.5,27.275-27.962v3.021c-8.037,12.322-17.43,23.282-26.823,26.6a15.18,15.18,0,0,1-14.617-1.9c-13.11-9.3-10.247-26.362-7.735-41.468,1.758-10.486,3.416-20.379-.653-25.888-2.813-3.791-8.288-5.391-16.676-4.8-19.137,1.3-37.521,6.1-52.289,9.952-19.64,5.095-33.855,8.827-39.028,2.014a10.249,10.249,0,0,1-2.16-6.931c.4-8.057,9.443-17.476,20.946-29.383,16.526-17.18,37.12-38.625,44.2-67.416C72.1,48.044,81.441,20.26,103.04,7.405,111.328,2.488,121.022,0,132.223,0A105.534,105.534,0,0,1,160,4.147V5.865Z" transform="translate(542 82)"/><path d="M91,5.455C79.185,1.838,64.766-.237,53.05,5.04,44.439,8.894,38.181,16.365,34.476,27.157,29.369,42.1,20.408,55.974,13.2,67.121,6.089,78.09-.019,87.577,1.883,91.847c1.2,2.668,5.557,3.676,13.317,3.143l2.6-.178c23.23-1.66,34.946-2.49,40.7,3.736,2.8,3.024,4.155,7.768,4.306,15.3.25,10.376,4.906,19.033,11.615,21.583,5.007,1.9,10.664.415,16.572-4.091v2.194c-7.61,5.455-13.518,4.921-17.022,3.558-7.31-2.787-12.416-12.1-12.667-23.243-.15-7-1.352-11.325-3.8-13.993C52.2,94.1,40.033,94.989,17.9,96.59l-2.6.178C6.74,97.361,2.084,96.056.531,92.677c-2.353-5.277,3.4-14.231,11.415-26.682C19.106,54.906,28.017,41.15,33.024,26.445,36.879,15.179,43.438,7.412,52.449,3.32A41.353,41.353,0,0,1,69.372,0,76.537,76.537,0,0,1,90.95,3.5V5.455Z" transform="translate(611 128)"/><path d="M35,1.79C22.858,1.432,5.656,3.222,2.418,15.75.445,23.386,1.811,30.784,6.162,36.571,12.031,44.387,22.4,48.443,35,48.2v1.79c-13.053.179-23.829-4.057-29.951-12.23C.293,31.44-1.174,23.446.951,15.213,3.278,6.264,11.879,1.193,26.5.179,28.423.06,30.345,0,32.167,0c.961,0,1.872,0,2.783.06V1.79Z" transform="translate(667 165)"/><path d="M55.33,18.034C74.361,8.839,92.536,0,104.82,0a16.33,16.33,0,0,1,8.559,2.076c3.323,2.017,5.437,5.636,6.344,10.678,2.165,11.864-8.559,23.314-24.821,40.636C78.791,70.534,56.74,93.966,37.256,129.085,24.065,152.873,11.58,168.178.05,175v-1.958C11.177,166.22,23.209,151.271,36,128.136,55.632,92.78,77.734,69.288,93.9,52.085c15.859-16.907,26.381-28.059,24.367-38.915-.856-4.568-2.668-7.653-5.588-9.432-10.422-6.466-32.926,4.449-56.74,16.017C40.226,27.347,23.965,35.237,9.868,38.8A67.737,67.737,0,0,1,0,40.576V38.8a63.6,63.6,0,0,0,9.566-1.72C23.512,33.458,39.673,25.627,55.33,18.034Z" transform="translate(1 367)"/><path d="M47.581,0c5.176,0,8.461,1.533,9.8,4.541,3.285,7.548-6.62,21.937-29.514,42.93C17.519,56.906,6.769,65.634,0,71V68.936C22.646,51.068,61.268,17.278,56.092,5.366,55,2.831,52.011,1.71,47.83,1.71c-11,0-30.51,7.43-47.83,15.332V15.155c3.733-1.71,7.665-3.42,11.646-5.071C27.822,3.361,39.867,0,47.581,0Z" transform="translate(1 417)"/><path d="M6.314,0C2.6,0,.761.656.167,2.2-.841,4.923,2.8,8.852,8.829,15.361l0,0C15.275,22.3,24.1,31.795,29.792,43.127a114.532,114.532,0,0,0,8.615,14.534,50.917,50.917,0,0,0,7.213,8.226,44.918,44.918,0,0,0,8.368,6.07,40.25,40.25,0,0,0,9.194,3.757A37.428,37.428,0,0,0,72.874,77a36.991,36.991,0,0,0,4.177-.238c4.265-.5,7.517-1.655,9.667-3.426A9.041,9.041,0,0,0,90,66.085C90.1,45.862,37.859,3.62,14.324.652A60.161,60.161,0,0,0,6.314,0ZM72.97,75.161a36.269,36.269,0,0,1-9.377-1.242A38.909,38.909,0,0,1,54.713,70.3a43.453,43.453,0,0,1-8.078-5.847,49.356,49.356,0,0,1-6.968-7.915,110.518,110.518,0,0,1-8.465-14.3C25.459,30.772,16.589,21.22,10.113,14.245l-.172-.185-.233-.252C5.468,9.223,1.084,4.481,1.678,2.966,1.965,2.195,3.516,1.8,6.289,1.8a66.412,66.412,0,0,1,7.985.63c10.75,1.36,28.747,11.489,45.849,25.8A134.66,134.66,0,0,1,80.968,49.445c5.01,6.653,7.645,12.387,7.62,16.581a7.314,7.314,0,0,1-2.935,6.006c-1.917,1.476-4.812,2.449-8.6,2.892A31.516,31.516,0,0,1,72.97,75.161Z" transform="translate(235.001 235)"/><path d="M49.049,98.311C60.345,73.763,72.444,48.5,84.242,30.063,97.245,9.843,108.541,0,118.832,0h.3c10.242.178,19.278,9.9,27.612,29.588C164.267,70.917,185,96.176,206.739,102.521c14.86,4.329,30.122.059,45.334-12.808,11.7-9.9,20.031-13.163,25.353-10.021,7.882,4.625,8.334,21.88,8.836,41.8.552,21.88,1.155,46.724,12.25,58.109,5.171,5.277,12.1,7.234,21.186,6.048,23.8-3.2,46.439,1.067,65.466,12.215a97.162,97.162,0,0,1,40.464,46.843c7.982,19.034,10.292,40.5,6.778,61.963A128.982,128.982,0,0,1,425.126,333h-1.707c11.748-29.292,12.4-60.125.9-87.519a95.407,95.407,0,0,0-39.761-46.013c-18.776-11.029-41.167-15.179-64.662-12.037-9.388,1.245-16.919-.889-22.341-6.463-11.6-11.859-12.2-37.119-12.8-59.354-.452-18.559-.9-36.111-7.982-40.261-4.82-2.846-12.6.415-23.847,9.9-15.613,13.163-31.277,17.551-46.589,13.1-22.19-6.522-43.276-32.079-60.947-73.881-8.083-19.034-16.668-28.4-26.257-28.58h-.3c-21.839,0-45.786,48.088-68.478,97.421C36.448,129.559,19.529,150.313,0,161.341v-1.957C19.027,148.237,35.494,127.84,49.049,98.311Z" transform="translate(1 497)"/><path d="M67.8,0c8.676,0,16.3,1.478,22.567,4.494C104.659,11.353,111.78,25.368,111.53,46.3c-.251,20.519,4.413,35.775,14.242,46.6,24.222,26.846,76.376,22.234,131.639,17.266,8.124-.71,16.549-1.478,24.823-2.129,8.074-.65,15.5-.946,22.316-.946,31.142,0,48.794,6.564,52.656,19.632,2.708,9.225-1.805,20.4-9.027,31.281h-1.956c7.422-10.821,12.136-21.879,9.578-30.749-4.413-15.019-29.086-20.933-73.417-17.5-8.274.65-16.7,1.419-24.823,2.129-55.564,4.967-108.069,9.638-132.792-17.74-10.13-11.235-14.944-26.9-14.693-47.956.251-20.1-6.569-33.646-20.21-40.15-17.552-8.4-46.086-4.553-78.382,10.525C7.623,18.331,3.811,20.282,0,22.293V20.341c3.611-1.951,7.271-3.784,10.932-5.44C32.045,5.085,51.7,0,67.8,0Z" transform="translate(1 671)"/><path d="M39.142.118c18.043,1.3,33.329,12.5,45.507,33.289l2,3.436c14.785,25.233,22.2,37.909,33.178,43.181s25.861,3.376,55.531-.474c3.609-.474,7.468-.948,11.527-1.481,35.133-4.5,60.593-5.983,77.834-4.561,16.589,1.362,26.011,5.331,29.62,12.5,2.205,4.383,2.1,9.714.3,15.993h-1.554c1.8-6.042,2-11.077-.05-15.1-3.308-6.575-12.58-10.366-28.417-11.669-17.14-1.362-42.5.118-77.583,4.62-4.06.533-7.919,1.007-11.527,1.481-29.921,3.909-44.906,5.864-56.283.355S100.337,63.38,85.4,37.85l-2-3.436C71.469,14.1,56.584,3.139,39.042,1.9,30.021,1.244,16.94,3.08,0,12.439V10.484C14.885,2.369,26.813,0,35.684,0,36.887,0,38.04.059,39.142.118Z" transform="translate(1 727)"/><path d="M59.477,4.294c7.147,3.941,12.045,10.647,14.494,19.941A129.265,129.265,0,0,1,77.82,64h-1.5a127.38,127.38,0,0,0-3.8-39.235c-2.349-8.824-7-15.176-13.745-18.882C42.733-3,17.743,4.294,0,11.471V9.588C11.945,4.765,27.039,0,40.634,0,47.481.059,53.979,1.235,59.477,4.294Z" transform="translate(1 765)"/><path d="M309.454,249.281c-9.99-23.163-53.967-20.023-54.469-19.964-24.649,0-47.541,2.073-67.723,3.969-30.021,2.784-55.975,5.154-75.153-.711-10.141-3.08-18.023-8.353-24.047-16.054-6.526-8.294-10.944-19.49-13.555-34.122-8.685-48.932-31.427-54.8-49.75-59.477-11.044-2.844-20.583-5.272-23.746-16.883-2.862-10.6.452-31.693,8.534-53.73C18.182,28.672,29.929,10.367,40.974,3.377A19.78,19.78,0,0,1,51.466,0c6.426,0,12.5,4.028,17.822,11.907,8.083,11.966,14.659,25,21.035,37.617,11.9,23.577,22.139,43.9,38.053,48.458,9.789,2.784,21.185-.652,34.74-10.663,17.972-13.21,30.422-17.357,38.1-12.677,9.538,5.805,10.492,23.755,11.5,42.83,1.355,25.592,2.761,52.072,25.051,50.887,5.121-.237,10.04-.415,14.81-.415,48.194,0,79.47,13.447,92.974,40.105,10.643,20.912,7.932,46.148,3.815,63.564A170.048,170.048,0,0,1,342.789,293h-1.657a166.09,166.09,0,0,0,6.777-21.919c7.279-30.982,2.008-50.887-3.665-62.143-14.559-28.672-50.4-41.764-106.428-38.861-10.693.533-17.822-4.8-21.788-16.35-3.464-10.012-4.167-23.34-4.819-36.255-.954-18.542-1.908-36.018-10.693-41.349-7.179-4.384-19.127-.237-36.648,12.618-13.956,10.248-25.7,13.8-35.894,10.841-16.516-4.739-26.959-25.355-39.007-49.288-6.325-12.559-12.9-25.532-20.934-37.38C60.2,1.363,51.315-1.3,41.576,4.858,30.833,11.67,19.286,29.62,10.8,52.9,3.021,74.227-.393,95.317,2.318,105.388c2.912,10.663,11.6,12.914,22.641,15.7,9.237,2.37,19.679,5.035,29.017,13.447,10.793,9.715,17.972,25.236,21.888,47.451,4.87,27.546,16.115,42.593,36.5,48.814,8.534,2.607,18.525,3.554,29.619,3.554,13.454,0,28.665-1.422,45.031-2.9,20.231-1.836,43.124-3.969,67.773-3.969h.05a108.682,108.682,0,0,1,23.846,1.244c16.868,2.844,27.611,9.478,32.029,19.668,4.769,11.078,1.707,26.006-9.137,44.548h-1.807C310.81,274.576,314.023,259.944,309.454,249.281Z" transform="translate(61 537)"/><path d="M293.52,197.606c-8.233-12.165-33.134-17.209-71.94-14.6a457.907,457.907,0,0,0-57.03,7.774,90.524,90.524,0,0,1-35.594-.771,66.232,66.232,0,0,1-28.716-13.945c-9.99-8.426-17.37-20.057-21.888-34.537C69.616,113.46,59.827,94.293,48.381,82.9c-9.94-9.91-19.629-12.521-28.666-14.361C6.512,65.869,2.044,55.9.638,48.007-2.173,32.578,4.6,11.75,15.146,3.382A13.971,13.971,0,0,1,23.731,0a11.9,11.9,0,0,1,7.581,2.908c9.89,7.952,20.031,23.262,30.774,39.4,20.432,30.8,41.568,62.6,62.8,46.642,3.113-2.314,6.125-4.629,8.986-6.884,15.563-12.046,27.913-21.6,35.694-17.09,4.619,2.67,7.229,9.732,8.183,22.312,1.958,25.991,5.572,45.574,16.868,56.611,8.032,7.892,19.479,10.8,35.041,9.02,43.576-5.044,72.292,4.095,85.395,27.06,10.492,18.4,8.685,42.31,5.321,59.163A179.909,179.909,0,0,1,313.8,263H312.2a177.854,177.854,0,0,0,6.727-24.271c3.263-16.5,5.02-39.877-5.121-57.739-12.751-22.372-41.016-31.213-83.989-26.288-15.964,1.84-27.762-1.246-36.146-9.435-11.647-11.453-15.412-31.391-17.42-57.858-.9-11.75-3.263-18.574-7.33-20.888-7.028-4.035-19.027,5.222-34.188,16.972-2.912,2.255-5.924,4.569-9.036,6.884-10.091,7.6-20.985,5.7-33.284-5.815C81.665,74.592,71.122,58.688,60.931,43.319,50.288,27.238,40.2,12.106,30.508,4.273,24.836-.3,19.514,2.018,16,4.807,5.909,12.818-.567,32.816,2.094,47.592,3.449,54.95,7.616,64.266,19.966,66.759c9.237,1.9,19.127,4.569,29.369,14.776,11.647,11.631,21.587,31.035,30.423,59.4,4.418,14.183,11.6,25.517,21.286,33.706a65.747,65.747,0,0,0,28.113,13.648,88.131,88.131,0,0,0,19.428,2.136,84.519,84.519,0,0,0,15.663-1.365,461.127,461.127,0,0,1,57.231-7.774c39.861-2.67,64.51,2.433,73.2,15.251,8.585,12.64,10.593,29.611,5.773,49.253A119.563,119.563,0,0,1,294.725,263h-1.707a111.4,111.4,0,0,0,5.974-17.684C302.255,231.965,303.962,212.975,293.52,197.606Z" transform="translate(80 567)"/><path d="M42.881,0c-3.317,0-7.091,4.6-11.869,10.43l-.081.1C26.42,16.037,21.306,22.281,15.1,26.706A41.67,41.67,0,0,0,3.578,38.423,23.069,23.069,0,0,0,.012,51.389,27.054,27.054,0,0,0,3.122,62.657,46.14,46.14,0,0,0,9.877,72.34a66.243,66.243,0,0,0,7.773,7.387A53.834,53.834,0,0,0,23.812,84.1,20.714,20.714,0,0,0,34.162,87a18.865,18.865,0,0,0,6.379-1.113C45.883,83.979,49.9,80,52.49,74.05c7.769-17.906.9-49.348-3.883-66.5C47.358,3.018,45.823.655,43.777.12A4.565,4.565,0,0,0,42.881,0ZM34.119,85.173a19.127,19.127,0,0,1-9.66-2.677,52.93,52.93,0,0,1-5.953-4.209,64.518,64.518,0,0,1-7.5-7.07A44.226,44.226,0,0,1,4.49,62,25.247,25.247,0,0,1,1.506,51.33a21.071,21.071,0,0,1,3.4-12.051A39.965,39.965,0,0,1,15.9,28.253C22.158,23.834,27.56,17.234,31.9,11.931l.126-.154.053-.064c4.37-5.333,8.144-9.938,10.849-9.938a2.182,2.182,0,0,1,.55.069A3.79,3.79,0,0,1,45.5,3.7a18.018,18.018,0,0,1,1.718,4.394c4.814,17.3,7.266,32.288,7.288,44.534.011,5.856-.563,14.173-3.354,20.535-2.39,5.472-6.109,9.154-11.054,10.944A17.264,17.264,0,0,1,34.119,85.173Z" transform="translate(190 657)"/><path d="M13.516,0c-1.222,0-2.367,1.427-3.951,3.4l-.043.053A25.659,25.659,0,0,1,4.836,8.338C1.531,10.721-.095,13.466,0,16.5c.078,2.39,1.241,4.8,3.457,7.166a22.5,22.5,0,0,0,3.948,3.313c.055.036.088.058.091.062A6.715,6.715,0,0,0,10.877,28a5.892,5.892,0,0,0,2.047-.366,6.768,6.768,0,0,0,3.946-3.991c2.458-5.7.345-15.544-1.134-20.9C15.358,1.19,14.744.288,13.91.059A.911.911,0,0,0,13.516,0ZM10.9,26.2A5.126,5.126,0,0,1,8.19,25.43a20.419,20.419,0,0,1-3.772-3.209C2.567,20.2,1.6,18.234,1.532,16.377c-.1-2.28,1.278-4.464,4.093-6.491a27.739,27.739,0,0,0,4.981-5.181l.206-.25c1.015-1.229,2.166-2.622,2.717-2.622a.269.269,0,0,1,.084.013c.147,0,.441.466.74,1.49,1.67,6.321,3.248,14.84,1.282,19.534a5.186,5.186,0,0,1-3.057,3.038A5.506,5.506,0,0,1,10.9,26.2Z" transform="translate(209 686)"/><path d="M265,72.569c-27.705,23.36-61.072,42.806-87.525,31.9-19.138-7.885-32.415-30.889-39.379-68.36-3.206-17.312-11.222-28.221-23.8-32.431C90.752-4.269,53.077,13.992,26.775,46.186,5.683,71.917-2.784,100.2,3.529,123.735c5.862,21.818,7.515,45.534,4.96,70.375-.551,5.277-1.3,10.553-2.2,15.889H4.731c.952-5.455,1.7-10.791,2.254-16.126,2.555-24.6.9-48.083-4.86-69.664-6.513-24.19,2.1-53.063,23.6-79.328,12.525-15.3,28.256-28.162,44.338-36.225C81.484,2.905,92.506,0,102.225,0A40.252,40.252,0,0,1,114.75,1.9c12.926,4.328,21.543,16.008,24.85,33.794,6.864,36.818,19.739,59.348,38.377,67.055,26.152,10.791,59.469-9.012,87.024-32.431v2.253Z" transform="translate(437 620)"/><path d="M242,76.773c-20.459,20.674-52.552,38.979-78.628,32.759-16.2-3.85-28.533-16.587-36.606-37.735-11.182-29.264-25.373-49.76-42.222-61.016C66.492-1.244,50.446.77,40.166,4.561,27.73,9.182,17,18.9,9.928,31.929A70.57,70.57,0,0,0,2.357,76.6c5.065,31.87,7.02,62.556,5.767,91.4h-1.5A462.145,462.145,0,0,0,.9,76.951a72.6,72.6,0,0,1,7.772-45.91c7.271-13.388,18.3-23.34,31.09-28.079A46.446,46.446,0,0,1,56.162,0C66.041,0,76.02,3.14,85.3,9.3c17.15,11.433,31.541,32.226,42.874,61.845,7.873,20.615,19.807,32.937,35.5,36.728,12.737,3.021,28.031.3,44.228-8A134.049,134.049,0,0,0,242,74.463v2.31Z" transform="translate(460 662)"/><path d="M26.575,19.156a5.282,5.282,0,0,1-4.818,1.794C15.349,20.14,6.607,9.434,0,0H1.937C8.246,8.913,16.293,18.462,21.906,19.214a3.939,3.939,0,0,0,3.626-1.331C28.959,14.121,32.784,7.234,36.261,0H38C34.374,7.639,30.251,15.047,26.575,19.156Z" transform="translate(348 1)"/><path d="M217,57.83a65.327,65.327,0,0,0-13.576.119c-17.146,1.9-37.862,9.717-56.869,21.568-22.023,13.746-40.427-6.755-61.7-30.455C68.669,30.989,50.316,10.547,27.589,3.14,19.594.533,13.409,1.9,9.135,7.051-5.4,24.767,4.308,82.774,10.945,114H9.387c-2.011-9.54-4.324-21.449-6.134-33.892C-2.329,41.417-.72,16.413,8.029,5.747A15.051,15.051,0,0,1,20.2,0a25.964,25.964,0,0,1,7.794,1.363C51.02,8.828,69.574,29.448,85.865,47.7,106.732,70.924,124.733,91.01,145.8,77.857c19.409-12.147,39.823-19.849,57.422-21.745a67.019,67.019,0,0,1,13.727-.178v1.9Z" transform="translate(485 715)"/><path d="M10.537.177A15.772,15.772,0,0,1,12.889,0C26.2,0,41.066,17.241,49.024,27.988A241.084,241.084,0,0,1,77,78H75.348A240.087,240.087,0,0,0,47.923,29.169C33.709,10.038,20.5.354,10.737,1.949A9.694,9.694,0,0,0,2.63,8.5c-5.255,14.171,8.958,47.119,20.119,69.438H21c-2.2-4.488-4.554-9.329-6.806-14.348C1.929,36.372-2.425,17.6,1.278,7.794A11.1,11.1,0,0,1,10.537.177Z" transform="translate(506 751)"/><path d="M4.469.059A5.566,5.566,0,0,1,5.484,0c3.044,0,7.865,2.127,14.562,11.05A93.339,93.339,0,0,1,32.579,34.332c.457,1.3.964,2.9,1.421,4.609H32.427q-.533-1.861-1.218-3.9C25.476,18.968,12.385.591,4.723,1.891A3.383,3.383,0,0,0,1.882,4.136C-.706,10.991,9.8,31.259,14.313,39H12.486C9.239,33.268-2.583,11.7.512,3.427A4.825,4.825,0,0,1,4.469.059Z" transform="translate(532 791)"/><path d="M85.95,6.925C79.1,2.507,71.141.9,62.236,2.269,52.28,3.761,41.124,8.776,29.017,17.194A200.292,200.292,0,0,0,2.3,40H0A204.38,204.38,0,0,1,28.266,15.642C40.574,7.1,51.93,1.97,62.086.478A43.976,43.976,0,0,1,68.29,0,32.944,32.944,0,0,1,86,4.9v2.03Z" transform="translate(616 790)"/><path d="M16.251,0C7.105,0,1.756,2.612.351,7.764a13.458,13.458,0,0,0,.563,7.807A34.727,34.727,0,0,0,5.6,24.4,71.573,71.573,0,0,0,22.4,40.853a26.57,26.57,0,0,0,8.714,3.859A46.494,46.494,0,0,0,42.541,46C50.623,46,60.4,44.429,71.6,41.331a234.823,234.823,0,0,0,31.632-11.512l.166-.075c6.721-1.487,11.269-2.994,13.905-4.607,2.5-1.53,2.734-2.876,2.693-3.755a3.537,3.537,0,0,0-1.155-2.4,14.866,14.866,0,0,0-4.707-2.832c-5.455-2.322-14.756-4.635-28.436-7.07C67.67,5.863,46.618,3.23,28.3,1.015L24.251.537A66.33,66.33,0,0,0,16.251,0ZM42.5,44.2c-8.216,0-14.743-1.648-19.4-4.9A71.2,71.2,0,0,1,6.751,23.353a33.619,33.619,0,0,1-4.494-8.4A11.6,11.6,0,0,1,1.7,8.3,7.614,7.614,0,0,1,6.276,3.443,24.74,24.74,0,0,1,16.183,1.8,64.488,64.488,0,0,1,24,2.329l4.1.418,3.695.459c16.165,2.007,36.281,4.5,53.6,7.6,12.828,2.3,22.113,4.578,27.6,6.771a17.108,17.108,0,0,1,4.392,2.341,2.3,2.3,0,0,1,1.008,1.518c.021.31-.159,1.158-2.288,2.344-2.556,1.425-6.985,2.847-13.161,4.226l-.15.059-.126.057A227.846,227.846,0,0,1,71.2,39.6,142.254,142.254,0,0,1,57.13,42.816,87.116,87.116,0,0,1,42.5,44.2Z" transform="translate(359 258)"/><path d="M28.624,0A64.514,64.514,0,0,0,9.6,3.219,20.7,20.7,0,0,0,2.578,6.652,6.474,6.474,0,0,0,.02,11.182c-.2,2.325,1.06,4.893,3.737,7.632s6.8,5.693,12.3,8.818A17.979,17.979,0,0,0,24.874,30a18.376,18.376,0,0,0,13.087-5.705,36.051,36.051,0,0,0,6.431-8.423c1.769-3.45,2.078-6.506.919-9.081C43.383,2.475,37.3,0,28.624,0ZM24.8,28.217a16.339,16.339,0,0,1-8.145-2.166C6.56,20.306,1.164,15.087,1.46,11.357,1.659,8.84,4.6,6.613,9.952,4.918a62.578,62.578,0,0,1,18.6-3.1,29.889,29.889,0,0,1,9.986,1.474C41.3,4.3,43.132,5.753,43.969,7.61c.84,1.835.665,4.083-.521,6.681a31.93,31.93,0,0,1-6.481,8.657A17.3,17.3,0,0,1,24.8,28.217Z" transform="translate(392.001 663)"/><path d="M339.15,18.3c-26.127,3.9-41.472,30-60.829,63.062-5.416,9.211-11.033,18.777-17.351,28.7-15.847,24.859-33.6,39.8-52.705,44.4-21.714,5.2-45.584-2.834-70.909-23.855C109.523,107.525,69.254,70.384,34.7,35.9,25.024,26.217,12.387,13.345,0,0H2.207c9.829,10.51,21.012,22.084,33.449,34.543,34.5,34.424,74.72,71.565,102.5,94.593,47.189,39.148,88.11,32.358,121.558-20.194,6.268-9.861,11.885-19.426,17.3-28.638,19.608-33.421,35.1-59.756,61.883-63.771C357.905,13.7,368.788,8.148,371.4,0H373C370.543,9.152,359.159,15.293,339.15,18.3Z" transform="translate(211 1)"/><path d="M121.305,86.722c-9.505,4.89-19.262,4.3-29.019-1.709A328.24,328.24,0,0,1,27.108,32.756,273.27,273.27,0,0,1,0,0H2.012C16.9,21.032,45.665,54.437,92.94,83.481c9.354,5.715,18.658,6.3,27.711,1.65,18.256-9.367,32.539-38.235,41.29-60.858,3.37-8.6,6.186-17.026,8.449-24.273H172c-2.313,7.423-5.18,16.084-8.65,24.98C150.475,58.266,136.292,79.063,121.305,86.722Z" transform="translate(286 1)"/><path d="M23.821.6A14.053,14.053,0,0,1,27.827,0c6.8,0,11.564,5.668,13.339,11.753,2.13,7.458.456,17.481-8.267,21.777C18.8,40.511,8.91,42.6,3.432,39.795.947,38.542-.22,35.559.034,31.382c.355-5.31,3.043-11.932,7.2-17.779C11.9,7.04,17.785,2.446,23.821.6Z" transform="translate(588 364)"/><path d="M27.827-2.5A14.655,14.655,0,0,1,38.113,1.793a21.226,21.226,0,0,1,5.453,9.26l0,.013a24.386,24.386,0,0,1,.93,6.624,22.8,22.8,0,0,1-1.011,6.883,18.212,18.212,0,0,1-9.483,11.2,99.042,99.042,0,0,1-13.827,5.745A37.391,37.391,0,0,1,9.224,43.5,15.123,15.123,0,0,1,2.3,42.024c-3.39-1.712-5.081-5.545-4.762-10.793v-.015A31.433,31.433,0,0,1-.108,21.755a47.907,47.907,0,0,1,5.307-9.6C10.161,5.174,16.514.221,23.088-1.794l.027-.008A16.484,16.484,0,0,1,27.827-2.5ZM38.764,12.447A16.159,16.159,0,0,0,34.646,5.4a9.623,9.623,0,0,0-6.819-2.9,11.553,11.553,0,0,0-3.288.491C19.019,4.687,13.6,8.97,9.273,15.052c-3.9,5.48-6.419,11.644-6.745,16.491-.109,1.816.011,5,2.029,6.02l.014.007a10.236,10.236,0,0,0,4.653.931c5.31,0,12.9-2.426,22.566-7.21l0,0a13.146,13.146,0,0,0,4.436-3.5,14.046,14.046,0,0,0,2.485-4.7A19.053,19.053,0,0,0,38.764,12.447Z" transform="translate(588 364)" fill="#575757"/><path d="M9.075,0A7.739,7.739,0,0,0,4.156,1.839,11.3,11.3,0,0,0,.983,6.169C-.793,10.454-.459,16.625,4.472,20.048A17.257,17.257,0,0,0,14.332,23a19.825,19.825,0,0,0,6.8-1.2,13.593,13.593,0,0,0,4.939-3c1.734-1.735,2.327-3.736,1.669-5.635C26.418,9.121,21.381,4.99,12.767.89A8.827,8.827,0,0,0,9.075,0Zm5.209,21.174A15.959,15.959,0,0,1,5.231,18.5C2.232,16.446.178,12.09,2.348,7A9.563,9.563,0,0,1,5.017,3.348,6.46,6.46,0,0,1,9.131,1.8a7.081,7.081,0,0,1,3.079.75C20.306,6.408,25.2,10.3,26.372,13.82c.547,1.605-.589,2.956-1.315,3.618a12.117,12.117,0,0,1-4.514,2.669A18.844,18.844,0,0,1,14.284,21.174Z" transform="translate(171.003 201)"/><path d="M10.791,0c-.114,0-.23,0-.345.007A8.727,8.727,0,0,0,4.811,2.16a13.347,13.347,0,0,0-3.65,5.134,15.558,15.558,0,0,0-.924,8.573,12.053,12.053,0,0,0,4.917,7.806,33.778,33.778,0,0,0,11.7,4.742A63.442,63.442,0,0,0,30.757,30a39.23,39.23,0,0,0,8.144-.753,10.088,10.088,0,0,0,5.043-2.262,3.258,3.258,0,0,0,.849-3.552C42.843,17.46,21.7,4.449,14.739,1.031A8.386,8.386,0,0,0,10.791,0ZM31.159,28.145a65.17,65.17,0,0,1-13.79-1.528C12.475,25.523,8.511,23.964,5.9,22.108a10.348,10.348,0,0,1-4.225-6.654,13.2,13.2,0,0,1,.83-7.377A11.565,11.565,0,0,1,5.651,3.658a7.474,7.474,0,0,1,4.836-1.875,8.06,8.06,0,0,1,3.654.934A153.842,153.842,0,0,1,31.476,13.293c6.968,4.884,11.183,8.72,11.869,10.8a1.293,1.293,0,0,1-.4,1.5C41.366,27.217,37.07,28.145,31.159,28.145Z" transform="translate(207.004 38)"/><path d="M40.612,2.084C48.685,8.7,45.994,29.719,43.353,43H41.808c.7-3.335,1.345-7.206,1.894-11.256C45,21.44,45.4,8.159,39.765,3.514,33.187-1.846,19.833,5.181,0,24.418V22.1C15.3,7.385,26.909,0,34.682,0A9.345,9.345,0,0,1,40.612,2.084Z" transform="translate(1 787)"/><path d="M28.872,0C17.8,0,11.321,1.838,7.837,3.38-.271,6.943-.653,12.256.454,16.085a13.707,13.707,0,0,0,7.13,8.975A21.339,21.339,0,0,0,17.133,27c5.587,0,12.48-1.437,20.488-4.271a144.38,144.38,0,0,0,18.305-8.1,8.68,8.68,0,0,0,3.723-3.5,3.538,3.538,0,0,0,.12-2.8,6.5,6.5,0,0,0-2.753-2.942,22.907,22.907,0,0,0-5.123-2.281A67.408,67.408,0,0,0,38.329.466C35.314.161,32.044,0,28.872,0ZM17.04,25.234a19.372,19.372,0,0,1-8.849-1.748A11.937,11.937,0,0,1,1.87,15.56C.6,10.994,2.812,7.445,8.443,5.012a37.346,37.346,0,0,1,9.006-2.431,74.428,74.428,0,0,1,11.5-.833c3.055,0,6.177.157,9.281.467C49,3.322,57.293,6.126,58.4,9.033c.555,1.51-1.4,3.02-3.135,4.021a135.752,135.752,0,0,1-13.388,6.2A104.734,104.734,0,0,1,29.6,23.372,50.73,50.73,0,0,1,17.04,25.234Z" transform="translate(311 397)"/><path d="M611.511,56.572c-26.483,5.681-29.643,26.925-33.655,53.85-4.514,30.061-10.081,67.46-50.608,97.285-20.313,14.912-39.774,24.262-59.536,28.582a117.989,117.989,0,0,1-53.567-.769c-34.107-8.166-66.307-29.943-97.5-50.95-29.191-19.706-59.386-40.121-91.887-50.181a136.123,136.123,0,0,0-50.909-6.273c-18.859,1.361-37.417,6.746-56.677,16.51-33.655,17.043-67.11,22.96-99.411,17.634A143.678,143.678,0,0,1,0,158.117v-1.834a147.767,147.767,0,0,0,18.006,4.2c32.05,5.326,65.2-.592,98.608-17.457,23.724-12.013,45.693-16.983,66.408-16.983,50.006,0,92.69,28.819,134.37,56.927,32.5,21.954,63.147,42.666,97.053,50.773a115.388,115.388,0,0,0,52.966.769c19.611-4.261,38.922-13.551,59.034-28.345,17.806-13.078,39.975-29.351,49.956-96.042,2.056-13.906,3.862-25.919,8.627-35.565,5.266-10.711,13.643-16.983,26.232-19.706,37.266-8.048,59.436-20.771,69.718-40.062A58.554,58.554,0,0,0,686.445,0H688a60.228,60.228,0,0,1-5.768,15.741C671.7,35.446,649.229,48.465,611.511,56.572Z" transform="translate(0 1)"/><path d="M582.335,37.147c-31.544,5.56-34.5,16.74-40.922,41.111-5.617,21.236-14.092,53.414-47.241,100.085C449.589,241.162,402.3,201.885,347.535,156.4c-55.515-46.138-118.453-98.37-195.282-60.749-29.438,14.433-59.126,21.531-88.313,21.236A174.628,174.628,0,0,1,0,103.871v-1.893A173.292,173.292,0,0,0,63.94,115.05c28.986.355,58.474-6.8,87.711-21.117,34.6-16.977,69.557-17.272,106.768-1.006,32.547,14.256,61.734,38.508,89.968,61.932,27.081,22.478,52.657,43.713,76.578,51.285,26.429,8.4,48.043-.828,68.053-29.044,32.948-46.434,41.373-78.376,46.94-99.493,6.419-24.371,9.679-36.615,42.176-42.353,19.007-3.372,30.892-11.653,35.355-24.607A41.451,41.451,0,0,0,619.5,0H621a40.009,40.009,0,0,1-2.106,11.3C614.18,25.021,601.893,33.657,582.335,37.147Z" transform="translate(0 1)"/><path d="M175.467,117.081c-13.937,10.928-32.637,10.574-55.548-1.241-18.2-9.333-39.1-25.874-62.166-49.03C34.191,43.064,13.135,17.072,0,0H2.005C15.14,17.072,35.7,42.355,58.706,65.511c22.961,23.1,43.716,39.519,61.765,48.794,22.41,11.519,40.608,11.992,54.094,1.359,31.333-24.633,47.978-66.22,62.667-102.9,1.755-4.312,3.409-8.565,5.114-12.7H244q-2.707,6.557-5.414,13.468C223.9,50.389,207.152,92.212,175.467,117.081Z" transform="translate(251 1)"/><path d="M74.628,54.973c-6.494,5.485-14.886,5.366-24.926-.358-7.892-4.531-16.834-12.521-26.574-23.79A320.8,320.8,0,0,1,0,0H1.948c15.585,23.194,51.3,70.833,71.78,53.542C86.966,42.333,94.708,20.093,101.4,0H103C96.207,20.451,88.364,43.347,74.628,54.973Z" transform="translate(311)"/><path d="M139.3,55.913c-12.891,3.889-26.234,7.9-38.222,12.667-29.745,11.96-64.206,1.885-87.881-8.661C8.527,57.857,4.113,55.677,0,53.5V51.553c4.264,2.239,8.878,4.537,13.744,6.717,23.425,10.428,57.534,20.386,86.828,8.6,11.988-4.831,25.381-8.838,38.323-12.726,29.093-8.72,56.581-16.968,58.487-31.934.8-6.3-2.909-13.669-11.236-22.212h2.207c7.875,8.543,11.336,15.967,10.534,22.507C196.78,38.65,170.145,46.663,139.3,55.913Z" transform="translate(0 1)"/><path d="M120.009,30.557a85.565,85.565,0,0,1-33.08-.359C66.36,26,26.124,12.582,0,3.535V1.678C26.124,10.725,66.61,24.206,87.229,28.46c10.96,2.217,22.821,2.4,32.579.359,14.113-2.936,19.067-9.107,20.769-13.841,1.551-4.254,1.151-9.287-1.151-14.979h1.7c2.2,5.872,2.452,11.144.8,15.7C138.575,24.925,128.166,28.879,120.009,30.557Z" transform="translate(0 0)"/><path d="M61.59,118.855c22.652-18,37.435-43.823,50.415-66.623C126.739,26.412,139.518,4.086,159.464.474A30.113,30.113,0,0,1,165.127,0c15.385,0,33.677,10.482,56.88,32.571,17.39,16.582,31.873,31.624,44.652,44.948,26.961,28.13,46.456,48.442,68.005,55.016,22,6.751,46.155-.355,83.34-24.458,30.369-19.72,66.6-33.282,99.327-37.19,15.235-1.836,29.066-1.48,40.041,1.125,11.576,2.724,19.695,7.639,24.055,14.687,5.964,9.653,7.417,27.6-19.695,58.332-32.424,36.776-69.308,41.217-108.347,45.9-25.859,3.079-52.62,6.337-79.632,19.187-30.57,14.509-57.08,39.737-81.085,76.986-17.74,27.537-38.438,40.566-59.937,37.664-14.633-1.954-29.016-11.074-42.747-27-13.781-16.108-26.21-38.316-36.834-66.031-7.918-20.549-16.638-31.091-26.811-32.157-22-2.31-47.458,41.395-72.014,83.678-12.278,21.142-24.957,42.935-37.034,58.569C11.025,350.051,5.312,356.032,0,360v-2.191c16.889-13.147,35.23-44.652,53.121-75.447,12.328-21.2,25.107-43.172,37.385-59.161,13.13-17.055,24.356-25.406,34.228-25.406.6,0,1.2.059,1.8.118,10.724,1.125,19.9,11.962,28.014,33.163,10.574,27.537,22.852,49.567,36.533,65.5,13.481,15.693,27.563,24.636,41.845,26.531,20.9,2.783,41.194-10.008,58.584-37.013,24.155-37.546,50.916-62.892,81.686-77.519,27.212-12.969,54.073-16.167,80.033-19.306,38.788-4.678,75.422-9.061,107.5-45.422,26.36-29.906,25.157-46.962,19.545-56.022-8.219-13.206-31.672-18.832-62.743-15.1-32.524,3.909-68.556,17.411-98.775,37.013-37.536,24.34-61.991,31.446-84.443,24.576-21.9-6.692-41.495-27.123-68.606-55.43-12.779-13.325-27.212-28.367-44.6-44.889C195.345,9.475,175.851-.592,159.714,2.31,140.42,5.744,127.842,27.774,113.258,53.3c-13.08,22.918-27.914,48.857-50.816,67.1-18.993,15.1-37.085,22.681-53.973,22.681A57.733,57.733,0,0,1,0,142.425v-1.777C18.993,143.55,39.64,136.325,61.59,118.855Z" transform="translate(0 239)"/><path d="M28.125,18.078c23.212-.415,49.181-5.926,72.093-10.727,32.838-6.934,58.707-12.386,61.916.178,4.813,18.846-10.829,34.432-36.8,60.212-18.6,18.49-41.812,41.484-66.628,74.554-18.65,24.772-37.25,36.032-55.2,33.306-1.1-.178-2.256-.415-3.509-.711v-1.837c1.2.3,2.457.593,3.71.77,17.447,2.608,35.545-8.415,53.894-32.773,24.917-33.188,48.129-56.241,66.779-74.791,25.468-25.306,40.859-40.6,36.347-58.315C157.922-3.079,131.3,2.551,100.519,9.011,67.28,16.064,28.225,24.3,0,17.13V15.293C8.021,17.367,17.346,18.256,28.125,18.078Z" transform="translate(0 165)"/><path d="M94.046,0c13,0,20.3,2.788,21.7,8.424,3.1,12.281-22.749,34.41-38.5,46.513C55,72.083,28.5,88.22,14.249,93.381A74.807,74.807,0,0,1,0,97V95.22a74.821,74.821,0,0,0,13.8-3.56c14.149-5.1,40.5-21.12,62.6-38.207,25.749-19.875,39.9-36.486,37.848-44.5-2-7.831-19.8-9.255-50.148-4.034A468.316,468.316,0,0,0,.05,21V19.163a477.071,477.071,0,0,1,63.9-16.078C76.1,1.009,86.146,0,94.046,0Z" transform="translate(0 193)"/><path d="M29.812,0c6.033,0,9.4,1.371,10.055,4.113C41.275,9.6,31.22,18.718,22.523,25.395A159.437,159.437,0,0,1,0,40V38.033A162.414,162.414,0,0,0,21.718,23.845C32.879,15.261,39.264,7.869,38.409,4.59,37.052-.715,16.892,2.265,0,6.736V4.948C5.078,3.636,10.759,2.325,16.289,1.371A88.617,88.617,0,0,1,29.812,0Z" transform="translate(0 225)"/><path d="M39.415,0a14.158,14.158,0,0,0-4.208.593C22.954,4.141,13.183,14.4,6.95,30.275.669,46.438-1.41,67.253.938,90.47a164.231,164.231,0,0,0,18.237,60.135C54.1,216.076,83.1,251.976,105.4,257.308a24.23,24.23,0,0,0,5.635.692,21.174,21.174,0,0,0,13.754-5.135c21.228-17.438,35.073-34.411,47.289-49.386l.456-.558.109-.134c18.9-23.174,33.821-41.478,66.523-52.063,10.456-3.383,17.949-6.554,22.908-9.694a20.377,20.377,0,0,0,5.428-4.644,6.414,6.414,0,0,0,1.473-4.561c-.249-2.328-2.139-4.449-5.618-6.3s-8.615-3.48-15.274-4.836c-13.1-2.631-31.824-4.208-54.158-4.562-16.977-.3-34.578-8.107-53.806-23.876-16.939-13.951-32.825-32-46.842-47.93l-.006-.007C82.91,32.536,73.128,21.415,64.124,13.292A73.427,73.427,0,0,0,51.182,3.6C46.856,1.177,43.007,0,39.415,0Zm71.642,256.182a23.851,23.851,0,0,1-5.31-.652c-5.433-1.3-11.373-4.525-17.656-9.594a139.308,139.308,0,0,1-20.15-20.9,344.168,344.168,0,0,1-22.564-32.123c-7.89-12.528-16.267-27.08-24.9-43.254A162.177,162.177,0,0,1,2.491,90.233c-2.3-22.917-.259-43.4,5.912-59.247,5.968-15.36,15.374-25.3,27.2-28.734a14.13,14.13,0,0,1,3.858-.534c3.434,0,7.149,1.164,11.355,3.558a73.432,73.432,0,0,1,12.651,9.577c8.841,8.026,18.507,19.01,28.74,30.639l.008.009c13.257,15.12,29.755,33.937,47.043,48.109,19.555,16.009,37.433,23.936,54.658,24.232,22.269.354,40.91,1.931,53.907,4.562,7.284,1.483,12.657,3.255,15.969,5.266,2.858,1.735,3.6,3.314,3.72,4.333.3,2.923-3.319,6.277-10.765,9.968a139.36,139.36,0,0,1-17.942,7.036,109.081,109.081,0,0,0-38.94,21.6c-10.331,8.925-19.08,19.68-28.343,31.067l-.2.247c-12.219,14.981-26.068,31.961-47.343,49.461a21.675,21.675,0,0,1-6.162,3.6A19.365,19.365,0,0,1,111.057,256.182Z" transform="translate(131 272)"/><path d="M136.047,0c-7.3,0-17.285,1.089-30.531,3.329A677.723,677.723,0,0,0,39.234,18.668C12.7,26.283,1.369,33.017.118,41.913c-1.153,8.009,6.154,17.7,23,30.5a31.741,31.741,0,0,0,9.49,4.936A36.323,36.323,0,0,0,43.7,79a55.079,55.079,0,0,0,15.068-2.309c11.5-3.27,24.608-10.05,38.965-20.154C121.708,39.662,141.3,19,142.123,18.132a36.456,36.456,0,0,0,7.4-7.758c1.431-2.253,1.819-4.149,1.187-5.8-.6-1.515-2.132-2.668-4.545-3.426A35.272,35.272,0,0,0,136.047,0ZM43.653,77.226a34.857,34.857,0,0,1-10.658-1.59,30.574,30.574,0,0,1-9.076-4.711C15.965,64.873,10.065,59.41,6.382,54.687A27.06,27.06,0,0,1,2.41,48.043a11.522,11.522,0,0,1-.836-5.714c1.408-10.06,19.98-16.7,37.962-21.877C56.477,15.576,75.2,11.025,92.267,7.637c19.044-3.781,34.333-5.78,44.214-5.78,7.586,0,11.884,1.175,12.773,3.493.5,1.313.122,4.543-8.085,11.415l-.05.059c-.011.01-.086.088-.223.229-4.953,5.143-22.755,23.075-43.966,38C82.678,65.069,69.719,71.77,58.416,74.967A54.99,54.99,0,0,1,43.653,77.226Z" transform="translate(419 334)"/><path d="M51.9,0A75.408,75.408,0,0,0,40.266,1.241c-9,1.557-19.133,4.1-25.074,5.8C6.58,9.513.71,12.039.057,16.322c-.5,3.313,2.242,7.033,8.89,12.064A12.884,12.884,0,0,0,16.992,31c5.6,0,12.542-2.889,20.626-8.587A123.468,123.468,0,0,0,54.451,7.865c1.83-1.517,4.174-3.769,3.4-5.8C57.485,1.106,56.483,0,51.9,0ZM16.989,29.155A11.585,11.585,0,0,1,9.8,26.848a37.389,37.389,0,0,1-6.431-5.869c-1.384-1.713-2.01-3.18-1.861-4.362.228-1.591,1.762-3.063,4.689-4.5a59.122,59.122,0,0,1,9.3-3.3c7.618-2.2,15.2-4.021,21.916-5.269A89.518,89.518,0,0,1,52.167,1.785c2.547,0,4.027.344,4.282.994,0,.009.264.917-2.9,3.607l-.05.059-.1.107A128.306,128.306,0,0,1,40.035,18.489a72.528,72.528,0,0,1-11.449,7.372C24.222,28.047,20.32,29.155,16.989,29.155Z" transform="translate(465 358)"/><path d="M309.886,320.77c-12.191-5.271-19.415-19.012-29.5-38.082-4.866-9.239-10.435-19.722-17.408-30.857-22.676-35.95-45.5-22.743-83.328-.888-19.515,11.312-43.846,25.349-73.9,35.536-43.7,14.807-72.843,14.037-89.1-2.369-14.9-15.043-19.616-42.821-14.9-87.418,4.114-38.675,28.7-68.466,73.044-88.6,41.79-18.952,91.255-24.342,116.991-25.941,44.749-2.665,84.031-10.838,116.84-24.164,26.187-10.661,48.311-24.638,65.719-41.577A149.62,149.62,0,0,0,389,0V2.606a160.966,160.966,0,0,1-13.545,15.043C357.9,34.766,335.622,48.862,309.234,59.582c-32.96,13.385-72.442,21.558-117.342,24.283-25.686,1.54-74.95,6.929-116.539,25.823-43.8,19.841-68.077,49.158-72.091,87.122-4.666,43.946-.1,71.19,14.4,85.819,15.853,15.991,44.549,16.7,87.693,2.014,29.95-10.187,54.181-24.164,73.646-35.417,19.214-11.135,34.415-19.9,47.96-21.44,14.7-1.658,26.187,5.39,37.224,22.861,7.023,11.135,12.592,21.677,17.508,30.975,9.883,18.775,17.057,32.338,28.746,37.372,12.341,5.33,29.047.829,55.937-15.043A188.411,188.411,0,0,0,389,288.136v2.251a180.835,180.835,0,0,1-21.973,15.221C339.685,321.717,322.628,326.278,309.886,320.77Z" transform="translate(313 364)"/><path d="M309.634,226.98c-12.329-.415-22.753-7.351-30.972-20.629-7.467-12.034-12.73-23-17.441-32.6-15.135-31.122-22.052-45.348-68.41-23.83-13.532,6.284-29.469,15.413-46.358,25.075C99.944,201.667,47.22,231.9,19.305,217.2c-8.42-4.387-14.183-12.8-17.14-24.9-4.009-16.361-2.456-31.181,4.711-44.044,10.424-18.673,32.376-33.493,67.057-45.349,26.963-9.248,61.694-16.657,109.206-23.415,46.659-6.639,94.972-24.3,135.968-49.676A269.122,269.122,0,0,0,359,0V2.371a272.427,272.427,0,0,1-39.242,29.047c-41.146,25.49-89.66,43.214-136.519,49.854-47.461,6.758-82.092,14.168-108.955,23.415-34.33,11.737-55.981,26.379-66.2,44.637C1.163,161.713-.341,176,3.518,191.886c2.907,11.737,8.219,19.5,16.288,23.712C47.12,229.944,99.493,199.889,145.7,173.391c16.89-9.722,32.877-18.851,46.459-25.134,22.9-10.611,36.987-12.982,47.11-7.825,9.773,4.979,15.386,16.48,23.1,32.426a341.994,341.994,0,0,0,17.341,32.426c7.919,12.8,17.942,19.5,29.82,19.918,16.739.534,34.932-11.559,49.416-24.423v2.253C336.2,223.186,319.758,227.335,309.634,226.98Z" transform="translate(343 402)"/><path d="M97.327,154.607c-8.812-1.783-15.322-9.982-19.377-24.362C65.833,87.4,37.493,90.316,18.716,92.218,8.5,93.287,1.091,94,.19,87.048c-1.152-8.794,2.9-15.568,12.918-21.212,8.913-5.051,21.731-8.972,36.552-13.429C80.7,43.019,120.46,30.957,148.95,0V2.436C120.31,32.859,80.854,44.8,50.01,54.13,20.569,63.043-.661,69.46,1.642,86.811,2.293,91.861,8.2,91.5,18.566,90.435c9.614-.951,21.53-2.2,32.8,2.317,13.319,5.348,22.482,17.41,27.989,36.9,3.855,13.666,10.014,21.51,18.226,23.173,15.472,3.209,35.851-15.271,51.423-32.977v2.5c-.8.951-1.652,1.842-2.5,2.793C126.268,147.239,109.745,157.162,97.327,154.607Z" transform="translate(553 429)"/><path d="M24.425,92.915c-7.656,3.333-14.119,2.679-19.091-2.024C1.258,87.082-.482,81.665.114,74.82,2.252,51.13,32.429,16.25,55,0V2.143C45.007,9.464,33.871,20.178,24.326,31.785,10.7,48.392,2.6,63.749,1.556,75.118c-.547,6.131.994,11.012,4.673,14.464C19.6,102.141,41.627,80.117,55,63.808v2.559c-3.082,3.75-6.612,7.678-10.341,11.428C37.252,85.177,30.441,90.3,24.425,92.915Z" transform="translate(647 445)"/><path d="M151.388,0c-10.536,0-25.493,2.127-41.036,5.835C76.946,13.751,45.085,27.2,25.122,41.8,2.67,58.237-4.937,76.047,3.125,93.3A15.742,15.742,0,0,0,13.8,102.236a25.327,25.327,0,0,0,6.422.763c16.931,0,44.559-13.218,82.115-39.288,27.983-19.346,52.614-39.849,59.5-45.673l.28-.236c5.961-5.3,8.068-9.645,6.263-12.92-.958-1.679-2.993-2.944-6.05-3.759A43.849,43.849,0,0,0,151.388,0ZM20.161,101.225a24.1,24.1,0,0,1-6.062-.715,14.3,14.3,0,0,1-9.67-8.039,28.952,28.952,0,0,1,.2-25.9c3.74-7.821,10.888-15.634,21.245-23.222C45.752,28.814,77.426,15.459,110.6,7.621c14.256-3.388,27.726-5.418,37.931-5.716.923-.028,1.828-.042,2.69-.042,11.758,0,14.977,2.563,15.849,4.091.745,1.287.423,3-.958,5.1a27.437,27.437,0,0,1-4.9,5.322c-.053.046-6.353,5.444-16.747,13.735-9.094,7.254-23.188,18.193-38.689,29.114-17.33,12.21-32.885,21.934-46.233,28.9a159.631,159.631,0,0,1-21.446,9.5C31.149,100.014,25.116,101.225,20.161,101.225Z" transform="translate(367.001 501)"/><path d="M75.317,0C68.7,0,57.916,2.683,52.08,4.282c-16.749,4.7-32.247,11.457-41.456,18.067-9.274,6.68-12.5,13.193-9.586,19.358A5.48,5.48,0,0,0,4.552,44.64a9.906,9.906,0,0,0,2.8.36c7.468,0,21.014-6,40.263-17.841,9.475-5.827,20.03-12.921,30.524-20.516.368-.267.57-.412.592-.425a8.958,8.958,0,0,0,1.694-1.833,2.525,2.525,0,0,0,.264-2.8C80.095.518,78.338,0,75.317,0ZM7.412,43.29A8.207,8.207,0,0,1,4.9,42.938a3.87,3.87,0,0,1-2.56-2.053c-2.462-5.167.577-10.871,9.034-16.952C20.452,17.37,35.8,10.681,52.431,6.042c9.652-2.687,18.1-4.229,23.186-4.229,2.182,0,3.555.294,3.865.827a.063.063,0,0,1,.024.051c.02.206-.305.915-1.68,2.119-.116.088-13.5,9.912-29.09,19.636a249.94,249.94,0,0,1-23.045,12.98C17.608,41.317,11.459,43.29,7.412,43.29Z" transform="translate(399 528)"/><path d="M15.8,0c-5.65,0-9.89,2.868-12.6,8.525C-10.143,36.507,20,126.685,61.007,161.856,71.2,170.577,80.561,175,88.818,175a21.944,21.944,0,0,0,4.844-.534c7.747-1.775,14.41-7.77,19.8-17.819a65.25,65.25,0,0,0,7.5-32.917,66.132,66.132,0,0,0-9.351-32.323l-1.551-2.546-.091-.149C90.906,57.335,71.191,24.89,28.253,3.493,23.592,1.175,19.4,0,15.8,0Zm73.01,173.164a29.692,29.692,0,0,1-12.7-3.226,66.564,66.564,0,0,1-14.2-9.62C43.35,144.387,25.1,114.974,13.1,81.638,7.586,66.345,3.862,51.445,2.331,38.547.8,25.671,1.553,15.576,4.5,9.354A14.006,14.006,0,0,1,9.136,3.642a11.564,11.564,0,0,1,6.613-1.906c3.375,0,7.38,1.148,11.9,3.413A161.623,161.623,0,0,1,42.6,13.613a152.982,152.982,0,0,1,13.048,9.354A160.017,160.017,0,0,1,77.1,43.786c12.629,14.67,22.329,30.668,31.71,46.14l1.551,2.546a63.929,63.929,0,0,1,9.1,31.317,63.089,63.089,0,0,1-7.25,31.85,42.358,42.358,0,0,1-8.6,11.471,22.739,22.739,0,0,1-10.208,5.52A19.979,19.979,0,0,1,88.811,173.164Z" transform="translate(153.003 313)"/><path d="M8.909,0A7.632,7.632,0,0,0,4.221,1.461,8.648,8.648,0,0,0,1.639,4.746C-1.816,11.974.278,27.272,7.1,44.671c7.162,18.14,17.865,34.462,28.631,43.662C41.7,93.42,47.186,96,52.026,96a13.116,13.116,0,0,0,2.862-.312c4.605-1.018,8.536-4.53,11.682-10.441a39.144,39.144,0,0,0-1.1-38.145C59.154,36.726,53.31,29.177,46.521,22.625A101.05,101.05,0,0,0,33.534,12.057,138.526,138.526,0,0,0,16.631,2.2,17.988,17.988,0,0,0,8.909,0ZM52.03,94.2a16.924,16.924,0,0,1-7.264-1.854,38.868,38.868,0,0,1-8.129-5.5C26.049,77.766,15.533,61.71,8.508,43.9A103.863,103.863,0,0,1,2.084,21.045C1.1,14.217,1.417,8.868,2.993,5.576a6.161,6.161,0,0,1,5.919-3.85A16.8,16.8,0,0,1,16.079,3.8C41.447,16.432,53.324,30.12,64.265,48.111a36.96,36.96,0,0,1,1.053,36.128,24.582,24.582,0,0,1-4.889,6.525,12.877,12.877,0,0,1-5.791,3.144A12.518,12.518,0,0,1,52.03,94.2Z" transform="translate(179.001 355)"/><path d="M485.831,302.567c-12.79,8.955-25.529,10.853-35.811,5.337-15.3-8.125-22.319-30.9-16.3-52.958,1.555-5.693.6-10.26-2.809-13.818-10.783-11.149-45.641-12.1-95.7-2.55-43.234,8.243-89.828,23.128-113.351,36.294-19.51,10.912-35.259,12.691-46.845,5.4-10.282-6.464-17.053-20.341-19.611-40.03-3.812-29.474-56.224-57.584-98.354-80.119C27.162,144.108,3.539,131.476.379,121.1a7.062,7.062,0,0,1,.15-4.981c2.809-6.879,9.68-8.065,22.369-3.855,11.686,3.914,28.237,12.276,49.152,22.891,32.45,16.486,76.938,39.081,134.015,60.608,46.795,17.613,87.471,15.6,120.874-5.99,18.106-11.742,33.754-29.059,46.494-51.475,10.884-19.214,19.561-42.165,25.027-66.42,4.012-17.791,12.79-32.617,26.131-44.063,10.783-9.251,24.626-16.368,41.077-21.171A182.359,182.359,0,0,1,508,0V1.779a179.321,179.321,0,0,0-41.98,6.642c-16.25,4.685-29.892,11.742-40.525,20.875C412.454,40.5,403.878,54.974,399.916,72.41,394.4,96.9,385.671,120.03,374.688,139.363,361.8,162.077,346,179.571,327.642,191.432c-33.754,21.883-74.832,23.9-122.028,6.168-57.177-21.527-101.665-44.122-134.165-60.668C29.971,115.879,7.1,104.256,1.884,117.006a5.248,5.248,0,0,0-.1,3.618c2.959,9.666,27.485,22.832,55.923,38.014,21.165,11.327,45.19,24.2,64.1,37.836,21.868,15.775,33.353,30.067,35.109,43.647,2.458,19.1,8.978,32.5,18.808,38.725,11.185,7.057,26.482,5.219,45.541-5.456,35.008-19.57,120.473-42.936,172.383-42.936,17.905,0,31.849,2.787,38.319,9.489,3.912,4.033,5.016,9.311,3.26,15.715-5.768,21.171.9,43.054,15.5,50.823,18.758,9.963,39.522-5.1,57.227-28.7V280.8C500.627,289.994,493.254,297.348,485.831,302.567Z" transform="translate(194 50)"/><path d="M132.883,241.939a15.118,15.118,0,0,1-14.585-1.9c-13.081-9.3-10.224-26.362-7.718-41.468,1.754-10.486,3.408-20.379-.652-25.888-2.807-3.791-8.27-5.391-16.639-4.8-19.1,1.3-37.439,6.1-52.174,9.952-19.6,5.095-33.78,8.827-38.942,2.014a10.265,10.265,0,0,1-2.155-6.931c.4-8.057,9.422-17.476,20.9-29.383,16.489-17.18,37.038-38.625,44.1-67.416,6.916-28.08,16.238-55.864,37.789-68.719C111.082,2.488,120.755,0,131.931,0A106.844,106.844,0,0,1,160.95,4.5V6.339C136.893-.533,117.948.355,103.464,9c-21,12.559-30.222,39.928-37.038,67.653C59.209,105.922,38.51,127.545,21.871,144.9c-11.176,11.67-20,20.853-20.4,28.2a8.328,8.328,0,0,0,1.8,5.628c4.561,6.043,19.1,2.251,37.539-2.547,14.785-3.851,33.229-8.649,52.424-9.952,8.871-.592,14.685,1.185,17.842,5.45,4.511,6.161,2.807,16.469,1,27.369-2.556,15.225-5.162,30.924,7.017,39.573a14.011,14.011,0,0,0,13.382,1.777c8.47-3.021,18.243-13.388,28.518-30.035v3.081C152.68,226.418,142.757,238.444,132.883,241.939Z" transform="translate(541 82)"/><path d="M73.736,137.111c-7.286-2.787-12.376-12.1-12.625-23.247-.15-7-1.347-11.327-3.793-14-5.29-5.752-17.416-4.863-39.472-3.262l-2.595.178C6.718,97.377,2.077,96.073.53,92.692c-2.345-5.278,3.393-14.233,11.378-26.687,7.136-11.09,16.019-24.848,21.009-39.556C36.759,15.182,43.3,7.413,52.278,3.321A41.1,41.1,0,0,1,69.145,0,77.432,77.432,0,0,1,92,3.914v1.9C80.024,1.957,65-.474,52.827,4.982,44.244,8.836,38.006,16.309,34.313,27.1c-5.09,14.945-14.022,28.822-21.208,39.971C6.019,78.044-.069,87.533,1.827,91.8c1.2,2.669,5.539,3.677,13.274,3.143l2.595-.178c23.155-1.661,34.832-2.491,40.57,3.736,2.795,3.025,4.142,7.769,4.292,15.3.25,10.378,4.89,19.037,11.577,21.587,5.34,2.016,11.477.178,17.865-5.1v2.254C83.816,139.009,77.479,138.534,73.736,137.111Z" transform="translate(610 128)"/><path d="M5,37.7C.29,31.389-1.164,23.408.942,15.188,3.25,6.254,11.776,1.191,26.27.179,28.176.06,30.082,0,31.887,0,33.292,0,34.7.06,36,.119V1.906C23.913,1.37,5.657,2.8,2.347,15.784c-1.956,7.624-.6,15.01,3.711,20.787,6.018,8.041,16.8,12.151,29.892,11.615v1.787C22.509,50.389,11.324,46.1,5,37.7Z" transform="translate(666 166)"/><path d="M55.357,18.034C74.38,8.839,92.547,0,104.827,0a16.317,16.317,0,0,1,8.555,2.076c3.321,2.017,5.435,5.636,6.341,10.678,2.164,11.864-8.555,23.314-24.81,40.636-16.1,17.144-38.146,40.576-57.622,75.695Q17.438,164.767.05,175v-1.958c11.122-6.822,23.149-21.771,35.932-44.907C55.609,92.78,77.7,69.288,93.856,52.085c15.852-16.907,26.37-28.059,24.357-38.915-.856-4.568-2.667-7.653-5.586-9.432C102.21-2.729,79.715,8.186,55.911,19.754,40.21,27.347,23.955,35.237,9.864,38.8A67.683,67.683,0,0,1,0,40.576V38.8a63.553,63.553,0,0,0,9.562-1.72C23.552,33.458,39.757,25.627,55.357,18.034Z" transform="translate(0 368)"/><path d="M47.581,0c5.176,0,8.461,1.533,9.8,4.541,3.285,7.548-6.62,21.937-29.514,42.93C17.519,56.906,6.769,65.634,0,71V68.936C22.646,51.068,61.268,17.278,56.092,5.366,55,2.831,52.011,1.71,47.83,1.71c-11,0-30.51,7.43-47.83,15.332V15.155c3.733-1.71,7.665-3.42,11.646-5.071C27.772,3.361,39.817,0,47.581,0Z" transform="translate(0 418)"/><path d="M6.314,0C2.6,0,.761.656.167,2.2-.841,4.923,2.8,8.852,8.829,15.361l0,0C15.275,22.3,24.1,31.795,29.792,43.127a114.532,114.532,0,0,0,8.615,14.534A50.4,50.4,0,0,0,45.6,65.887a44.751,44.751,0,0,0,8.368,6.07,40.29,40.29,0,0,0,9.2,3.757A37.507,37.507,0,0,0,72.873,77a37,37,0,0,0,4.179-.238c4.265-.5,7.517-1.655,9.667-3.426A9.041,9.041,0,0,0,90,66.085C90.1,45.862,37.859,3.62,14.324.652A60.161,60.161,0,0,0,6.314,0ZM72.919,75.161a36.269,36.269,0,0,1-9.377-1.242A38.909,38.909,0,0,1,54.662,70.3a43.453,43.453,0,0,1-8.078-5.847,49.356,49.356,0,0,1-6.968-7.915,110.518,110.518,0,0,1-8.465-14.3C25.409,30.772,16.539,21.22,10.062,14.245L9.89,14.06l-.228-.246C5.421,9.226,1.034,4.482,1.628,2.966,1.914,2.195,3.466,1.8,6.239,1.8a66.425,66.425,0,0,1,7.985.63c10.75,1.36,28.746,11.489,45.848,25.8A134.638,134.638,0,0,1,80.918,49.445c5.01,6.653,7.645,12.387,7.62,16.581a7.252,7.252,0,0,1-2.916,6.028c-1.934,1.491-4.834,2.456-8.621,2.87A31.516,31.516,0,0,1,72.919,75.161Z" transform="translate(233.001 235)"/><path d="M48.936,98.311C60.206,73.763,72.277,48.5,84.048,30.063,97.021,9.843,108.291,0,118.559,0h.3c10.218.178,19.234,9.9,27.548,29.588,17.481,41.329,38.167,66.588,59.855,72.933,14.826,4.329,30.053.059,45.23-12.808,11.671-9.9,19.985-13.163,25.294-10.021,7.864,4.625,8.315,21.88,8.816,41.8.551,21.88,1.152,46.724,12.221,58.109,5.159,5.277,12.071,7.234,21.137,6.048,23.742-3.2,46.332,1.067,65.315,12.215a97.1,97.1,0,0,1,40.371,46.843c7.964,19.034,10.268,40.5,6.762,61.963A129.215,129.215,0,0,1,424.146,333h-1.7c11.721-29.292,12.372-60.125.9-87.519a95.343,95.343,0,0,0-39.67-46.013c-18.733-11.029-41.072-15.179-64.513-12.037-9.366,1.245-16.88-.889-22.289-6.463C285.3,169.109,284.7,143.849,284.1,121.614c-.451-18.559-.9-36.111-7.964-40.261-4.808-2.846-12.572.415-23.792,9.9-15.577,13.163-31.2,17.551-46.482,13.1-22.139-6.522-43.176-32.079-60.807-73.881-8.064-19.034-16.629-28.4-26.2-28.58h-.3c-21.788,0-45.68,48.088-68.32,97.421C36.364,129.381,19.534,150.135,0,161.163v-1.957C18.933,148.237,35.362,127.84,48.936,98.311Z" transform="translate(0 498)"/><path d="M67.8,0c8.676,0,16.3,1.478,22.567,4.494C104.659,11.353,111.78,25.368,111.53,46.3c-.251,20.519,4.413,35.775,14.242,46.6,24.222,26.846,76.376,22.234,131.639,17.266,8.124-.71,16.549-1.478,24.823-2.129,8.074-.65,15.5-.946,22.316-.946,31.142,0,48.794,6.564,52.656,19.632,2.708,9.225-1.805,20.4-9.027,31.281h-1.956c7.422-10.821,12.136-21.879,9.578-30.749-4.413-15.019-29.086-20.933-73.417-17.5-8.274.65-16.7,1.419-24.823,2.129-55.564,4.967-108.069,9.638-132.792-17.74-10.13-11.235-14.944-26.9-14.693-47.956.251-20.1-6.569-33.646-20.21-40.15-17.552-8.4-46.086-4.553-78.382,10.525C7.623,18.331,3.811,20.282,0,22.293V20.341c3.611-1.951,7.271-3.784,10.932-5.44C32.095,5.085,51.753,0,67.8,0Z" transform="translate(0 672)"/><path d="M39.142.118c18.043,1.3,33.329,12.5,45.507,33.289l2,3.436c14.785,25.233,22.2,37.909,33.178,43.181s25.861,3.376,55.531-.474c3.609-.474,7.468-.948,11.527-1.481,35.183-4.443,60.643-5.983,77.834-4.561,16.589,1.362,26.011,5.331,29.62,12.5,2.205,4.383,2.1,9.714.3,15.993h-1.554c1.8-6.042,2-11.077-.05-15.1-3.308-6.456-12.58-10.307-28.417-11.61-17.14-1.422-42.5.059-77.583,4.561-4.06.533-7.919,1.007-11.527,1.481-29.921,3.909-44.906,5.864-56.283.355S100.337,63.38,85.4,37.85l-2-3.436C71.469,14.1,56.584,3.139,39.042,1.9,30.021,1.244,16.94,3.08,0,12.439V10.484C14.885,2.369,26.813,0,35.684,0,36.937,0,38.09.059,39.142.118Z" transform="translate(0 728)"/><path d="M59.477,4.239C66.624,8.184,71.522,14.9,73.971,24.2A129.5,129.5,0,0,1,77.82,64h-1.5a127.61,127.61,0,0,0-3.8-39.271c-2.349-8.832-7-15.19-13.745-18.9C42.733-3,17.793,4.239,0,11.481V9.6C11.945,4.769,27.039,0,40.634,0,47.481,0,53.979,1.236,59.477,4.239Z" transform="translate(0 766)"/><path d="M309.454,249.281c-9.94-23.163-53.967-20.023-54.469-19.964-24.649,0-47.541,2.073-67.723,3.969-30.021,2.784-55.975,5.154-75.153-.711-10.141-3.08-18.023-8.353-24.047-16.054-6.526-8.294-10.944-19.49-13.555-34.122-8.685-48.932-31.427-54.8-49.75-59.477-11.044-2.844-20.583-5.272-23.746-16.883-2.862-10.6.452-31.693,8.534-53.73C18.182,28.672,29.929,10.367,40.974,3.377A19.78,19.78,0,0,1,51.466,0c6.426,0,12.5,4.028,17.822,11.907,8.083,11.966,14.659,25,21.035,37.617,11.9,23.577,22.139,43.9,38.053,48.458,9.789,2.784,21.185-.652,34.74-10.663,17.972-13.21,30.422-17.357,38.1-12.677,9.538,5.805,10.492,23.755,11.5,42.83,1.355,25.592,2.761,52.072,25.051,50.887,5.121-.237,10.04-.415,14.81-.415,48.194,0,79.47,13.447,92.974,40.105,10.643,20.912,7.932,46.148,3.815,63.564A170.048,170.048,0,0,1,342.789,293h-1.657a166.09,166.09,0,0,0,6.777-21.919c7.279-30.982,2.008-50.887-3.665-62.143-14.559-28.672-50.4-41.764-106.428-38.861-10.693.533-17.822-4.8-21.788-16.35-3.464-10.012-4.167-23.34-4.819-36.255-.954-18.542-1.908-36.018-10.693-41.349-7.179-4.384-19.127-.237-36.648,12.618-13.956,10.248-25.7,13.8-35.894,10.841-16.516-4.739-26.959-25.355-39.007-49.288-6.325-12.559-12.9-25.532-20.934-37.38C60.2,1.363,51.315-1.3,41.576,4.858,30.833,11.67,19.286,29.62,10.8,52.9,3.021,74.227-.393,95.317,2.318,105.388c2.912,10.663,11.6,12.914,22.641,15.7,9.237,2.37,19.679,5.035,29.017,13.447,10.793,9.715,17.972,25.236,21.888,47.451,4.87,27.546,16.115,42.593,36.5,48.814,8.534,2.607,18.525,3.554,29.619,3.554,13.454,0,28.665-1.422,45.031-2.9,20.231-1.836,43.124-3.969,67.773-3.969h.05a108.682,108.682,0,0,1,23.846,1.244c16.868,2.844,27.611,9.478,32.029,19.668,4.769,11.078,1.707,26.006-9.137,44.548h-1.807C310.81,274.636,314.023,259.944,309.454,249.281Z" transform="translate(60 537)"/><path d="M293.52,197.606c-8.233-12.165-33.134-17.209-71.94-14.6a457.907,457.907,0,0,0-57.03,7.774,90.524,90.524,0,0,1-35.594-.771,66.232,66.232,0,0,1-28.716-13.945c-9.99-8.426-17.37-20.057-21.888-34.537C69.616,113.46,59.827,94.293,48.381,82.9c-9.94-9.91-19.629-12.521-28.666-14.361C6.512,65.869,2.044,55.9.638,48.007-2.173,32.578,4.6,11.75,15.146,3.382A13.971,13.971,0,0,1,23.731,0a11.9,11.9,0,0,1,7.581,2.908c9.89,7.952,20.031,23.262,30.774,39.4,20.432,30.8,41.568,62.6,62.8,46.642,3.113-2.314,6.125-4.629,8.986-6.884,15.563-12.046,27.913-21.6,35.694-17.09,4.619,2.67,7.229,9.732,8.183,22.312,1.958,25.991,5.572,45.574,16.868,56.611,8.032,7.892,19.479,10.8,35.041,9.02,43.576-5.044,72.292,4.095,85.395,27.06,10.492,18.4,8.685,42.31,5.321,59.163A179.909,179.909,0,0,1,313.8,263H312.2a177.854,177.854,0,0,0,6.727-24.271c3.263-16.5,5.02-39.877-5.121-57.739-12.751-22.372-41.016-31.213-83.989-26.288-15.964,1.84-27.762-1.246-36.146-9.435-11.647-11.453-15.412-31.391-17.42-57.858-.9-11.75-3.263-18.574-7.33-20.888-7.028-4.035-19.027,5.222-34.188,16.972-2.912,2.255-5.924,4.569-9.036,6.884-10.091,7.6-20.985,5.7-33.284-5.815C81.665,74.592,71.122,58.688,60.931,43.319,50.288,27.238,40.2,12.106,30.508,4.273,24.836-.3,19.514,2.018,16,4.807,5.909,12.818-.567,32.816,2.094,47.592,3.449,54.95,7.616,64.266,19.966,66.759c9.237,1.9,19.127,4.569,29.369,14.776,11.647,11.631,21.587,31.035,30.423,59.4,4.418,14.183,11.6,25.517,21.286,33.706a65.747,65.747,0,0,0,28.113,13.648,88.131,88.131,0,0,0,19.428,2.136,84.519,84.519,0,0,0,15.663-1.365,461.127,461.127,0,0,1,57.231-7.774c39.861-2.67,64.51,2.433,73.2,15.251,8.585,12.58,10.593,29.611,5.773,49.194a119.563,119.563,0,0,1-5.723,17.209h-1.707a111.406,111.406,0,0,0,5.974-17.684C302.255,232.024,303.912,212.975,293.52,197.606Z" transform="translate(79 568)"/><path d="M42.881,0c-3.317,0-7.091,4.6-11.869,10.43l-.081.1C26.42,16.037,21.306,22.281,15.1,26.706A41.67,41.67,0,0,0,3.578,38.423,23.069,23.069,0,0,0,.012,51.389,27.054,27.054,0,0,0,3.122,62.657,46.14,46.14,0,0,0,9.877,72.34a66.243,66.243,0,0,0,7.773,7.387A53.834,53.834,0,0,0,23.812,84.1,20.714,20.714,0,0,0,34.162,87a18.865,18.865,0,0,0,6.379-1.113C45.932,83.979,49.952,80,52.49,74.05c7.769-17.906.9-49.348-3.883-66.5C47.358,3.018,45.823.655,43.777.12A4.565,4.565,0,0,0,42.881,0ZM34.119,85.173a19.127,19.127,0,0,1-9.66-2.677,52.93,52.93,0,0,1-5.953-4.209,64.518,64.518,0,0,1-7.5-7.07A44.226,44.226,0,0,1,4.49,62,25.247,25.247,0,0,1,1.506,51.33a21.071,21.071,0,0,1,3.4-12.051A39.965,39.965,0,0,1,15.9,28.253C22.158,23.834,27.56,17.234,31.9,11.931l.126-.154.053-.064c4.37-5.333,8.144-9.938,10.849-9.938a2.182,2.182,0,0,1,.55.069A3.79,3.79,0,0,1,45.5,3.7a18.018,18.018,0,0,1,1.718,4.394c4.839,17.315,7.3,32.3,7.326,44.534.011,5.871-.569,14.2-3.392,20.535-2.39,5.472-6.109,9.154-11.054,10.944A17.264,17.264,0,0,1,34.119,85.173Z" transform="translate(188 658)"/><path d="M13.516,0c-1.222,0-2.367,1.427-3.951,3.4l-.043.053A25.659,25.659,0,0,1,4.836,8.338C1.531,10.721-.095,13.466,0,16.5c.078,2.39,1.241,4.8,3.457,7.166a22.5,22.5,0,0,0,3.948,3.313c.055.036.088.058.091.062A6.715,6.715,0,0,0,10.877,28a5.892,5.892,0,0,0,2.047-.366,7.037,7.037,0,0,0,3.946-3.991c2.458-5.7.345-15.544-1.134-20.9C15.358,1.19,14.744.288,13.91.059A.911.911,0,0,0,13.516,0ZM10.853,26.2A5.126,5.126,0,0,1,8.14,25.43a20.419,20.419,0,0,1-3.772-3.209C2.517,20.2,1.546,18.234,1.483,16.377c-.1-2.28,1.278-4.464,4.093-6.491a27.739,27.739,0,0,0,4.981-5.181l.206-.249c1.015-1.229,2.166-2.623,2.718-2.623a.269.269,0,0,1,.084.013c.147,0,.441.466.74,1.49a68.066,68.066,0,0,1,1.9,9.32c.551,4.483.344,7.919-.617,10.214a5.186,5.186,0,0,1-3.057,3.038A5.506,5.506,0,0,1,10.853,26.2Z" transform="translate(207 687)"/><path d="M177.94,104.466c-19.188-7.885-32.5-30.889-39.482-68.36C135.244,18.794,127.207,7.885,114.6,3.676,90.99-4.269,53.216,13.992,26.845,46.186,5.7,71.917-2.791,100.2,3.538,123.735c5.877,21.818,7.535,45.534,4.973,70.375C7.958,199.328,7.2,204.664,6.3,210H4.743C5.7,204.545,6.451,199.209,7,193.874c2.562-24.6.9-48.083-4.872-69.664C-4.4,100.02,4.241,71.146,25.79,44.881c12.558-15.3,28.33-28.162,44.455-36.225C81.7,2.905,92.748,0,102.493,0a40.454,40.454,0,0,1,12.558,1.9c12.96,4.328,21.6,16.008,24.915,33.794,6.882,36.818,19.791,59.348,38.477,67.055C205.065,113.715,239.172,93.083,267,69.19v2.194C238.971,95.277,204.864,115.494,177.94,104.466Z" transform="translate(435 620)"/><path d="M163.169,109.532c-16.177-3.85-28.5-16.587-36.56-37.735-11.168-29.264-25.342-49.76-42.169-61.016C66.409-1.244,50.383.77,40.116,4.561,27.7,9.182,16.978,18.9,9.916,31.929A70.646,70.646,0,0,0,2.354,76.6,462.593,462.593,0,0,1,8.113,168h-1.5A462.713,462.713,0,0,0,.9,76.951a72.678,72.678,0,0,1,7.763-45.91C15.926,17.653,26.944,7.7,39.715,2.962A46.336,46.336,0,0,1,56.092,0c9.866,0,19.833,3.14,29.1,9.3,17.128,11.433,31.5,32.226,42.821,61.845,7.863,20.615,19.783,32.937,35.458,36.728,12.721,3.021,28,.3,44.173-8A132.106,132.106,0,0,0,243,73.1v2.37C222.616,96.677,189.762,115.87,163.169,109.532Z" transform="translate(459 662)"/><path d="M26.575,20.069a5.155,5.155,0,0,1-4.818,1.88C15.349,21.1,6.607,9.883,0,0H1.937C8.246,9.337,16.293,19.341,21.906,20.129a3.843,3.843,0,0,0,3.626-1.395C28.959,14.794,32.784,7.579,36.261,0H38C34.374,8,30.3,15.825,26.575,20.069Z" transform="translate(347 0)"/><path d="M203.087,57.889c-17.122,1.9-37.809,9.717-56.789,21.568C124.306,93.2,105.929,72.7,84.69,49,68.522,30.929,50.195,10.488,27.5,3.081,19.516.474,13.34,1.837,9.072,6.992-5.439,24.708,4.3,82.715,10.93,114H9.373c-2.008-9.54-4.318-21.449-6.126-33.892-5.573-38.691-3.967-63.7,4.77-74.361A15.022,15.022,0,0,1,20.169,0a25.894,25.894,0,0,1,7.783,1.363c23,7.466,41.524,28.085,57.793,46.335C106.582,70.924,124.557,91.01,145.6,77.857c19.381-12.147,39.767-19.849,57.341-21.745a63.919,63.919,0,0,1,15.063,0v1.778A62.634,62.634,0,0,0,203.087,57.889Z" transform="translate(484 716)"/><path d="M10.537.177A15.772,15.772,0,0,1,12.889,0C26.2,0,41.066,17.241,49.024,27.988A241.084,241.084,0,0,1,77,78H75.348A240.087,240.087,0,0,0,47.923,29.169C33.709,10.038,20.5.354,10.737,1.949A9.694,9.694,0,0,0,2.63,8.5c-5.255,14.171,8.958,47.119,20.119,69.438H21c-2.2-4.488-4.554-9.329-6.806-14.348C1.929,36.372-2.425,17.6,1.278,7.794A11.254,11.254,0,0,1,10.537.177Z" transform="translate(505 752)"/><path d="M4.469.059A5.566,5.566,0,0,1,5.484,0c3.044,0,7.865,2.127,14.562,11.05A93.339,93.339,0,0,1,32.579,34.332c.457,1.3.964,2.9,1.421,4.609H32.427q-.533-1.861-1.218-3.9C25.476,18.968,12.385.591,4.723,1.891A3.383,3.383,0,0,0,1.882,4.136C-.706,10.991,9.8,31.259,14.313,39H12.486C9.239,33.268-2.583,11.7.512,3.427A4.713,4.713,0,0,1,4.469.059Z" transform="translate(531 791)"/><path d="M62.7,2.269C52.669,3.761,41.43,8.776,29.233,17.194A201.384,201.384,0,0,0,2.318,40H0A205.471,205.471,0,0,1,28.477,15.642C40.875,7.1,52.316,1.97,62.548.478A44.625,44.625,0,0,1,68.8,0,33.691,33.691,0,0,1,88,5.731v2.09C80.692,2.746,72.275.836,62.7,2.269Z" transform="translate(614 791)"/><path d="M16.251,0C7.105,0,1.756,2.612.351,7.764a13.458,13.458,0,0,0,.563,7.807A34.727,34.727,0,0,0,5.6,24.4,71.573,71.573,0,0,0,22.4,40.853a26.57,26.57,0,0,0,8.714,3.859A46.494,46.494,0,0,0,42.541,46C50.623,46,60.4,44.429,71.6,41.331a231.894,231.894,0,0,0,31.8-11.587c6.721-1.487,11.269-2.994,13.905-4.607,2.5-1.53,2.734-2.876,2.693-3.755a3.537,3.537,0,0,0-1.155-2.4,14.866,14.866,0,0,0-4.707-2.832c-5.455-2.322-14.756-4.635-28.436-7.07C67.67,5.863,46.618,3.23,28.3,1.015L24.251.537A66.33,66.33,0,0,0,16.251,0ZM42.6,44.138c-8.216,0-14.743-1.648-19.4-4.9A71.16,71.16,0,0,1,6.851,23.293a33.609,33.609,0,0,1-4.494-8.4A11.6,11.6,0,0,1,1.8,8.242,7.614,7.614,0,0,1,6.376,3.383,24.74,24.74,0,0,1,16.283,1.74a64.491,64.491,0,0,1,7.818.53l4.05.478,3.655.454.049.006c16.162,2.007,36.275,4.5,53.593,7.6,12.828,2.3,22.113,4.578,27.6,6.771a17.1,17.1,0,0,1,4.392,2.341,2.3,2.3,0,0,1,1.008,1.518c0,.73-1.11,3.358-15.4,6.511l-.15.059-.135.061A228.558,228.558,0,0,1,71.3,39.539,142.256,142.256,0,0,1,57.23,42.757,87.118,87.118,0,0,1,42.6,44.138Z" transform="translate(357 258)"/><path d="M28.624,0A64.514,64.514,0,0,0,9.6,3.219,20.7,20.7,0,0,0,2.578,6.652,6.474,6.474,0,0,0,.02,11.182c-.2,2.325,1.06,4.893,3.737,7.632s6.8,5.693,12.3,8.818A18,18,0,0,0,24.887,30a18.259,18.259,0,0,0,13.073-5.705,36.051,36.051,0,0,0,6.431-8.423c1.769-3.45,2.078-6.506.919-9.081C43.383,2.475,37.3,0,28.624,0ZM24.85,28.217a16.333,16.333,0,0,1-8.144-2.166C6.61,20.306,1.213,15.087,1.51,11.357,1.709,8.84,4.645,6.613,10,4.918a62.579,62.579,0,0,1,18.6-3.1,29.891,29.891,0,0,1,9.986,1.474c2.766,1.01,4.593,2.465,5.431,4.322.817,1.868.635,4.123-.541,6.7a31.778,31.778,0,0,1-6.462,8.635A17.3,17.3,0,0,1,24.85,28.217Z" transform="translate(391.001 664)"/><path d="M339.15,18.422c-26.127,3.922-41.472,30.188-60.829,63.467-5.416,9.27-11.033,18.9-17.351,28.881-15.847,25.018-33.6,40.053-52.705,44.688-21.714,5.229-45.584-2.852-70.909-24.008C109.523,108.214,69.254,70.835,34.7,36.131,25.024,26.385,12.387,13.43,0,0H2.207c9.829,10.578,21.012,22.225,33.449,34.764,34.5,34.645,74.72,72.024,102.5,95.2,47.189,39.4,88.11,32.565,121.558-20.324,6.268-9.924,11.885-19.551,17.3-28.821,19.608-33.635,35.1-60.139,61.883-64.18C357.905,13.787,368.788,8.2,371.4,0H373C370.543,9.211,359.159,15.391,339.15,18.422Z" transform="translate(210 0)"/><path d="M120.6,87.685c-9.45,4.944-19.15,4.349-28.85-1.727A327.372,327.372,0,0,1,26.95,33.12,275.373,275.373,0,0,1,0,0H2C16.8,21.266,45.4,55.042,92.4,84.409c9.3,5.778,18.55,6.374,27.55,1.668C138.1,76.605,152.3,47.417,161,24.542c3.35-8.7,6.15-17.215,8.4-24.542H171c-2.3,7.506-5.15,16.262-8.6,25.257C149.6,58.914,135.5,79.941,120.6,87.685Z" transform="translate(285 0)"/><path d="M9.075,0A7.739,7.739,0,0,0,4.156,1.839,11.3,11.3,0,0,0,.983,6.169C-.793,10.454-.459,16.625,4.472,20.048A17.134,17.134,0,0,0,14.31,23a19.9,19.9,0,0,0,6.81-1.2,13.591,13.591,0,0,0,4.948-3c1.734-1.735,2.327-3.736,1.669-5.635C26.418,9.121,21.381,4.99,12.767.89A8.827,8.827,0,0,0,9.075,0Zm5.159,21.174A15.959,15.959,0,0,1,5.181,18.5C2.182,16.446.127,12.09,2.3,7A9.563,9.563,0,0,1,4.967,3.348,6.46,6.46,0,0,1,9.081,1.8a7.081,7.081,0,0,1,3.079.75c8.1,3.857,12.993,7.754,14.162,11.269a3.438,3.438,0,0,1-1.315,3.618,12.123,12.123,0,0,1-4.514,2.669A18.842,18.842,0,0,1,14.234,21.174Z" transform="translate(170.003 201)"/><path d="M10.739,0h0c-.1,0-.2,0-.293.006A8.727,8.727,0,0,0,4.811,2.159a13.347,13.347,0,0,0-3.65,5.134,15.561,15.561,0,0,0-.924,8.574,12.053,12.053,0,0,0,4.917,7.806,33.778,33.778,0,0,0,11.7,4.742A63.442,63.442,0,0,0,30.757,30a39.23,39.23,0,0,0,8.144-.753,10.088,10.088,0,0,0,5.043-2.262,3.26,3.26,0,0,0,.849-3.553C42.843,17.459,21.7,4.448,14.739,1.03A9.292,9.292,0,0,0,10.739,0Zm20.42,28.145a65.167,65.167,0,0,1-13.791-1.529C12.475,25.523,8.511,23.963,5.9,22.107a10.348,10.348,0,0,1-4.225-6.654,13.2,13.2,0,0,1,.83-7.377A11.609,11.609,0,0,1,5.638,3.658a7.439,7.439,0,0,1,4.829-1.875,8.171,8.171,0,0,1,3.674.934A153.843,153.843,0,0,1,31.476,13.292c6.968,4.884,11.183,8.72,11.869,10.8a1.3,1.3,0,0,1-.4,1.506C41.366,27.217,37.07,28.145,31.159,28.145Z" transform="translate(206.004 38)"/><path d="M40.59,2.028C48.668,8.648,46.025,29.7,43.332,43H41.786c.7-3.34,1.346-7.216,1.895-11.272,1.3-10.318,1.7-23.617-3.889-28.269C33.21-1.908,19.846,5.129,0,24.393V22.126C15.308,7.4,26.927,0,34.706,0A9.162,9.162,0,0,1,40.59,2.028Z" transform="translate(0 788)"/><path d="M28.879,0C17.81,0,11.334,1.838,7.851,3.38,4.208,4.955,1.8,7.048.692,9.6a9.339,9.339,0,0,0-.221,6.483A13.7,13.7,0,0,0,7.6,25.06,21.323,21.323,0,0,0,17.143,27c5.584,0,12.475-1.437,20.481-4.271a144.4,144.4,0,0,0,18.3-8.1,8.678,8.678,0,0,0,3.722-3.5,3.539,3.539,0,0,0,.12-2.8,6.5,6.5,0,0,0-2.751-2.942,22.893,22.893,0,0,0-5.121-2.281A67.364,67.364,0,0,0,38.332.466C35.318.161,32.05,0,28.879,0ZM17,25.176a19.36,19.36,0,0,1-8.846-1.748A11.933,11.933,0,0,1,1.836,15.5C.566,10.994,2.777,7.445,8.407,4.954a37.311,37.311,0,0,1,9-2.431A74.372,74.372,0,0,1,28.9,1.69c3.053,0,6.175.157,9.277.467C48.946,3.263,57.239,6.067,58.349,8.975c.554,1.51-1.4,3.02-3.134,4.021a134.669,134.669,0,0,1-13.383,6.2,104.677,104.677,0,0,1-12.279,4.118A50.7,50.7,0,0,1,17,25.176Z" transform="translate(309.004 397)"/></g></g></svg>