<svg xmlns="http://www.w3.org/2000/svg" width="1417.32" height="1417.32"><g fill="none" stroke="#000" stroke-width="8" stroke-linecap="round" stroke-miterlimit="10"><path d="M655.546 597.997L564 598M738.787 496.758l-.004-91.546M370.75 1394.35l-.004-41.541M358.643 1041.913l41.541-.004M671.545 575.998l-54.45.003M1373.055 25.633l-85.195.003"/></g><path fill="none" stroke="#000" stroke-width="8" stroke-linecap="round" stroke-miterlimit="10" d="M299.6 1110.812l23.527 23.528M277.697 1108.965l47.278 47.277"/><g fill="none" stroke="#000" stroke-width="8" stroke-linecap="round" stroke-miterlimit="10"><path d="M268.839 709.05H450.47M450.47 882.032H268.839M370.763 904.188c0 6.132-4.975 11.106-11.109 11.106-6.136 0-11.109-4.975-11.109-11.106 0-6.137 4.973-11.112 11.109-11.112 6.134-.001 11.109 4.975 11.109 11.112zM408.605 729.051l16.488 16.487M387.31 733.705l33.131 33.131"/><path d="M450.408 910.683c0 8.361-6.776 15.136-15.135 15.136H283.914c-8.358 0-15.136-6.774-15.136-15.136V685.806c0-8.358 6.778-15.136 15.136-15.136h151.359c8.359 0 15.135 6.778 15.135 15.136v224.877zM338.354 691.211h20.903M372.051 691.211h8.901"/></g><g fill="none" stroke="#000" stroke-width="8" stroke-linecap="round" stroke-miterlimit="10"><path d="M1160.926 580.305v-84.617M1220.907 626.272c0 32.364-26.232 58.599-58.59 58.599h-2.871c-32.361 0-58.59-26.235-58.59-58.599v-59.164c0-32.361 26.229-58.589 58.59-58.589h2.871c32.357 0 58.59 26.229 58.59 58.589v59.164zM1100.977 580.305h119.892"/></g><g fill="none" stroke="#000" stroke-width="8" stroke-linecap="round" stroke-miterlimit="10"><circle cx="189.607" cy="1314.895" r="9.105"/><path d="M344.855 1315.883c0 11.043-8.955 20-20 20h-270.1c-11.047 0-20-8.957-20-20v-206.895c0-11.047 8.953-20 20-20h270.101c11.045 0 20 8.953 20 20v206.895zM34.755 1291.215h310.1M166.268 1335.883h47.076v46.332h-47.076zM113.104 1382.215h153.007"/></g><g fill="none" stroke="#000" stroke-width="8" stroke-linecap="round" stroke-miterlimit="10"><path d="M1226.681 758.828v134.425c0 13.162 10.672 23.83 23.832 23.83h100.542c13.164 0 23.832-10.668 23.832-23.83V758.828h-148.206zM1354 837.458v-60.274M1354 867.763v-16.002"/><path d="M1356.277 933.858c4.883 0 8.84-3.957 8.84-8.838s-3.957-8.84-8.84-8.84H1245.29c-4.883 0-8.84 3.959-8.84 8.84s3.957 8.838 8.84 8.838h110.987zM1267.384 735.416c26.654-21.275-29.701-43.211 0-66.922M1301.874 719.416c26.653-21.275-29.701-43.211 0-66.922M1335.707 735.416c26.656-21.275-29.698-43.211 0-66.922M1226.681 780.25h-29.945c-14.348 0-25.977 11.633-25.977 25.979v56.74c0 14.346 11.629 25.975 25.977 25.975h29.945"/><path d="M1226.681 795.52h-24.387c-8.92 0-16.148 7.227-16.148 16.147v45.865c0 8.918 7.229 16.148 16.148 16.148h24.387"/></g><path fill="none" stroke="#000" stroke-width="8" stroke-linecap="round" stroke-miterlimit="10" d="M1318.264 1046.468c-2.14-6.581-8.303-10.731-14.883-10.614h-58.936l-18.252-56.177c-1.961-6.229-7.781-10.753-14.66-10.75a15.265 15.265 0 00-14.628 10.739l-18.266 56.188h-58.865c-6.612-.158-12.821 4.003-14.971 10.614-2.149 6.622.434 13.641 5.889 17.399l47.599 34.585-18.225 56.064c-2.137 6.217-.092 13.355 5.504 17.42 5.593 4.06 13.004 3.806 18.255-.14l47.706-34.662 47.787 34.721c5.246 3.889 12.614 4.126 18.18.081 5.605-4.074 7.647-11.231 5.488-17.458l-18.205-56.031 47.612-34.595c5.437-3.756 8.017-10.773 5.871-17.384zM367.537 70.667l-43.2-43.2c-18.425-18.424-48.296-18.424-66.72 0-18.424 18.423-18.424 48.295.001 66.719l80.958 80.965c15.749 15.747 41.28 15.749 57.029 0 15.748-15.749 15.75-41.283.001-57.031l-81.372-80.55c-12.844-12.845-33.671-12.846-46.516-.002-12.845 12.845-12.843 33.672.001 46.516l43.201 43.201"/><path fill="none" stroke="#000" stroke-width="8" stroke-linecap="round" stroke-linejoin="round" stroke-miterlimit="10" d="M994.266 1090.436c6.291 6.291 31.893 19.488 38.179 13.201 6.294-6.295-9.105-29.688-15.398-35.979l.023.021c12.442-17.067 19.783-38.091 19.783-60.83 0-57.103-46.289-103.394-103.39-103.394-57.1 0-103.389 46.291-103.389 103.394 0 57.098 46.289 103.389 103.389 103.389 22.735 0 43.757-7.34 60.824-19.776l-.021-.026z"/><g fill="none" stroke="#000" stroke-width="8.655" stroke-linecap="round" stroke-miterlimit="10"><path d="M750.772 1021.11v-39.823c0-10.113-8.203-18.312-18.315-18.312H489.028c-10.11 0-18.316 8.199-18.316 18.312v153.923c0 10.108 8.206 18.31 18.316 18.31h243.429c10.112 0 18.315-8.201 18.315-18.31v-42.274"/><path d="M719.334 938.716H489.028c-10.11 0-18.316 8.2-18.316 18.314v43.875"/><path d="M750.772 980.532v-43.504c0-10.114-8.203-18.314-18.315-18.314h-34.79"/><path d="M704.604 937.711l-19.089-52.438a4.573 4.573 0 00-5.867-2.736l-154.215 56.131M657.959 1072.271c0 12.644 10.249 22.889 22.895 22.889h60.664c12.645 0 22.897-10.245 22.897-22.889v-30.339c0-12.646-10.253-22.889-22.897-22.889h-60.664c-12.646 0-22.895 10.243-22.895 22.889v30.339z"/><path d="M697.735 1040c-10.114 0-18.315 8.199-18.315 18.314 0 10.109 8.201 18.313 18.315 18.313 10.119 0 18.315-8.204 18.315-18.313"/></g><g fill="none" stroke="#000" stroke-width="8" stroke-linecap="round" stroke-miterlimit="10"><path d="M544.727 299.286h-35.074c-8.454 0-15.307 6.504-15.307 14.529v209.458c0 8.024 6.853 14.529 15.307 14.529h164.532c8.454 0 15.305-6.504 15.305-14.529V313.815c0-8.025-6.852-14.529-15.305-14.529h-35.072"/><path d="M643.125 324.709h22.989v187.665H517.725V324.709h22.989"/><path d="M620.153 299.286h18.959v37.131h-94.385v-37.131h18.959"/><path d="M563.686 286.858h56.467v24.858h-56.467zM552.539 427.02l24.553 23.306 54.206-51.456"/></g><g fill="none" stroke="#000" stroke-width="8" stroke-linecap="round" stroke-miterlimit="10"><path d="M144.687 809.248h19.871v162.238H36.277V809.248H56.15"/><path d="M59.621 787.27H29.296c-7.309 0-13.23 5.623-13.23 12.561v181.078c0 6.938 5.922 12.561 13.23 12.561h142.242c7.309 0 13.23-5.623 13.23-12.561V799.83c0-6.938-5.922-12.561-13.23-12.561h-30.322"/><path d="M124.826 787.27h16.39v32.099H59.621V787.27h16.388"/><path d="M76.009 776.525h48.816v21.49H76.009zM59.621 849.025h34.195M112.308 873.361h28.908M59.621 873.361h39.078M94.513 895.604h46.703M59.621 895.604h20.238M123.82 917.846h17.396M59.621 917.846h49.546M59.621 940.088H95.21"/></g><path fill="none" stroke="#000" stroke-width="8" stroke-linecap="round" stroke-miterlimit="10" d="M463.497 228.367c0 6.938 4.834 12.561 10.795 12.561h244.803c5.963 0 10.795-5.623 10.795-12.561V63.339c0-6.938-4.832-12.562-10.795-12.562H474.292c-5.961 0-10.795 5.625-10.795 12.562v165.028z"/><path fill="none" stroke="#000" stroke-width="8" stroke-linecap="round" stroke-miterlimit="10" d="M691.835 171.583h27.26c5.963 0 10.795-5.623 10.795-12.561M521.788 171.583h149.813M463.497 159.023c0 6.938 4.834 12.561 10.795 12.561h27.262M555.819 149.867h81.75M632.812 50.777V27.753c0-6.938-5.625-12.561-12.562-12.561h-47.11c-6.938 0-12.561 5.623-12.561 12.561v23.023"/><path fill="none" stroke="#000" stroke-width="8" stroke-linecap="round" stroke-miterlimit="10" d="M521.788 168.97c0 5.586-4.531 10.115-10.117 10.115h0c-5.588 0-10.117-4.529-10.117-10.115v-19.281c0-5.59 4.529-10.115 10.117-10.115h0c5.586 0 10.117 4.525 10.117 10.115v19.281z"/><path fill="none" stroke="#000" stroke-width="8" stroke-linecap="round" stroke-miterlimit="10" d="M521.788 190.164c0 5.588-4.531 10.119-10.117 10.119h0c-5.588 0-10.117-4.531-10.117-10.119v-40.475c0-5.59 4.529-10.115 10.117-10.115h0c5.586 0 10.117 4.525 10.117 10.115v40.475zM671.601 168.97c0 5.586 4.531 10.115 10.117 10.115h0c5.59 0 10.119-4.529 10.119-10.115v-19.281c0-5.59-4.529-10.115-10.119-10.115h0c-5.586 0-10.117 4.525-10.117 10.115v19.281z"/><path fill="none" stroke="#000" stroke-width="8" stroke-linecap="round" stroke-miterlimit="10" d="M671.601 190.164c0 5.588 4.531 10.119 10.117 10.119h0c5.59 0 10.119-4.531 10.119-10.119v-40.475c0-5.59-4.529-10.115-10.119-10.115h0c-5.586 0-10.117 4.525-10.117 10.115v40.475z"/><path fill="none" stroke="#000" stroke-width="9.98" stroke-linecap="round" stroke-miterlimit="10" d="M766.531 824.813V696.825c0-4.844-1.702-8.984-5.085-12.367-3.404-3.401-7.525-5.103-12.352-5.103H621.093c-4.845 0-8.969-1.702-12.352-5.086-3.404-3.401-5.103-7.507-5.103-12.349v-.507c0-4.844-1.7-8.95-5.085-12.349-3.401-3.386-7.525-5.088-12.352-5.088h-58.186c-4.845 0-8.966 1.702-12.367 5.088-3.383 3.399-5.085 7.505-5.085 12.349v163.4c0 4.841 1.702 8.949 5.085 12.349 3.401 3.386 7.522 5.086 12.367 5.086h221.081c4.826 0 8.947-1.7 12.352-5.086 3.381-3.399 5.083-7.508 5.083-12.349z"/><path fill="none" stroke="#000" stroke-width="8" stroke-linecap="round" stroke-miterlimit="10" d="M766.531 824.813V696.825c0-4.844-1.702-8.984-5.085-12.367-3.404-3.401-7.525-5.103-12.352-5.103H621.093c-4.845 0-8.969-1.702-12.352-5.086-3.404-3.401-5.103-7.507-5.103-12.349v-.507c0-4.844-1.7-8.95-5.085-12.349-3.401-3.386-7.525-5.088-12.352-5.088h-58.186c-4.845 0-8.966 1.702-12.367 5.088-3.383 3.399-5.085 7.505-5.085 12.349v163.4c0 4.841 1.702 8.949 5.085 12.349 3.401 3.386 7.522 5.086 12.367 5.086h221.081c4.826 0 8.947-1.7 12.352-5.086 3.381-3.399 5.083-7.508 5.083-12.349z"/><path fill="none" stroke="#000" stroke-width="2" d="M202.833 171.29c2.354 2.277 2.887 4.898 1.596 7.859-1.291 3.039-3.531 4.559-6.721 4.559h-43.521l22.9 54.229c.758 1.898.758 3.76 0 5.582-.762 1.822-2.051 3.15-3.875 3.988l-20.164 8.545c-1.898.758-3.76.758-5.582 0-1.824-.762-3.152-2.051-3.988-3.875l-21.76-51.494-35.545 35.545c-1.443 1.441-3.152 2.164-5.127 2.164a7.07 7.07 0 01-2.734-.568c-3.039-1.293-4.557-3.533-4.557-6.723V59.754c0-3.191 1.518-5.43 4.557-6.722a7.054 7.054 0 012.734-.569c2.051 0 3.76.723 5.127 2.164l116.66 116.663z"/><path fill="none" stroke="#000" stroke-width="8" stroke-linecap="round" stroke-miterlimit="10" d="M202.833 171.29c2.354 2.277 2.887 4.898 1.596 7.859-1.291 3.039-3.531 4.559-6.721 4.559h-43.521l22.9 54.229c.758 1.898.758 3.76 0 5.582-.762 1.822-2.051 3.15-3.875 3.988l-20.164 8.545c-1.898.758-3.76.758-5.582 0-1.824-.762-3.152-2.051-3.988-3.875l-21.76-51.494-35.545 35.545c-1.443 1.441-3.152 2.164-5.127 2.164a7.07 7.07 0 01-2.734-.568c-3.039-1.293-4.557-3.533-4.557-6.723V59.754c0-3.191 1.518-5.43 4.557-6.722a7.054 7.054 0 012.734-.569c2.051 0 3.76.723 5.127 2.164l116.66 116.663z"/><path fill="none" stroke="#000" stroke-width="9.98" stroke-linecap="round" stroke-miterlimit="10" d="M1396.225 138.227c0 5.258-1.949 10.346-5.85 15.262l-37.514 46.16c-3.645 4.496-8.562 8.203-14.75 11.125-6.189 2.926-12.125 4.391-17.803 4.391h-138.354c-7.801 0-14.496-2.797-20.09-8.395-5.598-5.594-8.395-12.293-8.395-20.09V64.602c0-7.799 2.797-14.496 8.395-20.092 5.594-5.596 12.289-8.393 20.09-8.393h40.691c7.801 0 14.498 2.797 20.094 8.393 5.594 5.596 8.391 12.293 8.391 20.092v4.07h69.178c7.799 0 14.496 2.797 20.092 8.391 5.594 5.596 8.393 12.293 8.393 20.094V117.5h24.416c4.578 0 8.773 1.039 12.59 3.117 3.812 2.078 6.652 5.066 8.52 8.965 1.269 2.715 1.906 5.596 1.906 8.645zm-241.098 49.465l47.176-54.676c3.729-4.492 8.646-8.203 14.75-11.129 6.105-2.922 12.037-4.387 17.803-4.387h119.393"/><path fill="none" stroke="#000" stroke-width="8" stroke-linecap="round" stroke-linejoin="round" stroke-miterlimit="10" d="M1066.305 830.447l5.227 23.74c.297 1.195.148 2.312-.449 3.359s-1.445 1.77-2.539 2.164l-.746.148c-.398.203-.922.375-1.566.523-.648.148-1.445.375-2.391.672-.945.301-2.016.574-3.209.82a152.074 152.074 0 01-8.287 1.496c-1.641.246-3.309.473-5 .668a79.12 79.12 0 01-5.449.449c-1.941.102-3.859.152-5.748.152-23.289 0-43.646-6.496-61.061-19.486-17.42-12.988-29.262-30.479-35.533-52.479h-14.182c-1.297 0-2.416-.473-3.361-1.418-.947-.945-1.418-2.062-1.418-3.359v-16.871c0-1.291.471-2.41 1.418-3.357.945-.943 2.064-1.418 3.361-1.418h9.852c-.199-5.674-.148-10.9.148-15.678h-10c-1.396 0-2.539-.445-3.436-1.342-.895-.896-1.344-2.037-1.344-3.434v-17.021c0-1.391.449-2.539 1.344-3.434.896-.895 2.039-1.344 3.436-1.344H940c6.668-20.9 18.785-37.719 36.354-50.461 17.564-12.738 37.498-19.109 59.793-19.109 10.152 0 19.807 1.145 28.963 3.434 1.094.299 2.09 1.045 2.986 2.238.596 1.098.746 2.293.447 3.584l-6.418 23.738c-.301 1.295-.996 2.264-2.092 2.912s-2.291.77-3.584.371l-.596-.148c-.4-.098-.971-.223-1.717-.373l-2.613-.521a43.401 43.401 0 00-3.359-.523 697.765 697.765 0 00-3.881-.449 97.295 97.295 0 00-4.33-.371 69.66 69.66 0 00-4.404-.148c-12.541 0-23.789 3.186-33.74 9.555-9.953 6.367-17.418 15.129-22.395 26.273h69.871c1.59 0 2.836.598 3.73 1.793.994 1.195 1.346 2.488 1.047 3.879l-3.582 17.021c-.5 2.588-2.092 3.881-4.779 3.881h-72.857c-.297 3.686-.297 8.91 0 15.678h68.527c1.494 0 2.738.596 3.734 1.789.895 1.197 1.193 2.539.895 4.033l-3.582 16.719c-.203 1.098-.748 2.02-1.645 2.766-.895.746-1.891 1.117-2.984 1.117h-57.777c4.777 11.646 12.217 20.879 22.32 27.695 10.1 6.816 21.473 10.227 34.113 10.227 1.791 0 3.582-.074 5.375-.223 1.789-.148 3.457-.324 5-.523s3.01-.422 4.406-.672a65.323 65.323 0 003.656-.746c1.045-.246 1.965-.473 2.762-.672l1.793-.449.746-.299c1.293-.496 2.586-.396 3.881.299 1.194.7 1.94 1.743 2.241 3.135zM335.73 218.057c7.324 7.322 10.983 16.156 10.983 26.504 0 10.35-3.66 19.184-10.983 26.508-7.322 7.322-16.158 10.983-26.506 10.983-10.348 0-19.184-3.662-26.506-10.983-7.321-7.324-10.983-16.158-10.983-26.508 0-10.348 3.662-19.182 10.983-26.504 7.322-7.323 16.158-10.983 26.506-10.983 10.348 0 19.185 3.659 26.506 10.983zM422.001 223c0 1.302-.426 2.537-1.271 3.709L317.635 364.173c-1.239 1.69-2.898 2.537-4.98 2.537h-15.621c-1.694 0-3.157-.621-4.394-1.855-1.236-1.238-1.856-2.701-1.856-4.393 0-1.302.423-2.539 1.271-3.711L395.153 219.29c1.234-1.692 2.894-2.537 4.979-2.537h15.619c1.692 0 3.157.618 4.393 1.853 1.236 1.238 1.857 2.703 1.857 4.394zm-103.99 30.348c2.473-2.473 3.709-5.401 3.709-8.787 0-3.382-1.236-6.31-3.709-8.785-2.475-2.475-5.403-3.711-8.787-3.711-3.384 0-6.314 1.236-8.786 3.711-2.475 2.475-3.709 5.402-3.709 8.785 0 3.386 1.234 6.314 3.709 8.787 2.472 2.477 5.402 3.711 8.786 3.711 3.384 0 6.313-1.235 8.787-3.711zm112.058 59.046c7.322 7.321 10.984 16.157 10.984 26.506 0 10.348-3.662 19.184-10.984 26.506-7.323 7.322-16.159 10.983-26.508 10.983-10.348 0-19.184-3.662-26.506-10.983-7.321-7.322-10.983-16.158-10.983-26.506 0-10.349 3.662-19.185 10.983-26.506 7.322-7.324 16.158-10.983 26.506-10.983 10.349 0 19.185 3.659 26.508 10.983zm-17.721 35.293c2.473-2.473 3.711-5.401 3.711-8.787 0-3.384-1.238-6.312-3.711-8.787-2.473-2.472-5.403-3.711-8.787-3.711-3.384 0-6.314 1.239-8.787 3.711-2.473 2.475-3.709 5.403-3.709 8.787 0 3.386 1.236 6.314 3.709 8.787 2.473 2.475 5.403 3.709 8.787 3.709 3.384 0 6.314-1.235 8.787-3.709z"/><path fill="none" stroke="#000" stroke-width="8" stroke-linecap="round" stroke-miterlimit="10" d="M619.337 1360.268c0 8.578-6.953 15.531-15.527 15.531H418.048c-8.578 0-15.531-6.953-15.531-15.531v-113.871c0-8.574 6.953-15.523 15.531-15.523H603.81c8.574 0 15.527 6.949 15.527 15.523v113.871z"/><path fill="none" stroke="#000" stroke-width="8" stroke-linecap="round" stroke-miterlimit="10" d="M418.623 1345.604h25.879v14.09h-25.879zM456.146 1345.604h60.387v14.09h-60.387z"/><path d="M402.447 1258.045h216.961v39.105H402.447z"/><path fill="none" stroke="#000" stroke-width="8" stroke-linecap="round" stroke-miterlimit="10" d="M1258.079 356.47l71.23 71.23c-9.22 9.393-19.982 16.7-32.287 21.915-12.31 5.222-25.289 7.83-38.943 7.83-18.179 0-34.942-4.479-50.291-13.438-15.352-8.955-27.504-21.111-36.463-36.461-8.958-15.35-13.438-32.114-13.438-50.292 0-18.174 4.479-34.938 13.438-50.289 8.959-15.35 21.111-27.506 36.463-36.465 15.349-8.955 32.112-13.434 50.291-13.434v99.404zm116.887-15.912h-100.188V240.366c18.177 0 34.938 4.479 50.291 13.438 15.348 8.958 27.504 21.111 36.463 36.461 8.954 15.35 13.434 32.114 13.434 50.293z"/><g fill="none" stroke="#000" stroke-width="8" stroke-linecap="round" stroke-miterlimit="10"><path d="M803.843 450.528h122.158M926.001 587.739H803.843M893.195 467.897l17.659 17.658M870.967 469.982l35.483 35.483M926.001 621.896c0 7.671-6.22 13.895-13.895 13.895h-94.369c-7.671 0-13.895-6.224-13.895-13.895v-192.21c0-7.675 6.224-13.895 13.895-13.895h94.369c7.675 0 13.895 6.219 13.895 13.895v192.21z"/><path d="M875.465 611.833c0 5.821-4.718 10.543-10.543 10.543-5.821 0-10.543-4.722-10.543-10.543 0-5.826 4.722-10.548 10.543-10.548 5.825 0 10.543 4.722 10.543 10.548zM847.074 434.702h17.753M878.527 434.702h4.903"/></g><path fill="none" stroke="#000" stroke-width="8.655" stroke-linecap="round" stroke-miterlimit="10" d="M1046.815 180.564c2.579 0 4.815-.802 6.703-2.41 1.892-1.603 2.833-3.509 2.833-5.709h17.696v-16.237l-132.701-48.719-132.698 48.719v16.237h17.692c0 2.2.944 4.106 2.835 5.709 1.886 1.607 4.118 2.41 6.703 2.41h16.151v160.695h-22.211c-2.503 0-4.665.805-6.491 2.41-1.828 1.609-2.742 3.512-2.742 5.709v20.455h241.521v-20.455c0-2.197-.911-4.1-2.739-5.709-1.828-1.605-3.992-2.41-6.491-2.41h-22.213V180.564h16.152zM884.51 341.259V180.564h16.241v160.695H884.51zm48.72 0V180.564h16.233v160.695H933.23zm64.955 0h-16.239V180.564h16.239v160.695z"/><path fill="none" stroke="#000" stroke-width="8" stroke-linecap="round" stroke-miterlimit="10" d="M1292.429 363.354h98.057c0 13.273-2.539 25.898-7.613 37.863s-12.176 22.43-21.309 31.395l-69.135-69.258zM680.019 1406.568l-35.359-35.353 107.723-107.727c1.229-1.226 2.643-1.841 4.236-1.841 1.596 0 3.009.615 4.238 1.841l42.905 42.903 85.442-85.442-22.281-22.277c-1.967-1.964-2.426-4.145-1.383-6.54 1.045-2.394 2.855-3.59 5.434-3.59h80.104c1.718 0 3.131.552 4.233 1.654 1.107 1.106 1.659 2.52 1.659 4.237v80.104c0 2.574-1.2 4.391-3.593 5.434s-4.572.581-6.537-1.384l-22.28-22.281-116.564 116.565c-1.228 1.227-2.64 1.842-4.233 1.842-1.601 0-3.009-.615-4.233-1.842l-42.91-42.908-76.601 76.605"/><g fill="none" stroke="#000" stroke-width="8" stroke-linecap="round" stroke-miterlimit="10"><path d="M1352.326 1392.023h-352.25v-153.15h352.25v153.15z"/><path d="M1303.572 1258.018h-101.867c17.365 11.486 29.121 33.354 29.121 58.523 0 23.664-10.406 44.852-26.078 56.34h98.824c0-15.316 14.297-23.984 29.611-23.984v-56.156c-15.314-.001-29.611-19.409-29.611-34.723zm-20.168 62.385c-8.262 0-14.957-6.695-14.957-14.957 0-8.26 6.695-14.957 14.957-14.957s14.959 6.697 14.959 14.957c0 8.262-6.697 14.957-14.959 14.957zM1117.447 1316.541c0-25.17 11.756-47.037 29.119-58.523h-98.248c0 15.314-13.781 34.723-29.098 34.723v56.156c15.316 0 29.098 8.668 29.098 23.984h95.207c-15.671-11.488-26.078-32.676-26.078-56.34zm-48.449 3.862c-8.258 0-14.957-6.695-14.957-14.957 0-8.26 6.699-14.957 14.957-14.957 8.262 0 14.959 6.697 14.959 14.957 0 8.262-6.697 14.957-14.959 14.957z"/></g><path d="M1191.875 1339.996l1.834 8.338c.105.418.053.812-.156 1.18a1.666 1.666 0 01-.893.762l-.26.051c-.143.07-.324.131-.553.184-.229.051-.506.131-.838.236-.334.104-.709.201-1.129.287a49.461 49.461 0 01-2.91.524c-.578.09-1.162.168-1.758.238-.594.07-1.23.121-1.914.156-.68.035-1.354.055-2.018.055-8.18 0-15.33-2.281-21.447-6.844-6.119-4.562-10.279-10.707-12.48-18.434h-4.982c-.455 0-.848-.166-1.18-.498a1.609 1.609 0 01-.498-1.182v-5.926a1.6 1.6 0 01.498-1.178 1.604 1.604 0 011.18-.498h3.461a56.435 56.435 0 01.053-5.508h-3.514c-.49 0-.893-.156-1.205-.473-.314-.314-.473-.715-.473-1.205v-5.979c0-.488.158-.891.473-1.205.312-.314.715-.471 1.205-.471h5.139c2.342-7.344 6.598-13.25 12.77-17.727 6.17-4.473 13.172-6.711 21.002-6.711 3.566 0 6.957.402 10.174 1.203.383.105.734.369 1.049.789.209.385.262.805.156 1.258l-2.256 8.338c-.104.455-.348.795-.732 1.023s-.805.271-1.258.131l-.211-.053c-.139-.033-.34-.078-.604-.131-.262-.051-.566-.113-.918-.184a14.53 14.53 0 00-1.18-.184c-.438-.053-.891-.104-1.363-.158a39.172 39.172 0 00-1.52-.131 25.608 25.608 0 00-1.547-.051c-4.406 0-8.355 1.119-11.852 3.355-3.496 2.238-6.119 5.312-7.867 9.23h24.543c.559 0 .996.209 1.311.627.35.42.471.875.367 1.365l-1.26 5.977c-.174.91-.732 1.363-1.676 1.363h-25.592c-.105 1.295-.105 3.131 0 5.508h24.068c.525 0 .963.209 1.312.629.314.42.42.891.314 1.416l-1.26 5.873a1.59 1.59 0 01-.574.969 1.595 1.595 0 01-1.051.395h-20.293c1.678 4.09 4.291 7.332 7.84 9.727 3.547 2.396 7.543 3.594 11.98 3.594.631 0 1.26-.027 1.891-.078a38.511 38.511 0 003.303-.42c.488-.088.916-.178 1.285-.264.365-.086.689-.164.971-.236.277-.068.488-.123.629-.156l.262-.105c.453-.174.908-.139 1.363.105.42.247.684.614.789 1.104z"/><g fill="none" stroke="#000" stroke-width="8" stroke-linecap="round" stroke-miterlimit="10"><path d="M195.06 418.564v-23.831"/><path stroke-linejoin="round" d="M387.032 489c.012 13.073-22.31 39.247-60.938 39.285-38.626.041-61.091-26.088-61.104-39.164L387.032 489zM134.353 539.688c-.038 13.073-22.773 39.387-61.401 39.276-38.626-.11-60.989-26.326-60.951-39.401l122.352.125zM195.059 594.147l87.361 42.203H107.51l87.549-42.203L195 462.5"/><path d="M180.776 431.138c.896-7.091 6.95-12.574 14.283-12.574 7.334 0 13.386 5.482 14.283 12.573"/><path stroke-linejoin="round" d="M209.321 431.144h7.646l-9.908 31.259-24.051-.06-9.856-31.199h7.587"/><path d="M180.739 431.144h28.582M76.981 443.615l243.334-52.176"/><circle cx="70.829" cy="444.938" r="6.316"/><path d="M74.164 450.32l55.081 89.023M14.543 539.343l53.05-88.98M329.546 395.885l49.869 91.291M274.625 487.237l48.913-91.314"/><g stroke-linejoin="round"><path d="M195.06 418.564v-23.831M387.032 489c.012 13.073-22.31 39.247-60.938 39.285-38.626.041-61.091-26.088-61.104-39.164L387.032 489zM134.353 539.688c-.038 13.073-22.773 39.387-61.401 39.276-38.626-.11-60.989-26.326-60.951-39.401l122.352.125zM195.059 594.147l87.361 42.203H107.51l87.549-42.203L195 462.5M180.776 431.138c.896-7.091 6.95-12.574 14.283-12.574 7.334 0 13.386 5.482 14.283 12.573M209.321 431.144h7.646l-9.908 31.259-24.051-.06-9.856-31.199h7.587M180.739 431.144h28.582M76.981 443.615l243.334-52.176"/><circle cx="70.829" cy="444.938" r="6.316"/><circle cx="326.523" cy="390.35" r="6.317"/><circle cx="326.523" cy="390.35" r="6.317"/><path d="M74.164 450.32l55.081 89.023M14.543 539.343l53.05-88.98M329.546 395.885l49.869 91.291M274.625 487.237l48.913-91.314"/></g></g><circle fill="none" stroke="#000" stroke-width="8" stroke-linecap="round" stroke-linejoin="round" stroke-miterlimit="10" cx="71.121" cy="313.11" r="29"/><circle fill="none" stroke="#000" stroke-width="8" stroke-linecap="round" stroke-linejoin="round" stroke-miterlimit="10" cx="1350" cy="592" r="24"/><circle fill="none" stroke="#000" stroke-width="8" stroke-linecap="round" stroke-linejoin="round" stroke-miterlimit="10" cx="807" cy="1169" r="29"/><circle fill="none" stroke="#000" stroke-width="8" stroke-linecap="round" stroke-linejoin="round" stroke-miterlimit="10" cx="379.604" cy="997.574" r="29"/><circle fill="none" stroke="#000" stroke-width="8" stroke-linecap="round" stroke-linejoin="round" stroke-miterlimit="10" cx="805" cy="85" r="29"/><circle fill="none" stroke="#000" stroke-width="8" stroke-linecap="round" stroke-linejoin="round" stroke-miterlimit="10" cx="57" cy="719" r="29"/><circle fill="none" stroke="#000" stroke-width="8" stroke-linecap="round" stroke-linejoin="round" stroke-miterlimit="10" cx="355" cy="605" r="17.911"/><circle fill="none" stroke="#000" stroke-width="8" stroke-linecap="round" stroke-linejoin="round" stroke-miterlimit="10" cx="143.707" cy="362.607" r="17.911"/><circle fill="none" stroke="#000" stroke-width="8" stroke-linecap="round" stroke-linejoin="round" stroke-miterlimit="10" cx="1100.089" cy="30" r="17.911"/><circle fill="none" stroke="#000" stroke-width="8" stroke-linecap="round" stroke-linejoin="round" stroke-miterlimit="10" cx="1340.089" cy="1120" r="17.911"/><circle fill="none" stroke="#000" stroke-width="8" stroke-linecap="round" stroke-linejoin="round" stroke-miterlimit="10" cx="864.089" cy="840" r="17.911"/><circle fill="none" stroke="#000" stroke-width="8" stroke-linecap="round" stroke-linejoin="round" stroke-miterlimit="10" cx="1112.089" cy="900" r="17.911"/><circle fill="none" stroke="#000" stroke-width="8" stroke-linecap="round" stroke-linejoin="round" stroke-miterlimit="10" cx="1102.089" cy="278" r="17.911"/><circle fill="none" stroke="#000" stroke-width="8" stroke-linecap="round" stroke-linejoin="round" stroke-miterlimit="10" cx="746.089" cy="294" r="17.911"/><circle fill="none" stroke="#000" stroke-width="8" stroke-linecap="round" stroke-linejoin="round" stroke-miterlimit="10" cx="160.089" cy="44" r="17.911"/><circle fill="none" stroke="#000" stroke-width="8" stroke-linecap="round" stroke-linejoin="round" stroke-miterlimit="10" cx="738" cy="583" r="29"/><circle fill="none" stroke="#000" stroke-width="8" stroke-linecap="round" stroke-linejoin="round" stroke-miterlimit="10" cx="931.932" cy="1380.884" r="17.146"/><path fill="none" stroke="#000" stroke-width="8" stroke-linecap="round" stroke-linejoin="round" stroke-miterlimit="10" d="M1321.394 970.865l52.06 52.061M1380.087 997.033l23.773 23.774M1347.561 1029.56l23.773 23.773"/><g fill="none" stroke="#000" stroke-width="8" stroke-linecap="round" stroke-miterlimit="10"><path d="M1039.418 431.467v-21.448M1062.832 441.166L1078 426M1072.531 464.582h21.449M1062.833 487.995L1078 503.162M1039.419 497.695v21.448M1016.004 487.996l-15.166 15.167M1006.305 464.582h-21.449M1016 441.167L1000.837 426"/></g><g fill="none" stroke="#000" stroke-width="8" stroke-linecap="round" stroke-miterlimit="10"><path d="M419.332 1122.485v-11.24M431.604 1127.569l7.95-7.949M436.688 1139.843h11.242M431.604 1152.113l7.95 7.95M419.333 1157.198v11.24M407.06 1152.114l-7.949 7.949M401.977 1139.843h-11.242M407.058 1127.569l-7.947-7.949"/></g><g fill="none" stroke="#000" stroke-width="8" stroke-linecap="round" stroke-miterlimit="10"><path d="M433.778 430.865v-11.24M446.05 435.949L454 428M451.133 448.223h11.242M446.05 460.493l7.95 7.95M433.778 465.578v11.24M421.506 460.494l-7.949 7.949M416.422 448.223h-11.241M421.504 435.949L413.557 428"/></g><g fill="none" stroke="#000" stroke-width="8" stroke-linecap="round" stroke-miterlimit="10"><path d="M1024.396 40.989V24.534M1042.362 48.432L1054 36.795M1049.803 66.398h16.458M1042.363 84.361L1054 96M1024.397 91.806v16.454M1006.432 84.362L994.795 96M998.989 66.398h-16.456M1006.429 48.432l-11.634-11.637"/></g><g fill="none" stroke="#000" stroke-width="8" stroke-linecap="round" stroke-miterlimit="10"><path d="M836.655 726.234v-12.379M850.17 731.832l8.753-8.755M855.766 745.347h12.38M850.17 758.858l8.753 8.754M836.655 764.459v12.376M823.142 758.858l-8.753 8.754M817.543 745.347h-12.378M823.141 731.832l-8.752-8.755"/></g><path fill="none" stroke="#000" stroke-width="8" stroke-linecap="round" stroke-miterlimit="10" d="M258.032 1014.531L237.777 1048H278zM56 1360l-37.988 9.344 28.442 28.441zM1406.556 469.103l-37.989 9.343 28.442 28.442zM922.722 84.758l-13.707-55.73-41.724 41.724zM429.945 62.129L434 28l-32.179 14.602zM248.568 355.013l4.265-35.896-33.845 15.357zM475.724 649.176l32.549-58.824-69.069 2.683z"/><path fill="none" stroke="#000" stroke-width="8" stroke-linecap="round" stroke-linejoin="round" stroke-miterlimit="10" d="M986.576 592.097c26.999-26.999 28.498 31.499 59.997 0M11.479 391.077c26.999-26.999 28.498 31.499 59.997 0M27.625 14.625c26.999 26.999-31.499 28.498 0 59.997M152.618 713.59c26.999-26.998 28.498 31.499 59.997 0M50.618 1041.564c26.999-26.998 28.498 31.499 59.997 0M692.491 1253.688c-26.998-27 31.5-28.498 0-59.998M1393.057 1283.562c-26.998-27 31.499-28.498 0-59.998"/></svg>