<svg width="24" height="24" fill="none" xmlns="http://www.w3.org/2000/svg"><path opacity=".3" d="M18.937 11.985l-6.922-6.922a1 1 0 10-1.414 1.414l.692.692-5.6 5.6a1.417 1.417 0 00-.343 1.451l.754 2.262-3.815 3.815a1 1 0 101.414 1.414l3.815-3.815 2.262.754a1.418 1.418 0 001.451-.343l5.6-5.6.692.692a1 1 0 101.414-1.414z" fill="#000"/><path d="M21.707 7.861a1 1 0 01-1.414 0l-.693-.692-2.739 2.74-2.77-2.77 2.74-2.739-.692-.693a1 1 0 011.414-1.414l4.154 4.154a1 1 0 010 1.414zm-13.7 8.129l2.077.693 2.6-2.606-2.769-2.769-2.606 2.6.698 2.082z" fill="#000"/></svg>