<svg width="24" height="24" fill="none" xmlns="http://www.w3.org/2000/svg"><path opacity=".3" d="M12.025 4.725c-2.3-2.3-6-2.3-8.3 0-2.3 2.3-2.3 6 0 8.3l7.6 7.6c.4.4 1 .4 1.4 0l7.6-7.6c2.3-2.3 2.3-6 0-8.3-2.3-2.3-6-2.3-8.3 0z" fill="#000"/><path d="M14.025 17.125h-.1c-.4-.1-.8-.4-.9-.8l-1.1-5.2-.9 3.2c-.1.4-.4.7-.8.7-.4.1-.8-.1-1-.4l-1.5-2.3-1.2.6c-.1.1-.3.1-.4.1h-3c-.6 0-1-.4-1-1s.4-1 1-1h2.8l1.8-.9c.5-.2 1-.1 1.3.3l.8 1.2 1.4-4.9c.1-.4.5-.7 1-.7s.8.3.9.8l1.4 6.2.7-1.5c.2-.3.5-.6.9-.6h5c.6 0 1 .4 1 1s-.4 1-1 1h-4.4l-1.7 3.4c-.3.6-.6.8-1 .8z" fill="#000"/></svg>