<svg width="24" height="24" fill="none" xmlns="http://www.w3.org/2000/svg"><path opacity=".3" d="M21.384 8.297L17 12.679a9.446 9.446 0 01-2.1 1.581l-4.067 2.26a9.453 9.453 0 00-2.1 1.58l-3.319 3.319a2.007 2.007 0 01-2.837-2.838l3.318-3.318a9.48 9.48 0 001.581-2.1l2.26-4.067a9.454 9.454 0 011.581-2.1l4.387-4.387a2.038 2.038 0 012.472-.344 10.184 10.184 0 013.537 3.545 2.04 2.04 0 01-.329 2.487zm-6.74 3.9l2.842-2.842a1.001 1.001 0 000-1.415l-1.423-1.423a1 1 0 00-1.414 0l-2.842 2.842a1 1 0 000 1.414l1.423 1.424a1 1 0 001.414.003v-.003z" fill="#000"/><path d="M7.553 19.291L5.425 21.42a2.007 2.007 0 11-2.837-2.838l2.128-2.128 2.837 2.838zM21.724 5.818a10.184 10.184 0 00-3.537-3.545 2.038 2.038 0 00-2.472.344l-.359.359 5.675 5.675.353-.354a2.04 2.04 0 00.34-2.476v-.003z" fill="#000"/></svg>