<svg width="24" height="24" fill="none" xmlns="http://www.w3.org/2000/svg"><path opacity=".3" d="M17.2 9.105a1 1 0 01.366-1.366l1-.576a.995.995 0 011.752-.942l.96 1.662a1 1 0 01-1.72 1.017l-.99.571a1 1 0 01-1.368-.366zm3.69 5.82a.994.994 0 00-1.326.32l-1-.576a1 1 0 10-1 1.732l.991.572a1 1 0 001.739.981l.96-1.663a1 1 0 00-.359-1.367h-.005zm-15.448-.186l-.866.5a1 1 0 00-1.732 1l1 1.732a1 1 0 101.732-1l.866-.5a1 1 0 00-1-1.732zm1-7.07l-.866-.5a1 1 0 10-1.732-1l-1 1.732a1 1 0 101.732 1l.866.5a1 1 0 001-1.732zm6.623 12.471v-1a1 1 0 00-2 0v1a1 1 0 000 2h2a1 1 0 100-2zm-2-16.152V5.14a1 1 0 102 0V3.996a1 1 0 00-.02-2h-1.92a.995.995 0 00-.06 1.988v.004z" fill="#000"/><path d="M15.105 17.327a.984.984 0 011.241.224 6.98 6.98 0 002.577-4.5.986.986 0 010-1.968 6.99 6.99 0 00-2.552-4.479.995.995 0 01-1.712-1.011 6.954 6.954 0 00-5.2-.044l.01.016a1 1 0 11-1.733 1l-.017-.03a6.988 6.988 0 00-2.645 4.548.986.986 0 010 1.968 6.985 6.985 0 002.661 4.56.983.983 0 011.7.966 6.967 6.967 0 005.247-.046.987.987 0 01.423-1.204zM7 12.07a5 5 0 1110 0 5 5 0 01-10 0z" fill="#000"/><path opacity=".3" d="M18.337 18.924a1.002 1.002 0 01-.366 1.367l-.865.5-.865.5a1 1 0 01-1-1.733l-.5-.865a.999.999 0 01.367-1.367 1 1 0 011.366.367l.5.865a1 1 0 011.363.366zM8.9 4.578a1 1 0 00-1.016-1.72l-1.663.961a1 1 0 00.944 1.755l.574.994a1 1 0 001.733-1l-.572-.99zm.135 12.749a1 1 0 00-1.366.366l-.5.865a1 1 0 00-1 1.733l1.732 1a1 1 0 101-1.733l.5-.865a1 1 0 00-.366-1.366zm6-10.393a1 1 0 001.366-.366l.572-.989a1 1 0 00.981-1.74l-1.663-.96a.995.995 0 00-1.046 1.691l-.576 1a1 1 0 00.366 1.364zM6 12.07a1 1 0 00-1-1H4a1 1 0 00-2 0v2a1 1 0 002 0h1a1 1 0 001-1zm15.14-1.94a.991.991 0 00-.988.94H19a1 1 0 100 2h1.144a1.002 1.002 0 001.392.91.999.999 0 00.608-.93v-1.92a1 1 0 00-1.004-1zm-7.019 4.061a3 3 0 10-4.242 0 1 1 0 001.414-1.414 1 1 0 111.414 0 1 1 0 101.414 1.414z" fill="#000"/></svg>