<svg width="24" height="24" fill="none" xmlns="http://www.w3.org/2000/svg"><path d="M15.082 3.089v-.006a3.911 3.911 0 015.4 0 3.824 3.824 0 010 5.4h-.006c-.011-.012-.016-.027-.027-.038l-1.38-1.381a1.822 1.822 0 000-2.574 1.859 1.859 0 00-2.574 0l-1.384-1.384c-.004-.003-.018-.007-.029-.017zM8.493 20.426l-1.385-1.385a1.822 1.822 0 01-2.577-2.576L3.147 15.08c-.01-.009-.014-.023-.024-.033h-.006a3.822 3.822 0 005.4 5.405v-.006c-.001-.006-.016-.01-.024-.02z" fill="#000"/><path opacity=".3" d="M13.674 2.943a1.169 1.169 0 011.443.17l5.339 5.34a1.169 1.169 0 01.167 1.448 33.833 33.833 0 01-10.691 10.7 1.17 1.17 0 01-1.439-.172l-5.346-5.347a1.168 1.168 0 01-.173-1.44c.57-.908 1.176-1.78 1.819-2.616a2.41 2.41 0 00.37-2.281 2.82 2.82 0 013.618-3.613 2.414 2.414 0 002.284-.37 34.616 34.616 0 012.609-1.819zM7.857 15.8l7.978-7.978a1 1 0 10-1.414-1.414l-7.978 7.978A1 1 0 107.857 15.8zm2.466 2.684a37.369 37.369 0 008.2-8.2 1.002 1.002 0 00-.215-1.406 1 1 0 00-1.404.232 35.428 35.428 0 01-7.76 7.76 1 1 0 001.179 1.614zm-1.9-8.382c.06-1.145.559-1.643 1.723-1.714a1.002 1.002 0 00-.123-2 3.536 3.536 0 00-3.6 3.607 1 1 0 00.947 1.05h.053a1 1 0 001.001-.943h-.001z" fill="#000"/></svg>