<svg width="24" height="24" fill="none" xmlns="http://www.w3.org/2000/svg"><path opacity=".3" d="M20.554 4.378L12.18 2.025a.666.666 0 00-.36 0L3.446 4.378A.592.592 0 003 4.94v8.63c0 1.122.485 2.271 1.442 3.415.73.873 1.741 1.75 3.004 2.607a27.474 27.474 0 004.299 2.358.661.661 0 00.51 0 27.48 27.48 0 004.3-2.358c1.262-.857 2.273-1.733 3.003-2.607C20.515 15.84 21 14.691 21 13.569v-8.63a.592.592 0 00-.446-.56z" fill="#000"/><path d="M14.854 11.321a.494.494 0 00-.354-.14h-.167v-.954c0-.61-.229-1.133-.687-1.57A2.3 2.3 0 0012 8a2.3 2.3 0 00-1.646.656c-.458.438-.687.961-.687 1.571v.955H9.5a.494.494 0 00-.354.139.45.45 0 00-.146.338v2.864a.45.45 0 00.146.338c.097.093.215.139.354.139h5a.495.495 0 00.354-.14.45.45 0 00.146-.337v-2.864a.45.45 0 00-.146-.338zm-1.52-.14h-2.667v-.954c0-.351.13-.651.39-.9.26-.248.575-.372.943-.372s.682.124.943.372c.26.249.39.549.39.9v.955z" fill="#000"/></svg>