<svg width="24" height="24" fill="none" xmlns="http://www.w3.org/2000/svg"><rect opacity=".3" x="2" y="2" width="20" height="20" rx="10" fill="#000"/><path d="M15.805 11.639a.643.643 0 00-.472-.194h-.222V10.11c0-.852-.306-1.583-.917-2.194C13.584 7.306 12.852 7 12 7c-.852 0-1.584.306-2.195.917-.61.61-.916 1.342-.916 2.194v1.333h-.222a.643.643 0 00-.473.195.643.643 0 00-.194.472v4c0 .185.065.343.194.473.13.13.288.194.473.194h6.666a.643.643 0 00.473-.194.643.643 0 00.194-.473v-4a.642.642 0 00-.195-.472zm-2.027-.194h-3.556V10.11c0-.49.174-.91.521-1.257.347-.347.766-.52 1.257-.52.49 0 .91.173 1.257.52.347.347.52.766.52 1.257v1.333z" fill="#000"/></svg>