<svg width="20" height="21" fill="none" xmlns="http://www.w3.org/2000/svg"><path opacity=".3" d="M16 .2H4C1.8.2 0 2 0 4.2v12c0 2.2 1.8 4 4 4h12c2.2 0 4-1.8 4-4v-12c0-2.2-1.8-4-4-4zm-1 10c0 .7-.2 1.4-.4 2H18v4c0 1.1-.9 2-2 2h-4v-3.4c-.6.3-1.3.4-2 .4s-1.4-.2-2-.4v3.4H4c-1.1 0-2-.9-2-2v-4h3.4c-.3-.6-.4-1.3-.4-2s.2-1.4.4-2H2v-4c0-1.1.9-2 2-2h4v3.4c.6-.3 1.3-.4 2-.4s1.4.2 2 .4V2.2h4c1.1 0 2 .9 2 2v4h-3.4c.2.6.4 1.3.4 2z" fill="#000"/><path d="M12 1.4c3.4.8 6 3.4 6.8 6.8h-4.2C14.1 7 13.2 6.1 12 5.6V1.4zM5.4 8.2C5.9 7 6.8 6.1 8 5.6V1.4c-3.4.8-6 3.4-6.8 6.8h4.2zm9.2 4c-.5 1.2-1.4 2.1-2.6 2.6V19c3.4-.8 6-3.4 6.8-6.8h-4.2zM8 14.8c-1.2-.5-2.1-1.4-2.6-2.6H1.2c.8 3.4 3.4 6 6.8 6.8v-4.2z" fill="#000"/></svg>