<svg width="24" height="24" fill="none" xmlns="http://www.w3.org/2000/svg"><path opacity=".5" d="M18 2H9a3 3 0 00-3 3h2a1 1 0 011-1h9a1 1 0 011 1v11a1 1 0 01-1 1v2a3 3 0 003-3V5a3 3 0 00-3-3z" fill="#000"/><path fill-rule="evenodd" clip-rule="evenodd" d="M14.786 7.125H6.214c-.591 0-1.071.476-1.071 1.063v10.624c0 .587.48 1.063 1.071 1.063h8.572c.591 0 1.071-.476 1.071-1.063V8.188c0-.586-.48-1.062-1.071-1.062zM6.214 5C4.44 5 3 6.427 3 8.188v10.624C3 20.573 4.44 22 6.214 22h8.572C16.56 22 18 20.573 18 18.812V8.188C18 6.428 16.56 5 14.786 5H6.214z" fill="#000"/></svg>