<svg width="24" height="24" fill="none" xmlns="http://www.w3.org/2000/svg"><rect opacity=".3" x="2" y="2" width="20" height="20" rx="10" fill="#000"/><path d="M11.276 13.654c0-.383.06-.71.182-.98.13-.28.28-.509.448-.686.177-.177.41-.378.7-.602.336-.261.583-.49.742-.686.159-.205.238-.457.238-.756 0-.308-.103-.588-.308-.84-.196-.261-.588-.392-1.176-.392-.616 0-1.036.154-1.26.462a1.748 1.748 0 00-.322 1.022l.014.378H8.826a2.392 2.392 0 01-.056-.49c0-.532.13-1.013.392-1.442.261-.439.649-.784 1.162-1.036.523-.252 1.157-.378 1.904-.378.97 0 1.74.22 2.31.658.57.43.854 1.04.854 1.834 0 .448-.07.83-.21 1.148-.14.317-.308.574-.504.77a7.84 7.84 0 01-.77.658c-.364.28-.635.527-.812.742-.168.215-.252.49-.252.826v.462h-1.568v-.672zm-.084 1.568h1.736V17h-1.736v-1.778z" fill="#000"/></svg>