<svg width="24" height="24" fill="none" xmlns="http://www.w3.org/2000/svg"><path d="M11.293 2.707a1 1 0 011.414 0l2.586 2.586a1 1 0 010 1.414l-2.586 2.586a1 1 0 01-1.414 0L8.707 6.707a1 1 0 010-1.414l2.586-2.586zM11.293 14.707a1 1 0 011.414 0l2.586 2.586a1 1 0 010 1.414l-2.586 2.586a1 1 0 01-1.414 0l-2.586-2.586a1 1 0 010-1.414l2.586-2.586z" fill="#000"/><path opacity=".3" d="M5.293 8.707a1 1 0 011.414 0l2.586 2.586a1 1 0 010 1.414l-2.586 2.586a1 1 0 01-1.414 0l-2.586-2.586a1 1 0 010-1.414l2.586-2.586zM17.293 8.707a1 1 0 011.414 0l2.586 2.586a1 1 0 010 1.414l-2.586 2.586a1 1 0 01-1.414 0l-2.586-2.586a1 1 0 010-1.414l2.586-2.586z" fill="#000"/></svg>