<svg width="24" height="24" fill="none" xmlns="http://www.w3.org/2000/svg"><path opacity=".3" d="M4.054 15.198c4.291-7.43 9.524-11.935 16.874-13.184a.912.912 0 011.058 1.058c-1.249 7.35-5.754 12.583-13.184 16.874l-4.748-4.748zm-.235 2.14l-1.186 3.11a.712.712 0 00.92.92l3.112-1.188-2.846-2.843zM16.5 5.997a1.5 1.5 0 100 3 1.5 1.5 0 000-3z" fill="#000"/><path d="M4.054 15.198l-1.807-1.807a.845.845 0 01.184-1.333L9.153 8.29a34.631 34.631 0 00-5.099 6.91zM8.8 19.944l1.807 1.807a.845.845 0 001.333-.184l3.77-6.723a34.6 34.6 0 01-6.91 5.1zm-1.76-1.76l5.543-5.544a.868.868 0 00-1.227-1.227l-5.543 5.543 1.227 1.227z" fill="#000"/></svg>