<svg width="24" height="24" fill="none" xmlns="http://www.w3.org/2000/svg"><path opacity=".3" d="M19 22H5c-.6 0-1-.4-1-1V3c0-.6.4-1 1-1h9l6 6v13c0 .6-.4 1-1 1zm-6.5-4c0-.6.1-.5-.5-.5H8.5c-.6 0-.5-.1-.5.5s-.1.5.5.5L12 18c.6 0 .5.6.5 0zm4-5c0-.6.1-.5-.5-.5H8.5c-.6 0-.5-.1-.5.5s-.1.5.5.5h7c.6 0 1 .1 1-.5zm-4-5c0-.6.1-.5-.5-.5H8c-.6 0-.5-.1-.5.5s-.1.5.5.5h4c.6 0 .5.1.5-.5z" fill="#000"/><rect x="7" y="17" width="6" height="2" rx="1" fill="#000"/><rect x="7" y="12" width="10" height="2" rx="1" fill="#000"/><rect x="7" y="7" width="6" height="2" rx="1" fill="#000"/><path d="M15 8h5l-6-6v5c0 .6.4 1 1 1z" fill="#000"/></svg>