<svg width="24" height="24" fill="none" xmlns="http://www.w3.org/2000/svg"><path opacity=".3" d="M20.9 12.9c-.6 0-1-.4-1-1s.4-1 1-1h.9c-.5-4.7-4.2-8.5-8.9-8.9v.9c0 .6-.4 1-1 1s-1-.4-1-1V2c-4.7.5-8.5 4.2-8.9 8.9h.9c.6 0 1 .4 1 1s-.4 1-1 1H2c.5 4.7 4.2 8.5 8.9 8.9v-.9c0-.6.4-1 1-1s1 .4 1 1v.9c4.7-.5 8.5-4.2 8.9-8.9h-.9z" fill="#000"/><path d="M16.9 10.9h-3.3c-.2-.3-.4-.5-.7-.7V5.9c0-.6-.4-1-1-1s-1 .4-1 1v4.3c-.3.2-.5.4-.7.7h-.3c-.6 0-1 .4-1 1s.4 1 1 1h.3c.2.3.4.5.7.7v.3c0 .6.4 1 1 1s1-.4 1-1v-.3c.3-.2.5-.4.7-.7h3.3c.6 0 1-.4 1-1s-.4-1-1-1z" fill="#000"/></svg>