<svg width="24" height="24" fill="none" xmlns="http://www.w3.org/2000/svg"><path opacity=".3" d="M20.554 4.378L12.18 2.025a.666.666 0 00-.36 0L3.446 4.378A.592.592 0 003 4.94v8.63c0 1.122.485 2.271 1.442 3.415.73.873 1.741 1.75 3.004 2.607a27.474 27.474 0 004.299 2.358.661.661 0 00.51 0 27.48 27.48 0 004.3-2.358c1.262-.857 2.273-1.733 3.003-2.607C20.515 15.84 21 14.691 21 13.569v-8.63a.592.592 0 00-.446-.56z" fill="#000"/><path d="M10.56 11.304l-.987-1.002a.743.743 0 00-1.059 1.043l1.904 1.932a1 1 0 001.425 0l3.643-3.696a.743.743 0 00-1.059-1.044L11.7 11.304a.8.8 0 01-1.14 0z" fill="#000"/></svg>