<svg width="24" height="24" fill="none" xmlns="http://www.w3.org/2000/svg"><path opacity=".3" d="M22 12c0 5.5-4.5 10-10 10S2 17.5 2 12 6.5 2 12 2s10 4.5 10 10zm-10-2c-1.1 0-2 .9-2 2s.9 2 2 2 2-.9 2-2-.9-2-2-2zm-5.6-.1c.6-1.7 2-3 3.7-3.5.5-.2.8-.7.6-1.3-.2-.5-.7-.8-1.3-.6-2.3.8-4.1 2.5-5 4.7-.2.5.1 1.1.6 1.3.1 0 .2.1.4.1.5-.1.8-.4 1-.7zm8.4 9.6c2.2-.8 4-2.6 4.8-4.8.2-.5-.1-1.1-.6-1.3-.5-.2-1.1.1-1.3.6-.6 1.7-1.9 3-3.6 3.6-.5.2-.8.8-.6 1.3.1.4.5.7.9.7.1 0 .2 0 .4-.1z" fill="#000"/><path d="M16 12c0 2.2-1.8 4-4 4s-4-1.8-4-4 1.8-4 4-4 4 1.8 4 4zm-4-2c-1.1 0-2 .9-2 2s.9 2 2 2 2-.9 2-2-.9-2-2-2z" fill="#000"/></svg>