<svg width="24" height="24" fill="none" xmlns="http://www.w3.org/2000/svg"><path opacity=".3" d="M20.554 4.378L12.18 2.025a.666.666 0 00-.36 0L3.446 4.378A.592.592 0 003 4.94v8.63c0 1.122.485 2.271 1.442 3.415.73.873 1.741 1.75 3.004 2.607a27.474 27.474 0 004.299 2.358.661.661 0 00.51 0 27.48 27.48 0 004.3-2.358c1.262-.857 2.273-1.733 3.003-2.607C20.515 15.84 21 14.691 21 13.569v-8.63a.592.592 0 00-.446-.56z" fill="#000"/><rect x="9" y="13.028" width="7.354" height="1.226" rx=".613" transform="rotate(-45 9 13.028)" fill="#000"/><rect x="9.867" y="7.934" width="7.354" height="1.226" rx=".613" transform="rotate(45 9.867 7.934)" fill="#000"/></svg>