<svg width="24" height="24" fill="none" xmlns="http://www.w3.org/2000/svg"><path opacity=".3" fill-rule="evenodd" clip-rule="evenodd" d="M2 4.632A2.632 2.632 0 014.632 2h8.838a.6.6 0 01.408 1.04l-1.422 1.318a3 3 0 01-2.04.8H7.158a2 2 0 00-2 2v9.684a2 2 0 002 2h9.684a2 2 0 002-2v-3.09a3 3 0 01.939-2.18l1.207-1.141a.6.6 0 011.012.436v8.501A2.632 2.632 0 0119.368 22H4.632A2.632 2.632 0 012 19.368V4.632z" fill="#000"/><path d="M10.926 11.188a1 1 0 010-1.414l7.14-7.141a2 2 0 012.83 0l.47.47a2 2 0 010 2.83l-7.14 7.14a1 1 0 01-1.415 0l-1.885-1.885zM8.823 12.006l-.734 2.329a1 1 0 001.105 1.29l2.703-.416a.7.7 0 00.39-1.187l-2.301-2.3a.7.7 0 00-1.163.284z" fill="#000"/></svg>