<svg width="24" height="24" fill="none" xmlns="http://www.w3.org/2000/svg"><path d="M14 18v-2h-4v2l-1 2h6l-1-2z" fill="#000"/><path opacity=".3" d="M20 4h-3V3c0-.6-.4-1-1-1H8c-.6 0-1 .4-1 1v1H4c-.6 0-1 .4-1 1v4c0 2.2 1.8 4 4 4l3 3h4l3-3c2.2 0 4-1.8 4-4V5c0-.6-.4-1-1-1zM5 9V6h2v5c-1.1 0-2-.9-2-2zm14 0c0 1.1-.9 2-2 2V6h2v3zm-2 12v1H7v-1c0-.6.4-1 1-1h8c.6 0 1 .4 1 1zM10 9c-.6 0-1-.4-1-1V5c0-.6.4-1 1-1s1 .4 1 1v3c0 .6-.4 1-1 1zm0 4c-.6 0-1-.4-1-1v-1c0-.6.4-1 1-1s1 .4 1 1v1c0 .6-.4 1-1 1z" fill="#000"/></svg>