<svg width="24" height="24" fill="none" xmlns="http://www.w3.org/2000/svg"><path opacity=".3" d="M20.554 4.378L12.18 2.025a.666.666 0 00-.36 0L3.446 4.378A.592.592 0 003 4.94v8.63c0 1.122.485 2.271 1.442 3.415.73.873 1.741 1.75 3.004 2.607a27.474 27.474 0 004.299 2.358.661.661 0 00.51 0 27.48 27.48 0 004.3-2.358c1.262-.857 2.273-1.733 3.003-2.607C20.515 15.84 21 14.691 21 13.569v-8.63a.592.592 0 00-.446-.56z" fill="#000"/><path d="M12 11.154a2.083 2.083 0 002.078-2.077A2.083 2.083 0 0012 7a2.083 2.083 0 00-2.078 2.077c0 1.143.935 2.077 2.078 2.077zM15.565 13.814a1.935 1.935 0 00-.208-.38 2.582 2.582 0 00-1.787-1.126.383.383 0 00-.263.064 2.185 2.185 0 01-1.306.426c-.472 0-.926-.145-1.307-.426a.34.34 0 00-.263-.064 2.563 2.563 0 00-1.995 1.506c-.027.054-.018.118.009.172.073.127.163.254.245.363.127.172.263.327.417.472.127.127.272.245.417.363a4.109 4.109 0 002.468.816c.888 0 1.75-.281 2.467-.816.145-.11.29-.236.417-.363a4.19 4.19 0 00.662-.835c.045-.054.054-.118.027-.172z" fill="#000"/></svg>