<svg xmlns="http://www.w3.org/2000/svg" width="24" height="24"><path d="M10.081 3.724c.804-1.56 3.034-1.56 3.838 0a2.158 2.158 0 002.576 1.067c1.671-.534 3.248 1.043 2.714 2.714a2.158 2.158 0 001.067 2.576c1.56.804 1.56 3.034 0 3.838a2.158 2.158 0 00-1.067 2.576c.534 1.671-1.043 3.248-2.714 2.714a2.158 2.158 0 00-2.576 1.067c-.804 1.56-3.034 1.56-3.838 0a2.158 2.158 0 00-2.576-1.067c-1.671.534-3.248-1.043-2.714-2.714a2.158 2.158 0 00-1.067-2.576c-1.56-.804-1.56-3.034 0-3.838a2.158 2.158 0 001.067-2.576C4.257 5.834 5.834 4.257 7.505 4.79a2.158 2.158 0 002.576-1.067z" fill="#00A3FF"/><path class="permanent" d="M14.856 9.19c.205-.24.521-.252.761-.047.241.204.206.521.001.762l-3.755 4.75a.571.571 0 01-.815.058l-2.571-2.286a.571.571 0 11.759-.854l2.135 1.897 3.485-4.28z" fill="#fff"/></svg>