<svg width="24" height="24" fill="none" xmlns="http://www.w3.org/2000/svg"><path d="M13 9V8c0-.6.4-1 1-1h1c1.7 0 3-1.3 3-3V3c0-.6-.4-1-1-1s-1 .4-1 1v1c0 .6-.4 1-1 1h-1c-1.7 0-3 1.3-3 3v1h2z" fill="#000"/><path opacity=".3" d="M21 22H3c-.6 0-1-.4-1-1V10c0-.6.4-1 1-1h18c.6 0 1 .4 1 1v11c0 .6-.4 1-1 1zM5 12c-.6 0-1 .4-1 1s.4 1 1 1 1-.4 1-1-.4-1-1-1zm3 0c-.6 0-1 .4-1 1s.4 1 1 1 1-.4 1-1-.4-1-1-1zm3 0c-.6 0-1 .4-1 1s.4 1 1 1 1-.4 1-1-.4-1-1-1zm3 0c-.6 0-1 .4-1 1s.4 1 1 1 1-.4 1-1-.4-1-1-1zm-5 3c-.6 0-1 .4-1 1s.4 1 1 1 1-.4 1-1-.4-1-1-1zm3 0c-.6 0-1 .4-1 1s.4 1 1 1 1-.4 1-1-.4-1-1-1zm3 0c-.6 0-1 .4-1 1s.4 1 1 1 1-.4 1-1-.4-1-1-1zm4 3c-.6 0-1 .4-1 1s.4 1 1 1 1-.4 1-1-.4-1-1-1zM7 19c0-.6-.4-1-1-1H5c-.6 0-1 .4-1 1s.4 1 1 1h1c.6 0 1-.4 1-1zm0-3c0-.6-.4-1-1-1H5c-.6 0-1 .4-1 1s.4 1 1 1h1c.6 0 1-.4 1-1zm10-2h2c.6 0 1-.4 1-1s-.4-1-1-1h-2c-.6 0-1 .4-1 1s.4 1 1 1zm1 3h1c.6 0 1-.4 1-1s-.4-1-1-1h-1c-.6 0-1 .4-1 1s.4 1 1 1zm-1 2c0-.6-.4-1-1-1H9c-.6 0-1 .4-1 1s.4 1 1 1h7c.6 0 1-.4 1-1z" fill="#000"/></svg>