<svg width="24" height="24" fill="none" xmlns="http://www.w3.org/2000/svg"><path opacity=".3" d="M4.7 17.3V7.7a2 2 0 012-2h3.1a.85.85 0 000-1.7H5a2 2 0 00-2 2v13a2 2 0 002 2h13a2 2 0 002-2v-4.8a.85.85 0 00-1.7 0v3.1a2 2 0 01-2 2H6.7a2 2 0 01-2-2z" fill="#000"/><rect x="21.95" y="3.464" width="13" height="2" rx="1" transform="rotate(135 21.95 3.464)" fill="#000"/><path d="M19.828 4.972v4.967a1.06 1.06 0 002.122 0V3.05a1 1 0 00-1-1h-6.89a1.06 1.06 0 100 2.122h4.968a.8.8 0 01.8.8z" fill="#000"/></svg>