<svg width="24" height="24" fill="none" xmlns="http://www.w3.org/2000/svg"><rect opacity=".3" width="12" height="2" rx="1" transform="matrix(-1 0 0 1 15.5 11)" fill="#000"/><path d="M13.631 11.693l-1.755-1.463a1.04 1.04 0 111.358-1.578l2.925 2.6a1 1 0 010 1.495l-2.925 2.6a1.04 1.04 0 11-1.358-1.577l1.755-1.463a.4.4 0 000-.614z" fill="#000"/><path d="M8 5v1a1 1 0 002 0 1 1 0 011-1h7a1 1 0 011 1v12a1 1 0 01-1 1h-7a1 1 0 01-1-1 1 1 0 10-2 0v1a2 2 0 002 2h9a2 2 0 002-2V5a2 2 0 00-2-2h-9a2 2 0 00-2 2z" fill="#C4C4C4"/></svg>