<svg width="24" height="24" fill="none" xmlns="http://www.w3.org/2000/svg"><path d="M14.5 20.726c.1.5-.3 1.1-.8 1.2-.5.1-1.1.1-1.6.1-2.6 0-5.2-1-7.1-2.9-3.6-3.6-3.9-9.4-.7-13.3l1.4 1.4c-2.4 3.1-2.1 7.6.7 10.5 1.8 1.8 4.4 2.7 7 2.2.5-.1 1 .3 1.1.8zm3.9-3.9l1.4 1.4c3.1-3.9 2.9-9.7-.8-13.3-2.3-2.3-5.5-3.3-8.7-2.8-.5.1-.9.6-.8 1.1.1.5.6.9 1.1.8 2.5-.4 5.1.4 7 2.2 2.9 3 3.1 7.5.8 10.6z" fill="#000"/><path opacity=".3" d="M2 3.626h5c.6 0 1 .4 1 1v5l-6-6zm14 10.8v5c0 .6.4 1 1 1h5l-6-6z" fill="#000"/></svg>