<?xml version="1.0"?>
<svg xmlns="http://www.w3.org/2000/svg" version="1.2" baseProfile="tiny" width="800" height="1255" viewBox="0 0 800 1255" stroke-linecap="round" stroke-linejoin="round">
  <g id="COUNTY_MOI_1090820">
    <path d="M 441.9 12.51 442.7 13.42 441.9 14.09 440.87 13.54 441.9 12.51 Z" />
    <path d="M 596.02 110.72 592.85 111.85 589.9 114.47 589.71 115.74 587.04 117.99 585.42 121.1 584.57 124.79 584.67 129.14 585.87 132.22 586.01 134.99 587.1 138.5 589.75 140.73 588.49 142.56 588.79 145.81 586.31 146.93 586.99 149.7 583.17 153.66 582.01 158.5 580.75 161.62 581 162.97 576.32 162.08 573.17 160.77 569.8 158.65 567.97 161.41 567.93 163.18 564.25 162.4 561.29 160.8 559.4 161.1 555.8 159.11 554.68 157.68 551.77 157.94 549.66 158.84 548.98 157.2 546.91 157.12 545.86 155.8 545.28 153.1 547.22 149.95 548.42 149.57 551.86 146.23 551.31 144.17 552.68 142.8 551.97 141.34 553.9 140.22 556.38 134.97 557.99 134.91 562.39 133.79 562.51 132.89 566.41 131.28 567.01 129.81 566.75 126.02 568.98 125.63 569.73 124.34 572.09 124.17 577.75 120.68 579.97 120.61 581.85 119.13 582.44 117.22 585.52 116.83 587.1 115.36 586.72 112.49 590.63 111.97 594.29 110.34 596.02 110.72 Z" />
    <path d="M 477.91 171.43 481.65 172.69 483.83 177.71 485.19 178.73 490.1 179.62 491.11 182.25 491.37 185.33 493.49 185.24 495.28 186.55 492.38 187.01 492.8 190.51 491.4 191.57 492.05 193.55 491.82 195.99 490.61 200.03 494.34 203.8 492.29 204.39 485.28 203.2 482.17 203.29 477.55 201.94 476.07 200.94 471.16 201.06 466.29 201.71 462.14 200.61 459.42 198.11 461.52 196.37 464.41 191.1 466.2 189.82 466.94 187.7 468.33 186.55 468.95 182.94 473.23 178.45 474.74 174.38 477.91 171.43 Z" />
    <path d="M 547.27 170.15 547.76 172.03 542.97 173.74 542.45 177.01 545.15 178.54 545.71 181 542.59 183.4 542.79 184.54 540.78 188.25 542.17 190.32 541.26 194.9 541.43 196.74 539.19 200.08 538.3 204.45 536.5 205.55 538.33 207.66 539.3 210.42 538.85 214.14 537.11 218.94 533.68 220 531.98 222.63 531.93 224.64 527.64 225.61 525.79 225.33 523.48 228.77 524.5 230.6 521.62 231.83 520.41 229.73 517.11 229.16 513.97 228.67 507.83 229.02 505.45 223.94 506.63 219.95 501.1 217.78 499.37 218.1 498.82 217.23 493.92 218.13 491.41 216.19 492.91 212.46 492.24 209.04 493.51 206.91 492.29 204.39 494.34 203.8 490.61 200.03 491.82 195.99 492.05 193.55 491.4 191.57 492.8 190.51 492.38 187.01 495.28 186.55 500.56 187.76 502.48 186.93 505.95 182.18 508.29 177.9 514.16 179.24 516.53 177.64 518.49 178.49 520.32 177.71 521.64 175.44 524.54 175.53 528.7 172.21 531.02 172.29 533.55 170.01 534.57 171.03 537.62 169.71 539.05 170.45 540.39 168.61 542.16 169.5 545.82 169.41 547.27 170.15 Z" />
    <path d="M 448.53 224.88 446.93 228.37 445.02 228.23 448.53 224.88 Z M 492.29 204.39 493.51 206.91 492.24 209.04 492.91 212.46 491.41 216.19 493.92 218.13 498.82 217.23 499.37 218.1 499.61 220.14 498.36 221.37 494.67 220.63 492.7 219.45 489.9 220.31 487.31 220.23 484.2 219.36 481.58 216.19 475.82 217.51 473.69 216.84 470.86 218.33 468.25 220.57 464.82 221.98 461.48 225.69 459.63 226.43 453.59 225.14 452.91 217.35 451.88 215.57 455.42 206.51 454.46 204.51 458.43 200.38 459.42 198.11 462.14 200.61 466.29 201.71 471.16 201.06 476.07 200.94 477.55 201.94 482.17 203.29 485.28 203.2 492.29 204.39 Z" fill-rule="evenodd" />
    <path d="M 583.3 98.73 582.26 100.61 579.66 100.78 580.08 104.93 577.73 105.26 574.29 103.78 571.73 102.07 570.47 97.99 573.45 97.2 575.96 95.58 579 97.17 580.33 96.6 583.3 98.73 Z" />
    <path d="M 565.11 93.96 567.7 98.74 567.03 100.53 569.62 102.63 568.66 105.63 571.31 107.23 567.04 108.83 567.15 112.48 564.34 112.15 562.2 109.11 558.27 106.63 559.66 105.8 560.1 103.92 558.7 101.81 556.21 101.01 556.86 99.1 559.77 95.87 565.11 93.96 Z" />
    <path d="M 575.96 95.58 573.45 97.2 570.47 97.99 571.73 102.07 574.29 103.78 577.73 105.26 580.08 104.93 579.66 100.78 582.26 100.61 583.3 98.73 590.62 100.03 592.03 99.66 592.05 103.28 593.33 104.45 593.12 106.18 594.54 107.74 596.61 107.31 599.22 108.54 596.02 110.72 594.29 110.34 590.63 111.97 586.72 112.49 587.1 115.36 585.52 116.83 582.44 117.22 581.85 119.13 579.97 120.61 577.75 120.68 572.09 124.17 569.73 124.34 568.98 125.63 566.75 126.02 567.01 129.81 566.41 131.28 562.51 132.89 562.39 133.79 557.99 134.91 557.54 133.17 555.67 132.43 553.56 127.93 555.6 126.14 552.95 122.27 551.23 121.6 548.42 121.95 547.2 117.8 545.28 115.94 546.18 112.48 547.25 110.78 549.28 111.21 552.47 107.95 550.64 104.44 548.2 104.29 547.51 102.85 544.13 101.82 542.6 100.17 548.09 99.09 550.93 97.83 553.2 95.51 553.21 93.8 555.85 89.61 558.06 88.2 565.63 86 569.19 87.96 570.03 90.56 571.75 92.7 575.96 95.58 Z M 565.11 93.96 559.77 95.87 556.86 99.1 556.21 101.01 558.7 101.81 560.1 103.92 559.66 105.8 558.27 106.63 562.2 109.11 564.34 112.15 567.15 112.48 567.04 108.83 571.31 107.23 568.66 105.63 569.62 102.63 567.03 100.53 567.7 98.74 565.11 93.96 Z" fill-rule="evenodd" />
    <path d="M 555.8 159.11 554.51 160.47 553.55 163.53 550.2 165.78 547.27 170.15 545.82 169.41 542.16 169.5 540.39 168.61 539.05 170.45 537.62 169.71 534.57 171.03 533.55 170.01 531.02 172.29 528.7 172.21 524.54 175.53 521.64 175.44 520.32 177.71 518.49 178.49 516.53 177.64 514.16 179.24 508.29 177.9 505.95 182.18 502.48 186.93 500.56 187.76 495.28 186.55 493.49 185.24 491.37 185.33 491.11 182.25 490.1 179.62 485.19 178.73 483.83 177.71 481.65 172.69 477.91 171.43 479.45 170.09 483.16 162.93 484.89 161.44 490.84 153.19 492.23 154.17 496.33 158.83 499.33 160.12 501.53 161.93 505.21 162.92 507.41 164.91 512.96 164.78 514.36 163.89 513.94 161.37 515.39 160.81 520.8 161.67 523.19 164.39 526.17 162.42 527.21 162.79 529.98 161.32 531.46 159.5 533.57 159.42 535.31 157.78 538.53 157.62 539.51 154.77 540.69 153.37 541.55 154.2 545.28 153.1 545.86 155.8 546.91 157.12 548.98 157.2 549.66 158.84 551.77 157.94 554.68 157.68 555.8 159.11 Z" />
    <path d="M 493.31 248.33 491.96 252.19 490.43 253.13 488.23 256.25 487.16 258.74 481.6 263.66 478.24 265.59 474.77 272.44 471.72 272.3 469.92 274.5 464.45 273.35 462.57 273.58 457.21 272.06 455.86 272.81 455.64 269.83 452.73 265.94 449 263.34 446.72 262.52 444.37 260.01 446.26 256.04 448.25 250.21 448.49 247.31 449.49 245.13 449.72 242.49 450.85 241.61 451.42 239.28 455.19 241.76 456.16 243.07 459.47 242.73 460.81 240.3 463.8 238.65 465.11 236.52 468.25 235.71 469.53 234.49 476.48 233.55 479.28 234.8 479.98 236.82 484.44 240.24 483.07 241.49 483.4 247.83 487.45 249.05 488.93 247.99 493.31 248.33 Z" />
    <path d="M 542.6 100.17 544.13 101.82 547.51 102.85 548.2 104.29 550.64 104.44 552.47 107.95 549.28 111.21 547.25 110.78 546.18 112.48 545.28 115.94 547.2 117.8 548.42 121.95 551.23 121.6 552.95 122.27 555.6 126.14 553.56 127.93 555.67 132.43 557.54 133.17 557.99 134.91 556.38 134.97 553.9 140.22 551.97 141.34 549.6 141.18 548.51 139.33 548.07 135.5 546.2 133.55 543.86 133.22 544.51 128.57 542.14 127.32 539.07 124.68 537.77 125.09 532.33 121.62 532.61 118.73 529.31 118.58 525.23 116.92 524.77 114.38 523.44 113.6 519.02 114.09 521.29 111.09 522.67 107.78 524.49 105.99 530.21 103.38 532.73 102.79 537.02 100.79 540.76 99.72 542.6 100.17 Z" />
    <path d="M 540.69 153.37 539.51 154.77 538.53 157.62 535.31 157.78 533.57 159.42 531.46 159.5 529.98 161.32 527.21 162.79 526.17 162.42 523.19 164.39 520.8 161.67 515.39 160.81 513.94 161.37 514.36 163.89 512.96 164.78 507.41 164.91 505.21 162.92 501.53 161.93 499.33 160.12 496.33 158.83 492.23 154.17 490.84 153.19 493.71 150.29 495.76 146.85 498.19 140.62 501.33 138.23 503.89 135.45 506.58 135.01 509.17 132.67 510.61 129.87 515.38 131.88 521.55 137.5 526.2 139.66 526.93 141.5 525.3 144.12 526.71 145.28 525.67 146.72 526.07 148.64 528.08 148.8 530.11 147.73 533.66 148.32 537.17 147.36 537.54 148.65 540.62 151.4 540.69 153.37 Z" />
    <path d="M 477.2 225.35 478.38 226.71 479.99 226.35 482.03 228.74 480.91 230.47 478.85 229.78 476.58 231.5 472.97 228.15 477.2 225.35 Z" />
    <path d="M 499.37 218.1 501.1 217.78 506.63 219.95 505.45 223.94 507.83 229.02 513.97 228.67 517.11 229.16 512.35 230.61 511.59 231.84 508.63 233.07 507.01 236.56 505.15 237.16 503.47 239.12 501.5 238.96 500.7 240.71 497.91 241.74 496.45 243.63 492.55 242.73 492.14 244.86 493.31 248.33 488.93 247.99 487.45 249.05 483.4 247.83 483.07 241.49 484.44 240.24 479.98 236.82 479.28 234.8 476.48 233.55 469.53 234.49 468.25 235.71 465.11 236.52 463.8 238.65 460.81 240.3 459.47 242.73 456.16 243.07 455.19 241.76 451.42 239.28 452.48 235.79 454.53 235.71 453.57 232.36 453.89 230.35 451.49 225.59 453.59 225.14 459.63 226.43 461.48 225.69 464.82 221.98 468.25 220.57 470.86 218.33 473.69 216.84 475.82 217.51 481.58 216.19 484.2 219.36 487.31 220.23 489.9 220.31 492.7 219.45 494.67 220.63 498.36 221.37 499.61 220.14 499.37 218.1 Z M 477.2 225.35 472.97 228.15 476.58 231.5 478.85 229.78 480.91 230.47 482.03 228.74 479.99 226.35 478.38 226.71 477.2 225.35 Z" fill-rule="evenodd" />
    <path d="M 305.16 151.93 306.75 152.75 304.96 155.23 302.4 155.58 303.73 152.27 305.16 151.93 Z M 317.87 146 319.28 146.38 321.84 149.75 322.95 152.17 321.37 154.95 315.88 153.59 313.38 154.54 311.84 157.04 308.94 156.69 308.45 154.87 309.33 152.73 308.09 150.49 310.58 149.05 311.62 150.16 314.1 150.74 315.87 149.02 315.74 147.89 317.87 146 Z" fill-rule="evenodd" />
    <path d="M 521.62 231.83 522.46 234.37 520.52 235.24 519.5 236.89 521.22 238.83 524.2 240.4 522.65 242.65 518.1 243.94 515.57 246.73 513.81 247.31 511.66 255.23 511.76 258.03 510.2 261.21 509.53 265.27 506.42 268.95 507.01 273.31 508.07 275.19 509.45 275.41 509.83 278.18 506.58 276.4 503.11 278.79 500.3 275.79 497.6 275.16 495.13 277.07 493.9 276.88 492.65 274.88 489.59 275.82 485.55 279.29 478.86 279.15 477.69 284.56 477.84 287.93 476.35 292.11 476.12 295.82 477.06 297.29 476.82 300.15 475.27 303.58 475.39 307.47 473.63 307.07 467.37 302.85 465.88 300.5 462.82 297.05 461.74 293.23 462.88 291.31 462.24 288.02 458.3 279.97 455.86 272.81 457.21 272.06 462.57 273.58 464.45 273.35 469.92 274.5 471.72 272.3 474.77 272.44 478.24 265.59 481.6 263.66 487.16 258.74 488.23 256.25 490.43 253.13 491.96 252.19 493.31 248.33 492.14 244.86 492.55 242.73 496.45 243.63 497.91 241.74 500.7 240.71 501.5 238.96 503.47 239.12 505.15 237.16 507.01 236.56 508.63 233.07 511.59 231.84 512.35 230.61 517.11 229.16 520.41 229.73 521.62 231.83 Z" />
    <path d="M 559.92 337.51 564.75 337.55 564.88 340.95 567.61 342.7 566.84 344.01 565.02 343.84 560.4 340.27 559.92 337.51 Z M 558.89 291.14 559.52 293.61 557.48 293.56 556.84 291.68 558.89 291.14 Z M 559.25 231.87 557.59 235.64 556.58 241.44 554.3 243.35 552.89 247.51 551.58 249.62 552.32 253.2 551.35 257.02 549.08 258.37 547.76 260.68 545.19 267.37 538.91 276.23 535.41 277.66 536.15 281.64 534.62 282.89 534.28 284.67 530.45 287.86 526.8 289.51 523.51 291.69 522.17 293.35 521.15 298.06 519.3 299.59 517.25 304.65 516.08 308.79 512.21 317.96 511.97 322.43 512.31 324.87 510 326.17 507.86 325.08 504.64 322.52 503.89 321.14 504.53 319.24 503.61 317.11 502.27 316.96 500.67 315.09 501.5 312.46 503.96 311.45 502.83 309.38 500.99 308.28 501.86 304.94 500.05 301 500.54 298.11 501.75 294.85 504.6 290.23 507.66 289.6 508.59 288.04 511.31 288.04 512.19 286.43 512.1 284.15 512.86 281.56 510.15 280.23 509.83 278.18 509.45 275.41 508.07 275.19 507.01 273.31 506.42 268.95 509.53 265.27 510.2 261.21 511.76 258.03 511.66 255.23 513.81 247.31 515.57 246.73 518.1 243.94 522.65 242.65 524.84 243.18 525.91 246.43 526.97 247.67 530.55 248.42 531.37 250.13 534.17 249.45 535.26 249.96 537.02 254.53 539.94 255.61 541.11 257.75 545.15 257.25 545.81 254.24 548.56 246.11 550 244.8 549.87 242.75 552.49 238.83 551.73 235.75 553.26 233.08 555.33 231.19 559.25 231.87 Z" fill-rule="evenodd" />
    <path d="M 581 162.97 578.97 165.74 578.65 167.2 575.68 169.99 573.02 171.54 571.95 174.19 572.37 177.12 568.87 180.63 568.67 182.84 571.13 186.95 569.59 190.03 567.92 191.34 568.31 192.86 567.24 198.83 565.54 202.44 565.22 206.69 563.41 210.2 563.73 211.25 562 216.87 561.9 219.25 559.82 225.28 560.64 227.78 559.25 231.87 555.33 231.19 553.26 233.08 551.73 235.75 552.49 238.83 549.87 242.75 550 244.8 548.56 246.11 545.81 254.24 545.15 257.25 541.11 257.75 539.94 255.61 537.02 254.53 535.26 249.96 534.17 249.45 531.37 250.13 530.55 248.42 526.97 247.67 525.91 246.43 524.84 243.18 522.65 242.65 524.2 240.4 521.22 238.83 519.5 236.89 520.52 235.24 522.46 234.37 521.62 231.83 524.5 230.6 523.48 228.77 525.79 225.33 527.64 225.61 531.93 224.64 531.98 222.63 533.68 220 537.11 218.94 538.85 214.14 539.3 210.42 538.33 207.66 536.5 205.55 538.3 204.45 539.19 200.08 541.43 196.74 541.26 194.9 542.17 190.32 540.78 188.25 542.79 184.54 542.59 183.4 545.71 181 545.15 178.54 542.45 177.01 542.97 173.74 547.76 172.03 547.27 170.15 550.2 165.78 553.55 163.53 554.51 160.47 555.8 159.11 559.4 161.1 561.29 160.8 564.25 162.4 567.93 163.18 567.97 161.41 569.8 158.65 573.17 160.77 576.32 162.08 581 162.97 Z" />
    <path d="M 409.65 212.95 411.11 213.9 410.82 216.1 411.92 218.79 413.57 219.66 414.8 218.65 417.19 220.1 416.84 222.1 414.53 222.03 410.56 224.7 411.28 218.22 409.14 214.05 409.65 212.95 Z" />
    <path d="M 515.38 131.88 510.61 129.87 512.07 128.07 511.99 125.67 512.82 123.16 514.58 120.75 516.93 122.35 520.46 123.32 521.85 124.47 522.96 128.04 520.11 126.61 516.82 129.47 515.38 131.88 Z" />
    <path d="M 551.97 141.34 552.68 142.8 551.31 144.17 551.86 146.23 548.42 149.57 547.22 149.95 545.28 153.1 541.55 154.2 540.69 153.37 540.62 151.4 537.54 148.65 537.17 147.36 533.66 148.32 530.11 147.73 528.08 148.8 526.07 148.64 525.67 146.72 526.71 145.28 525.3 144.12 526.93 141.5 526.2 139.66 521.55 137.5 515.38 131.88 516.82 129.47 520.11 126.61 522.96 128.04 521.85 124.47 520.46 123.32 516.93 122.35 514.58 120.75 515.68 119.79 518.06 114.99 519.02 114.09 523.44 113.6 524.77 114.38 525.23 116.92 529.31 118.58 532.61 118.73 532.33 121.62 537.77 125.09 539.07 124.68 542.14 127.32 544.51 128.57 543.86 133.22 546.2 133.55 548.07 135.5 548.51 139.33 549.6 141.18 551.97 141.34 Z" />
    <path d="M 509.83 278.18 510.15 280.23 512.86 281.56 512.1 284.15 512.19 286.43 511.31 288.04 508.59 288.04 507.66 289.6 504.6 290.23 501.75 294.85 500.54 298.11 500.05 301 501.86 304.94 500.99 308.28 502.83 309.38 503.96 311.45 501.5 312.46 500.67 315.09 502.27 316.96 503.61 317.11 504.53 319.24 503.89 321.14 504.64 322.52 507.86 325.08 510 326.17 512.31 324.87 511.65 333.72 512.11 340.26 512.7 341.46 510.71 344.24 508.39 345.23 508.09 348.06 510.03 351.76 508.78 352.26 506.52 349.29 503.45 348.57 502.02 347.35 500.75 348.1 500.05 350.43 497.78 349.3 498.02 345.67 495.8 342.28 497.31 339.76 496.9 337.67 498.27 336.85 494.77 325.9 493.21 323.16 491.96 319.67 488 315.24 485.19 313.44 478.06 309.77 475.39 307.47 475.27 303.58 476.82 300.15 477.06 297.29 476.12 295.82 476.35 292.11 477.84 287.93 477.69 284.56 478.86 279.15 485.55 279.29 489.59 275.82 492.65 274.88 493.9 276.88 495.13 277.07 497.6 275.16 500.3 275.79 503.11 278.79 506.58 276.4 509.83 278.18 Z" />
  </g>
</svg>