<svg width="24" height="24" fill="none" xmlns="http://www.w3.org/2000/svg"><path d="M13 5.915c2.8.5 5 2.9 5 5.9 0 .7-.1 1.4-.4 2.1l2.5 1.4c.5.3 1.3.1 1.5-.5.3-.9.5-1.9.5-3 0-4.8-3.3-8.7-7.8-9.8-.6-.1-1.2.3-1.2 1v2.9H13z" fill="#000"/><path opacity=".3" d="M19.1 17.015c.6.3.7 1.1.2 1.5-1.8 2-4.4 3.2-7.3 3.2-2.9 0-5.5-1.2-7.3-3.2-.4-.5-.3-1.2.2-1.5l2.5-1.4c1.1 1.3 2.8 2.2 4.6 2.2 1.8 0 3.5-.8 4.6-2.2l2.5 1.4zm-12.7-3.1c-.2-.7-.4-1.4-.4-2.1 0-3 2.2-5.4 5-5.9v-2.9c0-.6-.6-1.1-1.2-1-4.5 1-7.8 5-7.8 9.8 0 1 .2 2 .5 3 .2.6.9.9 1.5.5l2.4-1.4z" fill="#000"/></svg>