<svg width="24" height="24" fill="none" xmlns="http://www.w3.org/2000/svg"><path opacity=".3" d="M19 22H5c-.6 0-1-.4-1-1V3c0-.6.4-1 1-1h9l6 6v13c0 .6-.4 1-1 1zm-3-8.5l-3.5-.5v-3c0-.6.1-.5-.5-.5s-.5-.1-.5.5l-.5 3-3 .5c-.6 0-1-.1-1 .5s.4.5 1 .5h3V18c0 .6.4 1 1 1s.5-.4.5-1v-3.5L16 14c.6 0 1 .6 1 0s-.4-.5-1-.5z" fill="#000"/><rect x="11" y="19" width="10" height="2" rx="1" transform="rotate(-90 11 19)" fill="#000"/><rect x="7" y="13" width="10" height="2" rx="1" fill="#000"/><path d="M15 8h5l-6-6v5c0 .6.4 1 1 1z" fill="#000"/></svg>