<svg width="24" height="24" fill="none" xmlns="http://www.w3.org/2000/svg"><path opacity=".3" d="M19 22H5c-.6 0-1-.4-1-1V3c0-.6.4-1 1-1h9l6 6v13c0 .6-.4 1-1 1z" fill="#000"/><g clip-path="url(#clip0_787_1289)" fill="#000"><path d="M9.561 15.716a.295.295 0 00-.222-.489H8.58A3.431 3.431 0 0112 11.573c.758 0 1.459.247 2.027.665.184.135.446.123.595-.05l.545-.639a.378.378 0 00-.043-.544A5.032 5.032 0 0012 9.929a5.037 5.037 0 00-3.585 1.486 5.037 5.037 0 00-1.48 3.812h-.64a.295.295 0 00-.222.49l1.442 1.652.302.348 1.087-1.247.657-.754zM17.927 14.752l-1.075-1.234-.67-.767-.954 1.096-.79.905a.295.295 0 00.223.489h.758A3.432 3.432 0 0112 18.427a3.406 3.406 0 01-1.784-.502.438.438 0 00-.562.073l-.553.648a.376.376 0 00.063.559c.831.563 1.81.866 2.836.866a5.037 5.037 0 003.585-1.486c.901-.9 1.421-2.08 1.48-3.344h.64a.295.295 0 00.222-.49z"/></g><path d="M15 8h5l-6-6v5c0 .6.4 1 1 1z" fill="#000"/><defs><clipPath id="clip0_787_1289"><path fill="#fff" transform="translate(6 9)" d="M0 0h12v12H0z"/></clipPath></defs></svg>