<svg width="24" height="24" fill="none" xmlns="http://www.w3.org/2000/svg"><path opacity=".3" d="M10 4h11c.6 0 1 .4 1 1v2H10V4z" fill="#000"/><path d="M10.4 3.6L12 6h9c.6 0 1 .4 1 1v12c0 .6-.4 1-1 1H3c-.6 0-1-.4-1-1V4c0-.6.4-1 1-1h6.2c.5 0 1 .2 1.2.6zM12 16.8c-1 0-1.8-.4-2.5-1-.7-.7-1-1.5-1-2.5 0-.5.1-1 .3-1.4l1.2 1.2v-3c0-.6-.4-1-1-1H6l1.3 1.3c-.5.9-.8 1.8-.8 2.9 0 1.5.6 2.9 1.6 3.9s2.4 1.6 3.9 1.6c.6 0 1-.5 1-1 0-.6-.4-1-1-1zm4.7-.6c.5-.9.8-1.8.8-2.9 0-1.5-.6-2.9-1.6-3.9S13.5 7.8 12 7.8c-.6 0-1 .4-1 1s.4 1 1 1c.9 0 1.8.4 2.5 1 .7.7 1 1.5 1 2.5 0 .5-.1 1-.3 1.4L14 13.5v3c0 .6.4 1 1 1h3l-1.3-1.3z" fill="#000"/><path opacity=".3" d="M12 16.8c-1 0-1.8-.4-2.5-1-.7-.7-1-1.5-1-2.5 0-.5.1-1 .3-1.4l-1.5-1.5c-.5.9-.8 1.8-.8 2.9 0 1.5.6 2.9 1.6 3.9s2.4 1.6 3.9 1.6c.6 0 1-.5 1-1 0-.6-.4-1-1-1zM15.5 13.3c0 .5-.1 1-.3 1.4l1.5 1.5c.5-.9.8-1.8.8-2.9 0-1.5-.6-2.9-1.6-3.9S13.5 7.8 12 7.8c-.6 0-1 .4-1 1s.4 1 1 1c.9 0 1.8.4 2.5 1 .6.7 1 1.6 1 2.5z" fill="#000"/></svg>