<svg width="24" height="24" fill="none" xmlns="http://www.w3.org/2000/svg"><path opacity=".3" d="M19 22H5c-.6 0-1-.4-1-1V3c0-.6.4-1 1-1h9l6 6v13c0 .6-.4 1-1 1zm-7.3-4.3L16 14c.4-.4.4-1.1 0-1.5-.4-.4-.6.1-1 .5l-4 3-2-1c-.4-.4-.6-.9-1-.5s.1 1.1.5 1.5l1.8 1.7c.2.2.5.3.7.3.2 0 .5-.1.7-.3z" fill="#000"/><path d="M10.434 15.434L9.25 14.25a1.06 1.06 0 00-1.5 1.5l2.543 2.543a1 1 0 001.414 0l4.543-4.543a1.06 1.06 0 00-1.5-1.5l-3.184 3.184a.8.8 0 01-1.132 0zM15 8h5l-6-6v5c0 .6.4 1 1 1z" fill="#000"/></svg>