<svg width="24" height="24" fill="none" xmlns="http://www.w3.org/2000/svg"><path d="M19.4 13.941l-8.7-8.7c-.3-.3-.7-.4-1.1-.2-.4.2-.6.5-.6.9v12.3c0 .4.2.7.6.9.1.1.3.1.4.1.2 0 .4-.1.6-.2.8-.6 1.5-1.1 2.3-1.5l1.5 3.5c.2.6.8.9 1.4.9.2 0 .4 0 .6-.1.8-.3 1.1-1.2.8-2l-1.5-3.6c1-.3 2-.5 3.1-.7.4 0 .7-.3.8-.7.2-.2.1-.6-.2-.9z" fill="#000"/><path opacity=".3" d="M15 6.941c-.2 0-.3 0-.4-.1-.5-.2-.7-.8-.4-1.3l1-2c.2-.5.8-.7 1.3-.4.5.2.7.8.4 1.3l-1 2c-.2.3-.5.5-.9.5zm3.4 2.9l2-1c.5-.2.7-.8.4-1.3-.2-.5-.8-.7-1.3-.4l-2 1c-.5.2-.7.8-.4 1.3.2.4.5.6.9.6.2-.1.3-.1.4-.2zm-11.3 1.1c0-.6-.4-1-1-1H4c-.6 0-1 .4-1 1s.4 1 1 1h2.1c.6 0 1-.4 1-1zm-2.2 6.2l2-1c.5-.2.7-.8.4-1.3-.2-.5-.8-.7-1.3-.4l-2 1c-.5.2-.7.8-.4 1.3.2.4.5.6.9.6.1-.1.3-.1.4-.2z" fill="#000"/></svg>