<svg width="24" height="24" fill="none" xmlns="http://www.w3.org/2000/svg"><path d="M11.217 8.5l-.7-.7c-.4-.4-.4-1 0-1.4l2.9-2.9c2.1-2.1 5.5-2 7.4.4 1.7 2 1.4 5-.5 6.9l-2.8 2.8c-.4.4-1 .4-1.4 0l-.7-.7c-.4-.4-.4-1 0-1.4l2.9-2.9c.9-.9.8-2.3-.3-3.1-.8-.6-2-.4-2.7.3l-2.9 2.9c-.2.2-.8.2-1.2-.2zm0 7.1l-2.7 2.7c-.7.7-1.8.9-2.7.3-1-.7-1.1-2.2-.3-3.1l2.8-2.8c.4-.4.4-1 0-1.4l-.7-.7c-.4-.4-1-.4-1.4 0l-2.6 2.6c-1.9 1.9-2.2 4.9-.5 6.9 1.9 2.3 5.4 2.4 7.4.4l2.8-2.8c.4-.4.4-1 0-1.4l-.7-.7c-.3-.4-1-.4-1.4 0z" fill="#000"/><path opacity=".3" d="M5.017 9l-2.2-.6c-.5-.1-.8-.6-.7-1.2l.2-1.3c.1-.7.9-1 1.5-.7l2.2 1.2c.4.2.6.7.5 1.2l-.2.7c-.2.5-.8.8-1.3.7zm3.4-3.3h.2c.5 0 .9-.4.9-.9l.1-1.7c0-.6-.4-1.1-1.1-1.1h-.7c-.6 0-1.1.6-.9 1.2l.4 1.7c.1.5.6.8 1.1.8zm6.2 12.5l.5 3.1c.1.5.6.9 1.1.7l1.4-.4c.5-.2.8-.8.5-1.3l-1.4-2.8c-.2-.4-.6-.6-1-.5l-.5.1c-.4.2-.7.6-.6 1.1zm3.8-1.9l1.4.9c.4.3 1 .1 1.2-.4l.3-.9c.2-.5-.2-1.1-.8-1.1h-1.7c-.8 0-1.1 1.1-.4 1.5z" fill="#000"/></svg>