<svg width="24" height="24" fill="none" xmlns="http://www.w3.org/2000/svg"><path opacity=".3" d="M22.032 8.6c0 1.8-.6 3.6-2 4.9-1.6 1.6-3.7 2.2-5.8 1.9-.9-.1-1.9.2-2.5.9l-4.8 4.8c-1.2 1.2-3.1 1.1-4.2-.1-1.1-1.2-.9-3 .2-4.1l4.6-4.6c.7-.7 1-1.6.9-2.5-.3-2 .3-4.2 1.9-5.8 1.4-1.4 3.2-2 4.9-2 .9 0 1.4 1.2.7 1.8l-2.9 2.9c-.5.5-.6 1.2-.3 1.8.6 1.2 1.5 2.1 2.7 2.7.6.3 1.3.1 1.8-.3l2.9-2.9c.7-.8 1.9-.4 1.9.6z" fill="#000"/><path d="M4.232 19.7c-.4-.4-.4-1 0-1.4l5.5-5.5c.4-.4 1-.4 1.4 0 .4.4.4 1 0 1.4l-5.5 5.5c-.4.4-1.1.4-1.4 0z" fill="#000"/></svg>