<svg xmlns="http://www.w3.org/2000/svg" xmlns:xlink="http://www.w3.org/1999/xlink" width="362" height="238" viewBox="0 0 362 238"><defs><filter id="a" x="0" y="0" width="362" height="238" filterUnits="userSpaceOnUse"><feOffset dy="2" input="SourceAlpha"/><feGaussianBlur stdDeviation="4" result="b"/><feFlood flood-color="#74809e" flood-opacity="0.38"/><feComposite operator="in" in2="b"/><feComposite in="SourceGraphic"/></filter><filter id="c" x="0" y="0" width="362" height="238" filterUnits="userSpaceOnUse"><feOffset dy="2" input="SourceAlpha"/><feGaussianBlur stdDeviation="4" result="d"/><feFlood flood-color="#74809e" flood-opacity="0.38"/><feComposite operator="in" in2="d"/><feComposite in="SourceGraphic"/></filter><linearGradient id="e" x1="0.5" x2="0.5" y2="1" gradientUnits="objectBoundingBox"><stop offset="0" stop-color="#1bb48a"/><stop offset="1" stop-color="#7bc44e"/></linearGradient><filter id="f" x="233.5" y="114.5" width="115" height="115" filterUnits="userSpaceOnUse"><feOffset dy="2" input="SourceAlpha"/><feGaussianBlur stdDeviation="4.5" result="g"/><feFlood flood-color="#74809e" flood-opacity="0.161"/><feComposite operator="in" in2="g"/><feComposite in="SourceGraphic"/></filter><linearGradient id="h" x1="-0.139" y1="-0.192" x2="1" y2="1.151" xlink:href="#e"/><clipPath id="m"><g transform="matrix(1, 0, 0, 1, 0, 0)" filter="url(#a)"><rect width="338" height="214" rx="12" transform="translate(654 216)" fill="#fff"/></g></clipPath><linearGradient id="n" x1="0" x2="1" y2="0.5" xlink:href="#e"/></defs><g transform="translate(-642 -206)"><g transform="matrix(1, 0, 0, 1, 642, 206)" filter="url(#c)"><rect width="338" height="214" rx="12" transform="translate(12 10)" fill="#fff" opacity="0"/></g><text transform="translate(674 259)" fill="#163440" font-size="20" font-family="NotoSansCJKtc-Bold, Noto Sans CJK TC" font-weight="700"><tspan x="0" y="0" xml:space="preserve">參訓中學員數 /  結訓學員就業率</tspan></text><text transform="translate(674 315)" fill="#15ca20" font-size="36" font-family="NotoSansCJKtc-Black, Noto Sans CJK TC" font-weight="800"><tspan x="0" y="0">27,829</tspan></text><g transform="translate(470 -142)"><g transform="matrix(1, 0, 0, 1, 172, 348)" filter="url(#f)"><rect width="88" height="88" rx="44" transform="translate(247 126)" opacity="0.88" fill="url(#e)"/></g><text transform="translate(463 530)" fill="#fff" font-size="28" font-family="NotoSansCJKtc-Bold, Noto Sans CJK TC" font-weight="700"><tspan x="-29.96" y="0">77%</tspan></text></g><g transform="translate(103 -147)"><rect width="48" height="48" transform="translate(571 505)" opacity="0" fill="url(#h)"/><g transform="translate(574.636 509.364)"><path d="M13.75,2a9.491,9.491,0,0,0-.24,18.98,1.613,1.613,0,0,1,.44,0h.14A9.493,9.493,0,0,0,13.75,2Z" transform="translate(0.328 -2)" opacity="0.4" fill="url(#h)"/><path d="M26.2,15.545c-5.58-3.72-14.68-3.72-20.3,0-2.54,1.7-3.94,4-3.94,6.46s1.4,4.74,3.92,6.42a18.479,18.479,0,0,0,10.16,2.82,18.479,18.479,0,0,0,10.16-2.82c2.52-1.7,3.92-3.98,3.92-6.46C30.1,19.5,28.721,17.225,26.2,15.545Z" transform="translate(-1.961 8.755)" fill="url(#h)"/><path d="M25.871,10.624a7.158,7.158,0,0,1-6.26,7.74h-.1a.936.936,0,0,0-.34.04,7.176,7.176,0,0,1-5.06-1.66,9.152,9.152,0,0,0,3-7.6,9.282,9.282,0,0,0-1.54-4.36,7.181,7.181,0,0,1,10.3,5.84Z" transform="translate(10.189 0.057)" opacity="0.4" fill="url(#h)"/><path d="M29.99,20.68a6.091,6.091,0,0,1-3.48,4.76A14.117,14.117,0,0,1,19.49,27a7.139,7.139,0,0,0,2.44-4.64c.2-2.48-.98-4.86-3.34-6.76a16.51,16.51,0,0,0-4.6-2.52c4.42-1.28,9.98-.42,13.4,2.34A6.077,6.077,0,0,1,29.99,20.68Z" transform="translate(10.068 8.5)" fill="url(#h)"/></g></g><g clip-path="url(#m)"><rect width="4" height="214" rx="2" transform="translate(654 216)" fill="#31d03b" opacity="0"/></g><rect width="122" height="6" rx="2" transform="translate(674 324)" opacity="0.158" fill="url(#n)"/><text transform="translate(803 317)" fill="#74809e" font-size="18" font-family="NotoSansCJKtc-Bold, Noto Sans CJK TC" font-weight="700"><tspan x="0" y="0">位</tspan></text></g></svg>