<svg xmlns="http://www.w3.org/2000/svg" xmlns:xlink="http://www.w3.org/1999/xlink" width="362" height="238" viewBox="0 0 362 238"><defs><filter id="a" x="0" y="0" width="362" height="238" filterUnits="userSpaceOnUse"><feOffset dy="2" input="SourceAlpha"/><feGaussianBlur stdDeviation="4" result="b"/><feFlood flood-color="#74809e" flood-opacity="0.38"/><feComposite operator="in" in2="b"/><feComposite in="SourceGraphic"/></filter><filter id="c" x="0" y="0" width="362" height="238" filterUnits="userSpaceOnUse"><feOffset dy="2" input="SourceAlpha"/><feGaussianBlur stdDeviation="4" result="d"/><feFlood flood-color="#74809e" flood-opacity="0.38"/><feComposite operator="in" in2="d"/><feComposite in="SourceGraphic"/></filter><linearGradient id="e" x1="0.5" x2="0.5" y2="1" gradientUnits="objectBoundingBox"><stop offset="0" stop-color="#23d7dc"/><stop offset="1" stop-color="#528de7"/></linearGradient><filter id="f" x="232.5" y="114.5" width="115" height="115" filterUnits="userSpaceOnUse"><feOffset dy="2" input="SourceAlpha"/><feGaussianBlur stdDeviation="4.5" result="g"/><feFlood flood-color="#74809e" flood-opacity="0.161"/><feComposite operator="in" in2="g"/><feComposite in="SourceGraphic"/></filter><linearGradient id="h" x1="-0.139" y1="-0.192" x2="1" y2="1.151" xlink:href="#e"/><clipPath id="m"><g transform="matrix(1, 0, 0, 1, 0, 0)" filter="url(#a)"><rect width="338" height="214" rx="12" transform="translate(300 216)" fill="#fff"/></g></clipPath><linearGradient id="n" x1="0" x2="1" y2="0.5" xlink:href="#e"/></defs><g transform="translate(-288 -206)"><g transform="matrix(1, 0, 0, 1, 288, 206)" filter="url(#c)"><rect width="338" height="214" rx="12" transform="translate(12 10)" fill="#fff" opacity="0"/></g><text transform="translate(320 259)" fill="rgba(22,52,64,0.4)" font-size="20" font-family="NotoSansCJKtc-Bold, Noto Sans CJK TC" font-weight="700"><tspan x="0" y="0">累積使用經費 / 執行率 </tspan><tspan y="0" font-size="14">(單位：元或千元)</tspan></text><text transform="translate(585 317)" fill="#74809e" font-size="18" font-family="NotoSansCJKtc-Bold, Noto Sans CJK TC" font-weight="700"><tspan x="0" y="0">元</tspan></text><text transform="translate(320 315)" fill="#0dcaf0" font-size="36" font-family="NotoSansCJKtc-Black, Noto Sans CJK TC" font-weight="800"><tspan x="0" y="0">1,875,672,991</tspan></text><g transform="translate(115 -142)"><g transform="matrix(1, 0, 0, 1, 173, 348)" filter="url(#f)"><rect width="88" height="88" rx="44" transform="translate(246 126)" opacity="0.88" fill="url(#e)"/></g><text transform="translate(463 529.5)" fill="#fff" font-size="28" font-family="NotoSansCJKtc-Bold, Noto Sans CJK TC" font-weight="700"><tspan x="-29.96" y="0">83%</tspan></text></g><g transform="translate(-175 -159)"><rect width="48" height="48" transform="translate(495 517)" opacity="0" fill="url(#h)"/><g transform="translate(497.909 522.818)"><path d="M9,14a8,8,0,1,0,8,8A8,8,0,0,0,9,14Zm2,7.36a3.526,3.526,0,0,1-1.7,3l-1.52.92a1.489,1.489,0,1,1-1.52-2.56l1.52-.92a.514.514,0,0,0,.24-.42V19.52a1.5,1.5,0,0,1,3,0v1.84Z" transform="translate(-1 6)" fill="url(#h)"/><path d="M42,14V26c0,7-4,10-10,10H14.9A7.8,7.8,0,0,0,16,32,7.993,7.993,0,0,0,2,26.72V14C2,7,6,4,12,4H32C38,4,42,7,42,14Z" transform="translate(0 -4)" opacity="0.4" fill="url(#h)"/><path d="M14.5,19.5a5,5,0,1,0-5-5A5,5,0,0,0,14.5,19.5Z" transform="translate(7.5 1.5)" fill="url(#h)"/><path d="M19.25,20.25a1.511,1.511,0,0,1-1.5-1.5v-8a1.5,1.5,0,0,1,3,0v8A1.511,1.511,0,0,1,19.25,20.25Z" transform="translate(15.75 1.25)" fill="url(#h)"/></g></g><g clip-path="url(#m)"><rect width="4" height="214" rx="2" transform="translate(300 216)" fill="#2ad0f1" opacity="0"/></g><rect width="258" height="6" rx="2" transform="translate(320 324)" opacity="0.158" fill="url(#n)"/></g></svg>