<svg xmlns="http://www.w3.org/2000/svg" xmlns:xlink="http://www.w3.org/1999/xlink" width="362" height="238" viewBox="0 0 362 238"><defs><filter id="a" x="0" y="0" width="362" height="238" filterUnits="userSpaceOnUse"><feOffset dy="2" input="SourceAlpha"/><feGaussianBlur stdDeviation="4" result="b"/><feFlood flood-color="#74809e" flood-opacity="0.38"/><feComposite operator="in" in2="b"/><feComposite in="SourceGraphic"/></filter><filter id="c" x="0" y="0" width="362" height="238" filterUnits="userSpaceOnUse"><feOffset dy="2" input="SourceAlpha"/><feGaussianBlur stdDeviation="4" result="d"/><feFlood flood-color="#74809e" flood-opacity="0.38"/><feComposite operator="in" in2="d"/><feComposite in="SourceGraphic"/></filter><linearGradient id="e" x1="0.5" x2="0.5" y2="1" gradientUnits="objectBoundingBox"><stop offset="0" stop-color="#ffcf44"/><stop offset="1" stop-color="#ed8a4e"/></linearGradient><filter id="f" x="232.5" y="119.5" width="115" height="115" filterUnits="userSpaceOnUse"><feOffset dy="2" input="SourceAlpha"/><feGaussianBlur stdDeviation="4.5" result="g"/><feFlood flood-color="#74809e" flood-opacity="0.161"/><feComposite operator="in" in2="g"/><feComposite in="SourceGraphic"/></filter><linearGradient id="h" x1="-0.139" y1="-0.192" x2="1" y2="1.151" xlink:href="#e"/><clipPath id="m"><g transform="matrix(1, 0, 0, 1, 0, 0)" filter="url(#a)"><rect width="338" height="214" rx="12" transform="translate(1008 216)" fill="#fff"/></g></clipPath><linearGradient id="n" x1="0" x2="1" y2="0.5" xlink:href="#e"/></defs><g transform="translate(-996 -206)"><g transform="matrix(1, 0, 0, 1, 996, 206)" filter="url(#c)"><rect width="338" height="214" rx="12" transform="translate(12 10)" fill="#fff" opacity="0"/></g><text transform="translate(1028 259)" fill="#163440" font-size="20" font-family="NotoSansCJKtc-Bold, Noto Sans CJK TC" font-weight="700"><tspan x="0" y="0">開班中訓練單位數 / 開班率</tspan></text><text transform="translate(1028 315)" fill="#ffc107" font-size="36" font-family="NotoSansCJKtc-Black, Noto Sans CJK TC" font-weight="800"><tspan x="0" y="0">1,210</tspan></text><g transform="translate(823 -137)"><g transform="matrix(1, 0, 0, 1, 173, 343)" filter="url(#f)"><rect width="88" height="88" rx="44" transform="translate(246 131)" opacity="0.88" fill="url(#e)"/></g><text transform="translate(463 530)" fill="#fff" font-size="28" font-family="NotoSansCJKtc-Bold, Noto Sans CJK TC" font-weight="700"><tspan x="-29.96" y="0">92%</tspan></text></g><g transform="translate(305 -146)"><rect width="48" height="48" transform="translate(720 504)" opacity="0" fill="url(#h)"/><g transform="translate(722.182 506.182)"><path d="M39,2V26.2C39,30,37,32,33.2,32H8.8C5,32,3,30,3,26.2V2Z" transform="translate(0.5 -0.5)" opacity="0.4" fill="url(#h)"/><path d="M42.75,4.25h-40a1.5,1.5,0,0,1,0-3h40a1.5,1.5,0,0,1,0,3Z" transform="translate(-1.25 -1.25)" fill="url(#h)"/><path d="M26.093,27.68a1.505,1.505,0,0,1-1.34.82,1.528,1.528,0,0,1-.66-.16l-7.34-3.66-7.34,3.66a1.528,1.528,0,0,1-.66.16,1.505,1.505,0,0,1-1.34-.82,1.48,1.48,0,0,1,.68-2.02l7.16-3.58V17h3v5.08l7.16,3.58A1.48,1.48,0,0,1,26.093,27.68Z" transform="translate(4.748 14.5)" fill="url(#h)"/><path d="M8.256,16.255a1.517,1.517,0,0,1-1.16-.54,1.5,1.5,0,0,1,.2-2.12l6.3-5.26a2.514,2.514,0,0,1,2.02-.56,2.477,2.477,0,0,1,1.72,1.2l2.1,3.5,5.86-4.88a1.506,1.506,0,1,1,1.92,2.32l-6.3,5.26a2.514,2.514,0,0,1-2.02.56,2.477,2.477,0,0,1-1.72-1.2l-2.1-3.5-5.86,4.88A1.563,1.563,0,0,1,8.256,16.255Z" transform="translate(4.246 4.745)" fill="url(#h)"/></g></g><g clip-path="url(#m)"><rect width="4" height="214" rx="2" transform="translate(1008 216)" fill="#ffc825" opacity="0"/></g><rect width="100" height="6" rx="2" transform="translate(1028 324)" opacity="0.158" fill="url(#n)"/><text transform="translate(1136 317)" fill="#74809e" font-size="18" font-family="NotoSansCJKtc-Bold, Noto Sans CJK TC" font-weight="700"><tspan x="0" y="0">班</tspan></text></g></svg>