<svg xmlns="http://www.w3.org/2000/svg" xmlns:xlink="http://www.w3.org/1999/xlink" width="128" height="104" viewBox="0 0 128 104"><defs><clipPath id="a"><rect width="128" height="104" transform="translate(-10080 2171)" fill="#fff" opacity="0"/></clipPath></defs><g transform="translate(10080 -2171)"><g clip-path="url(#a)"><g transform="translate(-10080 2175.222)"><path d="M68.1,107.775l-1.951,1.8,1.551-2.6a20.092,20.092,0,0,0-3.219-4.13s-4.145,3.971-4.145,7.093,1.856,4.212,4.145,4.212,4.145-1.09,4.145-4.212A5.476,5.476,0,0,0,68.1,107.775Z" transform="translate(-24.889 -18.889)" fill="#f2f2f2"/><path d="M65.647,109.668v.154a8.216,8.216,0,0,1-.9,4.167l-.026.043-.066-.04-.063-.04a8.126,8.126,0,0,0,.9-4.121c0-.05,0-.1,0-.152,0-.66-.043-1.328-.107-1.977,0-.05-.01-.1-.015-.152-.09-.856-.219-1.674-.352-2.385-.009-.05-.019-.1-.029-.15-.229-1.2-.463-2.073-.516-2.265l-.011-.04.072-.021h0l.073-.021s.014.046.035.127c.082.3.293,1.12.5,2.2.009.049.019.1.028.149.108.577.214,1.221.3,1.9q.032.255.057.5c.006.051.011.1.016.152Q65.643,108.749,65.647,109.668Z" transform="translate(-24.889 -18.889)" fill="#fff"/><path d="M65.139,104.994c-.051.007-.1.014-.155.019a4.2,4.2,0,0,1-.43.022,4.088,4.088,0,0,1-1.767-.4l-.1.122a4.239,4.239,0,0,0,1.864.43,4.349,4.349,0,0,0,.459-.024c.052-.005.1-.012.155-.02a4.2,4.2,0,0,0,1.215-.368l-.1-.123A4.074,4.074,0,0,1,65.139,104.994Z" transform="translate(-24.889 -18.889)" fill="#fff"/><path d="M65.522,107.544q-.079,0-.158,0h-.049a4.109,4.109,0,0,1-3.373-1.762c-.03.045-.061.09-.091.136a4.262,4.262,0,0,0,3.464,1.779h.064l.158,0A4.239,4.239,0,0,0,67.8,106.9l-.074-.135A4.081,4.081,0,0,1,65.522,107.544Z" transform="translate(-24.889 -18.889)" fill="#fff"/><path d="M65.647,109.668c-.053,0-.107.008-.16.01s-.114,0-.171,0a4.12,4.12,0,0,1-3.95-2.965c-.034.062-.069.123-.1.184a4.271,4.271,0,0,0,4.052,2.933c.057,0,.114,0,.171,0s.107,0,.161-.008a4.259,4.259,0,0,0,2.811-1.372c-.016-.056-.034-.112-.053-.168a4.107,4.107,0,0,1-2.758,1.386Z" transform="translate(-24.889 -18.889)" fill="#fff"/><path d="M141.292,110.509l-2.648.153,2.848-1.03a20.093,20.093,0,0,0,.127-5.235s-5.723.444-7.7,2.859-1.234,4.434.537,5.885,3.9,1.784,5.875-.63a5.476,5.476,0,0,0,.961-2Z" transform="translate(-24.889 -18.889)" fill="#f2f2f2"/><path d="M138.194,110.418l-.1.119a8.217,8.217,0,0,1-3.339,2.651l-.047.017-.026-.073-.024-.071a8.126,8.126,0,0,0,3.306-2.619c.032-.038.065-.077.1-.117.417-.512.809-1.055,1.17-1.6l.085-.128c.473-.719.892-1.434,1.239-2.068.025-.045.049-.09.073-.134.585-1.075.955-1.9,1.036-2.08l.017-.037.069.03h0l.07.03s-.019.045-.054.121c-.128.285-.483,1.053-1.007,2.02l-.073.133c-.282.515-.608,1.08-.972,1.656q-.137.217-.274.425c-.028.043-.056.086-.084.128Q138.774,109.7,138.194,110.418Z" transform="translate(-24.889 -18.889)" fill="#fff"/><path d="M140.764,106.481c-.044-.027-.088-.055-.132-.084a4.2,4.2,0,0,1-.346-.255,4.088,4.088,0,0,1-1.114-1.429l-.152.033a4.239,4.239,0,0,0,1.169,1.514,4.348,4.348,0,0,0,.37.272c.043.029.088.056.132.083a4.2,4.2,0,0,0,1.173.485q0-.08,0-.156a4.074,4.074,0,0,1-1.1-.463Z" transform="translate(-24.889 -18.889)" fill="#fff"/><path d="M139.444,108.7q-.064-.046-.125-.1l-.038-.03a4.109,4.109,0,0,1-1.492-3.5l-.156.047a4.262,4.262,0,0,0,1.552,3.571l.05.04.125.1a4.239,4.239,0,0,0,2.249.819c.01-.05.019-.1.028-.151A4.081,4.081,0,0,1,139.444,108.7Z" transform="translate(-24.889 -18.889)" fill="#fff"/><path d="M138.194,110.418c-.044-.03-.087-.062-.13-.094s-.091-.069-.135-.106a4.12,4.12,0,0,1-1.176-4.8c-.066.026-.131.051-.2.078a4.271,4.271,0,0,0,1.275,4.836c.044.036.089.072.134.105s.086.065.13.1a4.259,4.259,0,0,0,3.044.72c.023-.054.044-.108.066-.164a4.107,4.107,0,0,1-3.012-.676Z" transform="translate(-24.889 -18.889)" fill="#fff"/><path d="M24.554,93.414h2.064L27,85.408l-2.448.043Z" fill="#ffb6b6"/><path d="M48.916,111.629h4.066a2.591,2.591,0,0,1,2.591,2.591v.084H48.916Z" transform="translate(-24.889 -18.889)" fill="#2f2e41"/><path d="M16.208,93.414h2.064l.409-8.006-2.474.043Z" fill="#ffb6b6"/><path d="M40.571,111.629h4.066a2.591,2.591,0,0,1,2.591,2.591v.084H40.571Z" transform="translate(-24.889 -18.889)" fill="#2f2e41"/><path d="M61.207,78.006a1.637,1.637,0,0,0-1.978-1.544l-3.014-4.974-1.3,2.731,3.061,4.3a1.646,1.646,0,0,0,3.227-.517Z" transform="translate(-24.889 -18.889)" fill="#ffb6b6"/><path d="M36.02,83.209a1.637,1.637,0,0,0-.609-2.435L36.094,75l-2.7,1.356-.235,5.277a1.646,1.646,0,0,0,2.862,1.578Z" transform="translate(-24.889 -18.889)" fill="#ffb6b6"/><path d="M50.653,77.358l1.462.866s1.188.756.788,6.016-.877,26.331-.877,26.331H49.436L45.239,85.4l-1.531,25.444-2.728-.136s-5.573-28.968-3.162-32.112Z" transform="translate(-24.889 -18.889)" fill="#2f2e41"/><path d="M36.936,58.745s7.109-2.286,12.845-.155l-.47,11.064,3.538,8.631s-11.248,4.363-15,.7l1.093-8.645Z" transform="translate(-24.889 -18.889)" fill="#ffcf44"/><path d="M47.87,59.89l1.49-1.3s.994-.012,1.849,1.517a57.016,57.016,0,0,1,2.4,6.464l4.96,8.4-2.182,1.5-7.867-11Z" transform="translate(-24.889 -18.889)" fill="#ffcf44"/><path d="M37.2,59.29l.1-.693a3.251,3.251,0,0,0-3,2.874c-.234,2.669-1.091,17.73-1.091,17.73l2.74.546,2.726-15.458Z" transform="translate(-24.889 -18.889)" fill="#ffcf44"/><path d="M46.8,54.746l-8.311,1.637a.658.658,0,0,1-.772-.518l-.705-3.582a4.892,4.892,0,1,1,9.6-1.89l.705,3.582a.658.658,0,0,1-.518.772Z" transform="translate(-24.889 -18.889)" fill="#2f2e41"/><circle cx="3.587" cy="3.587" r="3.587" transform="translate(14.448 29.292)" fill="#ffb6b6"/><path d="M47.821,50.527l-5.082,1-.2-.719-.117.781-.782.154-.388-1.426-.232,1.548-1.514.3-.014-.072a3.874,3.874,0,0,1,3.049-4.545l.716-.141a3.874,3.874,0,0,1,4.545,3.049Z" transform="translate(-24.889 -18.889)" fill="#2f2e41"/><path d="M43.591,56.073a.671.671,0,0,1-.116.012l-3.85.076-1.211-6.15,4.1-.807-.078.138c-1.087,1.923.5,4.382,1.545,5.677a.647.647,0,0,1,.082.684.655.655,0,0,1-.468.368Z" transform="translate(-24.889 -18.889)" fill="#2f2e41"/><rect width="49.627" height="26.058" transform="translate(23.755 0.04)" fill="#f2f2f2"/><rect width="49.627" height="3.021" transform="translate(23.725)" fill="#e6e6e6"/><rect width="47.576" height="20.479" transform="translate(24.877 4.246)" fill="#fff"/><circle cx="0.5" cy="0.5" r="0.5" transform="translate(27.928 1.003)" fill="#fff"/><circle cx="0.5" cy="0.5" r="0.5" transform="translate(29.825 1.003)" fill="#fff"/><circle cx="0.5" cy="0.5" r="0.5" transform="translate(26.026 1.003)" fill="#fff"/><circle cx="0.878" cy="0.878" r="0.878" transform="translate(32.105 17.968)" fill="#e4e4e4"/><circle cx="0.878" cy="0.878" r="0.878" transform="translate(39.86 15.669)" fill="#e4e4e4"/><circle cx="0.878" cy="0.878" r="0.878" transform="translate(47.615 17.968)" fill="#e4e4e4"/><circle cx="0.878" cy="0.878" r="0.878" transform="translate(55.371 6.37)" fill="#e4e4e4"/><circle cx="0.878" cy="0.878" r="0.878" transform="translate(63.126 6.262)" fill="#e4e4e4"/><path d="M48.512,19.043l-7.774-2.415-7.667,2.336-.176-.234,7.843-2.467,7.737,2.388L56.163,7.125l.031-.013L63.949,7.1l.109.272H56.334Z" fill="#e4e4e4"/><rect width="46.702" height="24.522" transform="translate(34.992 34.167)" fill="#f2f2f2"/><rect width="46.702" height="2.843" transform="translate(34.963 34.129)" fill="#e6e6e6"/><rect width="44.843" height="19.48" transform="translate(35.976 37.961)" fill="#fff"/><circle cx="0.47" cy="0.47" r="0.47" transform="translate(38.918 35.073)" fill="#fff"/><circle cx="0.47" cy="0.47" r="0.47" transform="translate(40.703 35.073)" fill="#fff"/><circle cx="0.47" cy="0.47" r="0.47" transform="translate(37.129 35.073)" fill="#fff"/><rect width="55.397" height="29.087" transform="translate(57.474 10.747)" fill="#e6e6e6"/><rect width="55.397" height="3.372" transform="translate(57.44 10.702)" fill="#ffcf44"/><rect width="52.82" height="23.101" transform="translate(58.717 15.109)" fill="#fff"/><circle cx="0.558" cy="0.558" r="0.558" transform="translate(62.132 11.821)" fill="#fff"/><circle cx="0.558" cy="0.558" r="0.558" transform="translate(64.249 11.821)" fill="#fff"/><circle cx="0.558" cy="0.558" r="0.558" transform="translate(60.009 11.821)" fill="#fff"/><path d="M110.394,39.06a.457.457,0,0,0,0,.906h18.7a.457.457,0,0,0,0-.906Z" transform="translate(-24.889 -18.889)" fill="#e6e6e6"/><path d="M110.394,49.741a.457.457,0,0,0,0,.906h18.7a.457.457,0,0,0,0-.906Z" transform="translate(-24.889 -18.889)" fill="#e6e6e6"/><path d="M110.394,41.777a.457.457,0,0,0,0,.906h8.048a.457.457,0,0,0,0-.906Z" transform="translate(-24.889 -18.889)" fill="#e6e6e6"/><path d="M110.394,44.367a.457.457,0,0,0,0,.906h18.7a.457.457,0,0,0,0-.906Z" transform="translate(-24.889 -18.889)" fill="#e6e6e6"/><path d="M110.394,47.084a.457.457,0,0,0,0,.906h8.048a.457.457,0,0,0,0-.906Z" transform="translate(-24.889 -18.889)" fill="#e6e6e6"/><path d="M99.493,50.151a.431.431,0,1,0,0-.862H90.749a.431.431,0,1,0,0,.862Z" transform="translate(-24.889 -18.889)" fill="#e4e4e4"/><path d="M99.493,47.611a.431.431,0,1,0,0-.862H90.749a.431.431,0,1,0,0,.862Z" transform="translate(-24.889 -18.889)" fill="#e4e4e4"/><path d="M95.121,39.556a2.713,2.713,0,1,1-2.713,2.713h0A2.716,2.716,0,0,1,95.121,39.556Z" transform="translate(-24.889 -18.889)" fill="#ffcf44"/><circle cx="1.062" cy="1.062" r="1.062" transform="translate(47.228 42.539)" fill="#e4e4e4"/><path d="M90.235,61.664a.72.72,0,1,1,0,1.44H79.07a.72.72,0,0,1,0-1.44H90.235m0-.176H79.07a.9.9,0,0,0,0,1.793H90.235a.9.9,0,1,0,0-1.793Z" transform="translate(-24.889 -18.889)" fill="#e4e4e4"/><path d="M85.829,63.28h-8.4a.9.9,0,1,1,0-1.793h8.4a.9.9,0,0,1,0,1.793Z" transform="translate(-24.889 -18.889)" fill="#e4e4e4"/><circle cx="1.062" cy="1.062" r="1.062" transform="translate(47.228 46.948)" fill="#e4e4e4"/><path d="M90.235,66.072a.72.72,0,1,1,0,1.44H79.07a.72.72,0,0,1,0-1.44H90.235m0-.176H79.07a.9.9,0,0,0,0,1.793H90.235a.9.9,0,1,0,0-1.793Z" transform="translate(-24.889 -18.889)" fill="#e4e4e4"/><path d="M89,67.688H77.424a.9.9,0,0,1,0-1.793H89a.9.9,0,0,1,0,1.793Z" transform="translate(-24.889 -18.889)" fill="#e4e4e4"/><circle cx="1.062" cy="1.062" r="1.062" transform="translate(47.228 51.356)" fill="#e4e4e4"/><path d="M90.235,70.48a.72.72,0,1,1,0,1.44H79.07a.72.72,0,0,1,0-1.44H90.235m0-.176H79.07a.9.9,0,0,0,0,1.793H90.235a.9.9,0,1,0,0-1.793Z" transform="translate(-24.889 -18.889)" fill="#e4e4e4"/><path d="M90.275,72.1H77.424a.9.9,0,0,1,0-1.793h12.85a.9.9,0,0,1,0,1.793Z" transform="translate(-24.889 -18.889)" fill="#e4e4e4"/><path d="M123.684,82.825a1.379,1.379,0,0,0-.368-2.083l.917-4.815-2.351.98-.51,4.423a1.387,1.387,0,0,0,2.313,1.5Z" transform="translate(-24.889 -18.889)" fill="#ffb7b7"/><path d="M110.519,93.485h-1.991l-.947-7.679h2.939Z" fill="#ffb7b7"/><path d="M135.916,114.3H129.5v-.081a2.5,2.5,0,0,1,2.5-2.5h3.921Z" transform="translate(-24.889 -18.889)" fill="#2f2e41"/><path d="M99.639,93.485H97.648L96.7,85.805h2.939Z" fill="#ffb7b7"/><path d="M124.548,114.3h-6.42v-.081a2.5,2.5,0,0,1,2.5-2.5h3.921Z" transform="translate(-24.889 -18.889)" fill="#2f2e41"/><path d="M99.476,61.051l-1.949,4.49-1.608,25.8,4.06-.162,1.109-12.3,3.421-10.956,1.967,12.215.812,10.718,3.359.145,1.339-29.953Z" fill="#2f2e41"/><path d="M134.106,57.786l-5.648.141-3.316,1.7-.182,12.559-2.068,8.671s12.922.889,14.708-.41l-2.111-9.906,2.832-10.706Z" transform="translate(-24.889 -18.889)" fill="#3f3d56"/><path d="M125.745,59.826l-.6-.2a4.607,4.607,0,0,0-1.732,4.2s-.072,1.537,0,2.559c.079,1.173-2.274,12.829-2.274,12.829h3.41L126,68.66Z" transform="translate(-24.889 -18.889)" fill="#3f3d56"/><path d="M138.232,82.987A1.379,1.379,0,0,1,138.6,80.9l-.917-4.815,2.351.98.51,4.423a1.387,1.387,0,0,1-2.313,1.5Z" transform="translate(-24.889 -18.889)" fill="#ffb7b7"/><path d="M137.47,59.989l.6-.2a4.607,4.607,0,0,1,1.732,4.2s.072,1.537,0,2.559c-.079,1.173.974,12.829.974,12.829h-3.41l-1.462-10.556Z" transform="translate(-24.889 -18.889)" fill="#3f3d56"/><path d="M135.492,52.517a3.915,3.915,0,1,1-3.915-3.915h0a3.906,3.906,0,0,1,3.915,3.9Q135.492,52.507,135.492,52.517Z" transform="translate(-24.889 -18.889)" fill="#ffb7b7"/><path d="M127.674,47.258c.459-.986,1.346-.791,2.123-.457.983-.218,1.918-.871,2.977-.485,1.043,1.517,4.546,1.071,3.8,3.541,0,.592,1.114.247.919,1.217.591,1.866-2.132,5.4-3.695,4.655.387-.708,1.269-2.317-.07-2.477-2.881,2.68-.3-5.1-3.917-2.84C128.615,51.509,126.974,48.355,127.674,47.258Z" transform="translate(-24.889 -18.889)" fill="#2f2e41"/><path d="M152.741,114.444H25.037a.148.148,0,1,1,0-.3h127.7a.148.148,0,0,1,0,.3Z" transform="translate(-24.889 -18.889)" fill="#cacaca"/></g></g></g></svg>