<svg xmlns="http://www.w3.org/2000/svg" xmlns:xlink="http://www.w3.org/1999/xlink" width="128" height="104" viewBox="0 0 128 104"><defs><clipPath id="a"><rect width="128" height="104" transform="translate(-10080 2171)" fill="#fff" opacity="0"/></clipPath></defs><g transform="translate(10080 -2171)"><g clip-path="url(#a)"><g transform="translate(-10080 2180.205)"><rect width="94.207" height="60.335" transform="translate(0.04 0.053)" fill="#e6e6e6"/><rect width="88.82" height="23" transform="translate(2.734 7.621)" fill="#fff"/><rect width="18.783" height="1.078" transform="translate(24.827 10.943)" fill="#e6e6e6"/><rect width="29.006" height="1.078" transform="translate(24.827 14.876)" fill="#ffcf44"/><rect width="23.639" height="1.078" transform="translate(24.827 18.582)" fill="#e6e6e6"/><rect width="13.8" height="1.078" transform="translate(24.827 22.273)" fill="#e6e6e6"/><rect width="20.828" height="1.078" transform="translate(24.827 25.965)" fill="#e6e6e6"/><rect width="2.3" height="2.3" transform="translate(16.266 10.56)" fill="#e6e6e6"/><rect width="2.3" height="2.3" transform="translate(16.266 14.265)" fill="#ffcf44"/><rect width="2.3" height="2.3" transform="translate(16.266 17.971)" fill="#e6e6e6"/><rect width="2.3" height="2.3" transform="translate(16.266 21.676)" fill="#e6e6e6"/><rect width="2.3" height="2.3" transform="translate(16.266 25.382)" fill="#e6e6e6"/><rect width="7.667" height="7.667" transform="translate(71.466 15.799)" fill="#e6e6e6"/><rect width="88.82" height="23" transform="translate(2.734 33.815)" fill="#fff"/><rect width="2.3" height="2.3" transform="translate(20.227 35.859)" fill="#e6e6e6"/><rect width="2.3" height="2.3" transform="translate(16.266 35.859)" fill="#ffcf44"/><path d="M71.6,58.348a8.709,8.709,0,0,0-14.06-1.3l-.561-.49a9.452,9.452,0,0,1,15.261,1.409Z" transform="translate(-16.339 -17.459)" fill="#e6e6e6"/><path d="M71.952,68.044l-.618-.415a8.714,8.714,0,0,0,.267-9.281l.641-.379a9.458,9.458,0,0,1-.29,10.076Z" transform="translate(-16.339 -17.459)" fill="#ffcf44"/><path d="M57.059,69.081a9.452,9.452,0,0,1-.078-12.522l.561.49a8.708,8.708,0,0,0,.071,11.536Z" transform="translate(-16.339 -17.459)" fill="#ffcf44"/><path d="M64.1,72.23a9.468,9.468,0,0,1-7.043-3.148l.554-.5a8.709,8.709,0,0,0,13.721-.956l.618.415A9.447,9.447,0,0,1,64.1,72.23Z" transform="translate(-16.339 -17.459)" fill="#ffcf44"/><rect width="7.667" height="7.667" transform="translate(71.466 40.843)" fill="#e6e6e6"/><rect width="7.667" height="7.667" transform="translate(15.947 45.826)" fill="#e6e6e6"/><rect width="94.207" height="4.002" fill="#ffcf44"/><circle cx="0.742" cy="0.742" r="0.742" transform="translate(2.232 1.304)" fill="#fff"/><circle cx="0.742" cy="0.742" r="0.742" transform="translate(5.048 1.304)" fill="#fff"/><circle cx="0.742" cy="0.742" r="0.742" transform="translate(7.864 1.304)" fill="#fff"/><path d="M109.417,83.513h1.907l.907-7.356h-2.815Z" fill="#ffb8b8"/><path d="M125.269,100.349h3.756a2.394,2.394,0,0,1,2.394,2.393v.078h-6.15Z" transform="translate(-16.339 -17.459)" fill="#2f2e41"/><path d="M104.667,76.29l1.407,1.287,5.634-4.816-2.077-1.9Z" fill="#ffb8b8"/><path d="M121.067,92.961l2.772,2.535h0a2.394,2.394,0,0,1,.151,3.382l-.052.057-4.538-4.15Z" transform="translate(-16.339 -17.459)" fill="#2f2e41"/><path d="M112.415,57.679l-.541,10.811,1.351,11.757-4.054.541L106.6,65.923l-.811-10.135Z" fill="#2f2e41"/><path d="M135.1,71.219s1.622,10.676-1.757,14.189a125.209,125.209,0,0,0-7.973,9.73l-3.243-4.054,8.243-8.784-1.622-5.946-6.622-3.108,1.081-7.432,9.73-.135Z" transform="translate(-16.339 -17.459)" fill="#2f2e41"/><circle cx="3.31" cy="3.31" r="3.31" transform="translate(108.015 22.411)" fill="#ffb8b8"/><path d="M114.07,30.425l.507.768,1.351,3.784-1.081,14.73-6.351.135-.811-16.892,1.7-2.123Z" fill="#ccc"/><path d="M121.456,50.814l-1.081-.135s-.27.135-.405,1.081-1.757,9.324-1.757,9.324l2.162,10.27,2.432-3.243-1.486-5.676,1.486-5.676Z" transform="translate(-16.339 -17.459)" fill="#2f2e41"/><path d="M118.9,33.22h.811l2.027,10.946-1.892,8.514-1.892-3.108.541-3.378-.27-2.973-.946-1.757Z" fill="#2f2e41"/><path d="M129.619,43.18l-.6-.15s-.451-2.557-1.5-2.257-3.761.6-3.761-.6,2.557-2.257,4.062-2.106,3.426.65,3.911,2.858c.779,3.541-1.606,4.435-1.606,4.435l.04-.129a2.008,2.008,0,0,0-.539-2.05Z" transform="translate(-16.339 -17.459)" fill="#2f2e41"/><path d="M120.51,50.679l4.324-1.757,1.014-.743,3.041,13.446,2.027-6.081-.608-7.77,5.608,2.905-1.892,9.189-.27,3.514.811,2.838s2.838,2.027,1.892,4.189-2.027,2.3-2.027,2.3-4.595-4.324-4.865-5.405-.676-2.973-.676-2.973-2.3,8.649-5,8.514-2.7-2.973-2.7-2.973l.676-2.973,1.081-3.108-.541-5.135Z" transform="translate(-16.339 -17.459)" fill="#2f2e41"/><path d="M144.2,103.049H108.32a.134.134,0,0,1,0-.268H144.2a.134.134,0,0,1,0,.268Z" transform="translate(-16.339 -17.459)" fill="#ccc"/></g></g></g></svg>