<svg xmlns="http://www.w3.org/2000/svg" xmlns:xlink="http://www.w3.org/1999/xlink" width="128" height="104" viewBox="0 0 128 104"><defs><clipPath id="a"><rect width="128" height="104" transform="translate(-10080 2171)" fill="#fff" opacity="0"/></clipPath></defs><g transform="translate(10080 -2171)"><g clip-path="url(#a)"><g transform="translate(-10080 2179.134)"><path d="M46.017,78.2l-.346,4.5,3.349.346-.808-5.427Z" fill="#ffb9b9"/><rect width="9.031" height="16.504" transform="translate(29.39 4.671)" fill="#f2f2f2"/><rect width="12.145" height="16.504" transform="translate(56.17 59.062)" fill="#f2f2f2"/><rect width="12.041" height="18.165" transform="translate(44.233 33.631)" fill="#f2f2f2"/><rect width="12.041" height="18.165" transform="translate(56.274 9.965)" fill="#f2f2f2"/><rect width="111.255" height="0.259" transform="translate(5.083 87.473)" fill="#2f2e41"/><path d="M88.451,83.777h-53.9V12.65h53.9Zm-53.665-.231H88.22V12.881H34.786Z" transform="translate(-5.281 -8.095)" fill="#3f3d56"/><path d="M77.137,83.777H45.974V12.754H77.137ZM46.2,83.546h30.7V12.985H46.2Z" transform="translate(-5.281 -8.095)" fill="#3f3d56"/><path d="M88.451,60.007h-53.9v-23.9h53.9Zm-53.665-.231H88.22V36.34H34.786Z" transform="translate(-5.281 -8.095)" fill="#3f3d56"/><circle cx="3.425" cy="3.425" r="3.425" transform="translate(37.382 24.704)" fill="#ffcf44"/><circle cx="3.425" cy="3.425" r="3.425" transform="translate(68.315 1.661)" fill="#ffcf44"/><rect width="0.231" height="70.792" transform="translate(56.107 4.775)" fill="#3f3d56"/><path d="M100.536,85.567a25.917,25.917,0,0,1,1.135,10.206,24.623,24.623,0,0,1-6.334-19.062A25.917,25.917,0,0,1,100.536,85.567Z" transform="translate(-5.281 -8.095)" fill="#ffcf44"/><path d="M102.805,85.567a25.917,25.917,0,0,0-1.135,10.206A24.623,24.623,0,0,0,108,76.711,25.917,25.917,0,0,0,102.805,85.567Z" transform="translate(-5.281 -8.095)" fill="#ffcf44"/><path d="M103.51,85.624a25.917,25.917,0,0,1-1.929,10.086,24.623,24.623,0,0,1-.425-20.082A25.917,25.917,0,0,1,103.51,85.624Z" transform="translate(-5.281 -8.095)" fill="#3f3d56"/><path d="M39.632,45.283h0c2.854.88,4.377,4.16,3.4,7.328l-1.24,4.025-1.238-.381L40.3,54.542l-.28,1.546-7.956-2.452-.234-1.556-.255,1.406-.9-.276.974-3.16C32.774,46.405,36.347,44.271,39.632,45.283Z" transform="translate(-5.281 -8.095)" fill="#2f2e41"/><path d="M35.2,57.362a1.874,1.874,0,0,0-2.177,1.724,2.154,2.154,0,0,0,1.273,2.12c2.31,1.292,7.32,4.109,7.32,4.109l9.559,1.836s4.83,3.854,5.436,1.662-4.583-3.531-4.583-3.531L43.244,63.03l-5.6-4.047A4.554,4.554,0,0,0,35.2,57.362Z" transform="translate(-5.281 -8.095)" fill="#ffb9b9"/><path d="M26.862,58.249l.961,2.708,5.765-1.4L32.1,57.55Z" fill="#ffb9b9"/><path d="M11.446,83.71l-4.367-.437,3.057-2.97,2.184,1.485Z" fill="#ffb9b9"/><circle cx="3.587" cy="3.587" r="3.587" transform="translate(29.754 39.076)" fill="#ffb9b9"/><path d="M35.812,51.32s-2.009,2.358-3.057,2.708S29.086,57.7,30.4,59.88s6.114-.524,6.114-.524l-.175-2.184a29.893,29.893,0,0,1,2.446-3.756C39.218,53.155,35.812,51.32,35.812,51.32Z" transform="translate(-5.281 -8.095)" fill="#ffb9b9"/><path d="M35.462,55.538a2.924,2.924,0,0,0-5.2.637q-.021.061-.039.124c-.7,2.358.349,6.376.349,6.376l1.572,4.717s4.105-1.922,7.075,1.31l-.437-3.319s1.223-2.8-.349-4.8C37.431,59.3,36.5,57.1,35.462,55.538Z" transform="translate(-5.281 -8.095)" fill="#575a89"/><path d="M39.262,68.92s-2.1-2.8-6.376-1.135L32.1,69.968a7.592,7.592,0,0,0-2.009,9.084l-.175,8.21-.7,2.358L16.552,88.573l-.437,4.018,2.271.175s12.84,5.066,14.849,1.922,6.2-15.547,6.2-15.547l10.875,1.628s-.318,3.4.031,3.84.175,2.271.349,2.62a3.061,3.061,0,0,1,.029,1.258l3.608-.119V86.62s.437-2.358.437-2.97S57.386,75,52.845,74.3s-12.36-1.978-12.36-1.978Z" transform="translate(-5.281 -8.095)" fill="#2f2e41"/><path d="M14.805,91.193l-.175,1.31s-5.765-1.135-6.988-.087S6.42,94.163,5.46,93.464c-.408-.3-.059-1.02.477-1.753a8.825,8.825,0,0,1,3.252-2.7c1.442-.706,3.433-1.731,3.433-2.01,0-.437,1.572-1.747,2.184-1.048a26.007,26.007,0,0,1,1.747,2.62Z" transform="translate(-5.281 -8.095)" fill="#2f2e41"/><path d="M50.759,88.717s-1.28,4.539-.815,4.772a5.475,5.475,0,0,0,2.793.931,9.083,9.083,0,0,1,2.927.813,7.055,7.055,0,0,0,3.215.553c.733-.05,1.356-.222,1.307-.668-.116-1.048-2.328-1.28-2.328-1.28l-2.328-3.026s-.407-1.92-.757-1.92a.765.765,0,0,1-.524-.175Z" transform="translate(-5.281 -8.095)" fill="#2f2e41"/><path d="M35.181,55.268a2.165,2.165,0,0,0-3-1.138,2.489,2.489,0,0,0-1.348,2.518c.087,3.057.262,9.7.262,9.7l3.843,10.569s-.961,7.075,1.572,6.376.786-6.638.786-6.638l-2.97-10.045.7-7.948A5.261,5.261,0,0,0,35.181,55.268Z" transform="translate(-5.281 -8.095)" fill="#ffb9b9"/><path d="M37.676,46.41a2.836,2.836,0,0,1,2.475-.432l.1.031a3.94,3.94,0,0,1,2.324,5.046h0l-.656-.2.142-.838-.4.758-3.888-1.2-.116-.782-.129.707-.765-.236a6.7,6.7,0,0,0-.1,5.792l-1.3-.4-.231-1.564L34.87,54.5l-2.484-.765.478-3.286A5.546,5.546,0,0,1,37.676,46.41Z" transform="translate(-5.281 -8.095)" fill="#2f2e41"/><circle cx="10.484" cy="10.484" r="10.484" transform="translate(45.79 41.312)" fill="#ffcf44"/><path d="M123.463,35.5l-.085-.215-20,7.885L84.258,21.3,108,11.939l-.085-.215L84.1,21.115,78.19,14.359l.974-.379a6.973,6.973,0,0,1-2.126-.763,6.979,6.979,0,0,1,.472,2.209l.506-.914L83.868,21.2,47.552,35.524l-.03-1.045a6.973,6.973,0,0,1-1.434,1.746,6.979,6.979,0,0,1,2.239.3l-.691-.784L84.029,21.389l19.123,21.872L63.018,59.086l-.03-1.044a6.974,6.974,0,0,1-1.434,1.746,6.979,6.979,0,0,1,2.239.3L63.1,59.3l40.211-15.855,17.408,19.911.174-.152L103.542,43.356Z" transform="translate(-5.281 -8.095)" fill="#3f3d56"/><rect width="19.722" height="7.577" transform="translate(108.278 23.563)" fill="#3f3d56"/><rect width="12.767" height="0.623" transform="translate(111.755 25.587)" fill="#f2f2f2"/><rect width="12.767" height="0.623" transform="translate(111.755 27.04)" fill="#f2f2f2"/><rect width="12.767" height="0.623" transform="translate(111.755 28.493)" fill="#f2f2f2"/><rect width="19.722" height="7.577" transform="translate(92.812)" fill="#3f3d56"/><rect width="12.767" height="0.623" transform="translate(96.289 2.024)" fill="#f2f2f2"/><rect width="12.767" height="0.623" transform="translate(96.289 3.477)" fill="#f2f2f2"/><rect width="12.767" height="0.623" transform="translate(96.289 4.931)" fill="#f2f2f2"/><rect width="19.722" height="7.577" transform="translate(105.683 51.381)" fill="#3f3d56"/><rect width="12.767" height="0.623" transform="translate(109.16 53.405)" fill="#f2f2f2"/><rect width="12.767" height="0.623" transform="translate(109.16 54.858)" fill="#f2f2f2"/><rect width="12.767" height="0.623" transform="translate(109.16 56.312)" fill="#f2f2f2"/></g></g></g></svg>