<svg xmlns="http://www.w3.org/2000/svg" xmlns:xlink="http://www.w3.org/1999/xlink" width="128" height="104" viewBox="0 0 128 104"><defs><clipPath id="a"><rect width="128" height="104" transform="translate(-10080 2171)" fill="#fff" opacity="0"/></clipPath></defs><g transform="translate(10080 -2171)"><g clip-path="url(#a)"><g transform="translate(-10080 2188.418)"><path d="M41.37,90.578h90.374V85.13c0-1.138-1.371-2.258-3.762-3.073l-.025-.008c-1.614-.57-11.933-4.622-17.514-4.5a19.234,19.234,0,0,0-7.5,1.485c-6.318,2.868-14.618,3.928-19,3.1a144.39,144.39,0,0,0-18.393-1.892c-5.49.076-5.506.993-11.141,3.953-2.152,1.13-2.957,1.271-13.035,2.172Z" transform="translate(-22.898 -30.592)" fill="#f2f2f2" style="isolation:isolate"/><path d="M26.8,82.571c-.2-2.923,1.044-5.875,3.615-6.96a14.155,14.155,0,0,0,1.772,9.259c.643,1.13,1.469,2.336,1.293,3.517a2.487,2.487,0,0,1-1.22,1.7,7.819,7.819,0,0,1-2.041.782l-.123.129A18.437,18.437,0,0,1,26.8,82.571Z" transform="translate(-22.898 -30.592)" fill="#f2f2f2"/><path d="M30.453,75.664A10.274,10.274,0,0,0,28.848,82.3a5.3,5.3,0,0,0,.353,1.551,3.451,3.451,0,0,0,.956,1.285,7.281,7.281,0,0,1,1.118,1.048,1.869,1.869,0,0,1,.357,1.419,3.819,3.819,0,0,1-.711,1.548,3.753,3.753,0,0,0-.789,1.72c-.008.081-.137.047-.129-.034.111-1.163,1.091-1.869,1.421-2.928a1.8,1.8,0,0,0-.178-1.555,5.644,5.644,0,0,0-1.117-1.083,3.7,3.7,0,0,1-.978-1.228,4.968,4.968,0,0,1-.411-1.54,10.664,10.664,0,0,1,.161-3.44,9.969,9.969,0,0,1,1.449-3.487c.043-.065.146.028.1.092Z" transform="translate(-22.898 -30.592)" fill="#fff"/><path d="M28.733,81.513a2.073,2.073,0,0,1-1.654-1.745c-.009-.083.12-.083.129,0a1.919,1.919,0,0,0,1.542,1.621.063.063,0,0,1-.017.125Z" transform="translate(-22.898 -30.592)" fill="#fff"/><path d="M29.943,84.984a2.787,2.787,0,0,0,1.111-1.995c.008-.081.137-.047.129.034A2.9,2.9,0,0,1,30.023,85.1C29.96,85.143,29.881,85.03,29.943,84.984Z" transform="translate(-22.898 -30.592)" fill="#fff"/><path d="M29.308,77.91a.942.942,0,0,0,.913-.094c.062-.047.141.066.08.112a1.055,1.055,0,0,1-1.009.106.078.078,0,0,1-.056-.079.056.056,0,0,1,.073-.045Z" transform="translate(-22.898 -30.592)" fill="#fff"/><path d="M39.8,80.372l-.113.093a10.468,10.468,0,0,0-1.391,1.37c-.033.038-.066.077-.1.116a11.349,11.349,0,0,0-2.159,4.189,11.928,11.928,0,0,0-.36,1.907,7.756,7.756,0,0,1-.512,2.641,1.868,1.868,0,0,1-.134.227l-4.741.241-.035-.014-.188.018c0-.034,0-.069,0-.1s0-.04,0-.06,0-.026,0-.039,0-.009,0-.012,0-.023,0-.034c.01-.2.022-.395.035-.592,0,0,0,0,0,0a17.575,17.575,0,0,1,.8-4.37c.014-.041.028-.084.044-.125a10.617,10.617,0,0,1,.8-1.773,9.132,9.132,0,0,1,.574-.886,7.536,7.536,0,0,1,1.97-1.852,6.87,6.87,0,0,1,5.352-.976Z" transform="translate(-22.898 -30.592)" fill="#f2f2f2"/><path d="M39.8,80.434A9.583,9.583,0,0,0,34.305,84.2a4.162,4.162,0,0,0-.641,1.32,2.809,2.809,0,0,0,.055,1.492,6.321,6.321,0,0,1,.343,1.421,1.484,1.484,0,0,1-.556,1.227,3.915,3.915,0,0,1-1.578.677,3.846,3.846,0,0,0-1.754.753c-.057.053-.15-.049-.093-.1.812-.763,2.112-.678,3.054-1.235a1.469,1.469,0,0,0,.8-1.217,4.867,4.867,0,0,0-.321-1.445,3.044,3.044,0,0,1-.109-1.465,3.886,3.886,0,0,1,.583-1.347,9.088,9.088,0,0,1,2.255-2.358,10.036,10.036,0,0,1,3.422-1.617c.078-.02.112.108.034.128Z" transform="translate(-22.898 -30.592)" fill="#fff"/><path d="M34.684,83.573a1.792,1.792,0,0,1-.389-2.241c.043-.065.157.013.114.078a1.66,1.66,0,0,0,.366,2.084C34.84,83.555,34.749,83.634,34.684,83.573Z" transform="translate(-22.898 -30.592)" fill="#fff"/><path d="M33.621,86.779a2.96,2.96,0,0,0,2.207-.755c.057-.053.15.05.093.1a3.08,3.08,0,0,1-2.3.781c-.084-.005-.085-.133,0-.128Z" transform="translate(-22.898 -30.592)" fill="#fff"/><path d="M37.406,81.348a1.163,1.163,0,0,0,.864.482c.084,0,.085.132,0,.128a1.3,1.3,0,0,1-.956-.531.065.065,0,0,1,0-.091A.068.068,0,0,1,37.406,81.348Z" transform="translate(-22.898 -30.592)" fill="#fff"/><path d="M145.492,82.571c.2-2.923-1.044-5.875-3.615-6.96a14.155,14.155,0,0,1-1.772,9.259c-.643,1.13-1.469,2.336-1.293,3.517a2.487,2.487,0,0,0,1.22,1.7,7.819,7.819,0,0,0,2.041.782l.123.129A18.437,18.437,0,0,0,145.492,82.571Z" transform="translate(-22.898 -30.592)" fill="#f2f2f2"/><path d="M141.839,75.664a10.274,10.274,0,0,1,1.606,6.632,5.3,5.3,0,0,1-.353,1.551,3.451,3.451,0,0,1-.956,1.285,7.28,7.28,0,0,0-1.118,1.048,1.869,1.869,0,0,0-.357,1.419,3.819,3.819,0,0,0,.711,1.548,3.753,3.753,0,0,1,.789,1.72c.008.081.137.047.129-.034-.111-1.163-1.091-1.869-1.421-2.928a1.8,1.8,0,0,1,.178-1.555,5.645,5.645,0,0,1,1.117-1.083,3.7,3.7,0,0,0,.978-1.228,4.969,4.969,0,0,0,.411-1.54,10.663,10.663,0,0,0-.161-3.44,9.969,9.969,0,0,0-1.449-3.487c-.043-.065-.146.028-.1.092Z" transform="translate(-22.898 -30.592)" fill="#fff"/><path d="M143.559,81.513a2.073,2.073,0,0,0,1.654-1.745c.009-.083-.12-.083-.129,0a1.919,1.919,0,0,1-1.542,1.621.063.063,0,0,0,.017.125Z" transform="translate(-22.898 -30.592)" fill="#fff"/><path d="M142.349,84.984a2.787,2.787,0,0,1-1.111-1.995c-.008-.081-.137-.047-.129.034a2.9,2.9,0,0,0,1.161,2.073c.063.046.142-.067.08-.112Z" transform="translate(-22.898 -30.592)" fill="#fff"/><path d="M142.984,77.91a.942.942,0,0,1-.913-.094c-.062-.047-.141.066-.08.112a1.055,1.055,0,0,0,1.009.106.078.078,0,0,0,.056-.079.056.056,0,0,0-.073-.045Z" transform="translate(-22.898 -30.592)" fill="#fff"/><path d="M132.5,80.372l.113.093A10.469,10.469,0,0,1,134,81.835c.033.038.066.077.1.116a11.349,11.349,0,0,1,2.159,4.189,11.926,11.926,0,0,1,.36,1.907,7.756,7.756,0,0,0,.511,2.641,1.868,1.868,0,0,0,.134.227l4.741.241.035-.014.188.018c0-.034,0-.069,0-.1s0-.04,0-.06,0-.026,0-.039,0-.009,0-.012,0-.023,0-.034c-.01-.2-.022-.395-.035-.592,0,0,0,0,0,0a17.576,17.576,0,0,0-.8-4.37c-.014-.041-.028-.084-.044-.125a10.617,10.617,0,0,0-.8-1.773,9.128,9.128,0,0,0-.574-.886A7.536,7.536,0,0,0,138,81.312a6.87,6.87,0,0,0-5.352-.976Z" transform="translate(-22.898 -30.592)" fill="#f2f2f2"/><path d="M132.495,80.434a9.583,9.583,0,0,1,5.492,3.767,4.162,4.162,0,0,1,.641,1.32,2.809,2.809,0,0,1-.055,1.492,6.321,6.321,0,0,0-.343,1.421,1.484,1.484,0,0,0,.556,1.227,3.915,3.915,0,0,0,1.578.677,3.846,3.846,0,0,1,1.754.753c.057.053.15-.049.093-.1-.812-.763-2.112-.678-3.054-1.235a1.469,1.469,0,0,1-.8-1.217,4.867,4.867,0,0,1,.321-1.445,3.044,3.044,0,0,0,.109-1.465,3.886,3.886,0,0,0-.583-1.347,9.088,9.088,0,0,0-2.255-2.358,10.035,10.035,0,0,0-3.422-1.617c-.078-.02-.112.108-.034.128Z" transform="translate(-22.898 -30.592)" fill="#fff"/><path d="M137.608,83.573A1.792,1.792,0,0,0,138,81.332c-.043-.065-.157.013-.114.078a1.66,1.66,0,0,1-.366,2.084C137.452,83.555,137.543,83.634,137.608,83.573Z" transform="translate(-22.898 -30.592)" fill="#fff"/><path d="M138.672,86.779a2.959,2.959,0,0,1-2.207-.755c-.057-.053-.15.05-.093.1a3.08,3.08,0,0,0,2.3.781C138.754,86.9,138.755,86.774,138.672,86.779Z" transform="translate(-22.898 -30.592)" fill="#fff"/><path d="M134.886,81.348a1.163,1.163,0,0,1-.864.482c-.084,0-.085.132,0,.128a1.3,1.3,0,0,0,.956-.531.065.065,0,0,0,0-.091.068.068,0,0,0-.092.012Z" transform="translate(-22.898 -30.592)" fill="#fff"/><rect width="0.869" height="0.29" transform="translate(7.236 37.509)" fill="#e6e6e6"/><path d="M140.37,68.39h-1.764V68.1h1.764Zm-3.528,0h-1.764V68.1h1.764Zm-3.528,0H131.55V68.1h1.764Zm-3.528,0h-1.764V68.1h1.764Zm-3.528,0h-1.764V68.1h1.764Zm-3.528,0h-1.764V68.1h1.764Zm-3.528,0h-1.764V68.1H119.2Zm-3.528,0H113.91V68.1h1.764Zm-3.528,0h-1.764V68.1h1.764Zm-3.528,0h-1.764V68.1h1.764Zm-3.528,0h-1.764V68.1h1.764Zm-3.528,0H99.8V68.1h1.764Zm-3.528,0H96.271V68.1h1.764Zm-3.528,0H92.743V68.1h1.764Zm-3.528,0H89.215V68.1h1.764Zm-3.528,0H85.687V68.1h1.764Zm-3.528,0H82.159V68.1h1.764Zm-3.528,0H78.631V68.1h1.764Zm-3.528,0H75.1V68.1h1.764Zm-3.528,0H71.575V68.1h1.764Zm-3.528,0H68.047V68.1h1.764Zm-3.528,0H64.519V68.1h1.764Zm-3.528,0H60.991V68.1h1.764Zm-3.528,0H57.463V68.1h1.764Zm-3.528,0H53.935V68.1H55.7Zm-3.528,0H50.407V68.1h1.764Zm-3.528,0H46.879V68.1h1.764Zm-3.528,0H43.351V68.1h1.764Zm-3.528,0H39.823V68.1h1.764Zm-3.528,0H36.3V68.1h1.764Zm-3.528,0H32.767V68.1h1.764Z" transform="translate(-22.898 -30.592)" fill="#e6e6e6"/><rect width="0.869" height="0.29" transform="translate(119.236 37.509)" fill="#e6e6e6"/><rect width="0.869" height="0.29" transform="translate(7.236 35.481)" fill="#e6e6e6"/><path d="M140.37,66.363h-1.764v-.29h1.764Zm-3.528,0h-1.764v-.29h1.764Zm-3.528,0H131.55v-.29h1.764Zm-3.528,0h-1.764v-.29h1.764Zm-3.528,0h-1.764v-.29h1.764Zm-3.528,0h-1.764v-.29h1.764Zm-3.528,0h-1.764v-.29H119.2Zm-3.528,0H113.91v-.29h1.764Zm-3.528,0h-1.764v-.29h1.764Zm-3.528,0h-1.764v-.29h1.764Zm-3.528,0h-1.764v-.29h1.764Zm-3.528,0H99.8v-.29h1.764Zm-3.528,0H96.271v-.29h1.764Zm-3.528,0H92.743v-.29h1.764Zm-3.528,0H89.215v-.29h1.764Zm-3.528,0H85.687v-.29h1.764Zm-3.528,0H82.159v-.29h1.764Zm-3.528,0H78.631v-.29h1.764Zm-3.528,0H75.1v-.29h1.764Zm-3.528,0H71.575v-.29h1.764Zm-3.528,0H68.047v-.29h1.764Zm-3.528,0H64.519v-.29h1.764Zm-3.528,0H60.991v-.29h1.764Zm-3.528,0H57.463v-.29h1.764Zm-3.528,0H53.935v-.29H55.7Zm-3.528,0H50.407v-.29h1.764Zm-3.528,0H46.879v-.29h1.764Zm-3.528,0H43.351v-.29h1.764Zm-3.528,0H39.823v-.29h1.764Zm-3.528,0H36.3v-.29h1.764Zm-3.528,0H32.767v-.29h1.764Z" transform="translate(-22.898 -30.592)" fill="#e6e6e6"/><rect width="0.869" height="0.29" transform="translate(119.236 35.481)" fill="#e6e6e6"/><rect width="0.869" height="0.29" transform="translate(7.236 31.281)" fill="#e6e6e6"/><path d="M140.37,62.163h-1.764v-.29h1.764Zm-3.528,0h-1.764v-.29h1.764Zm-3.528,0H131.55v-.29h1.764Zm-3.528,0h-1.764v-.29h1.764Zm-3.528,0h-1.764v-.29h1.764Zm-3.528,0h-1.764v-.29h1.764Zm-3.528,0h-1.764v-.29H119.2Zm-3.528,0H113.91v-.29h1.764Zm-3.528,0h-1.764v-.29h1.764Zm-3.528,0h-1.764v-.29h1.764Zm-3.528,0h-1.764v-.29h1.764Zm-3.528,0H99.8v-.29h1.764Zm-3.528,0H96.271v-.29h1.764Zm-3.528,0H92.743v-.29h1.764Zm-3.528,0H89.215v-.29h1.764Zm-3.528,0H85.687v-.29h1.764Zm-3.528,0H82.159v-.29h1.764Zm-3.528,0H78.631v-.29h1.764Zm-3.528,0H75.1v-.29h1.764Zm-3.528,0H71.575v-.29h1.764Zm-3.528,0H68.047v-.29h1.764Zm-3.528,0H64.519v-.29h1.764Zm-3.528,0H60.991v-.29h1.764Zm-3.528,0H57.463v-.29h1.764Zm-3.528,0H53.935v-.29H55.7Zm-3.528,0H50.407v-.29h1.764Zm-3.528,0H46.879v-.29h1.764Zm-3.528,0H43.351v-.29h1.764Zm-3.528,0H39.823v-.29h1.764Zm-3.528,0H36.3v-.29h1.764Zm-3.528,0H32.767v-.29h1.764Z" transform="translate(-22.898 -30.592)" fill="#e6e6e6"/><rect width="0.869" height="0.29" transform="translate(119.236 31.281)" fill="#e6e6e6"/><rect width="0.869" height="0.29" transform="translate(7.236 28.384)" fill="#e6e6e6"/><path d="M140.37,59.266h-1.764v-.29h1.764Zm-3.528,0h-1.764v-.29h1.764Zm-3.528,0H131.55v-.29h1.764Zm-3.528,0h-1.764v-.29h1.764Zm-3.528,0h-1.764v-.29h1.764Zm-3.528,0h-1.764v-.29h1.764Zm-3.528,0h-1.764v-.29H119.2Zm-3.528,0H113.91v-.29h1.764Zm-3.528,0h-1.764v-.29h1.764Zm-3.528,0h-1.764v-.29h1.764Zm-3.528,0h-1.764v-.29h1.764Zm-3.528,0H99.8v-.29h1.764Zm-3.528,0H96.271v-.29h1.764Zm-3.528,0H92.743v-.29h1.764Zm-3.528,0H89.215v-.29h1.764Zm-3.528,0H85.687v-.29h1.764Zm-3.528,0H82.159v-.29h1.764Zm-3.528,0H78.631v-.29h1.764Zm-3.528,0H75.1v-.29h1.764Zm-3.528,0H71.575v-.29h1.764Zm-3.528,0H68.047v-.29h1.764Zm-3.528,0H64.519v-.29h1.764Zm-3.528,0H60.991v-.29h1.764Zm-3.528,0H57.463v-.29h1.764Zm-3.528,0H53.935v-.29H55.7Zm-3.528,0H50.407v-.29h1.764Zm-3.528,0H46.879v-.29h1.764Zm-3.528,0H43.351v-.29h1.764Zm-3.528,0H39.823v-.29h1.764Zm-3.528,0H36.3v-.29h1.764Zm-3.528,0H32.767v-.29h1.764Z" transform="translate(-22.898 -30.592)" fill="#e6e6e6"/><rect width="0.869" height="0.29" transform="translate(119.236 28.384)" fill="#e6e6e6"/><rect width="0.869" height="0.29" transform="translate(7.236 22.157)" fill="#e6e6e6"/><path d="M140.37,53.038h-1.764v-.29h1.764Zm-3.528,0h-1.764v-.29h1.764Zm-3.528,0H131.55v-.29h1.764Zm-3.528,0h-1.764v-.29h1.764Zm-3.528,0h-1.764v-.29h1.764Zm-3.528,0h-1.764v-.29h1.764Zm-3.528,0h-1.764v-.29H119.2Zm-3.528,0H113.91v-.29h1.764Zm-3.528,0h-1.764v-.29h1.764Zm-3.528,0h-1.764v-.29h1.764Zm-3.528,0h-1.764v-.29h1.764Zm-3.528,0H99.8v-.29h1.764Zm-3.528,0H96.271v-.29h1.764Zm-3.528,0H92.743v-.29h1.764Zm-3.528,0H89.215v-.29h1.764Zm-3.528,0H85.687v-.29h1.764Zm-3.528,0H82.159v-.29h1.764Zm-3.528,0H78.631v-.29h1.764Zm-3.528,0H75.1v-.29h1.764Zm-3.528,0H71.575v-.29h1.764Zm-3.528,0H68.047v-.29h1.764Zm-3.528,0H64.519v-.29h1.764Zm-3.528,0H60.991v-.29h1.764Zm-3.528,0H57.463v-.29h1.764Zm-3.528,0H53.935v-.29H55.7Zm-3.528,0H50.407v-.29h1.764Zm-3.528,0H46.879v-.29h1.764Zm-3.528,0H43.351v-.29h1.764Zm-3.528,0H39.823v-.29h1.764Zm-3.528,0H36.3v-.29h1.764Zm-3.528,0H32.767v-.29h1.764Z" transform="translate(-22.898 -30.592)" fill="#e6e6e6"/><rect width="0.869" height="0.29" transform="translate(119.236 22.157)" fill="#e6e6e6"/><path d="M72.211,44.379a7.849,7.849,0,1,1-2.3-5.585A7.884,7.884,0,0,1,72.211,44.379Z" transform="translate(-22.898 -30.592)" fill="#f2f2f2"/><path d="M67.552,42.493h0l-.039.07a2.5,2.5,0,0,0-.588-2.555A3.9,3.9,0,0,0,64.6,38.951a3.782,3.782,0,0,0-1.881.146,4.867,4.867,0,0,0-2.082,1.911,2.084,2.084,0,0,0-.476,1.247,2.7,2.7,0,0,0,.484,1.15,1.478,1.478,0,0,1,.232,1.206,2.369,2.369,0,0,1-.428.6.8.8,0,0,0-.2.694.567.567,0,0,0,.422.367,1.492,1.492,0,0,0,.561-.013l4.833-.73a2.06,2.06,0,0,0,1.5-3.033Z" transform="translate(-22.898 -30.592)" fill="#2f2e41"/><circle cx="2.363" cy="2.363" r="2.363" transform="translate(38.696 10.174)" fill="#ffb9b9"/><path d="M70.247,49.585a7.881,7.881,0,0,1-11.03.8l.676-1.887a2.029,2.029,0,0,1,1.724-1.184l.43-.026,1.026-.885s2.764-.1,2.723-.146l1.674,1.007v-.007l.658.04a2.028,2.028,0,0,1,1.724,1.184Z" transform="translate(-22.898 -30.592)" fill="#ffcf44"/><path d="M66.2,40.936c-.061-.323-.39-.47-.672-.542a6.474,6.474,0,0,0-2.5-.138,2.738,2.738,0,0,0-1.675.754,2.253,2.253,0,0,0-.57,1.451,1.728,1.728,0,0,0,.207.922.854.854,0,0,0,.71.458l.028.1a4.3,4.3,0,0,0,2.982-2,2.559,2.559,0,0,1-.748,1.208,4.659,4.659,0,0,0,2.011-1.55A.878.878,0,0,0,66.2,40.936Z" transform="translate(-22.898 -30.592)" fill="#2f2e41"/><circle cx="7.884" cy="7.884" r="7.884" transform="translate(100.729 8.403)" fill="#f2f2f2"/><circle cx="1.113" cy="1.113" r="1.113" transform="translate(105.335 11.102)" fill="#2f2e41"/><circle cx="2.82" cy="2.82" r="2.82" transform="translate(105.409 11.918)" fill="#2f2e41"/><circle cx="2.291" cy="2.291" r="2.291" transform="translate(106.171 12.974)" fill="#9e616a"/><path d="M132.916,43.522a2.625,2.625,0,0,0-3.99,2.291,6.091,6.091,0,0,0,3.639.07l.294-.72.173.72a1.061,1.061,0,0,0,1.14,0,2.68,2.68,0,0,0-1.256-2.36Z" transform="translate(-22.898 -30.592)" fill="#2f2e41"/><path d="M128.31,39.785a2.277,2.277,0,0,0-2.376.366,2.575,2.575,0,0,0-.822,2.292,5.912,5.912,0,0,0,1.125,2.309,4.445,4.445,0,0,1,.946,2.37,2.35,2.35,0,0,1-2.345,2.348,5.29,5.29,0,0,0,2.286.6,1.81,1.81,0,0,0,1.756-1.332,3,3,0,0,0-.415-1.64,11.6,11.6,0,0,1-.811-2.669,2.683,2.683,0,0,1,.015-1.322,1.552,1.552,0,0,1,1.542-1.019l.262-.236A2.043,2.043,0,0,0,128.31,39.785Z" transform="translate(-22.898 -30.592)" fill="#2f2e41"/><path d="M137.443,52.153a7.881,7.881,0,0,1-11.03.8l.676-1.887a2.029,2.029,0,0,1,1.724-1.184l.43-.026,1.026-.885s2.764-.1,2.723-.146l1.674,1.007v-.007l.658.04a2.028,2.028,0,0,1,1.724,1.184Z" transform="translate(-22.898 -30.592)" fill="#ffcf44"/><path d="M116.964,38.49a7.863,7.863,0,1,1-2.293-5.585A7.884,7.884,0,0,1,116.964,38.49Z" transform="translate(-22.898 -30.592)" fill="#f2f2f2"/><path d="M105.426,35.911a3.541,3.541,0,0,1,2.093-2.343,3.64,3.64,0,0,1,3.3.952c1.41,1.405,1.754,6.232.785,7.758-.193-.01-.858-.018-1.053-.025l-.276-.919v.91q-.466-.014-.939-.02a4.088,4.088,0,0,1-4.036-3.987A9.371,9.371,0,0,1,105.426,35.911Z" transform="translate(-22.898 -30.592)" fill="#2f2e41"/><circle cx="2.247" cy="2.247" r="2.247" transform="translate(83.818 4.269)" fill="#9e616a"/><path d="M107.024,35.134l2.587-1.3h0a3.252,3.252,0,0,1,1.9,2.694l.064.772L110.5,37.03l-.119-.988-.184.911-.5-.127,0-1.533-.5,1.532-1.786-.41Z" transform="translate(-22.898 -30.592)" fill="#2f2e41"/><path d="M114.931,43.693a7.881,7.881,0,0,1-11.03.8l.676-1.887A2.029,2.029,0,0,1,106.3,41.42l.43-.026,1.026-.885s2.764-.1,2.723-.146l1.674,1.007v-.007l.658.04a2.028,2.028,0,0,1,1.724,1.184Z" transform="translate(-22.898 -30.592)" fill="#ffcf44"/><circle cx="7.884" cy="7.884" r="7.884" transform="translate(56.625 12.747)" fill="#f2f2f2"/><circle cx="2.517" cy="2.517" r="2.517" transform="translate(61.775 16.575)" fill="#ffb6b6"/><path d="M93.322,56.5a7.881,7.881,0,0,1-11.03.8l.676-1.887a2.029,2.029,0,0,1,1.724-1.184l.43-.026,1.026-.885s2.764-.1,2.723-.146l1.674,1.007v-.007l.658.04a2.028,2.028,0,0,1,1.724,1.184Z" transform="translate(-22.898 -30.592)" fill="#ffcf44"/><path d="M89.844,48.122a3.245,3.245,0,0,0-1.359-1.849,2.21,2.21,0,0,0-1.786-.332,1.455,1.455,0,0,0-1.055,1.4.614.614,0,0,0-.62.191,1.421,1.421,0,0,0-.3.616,3.914,3.914,0,0,0,.037,2.168l-.012.1a.981.981,0,0,0,.651-.566c.138-.267.217-.563.366-.824a.893.893,0,0,1,.693-.5l-.026.452.763-.393-.182.434.667-.279-.075.418a.992.992,0,0,1,1.365-.441,1.318,1.318,0,0,1,.539.758,3.994,3.994,0,0,1,.129.946,3.308,3.308,0,0,0,.208-2.3Z" transform="translate(-22.898 -30.592)" fill="#2f2e41"/><circle cx="7.884" cy="7.884" r="7.884" transform="translate(10.983 16.331)" fill="#f2f2f2"/><circle cx="2.392" cy="2.392" r="2.392" transform="translate(16.302 20.249)" fill="#9e616a"/><path d="M47.578,60.012a7.881,7.881,0,0,1-11.03.8l.676-1.887a2.029,2.029,0,0,1,1.724-1.184l.43-.026,1.026-.885s2.764-.1,2.723-.146L44.8,57.689v-.007l.658.04a2.028,2.028,0,0,1,1.724,1.184Z" transform="translate(-22.898 -30.592)" fill="#ffcf44"/><path d="M39.419,54.339l-.014-.039-.028.024Z" transform="translate(-22.898 -30.592)" fill="#2f2e41"/><path d="M44.457,52.382a1.72,1.72,0,0,0-.642-1.255,1.509,1.509,0,0,1-.393-.355,2.43,2.43,0,0,1-.133-.333,1.116,1.116,0,0,0-1.176-.6,1.767,1.767,0,0,0-1.149.769.782.782,0,0,0-1.094.907.562.562,0,0,0-.788.234,1.45,1.45,0,0,0-.083.915,8.65,8.65,0,0,0,.406,1.639,1.068,1.068,0,0,0,.193-.909c-.03-.333-.012-.74.279-.9s.623.016.934.106a1.765,1.765,0,0,0,1.46-.23,4.6,4.6,0,0,1,.48-.334.567.567,0,0,1,.559-.01.78.78,0,0,1,.259.455l.359,1.216A1.719,1.719,0,0,0,44.457,52.382Z" transform="translate(-22.898 -30.592)" fill="#2f2e41"/><rect width="0.753" height="22.058" transform="translate(18.141 38.167)" fill="#3f3d56"/><rect width="0.753" height="32.36" transform="translate(40.671 27.865)" fill="#3f3d56"/><rect width="0.753" height="25.587" transform="translate(63.248 34.638)" fill="#3f3d56"/><rect width="0.753" height="38.004" transform="translate(85.824 22.22)" fill="#3f3d56"/><rect width="0.753" height="29.35" transform="translate(108.401 30.875)" fill="#3f3d56"/><circle cx="2.302" cy="2.302" r="2.302" transform="translate(38.792 26.081)" fill="#ffcf44"/><circle cx="2.302" cy="2.302" r="2.302" transform="translate(83.945 20.061)" fill="#ffcf44"/><circle cx="2.302" cy="2.302" r="2.302" transform="translate(61.368 32.478)" fill="#ffcf44"/><circle cx="2.302" cy="2.302" r="2.302" transform="translate(16.215 35.864)" fill="#ffcf44"/><circle cx="2.302" cy="2.302" r="2.302" transform="translate(106.522 28.339)" fill="#ffcf44"/><path d="M147.871,90.589H25.65l-.767.384a.384.384,0,0,0,.384.384H147.871a.384.384,0,1,0,0-.767Z" transform="translate(-22.898 -30.592)" fill="#3f3d56"/><circle cx="2.302" cy="2.302" r="2.302" transform="translate(0 57.897)" fill="#3f3d56"/><circle cx="2.302" cy="2.302" r="2.302" transform="translate(16.221 64.559)" fill="#e6e6e6"/><circle cx="2.302" cy="2.302" r="2.302" transform="translate(38.815 64.559)" fill="#e6e6e6"/><circle cx="2.302" cy="2.302" r="2.302" transform="translate(61.408 64.559)" fill="#e6e6e6"/><circle cx="2.302" cy="2.302" r="2.302" transform="translate(83.857 64.559)" fill="#e6e6e6"/><circle cx="2.302" cy="2.302" r="2.302" transform="translate(106.45 64.559)" fill="#e6e6e6"/><circle cx="2.302" cy="2.302" r="2.302" transform="translate(123.396 57.897)" fill="#3f3d56"/></g></g></g></svg>