<svg xmlns="http://www.w3.org/2000/svg" xmlns:xlink="http://www.w3.org/1999/xlink" width="50" height="50" viewBox="0 0 50 50"><defs><radialGradient id="a" cx="0.5" cy="0.5" r="0.5" gradientUnits="objectBoundingBox"><stop offset="0" stop-color="#fff"/><stop offset="0.798" stop-color="#fff" stop-opacity="0.694"/><stop offset="1" stop-color="#fff" stop-opacity="0.333"/></radialGradient></defs><rect width="50" height="50" rx="25" fill="#6fa6da"/><rect width="50" height="50" rx="25" fill="url(#a)"/><g transform="translate(7.361 7.493)"><path d="M1181.619,3748.412s12.325-5.706,21.143-14.4c0,0-6.356,17.641-18.546,31.648H1172.54s13.36-10.766,18.421-17.768a58.421,58.421,0,0,1-9.342.515" transform="translate(-1172.54 -3734.012)" fill="#ea5514"/><g transform="translate(1.513 14.473)"><path d="M1190.786,3806.8c5.024,2.11,7.3,1.031,8.882-1.1,1.831-2.469-1.437-6.92-7.3-9.94-5.689-2.936-11.733-3.433-13.749-1.192a3.382,3.382,0,0,1,.259-.4c2.339-3.165,10.329-2.6,17.839,1.267s11.7,9.575,9.355,12.745-8.827,4.071-16.043-.267" transform="translate(-1178.619 -3792.115)" fill="#0b318f"/></g><g transform="translate(25.663 14.539)"><path d="M1275.648,3795.365l.013-.043c.06-.149.1-.264.138-.357a3.4,3.4,0,0,0,.11-.373l.13-.384c.012,0,.017-.008.018-.029a.193.193,0,0,0,0-.035,3.582,3.582,0,0,1,.2-.788c.158-.47.292-.717.4-.733l-.014-.015a.483.483,0,0,1,.173-.077.558.558,0,0,1,.162-.045l.007.065a2.172,2.172,0,0,1-.09.522,5.242,5.242,0,0,0-.13.52c-.02.007-.027.03-.027.063a.2.2,0,0,1-.028.058c-.016.038-.022.065,0,.077-.018.027-.037.048-.052.071l-.007.06c-.012,0-.021,0-.026.011s.015,0,.02.009l-.065.222h.018a.148.148,0,0,0,.123-.094c.035-.065.07-.125.1-.185.077-.095.182-.218.312-.373.067-.077.128-.152.2-.228a1.255,1.255,0,0,1,.325-.415.558.558,0,0,1,.332-.1l.051.011v.037a.318.318,0,0,1-.047.16,1.135,1.135,0,0,0-.1.147l-.017.007a.287.287,0,0,1-.025.075.192.192,0,0,1-.045.062.02.02,0,0,0,0,.015h.01c-.042.113-.071.2-.092.26a.954.954,0,0,0-.06.257.325.325,0,0,1-.027.112.373.373,0,0,0-.026.107.3.3,0,0,1-.042.087.111.111,0,0,0-.022.055l.01.027.033-.007c.094-.128.225-.3.4-.514q.2-.252.408-.5h.013l.383-.469c.027-.031.052-.064.082-.1s.068-.066.078-.058a.4.4,0,0,1,.115-.1.207.207,0,0,1,.142-.045l.015-.023.055-.012.025.057c.007,0,.012.012.018.015a.239.239,0,0,0,.06.009c.013.021.025.033.034.026l-.043.056a.063.063,0,0,1-.009.034.106.106,0,0,1-.025.035l-.043.035a.042.042,0,0,1-.022.011v.011c-.045.042-.073.072-.093.091a.082.082,0,0,0-.03.048l-.125.12v.017a.232.232,0,0,1-.16.1l.017.012h.05l-.02.011a.032.032,0,0,0-.026.01c-.027.024-.05.05-.077.072l.02.009-.033.053q-.019,0-.09.075a.209.209,0,0,0-.068.12h-.028a.2.2,0,0,1-.057.013.069.069,0,0,0,.02.031l-.02.021c-.042.007-.06.021-.06.04h.015v-.012c.012,0,.02.007.02.012l.01.01-.057.021c-.021.034-.046.064-.067.094l-.053.018.013.03c0,.01-.012.025-.03.038a.078.078,0,0,0-.03.042c0,.007-.013.011-.04.015l-.028.035.007.01-.06.062-.024.007a.125.125,0,0,1-.08.075c-.012.023-.024.05-.036.073a.553.553,0,0,1-.049.075.032.032,0,0,0-.013.019l-.035.034.005.015-.06.035-.054.1c-.011,0-.02,0-.026.015a.153.153,0,0,0-.02.053h-.02s-.012.015-.032.035-.021.039-.026.039l-.017.041a.8.8,0,0,0-.1.131l.013.025-.047.025-.037.061-.02.01v.02h-.045l.009.013.037.015-.025.015c-.013.007-.02.031-.02.063l-.028.027-.037.089-.03.011v.057a.121.121,0,0,0-.034.021c-.01.009-.011.015,0,.024a.537.537,0,0,0-.053.069c-.023.026-.04.04-.052.034a.513.513,0,0,1-.137.115.274.274,0,0,1-.152.042l-.063-.012-.007-.095.01-.242v-.038c.01-.03.018-.058.03-.087a.735.735,0,0,1,.035-.079l-.021-.035a.615.615,0,0,0,.027-.1c.01-.035.01-.06.017-.082h.02c.008-.046.018-.09.025-.135a1.078,1.078,0,0,1,.037-.129.057.057,0,0,0,0-.015c-.007-.031-.01-.045,0-.05l.027-.04a.036.036,0,0,1,0-.045.186.186,0,0,0,.015-.04.513.513,0,0,1,.032-.155.8.8,0,0,0,.032-.109,3.494,3.494,0,0,0-.237.291,2.971,2.971,0,0,1-.365.435c0,.007,0,.021-.025.045s-.032.033-.035.033l-.1.125a.273.273,0,0,0-.078.144l-.068.045c-.01.008-.007.015.01.027s.021.014.02.023a.144.144,0,0,1-.035.048.254.254,0,0,1-.043.053l.022.015c0,.007-.013.01-.042.015l-.01.067-.045.035a.018.018,0,0,0-.027.014.254.254,0,0,0,0,.042l-.033.026c-.007,0-.012,0-.013-.017a.125.125,0,0,0-.01-.02l-.042.1H1276a.072.072,0,0,0-.025,0,.091.091,0,0,1-.027,0l-.025.048a.056.056,0,0,1-.047.012h-.029l-.033.033-.034-.007a.14.14,0,0,1-.1.064.146.146,0,0,0-.083,0,.338.338,0,0,1,.027-.1c.015-.04.021-.067.03-.085" transform="translate(-1275.593 -3792.361)" fill="#e60012"/></g><g transform="translate(28.547 14.659)"><path d="M1287.413,3795.141l.037-.025v-.027c.025-.045.045-.075.057-.094a1.021,1.021,0,0,1,.063-.11c.025-.045.052-.09.077-.143h.022l.018-.072.028-.007.037-.087c.012,0,.023-.025.038-.059a2.348,2.348,0,0,1,.22-.395q.415-.634.43-.66l.013-.017-.008-.012-.047.008-.07-.008-.057-.047a.567.567,0,0,1,.085-.157.551.551,0,0,1,.113-.129c0-.015.008-.026.017-.03s.006,0,.006,0a.551.551,0,0,1,.319-.148,2.527,2.527,0,0,1,.485-.048.411.411,0,0,1,.067,0,.547.547,0,0,1,.087,0l.123.01a.28.28,0,0,1,.1.028l.02.024h.018v-.009a.763.763,0,0,1,.1.035.506.506,0,0,1,.093.055v.023h.022a.042.042,0,0,1,.033.023c.013.018.025.022.035.007l.029.045h.01s.009.009.01.012a.1.1,0,0,0,.032.057c.023.023.035.037.037.05l-.038.021.03.035.016.007a.06.06,0,0,1-.033.051h.068v.018h-.018c-.005,0-.008.013-.01.038h.01l.017-.009s-.01.015-.037.035a.065.065,0,0,0,0,.02l-.033.04h.073c-.007,0-.013.015-.013.035s0,.03-.01.03h-.045v.02l.015.013a.214.214,0,0,1,.057-.028.082.082,0,0,1-.072.073.03.03,0,0,1,.009.021.029.029,0,0,1-.009.021.049.049,0,0,0-.022.025h.022l.087-.043-.03.02v.01l-.048.039h-.025l-.03.072-.048.038v.033l.045-.01.01.072h-.04a.041.041,0,0,1-.008.023.025.025,0,0,1-.028,0l.04.033v.032c0,.037-.018.057-.06.057l.007.037a.127.127,0,0,1-.109.007.026.026,0,0,0,0,.029.112.112,0,0,1,.012.018l-.005.037-.052.021-.027.008h.045l.032.008.028-.033.02.025-.047.05-.092.006a.093.093,0,0,0-.018.055h.015l.03-.019v.023a.171.171,0,0,1-.063,0l-.053.047v.028l.053.007-.092.03-.03.05c.007.007,0,.015-.012.022l-.065.012v.028l.083.015.037-.03.013-.025-.047.088-.037-.012a.145.145,0,0,1-.052.057.237.237,0,0,1-.093.035.042.042,0,0,0,.012.015.065.065,0,0,1,.028.008l-.057.021-.03.05-.04.01c-.022.032-.032.05-.03.053h-.043c.013.02.01.031,0,.031a.231.231,0,0,1-.052,0l-.068.012v.02h.02a.037.037,0,0,0,.018,0,.046.046,0,0,0-.027.048l-.043.012a.024.024,0,0,0-.01.015h-.033l-.008.027a.08.08,0,0,1-.033.022.082.082,0,0,1-.022,0l-.009-.014-.025.058h-.075c0,.028-.025.045-.067.063a.187.187,0,0,0,.032.032l-.047-.01-.048.025v.02h.026c.005,0,.007,0,.007.012l-.037.013a.363.363,0,0,0-.031.03.121.121,0,0,1-.052.007.073.073,0,0,0-.012.032.253.253,0,0,0-.07.023.074.074,0,0,0-.04.045l-.02-.01c-.03,0-.048.017-.063.05h-.042a1.152,1.152,0,0,1-.2.124.6.6,0,0,1-.222.092.472.472,0,0,1-.2.12,1.084,1.084,0,0,1-.23.072.075.075,0,0,0-.052-.011,1.135,1.135,0,0,1-.132,0l-.123-.042a.372.372,0,0,1-.094-.184.861.861,0,0,1,.12-.258.314.314,0,0,0,.057-.135s.008-.011.027-.028a.047.047,0,0,0,.015-.054m.587.147v.033l.03.013.087-.013.04-.033h.028c.013-.008.048-.022.108-.05a.229.229,0,0,0,.115-.063h.037c.005,0,.008-.012.008-.034a.862.862,0,0,0,.117-.042l.028-.027.008-.029a.14.14,0,0,0,.067-.018h.012a.312.312,0,0,1,.085-.09.636.636,0,0,1,.114-.064v-.03a1.4,1.4,0,0,0,.16-.124c.04-.038.087-.094.142-.155.038-.05.077-.1.112-.148s.07-.108.112-.177h.021a.271.271,0,0,1,.027-.117.276.276,0,0,1,.06-.108v-.02l.02-.015a.29.29,0,0,1,0-.1c.01-.042.018-.092.027-.147a.342.342,0,0,0-.127-.279.46.46,0,0,0-.31-.106l-.1.011a.053.053,0,0,1,.02.035c-.02,0-.03.017-.042.045a.176.176,0,0,0-.01.075.08.08,0,0,0-.03.087l-.032.012-.008.022a.02.02,0,0,0-.015,0c-.007,0-.007.01,0,.021l-.033.058v.029l-.042.015v.039l-.042.01-.01.035.022.035-.008.012-.067.009v.013l.012.03.043-.01a.219.219,0,0,0-.047.045.171.171,0,0,0-.03.056l-.025.045h-.018l-.012.023h-.018l-.008.033.017.007.04-.015a.079.079,0,0,1-.07.038v.047h-.017v-.013c0-.006,0-.012-.013-.012l-.01.018.023.025.008.019-.045.068-.01.012-.047.01-.028.068.027.063h-.077l-.007.012.037.02h.02a.119.119,0,0,1-.048.031.554.554,0,0,1-.063.015l-.012.031.007.024.022-.021h.035v.023l-.016.022h-.045v.017l-.037.01c.005.011.009.02.013.02s.007.007.009.012l-.043.023v-.02a.2.2,0,0,0-.07.113l-.035.007v.039a.209.209,0,0,1,.09-.032l.008.007-.038.02a.108.108,0,0,1-.075.072l.01.02-.047.03-.008.035h.03l.015-.023.01.017a.036.036,0,0,0-.012.033l-.038-.012c-.038.02-.062.039-.068.057v.027l.012-.012.008-.007.045-.012.017-.012-.038.058-.033.007h.015v.03l-.025.048-.037-.01-.032.01v.058l-.015.007-.009.027h.02c.007,0,.013-.015.015-.019" transform="translate(-1287.191 -3792.872)" fill="#e60012"/></g><g transform="translate(30.927 14.649)"><path d="M1296.99,3795.343a.6.6,0,0,1,.058-.092.525.525,0,0,0,.053-.078c.027-.035.047-.057.057-.072a.666.666,0,0,0,.053-.085.123.123,0,0,1,.027-.026l.21-.287a.129.129,0,0,1,.039-.03c.023-.042.05-.077.075-.114.043-.057.07-.083.09-.087a1.428,1.428,0,0,1,.11-.16c.047-.055.092-.108.138-.165l.082-.1.03-.01.038-.071c.012,0,.025-.012.04-.019a.583.583,0,0,1,.1-.159l0-.02a.6.6,0,0,0,.115-.114c.035-.036.072-.078.11-.123a4.019,4.019,0,0,0,.3-.333.884.884,0,0,0,.078-.085,1.4,1.4,0,0,0,.117-.158l.012.015a.4.4,0,0,1,.135-.065.9.9,0,0,0,.12-.042l.038-.018h.028l.012-.015.1-.008.038.012a.136.136,0,0,1-.022.089h.015s.01.01.013.01h-.022c-.02.1-.04.192-.062.29a1.194,1.194,0,0,1-.077.272c.005,0,.012,0,.02.008s.007.012,0,.022l-.043.077.023.057a.785.785,0,0,0-.018.1c-.008.045-.015.088-.021.123l-.034.042v.111h-.018l.015.05a.3.3,0,0,0-.022.078.359.359,0,0,1-.008.065l.012.066-.03.039a.191.191,0,0,0,.01.043c0,.013.008.032.008.036a.026.026,0,0,1-.018.029v-.015l-.008.007c0,.028.011.035.032.032,0,.015-.009.068-.017.158s-.015.14-.015.143a.129.129,0,0,0,0,.042l-.052.033v.05l.037-.008a.023.023,0,0,1,.018.037.124.124,0,0,1-.02.039l.037.035c.007.012,0,.021-.015.025s-.021.008-.021.015v.015c.017.012.025.023.025.026s-.008.013-.025.008v.04a.663.663,0,0,0,.012.083c-.02.025-.027.038-.027.053s.007.019.022.022a.025.025,0,0,1,.02.008.027.027,0,0,1,.007.02h-.015a.258.258,0,0,1-.005.131.938.938,0,0,1-.05.141l-.058-.012a.2.2,0,0,0-.015.026.024.024,0,0,1-.015.015.024.024,0,0,1-.021,0l-.021.052c-.085.048-.172.09-.257.139a.187.187,0,0,1-.115-.132.6.6,0,0,1-.038-.222.964.964,0,0,1,.01-.117c.007-.04.01-.073.013-.088s.009-.032.015-.052a.042.042,0,0,0-.007-.042v-.063l.025-.017c-.012-.016-.018-.022-.025-.019v-.186l-.064-.006-.048.017c-.01-.011-.016-.014-.022-.014s-.012.006-.018.023h-.043c-.005-.006-.012-.009-.017-.02a.069.069,0,0,1-.052.035.46.46,0,0,1-.057.015.255.255,0,0,0,.006-.03.046.046,0,0,1,0-.017h-.02c-.008,0-.017.01-.033.022a.241.241,0,0,1-.142.043.483.483,0,0,0-.06.035.563.563,0,0,1-.048.037l-.075-.043a.214.214,0,0,0-.028.061l-.063.015h-.031l-.068.033-.023.05-.032-.008-.033.015-.012.065a.422.422,0,0,1-.052.06.281.281,0,0,1-.063.042l-.008.033h.032a.177.177,0,0,1-.017.035c-.008.007-.013,0-.018-.007a.164.164,0,0,0-.06.125.431.431,0,0,0-.107.053c-.042.031-.065.056-.07.083l-.073.065c-.008,0-.012,0-.017-.012s-.008-.012-.006-.015l-.2.1-.09.051h-.031l-.035-.057a.759.759,0,0,1,.12-.257c.032-.047.067-.1.1-.152h.012Zm1.6-.986.02-.007c.027-.163.055-.325.083-.487l.038-.165a.1.1,0,0,1-.065.041.926.926,0,0,1-.077.107.34.34,0,0,0-.072.118.291.291,0,0,0-.073.06.938.938,0,0,1-.1.128.534.534,0,0,1-.125.174c-.015.035-.027.068-.04.1a.677.677,0,0,0,.152-.014c.165-.033.254-.053.262-.053" transform="translate(-1296.753 -3792.822)" fill="#e60012"/></g></g></svg>