<svg id="Capa_1" enable-background="new 0 0 512 512" height="512" viewBox="0 0 512 512" width="512" xmlns="http://www.w3.org/2000/svg"><g><g><path d="m446.713 380.52c87.049-87.049 87.049-228.184 0-315.233s-228.184-87.049-315.233 0c-79.403 79.403-86.363 203.8-20.909 291.109l-40.168 40.168-16.043-16.044c-12.436-12.436-32.598-12.436-45.033 0s-12.436 32.598 0 45.033l16.043 16.043-16.043 16.044c-12.436 12.436-12.436 32.598 0 45.033s32.598 12.436 45.033 0l16.043-16.043 16.043 16.043c12.436 12.436 32.598 12.436 45.033 0s12.436-32.598 0-45.033l-16.043-16.043 40.168-40.168c87.309 65.454 211.706 58.494 291.109-20.909zm-270.2-270.2c62.078-62.078 163.088-62.078 225.167 0s62.078 163.088 0 225.167-163.088 62.078-225.167 0-62.078-163.088 0-225.167z" fill="#e26e7e"/></g><g><path d="m70.403 396.563 40.168-40.168c.013.018.028.035.041.053l-.004-.023c10.534 14.082 30.49 16.958 44.573 6.424 14.076-10.53 16.955-30.474 6.436-44.555 4.491 5.994 9.449 11.746 14.896 17.193 62.078 62.078 163.088 62.078 225.167 0-12.436 12.436-12.436 32.598 0 45.033s32.598 12.436 45.033 0c-79.403 79.403-203.8 86.363-291.109 20.909l-40.168 40.168 16.043 16.043c12.436 12.436 12.436 32.598 0 45.033s-32.598 12.436-45.033 0l-16.043-16.043-16.043 16.043c-12.436 12.436-32.598 12.436-45.033 0s-12.436-32.598 0-45.033l16.043-16.043c12.436 12.436 32.598 12.436 45.033 0s12.436-32.598 0-45.034z" fill="#d9495d"/></g><g><g><g><ellipse cx="203.009" cy="229.922" fill="#ffa1ac" rx="31.765" ry="25.296"/></g><g><ellipse cx="375.184" cy="229.922" fill="#ffa1ac" rx="31.765" ry="25.296"/></g></g><g><path d="m221.521 212.76c-4.143 0-7.5-3.358-7.5-7.5v-12.362c0-4.142 3.357-7.5 7.5-7.5s7.5 3.358 7.5 7.5v12.362c0 4.142-3.357 7.5-7.5 7.5z" fill="#495560"/></g><g><path d="m289.097 220.801c-8.996 0-17.551-3.896-23.471-10.688-2.722-3.123-2.396-7.86.727-10.582 3.122-2.721 7.86-2.396 10.582.727 3.07 3.523 7.503 5.544 12.162 5.544 4.658 0 9.091-2.021 12.161-5.544 2.723-3.123 7.459-3.448 10.582-.727 3.122 2.722 3.448 7.459.727 10.582-5.921 6.792-14.475 10.688-23.47 10.688z" fill="#495560"/></g><g><path d="m373.384 212.416c-4.143 0-7.5-3.358-7.5-7.5 0-3.764-3.062-6.826-6.826-6.826s-6.825 3.062-6.825 6.826c0 4.142-3.357 7.5-7.5 7.5s-7.5-3.358-7.5-7.5c0-12.035 9.791-21.826 21.825-21.826 12.035 0 21.826 9.791 21.826 21.826 0 4.142-3.358 7.5-7.5 7.5z" fill="#495560"/></g></g></g></svg>