<svg xmlns="http://www.w3.org/2000/svg" viewBox="0 0 48 48">
  <defs>
    <radialGradient id="a" cx=".5" cy=".5" r=".5" gradientUnits="objectBoundingBox">
      <stop offset="0" stop-color="#fbfcfe"/>
      <stop offset=".4" stop-color="#fff" stop-opacity=".7"/>
      <stop offset="1" stop-color="#96bbdc"/>
    </radialGradient>
  </defs>
  <g opacity=".6">
    <rect width="48" height="48" fill="url(#a)" rx="24"/>
    <path fill="#00286f" d="M21.16 36.4c5 2.18 7.27 1.06 8.85-1.14 1.83-2.55-1.43-7.14-7.28-10.26-5.66-3.03-11.69-3.54-13.7-1.23a3.48 3.48 0 0 1 .26-.42c2.33-3.26 10.3-2.68 17.78 1.31s11.66 9.89 9.33 13.16-8.8 4.2-16-.28"/>
    <path fill="#d53c0f" d="M6.83 38.82s13.35-11.11 18.4-18.34a56.85 56.85 0 0 1-9.32.53c.4-.2 12.45-6.04 21.12-14.86 0 0-6.35 18.21-18.53 32.67Zm25.5-14.36a.48.48 0 0 1 .02-.1l.03-.09.02-.05.14-.37a3.93 3.93 0 0 0 .11-.38l.14-.4c.01 0 .02 0 .02-.03a.1.1 0 0 0 0-.03 3.63 3.63 0 0 1 .2-.82c.17-.48.3-.74.42-.76h-.02c.02-.03.08-.05.19-.09a.6.6 0 0 1 .16-.05v.07a2.2 2.2 0 0 1-.08.54 5.47 5.47 0 0 0-.14.54c-.02 0-.03.03-.03.06a.22.22 0 0 1-.02.06c-.02.04-.03.07 0 .08l-.06.07v.07h-.03l.01.01-.06.23h.02a.15.15 0 0 0 .12-.1l.11-.19.32-.38.21-.24a1.25 1.25 0 0 1 .34-.42.58.58 0 0 1 .34-.1h.05v.05a.31.31 0 0 1-.05.16 1.4 1.4 0 0 0-.1.15l-.02.01a.25.25 0 0 1-.07.14.01.01 0 0 0 0 .02h.01l-.1.27a.9.9 0 0 0-.06.26.36.36 0 0 1-.03.12.37.37 0 0 0-.02.1.3.3 0 0 1-.05.1.11.11 0 0 0-.02.05l.01.03h.04l.4-.54.43-.51h.01l.4-.49.09-.1c.04-.03.07-.07.08-.06a.38.38 0 0 1 .11-.1.22.22 0 0 1 .15-.05l.02-.02h.05l.03.05.02.01a.24.24 0 0 0 .06.01c.02.03.03.04.04.03l-.05.06a.06.06 0 0 1-.01.03.1.1 0 0 1-.03.04l-.04.04a.1.1 0 0 1-.02 0v.02l-.1.1a.1.1 0 0 0-.03.04l-.13.12v.02a.24.24 0 0 1-.16.1l.01.01h.06l-.03.01-.02.01-.08.08h.02l-.03.06c-.02 0-.05.03-.1.08a.22.22 0 0 0-.07.13h-.03a.14.14 0 0 1-.06 0 .07.07 0 0 0 .03.04l-.03.02c-.04.01-.06.02-.06.05h.02v-.02l.02.02-.05.03-.07.1-.05.01v.04s0 .02-.02.03a.08.08 0 0 0-.03.05l-.04.01-.03.04-.06.07H35a.12.12 0 0 1-.08.09l-.04.07a.58.58 0 0 1-.05.08.04.04 0 0 0-.01.02l-.04.03v.02l-.06.04-.06.1-.02.01a.13.13 0 0 0-.02.05h-.03l-.03.04-.03.04-.01.04a1.08 1.08 0 0 0-.1.14v.02l-.04.03-.04.06-.02.01v.02h-.05l.01.02.04.01-.02.02c-.02 0-.02.03-.02.06l-.03.03-.04.1h-.03v.06a.15.15 0 0 0-.04.02v.03l-.05.07c-.01.02-.04.04-.06.04a.51.51 0 0 1-.14.11.28.28 0 0 1-.15.05l-.07-.01v-.39l.04-.1.04-.08-.03-.03a.73.73 0 0 0 .03-.1.82.82 0 0 1 .02-.09h.02l.03-.13a.65.65 0 0 1 .03-.14v-.07l.03-.04a.04.04 0 0 1 0-.04.15.15 0 0 0 .02-.04.46.46 0 0 1 .03-.16l.03-.12a3.44 3.44 0 0 0-.24.3 3.23 3.23 0 0 1-.38.45.09.09 0 0 1-.02.05l-.04.03-.1.13a.27.27 0 0 0-.08.15l-.07.04v.03l.03.03a.15.15 0 0 1-.04.05.7.7 0 0 1-.04.05l.02.02-.04.01-.01.07-.05.04a.03.03 0 0 0-.03 0v.01a.1.1 0 0 0 0 .04l-.03.03-.01-.02-.01-.02-.05.1h-.03a.04.04 0 0 0-.02 0h-.03l-.03.05a.04.04 0 0 1-.05.01.06.06 0 0 1-.03 0l-.03.04h-.04a.15.15 0 0 1-.1.06.16.16 0 0 0-.09 0Zm5.47-.11-.04-.06a.84.84 0 0 1 .12-.27l.1-.16H38v.01a.6.6 0 0 1 .06-.1.51.51 0 0 0 .06-.07l.06-.08a.65.65 0 0 0 .05-.08.15.15 0 0 1 .03-.03l.22-.3a.1.1 0 0 1 .04-.03.98.98 0 0 1 .07-.12c.05-.06.07-.08.1-.09a1.73 1.73 0 0 1 .11-.16l.14-.17.09-.1.03-.01.04-.08a.11.11 0 0 0 .04-.02.62.62 0 0 1 .1-.16v-.02a.65.65 0 0 0 .12-.12l.11-.13a3.93 3.93 0 0 0 .31-.34.94.94 0 0 0 .08-.09 1.61 1.61 0 0 0 .12-.16l.02.01a.4.4 0 0 1 .13-.06.97.97 0 0 0 .13-.04l.04-.02h.03v-.02h.16a.13.13 0 0 1-.02.1h.03-.02l-.07.3a1.38 1.38 0 0 1-.08.29s.01 0 .02 0V22l-.04.08.02.06a.6.6 0 0 0-.02.1l-.02.12-.04.05v.11h-.01l.01.05a.26.26 0 0 0-.02.08.23.23 0 0 1-.01.07l.01.07-.03.04a.2.2 0 0 0 .01.04l.01.04a.02.02 0 0 1-.02.03v-.02.01c0 .03 0 .04.03.03l-.02.17-.02.14a.11.11 0 0 0 0 .05l-.05.03v.05h.04a.02.02 0 0 1 .02.03.13.13 0 0 1-.02.04l.03.04c.01.01 0 .02-.01.02l-.02.02v.02l.02.02h-.02v.05a.87.87 0 0 0 0 .09l-.02.05c0 .01 0 .02.02.03a.03.03 0 0 1 .03.02h-.02a.27.27 0 0 1 0 .14.77.77 0 0 1-.05.14l-.06-.01a.14.14 0 0 0-.02.03.02.02 0 0 1-.03.01l-.03.06-.26.14a.2.2 0 0 1-.12-.14.6.6 0 0 1-.04-.23.63.63 0 0 1 .01-.12l.01-.09a.4.4 0 0 1 .02-.05.04.04 0 0 0 0-.04v-.07l.02-.02-.03-.02v-.19h-.06l-.05.01a.03.03 0 0 0-.03-.01s-.01 0-.02.02h-.04l-.02-.02a.08.08 0 0 1-.05.04.46.46 0 0 1-.06.01v-.03a.03.03 0 0 1 0-.01h-.02s-.02 0-.03.02a.24.24 0 0 1-.15.04l-.06.04-.05.04-.08-.05a.2.2 0 0 0-.03.07l-.06.01h-.03l-.07.04-.03.05-.03-.01-.03.01-.02.07a.4.4 0 0 1-.05.06.37.37 0 0 1-.06.05l-.01.03h.03a.1.1 0 0 1-.02.04l-.02-.01a.17.17 0 0 0-.06.13.49.49 0 0 0-.11.05.17.17 0 0 0-.07.09l-.08.07-.02-.02v-.01l-.2.1-.1.05Zm1.93-2.13a.8.8 0 0 1-.08.1.34.34 0 0 0-.07.13.24.24 0 0 0-.08.06 1 1 0 0 1-.1.13.55.55 0 0 1-.12.18l-.04.1a.65.65 0 0 0 .15-.01l.27-.06h.02l.09-.5.04-.17a.13.13 0 0 1-.08.04Zm-4.07 2.1a1.17 1.17 0 0 1-.13 0l-.13-.04a.37.37 0 0 1-.1-.18.83.83 0 0 1 .12-.27.33.33 0 0 0 .06-.14l.03-.03a.04.04 0 0 0 .02-.05v.01l.03-.02v-.03l.06-.1a1.02 1.02 0 0 1 .07-.11l.08-.15h.02l.02-.08h.03l.04-.1.04-.06a2.58 2.58 0 0 1 .22-.4l.45-.68v-.03h-.12l-.06-.05a.53.53 0 0 1 .09-.16.52.52 0 0 1 .12-.14l.01-.03h.01a.54.54 0 0 1 .33-.15 2.51 2.51 0 0 1 .5-.05.32.32 0 0 1 .07 0 .5.5 0 0 1 .09 0l.12.01a.3.3 0 0 1 .1.03l.02.03h.02v-.01a.92.92 0 0 1 .1.03.58.58 0 0 1 .1.06v.02h.02a.06.06 0 0 1 .03.03c.02.02.03.02.04 0l.03.05.02.01a.12.12 0 0 0 .03.06l.04.05-.04.03.03.03h.02a.05.05 0 0 1-.04.06h.08v.02h-.02l-.01.04.03-.01-.04.04a.02.02 0 0 0 0 .01l-.04.05h.08c-.01 0-.02.01-.02.03v.03h-.05V22l.01.02a.25.25 0 0 1 .06-.03.09.09 0 0 1-.07.07.03.03 0 0 1 0 .04.03.03 0 0 0-.02.03h.02l.09-.04-.03.02-.05.05h-.03l-.03.07-.05.04v.03h.05v.07h-.03a.04.04 0 0 1-.01.02.02.02 0 0 1-.03 0l.04.04v.03a.05.05 0 0 1-.06.06v.04a.13.13 0 0 1-.1 0 .02.02 0 0 0 0 .04v.06l-.05.02h-.03.05l.03.01.03-.03.02.02-.05.06h-.1a.1.1 0 0 0-.01.06h.01l.03-.02v.03a.28.28 0 0 1-.06 0l-.06.04v.03h.06l-.1.04-.03.05-.01.02-.07.02v.03l.09.01.04-.03-.04.07a.23.23 0 0 1-.04-.02.14.14 0 0 1-.05.06.3.3 0 0 1-.1.04.06.06 0 0 0 .01.01.06.06 0 0 1 .03.01l-.06.02-.03.05-.04.01-.03.06h-.05c.02.02.02.03 0 .03a.18.18 0 0 1-.05 0l-.07.01v.02h.02a.02.02 0 0 0 .02 0 .05.05 0 0 0-.03.05l-.04.02-.01.01h-.04v.03a.08.08 0 0 1-.04.02.03.03 0 0 1-.02 0l-.01-.01-.03.06h-.07c0 .03-.03.05-.07.06a.12.12 0 0 0 .03.04l-.05-.01-.05.02v.02h.03v.01l-.03.02-.03.03a.1.1 0 0 1-.06 0 .07.07 0 0 0-.01.04.24.24 0 0 0-.07.02.08.08 0 0 0-.04.05h-.02c-.04 0-.05 0-.07.04h-.04a1.29 1.29 0 0 1-.2.13.58.58 0 0 1-.24.1.47.47 0 0 1-.2.12 1.15 1.15 0 0 1-.24.07.07.07 0 0 0-.04 0Zm.47-.57v.04l.03.01.1-.01.04-.04h.02l.12-.05a.25.25 0 0 0 .11-.06h.04l.01-.04a.97.97 0 0 0 .12-.04l.03-.03.01-.03a.13.13 0 0 0 .07-.02h.01a.32.32 0 0 1 .09-.1.8.8 0 0 1 .12-.06v-.03a1.61 1.61 0 0 0 .16-.13l.15-.16.11-.15.12-.18h.02a.27.27 0 0 1 .03-.12.34.34 0 0 1 .06-.12v-.02l.02-.01a.23.23 0 0 1 0-.1l.03-.16a.35.35 0 0 0-.13-.28.46.46 0 0 0-.32-.11h-.1a.05.05 0 0 1 .01.04c-.02 0-.03.02-.04.05a.13.13 0 0 0 0 .08.08.08 0 0 0-.04.09l-.03.01-.01.03a.02.02 0 0 0-.02 0v.01l-.03.06v.04l-.05.01v.04l-.04.01v.04l.01.03v.01l-.07.01v.05l.05-.01a.22.22 0 0 0-.05.05.21.21 0 0 0-.03.05l-.02.05h-.02l-.01.02h-.02l-.01.04h.02l.04-.01a.09.09 0 0 1-.07.04v.05h-.02v-.02l-.02-.01v.02l.02.02v.03l-.04.06-.01.02h-.05l-.03.08.03.06h-.08v.02l.03.02h.03a.14.14 0 0 1-.05.03l-.07.01-.01.03v.03l.03-.02h.03v.02l-.01.03h-.05v.01l-.04.01.02.03-.04.03v-.02a.22.22 0 0 0-.07.12h-.04v.04a.25.25 0 0 1 .1-.03l-.03.03a.11.11 0 0 1-.08.07l.01.03-.05.02v.04h.02l.02-.02.01.02a.03.03 0 0 0-.01.03l-.04-.01c-.04.02-.07.04-.07.06v.02l.01-.01.06-.02.01-.01-.03.06h-.04.02v.04l-.03.05-.04-.01h-.03v.07h-.02v.03h.02Zm.02-.02-.01.02Zm-.62-.13v.01Zm2.32-.6v.03Zm-21.94-2v.01Z"/>
    <path fill="rgba(0,0,0,0)" d="M18.73 39.32H5.45l1.06-.89c.13-.1 12.25-10.22 17.64-17.3a57.57 57.57 0 0 1-6.81.4c-.44 0-.89 0-1.33-.02l-.6.26v-.27l-1.57-.04 1.57-.76v-.2l.4.01c1.3-.64 12.62-6.31 20.87-14.7l1.56-1.6-.74 2.1a111.9 111.9 0 0 1-4.72 10.98c-1.8 3.7-3.77 7.27-5.82 10.6a94.8 94.8 0 0 1-8.07 11.26Zm-10.53-1h10.07a108.8 108.8 0 0 0 13.6-21.46c1.82-3.72 3.13-6.84 3.9-8.77a87.44 87.44 0 0 1-17.8 12.43 56.57 56.57 0 0 0 7.2-.54l1.14-.16-.66.94c-2.12 3.03-5.88 7.05-11.17 11.96a212.59 212.59 0 0 1-6.28 5.6Zm23.53-13.18.1-.75a.87.87 0 0 1 .03-.16v-.01l.07-.2.08-.2.06-.15.1-.32.01-.05.14-.4a4.2 4.2 0 0 1 .23-.88 2.18 2.18 0 0 1 .5-.94.8.8 0 0 1 .36-.21 1.1 1.1 0 0 1 .28-.08l.5-.07.07.5a1.07 1.07 0 0 1 .52-.14l.22-.23-.07.24.05.01.3.08v-.02l.07-.08a.74.74 0 0 1 .16-.15.94.94 0 0 1 .11-.09l-1.1-.96 1.49.8.43-.09.07.15h.04l.1.16a1.03 1.03 0 0 1 .25-.06 3.03 3.03 0 0 1 .51-.06v-.07l.34.08h.09a.86.86 0 0 1 .13.04l.16-.32.45.64.03.03.26-.11v.2l.13-.04-.03.15.15-.03.25-.2-.28.55.01-.02.03-.03a3.44 3.44 0 0 0 .27-.3l.03-.03.03-.03a.44.44 0 0 0 .03-.04 1.3 1.3 0 0 0 .09-.11l.37-.59.2.24.23-.02.35-.4-.1.43h.02l.29.1.03.22 1 .77h-1.09l-.02.09a.54.54 0 0 1 0 .08v.04l-.05.18v.08l-.03.11-.01.07.02.06-.03.07v.19l.01.06-.01.02v.08h-.03v.05l-.01.05.26.24h-.27l.04.2-.03.03a.52.52 0 0 1-.01.06l-.01.05a.5.5 0 0 1 .01.08l.02.06-.01.02v.48h-.13l-.17.35-.19-.04-.11.06-.13.06-.2.12-.23-.09a.7.7 0 0 1-.4-.45l-.04-.1a1.06 1.06 0 0 1-.02-.2l-.07.04-.05.12-.06-.01v.16l-.1.03.28.22-.52-.11-.23.2h-.16l-.03.02-.07.05-.02.02v-.01l-.1.06h-.43l-.32-.47.03-.11-.14.01-.1.3-.29-.14-.07.04a1.1 1.1 0 0 1-.25.12.98.98 0 0 1-.26.14 1.67 1.67 0 0 1-.32.1l-.2.04-.06-.04h-.12l-.31-.11-.09-.09a.88.88 0 0 1-.04-.04.87.87 0 0 1-.18-.4l-.01-.06h-.11v.08l-.16.1-.03.04a.63.63 0 0 1-.16.15 1.05 1.05 0 0 1-.18.13.79.79 0 0 1-.41.12h-.05l-.5-.1v-.05l-.1.2h-.22l-.04.02-.1.1h-.1a.64.64 0 0 1-.17.03l-.1.01Z"/>
  </g>
</svg>