<svg xmlns="http://www.w3.org/2000/svg" viewBox="0 0 48 48">
  <defs>
    <radialGradient id="a" cx=".5" cy=".5" r=".5" gradientUnits="objectBoundingBox">
      <stop offset="0" stop-color="#fbfcfe"/>
      <stop offset=".4" stop-color="#fff" stop-opacity=".7"/>
      <stop offset="1" stop-color="#96bbdc"/>
    </radialGradient>
  </defs>
  <rect width="48" height="48" fill="url(#a)" rx="24"/>
  <path fill="#00286f" d="M941.159,63.4c5.008,2.179,7.276,1.065,8.853-1.14,1.824-2.549-1.432-7.143-7.277-10.261-5.669-3.031-11.694-3.543-13.7-1.231a3.485,3.485,0,0,1,.258-.413c2.331-3.267,10.295-2.683,17.779,1.308s11.661,9.885,9.325,13.156-8.8,4.2-15.99-.275" transform="translate(-920 -27)"/>
  <path fill="#d53c0f" d="M10385.834,441.817s13.347-11.111,18.4-18.341a56.851,56.851,0,0,1-9.322.534c.4-.193,12.45-6.037,21.113-14.861,0,0-6.35,18.211-18.529,32.669Zm25.488-14.359a.477.477,0,0,1,.028-.1c.016-.039.021-.068.031-.086l0-.01.016-.044c.063-.154.1-.272.141-.366a3.926,3.926,0,0,0,.115-.387l.134-.395c.013,0,.019-.008.019-.031a.1.1,0,0,0,0-.034,3.627,3.627,0,0,1,.211-.813c.162-.486.3-.74.411-.758l-.014-.013c.014-.024.076-.044.181-.081a.6.6,0,0,1,.165-.047l.008.068a2.191,2.191,0,0,1-.092.539,5.475,5.475,0,0,0-.136.536c-.019.008-.026.031-.026.065a.223.223,0,0,1-.028.06c-.019.039-.023.068,0,.081-.019.026-.039.047-.055.071l-.008.063c-.011,0-.021,0-.026.013s0,0,0,0,.013,0,.016.005l-.065.23h.019a.154.154,0,0,0,.125-.1c.037-.068.073-.131.11-.194.078-.1.186-.222.321-.384.068-.078.131-.154.207-.235a1.255,1.255,0,0,1,.335-.426.579.579,0,0,1,.342-.1l.053.013v.037a.313.313,0,0,1-.05.165,1.391,1.391,0,0,0-.1.152l-.019.008a.249.249,0,0,1-.07.141.015.015,0,0,0,0,.016h.011c-.045.115-.073.207-.1.269a.9.9,0,0,0-.061.264.364.364,0,0,1-.028.115.373.373,0,0,0-.026.112.309.309,0,0,1-.045.089.11.11,0,0,0-.023.055l.011.029.036-.008c.095-.131.23-.309.411-.528.136-.175.277-.348.421-.518h.013l.4-.484c.026-.031.053-.068.084-.1s.07-.071.081-.06a.376.376,0,0,1,.117-.1.216.216,0,0,1,.146-.047l.016-.024.058-.01.026.058s.011.013.019.016a.238.238,0,0,0,.063.008c.014.024.026.037.034.026l-.045.06a.061.061,0,0,1-.01.034.1.1,0,0,1-.026.037l-.042.037a.092.092,0,0,1-.023.01v.01c-.047.044-.076.076-.1.094a.109.109,0,0,0-.031.05l-.128.123v.018a.242.242,0,0,1-.165.1l.019.013h.052l-.023.01c-.008,0-.021,0-.023.01-.031.024-.055.052-.081.073l.019.01-.031.055c-.014,0-.045.026-.095.076a.219.219,0,0,0-.07.126h-.029a.14.14,0,0,1-.06.013.067.067,0,0,0,.023.031l-.023.024c-.042.008-.061.021-.061.042h.016v-.013c.014,0,.021.008.021.013l.01.01-.06.021c-.021.034-.047.065-.068.1l-.055.018.013.031c0,.01-.013.026-.031.039a.076.076,0,0,0-.028.044c0,.005-.016.01-.045.013l-.028.037.008.01-.061.065-.025.005a.122.122,0,0,1-.084.078c-.011.024-.023.052-.037.076a.584.584,0,0,1-.05.078.037.037,0,0,0-.013.018l-.036.034,0,.016-.062.037-.056.1c-.01,0-.021,0-.025.016a.131.131,0,0,0-.021.052h-.021s-.014.016-.034.037-.021.039-.026.039l-.019.044a1.084,1.084,0,0,0-.1.133l.013.026-.049.026-.037.063-.021.01v.021h-.048l.011.013.037.016-.026.016c-.013.008-.019.031-.019.065l-.031.026-.036.094-.032.01v.058a.146.146,0,0,0-.033.024c-.011.008-.014.016,0,.024-.021.024-.04.047-.058.071s-.039.042-.053.037a.513.513,0,0,1-.141.118.284.284,0,0,1-.157.044l-.065-.013,0-.1.008-.251v-.039c.01-.031.021-.06.031-.089l.036-.084-.021-.034a.727.727,0,0,0,.028-.1.822.822,0,0,1,.016-.084h.021c.008-.047.018-.094.026-.139a.652.652,0,0,1,.039-.133v-.016c-.008-.031-.011-.047,0-.052l.025-.042a.037.037,0,0,1,0-.044.15.15,0,0,0,.017-.042.464.464,0,0,1,.033-.16c.014-.037.023-.076.034-.115a3.439,3.439,0,0,0-.246.3,3.228,3.228,0,0,1-.376.447.087.087,0,0,1-.026.047c-.021.026-.034.034-.036.034l-.1.128a.272.272,0,0,0-.081.149l-.07.047c-.011.008-.008.016.011.029s.021.013.021.024a.15.15,0,0,1-.037.05c-.013.018-.028.037-.044.055l.023.016c0,.005-.013.01-.044.013l-.011.071-.045.034a.029.029,0,0,0-.028.008v.008a.1.1,0,0,0,0,.042l-.034.029c-.008,0-.013,0-.013-.018l-.011-.021-.045.1h-.031a.042.042,0,0,0-.025,0h-.029l-.026.047a.045.045,0,0,1-.047.013.063.063,0,0,1-.031,0l-.031.034-.037-.005a.148.148,0,0,1-.1.065A.16.16,0,0,0,10411.322,427.458Zm5.473-.112-.039-.058a.836.836,0,0,1,.126-.267c.033-.047.067-.1.1-.157h.013l.006.008a.6.6,0,0,1,.06-.094.513.513,0,0,0,.056-.081c.028-.037.047-.058.06-.076a.652.652,0,0,0,.053-.086.154.154,0,0,1,.028-.026l.218-.3a.1.1,0,0,1,.039-.029.979.979,0,0,1,.078-.118c.045-.06.07-.086.092-.092a1.731,1.731,0,0,1,.115-.165c.047-.055.094-.112.141-.17l.087-.1.028-.008.039-.076a.11.11,0,0,0,.042-.018.624.624,0,0,1,.1-.165l0-.018a.652.652,0,0,0,.12-.118c.036-.039.076-.081.115-.128a3.932,3.932,0,0,0,.309-.345.936.936,0,0,0,.081-.086,1.613,1.613,0,0,0,.12-.165l.013.016a.4.4,0,0,1,.139-.065.967.967,0,0,0,.123-.044l.039-.018h.029l.013-.016.1-.008.039.013a.13.13,0,0,1-.021.092h.016l.014.01h-.021c-.023.1-.044.2-.065.3a1.379,1.379,0,0,1-.078.28s.011,0,.019.008.008.013,0,.021l-.045.081.026.058a.607.607,0,0,0-.021.1c-.008.047-.014.092-.021.128l-.036.042v.115h-.019l.016.052a.259.259,0,0,0-.021.078.227.227,0,0,1-.011.068l.013.068-.031.039a.2.2,0,0,0,.011.044l.008.037a.024.024,0,0,1-.019.031v-.016l-.008.008c0,.029.013.037.034.031,0,.016-.011.071-.019.165s-.016.144-.016.146a.114.114,0,0,0,0,.044l-.055.034v.052l.039-.008a.023.023,0,0,1,.019.037.127.127,0,0,1-.019.042l.037.034c.008.013,0,.024-.017.026s-.021.008-.021.016v.016c.019.013.026.024.026.026s-.008.013-.026.008v.042a.868.868,0,0,0,.011.086c-.019.026-.026.039-.026.055s.008.018.023.024a.026.026,0,0,1,.026.026v0h-.016a.269.269,0,0,1-.006.136.772.772,0,0,1-.052.144l-.058-.013a.139.139,0,0,0-.016.029.023.023,0,0,1-.031.013l-.006,0-.021.055c-.089.05-.178.094-.267.144a.2.2,0,0,1-.118-.136.6.6,0,0,1-.039-.23.626.626,0,0,1,.011-.12c.008-.042.011-.076.013-.092a.4.4,0,0,1,.016-.052.045.045,0,0,0-.008-.044V426.6l.026-.016c-.013-.018-.019-.024-.026-.021v-.191l-.065-.008-.05.018a.033.033,0,0,0-.023-.013s-.013.005-.018.024h-.045c0-.008-.013-.01-.016-.021a.08.08,0,0,1-.055.037.455.455,0,0,1-.058.013l0-.029a.029.029,0,0,1,0-.018h-.021c-.008,0-.019.01-.034.021a.244.244,0,0,1-.146.047c-.021.01-.042.021-.062.034s-.031.026-.05.039l-.076-.044a.194.194,0,0,0-.028.063l-.065.016h-.031l-.071.034-.023.052-.033-.008-.034.013-.014.068a.407.407,0,0,1-.052.063.367.367,0,0,1-.065.042l-.008.034h.031a.1.1,0,0,1-.016.037c-.011.008-.016,0-.019-.008a.174.174,0,0,0-.062.131.489.489,0,0,0-.112.055.166.166,0,0,0-.071.084l-.075.068c-.008,0-.014,0-.019-.013l0-.016-.207.1-.094.052Zm1.938-2.129a.8.8,0,0,1-.081.11.335.335,0,0,0-.072.123.24.24,0,0,0-.076.063,1,1,0,0,1-.1.131.549.549,0,0,1-.126.18c-.016.037-.028.071-.042.1a.645.645,0,0,0,.157-.018c.17-.031.262-.052.27-.052l0,0,.021-.008c.025-.167.055-.335.086-.5l.039-.17A.126.126,0,0,1,10418.732,425.217Zm-4.071,2.11a1.171,1.171,0,0,1-.136,0l-.128-.044a.369.369,0,0,1-.1-.188.834.834,0,0,1,.125-.267.333.333,0,0,0,.058-.139c0-.005.008-.013.029-.031a.044.044,0,0,0,.016-.045l0,.008.037-.024v-.029c.026-.047.047-.076.06-.1a1.022,1.022,0,0,1,.065-.112c.026-.047.053-.094.079-.149h.023l.019-.073.028-.008.039-.092c.011,0,.023-.024.039-.06a2.583,2.583,0,0,1,.226-.408c.287-.434.434-.662.444-.68l.013-.018-.008-.013-.047.01-.073-.01-.058-.047a.534.534,0,0,1,.087-.162.52.52,0,0,1,.117-.133c0-.016.008-.026.016-.031s.008,0,.008,0a.537.537,0,0,1,.327-.152,2.513,2.513,0,0,1,.5-.05.315.315,0,0,1,.07,0,.5.5,0,0,1,.089,0l.126.01a.305.305,0,0,1,.1.031l.019.024h.021v-.008a.918.918,0,0,1,.1.034.584.584,0,0,1,.095.058v.024h.023a.055.055,0,0,1,.034.024c.013.018.025.024.033.008l.031.044h.011l.011.013a.119.119,0,0,0,.031.06c.026.024.036.037.039.052l-.039.021.031.037.016.005a.054.054,0,0,1-.034.052h.071v.018h-.019s-.008.013-.011.039h.011l.019-.008s-.011.013-.039.037a.02.02,0,0,0,0,.018l-.034.042h.075c-.008,0-.013.016-.013.037s0,.031-.011.031h-.047v.021l.016.013a.252.252,0,0,1,.061-.029.087.087,0,0,1-.076.073.03.03,0,0,1,0,.042l0,0a.033.033,0,0,0-.021.026h.021l.089-.044-.028.021v.008l-.05.042h-.026l-.031.073-.05.039v.034l.047-.01.011.076h-.042a.044.044,0,0,1-.008.024.023.023,0,0,1-.028.005l.039.034v.031a.053.053,0,0,1-.061.06l.008.037a.132.132,0,0,1-.112.01.021.021,0,0,0,0,.029l.011.018-.006.039-.052.021-.029.008h.048l.031.008.031-.034.019.026-.048.052-.094.005a.092.092,0,0,0-.019.058h.016l.029-.018v.024a.276.276,0,0,1-.065,0l-.053.047v.029l.053.008-.095.031-.031.05c.008.01,0,.016-.013.024l-.065.013v.029l.084.016.038-.031-.033.065a.228.228,0,0,1-.039-.013.145.145,0,0,1-.053.06.3.3,0,0,1-.1.037.057.057,0,0,0,.011.013.062.062,0,0,1,.031.01l-.061.021-.028.05-.044.01c-.021.034-.032.052-.029.058h-.047c.016.018.013.031,0,.031a.177.177,0,0,1-.053,0l-.07.01v.021h.023a.016.016,0,0,0,.016,0,.051.051,0,0,0-.026.05l-.044.013c0,.005-.011.008-.011.016h-.036l-.006.026a.078.078,0,0,1-.036.024.03.03,0,0,1-.021,0l-.01-.013-.026.058h-.076c0,.029-.026.047-.067.065a.118.118,0,0,0,.031.034l-.05-.01-.05.026v.021h.028c.006,0,.006,0,.006.01l-.037.013c-.013.01-.021.021-.031.031a.1.1,0,0,1-.055.008.07.07,0,0,0-.013.034.243.243,0,0,0-.071.024.076.076,0,0,0-.042.047l-.021-.01c-.031,0-.05.016-.065.05h-.042a1.29,1.29,0,0,1-.206.128.576.576,0,0,1-.23.094.475.475,0,0,1-.2.126,1.148,1.148,0,0,1-.24.073A.075.075,0,0,0,10414.661,427.327Zm.471-.573v.034l.031.013.092-.013.039-.034h.029c.013-.008.052-.021.112-.05a.25.25,0,0,0,.117-.065h.04s.008-.013.008-.037a.969.969,0,0,0,.12-.042l.028-.029.011-.029a.133.133,0,0,0,.068-.021h.013a.316.316,0,0,1,.086-.092.8.8,0,0,1,.118-.068v-.029a1.611,1.611,0,0,0,.165-.131c.041-.039.091-.1.148-.16l.115-.152c.034-.05.073-.112.115-.183h.021a.269.269,0,0,1,.029-.12.345.345,0,0,1,.06-.112v-.021l.023-.016a.225.225,0,0,1,0-.1c.011-.044.019-.1.026-.152a.349.349,0,0,0-.131-.288.461.461,0,0,0-.318-.11l-.105.01a.048.048,0,0,1,.021.037c-.021,0-.031.018-.042.047a.126.126,0,0,0-.011.076.08.08,0,0,0-.031.092l-.034.013-.008.024a.016.016,0,0,0-.016,0c-.008,0-.008.008,0,.018l-.034.06v.031l-.044.016v.039l-.042.01-.011.037.023.037-.01.01-.068.01v.013l.011.031.047-.01a.22.22,0,0,0-.05.047.211.211,0,0,0-.031.058l-.026.044h-.018l-.014.024h-.019l-.008.034.019.008.042-.016a.085.085,0,0,1-.073.039v.05h-.019v-.013c0-.005,0-.013-.013-.013l-.011.018.023.026.011.021-.047.068-.011.013-.047.01-.031.071.028.065h-.081l0,.013.036.021h.021a.145.145,0,0,1-.05.031l-.062.016-.014.031.006.024.025-.021h.034v.024l-.016.024h-.047v.016l-.039.01c0,.013.01.024.016.024l.008.01-.045.024v-.021a.22.22,0,0,0-.073.118l-.034.008v.039a.249.249,0,0,1,.092-.034l.008.008-.039.021a.111.111,0,0,1-.076.076l.011.021-.05.029-.008.037h.031l.016-.024.011.018a.033.033,0,0,0-.013.034l-.039-.013c-.04.021-.065.039-.071.06v.026l.014-.013.008-.005.047-.013.016-.013-.037.06-.033.008h.013v.031l-.023.05-.039-.01-.034.01v.06l-.016.008-.008.026h.022Zm.014-.021s0,.016-.012.018Zm-.62-.131,0,.01Zm2.327-.6-.013.026h0Zm-21.947-1.993h.011l-.011.005Z" transform="translate(-10379 -403)"/>
  <path fill="rgba(0,0,0,0)" d="M10397.732,442.317h-13.28l1.062-.884c.128-.106,12.245-10.225,17.633-17.311a57.567,57.567,0,0,1-6.808.406c-.439,0-.885-.005-1.325-.015l-.6.258V424.5l-1.574-.039,1.571-.757v-.2l.4.009c1.3-.639,12.624-6.313,20.866-14.709l1.563-1.593-.735,2.108a111.9,111.9,0,0,1-4.72,10.968c-1.812,3.707-3.771,7.272-5.822,10.6a94.807,94.807,0,0,1-8.076,11.264Zm-10.534-1h10.068a108.806,108.806,0,0,0,13.609-21.461c1.819-3.72,3.124-6.841,3.886-8.771a87.445,87.445,0,0,1-17.8,12.439,56.568,56.568,0,0,0,7.208-.543l1.138-.16-.658.941c-2.118,3.028-5.876,7.052-11.169,11.962C10390.86,438.154,10388.5,440.207,10387.2,441.317Zm23.528-13.175.1-.75a.868.868,0,0,1,.038-.166v-.009l.067-.192c.031-.075.056-.143.078-.2s.039-.1.059-.153c.04-.116.072-.223.1-.326l.013-.044.135-.4a4.194,4.194,0,0,1,.231-.884,2.176,2.176,0,0,1,.494-.935.805.805,0,0,1,.373-.214,1.1,1.1,0,0,1,.279-.076l.506-.069.058.5a1.074,1.074,0,0,1,.528-.148l.212-.23-.067.244.055.014.286.071.016-.019c.018-.023.04-.051.067-.081a.739.739,0,0,1,.154-.142.935.935,0,0,1,.113-.092l-1.1-.961,1.485.794h0l.439-.08.065.142h.037l.1.165a1.028,1.028,0,0,1,.258-.066,3.027,3.027,0,0,1,.506-.054v-.068l.337.077.091.008a.865.865,0,0,1,.132.029l.157-.315.45.639.032.025.259-.109v.212l.127-.046-.022.15.146-.033.25-.2-.28.548.014-.016.03-.034a3.439,3.439,0,0,0,.271-.3l.024-.031.029-.027a.441.441,0,0,0,.037-.041,1.3,1.3,0,0,0,.083-.114l.374-.581.192.238.239-.018.352-.4-.1.427.016.005.289.1.033.212,1,.768h-1.093q-.01.045-.023.089a.542.542,0,0,1-.006.089l.017.036-.057.177,0,.027,0,.016-.006.04c-.007.04-.013.078-.02.111l-.016.073.017.058-.026.065v.192l.012.064-.012.015v.085h-.029l-.006.046c0,.015,0,.032-.007.053l.263.233h-.266l.039.209-.034.021a.518.518,0,0,1-.013.067c0,.015,0,.031-.008.045a.491.491,0,0,1,.016.085l.013.061-.01.014v.478h-.123l0,0-.175.352-.186-.042-.117.063-.123.066-.21.117-.223-.091a.7.7,0,0,1-.407-.448q-.016-.048-.029-.1h0v-.006a1.062,1.062,0,0,1-.029-.2l-.062.043-.056.123-.059-.014v.163l-.1.032.278.213-.517-.109-.232.21h-.153l-.035.017-.074.042-.011.019-.007-.009-.106.059h-.424l-.317-.467.03-.112-.138.015-.111.3-.277-.142c-.026.015-.052.029-.079.043a1.107,1.107,0,0,1-.244.116.982.982,0,0,1-.264.138,1.665,1.665,0,0,1-.321.1l-.2.039-.059-.039-.052,0-.069,0-.308-.107-.084-.088c-.014-.015-.027-.03-.04-.046h0a.872.872,0,0,1-.186-.4l-.01-.054h-.112l0,0v.074l-.155.1-.009.01-.026.033a.631.631,0,0,1-.157.151,1.046,1.046,0,0,1-.176.131.787.787,0,0,1-.418.117h-.05l-.5-.1,0-.051,0,0-.089.206h-.222l-.041.019-.1.107-.112-.016a.635.635,0,0,1-.162.041l-.1.011h0Z" transform="translate(-10379 -403)"/>
</svg>
