<svg xmlns="http://www.w3.org/2000/svg" viewBox="0 0 48 48">
  <defs>
    <radialGradient id="a" cx=".5" cy=".5" r=".5" gradientUnits="objectBoundingBox">
      <stop offset="0" stop-color="#fff"/>
      <stop offset="1" stop-color="#99a0a8"/>
    </radialGradient>
  </defs>
  <g transform="translate(2)" opacity=".66">
    <rect width="48" height="48" rx="24" transform="translate(-2)" opacity=".24" fill="url(#a)"/>
    <path d="M7.06 37.58s12.83-10.34 17.7-17.06a55.97 55.97 0 0 1-8.97.5c.4-.2 11.97-5.62 20.29-13.83 0 0-6.1 16.94-17.8 30.39ZM31.7 24.22a.85.85 0 0 1 .03-.1l.03-.08v-.05c.07-.14.1-.25.14-.34a3.62 3.62 0 0 0 .1-.36l.13-.37.02-.02v-.04a3.43 3.43 0 0 1 .2-.75c.14-.46.27-.7.38-.7l-.02-.02a.47.47 0 0 1 .17-.08.5.5 0 0 1 .16-.04v.07a2.14 2.14 0 0 1-.08.5 3.95 3.95 0 0 0-.13.5c-.02 0-.02.03-.02.06a.2.2 0 0 1-.03.05c-.02.04-.02.06 0 .08a.53.53 0 0 0-.05.07v.05l-.03.01c0 .01 0 0 0 0a.02.02 0 0 1 .02 0l-.06.22h.02a.14.14 0 0 0 .11-.09l.1-.17.3-.37.2-.21a1.2 1.2 0 0 1 .3-.4.53.53 0 0 1 .33-.1l.04.01v.04a.32.32 0 0 1-.04.15.98.98 0 0 0-.1.14.28.28 0 0 1-.04.08.21.21 0 0 1-.04.06v.01h.01l-.08.25a.77.77 0 0 0-.06.25.45.45 0 0 1-.03.1.31.31 0 0 0-.02.1.21.21 0 0 1-.04.1.1.1 0 0 0-.03.05l.01.03.04-.01c.09-.12.21-.3.38-.5l.4-.48.38-.45.07-.1c.03-.04.07-.06.08-.05a.38.38 0 0 1 .1-.1.19.19 0 0 1 .14-.04l.02-.02.05-.01.03.05.01.02a.22.22 0 0 0 .06 0l.03.03-.04.05a.15.15 0 0 1 0 .04.13.13 0 0 1-.03.03l-.04.04h-.02v.02l-.09.08-.03.05-.11.11v.02a.24.24 0 0 1-.16.1h.06l-.01.02a.04.04 0 0 0-.03 0l-.07.08h.01l-.03.05-.08.08a.18.18 0 0 0-.06.11h-.03a.1.1 0 0 1-.06.02.15.15 0 0 0 .02.03l-.02.01c-.04.01-.05.03-.05.05h.01v-.01h.02a.01.01 0 0 1 0 .02l-.05.01a.7.7 0 0 1-.06.1l-.05.01.01.03s0 .02-.03.04a.07.07 0 0 0-.02.04l-.04.01-.03.03v.01l-.05.07h-.03a.11.11 0 0 1-.07.08.39.39 0 0 0-.03.06l-.05.08a.02.02 0 0 0-.01.01l-.04.04v.01l-.05.04-.05.1a.02.02 0 0 0-.03 0 .1.1 0 0 0-.02.06h-.02l-.03.03-.02.04-.02.04a.53.53 0 0 0-.1.12l.02.02-.04.03-.04.06h-.02v.03h-.04l.04.02-.02.02c-.02 0-.02.03-.02.06l-.03.02-.03.1h-.04v.05a.09.09 0 0 0-.03.03v.02a.77.77 0 0 0-.05.06q-.03.04-.05.04a.44.44 0 0 1-.13.1.25.25 0 0 1-.14.05l-.07-.01v-.1l.01-.23v-.03l.03-.09a.47.47 0 0 1 .03-.08l-.02-.03a.85.85 0 0 0 .03-.09l.01-.08h.02l.03-.13.03-.12v-.07l.03-.03a.03.03 0 0 1 0-.05l.01-.04a.34.34 0 0 1 .03-.14l.04-.1c-.09.08-.16.18-.23.27a2.63 2.63 0 0 1-.35.42.07.07 0 0 1-.03.04.07.07 0 0 1-.03.03l-.1.12a.3.3 0 0 0-.07.14l-.07.05.02.02c.02.01.01.02.01.02a.08.08 0 0 1-.03.05.46.46 0 0 1-.04.05l.02.02h-.04l-.01.08-.05.03h-.01l-.01.01V24l-.03.03-.01-.02a.03.03 0 0 1-.01-.02l-.05.1h-.07l-.03.04c0 .02-.02.02-.04.02h-.03l-.03.03-.04-.01a.13.13 0 0 1-.09.06.23.23 0 0 0-.1 0Zm6.79-.23a.57.57 0 0 1-.04-.22.46.46 0 0 1 .01-.11l.01-.08.02-.05a.04.04 0 0 0 0-.04v-.07l.02-.01c-.01-.02-.02-.02-.03-.02v-.18h-.06l-.04.01-.02-.01s-.02 0-.03.02h-.04l-.01-.02a.07.07 0 0 1-.05.04l-.06.01a.06.06 0 0 0 0-.03v-.02c-.02 0-.02.01-.04.03a.26.26 0 0 1-.14.04c-.02 0-.04.02-.05.03a.28.28 0 0 1-.05.04l-.07-.05a.42.42 0 0 0-.03.07h-.09l-.06.04-.03.04h-.03l-.03.02v.06a.47.47 0 0 1-.06.06.23.23 0 0 1-.06.03v.03h.02a.14.14 0 0 1-.01.04h-.02a.15.15 0 0 0-.06.11.37.37 0 0 0-.1.05.18.18 0 0 0-.07.09l-.07.05h-.02v-.02l-.19.1-.09.04h-.03l-.03-.05a.7.7 0 0 1 .11-.24l.1-.15H37a.7.7 0 0 1 .05-.08.35.35 0 0 0 .05-.08.52.52 0 0 1 .06-.07l.05-.08.03-.03.2-.27a.07.07 0 0 1 .03-.03.74.74 0 0 1 .07-.1.3.3 0 0 1 .09-.1 1.82 1.82 0 0 1 .1-.14l.14-.17.07-.09h.03l.04-.08.04-.01a.44.44 0 0 1 .1-.16v-.02a.51.51 0 0 0 .1-.1l.1-.13a3.3 3.3 0 0 0 .3-.31.56.56 0 0 0 .07-.09.75.75 0 0 0 .11-.15l.01.02a.42.42 0 0 1 .13-.07.7.7 0 0 0 .12-.04l.03-.01h.03l.02-.02h.13a.11.11 0 0 1-.02.09h.02-.02c-.02.1-.03.2-.06.29a1.2 1.2 0 0 1-.07.26.03.03 0 0 1 .02 0v.03l-.05.07.02.06-.01.1-.02.11-.03.04v.1h-.02l.02.06a.18.18 0 0 0-.03.07v.12l-.02.05v.03l.02.04c0 .01 0 .03-.02.03v-.01c0 .03 0 .03.02.03l-.01.15a1.32 1.32 0 0 1-.02.14v.04l-.05.03v.05H39a.02.02 0 0 1 .01.03.13.13 0 0 1-.02.04l.04.03s0 .02-.02.02l-.02.01v.02l.03.03h-.03v.04a.54.54 0 0 1 .01.08.1.1 0 0 0-.02.05c0 .01 0 .02.02.02a.02.02 0 0 1 .02 0v.03a.34.34 0 0 1 0 .13.93.93 0 0 1-.05.13h-.06l-.02.01v.02h-.03l-.02.04-.25.14a.18.18 0 0 1-.1-.12Zm.1-1.86a.52.52 0 0 1-.07.1.32.32 0 0 0-.07.12.25.25 0 0 0-.07.06l-.1.12a.55.55 0 0 1-.12.16.51.51 0 0 1-.04.1.66.66 0 0 0 .15-.01l.25-.05h.02l.08-.48.04-.16a.1.1 0 0 1-.06.04Zm-3.78 1.97a.55.55 0 0 1-.13 0l-.12-.04a.32.32 0 0 1-.09-.18.74.74 0 0 1 .12-.25.28.28 0 0 0 .05-.13l.03-.02a.05.05 0 0 0 .01-.04l.04-.02v-.03a1.3 1.3 0 0 0 .11-.19 1.11 1.11 0 0 0 .08-.14h.02l.02-.07h.02l.04-.09.04-.05a2.18 2.18 0 0 1 .2-.39l.42-.63.01-.01v-.01h-.13l-.05-.05a.62.62 0 0 1 .08-.15.34.34 0 0 1 .1-.12.03.03 0 0 1 .02-.03h.01a.51.51 0 0 1 .3-.14 2.34 2.34 0 0 1 .47-.05h.06a.47.47 0 0 1 .09 0l.11.01a.21.21 0 0 1 .1.03l.02.02h.02a.66.66 0 0 1 .1.03.56.56 0 0 1 .08.05v.02h.02c.02 0 .03.01.03.03s.03.02.04 0l.03.04.02.01a.1.1 0 0 0 .03.06l.03.05-.03.02.03.03.01.01a.05.05 0 0 1-.03.05h.06v.01h-.01l-.01.04.02-.01s0 .02-.03.04v.02l-.03.03h.07l-.02.04v.03h-.05v.01l.02.02a.24.24 0 0 1 .05-.03.07.07 0 0 1-.07.07.03.03 0 0 1 .01.02.05.05 0 0 1 0 .02.04.04 0 0 0-.03.02h.02l.08-.04-.02.02v.01l-.05.04h-.02l-.03.07-.05.03v.04l.05-.01v.07h-.03a.03.03 0 0 1-.01.02.03.03 0 0 1-.03 0l.04.04v.03c0 .03-.02.05-.06.05l.01.04a.12.12 0 0 1-.1 0 .03.03 0 0 0 0 .03l.01.02v.03l-.05.03h-.03.05l.03.01.02-.03.02.02-.04.05h-.1a.07.07 0 0 0-.01.06h.01l.03-.02v.02a.13.13 0 0 1-.06 0l-.04.05v.02h.04l-.09.04-.02.05-.01.02h-.06v.04h.07l.03-.01-.03.05a.07.07 0 0 1-.03-.01.26.26 0 0 1-.05.06.25.25 0 0 1-.09.03.02.02 0 0 0 .01.01.07.07 0 0 1 .03 0l-.05.03-.03.05h-.04a.2.2 0 0 0-.03.06h-.04v.03h-.11v.02h.02a.02.02 0 0 0 .02 0 .05.05 0 0 0-.03.05l-.04.01v.02h-.04v.02l-.04.02h-.02l-.03.05h-.08c0 .02-.02.04-.06.06a.1.1 0 0 0 .03.03h-.04l-.05.01v.02h.02l.01.01-.03.02a.06.06 0 0 0-.03.02.09.09 0 0 1-.05.01.1.1 0 0 0-.01.03.37.37 0 0 0-.07.03.06.06 0 0 0-.04.04l-.02-.01c-.03 0-.04.01-.06.05h-.04a1.05 1.05 0 0 1-.2.12.6.6 0 0 1-.2.08.46.46 0 0 1-.2.12 1.1 1.1 0 0 1-.22.07.08.08 0 0 0-.05-.01Zm.44-.53v.03l.02.01.09-.01.04-.03h.02l.1-.05a.3.3 0 0 0 .11-.06h.04a.12.12 0 0 0 0-.04.5.5 0 0 0 .11-.04l.04-.02v-.03a.16.16 0 0 0 .06-.02h.02a.3.3 0 0 1 .07-.08l.11-.07v-.02l.16-.12.14-.15.1-.15a1.2 1.2 0 0 0 .1-.16h.03a.23.23 0 0 1 .02-.12.2.2 0 0 1 .06-.1v-.02l.02-.01a.25.25 0 0 1 0-.1.9.9 0 0 0 .02-.14.34.34 0 0 0-.12-.27.44.44 0 0 0-.3-.1h-.1a.05.05 0 0 1 .02.04l-.04.05a.14.14 0 0 0 0 .06.1.1 0 0 0-.03.1h-.04v.03h-.02V22l-.03.05v.03h-.04v.05H36v.04l.01.03v.01l-.07.01v.01l.01.04.04-.01a.19.19 0 0 0-.04.04.13.13 0 0 0-.03.05l-.02.05h-.02l-.01.02h-.02v.03h.05a.1.1 0 0 1-.07.03v.04h-.01c0-.01 0-.02-.02-.02v.02l.02.02v.02l-.05.07-.05.02-.03.06.03.06h-.08v.01l.04.02h.01a.1.1 0 0 1-.04.03.2.2 0 0 1-.06.02l-.01.03v.02l.03-.02h.03v.02l-.02.02h-.04v.02l-.04.01.02.02-.04.03a.2.2 0 0 0-.06.1l-.04.01v.04a.27.27 0 0 1 .1-.03l-.04.02a.11.11 0 0 1-.07.08v.01l-.04.03v.04h.02l.02-.03v.02a.07.07 0 0 0 0 .03h-.04c-.04.01-.06.03-.07.04v.03l.02-.01.04-.02h.02l-.04.05h-.03.01v.03l-.02.05-.03-.01h-.03v.07h-.02v.03h.01Zm0-.03a.03.03 0 0 1 0 .02Zm-.57-.12a.04.04 0 0 1 0 .02Zm2.16-.55v.02h-.01ZM15.78 21h.01Z" fill="#9aa0a9"/>
    <path d="M20.2 35.19c4.82 2.02 7 .99 8.53-1.07 1.76-2.37-1.38-6.64-7.01-9.54-5.46-2.82-11.26-3.3-13.2-1.14a3.27 3.27 0 0 1 .25-.39c2.24-3.03 9.91-2.5 17.12 1.22s11.24 9.2 8.98 12.24-8.47 3.9-15.4-.26" fill="#5a6473"/>
  </g>
</svg>