<svg xmlns="http://www.w3.org/2000/svg" xmlns:xlink="http://www.w3.org/1999/xlink" width="503.497" height="43" viewBox="0 0 503.497 43"><defs><radialGradient id="a" cx="0.5" cy="0.5" r="0.678" gradientUnits="objectBoundingBox"><stop offset="0" stop-color="#fbfcfe"/><stop offset="0.443" stop-color="#fff" stop-opacity="0.702"/><stop offset="1" stop-color="#66c4c5"/></radialGradient><clipPath id="b"><rect width="43" height="43" rx="21.5" fill="url(#a)"/></clipPath></defs><g transform="translate(-22 -20.268)"><path d="M146.36,15.348l.061-.082a13.258,13.258,0,0,0,1.621-3.018,10.572,10.572,0,0,0,.515-3.314V1.342h.111a29.17,29.17,0,0,0,6.871-.9l.082-.023.861,1.424-.145.041a29.684,29.684,0,0,1-6.14.863V6.017h6.965v1.6H154.8v8.573h-1.642V7.619H150.2V8.934a11.657,11.657,0,0,1-.681,3.935,14.016,14.016,0,0,1-1.891,3.483l-.073.1ZM75.23,14.782l.114-.037a4.744,4.744,0,0,0,2.771-1.808,6.427,6.427,0,0,0,.834-2.2h-1.53V.913H85.4v9.82H83.531v3.492c0,.237.05.31.082.315l.018,0,.018.014a1.207,1.207,0,0,0,.481.046c.575,0,.7-.119.725-.173l0-.014.011-.009a1.8,1.8,0,0,0,.247-.794c.039-.26.086-.689.13-1.283l.014-.173,1.521.8-.014.078a4.915,4.915,0,0,1-.8,2.657.947.947,0,0,1-.7.342,4.534,4.534,0,0,1-1.14.091A4.348,4.348,0,0,1,82.959,16c-.706-.091-1.067-.589-1.067-1.488v-3.78H80.55a8.422,8.422,0,0,1-1.063,3.072,6.132,6.132,0,0,1-3.608,2.451l-.1.027Zm3.831-5.565h4.7V7.875h-4.7Zm0-2.707h4.7V5.236h-4.7Zm0-2.671h4.7V2.447h-4.7Zm29.271,12.417V7.026a18.928,18.928,0,0,1-1.351,1.844L106.873,9l-.854-1.643.045-.055A22.279,22.279,0,0,0,109.689.2l.032-.105,1.635.452-.038.11a24.5,24.5,0,0,1-1.342,3.392V16.257Zm-35.3,0V9.094a8.2,8.2,0,0,1-1.451,1.013l-.095.05-.924-1.63.105-.05a8.532,8.532,0,0,0,2.586-1.963,12.466,12.466,0,0,0,1.569-2.091H70.944V2.835h2.707a7.223,7.223,0,0,0-1.172-1.662l-.091-.1L73.706.2l.063.068A8.884,8.884,0,0,1,75.086,1.99l.054.1L73.9,2.835h2.8v1.5l-.014.027a18.381,18.381,0,0,1-1.973,3.018,25.379,25.379,0,0,1,2.511,2.223l.066.068-1.013,1.42-.1-.114a18.626,18.626,0,0,0-1.5-1.6v6.88Zm-69.107,0V13.285A29.4,29.4,0,0,1,.559,14.4l-.105.027L0,12.938l.116-.027c.291-.073.574-.146.843-.215V2.515H.284v-1.4h5.84V1.8H8.118c-.073-.352-.159-.685-.256-.991L7.827.694,9.3.278l.038.1A7.3,7.3,0,0,1,9.73,1.8h2.06V3.2H11.1c-.066.429-.148.877-.238,1.342-.079.352-.157.667-.234.936H11.9c-.039-1.433-.068-3.159-.077-5.127V.224l1.453.16v.1c0,1.963.018,3.643.048,4.99h2.718v1.4h-2.68c.023.835.059,1.516.1,2.022s.073.963.118,1.4a22.985,22.985,0,0,0,.96-3.168L14.565,7l1.36.5-.023.1a21.527,21.527,0,0,1-1.876,5.254A3.456,3.456,0,0,0,14.5,14.17a.763.763,0,0,0,.07-.192v0a11.017,11.017,0,0,0,.214-1.648l.014-.178,1.451.881-.014.078a7.344,7.344,0,0,1-.722,2.383,1.182,1.182,0,0,1-1,.635c-.238,0-.624-.187-1.3-1.79v0l-.032-.1a11.415,11.415,0,0,1-1.849,1.936l-.1.078-.867-1.292.082-.064c.132-.11.259-.219.379-.329H6.37V7.72H11.3v6.332a9.827,9.827,0,0,0,1.308-1.716c-.164-.749-.3-1.548-.4-2.383-.1-.735-.184-1.776-.252-3.081H5.479v-1.4H7.237c-.086-.79-.205-1.552-.356-2.278h-.8v-.68H5.448V16.257Zm3.867-3.013H9.88V11.769H7.794Zm-5.382-.918c.525-.151,1.031-.306,1.515-.461V9.66H2.412Zm5.382-1.817H9.88V9.048H7.794ZM2.412,8.331H3.928V6.053H2.412ZM8.606,5.474H9.3c.082-.388.159-.794.232-1.2.061-.361.114-.721.164-1.077H8.259A21.691,21.691,0,0,1,8.606,5.474ZM2.412,4.725H3.928V2.515H2.412Zm39.26,10.746V15.9H40.116v-.749H37.777v.9H36.188V9.98h5.484v4.634a11.255,11.255,0,0,0,.963-2.757,17.437,17.437,0,0,0,.382-3.67V.913h1.558V8.185a19.422,19.422,0,0,1-.543,4.739,11.344,11.344,0,0,1-1.279,3.214l-.068.1Zm-3.9-1.817h2.339V11.481H37.777Zm86.105,1.228.123-.059a9.877,9.877,0,0,0,3.568-2.744,7.882,7.882,0,0,0,1.3-3.917h-2.634V6.515A12,12,0,0,1,124.644,8l-.086.069-1.077-1.4.082-.068a20.735,20.735,0,0,0,2.68-2.844A16.089,16.089,0,0,0,128.2.657l.054-.114,1.456.863-.041.091a17.983,17.983,0,0,1-2.1,3.46c-.474.584-.917,1.1-1.328,1.552h9.783a8.126,8.126,0,0,1-.658-.881,11.484,11.484,0,0,1-1.544-3.314h-1.848V.662h3.309l.014.091a9.023,9.023,0,0,0,1.365,3.73,9.61,9.61,0,0,0,2.7,2.657l.12.082L138.09,8.468l-.075-.055a14.036,14.036,0,0,1-1.506-1.356c-.016,4.853-.232,7.482-.658,8.03a1.894,1.894,0,0,1-1.81.968,14.147,14.147,0,0,1-1.9-.155l-.079-.009-.409-1.808.168.032a12,12,0,0,0,2.067.219c.25,0,.42-.164.516-.5l0,0a36.97,36.97,0,0,0,.329-5.67h-4.181a8.834,8.834,0,0,1-1.621,4.976,10.7,10.7,0,0,1-3.953,3.04l-.082.041Zm-35-.2.138-.009a8.349,8.349,0,0,0,3.442-.7l.009,0a2.324,2.324,0,0,0,.649-.434H90.651V7.327h11.086v6.209H98.7v.758c0,.219.391.283.72.3.256.009.6.014,1.042.014a13.275,13.275,0,0,0,1.8-.059.449.449,0,0,0,.313-.329l.009-.018.009-.018a3.134,3.134,0,0,0,.15-.968l.014-.173,1.43.8-.005.073c-.1.927-.316,1.5-.675,1.744l-.009.009a2.815,2.815,0,0,1-.931.233,17.816,17.816,0,0,1-2.1.068c-.54,0-1.033-.009-1.456-.032-1.247-.037-1.882-.447-1.882-1.219V13.536H94.979a3.944,3.944,0,0,1-1.5,1.6,9.934,9.934,0,0,1-4.128,1.05l-.091.009Zm3.342-2.388h7.952v-.525H92.227Zm0-1.653h7.952v-.52H92.227Zm0-1.63h7.952V8.555H92.227Zm96.3,7.181V15.083h-8.613v1.109h-1.639V8.263h11.892v7.93Zm-8.613-2.625h8.613V9.8h-8.613Zm-14.125,2.625V10.546H159.02V8.893h6.765V2.7h-5.938V1.05h13.63V2.7h-5.916v6.19h6.792v1.653h-6.792v5.647Zm-21.816,0v-7.1c-.063.169-.134.338-.206.5a13.8,13.8,0,0,1-1.547,2.876l-.073.11-1.16-1.128.055-.082a17.129,17.129,0,0,0,1.912-3.428,16.623,16.623,0,0,0,.942-3.059h-2.4V3.228h2.48V.3h1.589V3.228h2.278V4.88h-2.278v.685a36.245,36.245,0,0,1,2.4,3.5l.036.059-1.078,1.529-.082-.173c-.425-.9-.849-1.735-1.274-2.483v8.194Zm-81.041,0V11.65A13.175,13.175,0,0,1,61.914,13.2a12.2,12.2,0,0,1-2.389,2.424l-.086.064-.949-1.274.1-.064a6.128,6.128,0,0,0,.733-.562l-1.051.324-.02-.128a8.937,8.937,0,0,0-.667-2.351l-.054-.119,1.313-.406.043.091a10.9,10.9,0,0,1,.734,2.315,12.788,12.788,0,0,0,1.045-1.182,10.7,10.7,0,0,0,1.174-1.79H59.27c.005.041.011.082.02.128l.014.091-1.353.429-.018-.137c-.027-.233-.059-.457-.091-.667a20.3,20.3,0,0,1-4.031.9l-.1.014-.4-1.461L53.36,9.8a19.926,19.926,0,0,0,2.423-3.333c-.69.142-1.4.256-2.109.338l-.105.014-.247-1.4.032-.037a15.666,15.666,0,0,0,2.36-5l.03-.11,1.567.493-.038.11a21.743,21.743,0,0,1-1.544,3.538,9.029,9.029,0,0,1-.57.845c.5-.023.96-.064,1.362-.119.347-.671.684-1.379,1-2.1l.043-.1,1.3.479V2.091h4.063V.3h1.506v1.79h4.521v1.5H64.434V4.4h3.913v6.145H65.67a11.182,11.182,0,0,0,1.165,1.7,7.492,7.492,0,0,0,1.994,1.694l.093.055-.851,1.634-.105-.073a9.574,9.574,0,0,1-2.218-2.219,12.953,12.953,0,0,1-1.315-2.21v5.063ZM58.473,7.268a17.838,17.838,0,0,1,.743,2.949V4.4h3.711V3.588H59.014l0,.018A21.941,21.941,0,0,1,56.194,8.56a12.246,12.246,0,0,1-.758,1.009,20.528,20.528,0,0,0,2.139-.52c-.116-.484-.241-.95-.377-1.388l-.032-.11,1.269-.388ZM64.434,9.08h2.337V6.825a17.258,17.258,0,0,1-.935,2.027l-.046.082-1.3-.429.073-.123a10.611,10.611,0,0,0,1.069-2.287l.032-.1,1.108.279V5.848H64.434Zm-3.644,0h2.137V8.263l-1.163.7-.046-.132a9.145,9.145,0,0,0-.927-1.972Zm1.06-3.063a10.682,10.682,0,0,1,1.077,2.091V5.848H60.79v.726l1-.648ZM49.022,16.193V.726H50.6V16.193Zm-24.089,0v-4.15H22.64l1,1.187-.073.073a9.066,9.066,0,0,1-2.085,1.479A16.309,16.309,0,0,1,18.923,15.9l-.095.032-.686-1.552.12-.037a13.653,13.653,0,0,0,2.443-1A9.783,9.783,0,0,0,22.544,12.1l.064-.055H18.185v-1.4h6.747V9.728h-5.8V8.263h5.8V7.345H18.5V5.9h3.456a6.334,6.334,0,0,0-.52-.625l-.091-.1,1.019-.689H18.253V3.04h2.829l-.054-.11A6.648,6.648,0,0,0,19.9,1.306l-.091-.1,1.256-.8.059.068a7.223,7.223,0,0,1,1.231,1.671l.052.1-1.326.8h2.166V.3H24.8V3.04h1.8V.3h1.569V3.04H30.04L28.825,1.972l.114-.082A6.766,6.766,0,0,0,30.42.484L30.483.4l1.333.867-.073.1A7.575,7.575,0,0,1,30.168,3.04h3.268V4.488H28.428l1.49.5-.052.114a7.533,7.533,0,0,1-.425.794h3.47V7.345H26.569v.918h5.6V9.728h-5.6v.913h6.949v1.4H26.569v4.15ZM23.791,5.9h3.82c.055-.1.111-.2.164-.31a7.972,7.972,0,0,0,.465-1.045l.023-.055h-5.6A8.934,8.934,0,0,1,23.791,5.9Zm29.445,9.628.034-.1a16.316,16.316,0,0,0,.82-3.648l.014-.128,1.347.306-.005.1a15.38,15.38,0,0,1-.8,3.99l-.036.119Zm61.959.53a2.77,2.77,0,0,1-.951-.137c-.743-.037-1.117-.58-1.117-1.625V.3h1.656V6.017H121.6V7.688h-6.812v5.994c0,.228.029.607.211.616l.027,0,.027.014a1.578,1.578,0,0,0,.7.087,23.843,23.843,0,0,0,2.684-.068v-.027l.1-.009a3.833,3.833,0,0,0,1.019-.2l.02,0c.139-.023.482-.333.647-2.739l.009-.155,1.708.726-.009.082a7.562,7.562,0,0,1-.951,3.355l-.007.009-.014.009a2.591,2.591,0,0,1-1.321.447,34.732,34.732,0,0,1-3.888.224Zm-83.341-.11A19.842,19.842,0,0,0,27.9,13.39l-.123-.059,1-1.287.082.041a26.19,26.19,0,0,1,4.214,2.474l.1.073-1.231,1.383ZM56.166,15.4a12.043,12.043,0,0,0-.45-3.438l-.038-.119,1.279-.247.03.091a10.5,10.5,0,0,1,.616,3.575v.1l-1.438.16Zm-10.248-.771V1.543h1.574V14.627ZM36.188,8.98V7.464h5.484V8.98ZM169.032,7.738l.055-.1a22.135,22.135,0,0,0,1.944-4.465l.036-.114,1.644.566-.032.105A23.86,23.86,0,0,1,170.7,8.5l-.057.091Zm-6.565.74a20.778,20.778,0,0,0-1.932-4.4l-.064-.1,1.54-.708.048.087a23.191,23.191,0,0,1,2.1,4.442l.032.1-1.694.7Zm-60.127.009V6.939H90.2V8.487h-1.49V5.693h1L89.585,1,89.69.982a17.674,17.674,0,0,0,3.8-.808l.089-.032.495.849.652-.776L94.8.242c.55.219,1.09.452,1.6.694A10.355,10.355,0,0,0,97.592.073L97.677,0l.681.854-.082.073c-.238.2-.475.393-.713.575.32.169.645.347.965.534l.122.068-.854.922-.016-.014.511.63-.082.073c-.234.2-.475.388-.722.571.352.169.7.342,1.036.52l.091.046V3.976H101.3l.023-.456H98.614V2.292H101.4l.018-.456H98.546V.507h4.428l-.252,5.186h1.106V8.487ZM97.9,5.693h3.311l.027-.525H98.614V4.917Zm-.091,0-.016-.009c-.443-.26-.906-.511-1.376-.74a9.609,9.609,0,0,1-1.826.749H97.81Zm-6.665,0H94.5l-.654-.982.143-.05c.338-.114.67-.233.976-.356-.323-.137-.647-.26-.976-.365l-.155-.05.688-.867.073.023a17.471,17.471,0,0,1,1.63.644A10.508,10.508,0,0,0,97.445,2.8c-.332-.205-.684-.4-1.045-.58a13.026,13.026,0,0,1-2.026.831l-.082.027-.575-.94.13-.046c.445-.16.868-.324,1.256-.493-.282-.123-.579-.242-.876-.356l.023.046-.129.046a15.176,15.176,0,0,1-3.022.721l.009.3h2.6V3.52h-2.6l.014.525H93.71V5.236H91.145Zm99.139,2.132c-.334-.488-.7-.986-1.1-1.475-3.913.5-7.889.84-11.824,1l-.091,0-.361-1.593.068-.046a23.266,23.266,0,0,0,5.707-5.5l.05-.068,1.626.648L184.28.9a19.22,19.22,0,0,1-3.753,4.154c-.188.16-.379.315-.566.466,2.689-.119,5.411-.292,8.109-.507-.493-.566-1.015-1.123-1.553-1.666l-.1-.1,1.351-.927.066.064a34.324,34.324,0,0,1,3.788,4.163l.063.078-1.328,1.3ZM36.188,6.446v-1.5h5.484v1.5ZM14.536,4.862a17.128,17.128,0,0,0-1-3.091l-.046-.1L14.7,1.082l.045.1A19.409,19.409,0,0,1,15.9,4.346l.027.1-1.363.543ZM35.445,3.743V2.155h2.346a9.654,9.654,0,0,0-.5-1.493L37.239.539,38.946.151l.038.082a12.882,12.882,0,0,1,.675,1.922h2.757V3.743Z" transform="translate(333.809 42.741)" fill="#1a202c" opacity="0.82"/><path d="M.5,13.439h-1V0h1Z" transform="translate(327.504 46.246)" fill="#1a202c" opacity="0.12"/><g transform="translate(22 20.268)"><g transform="translate(0 0)"><g clip-path="url(#b)"><g transform="translate(0 0)"><g transform="translate(0.031 0.031)"><path d="M42.241,21.5A20.742,20.742,0,1,1,21.5.758,20.742,20.742,0,0,1,42.241,21.5" fill="#fff"/><path d="M21.5,42.969a21.457,21.457,0,1,1,.03,0M21.5,1.516a20,20,0,1,1-.03,0" fill="#d1d1d0"/><path d="M7.338,10.765l-.243.061A.606.606,0,0,0,7,10.431a1.274,1.274,0,0,1,.182-.091h.091a.091.091,0,0,0,0,.061.819.819,0,0,1,.03.121.576.576,0,0,1,.03.243m2.4.273a.606.606,0,0,0-.3-.121l.243-.3a.212.212,0,0,0,.061-.121,1.014,1.014,0,0,0-.243-.394l-.455.516a.879.879,0,0,1,.152.606,2.244,2.244,0,0,1-.364.849.7.7,0,0,0-.182-.03.94.94,0,0,0-.182,0,2.335,2.335,0,0,0,.334-.667.606.606,0,0,0,0-.455l-.485.546L8.1,11.281l-.152.182L7.52,11.1l.03-.03a.728.728,0,0,0-.212,0,1.092,1.092,0,0,0,.121-.425.485.485,0,0,0-.061-.3,1.759,1.759,0,0,0-.273-.273l.212-.243a1.819,1.819,0,0,1,.334.364l.485-.152v.3a3.608,3.608,0,0,0-.394.121.849.849,0,0,1-.061.455l.364-.455.394-.425a.667.667,0,0,0-.273,0,1.061,1.061,0,0,0,.152-.394.485.485,0,0,0-.091-.3,1.637,1.637,0,0,0-.243-.273l.212-.243a1.759,1.759,0,0,1,.3.364l.667-.243v.243L9.279,9.1l.425.364-.182.182.091.061a5.155,5.155,0,0,1,.394.455.516.516,0,0,1,.121.243.455.455,0,0,1-.121.3l-.3.3m-1.819-1-.182.121a1.971,1.971,0,0,0-.121-.364,2.213,2.213,0,0,1,.212-.091l.091-.03a.061.061,0,0,0,0,.061v.273a.212.212,0,0,0,0,.03m.3-.243-.212.091a.576.576,0,0,0-.121-.425l.182-.091h.091a.061.061,0,0,0,0,.061.91.91,0,0,1,.061.121.516.516,0,0,1,0,.243m0,1.425.394-.516-.152-.152-.243.243-.212.243Zm.606-2.183L8.582,9.1a1.516,1.516,0,0,0-.091-.364A1.668,1.668,0,0,1,8.7,8.612h.091a.091.091,0,0,0,0,.061v.3m-.243.94.273-.3.273-.3-.455.152a.97.97,0,0,1-.091.455m.3.455.3-.3.3-.364-.212-.152-.576.667.182.152M12.13,8.855a.91.91,0,0,0-.3-.03l-.94.819-.212-.182.485-.425-.091-.121-.212.152-.212.182a.425.425,0,0,1-.091-.091.394.394,0,0,1-.061-.121l.212-.152.212-.152-.061-.091-.425.3-.243-.3-.273-.364.425-.3-.061-.091-.243.182-.243.182L9.7,8.157a.425.425,0,0,1-.061-.121l.243-.182.273-.182-.091-.091-.394.334a.879.879,0,0,0-.212-.121,10.067,10.067,0,0,0,1-.91l.3.091-.425.394.061.121.485-.364.091.121.243-.182-.334-.455.273-.212.334.455.516-.364.091.121.637.97a1.061,1.061,0,0,1,.212.425.3.3,0,0,1-.03.152.607.607,0,0,1-.091.121,2.547,2.547,0,0,1-.3.243.667.667,0,0,0-.3-.182l.3-.182a.121.121,0,0,0,.03-.091.788.788,0,0,0-.152-.334l-.546-.788-.212.152a3.427,3.427,0,0,1,.455.91,1.486,1.486,0,0,1,0,.879M10.34,8.369l.182-.152-.061-.091-.121.061-.091.091Zm.182.273.182-.152-.061-.121-.091.091-.121.061Zm.879.182.425-.334a1.365,1.365,0,0,0-.091-.546,3.245,3.245,0,0,0-.334-.606l-.243.182-.121-.182-.485.364.061.091.455-.334.243.334.273.334-.455.334.061.091.243-.152.212-.182.091.091a.364.364,0,0,1,.061.121l-.243.152-.212.152ZM10.8,8.036l.182-.152-.061-.091-.091.061-.121.061Zm.182.243.091-.061.121-.091L11.1,8.036l-.182.152Zm1.85-2.365a.576.576,0,0,1-.091-.121.485.485,0,0,1-.03-.152l.243-.121.273-.121-.061-.091L13.1,5.185a2.214,2.214,0,0,1,.243-.121h.152a.152.152,0,0,0,0,.091l.061.091.243-.121L14.07,5a.516.516,0,0,1,.061.152.576.576,0,0,1,.061.121l-.334.152-.364.152-.3.182-.364.152m.273.758a.667.667,0,0,1-.091-.152.515.515,0,0,1-.061-.152,1.4,1.4,0,0,0,.182-.061l.152-.091a1.456,1.456,0,0,0-.273-.3l.273-.182a1.183,1.183,0,0,1,.273.3l-.243.182.758-.364-.273.061a1.971,1.971,0,0,0-.061-.425,1.486,1.486,0,0,1,.273-.03h.121a.091.091,0,0,1,0,.061.182.182,0,0,0-.03.121v.212l.152-.061L14.4,5.7a.606.606,0,0,1,.091.121.667.667,0,0,1,.061.152,3.639,3.639,0,0,0-.364.182l-.364.152-.364.182-.364.182m.819.97a.667.667,0,0,1-.182.091,4.912,4.912,0,0,0-.182-.516l-.121-.243-.121-.243a2.972,2.972,0,0,0,.3-.121l.3-.152.3-.121.273-.152.121.243.091.243a4.276,4.276,0,0,0,.243.485.728.728,0,0,1-.182.091l-.152.061a.394.394,0,0,0-.03-.061l-.03-.061-.516.243V7.49a.273.273,0,0,0,.03.061.224.224,0,0,1-.152.091m0-.455.243-.121.3-.121-.182-.334-.516.243ZM15.314,7a.788.788,0,0,1-.182.061,5,5,0,0,0-.243-.546l-.243-.546L14.4,5.428a5.186,5.186,0,0,0-.3-.546l.03-.03.394-.182.425-.182h.334V5.4a.879.879,0,0,1,.576.455.455.455,0,0,1,0,.425.516.516,0,0,1-.152.152,1.638,1.638,0,0,1-.212.121A.667.667,0,0,0,15.4,6.4a.606.606,0,0,0-.152-.121,1.668,1.668,0,0,0,.182-.061.394.394,0,0,0,.091-.061V5.943a.758.758,0,0,0-.546-.364l-.03-.637V4.852L14.586,5l.546,1.152a7.1,7.1,0,0,0,.394.758A.879.879,0,0,1,15.314,7m1.122-2.547L16.193,4.4A.606.606,0,0,0,16.345,4a1.3,1.3,0,0,1,.212,0l.091.061h-.03a.091.091,0,0,0,0,.061.7.7,0,0,1-.061.121.546.546,0,0,1-.121.212M18.194,6.1a.576.576,0,0,0-.182-.3l.394-.061a.243.243,0,0,0,.121-.061.91.91,0,0,0,0-.455l-.637.121a.849.849,0,0,1-.243.576,2.244,2.244,0,0,1-.788.485.7.7,0,0,0-.121-.152,1.031,1.031,0,0,0-.152-.091,2.3,2.3,0,0,0,.667-.334.606.606,0,0,0,.212-.394l-.7.182-.061-.273L16.5,5.4l-.121-.546h.061a.7.7,0,0,0-.182-.152,1.061,1.061,0,0,0,.334-.243.485.485,0,0,0,.121-.3,1.759,1.759,0,0,0-.03-.364l.3-.061a1.82,1.82,0,0,1,.061.485l.455.152-.182.243a3.427,3.427,0,0,0-.364-.121.849.849,0,0,1-.3.3l.546-.121.576-.121a.637.637,0,0,0-.212-.152,1.061,1.061,0,0,0,.334-.273.485.485,0,0,0,.121-.273,1.547,1.547,0,0,0-.03-.364l.3-.061a1.82,1.82,0,0,1,.061.485l.637.212-.121.182.121-.03.121.516-.243.061v.121a5.277,5.277,0,0,1,.061.576.515.515,0,0,1-.03.273.455.455,0,0,1-.273.152l-.425.121M16.86,5.276l.606-.121V4.912l-.334.061-.334.061Zm.455-1.092H17.1a1.91,1.91,0,0,0,.091-.364,2.183,2.183,0,0,1,.243,0c.061.03.121.03.091.061a.061.061,0,0,0-.061.03v.061l-.061.061-.061.121a.182.182,0,0,0,0,.03m.364,0-.243-.091a.606.606,0,0,0,.182-.394l.182.03.091.03a.03.03,0,0,1,0,.03.061.061,0,0,0-.061.061.971.971,0,0,1,0,.121.515.515,0,0,1-.152.182m.152.91.455-.121.425-.091-.061-.243-.849.212.03.243m.03-.546.425-.091.394-.091-.455-.152a.97.97,0,0,1-.364.3m.758-.606h-.243a1.516,1.516,0,0,0,.152-.364,2.092,2.092,0,0,1,.243,0l.091.061a.061.061,0,0,0-.061.061l-.061.061a.182.182,0,0,0,0,.03l-.091.152a.3.3,0,0,0,0,.03m2.759,1.85a.94.94,0,0,0-.243-.212l-1.213.121-.061-.3h.637V5.155h-.546a.334.334,0,0,1,0-.121.394.394,0,0,1,0-.121h.546V4.791h-.546V3.942h.546V3.851h-.606a.394.394,0,0,1,0-.121.364.364,0,0,1,0-.121h.606V3.487l-.516.03a.849.849,0,0,0-.091-.243,10.219,10.219,0,0,0,1.334-.121l.182.243-.576.061v.152H21.5V3.76h.3V3.154h.334V3.76h.606V5.155a1.031,1.031,0,0,1-.121.425A.3.3,0,0,1,22.5,5.7a.546.546,0,0,1-.121.03,2.547,2.547,0,0,1-.394,0,.667.667,0,0,0-.121-.3h.3a.121.121,0,0,0,.121-.03.758.758,0,0,0,.091-.334l.03-.97h-.3a3.457,3.457,0,0,1-.152.97,1.456,1.456,0,0,1-.516.7M20.317,4.306h.243V4.185h-.243Zm0,.3h.243V4.549h-.243Zm.606.7h.516a1.365,1.365,0,0,0,.243-.546,3.214,3.214,0,0,0,.091-.667h-.3V3.881h-.546v.091h.546v.879h-.546v.121H21.5a.394.394,0,0,1,0,.121.425.425,0,0,1,0,.121h-.576Zm-.03-1h.243V4.185h-.212Zm0,.3h.243V4.549h-.212Zm2.669,1.243a.788.788,0,0,0-.091-.152,1.213,1.213,0,0,0-.152-.152,1.85,1.85,0,0,0,.91-.516,1.728,1.728,0,0,0,.394-.667l-.455-.091-.455-.091a.91.91,0,0,1,0-.182.789.789,0,0,1,.061-.182l.455.121.485.091.061-.3a2.487,2.487,0,0,0,.03-.273l.3.061.182.061a.516.516,0,0,0-.152.273l-.03.243.606.152.606.121-.03.152-.334,1.152a.91.91,0,0,1-.273.425.394.394,0,0,1-.152.061.606.606,0,0,1-.182,0,3.336,3.336,0,0,1-.485-.091.758.758,0,0,0,0-.152.728.728,0,0,0-.061-.182l.455.091a.212.212,0,0,0,.152,0,3.261,3.261,0,0,0,.455-1.213l-.849-.182a2.123,2.123,0,0,1-.425.819,2.032,2.032,0,0,1-1.031.606m3.336.819a.546.546,0,0,0,0-.3l.334.152a.212.212,0,0,0,.121,0c.061,0,.121-.091.212-.273L27.2,6.1l-.03.061L26.9,6a5.246,5.246,0,0,0,.425-.576l.546.243.061-.182-.455-.212-.243-.03a1.273,1.273,0,0,0-.091-.3,2.123,2.123,0,0,0,.576,0L27.5,4.7l.3-.091a2.3,2.3,0,0,1,.212.3,1.3,1.3,0,0,0,.243-.091l-.3-.121-.3-.121a.455.455,0,0,1,.061-.121.394.394,0,0,1,.091-.121,1.819,1.819,0,0,0,.182.091l.182.091.364.152H28.6l.182.182a1.668,1.668,0,0,1-.819.364l.364.182-.212.485a.455.455,0,0,0,.243-.091.425.425,0,0,0,.121-.152l.061-.182.576.243a1.941,1.941,0,0,1-.3-.91l.3.03a1.4,1.4,0,0,0,.061.3,2.335,2.335,0,0,0,.364-.091,1,1,0,0,1,.121.212v.091a.091.091,0,0,1-.061,0,.182.182,0,0,0-.091,0l-.182.03h-.061l.121.182a2.426,2.426,0,0,0,.425-.121,1.031,1.031,0,0,1,.091.212c.03.061.03.121,0,.121a.121.121,0,0,1-.03,0,.182.182,0,0,0-.121,0h-.212a2.244,2.244,0,0,0,.334.3,1.3,1.3,0,0,0-.3.182,2.789,2.789,0,0,1-.273-.273l-.091.243a.212.212,0,0,0,0,.061l.061.03h.03a.061.061,0,0,0,.03,0,1.031,1.031,0,0,0,.061-.091.758.758,0,0,0,.212.212.455.455,0,0,1-.121.121.182.182,0,0,1-.152.03.455.455,0,0,1-.121-.03l-.152-.061a.3.3,0,0,1-.182-.152.182.182,0,0,1,0-.091.7.7,0,0,1,.061-.152l.061-.152-.273-.121a.606.606,0,0,1-.516.364,1.061,1.061,0,0,0-.121-.243V6l-.03.061A.516.516,0,0,1,27.9,6l-.152-.091-.3-.152q-.043.077-.091.152l.606.273v.091a3.73,3.73,0,0,1-.243.394.374.374,0,0,1-.455.152L26.9,6.641m.819.394a.91.91,0,0,0-.03-.3,2.365,2.365,0,0,0,.546.091,1.274,1.274,0,0,1-.121-.364h.212l-.121-.03-.152-.061a.3.3,0,0,1,.03-.121l.061-.091.212.121.243.091.455.212h.061l.152.152a1.183,1.183,0,0,1-.516.3,2.335,2.335,0,0,0,.425.334,1.031,1.031,0,0,0-.3.182,2.123,2.123,0,0,1-.455-.455,2.487,2.487,0,0,1-.7-.061m.819-.212a.91.91,0,0,0,.3-.121L28.6,6.611l-.182-.091a.91.91,0,0,0,.121.3m1.243,1.243a1.152,1.152,0,0,0-.061-.182,1.274,1.274,0,0,0-.121-.152,1.729,1.729,0,0,0,.667-.425,4.549,4.549,0,0,0,.485-.606l.243-.3a3.579,3.579,0,0,0,.212-.334h.03l.485.334.485.364.485.364q.234.193.485.364a2.76,2.76,0,0,0-.212.3l-.243.3-.3-.273-.121.152.182.152.182.121a.455.455,0,0,1-.091.121.516.516,0,0,1-.091.091q-.088-.065-.182-.121l-.182-.152-.091.152.243.182.243.152a.625.625,0,0,1-.182.243,1.031,1.031,0,0,0-.121-.091l-.152-.091.121.243a3.7,3.7,0,0,1-.455-.061,1.941,1.941,0,0,0,.3.455.97.97,0,0,0-.3.091,1.637,1.637,0,0,1-.425-.819l-.121.182-.667-.364-.364-.182.121-.3.3.182.243-.334L30.658,7.7l-.121-.061A.485.485,0,0,1,30.6,7.49l.091-.091.212.152.182.121L31.2,7.52,31.021,7.4q-.074-.049-.152-.091a.455.455,0,0,1,.091-.121l.091-.121a1.517,1.517,0,0,0,.152.121l.152.121.121-.152-.394-.273-.03.061a2.978,2.978,0,0,1-1.274,1.122m1.061.273.121.061.091.03.243.121a1.516,1.516,0,0,1,0-.364l-.212-.182Zm.425-1.668,1.334.97.091-.182L32.022,7l-.667-.485Zm.091,1.213.364.273.121-.152-.182-.152-.182-.121Zm.243.758a3.457,3.457,0,0,0,.364,0l-.182-.121-.212-.152a1.122,1.122,0,0,0,.03.273m.03-1.122.364.273.121-.152-.182-.152-.182-.121Zm1.152,3a.606.606,0,0,1-.121-.152,3.093,3.093,0,0,0,.243-.212l.243-.212-.425-.3a1.092,1.092,0,0,0,.061-.121,1,1,0,0,0,.03-.182,7.156,7.156,0,0,0,1.092.7l-.394-.425-.394-.425a.989.989,0,0,1,.212-.182l.3.394.334.364.121-.091L33.842,9.4l-.273-.273.091-.091a.425.425,0,0,1,.091-.061l.243.3.243.243.091-.061-.546-.606.243-.212a2.638,2.638,0,0,0,.212-.243h.03l.394.455.394.455.788.91-.212.182a2.7,2.7,0,0,0-.243.243l-.425-.455L34.569,9.7l-.091.061.455.516-.091.091a2.517,2.517,0,0,0,.364.061,1.122,1.122,0,0,1,0,.243V10.8a.091.091,0,0,1-.061-.03.182.182,0,0,0-.091-.061l-.243-.03.182.182.182.182-.091.091a.425.425,0,0,1-.121.091l-.243-.3-.243-.273a1.789,1.789,0,0,1,.152.364h-.121l.121.121-.334.3a4.094,4.094,0,0,0-.334.394.788.788,0,0,1-.152-.152l-.121-.152.03-.03-.758-.849v.03h-.03l-.152-.121m.364-.061.758.849.091-.061-.394-.425-.394-.425Zm.212-.182.394.394.364.425.091-.061-.758-.849Zm.546.061.212.243.212.243a2.909,2.909,0,0,0-.121-.273h.182l-.485-.212m.3-1.395L34.3,9.1l.091.121.152-.121-.212-.243Zm0,1.092.243.243a2.516,2.516,0,0,0,.243.091l-.182-.212-.182-.212Zm.425-.606.212.273.152-.121-.121-.121-.121-.152Zm.455.516.212.243.152-.121-.121-.121-.121-.121ZM6.793,14.434,5.276,13.373l.212-.364,2.123.606-.121.3L5.853,13.4l1.395,1-.212.394L5.4,14.313l1.395,1-.152.3-1.789-1.3.182-.394Zm-.364,1.941c-.121.394-.576.637-1.3.394s-.94-.7-.819-1.092.546-.606,1.3-.364.91.7.819,1.092M4.609,15.8c-.091.212.061.425.606.606s.849.121.91-.091-.061-.455-.606-.637-.849-.091-.91.121m1.456,1.577-.121.606a.516.516,0,0,1-.667.425.485.485,0,0,1-.425-.516c-.03.061-.091.121-.3.152L3.7,18.1l.061-.364.758-.03a.266.266,0,0,0,.273-.212v-.091l-.91-.212.091-.334Zm-1,.273a.3.3,0,0,0,.243.394c.243.03.334-.061.364-.243l.03-.152L5.094,17.5Zm.7,1.274-.03.334-.91-.121.819.667-.03.425-.94-.788-1.213.546.03-.425,1.092-.425-1.031-.152.061-.334ZM5.61,20.469l-.03,1h-.3v-.637L4.67,20.8v.606H4.336V20.8l-.91-.061v-.334Zm.03,1.941c0,.394-.3.788-1.092.819s-1.152-.3-1.152-.7.3-.788,1.061-.819,1.152.3,1.183.7M3.7,22.531c0,.212.243.394.819.334s.819-.212.819-.455-.243-.364-.849-.334-.819.212-.788.455m1.971.91.091.606a.516.516,0,0,1-.455.667.485.485,0,0,1-.606-.3c0,.061,0,.152-.212.243l-.788.394-.03-.394.667-.3a.243.243,0,0,0,.182-.3v-.061l-.94.152-.061-.364Zm-.819.637a.3.3,0,0,0,.364.273.28.28,0,0,0,.273-.364v-.152l-.667.091Zm-.667,2.608A.97.97,0,0,1,4,26.321c-.152-.606.243-1,.849-1.152s1.152,0,1.3.576a1.092,1.092,0,0,1,0,.425l-.3.061a.7.7,0,0,0,0-.364c-.061-.3-.364-.485-.91-.334s-.7.455-.606.728a.546.546,0,0,0,.182.3Zm2.183-.212.334.94-.3.121-.212-.606-.546.182.212.576-.3.091L5.337,27.2l-.606.212.212.667-.3.091-.334-.97Zm.758,1.91.243.455c.3.516.091.97-.546,1.334a.948.948,0,0,1-1.395-.3l-.243-.455ZM5.61,29.6l.091.091c.182.364.516.364.94.152s.606-.546.425-.91l-.03-.091Zm2.335.3.576.819-.273.182-.364-.546-.485.334.364.516-.3.182-.3-.516-.546.364L7,31.779l-.3.182-.546-.849Zm.7,1.031.243.273L7.793,32.568,9.37,31.81l.243.3-2.092.91-.212-.3Zm1.092,1.3.7.728-.212.212-.455-.485-.425.425.425.455-.243.212L9.1,33.326l-.455.455.455.485-.243.212-.728-.728Zm.94.94.273.243L9.734,34.812l.455.425-.212.243-.728-.667Zm1.547,1.213c.334.243.425.728,0,1.365s-.97.7-1.3.455-.425-.728,0-1.365.97-.7,1.3-.455M11.1,35.964c.182.121.455.061.788-.425s.334-.758.152-.91-.455-.061-.788.425-.334.788-.152.91m1.941-.97.516.3a.667.667,0,0,1-.667,1.122l-.182-.091-.425.758-.3-.182Zm-.061,1.152a.327.327,0,0,0,.455-.152.321.321,0,0,0-.091-.485l-.121-.061-.364.606Zm2.547.516-1.183,1.456-.243-.091.3-1.85-.728,1.668-.3-.152.91-1.971.485.212-.3,1.637L15.5,36.237l.485.212-.91,2-.3-.121Zm.819-.091.97.3-.091.3-.637-.212-.182.576.606.182-.091.3-.606-.182-.182.606.667.212-.121.3-.97-.3Zm1.3.394.394.061.3,1.819.334-1.7.3.061-.394,2.153-.425-.091-.3-1.789-.3,1.668-.334-.061Zm1.941.637h-.425l.03-.334,1.213.121-.03.3-.425-.03-.212,1.819h-.334Zm2.669,1.456h-.667l-.121.546h-.334l.576-2.214h.394l.667,2.183H22.44Zm-.061-.3-.3-1.031-.212,1.031Zm1.577-.546.606-.091.152,1.152a1.031,1.031,0,0,1-.516.182c-.606.061-.97-.364-1.061-1s.182-1.152.788-1.213a1.122,1.122,0,0,1,.485,0V37.6a.788.788,0,0,0-.425-.061c-.394.03-.546.394-.485.849.061.485.3.788.667.728a.515.515,0,0,0,.182-.061l-.061-.606-.3.061Zm.849-1.092,1-.243.061.3-.637.152.121.576.606-.152.061.3-.606.152.152.606.667-.121.091.3-1.031.243Zm1.334-.3.394-.152L27.5,38.087l-.546-1.637.3-.091.7,2.062-.394.121-1.152-1.395.516,1.607-.3.121Zm3.669.788a.94.94,0,0,1-.364.273c-.516.243-1-.091-1.274-.667s-.182-1.122.334-1.365a1.122,1.122,0,0,1,.425-.091l.152.3a.667.667,0,0,0-.394.061c-.273.121-.394.425-.152.94s.546.606.819.485a.546.546,0,0,0,.273-.243Zm.334-1.122-1.152-.849.334-.182.758.576-.121-.91.334-.212.152,1.425.455.758-.3.152Zm1.274-.212.212.788-.212.121-.3-.728Zm1.3-2.82.819,1.728-.212.152-1.516-1.092,1.183,1.395-.243.212-1.456-1.668.425-.334,1.365.97L32.143,33.3l.394-.3,1.425,1.637-.243.212Zm.243-.728.243-.273L34.6,33.963l-.243.243Zm.576-.576.243-.3,1.728.576-1.3-1.092.182-.243,1.7,1.365-.3.334-1.7-.606v.03l1.3,1.092-.182.243Zm1.061-1.395.212-.3,1.819,1.274-.243.3Zm1.971.3a.728.728,0,0,0,.3-.3.3.3,0,0,0-.121-.394c-.121-.091-.243-.061-.394.03l-.212.091a.617.617,0,0,1-.849-.849,1.122,1.122,0,0,1,.3-.3l.273.182a.849.849,0,0,0-.3.273.243.243,0,0,0,.091.364.3.3,0,0,0,.364-.03l.212-.121a.667.667,0,0,1,.91.94.788.788,0,0,1-.3.3Zm-.394-2.244-.182.394-.3-.152.546-1.061.3.121-.212.394,1.668.819-.152.3Zm.121-1.031.243-.546a.515.515,0,0,1,.728-.334.485.485,0,0,1,.334.516c.061-.061.121-.121.334-.091l.879.061-.152.334-.728-.061a.243.243,0,0,0-.3.152l-.03.091.879.3-.121.364Zm1.092-.121A.3.3,0,0,0,37,27.231c-.243-.091-.3,0-.394.182l-.061.152.606.212ZM38,26.473l-1.425.182.091-.364.97-.121-.758-.606L37,25.23l1.092.91.849.243-.121.334Zm-.758-2.881c.061-.394.425-.7,1.213-.606s1.061.516,1,.91-.425.728-1.213.606-1.061-.516-1-.91m1.91.273c.03-.212-.152-.425-.758-.516s-.819.061-.849.3.152.425.758.516.819-.091.849-.3m-1.759-1.334v-.97h.334v.606l.606.061v-.606h.3v.606l.94.03v.364Zm0-2v-.364l1.819-.152-.061-.637.3-.03.121.97Zm1.334-2.487.121.637.546.061.061.334-2.244-.243-.091-.394,2.032-.97.091.334Zm-.3.121-.91.425,1.031.091Zm-1.456-.516-.152-.546a.475.475,0,0,1,.364-.7.485.485,0,0,1,.546.182.485.485,0,0,1,.425-.485.576.576,0,0,1,.758.394l.152.576Zm.788-.576-.061-.182a.3.3,0,0,0-.394-.152.273.273,0,0,0-.212.334l.061.182Zm.91-.243-.061-.212A.334.334,0,0,0,38,16.83l.03.182Zm-2.4-1.243c-.152-.364,0-.849.728-1.122s1.213-.091,1.334.3,0,.819-.758,1.092-1.183.091-1.3-.3m1.789-.7c-.091-.212-.364-.3-.91-.061s-.7.455-.606.667.334.3.91.061.667-.455.606-.667m-2.214-.273-.273-.516a.516.516,0,0,1,.243-.788.485.485,0,0,1,.606.091h.03a.429.429,0,0,1,.121-.3l.606-.606.182.3-.516.516a.243.243,0,0,0-.091.334l.03.091.849-.455.152.3Zm.606-.879a.3.3,0,0,0-.425-.121.273.273,0,0,0-.121.425l.061.121.576-.3Z" fill="#474746"/><g style="mix-blend-mode:multiply;isolation:isolate"><path d="M35.54,21.5a14.151,14.151,0,1,0,0,.03" fill="#ffb900"/></g></g><g transform="translate(0.031 0.031)"><path d="M20.044,35.479a14.19,14.19,0,0,0,1.456.061,14.039,14.039,0,0,0,12.675-8L27.2,8.673A14.01,14.01,0,0,0,11.311,11.8Z" fill="#86c9cf"/><path d="M21.5,35.54A14.04,14.04,0,0,0,29.475,9.946a22.864,22.864,0,0,1-2.638,7.52c-4.973,9.279-6,15.01-6.065,18.043l.728.03" fill="#86c9cf"/><path d="M21.5,35.54a14.039,14.039,0,0,0,12.675-8l-5.4-14.587A26.655,26.655,0,0,1,26.837,17.5c-5,9.218-6,14.95-6.065,17.982l.728.03" fill="#59b5ad"/><path d="M25.654,8.066a14.04,14.04,0,0,0-9.7,26.321Z" fill="#dddddc"/><path d="M8.764,17.467a5.828,5.828,0,0,1-.425-.879,14.01,14.01,0,0,0,6.368,17.194c-.394-3.275-1.789-8.551-5.943-16.314" fill="#e85620"/></g><g transform="translate(0.031 0.031)"><path d="M10.765,28.808H17.5s7.884-9.158,10.522-18.043a46.911,46.911,0,0,1-11.978,8.157,33.356,33.356,0,0,0,5.246-.273c-2.4,3.214-6.641,7-10.522,10.189" fill="#fff"/><path d="M11.553,20.5c1-1.243,4.245-1.152,7.49.334l.3.152.788-.91c-4-1.516-7.7-1.425-8.582.425" fill="#fff"/><path d="M27.777,27.292c-.121-2.638-2.881-4.579-4.912-5.853-3.821-2.426-10.28-3.487-11.311-.91,1.7-2.123,7.915-.121,10.492,2.183,4,3.275,1.061,6.58-3.427,4.731l-.516.637a13.494,13.494,0,0,0,2.972,1.243,10.371,10.371,0,0,0,2.4.394c1.7.091,4.154-.425,4.306-2.426" fill="#fff"/></g></g></g><path d="M0,0H17.918V17.918H0Z" fill="none" opacity="0"/><g transform="translate(1.495 1.494)"><path d="M6.913,3.7A5.213,5.213,0,0,0,3.464.246,2.971,2.971,0,0,0,.791.358,2.6,2.6,0,0,0,0,2.523V4.382c0,1.837.836,2.77,2.479,2.77H4.621A2.609,2.609,0,0,0,6.786,6.36,2.875,2.875,0,0,0,6.913,3.7Z" transform="translate(7.77 0)" fill="#499894"/><path d="M12.623,6.429a1.022,1.022,0,0,0-.769-.351H9.181A2.383,2.383,0,0,1,6.8,3.7V1.024A1.022,1.022,0,0,0,6.449.255a1.012,1.012,0,0,0-.8-.246A6.52,6.52,0,0,0,1.23,2.644a6.445,6.445,0,0,0,4,10.116,6.261,6.261,0,0,0,1.232.119,6.345,6.345,0,0,0,3.77-1.232,6.52,6.52,0,0,0,2.635-4.42A1,1,0,0,0,12.623,6.429Z" transform="translate(0 2.052)" fill="#a3ccc9"/></g></g><g transform="translate(50.171 6.211)"><path d="M979.156,36.61h1.82a24.63,24.63,0,0,1-.167,3.091,11.612,11.612,0,0,0,2.684-1.749l1.15,1.462a18.352,18.352,0,0,1-3.594,2.036,23.843,23.843,0,0,1,3.5,2.634l-1.274,1.557a25.468,25.468,0,0,0-3.494-2.9,9.226,9.226,0,0,1-3.688,2.994L974.845,44.4a7.9,7.9,0,0,0,3.278-2.467Q979.156,40.634,979.156,36.61Zm10.348,0h1.821a24.057,24.057,0,0,1-.167,3.068,10.752,10.752,0,0,0,2.876-1.918l1.15,1.462a18.525,18.525,0,0,1-3.929,2.275A23.8,23.8,0,0,1,994.99,44.2l-1.246,1.533a25.368,25.368,0,0,0-3.714-2.922,9.2,9.2,0,0,1-3.592,2.83L985.193,44.3a7.741,7.741,0,0,0,3.282-2.444q1.03-1.273,1.03-5.249Zm6.25,9.294v4.624h-2.008v-2.78H976.4v2.588h-2.013V45.9Zm-19.065,4.432h6.229a16.91,16.91,0,0,0,.36-2.228l2.011.311q-.12,1-.287,1.917h8.168Q993.051,56.2,992,57.667a2.878,2.878,0,0,1-2.371,1,30.567,30.567,0,0,1-3.736-.311l-.5-2.012a35.911,35.911,0,0,0,4.24.311.859.859,0,0,0,.815-.575,16.043,16.043,0,0,0,.431-4.048h-6.324a10.76,10.76,0,0,1-1.988,3.617,12.521,12.521,0,0,1-6.372,3.4l-.838-1.918a11.133,11.133,0,0,0,5.7-2.946,6.51,6.51,0,0,0,1.342-2.154h-5.7Zm-.694-12.384a14.357,14.357,0,0,1,1.821,3.066l-1.509.862a14.012,14.012,0,0,0-1.725-2.97Zm10.253-.1a15.139,15.139,0,0,1,1.844,3.066l-1.533.862a14.084,14.084,0,0,0-1.725-2.97Zm26.74-.742,1.125,1.509q-2.351.239-4.983.407v1.7h5.273v1.653h-5.27v1.342h4.719v7.543h-4.719v1.557h4.623v1.509h-4.623V55.8q2.708-.144,4.911-.287l.125,1.029a15.468,15.468,0,0,0,1.888-4.236,36.865,36.865,0,0,0,1.03-8.958h-2.372V41.521h2.392V36.705h1.92v4.816h4.575a123.116,123.116,0,0,1-.694,14.876,3.016,3.016,0,0,1-.881,1.845,2.678,2.678,0,0,1-1.774.623,12.62,12.62,0,0,1-2.471-.291l-.2-2.108a12.159,12.159,0,0,0,2.66.383.621.621,0,0,0,.575-.455,5.011,5.011,0,0,0,.36-1.821q.382-5.223.431-11.234H1019a38.367,38.367,0,0,1-1.274,10.157,13.927,13.927,0,0,1-3.018,5.461l-1.365-1.342a4.687,4.687,0,0,0,.5-.646q-5.219.626-11.59,1.034l-.312-1.917q2.875-.1,5.387-.215V54.337h-4.693V52.828h4.7V51.27h-4.7V43.729h4.7V42.387h-5.485V40.733h5.485V39.175q-2.036.144-4.241.24l-.742-1.461q5.318-.266,10.639-.842Zm-8.525,12.555h2.874V48.205h-2.874Zm4.671-1.461v1.461h2.875V48.205Zm-4.671-1.414h2.874v-1.44h-2.874Zm4.671-1.44v1.437h2.875V45.351Zm26.815-8.648a11.434,11.434,0,0,1,1.03,2.515h4.838v1.8h-2.706l1.748.6a23.468,23.468,0,0,1-.882,2.588q-.286.742-.575,1.342h2.682v1.917h-12.365V45.546h3.186a24.462,24.462,0,0,0-1.437-3.928l1.274-.6h-2.634v-1.8h4.647a9.2,9.2,0,0,0-.719-1.917Zm-1.006,8.843h2.323a17.129,17.129,0,0,0,.719-1.773,19.462,19.462,0,0,0,.839-2.755h-5.535A31.237,31.237,0,0,1,1034.941,45.546Zm5.724,3.833v8.983h-1.913V57.043h-5.778v1.53h-1.915V49.378Zm-7.691,5.819h5.778V51.174h-5.778Zm19-17.439-3.093,8.36a11.779,11.779,0,0,1,2.132,2.78,6.9,6.9,0,0,1,.862,3.133q-.047,3.861-3.473,3.86a14.123,14.123,0,0,1-2.011-.2l-.456-2.3a8.2,8.2,0,0,0,2.467.479q1.414,0,1.461-1.844a5.413,5.413,0,0,0-.671-2.493,8.939,8.939,0,0,0-2.4-2.946l2.35-6.923h-4v19.1h-2.014V37.76Zm11.076-1.15h1.821a24.958,24.958,0,0,1-.167,3.091,11.607,11.607,0,0,0,2.682-1.749l1.15,1.462a18.38,18.38,0,0,1-3.594,2.036,23.858,23.858,0,0,1,3.5,2.634l-1.273,1.557a25.491,25.491,0,0,0-3.5-2.9,9.22,9.22,0,0,1-3.688,2.994l-1.248-1.343a7.9,7.9,0,0,0,3.282-2.467q1.033-1.294,1.032-5.318Zm10.348,0h1.821a24.26,24.26,0,0,1-.167,3.068,10.751,10.751,0,0,0,2.875-1.918l1.15,1.462a18.549,18.549,0,0,1-3.928,2.275,23.741,23.741,0,0,1,3.736,2.707l-1.247,1.533a25.359,25.359,0,0,0-3.714-2.922,9.215,9.215,0,0,1-3.593,2.83l-1.246-1.342a7.742,7.742,0,0,0,3.282-2.444q1.029-1.273,1.029-5.249Zm6.252,9.294v4.624h-2.014v-2.78h-17.345v2.588h-2.011V45.9Zm-19.071,4.432h6.228a16.582,16.582,0,0,0,.359-2.228l2.013.311q-.121,1-.287,1.917h8.169q-.12,5.869-1.175,7.331a2.878,2.878,0,0,1-2.371,1,30.568,30.568,0,0,1-3.736-.311l-.5-2.012a35.915,35.915,0,0,0,4.24.311.859.859,0,0,0,.815-.575,16.057,16.057,0,0,0,.431-4.048h-6.324a10.744,10.744,0,0,1-1.989,3.617,12.515,12.515,0,0,1-6.372,3.4l-.838-1.918a11.133,11.133,0,0,0,5.7-2.946,6.53,6.53,0,0,0,1.343-2.154h-5.7Zm-.694-12.384a14.359,14.359,0,0,1,1.82,3.066l-1.509.862a14.024,14.024,0,0,0-1.724-2.97Zm10.253-.1a15.139,15.139,0,0,1,1.844,3.066l-1.533.862a14.057,14.057,0,0,0-1.727-2.967Zm26.74-.742L1098,38.621q-2.351.239-4.983.407v1.7h5.271v1.653h-5.268v1.342h4.72v7.543h-4.72v1.557h4.624v1.509h-4.624V55.8q2.707-.144,4.911-.287l.119,1.03a15.461,15.461,0,0,0,1.893-4.237,36.85,36.85,0,0,0,1.03-8.958h-2.371V41.521h2.4V36.705h1.917v4.816h4.575a123.33,123.33,0,0,1-.7,14.876,3.016,3.016,0,0,1-.881,1.845,2.676,2.676,0,0,1-1.773.623,12.657,12.657,0,0,1-2.468-.287l-.2-2.109a12.094,12.094,0,0,0,2.659.383.62.62,0,0,0,.575-.455,4.96,4.96,0,0,0,.36-1.821q.383-5.223.431-11.234h-2.611A38.389,38.389,0,0,1,1101.62,53.5a13.925,13.925,0,0,1-3.018,5.462l-1.365-1.342a4.711,4.711,0,0,0,.5-.647q-5.214.623-11.592,1.03l-.312-1.917q2.875-.1,5.387-.215V54.337h-4.695V52.828h4.695V51.27h-4.695V43.729h4.695V42.387h-5.484V40.733h5.484V39.175q-2.036.144-4.24.24l-.742-1.461q5.321-.266,10.638-.842Zm-8.526,12.555h2.875V48.205h-2.875Zm4.671-1.461v1.461h2.874V48.205Zm-4.671-1.414h2.875v-1.44h-2.875Zm4.672-1.44v1.437h2.875V45.351Zm22.234-3.666h7.712q.121-2.056.12-4.479h2.109q0,2.42-.12,4.479h9.054q0,10.708-.574,13.419a4.241,4.241,0,0,1-1.274,2.634,4.655,4.655,0,0,1-2.563.624,32.6,32.6,0,0,1-4.121-.265l-.495-2.3a31.127,31.127,0,0,0,4.624.359,1.523,1.523,0,0,0,1.294-.455,5.576,5.576,0,0,0,.5-2.18q.311-3.257.311-9.726h-6.9q-.549,6.373-2.3,8.888a19.123,19.123,0,0,1-6.826,6.181l-1.159-1.822a17.489,17.489,0,0,0,6.156-5.653q1.485-2.276,1.988-7.594h-7.542Zm42.245,3.959h-2.563a5.375,5.375,0,0,1-.862,2.922,4.192,4.192,0,0,1-2.253,1.557l-.862-1.7a3.607,3.607,0,0,0,1.629-1.1,7.349,7.349,0,0,0,.575-3.526h5.126a13.407,13.407,0,0,1-1.8-1.342,12.279,12.279,0,0,1-3.617-5.341l1.748-.5a8.073,8.073,0,0,0,1.267,2.473,13.121,13.121,0,0,0,3.043-2.467l1.221,1.461a17.206,17.206,0,0,1-3.066,2.323q.455.432.959.838a2.753,2.753,0,0,1,.215.2,13.131,13.131,0,0,0,3.257-2.8l1.249,1.43a18.357,18.357,0,0,1-2.851,2.444,21.093,21.093,0,0,0,4.1,1.7l-1.437,1.605a17.746,17.746,0,0,1-3.161-1.342v2.323q0,.671.575.671h2.588v1.7h-2.971q-2.108,0-2.107-1.7Zm-12.863,2.2h4.048V45.812h-3.546v-.167a15.769,15.769,0,0,1-2.778.958l-.958-1.844a14.7,14.7,0,0,0,4.072-1.461,19.089,19.089,0,0,0-2.443-2.276l1.246-1.342a17.072,17.072,0,0,1,2.923,2.468,9.916,9.916,0,0,0,2.467-3.02h-6.252V37.307h8.5v1.317a12.434,12.434,0,0,1-3.57,5.008c-.208.16-.407.311-.6.455h2.851v5.484h-4.839l-.479,1.822h5.582q-.623,5.221-1.633,6.3a2.923,2.923,0,0,1-2.3.882h-2.372l-.2-1.917a23.152,23.152,0,0,0,2.563.2,1.072,1.072,0,0,0,.966-.531,7.83,7.83,0,0,0,.862-3.233h-5.845l1.365-5.245Zm8.169,4.385h-1.054v-1.8h9.462v1.246a9.114,9.114,0,0,1-1.581,2.994,4.632,4.632,0,0,1-.479.5q1.724.98,3.331,2.036l-1.368,1.655q-1.725-1.246-3.526-2.323-.576.36-1.175.694a14.289,14.289,0,0,1-4.952,1.532l-.5-1.822a11.669,11.669,0,0,0,4.168-1.175,4.049,4.049,0,0,0,.6-.311q-2.011-1.125-4.072-2.056Zm4.6,1.988q.2-.216.383-.407a7.117,7.117,0,0,0,1.1-1.581h-5.773q2.223.929,4.283,1.984Zm30.456-15h-14.2v1.8h14.2Zm-14.2,3.618v2.419h4.212V43.345h1.917v1.917h4.309V43.345h1.917v1.917h4.121v1.793h-4.121v2.612h5.175v1.821h-13.681v5.244q2.155-.526,4.478-1.342l.311,1.748a38.023,38.023,0,0,1-6.251,1.822l-.838-1.748a.71.71,0,0,0,.383-.551V51.486h-2.18q-.121,1.1-.312,2.154a26.465,26.465,0,0,1-1.557,5.127l-1.917-1.054a34.154,34.154,0,0,0,1.605-5.485,40.457,40.457,0,0,0,.408-5.7V37.4h18.133v5.437Zm-.071,6.826h4.287V47.054h-4.212v.1q-.013,1.268-.084,2.514Zm6.2,0h4.31V47.054h-4.31Zm7.977,2.3,1.246,1.437a17.2,17.2,0,0,1-2.786,1.817,9.314,9.314,0,0,0,1.557.671,16.128,16.128,0,0,0,3.809.958l-.862,1.918A21.405,21.405,0,0,1,1186.6,57.5a9.625,9.625,0,0,1-2.971-1.8,9.13,9.13,0,0,1-2.181-3.162l1.7-.575a8.117,8.117,0,0,0,1.485,2.108,13.479,13.479,0,0,0,3.138-2.1ZM1198.852,37.5h19.571v5.175h-19.579Zm1.906,3.639h4.12V39.007h-4.12Zm5.94-2.132v2.132h3.953V39.007Zm5.773,0v2.132h4.024V39.007ZM1199.15,44.3h7.484V43.125h2.013V44.3h5.174v1.317q2.133-.934,4.024-1.988l1.15,1.221a43.116,43.116,0,0,1-4.288,2.2h4.954v1.558h-8.792q-.574.214-1.2.407-1.725.6-3.545,1.1h11.116V58.77h-2.012V57.715h-11.95V58.77h-2.012V51.438q-1.557.36-3.163.694l-.767-1.605q4.36-.862,8.1-1.917H1197.6V47.054h9.031V45.808h-7.475Zm4.12,11.95h11.95V54.744h-11.95Zm0-2.97h11.95v-1.6h-11.95Zm6.875-6.229q1.677-.574,3.209-1.246h-4.713v1.249Z" transform="translate(-973.835 -36.609)" fill="#1a202c"/><path d="M982.173,61.636l-1.693,6.534h-.8L978.031,62.8l-1.648,5.367H975.6l-1.707-6.534h.8l1.337,5.272,1.605-5.272h.784l1.615,5.272,1.337-5.272Zm6.17,3.284a3.7,3.7,0,0,1-.736,2.416,2.834,2.834,0,0,1-4.226,0,3.738,3.738,0,0,1-.728-2.415,3.794,3.794,0,0,1,.728-2.434,2.541,2.541,0,0,1,2.108-.961,2.586,2.586,0,0,1,2.114.953,3.8,3.8,0,0,1,.736,2.44Zm-.818,0a3.2,3.2,0,0,0-.49-1.839,1.731,1.731,0,0,0-1.529-.819,1.713,1.713,0,0,0-1.522.819,3.245,3.245,0,0,0-.484,1.839,3.176,3.176,0,0,0,.476,1.808,1.839,1.839,0,0,0,3.051,0,3.127,3.127,0,0,0,.493-1.811Zm6.256,3.242h-.953a3.955,3.955,0,0,1-.25-1.3,8.514,8.514,0,0,0-.151-1.062.5.5,0,0,0-.3-.368,2.516,2.516,0,0,0-.66-.05h-1.457v2.793h-.784V61.641h2.224a2.227,2.227,0,0,1,1.421.41,1.764,1.764,0,0,1,.62,1.479,1.473,1.473,0,0,1-.288.882,1.4,1.4,0,0,1-.687.535,1.19,1.19,0,0,1,.8,1.171q.042.459.151,1.287A1.484,1.484,0,0,0,993.78,68.161ZM992.659,63.5q0-1.137-1.313-1.138H990v2.233H991.2a1.841,1.841,0,0,0,1.049-.28A.922.922,0,0,0,992.659,63.5Zm6.245,4.665h-1l-2.457-3.143-.175.184v2.959h-.795V61.624h.795v2.483l2.408-2.483h1.045l-2.738,2.824Zm4.347-5.779h-2.875v2.032h2.767v.752h-2.767v2.986h-.784V61.624h3.659Zm6.379,2.533a3.711,3.711,0,0,1-.736,2.416,2.831,2.831,0,0,1-4.222,0,3.742,3.742,0,0,1-.728-2.416,3.781,3.781,0,0,1,.728-2.432,2.533,2.533,0,0,1,2.106-.961,2.586,2.586,0,0,1,2.115.952,3.806,3.806,0,0,1,.736,2.444Zm-.819,0a3.21,3.21,0,0,0-.489-1.84,1.732,1.732,0,0,0-1.53-.818,1.713,1.713,0,0,0-1.521.818,3.249,3.249,0,0,0-.484,1.84,3.176,3.176,0,0,0,.481,1.813,1.72,1.72,0,0,0,1.52.812,1.737,1.737,0,0,0,1.53-.812,3.138,3.138,0,0,0,.5-1.811Zm6.261,3.246h-.953a3.931,3.931,0,0,1-.251-1.3,8.092,8.092,0,0,0-.151-1.062.5.5,0,0,0-.3-.368,2.517,2.517,0,0,0-.66-.05H1011.3v2.793h-.784V61.641h2.223a2.232,2.232,0,0,1,1.422.41,1.762,1.762,0,0,1,.618,1.479,1.465,1.465,0,0,1-.288.882,1.389,1.389,0,0,1-.685.535,1.187,1.187,0,0,1,.8,1.171q.044.459.152,1.287A1.478,1.478,0,0,0,1015.071,68.161Zm-1.12-4.665q0-1.137-1.313-1.138h-1.345v2.233h1.195a1.843,1.843,0,0,0,1.049-.28A.923.923,0,0,0,1013.951,63.5Zm6.554,2.825a2.911,2.911,0,0,1-.1.527,1.838,1.838,0,0,1-.783,1.033,2.34,2.34,0,0,1-1.316.392,2.4,2.4,0,0,1-2.1-1.028,4.746,4.746,0,0,1,.017-4.683,2.4,2.4,0,0,1,2.082-1.045,2.213,2.213,0,0,1,1.488.49,1.8,1.8,0,0,1,.626,1.421h-.794a1.2,1.2,0,0,0-1.214-1.178c-.038,0-.077,0-.115.008a1.621,1.621,0,0,0-1.469.844,3.487,3.487,0,0,0-.426,1.805,3.4,3.4,0,0,0,.426,1.788,1.626,1.626,0,0,0,1.469.836,1.349,1.349,0,0,0,.923-.335,1.486,1.486,0,0,0,.481-.881Zm4.74,1.84h-3.97V61.624h3.837v.752h-3.052v2.031H1025v.753h-2.939V67.4h3.177Zm10.165-3.252q0,3.26-3.345,3.26h-1.68V61.636h1.664a3.438,3.438,0,0,1,2.466.847A3.191,3.191,0,0,1,1035.41,64.91Zm-.819-.009q0-2.525-2.632-2.524h-.778v5.032h1.154a2.134,2.134,0,0,0,1.7-.681,2.791,2.791,0,0,0,.552-1.827Zm5.559,3.261h-3.972V61.624h3.837v.752h-3.051v2.031h2.939v.753h-2.939V67.4h3.177Zm5.892-6.526-2.306,6.534h-.795l-2.315-6.534h.827l1.881,5.45,1.89-5.45Zm4.6,6.528h-3.967V61.624h3.837v.752h-3.052v2.031h2.939v.753h-2.939V67.4h3.175Zm4.657,0h-3.793V61.624h.784v5.785h3.01Zm6.208-3.246a3.711,3.711,0,0,1-.735,2.416,2.834,2.834,0,0,1-4.222,0,3.742,3.742,0,0,1-.728-2.416,3.788,3.788,0,0,1,.728-2.434,2.535,2.535,0,0,1,2.106-.96,2.584,2.584,0,0,1,2.115.952A3.8,3.8,0,0,1,1061.51,64.917Zm-.819,0a3.2,3.2,0,0,0-.49-1.84,1.832,1.832,0,0,0-3.053,0,3.247,3.247,0,0,0-.489,1.84,3.17,3.17,0,0,0,.484,1.811,1.715,1.715,0,0,0,1.526.814,1.734,1.734,0,0,0,1.525-.814,3.13,3.13,0,0,0,.493-1.811Zm5.9-1.363q0,1.914-2.592,1.914h-.844v2.692h-.784V61.624h1.6Q1066.589,61.624,1066.589,63.554Zm-.8-.009a1.006,1.006,0,0,0-.425-.881,1.685,1.685,0,0,0-1-.277h-1.195V64.72h1.195a1.734,1.734,0,0,0,1.012-.267,1.035,1.035,0,0,0,.416-.906Zm8.092,4.616h-.784V63.379l-2.051,4.782h-.751l-2.049-4.782v4.782h-.784V61.624h.807l2.4,5.6,2.4-5.6h.812Zm5,0h-3.97V61.624h3.837v.752h-3.052v2.031h2.939v.753h-2.939V67.4h3.177Zm5.626,0h-.854l-3.118-5.274v5.274h-.8V61.624h.882l3.1,5.258V61.624h.782Zm5.458-5.779h-1.989v5.787h-.784V62.385H1085.2v-.749h4.772Zm10.465,5.779h-.818l-.687-1.706h-2.863l-.677,1.706h-.827l2.592-6.537h.685Zm-1.814-2.483-1.129-2.951-1.112,2.951Zm7.445-2.166h-.8a1.2,1.2,0,0,0-.472-.915,1.726,1.726,0,0,0-1.083-.33,1.665,1.665,0,0,0-1.429.8,3.194,3.194,0,0,0-.518,1.84,2.978,2.978,0,0,0,.544,1.9,2.027,2.027,0,0,0,1.7.745,2.209,2.209,0,0,0,1.246-.326V65.519h-1.521v-.76H1106v2.967a3.524,3.524,0,0,1-2.253.568,2.523,2.523,0,0,1-2.056-.961,3.675,3.675,0,0,1-.769-2.415,3.819,3.819,0,0,1,.693-2.341,2.459,2.459,0,0,1,2.074-1.029,2.551,2.551,0,0,1,1.684.539,1.834,1.834,0,0,1,.667,1.426Zm4.994,4.648h-3.984V61.624h3.837v.752h-3.051v2.031h2.938v.753h-2.938V67.4h3.176Zm5.626,0h-.853l-3.118-5.274v5.274h-.794V61.624h.881l3.1,5.258V61.624h.784Zm5.786-1.84a2.884,2.884,0,0,1-.1.527,1.843,1.843,0,0,1-.784,1.033,2.339,2.339,0,0,1-1.316.392,2.4,2.4,0,0,1-2.1-1.028,4.738,4.738,0,0,1,.017-4.683,2.4,2.4,0,0,1,2.082-1.045,2.212,2.212,0,0,1,1.487.49,1.8,1.8,0,0,1,.627,1.421h-.795a1.2,1.2,0,0,0-1.214-1.178c-.039,0-.077,0-.115.008a1.623,1.623,0,0,0-1.47.844,3.5,3.5,0,0,0-.425,1.805,3.413,3.413,0,0,0,.425,1.788,1.629,1.629,0,0,0,1.47.836,1.349,1.349,0,0,0,.923-.335,1.487,1.487,0,0,0,.481-.881Zm5.928-4.686L1126,65.357v2.8h-.769v-2.8l-2.391-3.722h.937l1.848,2.984,1.847-2.984Zm1.689,6.476a1.452,1.452,0,0,1-.234.844,2.331,2.331,0,0,1-.71.594l-.25-.385a1.2,1.2,0,0,0,.752-.9h-.6V67.208h1.053Zm11.569.05h-.784V63.379l-2.051,4.782h-.752l-2.047-4.782v4.782h-.785V61.624h.812l2.4,5.6,2.4-5.6h.81Zm1.89,0h-.784V61.624h.784Zm5.884,0h-.853l-3.118-5.274v5.274h-.795V61.624h.882l3.1,5.258V61.624h.783Zm1.9,0h-.783V61.624h.783Zm5.15-1.772q0,1.9-2.391,1.9a1.857,1.857,0,0,1-1.438-.564,2.211,2.211,0,0,1-.535-1.508h.811a1.39,1.39,0,0,0,.347,1,1.471,1.471,0,0,0,1.049.317,1.528,1.528,0,0,0,.9-.259.971.971,0,0,0,.442-.854.851.851,0,0,0-.233-.626,1.636,1.636,0,0,0-.6-.334l-.778-.251a4.177,4.177,0,0,1-1.187-.577,1.489,1.489,0,0,1-.6-1.22,1.683,1.683,0,0,1,.635-1.371,2.133,2.133,0,0,1,1.389-.469,2.378,2.378,0,0,1,1.4.376,1.673,1.673,0,0,1,.686,1.438h-.8a1.025,1.025,0,0,0-.347-.795,1.307,1.307,0,0,0-.865-.276,1.456,1.456,0,0,0-.894.268.883.883,0,0,0-.385.745.832.832,0,0,0,.4.727,5.434,5.434,0,0,0,.869.392,10.177,10.177,0,0,1,1.422.636,1.542,1.542,0,0,1,.709,1.3Zm5.116-4h-1.989v5.783h-.784V62.385h-1.989v-.749h4.772Zm5.274,5.779h-.953a3.935,3.935,0,0,1-.251-1.3,8.1,8.1,0,0,0-.151-1.062.5.5,0,0,0-.3-.368,2.527,2.527,0,0,0-.661-.05h-1.454v2.79h-.784V61.641h2.223a2.226,2.226,0,0,1,1.421.41,1.763,1.763,0,0,1,.62,1.479,1.471,1.471,0,0,1-.288.882,1.393,1.393,0,0,1-.685.535,1.188,1.188,0,0,1,.8,1.171q.042.459.151,1.287a1.49,1.49,0,0,0,.311.757Zm-1.119-4.668q0-1.137-1.313-1.138h-1.346v2.233h1.2a1.842,1.842,0,0,0,1.049-.28A.923.923,0,0,0,1165.739,63.5Zm6.971-1.861-2.391,3.722v2.8h-.768v-2.8l-2.391-3.722h.937l1.848,2.984,1.846-2.984Zm10.45,3.282a3.71,3.71,0,0,1-.736,2.416,2.834,2.834,0,0,1-4.222,0,4.417,4.417,0,0,1,0-4.849,2.534,2.534,0,0,1,2.106-.96,2.581,2.581,0,0,1,2.114.952A3.791,3.791,0,0,1,1183.16,64.917Zm-.819,0a3.2,3.2,0,0,0-.49-1.84,1.83,1.83,0,0,0-3.051,0,3.247,3.247,0,0,0-.489,1.84,3.165,3.165,0,0,0,.489,1.814,1.717,1.717,0,0,0,1.522.81,1.737,1.737,0,0,0,1.526-.814,3.138,3.138,0,0,0,.493-1.811Zm5.334-2.533H1184.8v2.032h2.769v.751H1184.8v2.985h-.784V61.624h3.662Zm8.936,5.779h-3.8V61.624h.784v5.785h3.009Zm6.178,0h-.823l-.685-1.706h-2.859l-.675,1.7h-.827l2.592-6.537h.686Zm-1.814-2.484-1.129-2.95-1.112,2.949Zm6.77.653a1.747,1.747,0,0,1-.475,1.254,2.018,2.018,0,0,1-1.538.577h-2.282V61.624h2.154a1.978,1.978,0,0,1,1.321.451,1.6,1.6,0,0,1,.577,1.287,1.536,1.536,0,0,1-.778,1.346,1.655,1.655,0,0,1,1.021,1.622Zm-1.053-2.939q0-1.028-1.253-1.028h-1.219V64.4h1.245a1.414,1.414,0,0,0,.844-.234.906.906,0,0,0,.382-.765Zm.226,2.86a.9.9,0,0,0-.469-.871,2.948,2.948,0,0,0-1.312-.217h-.928v2.247h1.263q1.453,0,1.446-1.159Zm7.206-1.338a3.711,3.711,0,0,1-.736,2.416,2.83,2.83,0,0,1-4.223,0,3.732,3.732,0,0,1-.728-2.415,3.789,3.789,0,0,1,.728-2.434,2.539,2.539,0,0,1,2.106-.961,2.585,2.585,0,0,1,2.114.953,3.788,3.788,0,0,1,.737,2.44Zm-.818,0a3.211,3.211,0,0,0-.49-1.84,1.731,1.731,0,0,0-1.53-.818,1.71,1.71,0,0,0-1.52.818,3.241,3.241,0,0,0-.49,1.84,3.173,3.173,0,0,0,.49,1.814,1.72,1.72,0,0,0,1.52.812,1.739,1.739,0,0,0,1.526-.813,3.13,3.13,0,0,0,.493-1.811Zm6.259,3.246h-.953a3.96,3.96,0,0,1-.25-1.3,8.469,8.469,0,0,0-.151-1.062.5.5,0,0,0-.3-.368,2.519,2.519,0,0,0-.66-.05h-1.454v2.793h-.784V61.641h2.223a2.226,2.226,0,0,1,1.421.41,1.764,1.764,0,0,1,.62,1.479,1.474,1.474,0,0,1-.288.882,1.4,1.4,0,0,1-.687.535,1.19,1.19,0,0,1,.8,1.171q.042.459.151,1.287A1.479,1.479,0,0,0,1219.563,68.161Zm-1.119-4.665q0-1.137-1.312-1.138h-1.346v2.233h1.194a1.839,1.839,0,0,0,1.049-.28A.923.923,0,0,0,1218.443,63.5Z" transform="translate(-973.893 -33.713)" fill="#1a202c" opacity="0.66"/></g></g></g></svg>