<svg xmlns="http://www.w3.org/2000/svg" width="128" height="104" viewBox="0 0 128 104"><g transform="translate(10080 -2171)"><rect width="128" height="104" transform="translate(-10080 2171)" fill="#fff" opacity="0"/><g transform="translate(-10078 2189)"><path d="M285.646,548.055H373.2v-5.278c0-1.1-1.328-2.187-3.644-2.977l-.024-.008c-1.564-.552-11.56-4.478-16.967-4.359a18.633,18.633,0,0,0-7.268,1.439c-6.121,2.779-14.161,3.8-18.409,3a139.873,139.873,0,0,0-17.818-1.833c-5.318.073-5.334.962-10.793,3.829-2.085,1.094-2.865,1.232-12.627,2.1Z" transform="translate(-267.751 -489.943)" fill="#f2f2f2" style="isolation:isolate"/><path d="M184.927,528.8c-.191-2.831,1.011-5.692,3.5-6.743a13.712,13.712,0,0,0,1.716,8.97c.623,1.095,1.423,2.263,1.253,3.407a2.409,2.409,0,0,1-1.182,1.644,7.576,7.576,0,0,1-1.977.757l-.119.125A17.86,17.86,0,0,1,184.927,528.8Z" transform="translate(-181.147 -478.448)" fill="#f2f2f2"/><path d="M199.678,521.751a9.953,9.953,0,0,0-1.556,6.424,5.131,5.131,0,0,0,.342,1.5,3.344,3.344,0,0,0,.926,1.245,7.051,7.051,0,0,1,1.083,1.016,1.811,1.811,0,0,1,.346,1.374,3.7,3.7,0,0,1-.688,1.5,3.636,3.636,0,0,0-.764,1.667c-.007.078-.133.045-.125-.033.107-1.126,1.057-1.811,1.376-2.837a1.74,1.74,0,0,0-.172-1.506,5.468,5.468,0,0,0-1.082-1.049,3.588,3.588,0,0,1-.947-1.19,4.813,4.813,0,0,1-.4-1.492,10.331,10.331,0,0,1,.156-3.332,9.658,9.658,0,0,1,1.4-3.378C199.62,521.6,199.72,521.689,199.678,521.751Z" transform="translate(-192.359 -478.088)" fill="#fff"/><path d="M188.567,552.087a2.008,2.008,0,0,1-1.6-1.691c-.009-.08.116-.081.125,0a1.859,1.859,0,0,0,1.494,1.57.061.061,0,0,1-.016.121Z" transform="translate(-182.915 -502.757)" fill="#fff"/><path d="M206.611,574.671a2.7,2.7,0,0,0,1.077-1.932c.008-.078.133-.045.125.033a2.808,2.808,0,0,1-1.125,2.008C206.627,574.824,206.55,574.715,206.611,574.671Z" transform="translate(-199.786 -521.978)" fill="#fff"/><path d="M201.929,537.315a.913.913,0,0,0,.884-.091c.06-.045.137.064.077.109a1.022,1.022,0,0,1-.977.1.076.076,0,0,1-.055-.077.054.054,0,0,1,.071-.044Z" transform="translate(-195.719 -491.476)" fill="#fff"/><path d="M217.016,553.68l-.11.09a10.138,10.138,0,0,0-1.348,1.327c-.032.037-.064.075-.095.112a10.994,10.994,0,0,0-2.092,4.058,11.555,11.555,0,0,0-.349,1.847,7.514,7.514,0,0,1-.5,2.559,1.811,1.811,0,0,1-.129.22l-4.593.233-.034-.013-.182.018c0-.033,0-.067,0-.1s0-.038,0-.058,0-.026,0-.037,0-.008,0-.012,0-.022,0-.033c.01-.191.021-.382.034-.574,0,0,0,0,0,0a17.026,17.026,0,0,1,.777-4.233c.014-.04.027-.081.042-.121a10.285,10.285,0,0,1,.771-1.718,8.842,8.842,0,0,1,.556-.858,7.3,7.3,0,0,1,1.908-1.794,6.655,6.655,0,0,1,5.185-.946Z" transform="translate(-200.646 -505.456)" fill="#f2f2f2"/><path d="M217,554.59a9.284,9.284,0,0,0-5.321,3.649,4.031,4.031,0,0,0-.621,1.279,2.721,2.721,0,0,0,.053,1.446,6.125,6.125,0,0,1,.333,1.377,1.438,1.438,0,0,1-.539,1.189,3.793,3.793,0,0,1-1.529.656,3.725,3.725,0,0,0-1.7.73c-.055.051-.145-.048-.09-.1.787-.739,2.046-.656,2.958-1.2a1.423,1.423,0,0,0,.773-1.179,4.715,4.715,0,0,0-.311-1.4,2.949,2.949,0,0,1-.106-1.419,3.764,3.764,0,0,1,.565-1.3,8.8,8.8,0,0,1,2.185-2.284,9.723,9.723,0,0,1,3.315-1.566C217.047,554.446,217.079,554.57,217,554.59Z" transform="translate(-200.634 -506.306)" fill="#fff"/><path d="M235.739,563.591a1.736,1.736,0,0,1-.377-2.171c.041-.063.152.012.111.075a1.608,1.608,0,0,0,.355,2.019C235.89,563.574,235.8,563.65,235.739,563.591Z" transform="translate(-224.321 -512.266)" fill="#fff"/><path d="M231.769,594.605a2.867,2.867,0,0,0,2.138-.731c.055-.051.145.048.09.1a2.985,2.985,0,0,1-2.227.756c-.081,0-.082-.129,0-.124Z" transform="translate(-221.382 -540.175)" fill="#fff"/><path d="M257.622,561.527a1.127,1.127,0,0,0,.837.467c.081,0,.082.128,0,.124a1.262,1.262,0,0,1-.926-.515.063.063,0,0,1,0-.088A.066.066,0,0,1,257.622,561.527Z" transform="translate(-243.567 -512.358)" fill="#fff"/><path d="M964.77,528.8c.191-2.831-1.011-5.692-3.5-6.743a13.713,13.713,0,0,1-1.716,8.97c-.623,1.095-1.423,2.263-1.253,3.407a2.409,2.409,0,0,0,1.182,1.644,7.575,7.575,0,0,0,1.977.757l.119.125A17.86,17.86,0,0,0,964.77,528.8Z" transform="translate(-846.007 -478.448)" fill="#f2f2f2"/><path d="M972.214,521.751a9.953,9.953,0,0,1,1.556,6.424,5.131,5.131,0,0,1-.342,1.5,3.344,3.344,0,0,1-.926,1.245,7.05,7.05,0,0,0-1.083,1.016,1.811,1.811,0,0,0-.346,1.374,3.7,3.7,0,0,0,.688,1.5,3.636,3.636,0,0,1,.764,1.667c.008.078.133.045.125-.033-.107-1.126-1.057-1.811-1.376-2.837a1.74,1.74,0,0,1,.172-1.506,5.468,5.468,0,0,1,1.082-1.049,3.588,3.588,0,0,0,.947-1.19,4.812,4.812,0,0,0,.4-1.492,10.33,10.33,0,0,0-.156-3.332,9.657,9.657,0,0,0-1.4-3.378C972.272,521.6,972.172,521.689,972.214,521.751Z" transform="translate(-856.99 -478.088)" fill="#fff"/><path d="M990.8,552.087a2.008,2.008,0,0,0,1.6-1.691c.009-.08-.116-.081-.125,0a1.859,1.859,0,0,1-1.494,1.57.061.061,0,1,0,.016.121Z" transform="translate(-873.91 -502.757)" fill="#fff"/><path d="M975.5,574.671a2.7,2.7,0,0,1-1.077-1.932c-.008-.078-.133-.045-.125.033a2.808,2.808,0,0,0,1.125,2.008c.061.045.138-.064.077-.109Z" transform="translate(-859.78 -521.978)" fill="#fff"/><path d="M981.226,537.315a.913.913,0,0,1-.884-.091c-.06-.045-.137.064-.077.109a1.022,1.022,0,0,0,.977.1.076.076,0,0,0,.055-.077.054.054,0,0,0-.071-.044Z" transform="translate(-864.893 -491.476)" fill="#fff"/><path d="M914.834,553.68l.11.09a10.141,10.141,0,0,1,1.348,1.327c.032.037.064.075.095.112a11,11,0,0,1,2.092,4.058,11.556,11.556,0,0,1,.349,1.847,7.513,7.513,0,0,0,.5,2.559,1.814,1.814,0,0,0,.129.22l4.593.233.034-.013.182.018c0-.033,0-.067,0-.1s0-.038,0-.058,0-.026,0-.037,0-.009,0-.012,0-.022,0-.033q-.015-.287-.034-.574s0,0,0,0a17.029,17.029,0,0,0-.777-4.233c-.014-.04-.027-.081-.042-.121a10.28,10.28,0,0,0-.771-1.718,8.851,8.851,0,0,0-.556-.858,7.3,7.3,0,0,0-1.908-1.794,6.655,6.655,0,0,0-5.185-.946Z" transform="translate(-808.661 -505.456)" fill="#f2f2f2"/><path d="M914.569,554.59a9.284,9.284,0,0,1,5.321,3.649,4.032,4.032,0,0,1,.621,1.279,2.722,2.722,0,0,1-.053,1.446,6.125,6.125,0,0,0-.333,1.376,1.438,1.438,0,0,0,.539,1.189,3.793,3.793,0,0,0,1.529.656,3.725,3.725,0,0,1,1.7.73c.055.051.145-.048.09-.1-.787-.739-2.046-.656-2.958-1.2a1.423,1.423,0,0,1-.773-1.179,4.717,4.717,0,0,1,.311-1.4,2.949,2.949,0,0,0,.106-1.419,3.764,3.764,0,0,0-.565-1.3,8.8,8.8,0,0,0-2.185-2.284,9.723,9.723,0,0,0-3.315-1.566c-.075-.02-.108.1-.033.124Z" transform="translate(-808.397 -506.306)" fill="#fff"/><path d="M949.457,563.591a1.736,1.736,0,0,0,.377-2.171c-.042-.063-.152.012-.111.075a1.608,1.608,0,0,1-.355,2.019C949.306,563.574,949.395,563.65,949.457,563.591Z" transform="translate(-838.332 -512.266)" fill="#fff"/><path d="M943.715,594.605a2.867,2.867,0,0,1-2.138-.731c-.055-.051-.145.048-.09.1a2.985,2.985,0,0,0,2.227.756C943.8,594.725,943.8,594.6,943.715,594.605Z" transform="translate(-831.56 -540.175)" fill="#fff"/><path d="M925.835,561.527a1.126,1.126,0,0,1-.837.467c-.081,0-.082.128,0,.124a1.262,1.262,0,0,0,.926-.515.063.063,0,0,0,0-.088A.066.066,0,0,0,925.835,561.527Z" transform="translate(-817.347 -512.358)" fill="#fff"/><rect width="0.842" height="0.281" transform="translate(7.01 36.337)" fill="#e6e6e6"/><path d="M330.487,470.49h-1.709v-.281h1.709Zm-3.418,0h-1.709v-.281h1.709Zm-3.418,0h-1.709v-.281h1.709Zm-3.418,0h-1.709v-.281h1.709Zm-3.418,0h-1.709v-.281h1.709Zm-3.418,0H311.69v-.281H313.4Zm-3.418,0h-1.709v-.281h1.709Zm-3.418,0h-1.709v-.281h1.709Zm-3.418,0h-1.709v-.281h1.709Zm-3.418,0h-1.709v-.281h1.709Zm-3.418,0H294.6v-.281h1.709Zm-3.418,0h-1.709v-.281h1.709Zm-3.418,0h-1.709v-.281h1.709Zm-3.418,0h-1.709v-.281h1.709Zm-3.418,0H280.93v-.281h1.709Zm-3.418,0h-1.709v-.281h1.709Zm-3.418,0H274.1v-.281H275.8Zm-3.418,0h-1.709v-.281h1.709Zm-3.418,0H267.26v-.281h1.709Zm-3.418,0h-1.709v-.281h1.709Zm-3.418,0h-1.709v-.281h1.709Zm-3.418,0h-1.709v-.281h1.709Zm-3.418,0h-1.709v-.281H255.3Zm-3.418,0h-1.709v-.281h1.709Zm-3.418,0h-1.709v-.281h1.709Zm-3.418,0h-1.709v-.281h1.709Zm-3.418,0h-1.709v-.281h1.709Zm-3.418,0H236.5v-.281h1.709Zm-3.418,0h-1.709v-.281h1.709Zm-3.418,0h-1.709v-.281h1.709Zm-3.418,0h-1.709v-.281h1.709Z" transform="translate(-216.686 -433.872)" fill="#e6e6e6"/><rect width="0.842" height="0.281" transform="translate(115.51 36.337)" fill="#e6e6e6"/><rect width="0.842" height="0.281" transform="translate(7.01 34.372)" fill="#e6e6e6"/><path d="M330.487,456.49h-1.709v-.281h1.709Zm-3.418,0h-1.709v-.281h1.709Zm-3.418,0h-1.709v-.281h1.709Zm-3.418,0h-1.709v-.281h1.709Zm-3.418,0h-1.709v-.281h1.709Zm-3.418,0H311.69v-.281H313.4Zm-3.418,0h-1.709v-.281h1.709Zm-3.418,0h-1.709v-.281h1.709Zm-3.418,0h-1.709v-.281h1.709Zm-3.418,0h-1.709v-.281h1.709Zm-3.418,0H294.6v-.281h1.709Zm-3.418,0h-1.709v-.281h1.709Zm-3.418,0h-1.709v-.281h1.709Zm-3.418,0h-1.709v-.281h1.709Zm-3.418,0H280.93v-.281h1.709Zm-3.418,0h-1.709v-.281h1.709Zm-3.418,0H274.1v-.281H275.8Zm-3.418,0h-1.709v-.281h1.709Zm-3.418,0H267.26v-.281h1.709Zm-3.418,0h-1.709v-.281h1.709Zm-3.418,0h-1.709v-.281h1.709Zm-3.418,0h-1.709v-.281h1.709Zm-3.418,0h-1.709v-.281H255.3Zm-3.418,0h-1.709v-.281h1.709Zm-3.418,0h-1.709v-.281h1.709Zm-3.418,0h-1.709v-.281h1.709Zm-3.418,0h-1.709v-.281h1.709Zm-3.418,0H236.5v-.281h1.709Zm-3.418,0h-1.709v-.281h1.709Zm-3.418,0h-1.709v-.281h1.709Zm-3.418,0h-1.709v-.281h1.709Z" transform="translate(-216.686 -421.837)" fill="#e6e6e6"/><rect width="0.842" height="0.281" transform="translate(115.51 34.372)" fill="#e6e6e6"/><rect width="0.842" height="0.281" transform="translate(7.01 30.303)" fill="#e6e6e6"/><path d="M330.487,427.489h-1.709v-.281h1.709Zm-3.418,0h-1.709v-.281h1.709Zm-3.418,0h-1.709v-.281h1.709Zm-3.418,0h-1.709v-.281h1.709Zm-3.418,0h-1.709v-.281h1.709Zm-3.418,0H311.69v-.281H313.4Zm-3.418,0h-1.709v-.281h1.709Zm-3.418,0h-1.709v-.281h1.709Zm-3.418,0h-1.709v-.281h1.709Zm-3.418,0h-1.709v-.281h1.709Zm-3.418,0H294.6v-.281h1.709Zm-3.418,0h-1.709v-.281h1.709Zm-3.418,0h-1.709v-.281h1.709Zm-3.418,0h-1.709v-.281h1.709Zm-3.418,0H280.93v-.281h1.709Zm-3.418,0h-1.709v-.281h1.709Zm-3.418,0H274.1v-.281H275.8Zm-3.418,0h-1.709v-.281h1.709Zm-3.418,0H267.26v-.281h1.709Zm-3.418,0h-1.709v-.281h1.709Zm-3.418,0h-1.709v-.281h1.709Zm-3.418,0h-1.709v-.281h1.709Zm-3.418,0h-1.709v-.281H255.3Zm-3.418,0h-1.709v-.281h1.709Zm-3.418,0h-1.709v-.281h1.709Zm-3.418,0h-1.709v-.281h1.709Zm-3.418,0h-1.709v-.281h1.709Zm-3.418,0H236.5v-.281h1.709Zm-3.418,0h-1.709v-.281h1.709Zm-3.418,0h-1.709v-.281h1.709Zm-3.418,0h-1.709v-.281h1.709Z" transform="translate(-216.686 -396.905)" fill="#e6e6e6"/><rect width="0.842" height="0.281" transform="translate(115.51 30.303)" fill="#e6e6e6"/><rect width="0.842" height="0.281" transform="translate(7.01 27.497)" fill="#e6e6e6"/><path d="M330.487,407.489h-1.709v-.281h1.709Zm-3.418,0h-1.709v-.281h1.709Zm-3.418,0h-1.709v-.281h1.709Zm-3.418,0h-1.709v-.281h1.709Zm-3.418,0h-1.709v-.281h1.709Zm-3.418,0H311.69v-.281H313.4Zm-3.418,0h-1.709v-.281h1.709Zm-3.418,0h-1.709v-.281h1.709Zm-3.418,0h-1.709v-.281h1.709Zm-3.418,0h-1.709v-.281h1.709Zm-3.418,0H294.6v-.281h1.709Zm-3.418,0h-1.709v-.281h1.709Zm-3.418,0h-1.709v-.281h1.709Zm-3.418,0h-1.709v-.281h1.709Zm-3.418,0H280.93v-.281h1.709Zm-3.418,0h-1.709v-.281h1.709Zm-3.418,0H274.1v-.281H275.8Zm-3.418,0h-1.709v-.281h1.709Zm-3.418,0H267.26v-.281h1.709Zm-3.418,0h-1.709v-.281h1.709Zm-3.418,0h-1.709v-.281h1.709Zm-3.418,0h-1.709v-.281h1.709Zm-3.418,0h-1.709v-.281H255.3Zm-3.418,0h-1.709v-.281h1.709Zm-3.418,0h-1.709v-.281h1.709Zm-3.418,0h-1.709v-.281h1.709Zm-3.418,0h-1.709v-.281h1.709Zm-3.418,0H236.5v-.281h1.709Zm-3.418,0h-1.709v-.281h1.709Zm-3.418,0h-1.709v-.281h1.709Zm-3.418,0h-1.709v-.281h1.709Z" transform="translate(-216.686 -379.712)" fill="#e6e6e6"/><rect width="0.842" height="0.281" transform="translate(115.51 27.497)" fill="#e6e6e6"/><rect width="0.842" height="0.281" transform="translate(7.01 21.464)" fill="#e6e6e6"/><path d="M330.487,364.489h-1.709v-.281h1.709Zm-3.418,0h-1.709v-.281h1.709Zm-3.418,0h-1.709v-.281h1.709Zm-3.418,0h-1.709v-.281h1.709Zm-3.418,0h-1.709v-.281h1.709Zm-3.418,0H311.69v-.281H313.4Zm-3.418,0h-1.709v-.281h1.709Zm-3.418,0h-1.709v-.281h1.709Zm-3.418,0h-1.709v-.281h1.709Zm-3.418,0h-1.709v-.281h1.709Zm-3.418,0H294.6v-.281h1.709Zm-3.418,0h-1.709v-.281h1.709Zm-3.418,0h-1.709v-.281h1.709Zm-3.418,0h-1.709v-.281h1.709Zm-3.418,0H280.93v-.281h1.709Zm-3.418,0h-1.709v-.281h1.709Zm-3.418,0H274.1v-.281H275.8Zm-3.418,0h-1.709v-.281h1.709Zm-3.418,0H267.26v-.281h1.709Zm-3.418,0h-1.709v-.281h1.709Zm-3.418,0h-1.709v-.281h1.709Zm-3.418,0h-1.709v-.281h1.709Zm-3.418,0h-1.709v-.281H255.3Zm-3.418,0h-1.709v-.281h1.709Zm-3.418,0h-1.709v-.281h1.709Zm-3.418,0h-1.709v-.281h1.709Zm-3.418,0h-1.709v-.281h1.709Zm-3.418,0H236.5v-.281h1.709Zm-3.418,0h-1.709v-.281h1.709Zm-3.418,0h-1.709v-.281h1.709Zm-3.418,0h-1.709v-.281h1.709Z" transform="translate(-216.686 -342.745)" fill="#e6e6e6"/><rect width="0.842" height="0.281" transform="translate(115.51 21.464)" fill="#e6e6e6"/><path d="M405,259.625a7.6,7.6,0,1,1-2.227-5.41A7.637,7.637,0,0,1,405,259.625Z" transform="translate(-357.226 -246.268)" fill="#f2f2f2"/><path d="M422.518,272.03h0l-.038.068a2.424,2.424,0,0,0-.57-2.475,3.774,3.774,0,0,0-2.256-1.024,3.663,3.663,0,0,0-1.822.142,4.715,4.715,0,0,0-2.017,1.851,2.019,2.019,0,0,0-.461,1.208,2.619,2.619,0,0,0,.469,1.114,1.432,1.432,0,0,1,.224,1.168,2.294,2.294,0,0,1-.415.579.776.776,0,0,0-.2.673.549.549,0,0,0,.409.355,1.446,1.446,0,0,0,.543-.013l4.682-.707a2,2,0,0,0,1.448-2.938Z" transform="translate(-379.26 -260.501)" fill="#2f2e41"/><circle cx="2.289" cy="2.289" r="2.289" transform="translate(37.487 9.856)" fill="#ffb9b9"/><path d="M419.56,322.595a7.635,7.635,0,0,1-10.685.772l.655-1.828a1.966,1.966,0,0,1,1.67-1.147l.417-.026.994-.857s2.678-.1,2.638-.141l1.622.976v-.007l.638.039a1.965,1.965,0,0,1,1.67,1.147Z" transform="translate(-373.69 -304.196)" fill="#66c4c5"/><path d="M424.879,278.24c-.059-.313-.378-.456-.651-.525a6.272,6.272,0,0,0-2.426-.133,2.653,2.653,0,0,0-1.623.73,2.182,2.182,0,0,0-.552,1.406,1.674,1.674,0,0,0,.2.893.828.828,0,0,0,.688.443l.027.1a4.167,4.167,0,0,0,2.889-1.935,2.479,2.479,0,0,1-.724,1.17,4.513,4.513,0,0,0,1.948-1.5A.85.85,0,0,0,424.879,278.24Z" transform="translate(-382.932 -268.219)" fill="#2f2e41"/><circle cx="7.637" cy="7.637" r="7.637" transform="translate(97.581 8.14)" fill="#f2f2f2"/><circle cx="1.078" cy="1.078" r="1.078" transform="translate(102.043 10.755)" fill="#2f2e41"/><circle cx="2.732" cy="2.732" r="2.732" transform="translate(102.115 11.546)" fill="#2f2e41"/><circle cx="2.22" cy="2.22" r="2.22" transform="translate(102.853 12.569)" fill="#9e616a"/><path d="M894.048,298.224a2.543,2.543,0,0,0-3.866,2.219,5.9,5.9,0,0,0,3.526.068l.285-.7.168.7a1.028,1.028,0,0,0,1.1,0,2.6,2.6,0,0,0-1.217-2.286Z" transform="translate(-787.468 -285.699)" fill="#2f2e41"/><path d="M865.319,273.618a2.206,2.206,0,0,0-2.3.355,2.5,2.5,0,0,0-.8,2.22,5.728,5.728,0,0,0,1.089,2.237,4.306,4.306,0,0,1,.917,2.3A2.276,2.276,0,0,1,861.955,283a5.125,5.125,0,0,0,2.215.579,1.754,1.754,0,0,0,1.7-1.29,2.9,2.9,0,0,0-.4-1.589,11.243,11.243,0,0,1-.786-2.586,2.6,2.6,0,0,1,.015-1.28,1.5,1.5,0,0,1,1.494-.987l.254-.229A1.979,1.979,0,0,0,865.319,273.618Z" transform="translate(-763.201 -264.712)" fill="#2f2e41"/><path d="M883.52,340.329a7.635,7.635,0,0,1-10.685.772l.655-1.828a1.966,1.966,0,0,1,1.67-1.147l.417-.026.994-.857s2.678-.1,2.638-.141l1.622.976v-.007l.638.039a1.965,1.965,0,0,1,1.67,1.147Z" transform="translate(-772.555 -319.442)" fill="#66c4c5"/><path d="M714,218.877a7.618,7.618,0,1,1-2.222-5.41A7.637,7.637,0,0,1,714,218.877Z" transform="translate(-622.872 -211.226)" fill="#f2f2f2"/><path d="M727.113,233.391a3.431,3.431,0,0,1,2.027-2.27,3.526,3.526,0,0,1,3.194.922c1.366,1.361,1.7,6.038.761,7.515-.187-.01-.831-.017-1.02-.024l-.267-.891v.882q-.451-.014-.91-.019a3.96,3.96,0,0,1-3.91-3.862A9.079,9.079,0,0,1,727.113,233.391Z" transform="translate(-647.164 -228.238)" fill="#2f2e41"/><circle cx="2.177" cy="2.177" r="2.177" transform="translate(81.199 4.135)" fill="#9e616a"/><path d="M738.962,234.9l2.506-1.255h0a3.15,3.15,0,0,1,1.845,2.61l.063.748-1.049-.267-.115-.957-.178.882-.484-.123,0-1.485-.485,1.484-1.73-.4Z" transform="translate(-657.465 -230.499)" fill="#2f2e41"/><path d="M728.08,281.914a7.635,7.635,0,0,1-10.685.772l.655-1.828a1.966,1.966,0,0,1,1.67-1.147l.417-.026.994-.857s2.678-.1,2.638-.141l1.622.976v-.007l.638.039a1.965,1.965,0,0,1,1.67,1.147Z" transform="translate(-638.924 -269.223)" fill="#66c4c5"/><circle cx="7.637" cy="7.637" r="7.637" transform="translate(54.855 12.349)" fill="#f2f2f2"/><circle cx="2.438" cy="2.438" r="2.438" transform="translate(59.844 16.057)" fill="#ffb6b6"/><path d="M578.879,370.329a7.635,7.635,0,0,1-10.685.772l.655-1.828a1.966,1.966,0,0,1,1.67-1.147l.417-.026.994-.857s2.677-.1,2.638-.141l1.622.976v-.007l.638.039a1.965,1.965,0,0,1,1.67,1.147Z" transform="translate(-510.656 -345.232)" fill="#66c4c5"/><path d="M589.119,318.9a3.143,3.143,0,0,0-1.316-1.791,2.141,2.141,0,0,0-1.73-.321,1.409,1.409,0,0,0-1.022,1.357.6.6,0,0,0-.6.185,1.377,1.377,0,0,0-.295.6,3.792,3.792,0,0,0,.036,2.1l-.012.1a.951.951,0,0,0,.631-.548c.133-.259.21-.546.355-.8a.865.865,0,0,1,.671-.485l-.025.438.739-.381-.176.421.646-.27-.072.4a.961.961,0,0,1,1.323-.428,1.277,1.277,0,0,1,.522.734,3.871,3.871,0,0,1,.125.916A3.2,3.2,0,0,0,589.119,318.9Z" transform="translate(-524.266 -301.917)" fill="#2f2e41"/><circle cx="7.637" cy="7.637" r="7.637" transform="translate(10.64 15.821)" fill="#f2f2f2"/><circle cx="2.317" cy="2.317" r="2.317" transform="translate(15.792 19.617)" fill="#9e616a"/><path d="M263.039,394.595a7.635,7.635,0,0,1-10.685.772l.655-1.828a1.966,1.966,0,0,1,1.67-1.147l.417-.026.994-.857s2.678-.1,2.638-.141l1.622.976v-.007l.638.039a1.965,1.965,0,0,1,1.67,1.147Z" transform="translate(-239.13 -366.094)" fill="#66c4c5"/><path d="M271.924,374.956l-.013-.038-.027.023Z" transform="translate(-255.92 -351.951)" fill="#2f2e41"/><path d="M274.355,346.5a1.666,1.666,0,0,0-.622-1.216,1.461,1.461,0,0,1-.381-.344,2.352,2.352,0,0,1-.129-.322,1.081,1.081,0,0,0-1.139-.584,1.712,1.712,0,0,0-1.113.745.758.758,0,0,0-1.06.878.545.545,0,0,0-.763.226,1.4,1.4,0,0,0-.08.887,8.38,8.38,0,0,0,.394,1.588,1.034,1.034,0,0,0,.187-.88c-.029-.323-.012-.717.271-.876s.6.015.9.1a1.71,1.71,0,0,0,1.414-.222,4.458,4.458,0,0,1,.465-.324.549.549,0,0,1,.541-.01.756.756,0,0,1,.251.441l.347,1.178A1.666,1.666,0,0,0,274.355,346.5Z" transform="translate(-253.47 -325.391)" fill="#2f2e41"/><rect width="0.729" height="21.369" transform="translate(17.574 36.974)" fill="#3f3d56"/><rect width="0.729" height="31.349" transform="translate(39.4 26.994)" fill="#3f3d56"/><rect width="0.729" height="24.787" transform="translate(61.271 33.555)" fill="#3f3d56"/><rect width="0.729" height="36.817" transform="translate(83.142 21.526)" fill="#3f3d56"/><rect width="0.729" height="28.433" transform="translate(105.014 29.91)" fill="#3f3d56"/><circle cx="2.23" cy="2.23" r="2.23" transform="translate(37.579 25.266)" fill="#66c4c5"/><circle cx="2.23" cy="2.23" r="2.23" transform="translate(81.322 19.434)" fill="#66c4c5"/><circle cx="2.23" cy="2.23" r="2.23" transform="translate(59.451 31.463)" fill="#66c4c5"/><circle cx="2.23" cy="2.23" r="2.23" transform="translate(15.708 34.744)" fill="#66c4c5"/><circle cx="2.23" cy="2.23" r="2.23" transform="translate(103.193 27.453)" fill="#66c4c5"/><path d="M290.949,625.484h-118.4l-.743.372a.372.372,0,0,0,.372.372H290.949a.372.372,0,1,0,0-.743Z" transform="translate(-169.882 -567.361)" fill="#3f3d56"/><circle cx="2.23" cy="2.23" r="2.23" transform="translate(0 56.088)" fill="#3f3d56"/><circle cx="2.23" cy="2.23" r="2.23" transform="translate(15.714 62.542)" fill="#e6e6e6"/><circle cx="2.23" cy="2.23" r="2.23" transform="translate(37.602 62.542)" fill="#e6e6e6"/><circle cx="2.23" cy="2.23" r="2.23" transform="translate(59.489 62.542)" fill="#e6e6e6"/><circle cx="2.23" cy="2.23" r="2.23" transform="translate(81.236 62.542)" fill="#e6e6e6"/><circle cx="2.23" cy="2.23" r="2.23" transform="translate(103.124 62.542)" fill="#e6e6e6"/><circle cx="2.23" cy="2.23" r="2.23" transform="translate(119.539 56.088)" fill="#3f3d56"/></g></g></svg>