<svg xmlns="http://www.w3.org/2000/svg" width="128" height="104" viewBox="0 0 128 104"><g transform="translate(10080 -2342)"><rect width="128" height="104" transform="translate(-10080 2342)" fill="#fff" opacity="0"/><g transform="translate(-10078 2347.497)"><path d="M655.175,640.052H617.731v-.306h37.5Z" transform="translate(-531.23 -550.162)" fill="#3f3d56"/><circle cx="1.079" cy="1.079" r="1.079" transform="translate(4.929 0.001)" fill="#e6e6e6"/><circle cx="1.079" cy="1.079" r="1.079" transform="translate(10.392 0.001)" fill="#e6e6e6"/><circle cx="1.079" cy="1.079" r="1.079" transform="translate(15.856 0.001)" fill="#e6e6e6"/><circle cx="1.079" cy="1.079" r="1.079" transform="translate(21.319 0.001)" fill="#e6e6e6"/><circle cx="1.079" cy="1.079" r="1.079" transform="translate(26.782 0.001)" fill="#e6e6e6"/><circle cx="1.079" cy="1.079" r="1.079" transform="translate(32.245 0.001)" fill="#e6e6e6"/><circle cx="1.079" cy="1.079" r="1.079" transform="translate(37.708 0.001)" fill="#e6e6e6"/><circle cx="1.079" cy="1.079" r="1.079" transform="translate(43.172 0.001)" fill="#e6e6e6"/><circle cx="1.079" cy="1.079" r="1.079" transform="translate(48.635 0.001)" fill="#e6e6e6"/><circle cx="1.079" cy="1.079" r="1.079" transform="translate(54.098 0.001)" fill="#e6e6e6"/><circle cx="1.079" cy="1.079" r="1.079" transform="translate(4.929 5.533)" fill="#e6e6e6"/><circle cx="1.079" cy="1.079" r="1.079" transform="translate(10.392 5.533)" fill="#e6e6e6"/><circle cx="1.079" cy="1.079" r="1.079" transform="translate(15.856 5.533)" fill="#e6e6e6"/><circle cx="1.079" cy="1.079" r="1.079" transform="translate(21.319 5.533)" fill="#66c4c5"/><circle cx="1.079" cy="1.079" r="1.079" transform="translate(26.782 5.533)" fill="#e6e6e6"/><circle cx="1.079" cy="1.079" r="1.079" transform="translate(32.245 5.533)" fill="#e6e6e6"/><circle cx="1.079" cy="1.079" r="1.079" transform="translate(37.708 5.533)" fill="#e6e6e6"/><circle cx="1.079" cy="1.079" r="1.079" transform="translate(43.172 5.533)" fill="#e6e6e6"/><circle cx="1.079" cy="1.079" r="1.079" transform="translate(48.635 5.533)" fill="#e6e6e6"/><circle cx="1.079" cy="1.079" r="1.079" transform="translate(54.098 5.533)" fill="#e6e6e6"/><circle cx="1.079" cy="1.079" r="1.079" transform="translate(4.929 11.064)" fill="#e6e6e6"/><circle cx="1.079" cy="1.079" r="1.079" transform="translate(10.392 11.064)" fill="#e6e6e6"/><circle cx="1.079" cy="1.079" r="1.079" transform="translate(15.856 11.064)" fill="#e6e6e6"/><circle cx="1.079" cy="1.079" r="1.079" transform="translate(21.319 11.064)" fill="#e6e6e6"/><circle cx="1.079" cy="1.079" r="1.079" transform="translate(26.782 11.064)" fill="#e6e6e6"/><circle cx="1.079" cy="1.079" r="1.079" transform="translate(32.245 11.064)" fill="#e6e6e6"/><circle cx="1.079" cy="1.079" r="1.079" transform="translate(37.708 11.064)" fill="#e6e6e6"/><circle cx="1.079" cy="1.079" r="1.079" transform="translate(43.172 11.064)" fill="#e6e6e6"/><circle cx="1.079" cy="1.079" r="1.079" transform="translate(48.635 11.064)" fill="#e6e6e6"/><circle cx="1.079" cy="1.079" r="1.079" transform="translate(54.098 11.064)" fill="#e6e6e6"/><circle cx="1.079" cy="1.079" r="1.079" transform="translate(4.929 16.596)" fill="#e6e6e6"/><circle cx="1.079" cy="1.079" r="1.079" transform="translate(10.392 16.596)" fill="#e6e6e6"/><circle cx="1.079" cy="1.079" r="1.079" transform="translate(15.856 16.596)" fill="#e6e6e6"/><circle cx="1.079" cy="1.079" r="1.079" transform="translate(21.319 16.596)" fill="#e6e6e6"/><circle cx="1.079" cy="1.079" r="1.079" transform="translate(26.782 16.596)" fill="#e6e6e6"/><circle cx="1.079" cy="1.079" r="1.079" transform="translate(32.245 16.596)" fill="#e6e6e6"/><circle cx="1.079" cy="1.079" r="1.079" transform="translate(37.708 16.596)" fill="#e6e6e6"/><circle cx="1.079" cy="1.079" r="1.079" transform="translate(43.172 16.596)" fill="#e6e6e6"/><circle cx="1.079" cy="1.079" r="1.079" transform="translate(48.635 16.596)" fill="#e6e6e6"/><circle cx="1.079" cy="1.079" r="1.079" transform="translate(54.098 16.596)" fill="#e6e6e6"/><circle cx="1.079" cy="1.079" r="1.079" transform="translate(4.929 22.128)" fill="#e6e6e6"/><circle cx="1.079" cy="1.079" r="1.079" transform="translate(10.392 22.128)" fill="#66c4c5"/><circle cx="1.079" cy="1.079" r="1.079" transform="translate(15.856 22.128)" fill="#e6e6e6"/><circle cx="1.079" cy="1.079" r="1.079" transform="translate(21.319 22.128)" fill="#e6e6e6"/><circle cx="1.079" cy="1.079" r="1.079" transform="translate(26.782 22.128)" fill="#e6e6e6"/><circle cx="1.079" cy="1.079" r="1.079" transform="translate(32.245 22.128)" fill="#e6e6e6"/><circle cx="1.079" cy="1.079" r="1.079" transform="translate(37.708 22.128)" fill="#e6e6e6"/><circle cx="1.079" cy="1.079" r="1.079" transform="translate(43.172 22.128)" fill="#e6e6e6"/><circle cx="1.079" cy="1.079" r="1.079" transform="translate(48.635 22.128)" fill="#e6e6e6"/><circle cx="1.079" cy="1.079" r="1.079" transform="translate(54.098 22.128)" fill="#e6e6e6"/><circle cx="1.079" cy="1.079" r="1.079" transform="translate(4.929 27.66)" fill="#e6e6e6"/><circle cx="1.079" cy="1.079" r="1.079" transform="translate(10.392 27.66)" fill="#e6e6e6"/><circle cx="1.079" cy="1.079" r="1.079" transform="translate(15.856 27.66)" fill="#e6e6e6"/><circle cx="1.079" cy="1.079" r="1.079" transform="translate(21.319 27.66)" fill="#e6e6e6"/><circle cx="1.079" cy="1.079" r="1.079" transform="translate(26.782 27.66)" fill="#e6e6e6"/><circle cx="1.079" cy="1.079" r="1.079" transform="translate(32.245 27.66)" fill="#e6e6e6"/><circle cx="1.079" cy="1.079" r="1.079" transform="translate(37.708 27.66)" fill="#e6e6e6"/><circle cx="1.079" cy="1.079" r="1.079" transform="translate(43.172 27.66)" fill="#e6e6e6"/><circle cx="1.079" cy="1.079" r="1.079" transform="translate(48.635 27.66)" fill="#e6e6e6"/><circle cx="1.079" cy="1.079" r="1.079" transform="translate(54.098 27.66)" fill="#e6e6e6"/><circle cx="1.079" cy="1.079" r="1.079" transform="translate(4.929 33.191)" fill="#e6e6e6"/><circle cx="1.079" cy="1.079" r="1.079" transform="translate(10.392 33.191)" fill="#e6e6e6"/><circle cx="1.079" cy="1.079" r="1.079" transform="translate(15.856 33.191)" fill="#66c4c5"/><circle cx="1.079" cy="1.079" r="1.079" transform="translate(21.319 33.191)" fill="#e6e6e6"/><circle cx="1.079" cy="1.079" r="1.079" transform="translate(26.782 33.191)" fill="#e6e6e6"/><circle cx="1.079" cy="1.079" r="1.079" transform="translate(32.245 33.191)" fill="#e6e6e6"/><circle cx="1.079" cy="1.079" r="1.079" transform="translate(37.708 33.191)" fill="#e6e6e6"/><circle cx="1.079" cy="1.079" r="1.079" transform="translate(43.172 33.191)" fill="#e6e6e6"/><circle cx="1.079" cy="1.079" r="1.079" transform="translate(48.635 33.191)" fill="#e6e6e6"/><circle cx="1.079" cy="1.079" r="1.079" transform="translate(54.098 33.191)" fill="#e6e6e6"/><circle cx="1.079" cy="1.079" r="1.079" transform="translate(4.929 38.723)" fill="#e6e6e6"/><circle cx="1.079" cy="1.079" r="1.079" transform="translate(10.392 38.723)" fill="#e6e6e6"/><circle cx="1.079" cy="1.079" r="1.079" transform="translate(15.856 38.723)" fill="#e6e6e6"/><circle cx="1.079" cy="1.079" r="1.079" transform="translate(21.319 38.723)" fill="#e6e6e6"/><circle cx="1.079" cy="1.079" r="1.079" transform="translate(26.782 38.723)" fill="#e6e6e6"/><circle cx="1.079" cy="1.079" r="1.079" transform="translate(32.245 38.723)" fill="#e6e6e6"/><circle cx="1.079" cy="1.079" r="1.079" transform="translate(37.708 38.723)" fill="#e6e6e6"/><circle cx="1.079" cy="1.079" r="1.079" transform="translate(43.172 38.723)" fill="#e6e6e6"/><circle cx="1.079" cy="1.079" r="1.079" transform="translate(48.635 38.723)" fill="#e6e6e6"/><circle cx="1.079" cy="1.079" r="1.079" transform="translate(54.098 38.723)" fill="#e6e6e6"/><circle cx="1.079" cy="1.079" r="1.079" transform="translate(4.929 44.255)" fill="#e6e6e6"/><circle cx="1.079" cy="1.079" r="1.079" transform="translate(10.392 44.255)" fill="#e6e6e6"/><circle cx="1.079" cy="1.079" r="1.079" transform="translate(15.856 44.255)" fill="#e6e6e6"/><circle cx="1.079" cy="1.079" r="1.079" transform="translate(21.319 44.255)" fill="#e6e6e6"/><circle cx="1.079" cy="1.079" r="1.079" transform="translate(26.782 44.255)" fill="#e6e6e6"/><circle cx="1.079" cy="1.079" r="1.079" transform="translate(32.245 44.255)" fill="#e6e6e6"/><circle cx="1.079" cy="1.079" r="1.079" transform="translate(37.708 44.255)" fill="#e6e6e6"/><circle cx="1.079" cy="1.079" r="1.079" transform="translate(43.172 44.255)" fill="#e6e6e6"/><circle cx="1.079" cy="1.079" r="1.079" transform="translate(48.635 44.255)" fill="#e6e6e6"/><circle cx="1.079" cy="1.079" r="1.079" transform="translate(54.098 44.255)" fill="#e6e6e6"/><circle cx="1.079" cy="1.079" r="1.079" transform="translate(4.929 49.787)" fill="#e6e6e6"/><circle cx="1.079" cy="1.079" r="1.079" transform="translate(10.392 49.787)" fill="#e6e6e6"/><circle cx="1.079" cy="1.079" r="1.079" transform="translate(15.856 49.787)" fill="#e6e6e6"/><circle cx="1.079" cy="1.079" r="1.079" transform="translate(21.319 49.787)" fill="#e6e6e6"/><circle cx="1.079" cy="1.079" r="1.079" transform="translate(26.782 49.787)" fill="#e6e6e6"/><circle cx="1.079" cy="1.079" r="1.079" transform="translate(32.245 49.787)" fill="#e6e6e6"/><circle cx="1.079" cy="1.079" r="1.079" transform="translate(37.708 49.787)" fill="#e6e6e6"/><circle cx="1.079" cy="1.079" r="1.079" transform="translate(43.172 49.787)" fill="#e6e6e6"/><circle cx="1.079" cy="1.079" r="1.079" transform="translate(48.635 49.787)" fill="#e6e6e6"/><circle cx="1.079" cy="1.079" r="1.079" transform="translate(54.098 49.787)" fill="#e6e6e6"/><path d="M162.877,168.01l12.809-22.445H150.055l-12.823,22.21,12.823,22.21H175.7l12.8-22.168Z" transform="translate(-118.015 -125.181)" fill="#3f3d56"/><path d="M368.714,154.353l.024-.042L355.916,132.1H355.9l-12.809,22.445Z" transform="translate(-295.05 -113.603)" fill="#66c4c5"/><path d="M813.852,241.13a1.979,1.979,0,0,1,0-2.138,1.081,1.081,0,0,1,.868-.366,1.1,1.1,0,0,1,.878.366,1.962,1.962,0,0,1,0,2.138,1.1,1.1,0,0,1-.878.366A1.081,1.081,0,0,1,813.852,241.13Zm1.244-.379a1.493,1.493,0,0,0,.119-.693,1.441,1.441,0,0,0-.122-.683.4.4,0,0,0-.373-.214.389.389,0,0,0-.363.214,1.476,1.476,0,0,0-.119.683,1.493,1.493,0,0,0,.119.689.388.388,0,0,0,.363.214A.4.4,0,0,0,815.1,240.751Zm-.422,2.639,2.718-4.7h.732l-2.725,4.7Zm2.524-.32a1.618,1.618,0,0,1-.313-1.079,1.583,1.583,0,0,1,.313-1.062,1.235,1.235,0,0,1,1.748,0,1.985,1.985,0,0,1,0,2.141,1.227,1.227,0,0,1-1.748,0Zm1.244-.383a1.494,1.494,0,0,0,.119-.689,1.442,1.442,0,0,0-.122-.683.423.423,0,0,0-.736,0,1.477,1.477,0,0,0-.119.683,1.5,1.5,0,0,0,.119.689.426.426,0,0,0,.739,0Z" transform="translate(-721.637 -221.72)" fill="#3f3d56"/><path d="M157.549,530.528a1.979,1.979,0,0,1,0-2.138,1.081,1.081,0,0,1,.868-.366,1.1,1.1,0,0,1,.878.366,1.962,1.962,0,0,1,0,2.138,1.1,1.1,0,0,1-.878.366A1.081,1.081,0,0,1,157.549,530.528Zm1.244-.379a1.493,1.493,0,0,0,.119-.693,1.441,1.441,0,0,0-.122-.683.4.4,0,0,0-.373-.214.389.389,0,0,0-.363.214,1.475,1.475,0,0,0-.119.683,1.493,1.493,0,0,0,.119.689.388.388,0,0,0,.363.214A.4.4,0,0,0,158.793,530.149Zm-.422,2.639,2.718-4.7h.732l-2.725,4.7Zm2.524-.32a1.618,1.618,0,0,1-.313-1.079,1.583,1.583,0,0,1,.313-1.062,1.235,1.235,0,0,1,1.748,0,1.985,1.985,0,0,1,0,2.141,1.227,1.227,0,0,1-1.748,0Zm1.244-.383a1.494,1.494,0,0,0,.119-.69,1.442,1.442,0,0,0-.122-.683.423.423,0,0,0-.736,0,1.476,1.476,0,0,0-.119.683,1.5,1.5,0,0,0,.119.69.426.426,0,0,0,.739,0Z" transform="translate(-157.236 -470.593)" fill="#3f3d56"/><path d="M438.264,150.954l-.166-.044,3.62-13.619h21v.172H441.85Z" transform="translate(-376.751 -118.066)" fill="#2f2e41"/><path d="M772.338,246.548a1.8,1.8,0,1,1,1.8-1.8A1.8,1.8,0,0,1,772.338,246.548Zm0-3.432a1.63,1.63,0,1,0,1.63,1.63,1.63,1.63,0,0,0-1.63-1.63Z" transform="translate(-684.656 -225.435)" fill="#2f2e41"/><circle cx="0.686" cy="0.686" r="0.686" transform="translate(86.995 18.625)" fill="#66c4c5"/><path d="M99.779,330.343l.166.044-3.62,13.619h-21v-.172H96.193Z" transform="translate(-64.778 -284.085)" fill="#2f2e41"/><path d="M209.244,532.342a1.8,1.8,0,1,1-1.8,1.8A1.8,1.8,0,0,1,209.244,532.342Zm0,3.432a1.63,1.63,0,1,0-1.63-1.63A1.63,1.63,0,0,0,209.244,535.774Z" transform="translate(-200.412 -474.308)" fill="#2f2e41"/><circle cx="0.686" cy="0.686" r="0.686" transform="translate(8.146 59.149)" fill="#66c4c5"/><rect width="2.605" height="3.543" transform="translate(100.702 86.998)" fill="#a0616a"/><rect width="2.605" height="3.543" transform="translate(113.936 86.998)" fill="#a0616a"/><path d="M992.913,496.7h0a1.546,1.546,0,0,1-1.527-1.785l.427-2.72.127-.809h1.98l.1,1.146.412,2.356a1.546,1.546,0,0,1-1.523,1.812Z" transform="translate(-874.564 -439.084)" fill="#a0616a"/><path d="M854.5,494.464h0a1.546,1.546,0,0,1-1.527-1.785l.427-2.72.127-.809h1.98l.1,1.146.412,2.356a1.546,1.546,0,0,1-1.523,1.812Z" transform="translate(-755.533 -437.164)" fill="#a0616a"/><path d="M728.9,406.985l-3.126-.1-5.106-30.844-5.106,30.948-3.022-.1-.834-35.638h17.506Z" transform="translate(-612.05 -319.257)" fill="#2f2e41"/><path d="M855.618,751.612c-2.652.077-4.729-.64-6.09-2.342a1.124,1.124,0,0,1-.085-1.28h0a1.124,1.124,0,0,1,1.094-.538l.862.1,1.795-.9c-.367,2.135.632,2.175,3.02,1.46l.43,2.206a1.083,1.083,0,0,1-1.027,1.292Z" transform="translate(-752.376 -658.611)" fill="#2f2e41"/><path d="M950.126,752.5c-2.652.077-4.729-.64-6.09-2.342a1.124,1.124,0,0,1-.085-1.28h0a1.124,1.124,0,0,1,1.094-.538l.862.1,1.781-.751c-.367,2.135.645,2.03,3.034,1.314l.43,2.206a1.083,1.083,0,0,1-1.027,1.292Z" transform="translate(-833.65 -659.503)" fill="#2f2e41"/><circle cx="4.168" cy="4.168" r="4.168" transform="translate(103.412 11.034)" fill="#a0616a"/><path d="M769.235,126.4l-4.481.208-.208-4.689,3.856-1.459Z" transform="translate(-657.487 -103.594)" fill="#a0616a"/><path d="M892.615,294.783c-6.11-1.156-13.072-1.57-17.715,0l1.459-30.636,4.9-1.459.365-.573,4.116-.677,1.98.625,1.25,1.876,5.419,3.022C891.719,277.279,890.929,286.653,892.615,294.783Z" transform="translate(-774.406 -241.339)" fill="#2f2e41"/><path d="M994.725,324.013l-4.481-.521c.934-4.551.552-10.469.782-16.412.146-3.769.927-7.2,1.2-11.41h0a3.718,3.718,0,0,1,2.589,3.881C994.861,308.37,995.694,316.634,994.725,324.013Z" transform="translate(-873.599 -270.777)" fill="#2f2e41"/><path d="M856.208,308.877l-4.377-.313,2.605-14.8.882-12.313c-.137-1.8.823-2.839,2.244-2.9h0c3.105,3.677,3.466,8.745,2.5,14.484Z" transform="translate(-754.567 -256.058)" fill="#2f2e41"/><path d="M886.745,195.752l-.538-1.53a5.019,5.019,0,0,0-3.977-3.3h0l-3.369-.077.935-1.5a4.571,4.571,0,0,1,4.334-2.133l3.367.336a3.05,3.05,0,0,1,2.734,3.318l-.309,3.311a2.086,2.086,0,0,1-3.178,1.577Z" transform="translate(-777.813 -177.486)" fill="#2f2e41"/></g></g></svg>