<svg xmlns="http://www.w3.org/2000/svg" width="128" height="104" viewBox="0 0 128 104"><g transform="translate(10080 -2513)"><rect width="128" height="104" transform="translate(-10080 2513)" fill="#fff" opacity="0"/><g transform="translate(-10078 2521.526)"><path d="M339.77,167.773H259.906a2.059,2.059,0,0,1-2.056-2.056V116.472a1.508,1.508,0,0,1,1.506-1.506h80.937a1.534,1.534,0,0,1,1.533,1.533v49.219A2.059,2.059,0,0,1,339.77,167.773Z" transform="translate(-238.49 -113.245)" fill="#f2f2f2"/><path d="M355.1,191.451H280.668a1.921,1.921,0,0,1-1.979-1.853V146.715a1.424,1.424,0,0,1,1.466-1.374h75.431a1.448,1.448,0,0,1,1.491,1.4V189.6A1.921,1.921,0,0,1,355.1,191.451Z" transform="translate(-256.732 -139.835)" fill="#fff"/><path d="M341.595,104.269H257.618v-1.047a2.065,2.065,0,0,1,2.064-2.062h79.849a2.065,2.065,0,0,1,2.064,2.062Z" transform="translate(-238.287 -101.159)" fill="#ccc"/><circle cx="0.534" cy="0.534" r="0.534" transform="translate(22.548 1.024)" fill="#fff"/><circle cx="0.534" cy="0.534" r="0.534" transform="translate(24.574 1.024)" fill="#fff"/><circle cx="0.534" cy="0.534" r="0.534" transform="translate(26.601 1.024)" fill="#fff"/><path d="M405.6,235.509h-57.68a2.183,2.183,0,0,1-2.181-2.181v-27.81a1.633,1.633,0,0,1,1.631-1.631h58.754a1.659,1.659,0,0,1,1.657,1.657v27.784A2.183,2.183,0,0,1,405.6,235.509Zm-58.23-31.373a1.383,1.383,0,0,0-1.382,1.382v27.81a1.934,1.934,0,0,0,1.932,1.932H405.6a1.934,1.934,0,0,0,1.932-1.932V205.544a1.409,1.409,0,0,0-1.408-1.408Z" transform="translate(-315.422 -191.084)" fill="#ccc"/><path d="M365.228,248.817h53.692a1.994,1.994,0,0,0,1.994-1.994V223.575a1.994,1.994,0,0,0-1.994-1.994H365.228a1.994,1.994,0,0,0-1.994,1.994v23.248A1.994,1.994,0,0,0,365.228,248.817Z" transform="translate(-330.741 -206.573)" fill="#f2f2f2"/><circle cx="1.122" cy="1.122" r="1.122" transform="translate(39.462 19.528)" fill="#ccc"/><circle cx="1.122" cy="1.122" r="1.122" transform="translate(39.462 23.765)" fill="#ccc"/><circle cx="1.122" cy="1.122" r="1.122" transform="translate(39.462 28.002)" fill="#ccc"/><circle cx="1.122" cy="1.122" r="1.122" transform="translate(39.462 32.239)" fill="#ccc"/><path d="M509.167,266.1H472.278a.125.125,0,1,1,0-.249h36.888a.125.125,0,1,1,0,.249Z" transform="translate(-426.086 -245.33)" fill="#ccc"/><path d="M509.167,300.1H472.278a.125.125,0,1,1,0-.249h36.888a.125.125,0,1,1,0,.249Z" transform="translate(-426.086 -275.093)" fill="#ccc"/><path d="M509.167,334.1H472.278a.125.125,0,1,1,0-.249h36.888a.125.125,0,1,1,0,.249Z" transform="translate(-426.086 -304.855)" fill="#ccc"/><path d="M509.167,368.1H472.278a.125.125,0,1,1,0-.249h36.888a.125.125,0,1,1,0,.249Z" transform="translate(-426.086 -334.618)" fill="#ccc"/><path d="M499.391,371.466h-3.614a.624.624,0,0,1-.623-.623v-3.365a.624.624,0,0,1,.623-.623h3.614a.624.624,0,0,1,.623.623v3.365A.624.624,0,0,1,499.391,371.466Z" transform="translate(-446.22 -333.743)" fill="#66c4c5"/><path d="M564.391,341.7h-3.614a.624.624,0,0,1-.623-.623v-7.6a.624.624,0,0,1,.623-.623h3.614a.624.624,0,0,1,.623.623v7.6A.624.624,0,0,1,564.391,341.7Z" transform="translate(-503.119 -303.98)" fill="#66c4c5"/><path d="M630.391,311.94h-3.614a.624.624,0,0,1-.623-.623V299.478a.624.624,0,0,1,.623-.623h3.614a.624.624,0,0,1,.623.623v11.839A.624.624,0,0,1,630.391,311.94Z" transform="translate(-560.894 -274.217)" fill="#66c4c5"/><path d="M698.391,283.053h-3.614a.624.624,0,0,1-.623-.623V266.478a.624.624,0,0,1,.623-.623h3.614a.624.624,0,0,1,.623.623V282.43A.624.624,0,0,1,698.391,283.053Z" transform="translate(-620.42 -245.33)" fill="#66c4c5"/><path d="M509.167,402.1H472.278a.125.125,0,1,1,0-.249h36.888a.125.125,0,1,1,0,.249Z" transform="translate(-426.086 -364.381)" fill="#3f3d56"/><path d="M897.7,574.53a1.253,1.253,0,0,1,1.909-.217l3.957-2.042-.246,2.3-3.72,1.587a1.26,1.26,0,0,1-1.9-1.628Z" transform="translate(-798.416 -513.559)" fill="#ffb8b8"/><path d="M922.805,516.709a.561.561,0,0,1-.19-.276l-.315-1.017a.563.563,0,0,1,.2-.613l3.208-2.423,3.474-6.445a1.807,1.807,0,1,1,2.854,2.216l-1.976,4.171a5.779,5.779,0,0,1-2.924,2.828l-3.759,1.63a.561.561,0,0,1-.569-.073Z" transform="translate(-820.113 -454.88)" fill="#3f3d56"/><circle cx="3.061" cy="3.061" r="3.061" transform="translate(108.947 42.245)" fill="#ffb8b8"/><path d="M872.976,644.341h-1.528l-.727-5.893h2.255Z" transform="translate(-762.21 -558.883)" fill="#ffb8b8"/><path d="M854.764,682.233h2.947v1.855h-4.8A1.855,1.855,0,0,1,854.764,682.233Z" transform="translate(-746.616 -597.211)" fill="#2f2e41"/><path d="M912.976,644.342h-1.528l-.727-5.893h2.255Z" transform="translate(-797.225 -558.883)" fill="#ffb8b8"/><path d="M894.764,682.234h2.947v1.855h-4.8A1.855,1.855,0,0,1,894.764,682.234Z" transform="translate(-781.631 -597.212)" fill="#2f2e41"/><path d="M965.665,629.516h-1.79a.562.562,0,0,1-.541-.415l-2.577-9.559a.062.062,0,0,0-.122.02l.521,9.065a.561.561,0,0,1-.607.591l-2.012-.168a.562.562,0,0,1-.51-.494l-1.833-19.036.709.426,6.646-1.128,2.674,20.063a.561.561,0,0,1-.556.635Z" transform="translate(-849.802 -545.552)" fill="#2f2e41"/><path d="M957.492,514.3a4.1,4.1,0,0,1-2.08-.585.558.558,0,0,1-.266-.572c.234-1.431,1.456-8.774,2.568-12.778a3.161,3.161,0,0,1,2.977-2.61,4.235,4.235,0,0,1,4.412,3.888c.364,4.044-1.113,9.789-1.765,12.072a.56.56,0,0,1-.883.287l-1.329-1.034a.44.44,0,0,0-.563.023A4.563,4.563,0,0,1,957.492,514.3Z" transform="translate(-848.88 -448.326)" fill="#3f3d56"/><path d="M903.283,443.738l1.122,4.736-1.62,3.988,1.122-3.863Z" transform="translate(-790.276 -388.438)" opacity="0.2"/><path d="M982.193,438.5a2.061,2.061,0,0,0,.8-.144c.111-.043.227-.078.338-.121a2.744,2.744,0,0,0,1.653-2.478,3.569,3.569,0,0,0-1.331-2.748,5.153,5.153,0,0,0-2.908-1.1,3.3,3.3,0,0,0-3.036,1.142.992.992,0,0,0-.186.858.549.549,0,0,0,.155.238c.282.251.564.062.851.046a.941.941,0,0,1,.878.672,2.026,2.026,0,0,1-.032,1.17,2.923,2.923,0,0,0-.147.712.715.715,0,0,0,.3.63.817.817,0,0,0,.819-.086,5.683,5.683,0,0,1,.728-.466.644.644,0,0,1,.781.158.865.865,0,0,1,.1.285c.139.635.107.6.247,1.232Z" transform="translate(-868.438 -390.68)" fill="#2f2e41"/><path d="M836.4,588.958l-19.167-6.675a1.316,1.316,0,0,1-.809-1.673l4.981-14.3a.964.964,0,0,1,1.226-.593l19.814,6.9a.98.98,0,0,1,.6,1.247l-4.975,14.286A1.316,1.316,0,0,1,836.4,588.958Z" transform="translate(-727.387 -507.774)" fill="#e6e6e6"/><path d="M830.54,593.911l16.76,5.837a1.274,1.274,0,0,0,1.622-.784l4.022-11.548a1.274,1.274,0,0,0-.784-1.622l-16.76-5.837a1.274,1.274,0,0,0-1.622.784l-4.022,11.548A1.274,1.274,0,0,0,830.54,593.911Z" transform="translate(-739.06 -520.225)" fill="#fff"/><path d="M863.642,617.013l-.83-.289a.18.18,0,0,1-.111-.229l.289-.83a.18.18,0,0,1,.229-.111l.83.289a.18.18,0,0,1,.111.229l-.289.83A.18.18,0,0,1,863.642,617.013Z" transform="translate(-767.954 -551.44)" fill="#66c4c5"/><path d="M857.633,634.269l-.83-.289a.18.18,0,0,1-.111-.229l.289-.83a.18.18,0,0,1,.229-.111l.83.289a.18.18,0,0,1,.111.229l-.289.83A.18.18,0,0,1,857.633,634.269Z" transform="translate(-762.693 -566.546)" fill="#3f3d56"/><path d="M851.623,651.525l-.83-.289a.18.18,0,0,1-.111-.229l.289-.83a.18.18,0,0,1,.229-.111l.83.289a.18.18,0,0,1,.111.229l-.289.83A.18.18,0,0,1,851.623,651.525Z" transform="translate(-757.433 -581.651)" fill="#ccc"/><path d="M886.135,626.942l-4-1.393a.18.18,0,0,1,.118-.34l4,1.393a.18.18,0,0,1-.118.34Z" transform="translate(-784.87 -559.892)" fill="#ccc"/><path d="M880.126,644.2l-4-1.393a.18.18,0,0,1,.118-.34l4,1.393a.18.18,0,0,1-.118.34Z" transform="translate(-779.609 -574.998)" fill="#ccc"/><path d="M874.116,661.455l-4-1.393a.18.18,0,0,1,.118-.34l4,1.393a.18.18,0,1,1-.118.34Z" transform="translate(-774.348 -590.104)" fill="#ccc"/><path d="M963.5,647.841c.029-.07.057-.141.082-.213a3.768,3.768,0,0,0-2.319-4.8l-1.315,3.774Z" transform="translate(-853.093 -575.325)" fill="#66c4c5"/><path d="M930.933,646.967l1.314-3.774a3.768,3.768,0,1,0,2.238,5.012Z" transform="translate(-824.457 -575.458)" fill="#3f3d56"/><path d="M994.616,593.592a1.253,1.253,0,0,1,1.368-1.349l1.854-4.049,1.226,1.963-1.948,3.544a1.26,1.26,0,0,1-2.5-.108Z" transform="translate(-883.434 -527.498)" fill="#ffb8b8"/><path d="M1008.928,520.142a.562.562,0,0,1-.32-.1l-.875-.606a.563.563,0,0,1-.223-.6l1.029-3.886-1.244-7.215a1.807,1.807,0,1,1,3.613-.017l1.019,4.5a5.78,5.78,0,0,1-.555,4.03l-1.952,3.6a.562.562,0,0,1-.363.278A.555.555,0,0,1,1008.928,520.142Z" transform="translate(-894.537 -455.474)" fill="#3f3d56"/><path d="M929.3,797.09H905.625a.125.125,0,0,1,0-.249H929.3a.125.125,0,0,1,0,.249Z" transform="translate(-805.428 -710.143)" fill="#ccc"/><path d="M490.539,643.844h1.528l.727-5.893h-2.255Z" transform="translate(-429.406 -558.448)" fill="#a0616a"/><path d="M589.914,782.4h3.009a1.917,1.917,0,0,1,1.917,1.918v.062h-4.926Z" transform="translate(-529.171 -697.497)" fill="#2f2e41"/><path d="M441.539,643.844h1.528l.727-5.893h-2.255Z" transform="translate(-386.513 -558.448)" fill="#a0616a"/><path d="M540.914,782.4h3.009a1.917,1.917,0,0,1,1.918,1.918v.062h-4.926Z" transform="translate(-486.277 -697.497)" fill="#2f2e41"/><circle cx="3.061" cy="3.061" r="3.061" transform="translate(58.377 38.476)" fill="#a0616a"/><path d="M547.144,595.152h-2.835a.561.561,0,0,1-.561-.568l.165-13.463a.187.187,0,0,0-.373-.025l-1.65,13.563a.561.561,0,0,1-.557.493h-2.862a.561.561,0,0,1-.559-.6l1.89-24.186.051-.006,9.051-.978-1.2,25.24A.56.56,0,0,1,547.144,595.152Z" transform="translate(-483.648 -511.027)" fill="#2f2e41"/><path d="M549.865,483.116a.56.56,0,0,1-.559-.543,44.409,44.409,0,0,1,.85-10.706,5.1,5.1,0,0,1,4.71-3.843h0a5.132,5.132,0,0,1,5.055,3.243c1.654,4.2,3.218,9.377,1.269,10.189-2.554,1.064-9.287,1.539-11.29,1.659Z" transform="translate(-493.601 -422.298)" fill="#3f3d56"/><path d="M637.293,394.079a1.315,1.315,0,0,0,.155.136l-.321,6.172-1.336.684.769,2.152,2.484-.981a1,1,0,0,0,.626-1.02l-.651-7a1.308,1.308,0,1,0-1.726-.142Z" transform="translate(-569.33 -355.636)" fill="#a0616a"/><path d="M616.338,459.464l.94,2.672a.561.561,0,0,1-.422.737l-2.772.537a1.557,1.557,0,1,1-1.025-2.941l2.489-1.314a.561.561,0,0,1,.791.31Z" transform="translate(-548.516 -414.483)" fill="#3f3d56"/><path d="M524.737,394.079a1.312,1.312,0,0,1-.155.136l.321,6.172,1.336.684-.769,2.152-2.484-.981a1,1,0,0,1-.626-1.02l.651-7a1.308,1.308,0,1,1,1.726-.142Z" transform="translate(-470.032 -355.636)" fill="#a0616a"/><path d="M536.086,459.127a.56.56,0,0,1,.466.026l2.489,1.314a1.557,1.557,0,0,1-1.025,2.941l-2.772-.537a.561.561,0,0,1-.422-.737l.94-2.672A.56.56,0,0,1,536.086,459.127Z" transform="translate(-480.917 -414.482)" fill="#3f3d56"/><path d="M567.911,396.468a2.012,2.012,0,0,1,1.127-1.89,2.224,2.224,0,0,0,1.259-2.44,2.688,2.688,0,0,0-3.278-1.562,6.052,6.052,0,0,0-1.029.478l-.863.462a8.945,8.945,0,0,0-1.064.628,3.529,3.529,0,0,0-1.4,3.306,4.718,4.718,0,0,0,2.058,3.1,3.481,3.481,0,0,0,1.411.627,1.874,1.874,0,0,0,1.488-.337,1.957,1.957,0,0,0,.343-2.071A1.5,1.5,0,0,1,567.911,396.468Z" transform="translate(-505.285 -354.41)" fill="#2f2e41"/><path d="M521.3,797.09H497.625a.125.125,0,0,1,0-.249H521.3a.125.125,0,0,1,0,.249Z" transform="translate(-448.274 -710.143)" fill="#ccc"/><path d="M186.1,497.149l-19.538,8.015a1.369,1.369,0,0,1-1.784-.746L158.8,489.84a1,1,0,0,1,.547-1.307l20.2-8.286a1.02,1.02,0,0,1,1.33.556l5.974,14.563A1.369,1.369,0,0,1,186.1,497.149Z" transform="translate(-151.718 -432.937)" fill="#e6e6e6"/><path d="M180.537,516.686l17.085-7.009a1.326,1.326,0,0,0,.723-1.73l-4.83-11.772a1.326,1.326,0,0,0-1.73-.723L174.7,502.46a1.326,1.326,0,0,0-.723,1.73l4.83,11.772A1.326,1.326,0,0,0,180.537,516.686Z" transform="translate(-164.983 -446.227)" fill="#fff"/><rect width="0.271" height="0.045" transform="translate(28.187 53.262) rotate(-22.306)" fill="#e6e6e6"/><path d="M214.132,530.257l-.507.208-.017-.042.507-.208Zm-1.015.416-.507.208-.017-.042.507-.208Zm-1.015.416-.507.208-.017-.042.507-.208Zm-1.015.416-.507.208-.017-.042.507-.208Zm-1.015.416-.507.208-.017-.042.507-.208Zm-1.015.416-.507.208-.017-.042.507-.208Zm-1.015.416-.507.208-.017-.042.507-.208Zm-1.015.416-.507.208-.017-.042.507-.208Zm-1.015.416-.507.208-.017-.042.507-.208ZM205,534l-.507.208-.017-.042.507-.208Zm-1.015.416-.507.208-.017-.042.507-.208Zm-1.015.416-.507.208-.017-.042.507-.208Zm-1.015.416-.507.208-.017-.042.507-.208Zm-1.015.416-.507.208-.017-.042.507-.208Zm-1.015.416-.507.208-.017-.042.507-.208Zm-1.015.416-.507.208-.017-.042.507-.208Z" transform="translate(-186.435 -476.745)" fill="#e6e6e6"/><rect width="0.271" height="0.045" transform="translate(11.191 60.235) rotate(-22.306)" fill="#e6e6e6"/><rect width="0.271" height="0.045" transform="translate(21.538 60.539) rotate(-22.306)" fill="#e6e6e6"/><path d="M218.656,588.621l-.5.205-.017-.042.5-.205Zm-1,.41-.5.205-.017-.042.5-.205Zm-1,.41-.5.205-.017-.042.5-.205Zm-1,.41-.5.205-.017-.042.5-.205Zm-1,.41-.5.205-.017-.042.5-.205Zm-1,.41-.5.205-.017-.042.5-.205Zm-1,.41-.5.205-.017-.042.5-.205Zm-1,.41-.5.205-.017-.042.5-.205Z" transform="translate(-197.602 -527.835)" fill="#e6e6e6"/><rect width="0.271" height="0.045" transform="translate(12.788 64.128) rotate(-22.306)" fill="#e6e6e6"/><rect width="0.271" height="0.045" transform="translate(17.395 64.39) rotate(-22.306)" fill="#e6e6e6"/><path d="M219.909,619.573l-.514.211-.017-.042.514-.211Zm-1.029.422-.514.211-.017-.042.514-.211Zm-1.029.422-.514.211-.017-.042.514-.211Z" transform="translate(-203.011 -554.93)" fill="#e6e6e6"/><rect width="0.271" height="0.045" transform="translate(13.544 65.97) rotate(-22.306)" fill="#e6e6e6"/><rect width="0.271" height="0.045" transform="translate(18.685 67.533) rotate(-22.306)" fill="#e6e6e6"/><path d="M230.257,644.8l-.514.211-.017-.042.514-.211Zm-1.029.422-.514.211-.017-.042.514-.211Zm-1.029.422-.514.211-.017-.042.514-.211Z" transform="translate(-212.069 -577.01)" fill="#e6e6e6"/><rect width="0.271" height="0.045" transform="translate(14.833 69.113) rotate(-22.306)" fill="#e6e6e6"/><path d="M233.132,546.767l14.478-5.94a1.431,1.431,0,0,0,.78-1.865l-2.925-7.13-.028.013-3.553,8.5-2.635-1.1a.342.342,0,0,0-.3.019.364.364,0,0,0-.151.179l-1.862,4.452-1.927-.805a.343.343,0,0,0-.449.184C234.544,543.3,233.356,546.212,233.132,546.767Z" transform="translate(-216.853 -478.161)" fill="#66c4c5"/><path d="M232.482,546.258l-.042-.017,1.49-3.562a.385.385,0,0,1,.5-.206l1.889.79,1.851-4.427a.385.385,0,0,1,.5-.206l2.6,1.086,3.571-8.54.042.017-3.589,8.581-2.639-1.1a.339.339,0,0,0-.444.182l-1.869,4.469-1.93-.807a.34.34,0,0,0-.444.182Z" transform="translate(-216.246 -477.585)" fill="#3f3d56"/><circle cx="0.317" cy="0.317" r="0.317" transform="translate(17.338 63.991)" fill="#3f3d56"/><circle cx="0.317" cy="0.317" r="0.317" transform="translate(21.481 60.14)" fill="#3f3d56"/><circle cx="0.317" cy="0.317" r="0.317" transform="translate(27.931 52.852)" fill="#3f3d56"/><path d="M174.006,536.512a1.258,1.258,0,0,0,.45-1.876l.941-9.2h-2.033l-.748,8.981a1.265,1.265,0,0,0,1.39,2.092Z" transform="translate(-163.488 -472.563)" fill="#ffb8b8"/><circle cx="2.876" cy="2.876" r="2.876" transform="translate(9.509 42.046)" fill="#ffb8b8"/><path d="M187.683,500.953a.526.526,0,0,1-.507-.386,29.086,29.086,0,0,0-1.782-4.208,3.485,3.485,0,0,1,1.979-4.812h0a3.484,3.484,0,0,1,4.477,2.219,17.24,17.24,0,0,1,.653,5.749.528.528,0,0,1-.414.488l-4.293.937A.523.523,0,0,1,187.683,500.953Z" transform="translate(-174.757 -442.722)" fill="#ff6584"/><path d="M137.08,647.526h1.436l.683-5.538H137.08Z" transform="translate(-119.997 -561.981)" fill="#ffb8b8"/><path d="M0,0H4.512V1.743H1.743A1.743,1.743,0,0,1,0,0Z" transform="translate(21.288 86.878) rotate(179.997)" fill="#2f2e41"/><path d="M21.882,637.408l1.258.692,3.267-4.524-1.857-1.021Z" transform="translate(-19.155 -553.724)" fill="#ffb8b8"/><path d="M0,0H4.512V1.743H1.743A1.743,1.743,0,0,1,0,0Z" transform="translate(5.769 86.877) rotate(-151.199)" fill="#2f2e41"/><path d="M147.961,579.854a.527.527,0,0,1-.522-.459l-1.8-13.836a.293.293,0,0,0-.547-.1l-7.483,13.576a.53.53,0,0,1-.649.238l-1.631-.621a.527.527,0,0,1-.3-.691l5.184-12.734a.407.407,0,0,0,.026-.1c.7-5.434,2.488-8.2,3.019-8.915a.408.408,0,0,0,.058-.372l-.073-.219a.527.527,0,0,1,.1-.513c1.913-2.178,5.246-.99,5.279-.977l.017.006.01.014c3.738,5.126,2.356,21.776,2.041,25.061a.525.525,0,0,1-.484.474l-2.21.17Z" transform="translate(-130.944 -497.383)" fill="#2f2e41"/><path d="M238.327,481.774a1.231,1.231,0,0,0-.028.192l-5.031,2.9-1.223-.7-1.3,1.707,2.044,1.457a.937.937,0,0,0,1.124-.027l5.188-4.092a1.229,1.229,0,1,0-.77-1.434Z" transform="translate(-214.76 -433.51)" fill="#ffb8b8"/><path d="M215.741,497.65l-1.626,2.107a.527.527,0,0,1-.8.044l-1.841-1.911a1.464,1.464,0,0,1,1.795-2.312l2.309,1.291a.527.527,0,0,1,.16.782Z" transform="translate(-197.401 -446.155)" fill="#ff6584"/><path d="M177.656,509.512l-2.619-.473a.527.527,0,0,1-.406-.687l.849-2.514a1.464,1.464,0,0,1,2.879.529l-.083,2.644a.527.527,0,0,1-.62.5Z" transform="translate(-165.618 -454.356)" fill="#ff6584"/><path d="M132.823,431.39c.739.506,1.71,1.026,2.465.487a1.374,1.374,0,0,0,.451-1.584,3.379,3.379,0,0,0-2.3-1.838,6.619,6.619,0,0,0-3.854-.49,2.735,2.735,0,0,0-2.171,2.854c.185,1.042,1.168,1.908,1.028,2.957s-1.327,1.611-2.375,1.8-2.22.249-2.973,1a2.794,2.794,0,0,0,.183,3.69,6.734,6.734,0,0,0,3.59,1.786A8.734,8.734,0,0,0,132.17,442c1.663-.687,2.958-2.536,2.476-4.27a5.957,5.957,0,0,0-1.146-1.954,5.445,5.445,0,0,1-1.109-1.972,2.05,2.05,0,0,1,.37-1.793.52.52,0,0,0,.07-.607Z" transform="translate(-119.983 -387.129)" fill="#2f2e41"/><path d="M126.3,797.09H102.625a.125.125,0,0,1,0-.249H126.3a.125.125,0,0,1,0,.249Z" transform="translate(-102.5 -710.143)" fill="#ccc"/></g></g></svg>