<svg xmlns="http://www.w3.org/2000/svg" width="415" height="552" viewBox="0 0 415 552"><g transform="translate(1 1)"><rect width="415" height="552" transform="translate(-1 -1)" fill="none"/><path fill="#e5e5e5"/><path fill="#e5e5e5"/><path fill="#e5e5e5"/><path d="M94.881,249.573c-14.2-1.138-15.68-2.821-15.759-17.863-.074-14.11-2.045-18.816-9.282-22.153-4.825-2.225-5.166-2.228-13.815-.136a127.313,127.313,0,0,0-15.509,4.9c-9.448,3.927-14.355,4.579-18.638,2.478-5.192-2.547-13.074-8.677-12.208-9.5.406-.383-.178-1.561-1.3-2.617-1.188-1.122-2.033-3.871-2.033-6.611,0-4.275.338-4.754,3.812-5.411,4.009-.757,6.592-3.86,6.059-7.275-.865-5.544,1.891-11.65,8.44-18.7,3.743-4.028,6.806-7.733,6.806-8.234,0-1.127,6.949-8.916,14.3-16.028,3.034-2.936,5.9-6.54,6.369-8.008a3.586,3.586,0,0,1,3.655-2.669c3.089,0,5.818-2.029,5.818-4.326,0-4.756,16.328-25.334,20.1-25.334.579,0,1.691-1.826,2.471-4.057s2.177-4.653,3.106-5.381,2.055-3.173,2.5-5.434c.843-4.244,2.345-5.209,4.094-2.627.552.816,3.476,2.676,6.5,4.133,5.183,2.5,5.685,2.542,8.941.726,3.184-1.777,3.914-1.776,9.478.015,3.316,1.067,6.18,1.8,6.364,1.623,1.939-1.831,5.517-12.894,5.517-17.056a13.191,13.191,0,0,1,3.181-9.259c2.84-3.518,4.048-4.027,11.287-4.759,7.04-.712,8.451-1.276,10.72-4.286,1.9-2.521,3.647-3.466,6.408-3.466,4.76,0,8.494-3.982,8.551-9.117a22.163,22.163,0,0,1,1.206-6.672c1.35-3.354,9.4-8.46,11.91-7.551.939.34,2.968-.215,4.508-1.234,2.4-1.586,2.707-2.628,2.158-7.236-.451-3.777-.1-5.9,1.174-7.1a11.173,11.173,0,0,0,2.5-4.967c.467-2.207,2.074-3.876,5-5.2,6.2-2.792,7.315-2.476,8.857,2.5.758,2.447,1.989,6.051,2.736,8.008a53.517,53.517,0,0,1,2.01,6.689c.482,2.311,2,3.64,5.816,5.081,2.922,1.1,5.439,2.948,5.8,4.246a4.891,4.891,0,0,0,2.992,3c2.018.6,1.434,1.529-4.067,6.434-6.289,5.607-6.406,5.837-5.592,10.964,1.029,6.484-3.771,18.042-7.918,19.067C205.7,70.214,204,75.239,205.872,81.1c1.992,6.224,2,6.9.148,15.908-1.4,6.79-1.853,7.5-5.707,8.813-2.971,1.015-5.126,3.056-7.407,7.015-1.769,3.071-3.217,6.236-3.217,7.032s-1.638,3.4-3.641,5.791c-2.622,3.127-3.9,6.285-4.559,11.287-1.094,8.269-4.263,11.561-11.49,11.933a22.373,22.373,0,0,0-9.684,3.419c-2.687,1.744-5.409,3.172-6.049,3.172s-3.18,1.452-5.644,3.228l-4.48,3.228.713,10.394c.437,6.37.229,10.677-.537,11.124a8.794,8.794,0,0,0-2.4,3.581,4.226,4.226,0,0,1-3.666,2.851c-1.727,0-2.757,1.025-3.276,3.263a34.644,34.644,0,0,1-2.715,6.932c-1.793,3.36-1.773,4.127.239,9.1,2.228,5.512,1.875,7.989-1.14,7.989-2.456,0-5.279,4.688-6.316,10.489-.5,2.8-1.632,5.36-2.513,5.679s-2.585,2.641-3.788,5.161c-1.79,3.75-3.582,5.18-9.89,7.892-9.252,3.977-7.877,3.665-13.984,3.175Z" fill="#6667ab" opacity="0.55"/><path d="M130.674,292.39c0-.589-1.554-1.678-3.454-2.42s-4.941-2.128-6.76-3.08c-2.832-1.482-3.912-1.5-7.535-.106a52.334,52.334,0,0,1-10.509,2.332l-6.279.708-5.024-9.72a64.214,64.214,0,0,0-12.948-17.38c-4.359-4.213-9.7-9.776-11.868-12.362-6.542-7.8-16.985-11.619-36.018-13.162-17.071-1.384-18.77-2.043-25.893-10.04L.992,223.348l2.3-4.984c4.427-9.606,4.515-9.646,10.057-4.542,6.409,5.9,11.825,7.658,18.611,6.032,5.261-1.261,10.933-3.526,12.061-4.817,1.4-1.609,19.15-5.993,21.755-5.375,1.542.366,4.39,2.228,6.328,4.139,3.788,3.735,5.7,12.506,5.785,26.539.039,6.446.248,6.893,4.123,8.785,5.439,2.657,19.782,4.134,22.292,2.3a60.858,60.858,0,0,1,8.17-4.058c5.432-2.314,6.837-3.676,10.341-10.026a62.4,62.4,0,0,0,4.808-10.493c.794-3.317,4.845-8.125,6.847-8.125,2.392,0,2.691-5.939.565-11.2-2.01-4.971-2.019-5.579-.123-8.311a11.3,11.3,0,0,0,2.045-4.831c0-1.036,1.621-2.417,3.6-3.07,5.39-1.775,7.45-7.855,6.717-19.822-.392-6.39-.141-9.715.732-9.715a5.741,5.741,0,0,0,2.987-1.491c3.637-3.269,18.165-9.561,21.588-9.35,5.507.34,10.249-5.024,11.209-12.679a24.658,24.658,0,0,1,4.667-11.494,43.822,43.822,0,0,0,5.186-9.193q3.084-9.191,5.551-9.181c3.377,0,7.291-4.679,9.5-11.351,2.774-8.4,2.882-11.966.479-15.936-2.844-4.7-3.117-7.3,1.57-10.724,3.956-2.886,4.843-4.016,7.327-10.139,2.962-7.3,1.821-10.576.289-12.965-.409-.637.015-.49.115-1.175.118-.8.229-.7.474-1,.319-.387,2.936-1.931,6.185-4.789,5.582-4.911,13.123-7.792,16-6.112a1.481,1.481,0,0,0,1.937-.536,3.881,3.881,0,0,1,2.93-1.2c1.535,0,2.551,1.616,3.544,5.635,1.227,4.969,1.1,6.022-1.06,8.9-1.348,1.8-2.319,4.466-2.157,5.932a12.276,12.276,0,0,1-1.285,5.755c-1.358,2.656-1.21,3.774,1.051,7.961,1.447,2.679,2.63,5.508,2.63,6.286s-2.826,4.238-6.279,7.688c-5.066,5.061-6.279,7.072-6.279,10.411,0,2.276.887,4.977,1.972,6,2.392,2.26,7.371,3.562,9.991,2.612,1.092-.4,2.84.317,4.049,1.652a8.551,8.551,0,0,0,6.156,2.348c3.8,0,4.139.363,6.051,6.575,1.965,6.387,1.944,6.709-.739,11.218-2.984,5.015-2.234,7.433,2.772,8.933a5.85,5.85,0,0,1,3.225,3.9,23.965,23.965,0,0,0,2.316,5.556,44.39,44.39,0,0,1,3.17,7.5c1.3,3.959,3.272,6.262,8.676,10.135,6.764,4.849,7,5.216,7.374,11.245.324,5.294.847,6.432,3.474,7.563l3.093,1.331L295,180.36c-1.513,1.522-3.743,2.767-4.955,2.767-3.041,0-6.15,3.2-6.15,6.334,0,1.433-1.374,4.516-3.054,6.851a31.331,31.331,0,0,0-4.119,8.129c-.914,3.331-1.686,3.938-5.423,4.264a64.776,64.776,0,0,0-6.87.953,31.544,31.544,0,0,1-4.1.664c-.873.05-2.95,2.907-4.617,6.348-2.554,5.275-3.976,6.669-9.051,8.874-3.932,1.709-6.448,2.213-7.251,1.454-1.837-1.735-7.087-1.307-11.917.971-4.412,2.081-4.784,2.533-8.214,9.992-1.647,3.583-3,4.66-7.18,5.724-2.833.721-6.392,1.016-7.908.657-2.914-.691-5.763,2.059-9.831,9.489-1.6,2.915-3.676,4.205-10.066,6.244-7.381,2.355-8.358,2.421-11.684.782-8.033-3.958-12.585-1.812-27.71,13.064-4.955,4.874-9.557,8.861-10.227,8.861-1.883,0-2.751,3.219-1.922,7.131.478,2.256.237,3.546-.662,3.546a1.282,1.282,0,0,1-1.413-1.07Z" fill="#6667ab" opacity="0.88"/><path d="M228.521,347.738c-.061-.816-.035-3.885.059-6.822a38.716,38.716,0,0,0-2.2-11.864L224,322.527l2.927-5.932c3.462-7.016,3.667-10.738.947-17.161-1.555-3.672-3.574-5.6-8.88-8.464-4.851-2.622-7.471-4.978-8.927-8.025-2.809-5.883-5.251-8.466-8.005-8.466a2.11,2.11,0,0,1-2.317-2.232c0-1.228-1.978-3.657-4.4-5.4-5-3.605-5.267-4.526-2.2-7.672a79.356,79.356,0,0,0,5.337-6.492c1.727-2.332,4.086-4.254,5.242-4.272a68.728,68.728,0,0,0,8.552-1.439c6.583-1.436,7.948-2.958,11.7-13.06.411-1.1,3.073-2.668,5.917-3.473,4.414-1.249,5.677-1.181,8.632.468,3.261,1.82,3.582,1.8,5.558-.383,1.153-1.273,2.874-2.314,3.824-2.314,3.071,0,8.315-4.814,10.769-9.886,1.965-4.06,3.337-5.219,7.674-6.479,4.9-1.424,6.7-1.232,6.961.744a30.148,30.148,0,0,0,1.57,4.131,17.313,17.313,0,0,1,1.465,4.9c0,.891,4.706,3.117,10.989,5.2,6.044,2,14.039,4.68,17.768,5.953a34.438,34.438,0,0,1,10.864,6.292c9.277,9.035,12.765,11.69,15.357,11.69,2.355,0,2.575.388,1.6,2.815-1.2,2.986.885,10.434,4.307,15.367,1.544,2.226,1.566,3.311.147,7.211-.919,2.525-2.569,5.065-3.666,5.646s-2.993,4.111-4.212,7.846-2.939,7.218-3.822,7.74c-.949.561-1.605,3.332-1.605,6.78,0,4.577-.529,6.1-2.461,7.075-1.353.684-3.356,3.027-4.451,5.206-1.59,3.166-2.579,3.855-4.921,3.432-2.227-.4-3.738.47-6.289,3.629-3.831,4.744-9.612,7.262-19.555,8.515a42.624,42.624,0,0,0-8.93,1.874c-1.7.841-2,.293-1.884-3.4.123-3.9-.233-4.443-3.14-4.762-2.721-.3-3.663.408-5.538,4.152-4.786,9.558-9.349,12.488-26.277,16.875-11.128,2.884-11.965,2.952-12.113.984Z" fill="#6667ab" opacity="0.66"/><path d="M145.963,360.538a118.466,118.466,0,0,0-15.331-3.61c-6.118-.8-6.129-.8-5.243-4.548.489-2.063.742-8.556.564-14.429-.878-28.9-.67-34.369,1.487-39.151,2.034-4.51,2.23-4.631,3.943-2.443a8.714,8.714,0,0,1,1.8,3.263c0,.528.925.96,2.055.96,1.7,0,1.926-.884,1.315-5.1a42.565,42.565,0,0,0-1.519-7.015c-.455-1.121-.077-2.085.908-2.319.928-.22,6.517-5.462,12.42-11.649,12.217-12.8,15.723-14.531,22.939-11.3,4.507,2.021,5.55,1.932,13.6-1.157,1.534-.589,2.64.152,4.038,2.706a9.3,9.3,0,0,0,4.948,4.233,4.787,4.787,0,0,1,3.746,4.131c.557,2.631,1.6,3.58,4.556,4.138,3.021.571,3.833,1.34,3.833,3.629,0,3.735,5.107,9.458,10.227,11.462l4,1.565-4.81,3.928c-2.646,2.16-5.493,3.928-6.327,3.928s-3.989-1.271-7.012-2.825a48.11,48.11,0,0,0-9-3.593c-3.054-.67-3.707-.3-5.129,2.893-2.327,5.228-7.024,7.084-17.928,7.084-7.465,0-9.472.385-10.1,1.941-1.016,2.5,1.1,5.656,4.142,6.179,3.071.528,17.86,9.825,18.631,11.713.324.794-.222,4.027-1.215,7.184-1.462,4.65-2.644,6.119-6.224,7.732-4.226,1.9-4.42,2.265-4.433,8.239a77.622,77.622,0,0,1-.792,10.7l-.778,4.449-7.057-.053a70.326,70.326,0,0,1-16.257-2.867h0Z" fill="#6667ab" opacity="0.22"/><path d="M97.03,356.572c-1.294-.818-1.312-1.715-.088-4.483.842-1.9,1.689-8.266,1.883-14.138s.7-14.682,1.128-19.575a56.271,56.271,0,0,0-1.072-17.2c-1.016-4.568-1.678-8.478-1.471-8.689a43.812,43.812,0,0,1,7.087-1.261,38.757,38.757,0,0,0,9.53-2.324c2.386-1.224,3.593-1.031,7.849,1.261,3.419,1.841,4.794,3.278,4.293,4.488-2.579,6.233-4.381,19.155-3.641,26.1,1.565,14.682,1.357,31.8-.4,33.458-.909.853-4.835,1.614-8.791,1.7a81.545,81.545,0,0,0-10.916.924c-2.072.418-4.5.3-5.386-.262h0Z" fill="#6667ab" opacity="0.44"/><path d="M143.232,439.516c-3.387-1.133-6.051-3.767-11.608-11.477-6.325-8.775-8.017-10.323-13.746-12.572-3.816-1.5-6.931-3.58-7.49-5.007a6.167,6.167,0,0,0-3.958-3.154c-1.651-.391-5.1-3.085-7.668-5.986L94.1,396.047l3.218-7.6c1.77-4.18,3.218-9.131,3.218-11,0-5.385,3.662-17.411,5.758-18.908,3.134-2.238,22.272-.757,35.372,2.737l6.593,1.759v25.01l-4.71-.826c-2.59-.454-5.6-1.581-6.692-2.5a7.185,7.185,0,0,0-2.884-1.679c-1.629,0-7.04,12.378-7.052,16.135-.013,4.032,4.563,10.823,13.111,19.457,2.907,2.936,7.965,8.376,11.238,12.088l5.953,6.749-3.792,1.852c-4.385,2.142-4.393,2.142-10.2.2h0Z" fill="#6667ab"/><path d="M69.357,439.016c-4-4.018-6.859-14.207-5.881-20.924.711-4.887.162-6.946-4.471-16.756-7.324-15.508-6.864-20.357,2.212-23.34,6.247-2.053,25.822-13.25,28.852-16.5,2.3-2.467,3.425-2.8,7.211-2.129s4.389,1.2,3.87,3.335c-3.972,16.324-5.636,22.226-7.366,26.115a23.847,23.847,0,0,0-2.042,7.523c0,3.659,7.555,12.165,12.576,14.159,4.537,1.8,4.9,3.977.673,3.977-3.086,0-6.227,3.016-16.028,15.389C84.9,435,76.2,441.64,73.436,441.72c-.743.022-2.579-1.2-4.079-2.7h0Z" fill="#6667ab" opacity="0.66"/><path d="M168.454,444.153c-4.8-.532-5.9-1.2-8.163-5.016-2.888-4.859-9.816-13.187-21.792-26.2-4.33-4.7-8.213-9.777-8.627-11.273s.223-5.135,1.415-8.086c1.684-4.166,2.63-5.182,4.231-4.545,4.577,1.819,12.159,2.649,13.637,1.493.964-.754,1.659-5.569,1.884-13.05l.357-11.856,17.582.167c9.67.092,20.308.216,23.639.276l6.057.11-.406,16.383-.406,16.383-4.71,4.553c-5.2,5.029-5.853,7.683-2.458,10.021,3.107,2.139,16.026,18.618,17.979,22.934a27.526,27.526,0,0,0,4.089,6.2c4.21,4.511-.137,3-5.965-2.076-3-2.61-6.431-4.746-7.631-4.746s-3.722,1.558-5.6,3.461c-2.438,2.465-3.938,3.153-5.213,2.391-2.671-1.6-6.942-1.326-8.585.545-1.934,2.2-4.655,2.666-11.311,1.929h0Z" fill="#6667ab" opacity="0.55"/><path d="M215.283,440.87a28.983,28.983,0,0,1-3.3-5.241c-.7-1.767-4.741-7.086-16.388-21.542l-3.656-4.538,4.153-4.882,4.153-4.882.233-15.495c.128-8.522.3-16.353.378-17.4.089-1.182,4-3.548,10.3-6.229,9.079-3.865,11.266-4.322,20.674-4.322h10.52l1.322,4.637c1.135,3.982,7.044,10.56,10.9,12.132,1.456.594,6.722,10.691,6.723,12.891,0,.979,1.1,3.474,2.432,5.546l2.431,3.766-3.378,2.071c-5.464,3.35-10.285,10.627-10.285,15.524,0,3.938-1.642,6.564-7.89,12.62a26.421,26.421,0,0,1-11.262,6.79c-3.281.911-5.965,2.118-5.965,2.682,0,.914-8.285,9.133-9.206,9.133a18.1,18.1,0,0,1-2.888-3.263Z" fill="#6667ab" opacity="0.99"/><path d="M179.829,364.764l-7.987-1.282.766-5.278a79.435,79.435,0,0,0,.766-9.249c0-3.376.625-4.218,4.17-5.617,3.465-1.368,4.651-2.894,7.021-9.033l2.852-7.388-3.41-3.362c-3.688-3.637-17.05-11.822-19.3-11.822a1.3,1.3,0,0,1-1.381-1.186c0-.68,3.809-1.186,8.915-1.186,9.825,0,16.884-2.355,18.125-6.046,1.016-3.024,3.755-2.839,11.264.764,7.472,3.585,10.1,3.193,16.432-2.447,2.572-2.291,4.8-4.025,4.951-3.854,1.593,1.806,4.362,8.463,4.362,10.486,0,1.419-1.429,5.588-3.176,9.265l-3.176,6.685,2.548,7a48.363,48.363,0,0,1,2.548,13.849c0,5.963.349,6.957,2.691,7.66,1.48.444,4.874.127,7.542-.7,5.219-1.627,6.839-1.116,5.66,1.786-.59,1.452-2.957,1.831-11.435,1.831-9.848,0-11.561.379-21.7,4.808-12.386,5.407-17.539,6.175-29.046,4.328h0Z" fill="#6667ab" opacity="0.77"/><path d="M243.357,435.105c-1.975-1.865-.671-4.508,4.685-9.5,3.877-3.611,5.85-6.576,6.424-9.657,1.025-5.5,7.448-15.369,10.619-16.32a4.63,4.63,0,0,0,2.137-7.49A15.191,15.191,0,0,1,264.591,386c-1.129-5.816-6.1-15.423-7.978-15.423-2.9,0-9.4-6.579-11.086-11.224-2.57-7.061-1.192-11.063,4.3-12.485,7.843-2.032,14.119-6.467,17.6-12.436,4.184-7.182,6.853-7.128,4.52.093-1.113,3.446,2,4.357,7.485,2.191a28.738,28.738,0,0,1,8.786-1.731c6.057,0,17.293-4.916,19.932-8.721,2.5-3.607,4.625-4.094,4.653-1.067.015,1.66.241,1.745,1.128.422,1.663-2.481,9.518,2.506,11.533,7.322.879,2.1,1.824,4.224,2.1,4.714s-.738.89-2.252.89c-2.3,0-2.625.48-1.97,2.944.649,2.443.034,3.4-3.616,5.635-3.743,2.29-4.4,3.36-4.414,7.18-.014,3.914,3.128,11.024,8.181,18.514,3.19,4.729,9.194,9.248,14.1,10.609,2.936.815,5.337,1.995,5.337,2.621s1.272,1.15,2.826,1.165c3.3.03,10.527,3.256,18.524,8.262,3.108,1.946,6.5,3.914,7.535,4.373a9.987,9.987,0,0,1,3.14,2.394c.812,1.008,4.8,1.662,11.3,1.853,8.874.261,10.507-.031,13.986-2.5,5.254-3.725,11.759-2.741,11.759,1.779a12.539,12.539,0,0,1-1.284,5.216c-1.354,2.39-1.178,2.387-19.843.358-5.647-.614-7.261-.324-10.4,1.866l-3.711,2.592-3.264-2.425c-2.72-2.021-4.369-2.3-9.888-1.69-5.039.559-7.321.274-9.539-1.194-5.465-3.616-8.5-2.558-11.37,3.969-1.43,3.251-3.654,6.215-4.954,6.605s-2.359,1.12-2.359,1.623c0,3.457-15.811,3.947-17.2.534-.378-.93-2.5-1.61-5.035-1.61a19.791,19.791,0,0,1-8.113-2.076c-3.554-1.977-3.791-1.977-4.966,0-.713,1.2-2.707,2.076-4.727,2.076-3.518,0-5.281,2-7.063,8.008-.543,1.832-1.75,2.669-3.847,2.669-1.68,0-3.055-.6-3.055-1.332,0-.929-.475-.96-1.57-.1a9.11,9.11,0,0,1-4.71,1.221c-4.08-.008-9.327.842-10.91,1.766a44.607,44.607,0,0,1-8.043,1.864c-3.735.623-7.936,1.476-9.335,1.894s-2.953.374-3.454-.1h0Z" fill="#6667ab" opacity="0.77"/><path d="M273.733,544.828c-2.668-3.539-3.094-3.677-9.465-3.055-5.445.531-8.426.013-16.21-2.819-11.222-4.082-16.348-4.456-17.233-1.258-1.16,4.189-16.49,4.646-23.1.689-1.486-.889-3.689-4.174-4.9-7.3s-4.036-9.263-6.289-13.637c-3.625-7.036-4.02-8.757-3.427-14.93.829-8.636-.839-12.116-5.808-12.116-2.923,0-3.7.615-4.288,3.409-1.368,6.464-8.383,5.589-8.383-1.045,0-3.079-.414-3.326-6.849-4.086-7.285-.86-7.3-.875-8.809-9.315-.444-2.481-1.613-4.8-2.6-5.16-1.844-.668-6.758,4.083-11.137,10.768-3.048,4.653-4.182,2.054-1.378-3.158a59.911,59.911,0,0,0,6.892-27.467c.013-7.511.45-9.672,2.214-10.936,2.883-2.067,5.337-2.067,5.337,0s1.658,2.673,10.3,3.694c5.129.605,7.893.347,10.639-.994a15.746,15.746,0,0,1,8.936-1.15c4.717.6,5.342.374,6.416-2.294,1.915-4.758,4.673-4.838,9.5-.276,3.667,3.464,5.24,4.115,9.952,4.115,5.556,0,11.294-3.131,15.494-8.454,2.415-3.061,7.521-3.744,11.478-1.536,3.239,1.808,4.2,1.8,13.445-.086,17.877-3.649,21.04-4.171,21.67-3.576.342.323-.035,2.654-.836,5.181-1.778,5.605-1.924,16.776-.219,16.776.681,0,2.735,2.137,4.565,4.749,3.283,4.686,3.3,4.816,1.274,9.827-2.948,7.292-2.623,12.007,1.087,15.789s3.7,3.685,1.119,6.118c-1.54,1.455-1.881,3.48-1.434,8.517.323,3.634.03,7.77-.651,9.19-3.17,6.614,4.477,12.225,19.163,14.06,7.126.89,19.364,6.512,20.554,9.441.49,1.206-1.161,2.015-6.075,2.979a37.807,37.807,0,0,0-11.8,4.778,33.2,33.2,0,0,1-8.485,4.269,38.033,38.033,0,0,0-6.66,2.4c-5.727,2.823-10.879,2.05-14.009-2.1h0Z" fill="#6667ab" opacity="0.44"/><text transform="translate(87 134)" font-size="20" font-family="NotoSansCJKtc-Black, Noto Sans CJK TC" font-weight="800"><tspan x="0" y="0">北投區</tspan></text><path d="M38.031,2.515l-.383-.088A16.987,16.987,0,0,1,32.77.519a20.151,20.151,0,0,1-5.055,1.848l-.435.1-.151-.421A12.069,12.069,0,0,0,26.138.032a2.222,2.222,0,0,1-1.132,1.624,6.924,6.924,0,0,1-3.486.585h-.449l-.048-.446a9.338,9.338,0,0,0-.735-2.46L19.94-1.4l.814.023c.608.017,1.305.02,1.646.02V-4.185L20.8-3.8l-.977-3.771.75-.146c.556-.108,1.173-.228,1.828-.368V-10.24H20.2v-3.68h2.2V-17.6h3.84v3.68h1.9v1.5a2.955,2.955,0,0,0,.52-1.939V-17h8.52v4.74c0,.079,0,.224.006.34h.634a4.113,4.113,0,0,0,1.022-.134l.621-.207.036.654c.03.536.092,1.65.2,2.333l.056.369-.337.159a3.244,3.244,0,0,1-1.263.224l.947.387-.114.426a13.5,13.5,0,0,1-2.809,5.5,18.694,18.694,0,0,0,3.493.954l.927.164-.655.676a12.592,12.592,0,0,0-1.732,2.576ZM32.79-.642l.253.157A15.448,15.448,0,0,0,37.5,1.363a15.723,15.723,0,0,1,1.156-1.8,18.214,18.214,0,0,1-3.538-1.131l-.66-.294.507-.515A12.017,12.017,0,0,0,37.9-7.546L36.59-8.08l-.4.08H28.266l-.084.038L28.159-8h-.1v1.7h.92l.166.972-.519.183a14.29,14.29,0,0,0,2.11,2.8l.494.5-.639.3a15.78,15.78,0,0,1-3.55,1.137,13.82,13.82,0,0,1,.865,1.7A18.221,18.221,0,0,0,32.531-.494Zm-11.3.277a11.118,11.118,0,0,1,.456,1.6,5.447,5.447,0,0,0,2.562-.45h.009c.468-.259.722-.654.722-2V-5.93l1.544-.386-.227-1.676-1.318.3V-11.24h1.28l.086.364.188-.233c.1.081.218.186.346.307V-12.92h-1.9V-16.6H23.4v3.68H21.2v1.68h2.2v3.961l-.392.087c-.7.155-1.355.285-1.951.4L21.521-5,23.4-5.455V-1.24a.8.8,0,0,1-.23.65.8.8,0,0,1-.65.23c-.173,0-.575,0-1.029,0ZM26.24-5.15v3.875a16.349,16.349,0,0,0,3.293-.9A16,16,0,0,1,27.46-5.183L27.4-5.3h-.34v-.055Zm0-5.09v1.3l1.06-.239a12.49,12.49,0,0,0-1.025-1.056ZM30.032-9h4.561a2.119,2.119,0,0,1-.544-.5,4.435,4.435,0,0,1-.63-2.8v-1.02h-1.1a6.521,6.521,0,0,1-.81,2.645A5.7,5.7,0,0,1,30.032-9Zm-2.646-1.56a14.2,14.2,0,0,1,1.161,1.324,5.022,5.022,0,0,0,2.814-4.609l.024-.475H34.42v2.02c0,2.234.447,2.78,2.28,2.78h1.16a5.624,5.624,0,0,0,.789-.043c-.047-.425-.084-.92-.115-1.41a5.58,5.58,0,0,1-.715.053h-.84a.738.738,0,0,1-.735-.563,2.93,2.93,0,0,1-.065-.777V-16H29.66v1.64a3.659,3.659,0,0,1-1.748,3.46ZM1.291,2.217-.428-1.751.128-1.9c1.218-.332,2.916-.881,4.713-1.463L4.9-3.384V-9.14H.52v-3.9H4.9V-17.3H8.94V-4.754l.78-.26L10.16-2.8V-17.28H14.2v4.2h5.04v3.9H14.2v6.44a5.8,5.8,0,0,0,.036.8h1.571a2.086,2.086,0,0,0,.219-.9c.083-.676.13-1.688.175-3l.034-1,.778.622a8.08,8.08,0,0,0,2.58,1.243l.407.1-.024.421C19.744-.332,19.059,1.9,16.12,1.9H13.88A3.381,3.381,0,0,1,10.944.818a4.139,4.139,0,0,1-.72-2.168l-.17.071C7.355-.15,4.246,1.094,1.738,2.047ZM.946-1.094,1.829.942c2.3-.879,5.023-1.97,7.461-2.986L8.96-3.706l-1.02.34V-16.3H5.9v4.26H1.52v1.9H5.9v7.484l-.751.243C3.6-1.911,2.119-1.433.946-1.094ZM11.16-16.28V-2.76A5.054,5.054,0,0,0,11.736.207C12.11.693,12.751.9,13.88.9h2.24A2.051,2.051,0,0,0,18.184-.2a10.142,10.142,0,0,0,.772-3.908,10.066,10.066,0,0,1-1.79-.8,20.327,20.327,0,0,1-.223,2.681c-.068.353-.249,1.29-1.143,1.29H14.36c-1.16,0-1.16-.794-1.16-1.8v-7.44h5.04v-1.9H13.2v-4.2ZM54.84,1.8H47.46c-2.187,0-3.591-.376-4.552-1.219C41.865-.334,41.38-1.783,41.38-3.98v-9.5H40.6v-3.54H58.8v3.54H55.84v5.3h2.08v6.163c.349-.039.658-.084.9-.133l.533-.107.062.54c.065.571.232,1.972.373,2.656l.1.46-.453.123a22.939,22.939,0,0,1-4.59.278ZM41.6-14.48h.78v10.5c0,1.888.377,3.1,1.187,3.809C44.333.5,45.533.8,47.46.8h7.38A32.849,32.849,0,0,0,58.721.646c-.086-.529-.171-1.186-.236-1.727A27.12,27.12,0,0,1,55-.86H47.22a3.108,3.108,0,0,1-2.358-.7l-.055-.059H44.74V-1.7a3.317,3.317,0,0,1-.52-2.08v-10.7H57.8v-1.54H41.6ZM52.08-2.62h4.84V-7.18H52.08Zm-6.34,0h4.7V-7.18h-4.7Zm-.52-5.56h1.5v-5.3h-1.5Zm2.5-.6h7.12v-3.98H47.72ZM32.82-2.892,32.5-3.147A9.739,9.739,0,0,1,30.3-5.53l-.5-.77h5.745l-.437.751a9.4,9.4,0,0,1-1.985,2.387ZM31.7-5.3a8.928,8.928,0,0,0,1.081,1.1,8.44,8.44,0,0,0,.971-1.1ZM55.42-3.52H53.44V-6.28h1.98Zm-6.44,0H47.06V-6.28h1.92Zm3.98-6.12H49.42v-2.28h3.54Zm-2.54-1h1.54v-.28H50.42Z" transform="translate(87 134)" fill="#fff"/><text transform="translate(184 186)" font-size="20" font-family="NotoSansCJKtc-Black, Noto Sans CJK TC" font-weight="800"><tspan x="0" y="0">士林區</tspan></text><path d="M23.34-17.62h3.84v4.08H32.3v-4.08h3.92v4.08h3.4V-9.8H36.979a20.374,20.374,0,0,0,3.146,5.881l.338.408-.427.314A10,10,0,0,0,38-1.085l-.415.631-.419-.628a15.311,15.311,0,0,1-.944-1.652V2.38H32.3V-3.4A15.041,15.041,0,0,1,30.054-.426L29.508.12,29.233-.6A12.84,12.84,0,0,0,27.7-3.165l-.257-.355.119-.112L27.37-4.02c-.056-.116-.119-.241-.19-.374V2.38H23.34V-2.861A11.673,11.673,0,0,1,22.1-1l-.579.7-.28-.861a16.738,16.738,0,0,0-1.375-2.761l-.186-.315.244-.272A15.88,15.88,0,0,0,22.76-9.8H20.38v-3.74h2.96Zm2.84,1H24.34v4.08H21.38v1.74h2.728l-.188.641a17.756,17.756,0,0,1-3.009,6.035c.317.55.667,1.2.941,1.793a16.269,16.269,0,0,0,1.524-2.956l.963.188V1.38h1.84V-8.037l.927,1.516c.314.513.569.948.777,1.324l1.084-1.535c-.688-.8-2.126-2.452-2.63-2.923L26.18-9.8v-1h2.5v-1.74h-2.5Zm9.04,0H33.3v4.08H30.16v1.74h2.913l-.243.67A19.072,19.072,0,0,1,28.755-3.4a16.663,16.663,0,0,1,1.087,1.737A17.829,17.829,0,0,0,32.35-5.618l.95.218V1.38h1.92v-6.5l.966-.181a21.867,21.867,0,0,0,1.433,3.057,12.247,12.247,0,0,1,1.42-1.436A22.873,22.873,0,0,1,35.8-10.145l-.213-.655H38.62v-1.74h-3.4ZM29.68-9.8H27.591c.828.892,2.059,2.322,2.392,2.718l.181.215A19.938,19.938,0,0,0,31.634-9.8ZM7.9-17.58h4.14v5.78h7.7v3.88h-7.7V-2.3h6.64V1.6H1.46V-2.3H7.9V-7.92H.36V-11.8H7.9Zm3.14,1H8.9v5.78H1.36v1.88H8.9V-1.3H2.46V.6H17.68V-1.3H11.04V-8.92h7.7V-10.8h-7.7Zm29.56-.44H58.8v3.54H55.84v5.3h2.08v6.163c.349-.039.658-.084.9-.133l.533-.107.062.54c.065.571.232,1.972.373,2.656l.1.46-.453.123a22.939,22.939,0,0,1-4.59.278H47.46c-2.187,0-3.591-.376-4.552-1.219C41.865-.334,41.38-1.783,41.38-3.98v-9.5H40.6Zm17.2,1H41.6v1.54h.78v10.5c0,1.888.377,3.1,1.187,3.809C44.333.5,45.533.8,47.46.8h7.38A32.849,32.849,0,0,0,58.721.646c-.086-.529-.171-1.186-.236-1.727A27.12,27.12,0,0,1,55-.86H47.22a3.108,3.108,0,0,1-2.358-.7l-.055-.059H44.74V-1.7a3.317,3.317,0,0,1-.52-2.08v-10.7H57.8ZM46.72-13.48h-1.5v5.3h1.5Zm8.12.72H47.72v3.98h7.12Zm-4.4,5.58h-4.7v4.56h4.7Zm6.48,0H52.08v4.56h4.84Zm-7.5-4.74h3.54v2.28H49.42Zm2.54,1H50.42v.28h1.54Zm-4.9,4.64h1.92v2.76H47.06Zm6.38,0h1.98v2.76H53.44Z" transform="translate(184 186)" fill="#fff"/><text transform="translate(244 282)" font-size="20" font-family="NotoSansCJKtc-Black, Noto Sans CJK TC" font-weight="800"><tspan x="0" y="0">內湖區</tspan></text><path d="M22.612-17.462l.35.136a12.917,12.917,0,0,1,3.35,1.872l.344.3L25.7-13.86H27V-16.9h3.64v3.04h1.52v-3.12h7.4v16a2.737,2.737,0,0,1-1.115,2.6,4.894,4.894,0,0,1-2.654.559h-.32l-.423-.007-.063-.418A7.878,7.878,0,0,0,34.4-.062a9.172,9.172,0,0,1-1.379,2.378l-.342.416-.39-.373a10.222,10.222,0,0,0-2.026-1.348l-.582-.27.407-.5a6.829,6.829,0,0,0,.44-.6H28.62V.88H25.16V-1.756C24.745-.532,24.3.7,23.825,1.884l-.209.529L20.069.451l.2-.423a61.42,61.42,0,0,0,2.5-6.422l.2-.616L25.16-5.6V-8.5H27v-1.74H25.572l.3.261L23.6-6.861l-.413-.4a12.077,12.077,0,0,0-2.915-1.8L19.7-9.318,21.865-12.2l.351.133a15.859,15.859,0,0,1,2.443,1.18v-1.578l-.3.4-.409-.4a12.824,12.824,0,0,0-2.962-1.885l-.567-.262Zm2.677,2.473a13.32,13.32,0,0,0-2.344-1.265l-.978,1.275A15.225,15.225,0,0,1,24.22-13.55ZM38.56-15.98h-5.4v7.52a21.6,21.6,0,0,1-.76,6.473l-.98-.153V-7.5H29.64v-3.74H31.7v-1.62H29.64V-15.9H28v3.04H25.66v1.62H28V-7.5H26.16v2.538h0l0,.018V-.12h1.46V-1.36h4.6l-.38.731A9.343,9.343,0,0,1,31.231.394a13.142,13.142,0,0,1,1.329.886,9.429,9.429,0,0,0,1.2-2.492l-.029-.049h.044a18.23,18.23,0,0,0,.743-3.733l.963-.13.122.315.017-.02c.158-.181.321-.368.482-.547l.873-.975V-1.02a.78.78,0,0,1-.2.6.78.78,0,0,1-.58.256h-.042c-.139,0-.4,0-.711-.007a9.549,9.549,0,0,1,.441,1.349,3.73,3.73,0,0,0,2.021-.4h.006c.407-.251.643-.619.643-1.755ZM24.508-9.8a13.43,13.43,0,0,0-2.3-1.2l-.965,1.286A14.5,14.5,0,0,1,23.45-8.356Zm7.652-.441H30.64V-8.5h1.52ZM24.994-4.522l-1.482-.95c-.634,1.876-1.435,3.931-2.144,5.5L23.1.986C23.8-.824,24.451-2.711,24.994-4.522ZM35.98-1.16V-3.714l-.168.189-.543.6-.025-.065a17.041,17.041,0,0,1-.438,1.8C35.239-1.167,35.7-1.161,35.98-1.16ZM40.6-17.02H58.8v3.54H55.84v5.3h2.08v6.163c.349-.039.658-.084.9-.133l.533-.107.062.54c.065.571.232,1.972.373,2.656l.1.46-.453.123a22.939,22.939,0,0,1-4.59.278H47.46c-2.187,0-3.591-.376-4.552-1.219C41.865-.334,41.38-1.783,41.38-3.98v-9.5H40.6Zm17.2,1H41.6v1.54h.78v10.5c0,1.888.377,3.1,1.187,3.809C44.333.5,45.533.8,47.46.8h7.38A32.849,32.849,0,0,0,58.721.646c-.086-.529-.171-1.186-.236-1.727A27.12,27.12,0,0,1,55-.86H47.22a3.108,3.108,0,0,1-2.358-.7l-.055-.059H44.74V-1.7a3.317,3.317,0,0,1-.52-2.08v-10.7H57.8ZM46.72-13.48h-1.5v5.3h1.5Zm8.12.72H47.72v3.98h7.12Zm-4.4,5.58h-4.7v4.56h4.7Zm6.48,0H52.08v4.56h4.84ZM4.96-16.82h6.785l.015.484a27.407,27.407,0,0,0,.266,3.2H18.82V-1.36c0,1.489-.259,2.6-1.524,3.211A10.16,10.16,0,0,1,13.04,2.4H12.6l-.052-.441A10.043,10.043,0,0,0,11.64-.812l-.4-.78.875.052c.654.039,1.572.059,2.73.059v-1.7c-.191.256-.354.492-.474.687l-.269.437-.43-.28A10.363,10.363,0,0,1,10.058-6.41a9.263,9.263,0,0,1-4,4.254l-.436.235-.239-.434c-.03-.055-.064-.114-.1-.175V2.42H1.32V-13.14H8.251l-.016-.16H4.96Zm5.818,1H5.96v1.52H9.174l.025.474a10.92,10.92,0,0,0,.115,1.108l.091.578H2.32V1.42H4.28V-10.3H8.594l-.219.658a8.483,8.483,0,0,1-3.321,4.6l-.287.188.4.472A12.409,12.409,0,0,1,6-3.276,8.756,8.756,0,0,0,9.573-7.819L10.025-9,10.5-7.83a9.831,9.831,0,0,0,3.3,4.37c.356-.506.8-1.06,1.157-1.467l.232-.267-.135-.092a8.673,8.673,0,0,1-3.2-4.343l-.245-.671H15.84v8.9a.874.874,0,0,1-.28.7.874.874,0,0,1-.72.221c-.758,0-1.418-.008-1.971-.025a11.674,11.674,0,0,1,.594,1.9,8.436,8.436,0,0,0,3.4-.45c.62-.3.956-.753.956-2.309V-12.14h-6.64l-.072-.415a25.876,25.876,0,0,1-.329-3.265ZM7.183-9.3H5.28v2.823A7.643,7.643,0,0,0,7.183-9.3Zm7.657,0H13.06a7.643,7.643,0,0,0,1.78,2.565Zm19.84-5.12h2.3v6.994l-.18.15c-.444.37-.9.732-1.36,1.076l-.832.624.032-1.04c.02-.625.04-1.272.04-1.844Zm1.3,1h-.3v.893l.234.234.066.066Zm.756,3.486-.631-.715c-.2-.222-.4-.436-.606-.643l-.62.424.693.878c.173.219.332.429.471.62ZM35.822-7.9l-.144-.224c0,.157,0,.317-.008.479q.156-.125.31-.252v-.132Zm13.6-4.021h3.54v2.28H49.42Zm2.54,1H50.42v.28h1.54Zm-4.9,4.64h1.92v2.76H47.06Zm6.38,0h1.98v2.76H53.44Zm-25.82.26h2.3v3.18h-2.3Zm1.3,1h-.3v1.18h.3Z" transform="translate(244 282)" fill="#fff"/><text transform="translate(127 292)" font-size="20" font-family="NotoSansCJKtc-Black, Noto Sans CJK TC" font-weight="800"><tspan x="0" y="0">中山區</tspan></text><path d="M38.92,2.4H34.88V1H21.2V-13.18h4V-3h2.74V-17.48h4.08V-3h2.86V-13.28h4.04Zm-3.04-1h2.04V-12.28H35.88V-2H31.02V-16.48H28.94V-2H24.2V-12.18h-2V0H35.88ZM12,2.4H7.92V-3.72H5.08v1.04H1.16v-11.5H7.92V-17.6H12v3.42h6.92v11.4H14.86v-.94H12Zm-3.08-1H11V-4.72h4.86v.94h2.06v-9.4H11V-16.6H8.92v3.42H2.16v9.5H4.08V-4.72H8.92Zm45.92.4H47.46c-2.187,0-3.591-.376-4.552-1.219C41.865-.334,41.38-1.783,41.38-3.98v-9.5H40.6v-3.54H58.8v3.54H55.84v5.3h2.08v6.163c.349-.039.658-.084.9-.133l.533-.107.062.54c.065.571.232,1.972.373,2.656l.1.46-.453.123a22.939,22.939,0,0,1-4.59.278ZM41.6-14.48h.78v10.5c0,1.888.377,3.1,1.187,3.809C44.333.5,45.533.8,47.46.8h7.38A32.849,32.849,0,0,0,58.721.646c-.086-.529-.171-1.186-.236-1.727A27.12,27.12,0,0,1,55-.86H47.22a3.108,3.108,0,0,1-2.358-.7l-.055-.059H44.74V-1.7a3.317,3.317,0,0,1-.52-2.08v-10.7H57.8v-1.54H41.6ZM52.08-2.62h4.84V-7.18H52.08Zm-6.34,0h4.7V-7.18h-4.7Zm-.52-5.56h1.5v-5.3h-1.5Zm2.5-.6h7.12v-3.98H47.72Zm7.7,5.26H53.44V-6.28h1.98Zm-6.44,0H47.06V-6.28h1.92ZM15.86-6.58H11v-4.74h4.86ZM12-7.58h2.86v-2.74H12Zm-3.08,1H4.08v-4.74H8.92Zm-3.84-1H7.92v-2.74H5.08ZM52.96-9.64H49.42v-2.28h3.54Zm-2.54-1h1.54v-.28H50.42Z" transform="translate(127 292)" fill="#fff"/><text transform="translate(70 336)" font-size="20" font-family="NotoSansCJKtc-Black, Noto Sans CJK TC" font-weight="800"><tspan x="0" y="0">大同區</tspan></text><path d="M7.806-17.6h4.2L12-17.051c-.018,1.5-.037,3.055-.156,4.631H19.48V-8.4H12.906A11.831,11.831,0,0,0,19.66-1.406l.765.3-.613.545A12.125,12.125,0,0,0,17.759,2.06l-.224.409-.424-.195a14.307,14.307,0,0,1-7.023-7.03,14.36,14.36,0,0,1-7,7.024l-.421.21L2.427,2.07A8.562,8.562,0,0,0,.361-.259L-.32-.766l.774-.35A11.057,11.057,0,0,0,7.028-8.4H.56v-4.02H7.7c.079-1.232.088-2.465.1-3.662q0-.517.009-1.024Zm3.188,1H8.8v.525c-.01,1.364-.02,2.773-.133,4.195l-.037.46H1.56V-9.4H8.318l-.152.619a12.285,12.285,0,0,1-2.26,4.79A12.65,12.65,0,0,1,1.576-.545,10.114,10.114,0,0,1,3.04,1.166a13.25,13.25,0,0,0,6.551-7.34l.431-1.166.5,1.14a13.844,13.844,0,0,0,6.6,7.37A14.284,14.284,0,0,1,18.6-.768a12.027,12.027,0,0,1-4.038-3,15.183,15.183,0,0,1-2.854-4.967l-.24-.669H18.48v-2.02H10.752l.05-.545C10.944-13.53,10.975-15.087,10.994-16.6ZM40.6-17.02H58.8v3.54H55.84v5.3h2.08v6.163c.349-.039.658-.084.9-.133l.533-.107.062.54c.065.571.232,1.972.373,2.656l.1.46-.453.123a22.939,22.939,0,0,1-4.59.278H47.46c-2.187,0-3.591-.376-4.552-1.219C41.865-.334,41.38-1.783,41.38-3.98v-9.5H40.6Zm17.2,1H41.6v1.54h.78v10.5c0,1.888.377,3.1,1.187,3.809C44.333.5,45.533.8,47.46.8h7.38A32.849,32.849,0,0,0,58.721.646c-.086-.529-.171-1.186-.236-1.727A27.12,27.12,0,0,1,55-.86H47.22a3.108,3.108,0,0,1-2.358-.7l-.055-.059H44.74V-1.7a3.317,3.317,0,0,1-.52-2.08v-10.7H57.8ZM46.72-13.48h-1.5v5.3h1.5Zm8.12.72H47.72v3.98h7.12Zm-4.4,5.58h-4.7v4.56h4.7Zm6.48,0H52.08v4.56h4.84ZM20.86-16.7H39.18V-1.32c0,1.235-.167,2.468-1.38,3.119a7.986,7.986,0,0,1-3.92.621h-.441l-.055-.438a9.173,9.173,0,0,0-.9-2.7l-.367-.647H29.06V-.1H25.4V-9.3h9.24v7.9h.68V-9.5H24.68V2.4H20.86Zm17.32,1H21.86V1.4h1.82V-13.96H36.32v12.6a.887.887,0,0,1-.248.691.887.887,0,0,1-.683.268H35.36c-.61,0-1.156-.008-1.633-.023a11.132,11.132,0,0,1,.574,1.84A6.52,6.52,0,0,0,37.316.923h.008c.542-.29.856-.749.856-2.239Zm-2.86,2.74H24.68v.04H35.32Zm-.9,1.04H25.5v1.42h8.92ZM33.64-8.3H26.4v7.2h1.66V-2.36h5.58Zm15.78-3.62h3.54v2.28H49.42Zm2.54,1H50.42v.28h1.54ZM28.06-6.94h3.9v3.2h-3.9Zm2.9,1h-1.9v1.2h1.9Zm16.1-.34h1.92v2.76H47.06Zm6.38,0h1.98v2.76H53.44Z" transform="translate(70 336)" fill="#fff"/><text transform="translate(169 343)" font-size="20" font-family="NotoSansCJKtc-Black, Noto Sans CJK TC" font-weight="800"><tspan x="0" y="0">松山區</tspan></text><path d="M2.62-17.6H6.24v3.78H8.48v.65a30.132,30.132,0,0,0,.706-3.386l.08-.52,3.015.621v-.625h4.6l.073.413a16.489,16.489,0,0,0,3.006,7.38l.332.384-.389.326a13.745,13.745,0,0,0-2.025,2.254l-.4.606L17.4-5.834l.124.283c.9,2.052,1.916,4.379,2.422,5.914l.138.418L16.462,2.506,16.3,1.937c-.128-.449-.3-.985-.5-1.567-5.545.746-6.582.929-7.238,1.257L8,1.906l-.151-.6a24.913,24.913,0,0,0-.9-2.627l-.217-.515L7.278-2c.337-.1.617-.424,1.151-1.334l.005-.008a33.465,33.465,0,0,0,2.037-4.6,13.958,13.958,0,0,1-.935,1.66l-.42.629-.367-.56L6.493-3.55,6.24-4.217V2.4H2.62V-2.1a11.262,11.262,0,0,1-.6,1.053l-.582.893L1.122-1.172a17.453,17.453,0,0,0-1.3-2.879l-.17-.3.212-.266A16.3,16.3,0,0,0,2.321-10.14H.18v-3.68H2.62Zm2.62,1H3.62v3.78H1.18v1.68H3.589l-.142.613A18.939,18.939,0,0,1,.856-4.258c.274.507.585,1.155.841,1.767a17.437,17.437,0,0,0,.95-2.272L3.62-4.6v6H5.24V-6.62l.952-.214q.362.763.619,1.362L7.7-6.516c-.553-.819-1.817-2.62-2.339-3.242L5.24-9.9v-1.24H7.48v-1.68H5.24Zm10.8.52H13.28v1.4h1.392l.094.38a23.98,23.98,0,0,0,2.717,6.83,16.34,16.34,0,0,1,1.411-1.545,17.749,17.749,0,0,1-2.849-7.065Zm-4.229.55-1.725-.355A24.2,24.2,0,0,1,8.48-10.146v.006h0a11.317,11.317,0,0,1-.623,1.2c.388.418.862.993,1.235,1.485a27.826,27.826,0,0,0,2.724-8.07Zm2.075,1.85H12.434c-.214.885-.451,1.734-.707,2.534l3.223.773a30.52,30.52,0,0,1-1.059-3.307ZM7.368-10.14H6.333c.171.219.376.493.594.792Q7.155-9.711,7.368-10.14Zm6.758.6L12.209-10a39.1,39.1,0,0,1-2.92,7.179A4.6,4.6,0,0,1,8.056-1.275c.215.562.45,1.253.612,1.783A59.287,59.287,0,0,1,16.073-.676l.4-.054.135.384c.181.515.344,1,.48,1.443L18.842.261C18.316-1.221,17.407-3.3,16.6-5.149l-.218-.5-1.57.659.142.348c.239.586.486,1.191.718,1.8l.228.6-5.441.6.468-.845a48.636,48.636,0,0,0,3.2-7.056Zm2.558,2.682a19.129,19.129,0,0,1-1.452-2.816c-.457,1.334-1.016,2.73-1.644,4.114ZM14.5-3.086c-.157-.4-.318-.792-.475-1.178-.114-.278-.224-.55-.328-.81l-.154-.386c-.4.886-.836,1.765-1.288,2.619ZM27.94-17.48h4.08V-3h2.86V-13.28h4.04V2.4H34.88V1H21.2V-13.18h4V-3h2.74Zm3.08,1H28.94V-2H24.2V-12.18h-2V0H35.88V1.4h2.04V-12.28H35.88V-2H31.02Zm9.58-.54H58.8v3.54H55.84v5.3h2.08v6.163c.349-.039.658-.084.9-.133l.533-.107.062.54c.065.571.232,1.972.373,2.656l.1.46-.453.123a22.939,22.939,0,0,1-4.59.278H47.46c-2.187,0-3.591-.376-4.552-1.219C41.865-.334,41.38-1.783,41.38-3.98v-9.5H40.6Zm17.2,1H41.6v1.54h.78v10.5c0,1.888.377,3.1,1.187,3.809C44.333.5,45.533.8,47.46.8h7.38A32.849,32.849,0,0,0,58.721.646c-.086-.529-.171-1.186-.236-1.727A27.12,27.12,0,0,1,55-.86H47.22a3.108,3.108,0,0,1-2.358-.7l-.055-.059H44.74V-1.7a3.317,3.317,0,0,1-.52-2.08v-10.7H57.8ZM46.72-13.48h-1.5v5.3h1.5Zm8.12.72H47.72v3.98h7.12Zm-4.4,5.58h-4.7v4.56h4.7Zm6.48,0H52.08v4.56h4.84Zm-7.5-4.74h3.54v2.28H49.42Zm2.54,1H50.42v.28h1.54Zm-4.9,4.64h1.92v2.76H47.06Zm6.38,0h1.98v2.76H53.44Z" transform="translate(169 343)" fill="#fff"/><text transform="translate(36 427)" font-size="20" font-family="NotoSansCJKtc-Black, Noto Sans CJK TC" font-weight="800"><tspan x="0" y="0">萬華區</tspan></text><path d="M4.46-17.6H8.3v.9h3.28v-.9h3.84v.9h4.12v3.36H17.42v7.12h1.44V-.58c0,1.187-.183,2.025-1.093,2.535a5.255,5.255,0,0,1-2.687.465h-.424L14.587,2A8.805,8.805,0,0,0,14.306.894l-1.8.428L12.461.738c-.01-.129-.024-.266-.043-.405C10.784.455,9.127.562,7.651.657c-.769.05-1.5.1-2.157.142L5.16.822V2.34H1.38V-2.92H.66v-3.3h.72v-.46H2.64v-6.66H.44V-16.7H4.46Zm2.84,1H5.46v.9H1.44v1.36H5.46v.62H7.3v-.62H9.18V-15.7H7.3Zm7.12,0H12.58v.9H10.8v1.36h1.78v.62h1.84v-.62h4.12V-15.7H14.42Zm2,4.18H3.64v5.6H9.06v1.6H4.16v-.46H2.38v.46H1.66v1.3h.72V1.34H4.16V-3.92h4.9v2.136l-.476.023c-.831.04-1.626.072-2.327.1l-.472.019.128,1.41L7.586-.341C9.2-.445,11.026-.563,12.8-.7l.447-.034.083.441c.023.122.044.249.062.375L14.68-.223l-.012-.071a13.932,13.932,0,0,0-.925-2.925l-.306-.7h2.6v3.3a.687.687,0,0,1-.2.541.687.687,0,0,1-.541.2H15.1l.007.022c.166.5.29.92.373,1.276a3.673,3.673,0,0,0,1.783-.331h.006c.4-.221.584-.526.584-1.664V-5.22H10.82v-1.6h5.6ZM8.06-2.92H5.16v.3h.059l1-.041c.564-.022,1.188-.047,1.842-.077ZM24.54-17.6h3.84v.98H31.5v-.98h3.84v.98h4.2v3.52h-4.2v.3h3.82v3.36h-.14v3.08H36.84v.02h2.9v3.48H38.3v3H31.86V2.38H27.98V.14H21.62v-3H20.36V-6.34h.46V-9.66h.04V-12.8h3.68v-.3h-4.1v-3.52h4.1Zm2.84,1H25.54v.98h-4.1v1.52h4.1v.92h1.84v-.92h1.8v-1.52h-1.8Zm6.96,0H32.5v.98H30.8v1.52h1.7v.92h1.84v-.92h4.2v-1.52h-4.2Zm-4.16,3.5h-1.8v.3H31.5v-.3Zm7.98,1.3H21.86v1.36h7.12v5.1H21.36v1.48h7.62v1.64H22.62V-.86h6.36V1.38h1.88V-.86H37.3V-2.22H30.86V-3.86h7.88V-5.34H30.86v-5.1h7.3ZM25.8-9.2H24.12v.54h-2.3v1.42h2.3v.64H25.8v-.64h1.52V-8.66H25.8Zm10.04,0H34.16v.42H32.52v1.42h1.64v.76h1.68v-.76h2.18V-8.78H35.84ZM33.16-6.36h-1.3v.02h1.3ZM40.6-17.02H58.8v3.54H55.84v5.3h2.08v6.163c.349-.039.658-.084.9-.133l.533-.107.062.54c.065.571.232,1.972.373,2.656l.1.46-.453.123a22.939,22.939,0,0,1-4.59.278H47.46c-2.187,0-3.591-.376-4.552-1.219C41.865-.334,41.38-1.783,41.38-3.98v-9.5H40.6Zm17.2,1H41.6v1.54h.78v10.5c0,1.888.377,3.1,1.187,3.809C44.333.5,45.533.8,47.46.8h7.38A32.848,32.848,0,0,0,58.721.646c-.086-.529-.171-1.186-.236-1.727A27.12,27.12,0,0,1,55-.86H47.22a3.108,3.108,0,0,1-2.358-.7l-.055-.059H44.74V-1.7a3.317,3.317,0,0,1-.52-2.08v-10.7H57.8ZM46.72-13.48h-1.5v5.3h1.5Zm8.12.72H47.72v3.98h7.12Zm-4.4,5.58h-4.7v4.56h4.7Zm6.48,0H52.08v4.56h4.84Zm-7.5-4.74h3.54v2.28H49.42Zm2.54,1H50.42v.28h1.54ZM5.42-11.58H9.06v1.6H5.42Zm5.4,0H14.5v1.6H10.82ZM5.42-9.26H9.06v1.6H5.42Zm5.4,0H14.5v1.6H10.82ZM47.06-6.28h1.92v2.76H47.06Zm6.38,0h1.98v2.76H53.44ZM10.82-3.92h2.3l.111.987-.569.13q.038.1.072.2l.2.616-2.12.135Z" transform="translate(36 427)" fill="#fff"/><text transform="translate(89 389)" font-size="20" font-family="NotoSansCJKtc-Black, Noto Sans CJK TC" font-weight="800"><tspan x="0" y="0">中正區</tspan></text><path d="M12,2.4H7.92V-3.72H5.08v1.04H1.16v-11.5H7.92V-17.6H12v3.42h6.92v11.4H14.86v-.94H12Zm-3.08-1H11V-4.72h4.86v.94h2.06v-9.4H11V-16.6H8.92v3.42H2.16v9.5H4.08V-4.72H8.92Zm45.92.4H47.46c-2.187,0-3.591-.376-4.552-1.219C41.865-.334,41.38-1.783,41.38-3.98v-9.5H40.6v-3.54H58.8v3.54H55.84v5.3h2.08v6.163c.349-.039.658-.084.9-.133l.533-.107.062.54c.065.571.232,1.972.373,2.656l.1.46-.453.123a22.939,22.939,0,0,1-4.59.278ZM41.6-14.48h.78v10.5c0,1.888.377,3.1,1.187,3.809C44.333.5,45.533.8,47.46.8h7.38A32.849,32.849,0,0,0,58.721.646c-.086-.529-.171-1.186-.236-1.727A27.12,27.12,0,0,1,55-.86H47.22a3.108,3.108,0,0,1-2.358-.7l-.055-.059H44.74V-1.7a3.317,3.317,0,0,1-.52-2.08v-10.7H57.8v-1.54H41.6ZM52.08-2.62h4.84V-7.18H52.08Zm-6.34,0h4.7V-7.18h-4.7Zm-.52-5.56h1.5v-5.3h-1.5Zm2.5-.6h7.12v-3.98H47.72ZM39.76,1.72H20.3V-2.12h2.32v-8.66h4.04v8.66h1.96V-12.56H20.94V-16.4h18.3v3.84H32.72v2.88h5.36v3.84H32.72v3.72h7.04ZM21.3.72H38.76V-1.12H31.72V-6.84h5.36V-8.68H31.72v-4.88h6.52V-15.4H21.94v1.84h7.68V-1.12H25.66V-9.78H23.62v8.66H21.3ZM55.42-3.52H53.44V-6.28h1.98Zm-6.44,0H47.06V-6.28h1.92ZM15.86-6.58H11v-4.74h4.86ZM12-7.58h2.86v-2.74H12Zm-3.08,1H4.08v-4.74H8.92Zm-3.84-1H7.92v-2.74H5.08ZM52.96-9.64H49.42v-2.28h3.54Zm-2.54-1h1.54v-.28H50.42Z" transform="translate(89 389)" fill="#fff"/><text transform="translate(139 422)" font-size="20" font-family="NotoSansCJKtc-Black, Noto Sans CJK TC" font-weight="800"><tspan x="0" y="0">大安區</tspan></text><path d="M31.387-17.936l.168.368c.246.538.55,1.27.849,2.048h6.8V-9.8H36.746l-.02.12H39.48v3.74h-3.7a12.839,12.839,0,0,1-1.209,2.58,41.244,41.244,0,0,1,4.69,2.313l.5.3L36.98,2.6l-.374-.245A40.233,40.233,0,0,0,31.613-.286C29.581,1.1,26.857,1.952,22.842,2.456l-.407.051-.13-.389a12.227,12.227,0,0,0-1.674-2.8l-.287-.354-.532.473A12.125,12.125,0,0,0,17.759,2.06l-.224.409-.424-.195a14.307,14.307,0,0,1-7.023-7.03,14.36,14.36,0,0,1-7,7.024l-.421.21L2.427,2.07A8.562,8.562,0,0,0,.361-.259L-.32-.766l.774-.35A11.057,11.057,0,0,0,7.028-8.4H.56v-4.02H7.7c.079-1.232.088-2.465.1-3.662q0-.517.009-1.024L7.81-17.6h4.2l-.01.549c-.018,1.5-.037,3.055-.156,4.631H19.48V-8.4H12.906A11.831,11.831,0,0,0,19.66-1.406l.563.217-.2-.244.961-.065A25.093,25.093,0,0,0,26.6-2.39c-1.128-.428-2.305-.842-3.515-1.234l-.646-.209.391-.555c.314-.444.652-.964,1.01-1.552H20.56V-9.68h5.283c.34-.733.641-1.469.882-2.16H24.84V-9.8H20.88v-5.72h6.743c-.121-.351-.232-.66-.331-.924l-.2-.539ZM38.2-14.52H31.715l-.122-.323c-.267-.707-.544-1.391-.783-1.94l-2.385.528c.113.319.237.679.369,1.077l.219.658H21.88v3.72h1.96v-2.04H36.08v2.04H38.2ZM10.994-16.6H8.8v.525c-.01,1.364-.02,2.773-.133,4.195l-.037.46H1.56V-9.4H8.318l-.152.619a12.285,12.285,0,0,1-2.26,4.79A12.65,12.65,0,0,1,1.576-.545,10.114,10.114,0,0,1,3.04,1.166a13.25,13.25,0,0,0,6.551-7.34l.431-1.166.5,1.14a13.844,13.844,0,0,0,6.6,7.37A14.284,14.284,0,0,1,18.6-.768a12.027,12.027,0,0,1-4.038-3,15.183,15.183,0,0,1-2.854-4.967l-.24-.669H18.48v-2.02H10.752l.05-.545C10.944-13.53,10.975-15.087,10.994-16.6ZM35.08-11.84H31.226l.18.033-.194.553c-.173.493-.378,1.013-.621,1.574h1.553q.073-.6.118-1.253l.033-.494,2.786.158Zm-5.015.806-2.41-.437a25.232,25.232,0,0,1-1.044,2.507l-.136.284H21.56v1.74h4.029l-.437.751c-.4.679-.771,1.289-1.124,1.821,1.446.482,2.842.994,4.159,1.523l1.091.439L28.2-1.924A19.587,19.587,0,0,1,21.957-.571,13.792,13.792,0,0,1,23.1,1.414C26.887.906,29.416.075,31.267-1.265l.235-.17.264.12a45.4,45.4,0,0,1,5.01,2.6l1.463-1.77a50.54,50.54,0,0,0-4.616-2.2l-.571-.246.362-.5A11.522,11.522,0,0,0,34.945-6.6l.113-.344H38.48V-8.68H35.5l.135-.608c.066-.3.12-.62.17-.938l-2.581-.146c-.038.443-.087.867-.147,1.266l-.063.427H29.04l.326-.709c.272-.594.5-1.138.7-1.646ZM40.6-17.02H58.8v3.54H55.84v5.3h2.08v6.163c.349-.039.658-.084.9-.133l.533-.107.062.54c.065.571.232,1.972.373,2.656l.1.46-.453.123a22.939,22.939,0,0,1-4.59.278H47.46c-2.187,0-3.591-.376-4.552-1.219C41.865-.334,41.38-1.783,41.38-3.98v-9.5H40.6Zm17.2,1H41.6v1.54h.78v10.5c0,1.888.377,3.1,1.187,3.809C44.333.5,45.533.8,47.46.8h7.38A32.849,32.849,0,0,0,58.721.646c-.086-.529-.171-1.186-.236-1.727A27.12,27.12,0,0,1,55-.86H47.22a3.108,3.108,0,0,1-2.358-.7l-.055-.059H44.74V-1.7a3.317,3.317,0,0,1-.52-2.08v-10.7H57.8ZM46.72-13.48h-1.5v5.3h1.5Zm8.12.72H47.72v3.98h7.12Zm-4.4,5.58h-4.7v4.56h4.7Zm6.48,0H52.08v4.56h4.84Zm-7.5-4.74h3.54v2.28H49.42Zm2.54,1H50.42v.28h1.54ZM28.16-6.94h4.463l-.253.676A7.56,7.56,0,0,1,31.084-4.04l-.227.273-.332-.125c-1.044-.392-2.06-.749-2.829-1.016l-.576-.2.309-.525c.2-.344.394-.67.589-1.039Zm2.98,1H28.76q-.081.147-.162.288c.579.2,1.246.441,1.936.7a6.442,6.442,0,0,0,.605-.988Zm15.92-.34h1.92v2.76H47.06Zm6.38,0h1.98v2.76H53.44Z" transform="translate(139 422)" fill="#fff"/><text transform="translate(202 404)" font-size="20" font-family="NotoSansCJKtc-Black, Noto Sans CJK TC" font-weight="800"><tspan x="0" y="0">信義區</tspan></text><path d="M13.4-17.793l.22.343a19.683,19.683,0,0,1,1.5,2.783l.036.088h4.7v3.32h-1.4V-5.5h.28V2.28H15.2V1.82H10.3v.52H6.86V-5.5h.32v-5.76h-1V2.46H2.54v-9.4c-.119.142-.235.275-.351.4l-.557.61L1.35-6.709A18.094,18.094,0,0,0-.034-9.48l-.222-.328L.012-10.1a20.581,20.581,0,0,0,3.973-7.077l.153-.467,3.546,1.1-.172.49q-.262.744-.558,1.474h4.124c-.2-.416-.457-.889-.753-1.415l-.283-.5Zm.6,3.055a20.626,20.626,0,0,0-1-1.828l-1.52.586c.359.661.643,1.233.844,1.7l.3.7H6.8v1.32H18.86v-1.32H13.74l-.2-.959ZM6.392-15.9l-1.616-.5A21.9,21.9,0,0,1,1-9.708a20.709,20.709,0,0,1,.963,1.884c.208-.26.427-.552.666-.887L3.54-9.98V1.46H5.18V-13.054l.049-.1q.3-.617.57-1.256v-.167H5.87Q6.145-15.231,6.392-15.9ZM17.46-10.5H8.18v1.24h9.28Zm0,2.96H8.18V-6.3h9.28Zm.28,3.04H7.86V1.34H9.3V.82h6.9v.46h1.54ZM32.372-17.71l4.468.8-.479.647q-.158.214-.315.423H38.58v3.1H37.56v1.84h1.96v3.16H37.774a7.927,7.927,0,0,1,.9.611l.422.34-.653.689H39.66V-3h-1l-.247.323q-.193.253-.41.5a5.687,5.687,0,0,0,1.674.818l.427.126L40.033-.8a4.133,4.133,0,0,1-1.115,2.542,3.358,3.358,0,0,1-2.3.633,5.168,5.168,0,0,1-3.349-1.252,26.415,26.415,0,0,1-3.6,1.254l-.414.115L29.084,2.1A13.93,13.93,0,0,0,28.01.281a2.463,2.463,0,0,1-.245.809,1.985,1.985,0,0,1-1.151.938A10.632,10.632,0,0,1,23,2.4h-.408L22.51,2a9.142,9.142,0,0,0-.755-2.072l-.063-.121-.545.031-.477.026L20.348-3.31h.112V-6.1h.931a6.635,6.635,0,0,0-.474-1.289l-.183-.351H20.5V-10.9h2v-1.84H21.46v-3.1H24.3q-.057-.081-.112-.151l-.448-.57,3.547-1.109.214.223a6.66,6.66,0,0,1,1.1,1.606h3.063a12.247,12.247,0,0,0,.576-1.447Zm2.7,1.5-2.018-.361a14.672,14.672,0,0,1-.628,1.456l-.138.276H27.944l-.127-.311a5.839,5.839,0,0,0-.836-1.375l-1.611.5c.081.136.165.285.252.449l.389.734H22.46v1.1h6.5v1.44H23.5v.96h5.46V-9.9H21.5v1.16H38.52V-9.9H30.96v-1.44h5.6v-.96h-5.6v-1.44h6.62v-1.1H33.952l.683-.82q.219-.263.439-.551ZM29.029-7.093,27.465-8.678l.082.931a51.017,51.017,0,0,1-5.442.588c.09.242.172.5.234.729.869-.025,1.652-.067,2.38-.128L25.26-6.6v1.5h-3.8V-4h3.8v1.546l-.486.013c-.641.018-1.248.039-1.835.059-.521.018-1.021.036-1.486.048l.117,1.146c.592-.034,1.225-.074,1.888-.115l1.273-.078.53-.032V-.6a.782.782,0,0,1-.24.631.782.782,0,0,1-.642.209c-.122.008-.34.012-.6.012-.125,0-.426,0-.778-.011A10.482,10.482,0,0,1,23.4,1.4a8.755,8.755,0,0,0,2.873-.308c.56-.208.794-.478.794-1.611V-1.547l2.625-.18.01-.929-2.635.12V-4h4.306l.11.349a12.028,12.028,0,0,0,.845,2.016l.266.5-.53.2A21.378,21.378,0,0,1,29-.042a15.443,15.443,0,0,1,.8,1.348A24.025,24.025,0,0,0,33.151.086l.3-.14L33.7.174A4.185,4.185,0,0,0,36.62,1.38,2.41,2.41,0,0,0,38.262.993a2.759,2.759,0,0,0,.7-1.539A7.038,7.038,0,0,1,37.8-1.109a1.014,1.014,0,0,1-1.045.87,2.317,2.317,0,0,1-1.077-.28L34.99-.89l.626-.469a11.519,11.519,0,0,0,1.374-1.2l.024-.235-.7-.236L36.48-4h2.18V-5.1H32.885l-.091-.385c-.088-.37-.158-.752-.213-1.151L32.4-6.708l.154-.159q-.037-.309-.061-.633h-1.76q.031.394.081.793L31-6.523l-.152.037q.055.4.128.8l.109.591H27.06V-6.776l.432-.059C28.011-6.906,28.53-6.993,29.029-7.093Zm8.575.425a14.047,14.047,0,0,0-2.137-1.11l.167-.829L34.145-7.074A15.919,15.919,0,0,1,36.072-6.02l.568.368ZM31.18-1.679c-.179-.377-.341-.765-.484-1.159l-.014,1.322Q30.935-1.6,31.18-1.679ZM40.6-17.02H58.8v3.54H55.84v5.3h2.08v6.163c.349-.039.658-.084.9-.133l.533-.107.062.54c.065.571.232,1.972.373,2.656l.1.46-.453.123a22.939,22.939,0,0,1-4.59.278H47.46c-2.187,0-3.591-.376-4.552-1.219C41.865-.334,41.38-1.783,41.38-3.98v-9.5H40.6Zm17.2,1H41.6v1.54h.78v10.5c0,1.888.377,3.1,1.187,3.809C44.333.5,45.533.8,47.46.8h7.38A32.849,32.849,0,0,0,58.721.646c-.086-.529-.171-1.186-.236-1.727A27.12,27.12,0,0,1,55-.86H47.22a3.108,3.108,0,0,1-2.358-.7l-.055-.059H44.74V-1.7a3.317,3.317,0,0,1-.52-2.08v-10.7H57.8ZM46.72-13.48h-1.5v5.3h1.5Zm8.12.72H47.72v3.98h7.12Zm-4.4,5.58h-4.7v4.56h4.7Zm6.48,0H52.08v4.56h4.84Zm-7.5-4.74h3.54v2.28H49.42Zm2.54,1H50.42v.28h1.54Zm-4.9,4.64h1.92v2.76H47.06Zm6.38,0h1.98v2.76H53.44ZM33.2-4h3.269l-.785.841a7.006,7.006,0,0,1-1.053.884l-.463.334-.27-.5a8.256,8.256,0,0,1-.424-.871ZM9.3-3.22h6.9V-.46H9.3Zm5.9,1H10.3v.76h4.9Z" transform="translate(202 404)" fill="#fff"/><text transform="translate(274 379)" font-size="20" font-family="NotoSansCJKtc-Black, Noto Sans CJK TC" font-weight="800"><tspan x="0" y="0">南港區</tspan></text><path d="M5.06,2.34H1.14V-12.28H7.734l.025-.16H.58v-3.7H8.166c.025-.323.039-.636.052-.943l.025-.58,4.29.371L12.36-16.14h7.06v3.7H11.71l-.033.16H18.86V-.94c0,1.274-.258,2.237-1.517,2.8a9.877,9.877,0,0,1-3.9.463h-.412l-.079-.4a9.175,9.175,0,0,0-.885-2.27L11.8-.825V1.7H8.06V-.98h-3Zm-2.92-1H4.06V-9.62h7.859l-.107.589c-.12.66-.323,1.521-.531,2.248l-.1.363H8.36L8.229-7.4l.464-.126A11.672,11.672,0,0,0,8.15-8.9l-.2-.4.075.672L6.916-8.38a13.447,13.447,0,0,1,.429,1.339L7.5-6.42H6.12V-5.2H9.06v1.92H5.7v1.3H9.06V.7H10.8V-1.98h3.46v-1.3H10.8V-5.2h2.98V-6.42H12.506l.268-.683c.156-.4.324-.85.493-1.312L12.11-8.628l.09-.992h3.66V-.96c0,.334-.126.893-.963.9-.129.008-.369.012-.663.012-.145,0-.5,0-.909-.013a10.514,10.514,0,0,1,.509,1.38,8.174,8.174,0,0,0,3.1-.376c.625-.278.923-.631.923-1.883V-11.28h-7.42l.135-.608c.079-.355.16-.759.238-1.15l.08-.4h7.53v-1.7H11.2l.187-1.248L9.2-16.577c-.016.316-.039.652-.079.994l-.051.443H1.58v1.7H8.921l-.086.574c-.059.4-.121.8-.181,1.168l-.07.418H2.14ZM14.78-4.28h.08V-8.62h-.453c-.146.4-.3.812-.44,1.2h.814Zm-9.72,0h.06V-7.42H6.193c-.115-.353-.259-.746-.416-1.131L5.749-8.62H5.06ZM9.772-7.42h.647c.106-.4.207-.813.29-1.2H9.362C9.532-8.19,9.676-7.757,9.772-7.42ZM35.66,2.12H32.08a4.446,4.446,0,0,1-3.086-.775A3.561,3.561,0,0,1,28.1-1.52v-1.9a9.148,9.148,0,0,1-.742.617l-.422.313-.291-.437a9.223,9.223,0,0,0-.606-.792C25.39-2.026,24.628-.229,23.814,1.53l-.241.52L20.14-.149l.22-.408A59.1,59.1,0,0,0,23.214-6.74l.054-.14a24.12,24.12,0,0,0-3.154-2.064l-.507-.287,2.255-2.86.366.186c1.281.653,2.236,1.18,2.893,1.6V-12.08H28.2v-.04H25.86v-1.035l-1.123,1.4-.394-.359a25.249,25.249,0,0,0-3.125-2.164l-.5-.306,2.363-2.775.358.2c.5.28,1.585.887,2.477,1.458h.7l.244-.305v.305H28.2v-1.88h3.82v1.88h1.14v-1.88h3.86v1.88h2.36v3.58H37.02v.04H40v3.6H37.61a9.275,9.275,0,0,0,2.432,2.254l.609.376-.562.443A10.161,10.161,0,0,0,38.166-3.24l-.282.461L37.447-3.1a8.039,8.039,0,0,1-.827-.694v.571l.268.188a6.908,6.908,0,0,0,2.093.819l.451.093-.056.457A4.928,4.928,0,0,1,38.335,1.28a3.433,3.433,0,0,1-2.675.84ZM29.1-5.955V-1.52c0,1.133.168,1.767.561,2.12a3.718,3.718,0,0,0,2.419.52h3.58A2.584,2.584,0,0,0,37.615.585a3.559,3.559,0,0,0,.708-1.928,9.239,9.239,0,0,1-1.3-.472C36.9-.762,36.6-.18,35.44-.18h-3.1a2.3,2.3,0,0,1-1.326-.236A1.282,1.282,0,0,1,30.58-1.56V-2.84h5.04v-3.6l.88,1.06a9.6,9.6,0,0,0,1.124,1.155,12.557,12.557,0,0,1,1.337-1.522,10.8,10.8,0,0,1-2.73-2.97l-.472-.763H39v-1.6H36.02v-2.04h2.36V-14.7H36.02v-1.88H34.16v1.88H31.02v-1.88H29.2v1.88H26.86v1.58H29.2v2.04H26.12v1.6h3.1l-.422.746A11.324,11.324,0,0,1,25.89-5.351l.331.345a13.682,13.682,0,0,1,.938,1.089,10.787,10.787,0,0,0,1.068-1.055ZM21.458-.492,23.146.589c.837-1.839,1.609-3.7,2.246-5.422l.082-.221-.017.011-.291.192-1.259-.923C23.108-3.8,22.17-1.848,21.458-.492ZM31.6-1.23a3.1,3.1,0,0,0,.737.05h3.1c.374,0,.408-.057.435-.1a1.708,1.708,0,0,0,.146-.557H31.58v.28a1.519,1.519,0,0,0,.02.327ZM24.038-6.917l1.149.843A10.133,10.133,0,0,0,27.46-8.48H25.2ZM21.11-9.524a27.183,27.183,0,0,1,2.439,1.587l1.1-1.484c-.564-.364-1.405-.834-2.512-1.406Zm1.126-5.293c.692.436,1.681,1.082,2.372,1.626l1.14-1.425c-.758-.51-1.818-1.12-2.434-1.467ZM54.84,1.8H47.46c-2.187,0-3.591-.376-4.552-1.219C41.865-.334,41.38-1.783,41.38-3.98v-9.5H40.6v-3.54H58.8v3.54H55.84v5.3h2.08v6.163c.349-.039.658-.084.9-.133l.533-.107.062.54c.065.571.232,1.972.373,2.656l.1.46-.453.123a22.939,22.939,0,0,1-4.59.278ZM41.6-14.48h.78v10.5c0,1.888.377,3.1,1.187,3.809C44.333.5,45.533.8,47.46.8h7.38A32.849,32.849,0,0,0,58.721.646c-.086-.529-.171-1.186-.236-1.727A27.12,27.12,0,0,1,55-.86H47.22a3.108,3.108,0,0,1-2.358-.7l-.055-.059H44.74V-1.7a3.317,3.317,0,0,1-.52-2.08v-10.7H57.8v-1.54H41.6ZM52.08-2.62h4.84V-7.18H52.08Zm-6.34,0h4.7V-7.18h-4.7Zm-.52-5.56h1.5v-5.3h-1.5Zm2.5-.6h7.12v-3.98H47.72Zm7.7,5.26H53.44V-6.28h1.98Zm-6.44,0H47.06V-6.28h1.92Zm-14.6-.34h-3.8v-2.2h3.8Zm-2.8-1h1.8v-.2h-1.8Zm3.685-2.22h-5.49l.382-.731c.249-.478.459-.923.642-1.361l.128-.308h3.181l.131.3c.235.542.44.976.645,1.368Zm-3.858-1h2.229c-.06-.127-.12-.26-.183-.4H31.59l-.183.4ZM52.96-9.64H49.42v-2.28h3.54Zm-2.54-1h1.54v-.28H50.42Zm-16.26-.44H31.02v-2.04h3.14Zm-2.14-1h1.14v-.04H32.02Z" transform="translate(274 379)" fill="#fff"/><text transform="translate(202 499)" font-size="20" font-family="NotoSansCJKtc-Black, Noto Sans CJK TC" font-weight="800"><tspan x="0" y="0">文山區</tspan></text><path d="M11.49-17.955l.192.36a15.759,15.759,0,0,1,1.3,3.159l.028.116h6.77v3.84H16.614A20.527,20.527,0,0,1,13.14-4.235a19.52,19.52,0,0,0,6.688,2.747l.907.2-.667.647a13.266,13.266,0,0,0-1.87,2.6l-.187.341-.376-.1a20.5,20.5,0,0,1-7.517-3.55A23.009,23.009,0,0,1,2.274,2.362l-.411.115-.178-.388A16.255,16.255,0,0,0-.006-.542l-.518-.629.8-.177A19.927,19.927,0,0,0,7.227-4.155,23.738,23.738,0,0,1,3.639-10.48H.32v-3.84H8.4a14.931,14.931,0,0,0-.732-1.905l-.251-.529Zm.4,3.3a16.511,16.511,0,0,0-.9-2.11l-2.176.642a15.782,15.782,0,0,1,.736,2.181l.155.621H1.32v1.84h3l.123.32a22.562,22.562,0,0,0,3.9,6.774l.354.41-.437.32A19.715,19.715,0,0,1,1.243-.549,18.988,18.988,0,0,1,2.4,1.286,21.456,21.456,0,0,0,9.81-2.373l.313-.247.31.25a19.139,19.139,0,0,0,7.084,3.507A16.632,16.632,0,0,1,18.789-.708a19.744,19.744,0,0,1-6.682-3.026l-.448-.322.365-.414a19.486,19.486,0,0,0,3.762-6.673l.116-.337H18.78v-1.84h-7.9l-.147-.978ZM27.94-17.48h4.08V-3h2.86V-13.28h4.04V2.4H34.88V1H21.2V-13.18h4V-3h2.74Zm3.08,1H28.94V-2H24.2V-12.18h-2V0H35.88V1.4h2.04V-12.28H35.88V-2H31.02Zm9.58-.54H58.8v3.54H55.84v5.3h2.08v6.163c.349-.039.658-.084.9-.133l.533-.107.062.54c.065.571.232,1.972.373,2.656l.1.46-.453.123a22.939,22.939,0,0,1-4.59.278H47.46c-2.187,0-3.591-.376-4.552-1.219C41.865-.334,41.38-1.783,41.38-3.98v-9.5H40.6Zm17.2,1H41.6v1.54h.78v10.5c0,1.888.377,3.1,1.187,3.809C44.333.5,45.533.8,47.46.8h7.38A32.849,32.849,0,0,0,58.721.646c-.086-.529-.171-1.186-.236-1.727A27.12,27.12,0,0,1,55-.86H47.22a3.108,3.108,0,0,1-2.358-.7l-.055-.059H44.74V-1.7a3.317,3.317,0,0,1-.52-2.08v-10.7H57.8ZM46.72-13.48h-1.5v5.3h1.5Zm8.12.72H47.72v3.98h7.12Zm-4.4,5.58h-4.7v4.56h4.7Zm6.48,0H52.08v4.56h4.84Zm-7.5-4.74h3.54v2.28H49.42Zm2.54,1H50.42v.28h1.54ZM6.245-11.48h7.443l-.236.667a15.625,15.625,0,0,1-2.894,5.061l-.362.417-.379-.4a16.969,16.969,0,0,1-3.277-5.05Zm6.012,1H7.774a15.924,15.924,0,0,0,2.389,3.638,14.573,14.573,0,0,0,2.093-3.638Zm34.8,4.2h1.92v2.76H47.06Zm6.38,0h1.98v2.76H53.44Z" transform="translate(202 499)" fill="#fff"/></g></svg>