<svg xmlns="http://www.w3.org/2000/svg" width="585.7" height="558.8">
  <g stroke="#fff" stroke-width="2">
    <path d="M155 275a30 30 0 0 0-6 3 35 35 0 0 1-4 1l-4-2-3 1-3-1-4 2-9 16h-5l-5 3-5 2-7 15a56 56 0 0 0 2 6l2 1 5 1 2 2a52 52 0 0 0 7-2l5 2 1 1a29 29 0 0 0 4 0l4-5h8l13-8 6-9 2-13a49 49 0 0 0-4-4l-2-4 3-3-1-2a27 27 0 0 0-2-3" fill="#4f51c6" stroke-miterlimit="10"/>
    <path d="M155 275a30 30 0 0 0-6 3 35 35 0 0 1-4 1l-4-2-3 1-3-1-4 2-9 16h-5l-5 3-5 2-7 15a56 56 0 0 0 2 6l2 1 5 1 2 2a52 52 0 0 0 7-2l5 2 1 1a29 29 0 0 0 4 0l4-5h8l13-8 6-9 2-13a49 49 0 0 0-4-4l-2-4 3-3-1-2a27 27 0 0 0-2-3Z" fill="none"/>
    <path d="M168 257a26 26 0 0 1-3 3c-2-1-5-2-7-1-2 2-3 6-6 8-1 1-3 1-3 3v8l6-3a45 45 0 0 1 3 5l-3 3 6 8-2 13a47 47 0 0 0 8-1l4-5c4-1 8-1 11-3l3-4 6-4 1-4 7-1v-4l6-1-2-4h-3l-7 1-6 3-1-8-4-1-2-8c-3 2-5 2-8 2-2 1-2-2-2-3l-2-2" fill="#9597dd" stroke-miterlimit="10"/>
    <path d="M168 257a26 26 0 0 1-3 3c-2-1-5-2-7-1-2 2-3 6-6 8-1 1-3 1-3 3v8l6-3a45 45 0 0 1 3 5l-3 3 6 8-2 13a47 47 0 0 0 8-1l4-5c4-1 8-1 11-3l3-4 6-4 1-4 7-1v-4l6-1-2-4h-3l-7 1-6 3-1-8-4-1-2-8c-3 2-5 2-8 2-2 1-2-2-2-3l-2-2Z" fill="none"/>
    <path d="m434 147-9 3c0 6-4 10-8 15-1 2-3 6-6 5-3-3-7-5-11-5-4 3-7 9-12 9-3 1-1 4-1 6v14c4 4 9 7 12 12-1 2 2 2 4 2 6 0 11-3 16-5 3 4 3 10 6 13l8 4a10 10 0 0 0 1 9 3 3 0 0 0 5 2c3-4 8 0 12-2 2-2-1-5-1-6-2-3-4-6-3-9 1-4 0-8 4-11 4-5 10-9 13-15 0-2 0-4 2-5 2-2 5 1 7 1a37 37 0 0 0 15 2c1 0-1-2 1-2l15-4 1-17c4 0 10 0 13-4 0-2 0-5-3-5s-7 1-10 4a25 25 0 0 1-18 2c-4 0-9-3-13-2-3 2-5 0-8 0-6-1-11 0-17-3-4-1-6 4-9 5-2 1-5 0-6-2-2-3 1-6 2-9 2-2 1-2-2-2" fill="#9597dd" stroke-miterlimit="10"/>
    <path d="m510 163-6 1v16l-16 4 2 19 10 7-1 13c2 3 7 3 7 6a42 42 0 0 1-3 17l-1 11c-3 1-7 0-10 2a44 44 0 0 1-12 21c-4 6-2 15-6 22-2 2 3 2 4 3h9c7-5 13-12 21-16 7-2 14-1 21-4 8-3 15-6 23-4 4 1 7 0 8-3s6-1 7-4c3-3 9-4 11-8 2-1 5 0 6-3s1-6-2-8c-1-2-3-4-6-2l-3 2c-2-3-3-6-6-7-3-3-8-5-12-3-3 2-7 5-11 4-3 0-7 0-10-3-4-3-9-6-11-11l-1-18c-2-1 2-2 2-4s-3-4-5-6c-4-4-8-8-9-14-1-2 1-6 2-9 0-3 2-5 5-7 3-3 0-7-3-9-1-1-2-3-1-4 0-2-2-1-3-1" fill="#7274d1" stroke-miterlimit="10"/>
    <path d="M467 182c-4 1-1 6-4 8l-15 17-1 11 5 10c-1 3-5 1-7 1-3-1-6 1-8 3l-2 2c-2 1-4 3-4 6-1 2-4 1-5 2-5 4-12 5-17 8-2 6-2 12-7 15l-8 8c1 4 5 5 7 7l9 4c2 2 3 0 4-1 2-1 5-2 6 1s4 5 1 8c-2 4-2 9-3 14 1 3 5 5 2 8-2 1-4 4-2 6 0 3-4 4-4 7a45 45 0 0 1-5 12c2 1 5 2 4 4 1 4 0 9 4 11 3 3 7 0 10 0l14 1 16-11 4-11-11-16 4-11c3-2 5-5 8-4l11 1c4-6 3-15 6-22 6-6 11-12 13-21 0-3 4-2 6-2 3 0 5-1 4-5-1-6 4-12 3-19 0-3 2-7-2-8-3-1-5-3-4-7l1-9c-4-1-7-4-10-6l-2-17c-6-1-13-1-19-4a9 9 0 0 0-2-1Z" fill="#7274d1" stroke-miterlimit="10"/>
    <path d="M211 363c-3 2-4 6-7 9-7 1-14 3-21 7-2 2-4 6-7 5-4 1-5 5-6 7a13 13 0 0 0 4 8l-1 16c-2 2-7-1-8 3-1 3-4 6-2 8 1 2 1 4-1 5s-6 1-6 4c0 2-1 4-3 5h-9l-7 15c-1 2 1 7-2 8-4 3-6 8-10 10-4 3-8 8-6 13l3 12a85 85 0 0 0 5 12l8 8c0 2-2 5 1 6 2 1 6 1 5 5 0 4 6 2 8 5l8 9 2 12a32 32 0 0 0 16 3c4-2 7-5 11-5s8 0 12-3l10-7c1-3 1-7 4-8 7-3 12-8 20-8 3 0 7-2 9-5 3-4 7-5 11-6 3-7 6-14 3-21-1-4-5-7-5-11-2-3 1-4 3-6 3-1 2-5 2-8 0-4 0-9 3-12a29 29 0 0 0 10-4c3 0 6 3 9 1l6-8c1-3-3-4-4-5l29-4 9-5 5 5c1-2 1-5 4-6 3 0 4-2 6-5s6-5 6-9l11-7c-1-3-4-6-8-7-11-4-22-5-34-4a27 27 0 0 0-9-10c-7 1-16 3-23-1-5-2-12-1-18-3a58 58 0 0 0-15-9h-12l-1-8c-1-3-6-1-8-2-3 0-7 2-8-2l-2-2" fill="#4f51c6" stroke-miterlimit="10"/>
    <path d="m64 316-21 17c3 2 4 3 0 5a19 19 0 0 0-8 11l2 11 13 8 8 14c-1 2-4 4-3 7 1 4 6 5 8 8-4 4-11 4-16 6-1 1-2 4-1 5 3 1 7 2 9-1s4 1 6 2c6 6 17 8 25 3l15-1c3 1 4 3 5 5 3 2 4 6 6 9 3 4 8 7 12 10 3 3 4 6 4 10 1 3 1 8 5 9 3 1 5-2 6-4l5-10c4-1 9 1 11-2 1-2 0-5 3-6 2-1 5-1 6-4 0-2-3-3-1-5 1-2 1-6 3-7l8-1v-16c-3-2-4-4-5-7h-10c-1-3 0-7-3-10-2-2-3-4-2-7a12 12 0 0 1 3-9c3-3 4-8 8-10 3-1 2-5 3-8 1-4-2-8-4-11s-5-3-8-5l-11-2a24 24 0 0 0-5-9c-3 1-6-1-8 1s-4 5-8 4l-4-2c-3-2-7 2-10 1-2-4-8-2-9-6 0-2-1-4-3-2-1 1-2 5-4 4-4-3-8-5-13-4-6 1-12-1-17-1Z" fill="#dcdcf4" stroke-miterlimit="10"/>
    <path d="M45 290c-3 0-7 2-7 6-1 3 4 6 2 10l-1 11a21 21 0 0 0-6 9c2 2 2 6 5 6s5 1 7-1c6-6 16-10 20-18 1-4 6-5 9-8 2-1 3-2 2-3a42 42 0 0 0-9-12H45" fill="#dcdcf4" stroke-miterlimit="10"/>
    <path d="M103 253c-3 4-7 5-11 7 1 3 6 3 5 7 1 2 0 4-3 6-2 1-7 1-8 5-2 4-5 8-9 10-2 3-6 2-9 2 1 3 4 5 6 7a35 35 0 0 1 3 7c-4 3-9 4-12 8 0 1-2 4 0 4 7 1 14 2 21 1 3 0 6 3 8 4 7-6 9-14 13-21 3-1 7-3 10-6-1-2-4-4-3-7 0-4 0-8 3-11 1-1 0-4 2-5-1-4-4-9-7-13-2-3-6-4-9-5Z" fill="#4f51c6" stroke-miterlimit="10"/>
    <path d="M66 151c-7 4-15 5-22 9H12c-3 4-7 7-11 8 0 2 2 4 3 5 2 3 5 5 8 6 2 2 3 5 7 4 5 1 10 1 14 4l21 10-1 9c2 3 5 6 9 6 6 2 12 3 18 2 1-2 0-7 4-6 5-1 7 4 10 7a7 7 0 0 0 6-2c0-2 0-4-2-5 0-1-4-3-3-4a4 4 0 0 0 5-3 21 21 0 0 0-6-3 8 8 0 0 1-8 2c0-3-3-6-1-8s3-6 2-9a76 76 0 0 0-9-13c-5-6-8-13-12-19Z" fill="#b9b9e8" stroke-miterlimit="10"/>
    <path d="M105 121c-4-1-5 5-6 8-3 4-7 8-12 11l-12 6a24 24 0 0 0-8 4c4 8 7 15 13 22l8 11c0 4-1 7-4 10 1 2 1 7 4 7a8 8 0 0 0 6-2l7 3 2-14c0-5-4-9-6-13l1-10c3-1 8-1 9-5 2-3 6-1 9-2 3 0 6-1 8 2 4 3 7 7 13 8l8 2c1-1 1-4-1-5l-5-6-3-8a12 12 0 0 1-4-8c0-6-7-9-11-13s-9-9-16-8" fill="#b9b9e8" stroke-miterlimit="10"/>
    <path d="M115 157c-3 1-7-1-8 3-2 3-6 3-9 5v10c4 5 6 11 5 17 0 3-2 6-1 9 4 4 11 4 15 7 3 2 6 5 9 2 2-1 6-3 8 0v7a66 66 0 0 0 16-7c2-2 0-5-1-7-2-3-6-5-8-9 0-6 3-11 6-15a62 62 0 0 1-2-9c-5-4-12-2-17-7-2-2-4-5-7-6h-6" fill="#9597dd" stroke-miterlimit="10"/>
    <path d="M147 179a28 28 0 0 0-6 13c-1 5 5 7 7 10 2 2 2 6 4 7 3-1 7-2 7-6 0-2 4-1 4-3l8-13c-2-2-4-5-7-4-5-1-12 0-16-4h-1" fill="#dcdcf4" stroke-miterlimit="10"/>
    <path d="M101 201c-2 2-3 5-6 3 1 3 6 4 5 7 1 3-3 3-5 4l-8-7c-2 0-6 0-6 3 0 1-2 4 1 3 4 0 7 2 10 5l4 9c2 2 4 2 5 5s4 0 5 1h6l8 1c3 0 6-1 8-3 3-4 1-8 0-12 2-2 7-2 6-5 0-3 0-6-3-6s-5 2-8 3c-4-2-7-6-12-7a78 78 0 0 1-10-4" fill="#7274d1" stroke-miterlimit="10"/>
    <path d="M145 213a75 75 0 0 0-17 7c1 4 3 9 0 12-3 2-7 4-11 3a7 7 0 0 0-4 0c-1-2-4 0-6-1s-3 0-5 1c-2-2-2-6-5-6l-3 6c-1 6 3 11 7 13 1 1 4 2 3 4s3 2 4 3c4 1 6 6 8 10 2 2 2 6 6 6 2 1 2-3 3-4 2-6 5-13 10-18l14-12c1-2-1-4-2-6s2-3 2-5c1-3 1-6-1-8-2-1 0-5-3-5" fill="#9597dd" stroke-miterlimit="10"/>
    <path d="M171 188a63 63 0 0 0-8 13c-2 1-4 0-4 3-1 4-6 5-10 7-3 0-3 2-2 5s4 5 3 8a10 10 0 0 1-3 6 20 20 0 0 0 2 6h21a88 88 0 0 0 11-14l-1-23c-2-4-4-9-9-11Z" fill="#b9b9e8" stroke-miterlimit="10"/>
    <path d="M151 236c-8 6-17 12-22 21l-6 14c-1 0-5-1-5 2 1 4-4 5-3 8v9c1 3 4 6 7 4 4-5 5-11 10-16 3-2 6 0 9-1 2 0 5 3 7 1 2-3 0-7 1-9 5-2 6-7 9-10 3 0 7 2 10-2v-7c-1-4-2-9 1-12 1-3-6-1-8-2h-10" fill="#9597dd" stroke-miterlimit="10"/>
    <path d="M187 253c-3 1-4 6-7 7-1 1 1 3 1 5-1 5 5 2 5 5 1 2 0 7 3 7 2-2 5-3 8-3l6-2c0-6 0-12-6-15-3-2-6-4-10-4" fill="#4f51c6" stroke-miterlimit="10"/>
    <path d="m289 249-11 4h-14c-6 3-8 10-6 16a54 54 0 0 1 2 18c0 2 1 4 3 5 4 2 8 5 13 5 5-2 8-6 12-9 4-2 1-8 4-11 1-2 5-4 2-6-1-2-3-4-2-7 0-3 1-8-1-10-1-2 1-5-2-5Zm-86 28c-3 0-4 1-3 4 0 2-4 1-5 2-2 0-4 1-4 3-1 4-6 4-8 7-1 4-6 3-9 4-4 0-5 4-7 6-3 1-7 0-9 3-3 4-5 8-10 10l-8 5a30 30 0 0 1 5 8c6 2 13 3 19 7 2 4 5 9 4 14-1 2-1 6-4 7-4 3-5 8-8 12-2 3-2 7-2 11 3 2 5 5 5 9 0 1 0 3 2 3l8-1c2-2 3-6 6-7 5 1 7-5 11-7a129 129 0 0 1 19-6c2-3 3-6 6-8 2 1 2 5 6 5l12-1c1 4 0 7 2 11l9-1 1-12c1-2 2-6-1-7l-6-5 13-4c2-1 4-4 5-2 1 1 3 5 5 2a17 17 0 0 0-1-11 12 12 0 0 1 2-12c2 0 4 0 3-2 0-2-2-3-1-4 1-2 5-1 5-4 1-2 3-5 1-7-2-1 1-2 1-4 1-2 1-4-1-3-3 1-6 3-10 2l-24-3-10-7-3-11c-3 0-7 0-10-3l-6-3m202 5c-2 1-4 5-7 4s-5-1-7 2c-2 2-6 0-8 2-3 0-5-4-8-2l-16 3c0 2-1 4-3 4h-8c-2 2-2 6-6 6h-9l-7 8c-3 1-8 0-9 4-2 3 4 5 2 9 0 3-3 6 0 8 2 2 5 4 6 7-1 2-1 4-4 4-2 1-3 4-5 4-3 1 1 4 0 7l-4 2c-3 0-3 5-7 5-2 0-3 3-2 5 2 1 3 3 2 5 0 3-3 4-1 7 2 2 3 5 2 8-3 1-7 3-7 6l5 5c2 2 2 6 5 5 11 0 21 0 31 4a11 11 0 0 1 8 5c1 1 2 3 4 1 4-5 8-11 15-12 8-1 16 2 24 3a56 56 0 0 1 11-5c0-4-1-9 3-11 3-4 1-10 0-14 4-6 9-10 14-15 1-1-2-1-2-2-2-2-4-4-4-7s1-6-3-7c-3-1 2-4 2-6 1-4 1-9 5-12 1-2-1-5 1-7 1-1 4-3 2-5-1-2-2-5-1-8a29 29 0 0 1 3-13c-1-2-2-6-4-6a6 6 0 0 0-6 2l-7-3" fill="#7274d1" stroke-miterlimit="10"/>
    <path d="M336 233c-4 0-9 0-11 4-5 4-13 4-18 8 0 1 2 1 1 2 0 3-1 4-4 3l-13-1c-1 3-1 5 1 7v12c1 2 5 5 2 7a11 11 0 0 0-4 8c0 4-4 5-6 8-3 2-6 6-10 7-1 1 1 5-2 4-2-1-5 0-4 3 0 2-5 3-2 5 2 2 0 5-1 7-2 2-4 1-5 3 0 2 3 4 1 6a5 5 0 0 0-5 3c-2 4 0 9 1 13v8c-1 1-2 1-3-1-1-1-2-4-4-2a30 30 0 0 1-13 5c-1 0-4 1-2 2l7 6-1 8v8a79 79 0 0 1 16 10c2 2 6 1 10 1a29 29 0 0 1 13 4c6 1 12 0 18-1 2 0 1-3 3-3 1-2 3-2 5-3 1-4-2-7-3-10 2-2 4-6 1-8-1-2-2-3-1-5a2 2 0 0 1 3-2c3-1 3-5 7-5a4 4 0 0 0 2-6c0-1-1-4 1-4l7-4a4 4 0 0 0-1-7c-2-2-5-4-4-8 0-3 2-6-1-8a4 4 0 0 1 1-6c3-2 6-1 9-2l6-8h11c2-3 3-7 7-6 2-1 5 0 7-2 1-4 5-8 6-13a19 19 0 0 0-3-10 14 14 0 0 0 2-7c0-2-3-3-5-3-2 2-3 2-4 0-3-2-6-4-7-7v-8c-3-4-8-7-10-12a1 1 0 0 0-1 0" fill="#9597dd" stroke-miterlimit="10"/>
    <path d="M413 205c-4 3-9 3-14 3l-4 8c-8 0-14 4-20 7h-9c-2 4-7 4-10 8a53 53 0 0 0-7 10c-1 1-5 1-3 2 3 2 1 5 1 8 0 2 0 4 2 5l7 6a4 4 0 0 1 5-1c2 0 1 4 2 5 0 2-3 4-1 6 3 4 3 9 0 12 0 2-5 7-1 6 6 0 11-2 16-3 3 1 5 4 7 2 3-1 7 1 8-3 2-3 7 1 10-1s1-4-1-5c-3-2-6-4-7-7l12-13c1-3 1-7 3-10l17-8c2-1 6 0 5-3-1-4 5-4 5-7-2-1-3-4-4-6 0-3 2-6-1-7-4-2-8-3-9-8-1-2-1-6-3-8l-6 2" fill="#7274d1" stroke-miterlimit="10"/>
    <path d="M273 145c-2 3-4 6-7 7s-3 3-5 5a11 11 0 0 0-3 8l20 19 2 11c0 3-3 6-4 10a55 55 0 0 1-5 8c2 2 5 6 4 10-2 2-4 3-2 6 3 5 8 8 13 11l12 6c3-1 6-2 8-1l17-7c3-2 5-6 9-5 2 0 6-2 6 2a18 18 0 0 0 7 7c3 0 5-1 5-3 3-4 6-9 11-12 1-1 5-2 5-4-2-1-5-1-6-3l-14-11c-6-1-12-2-18-5-3-2-5-5-5-8-1-1-2 2-4 2-3-1-6-2-8-5l-9-8-8-20c1-5-3-9-8-10-4-1-5-5-5-9l-8-1" fill="#9597dd" stroke-miterlimit="10"/>
    <path d="M296 75c-3 1-3 5-6 6-3-1-6 0-8 3a54 54 0 0 1-14 12c-4 1-3 6-4 9 0 5-1 10-5 12-3 2-5 5-9 6v2c1 6-2 13 3 17 2 4 7 6 9 10 0 2 1 2 2 1 3-2 6-3 8-6 1-1 2-3 4-2 3 1 6 1 5-3 5-1 12 0 16-4 6-4 14-2 21-6 3-1 6-5 9-7 4 0 6-2 8-5 2-2 7-3 8-6 0-3-4-2-5-3-4-4-10-4-12-9-2-4 2-7 5-8 2 0 4-2 2-4-2-1-3-3 0-4 2-3 6-3 7-7 1-1-1-2-2-1l-11 10h-17c-5-4-9-10-14-13" fill="#7274d1" stroke-miterlimit="10"/>
    <path d="M274 31c-1 1-4 2-2 4 3 3 2 8 3 12-1 3-4 4-7 4-4 0-8-1-11 2-1 1 1 4-1 5-3 1-5 4-7 8-1 2-5 1-5 4 0 4-2 6-5 7-5 2-11 5-14 10 2 4 5 7 6 11l13-1c1 5 0 10-2 14 0 3-1 7 2 8 3 2 4 6 8 3 4-1 5-5 9-7 3-4 3-10 4-15 0-2 1-4 4-5l16-14c3-1 7 1 8-3 0-2 1-4 3-4l1-4c2-1 3-3 1-5-2-1-5 0-8-2l-7-6c1-6 3-14-2-19l-6-7a1 1 0 0 0-1 0M134 58l-1 3a29 29 0 0 1-4 8c-1 2 0 5-2 7-3 4-8 6-10 10l-2 7-4 8-8 2v2a70 70 0 0 0 8 8c3 2 6 0 8 2l8 4c2 3 3 7 7 9 4 3 6 9 8 13a12 12 0 0 1 2 6l2 18 3-1 2-4v-5l5-7c3-2 4-6 6-9l6-3 4-8 7-7c3-2 5-3 9-3a8 8 0 0 0 5-2c2-1-1-1-2-2l-10-6-2-4h-6l-3-3-7-2-1-3 2-2c0-1-2-1-2-3l1-6 6-2a5 5 0 0 0 1-4c0-2 2-4 1-7l-1-3c-4-1-8-1-11-3l-12-4h-7l-6-4Z" fill="#9597dd" stroke-miterlimit="10"/>
    <path d="M235 3c-3 0-6 3-6 6 0 2-2 2-4 2h-14l-5-5a6 6 0 0 0-3 2v5l-5 2-12 2c0-1 0-3-2-4l-1 4-2 4c-1 0-3 1-2 2a102 102 0 0 0 8 10l5 2 1 6 8 3 4-4h6l2-3a27 27 0 0 1 2 6l-3 12v3c1 1 1 3 3 2l3-1a36 36 0 0 1 3 6v5l7 11a3 3 0 0 0 3-1l12-5a43 43 0 0 1 1-7l5-2 3-6c2-1 4-1 5-3v-5c2 0 4-2 6-1h9l3-4-1-10-3-3 4-4a64 64 0 0 0-6-8l-9-3c-2-3-4-6-8-8-2-1-5 1-7-1-3-2-5-6-9-6a3 3 0 0 0-1-1Z" fill="#b9b9e8" stroke-miterlimit="10"/>
    <path d="m179 22-10 3a18 18 0 0 1-8 4l-9 20-7-1c-2 0-5-1-7 1-1 1-2 2-1 4a5 5 0 0 1-2 4c-1 1 1 1 1 2l5 3c3 0 5-1 8 1l16 5 5 1 1 6-1 6a5 5 0 0 1-1 3l-6 1a61 61 0 0 0-1 7c1 1 4 2 2 2-1 1-3 2-2 4l3 2 5 1 3 3h6c1 1 1 4 3 5l12 7c2-1 2-3 3-5 0-1 0-3 2-3l9-5 2-6 6-2 6-11c1 1 2 4 4 2a53 53 0 0 0 4-4l-2-1-8-12c1-2 1-5-1-8 0-1 0-3-2-2-2 0-3 2-4 0l-2-2 4-12v-5c-1 0-1-4-2-2-1 1-2 3-3 2a47 47 0 0 0-5 0l-4 4-9-3v-7c-2-1-5 0-6-2a112 112 0 0 1-7-10" fill="#9597dd" stroke-miterlimit="10"/>
  </g>
  <path d="M181 462h13v-2h-13v-1h11v-4h-7a7 7 0 0 0 1-2h-2a7 7 0 0 1-1 2h-3v9h12a11 11 0 0 1 0 4 2 2 0 0 1-2 0h-2l1 2h1c2 0 2-1 3-2a20 20 0 0 0 0-5h-12Zm-1 3a13 13 0 0 1-2 4h2a13 13 0 0 0 1-4Zm3 0h-1a27 27 0 0 1 1 4h1l-1-4Zm3 0h-1a16 16 0 0 1 1 3h1a22 22 0 0 0-1-3Zm3 0h-1a16 16 0 0 1 1 3l1-1a17 17 0 0 0-1-2Zm1-9v2h-9v-2Zm9 5a13 13 0 0 1 3 2v-2a14 14 0 0 0-2-1 14 14 0 0 0 1-3h-1a9 9 0 0 1-3 5v1a10 10 0 0 0 2-2Zm9 0a15 15 0 0 1 3 2l1-1a16 16 0 0 0-3-2 13 13 0 0 0 1-3h-1a8 8 0 0 1-3 5l1 1a9 9 0 0 0 1-2Zm-5 0a19 19 0 0 1-7 7l1 1a20 20 0 0 0 6-6v7h2v-7a21 21 0 0 0 7 6v-1a19 19 0 0 1-7-7v-5h6v-1h-6v-2h-2v2h-6v1h6Zm16-5v4h8v-4Zm7 3h-6v-2h6Zm-8 3v5h4v-5Zm3 4h-2v-3h2Zm3-4v5h5v-5Zm4 4h-3v-3h3Zm-14-12v1h1v12a2 2 0 0 0 2 2h13v-1h-13a1 1 0 0 1-1-1v-12h14v-1Z" fill="none" stroke="#fff" stroke-linecap="round" stroke-width="2"/>
  <path d="M181 462h13v-2h-13v-1h11v-4h-7a7 7 0 0 0 1-2h-2a7 7 0 0 1-1 2h-3v9h12a11 11 0 0 1 0 4 2 2 0 0 1-2 0h-2l1 2h1c2 0 2-1 3-2a20 20 0 0 0 0-5h-12Zm-1 3a13 13 0 0 1-2 4h2a13 13 0 0 0 1-4Zm3 0h-1a27 27 0 0 1 1 4h1l-1-4Zm3 0h-1a16 16 0 0 1 1 3h1a22 22 0 0 0-1-3Zm3 0h-1a16 16 0 0 1 1 3l1-1a17 17 0 0 0-1-2Zm1-9v2h-9v-2Zm9 5a13 13 0 0 1 3 2v-2a14 14 0 0 0-2-1 14 14 0 0 0 1-3h-1a9 9 0 0 1-3 5v1a10 10 0 0 0 2-2Zm9 0a15 15 0 0 1 3 2l1-1a16 16 0 0 0-3-2 13 13 0 0 0 1-3h-1a8 8 0 0 1-3 5l1 1a9 9 0 0 0 1-2Zm-5 0a19 19 0 0 1-7 7l1 1a20 20 0 0 0 6-6v7h2v-7a21 21 0 0 0 7 6v-1a19 19 0 0 1-7-7v-5h6v-1h-6v-2h-2v2h-6v1h6Zm16-5v4h8v-4Zm7 3h-6v-2h6Zm-8 3v5h4v-5Zm3 4h-2v-3h2Zm3-4v5h5v-5Zm4 4h-3v-3h3Zm-14-12v1h1v12a2 2 0 0 0 2 2h13v-1h-13a1 1 0 0 1-1-1v-12h14v-1Z"/>
  <path d="M76 364v1h13v-1Zm1 6v1h11v-1Zm-3 7v1h16v-1Zm21-14v12h-1v-10h-1v11h4v1h1v-12h-1v10h-1v-12Zm9 10a11 11 0 0 0 4 6l1-1a10 10 0 0 1-5-6l1 1a13 13 0 0 0 1-2 15 15 0 0 1 2 2l1-1a12 12 0 0 0-2-2 12 12 0 0 0 0-3h-1a10 10 0 0 1-2 5 11 11 0 0 1 0-1v-5h4v-1h-4v-2h-1v2h-4v1h4v3a15 15 0 0 1-1 6 7 7 0 0 1-3 3v1a8 8 0 0 0 4-3 12 12 0 0 0 1-3Zm-4-6a10 10 0 0 1-1 5l1 1a12 12 0 0 0 1-2 15 15 0 0 1 1 1l1-1a11 11 0 0 0-2-1 11 11 0 0 0 0-3Zm15-1v4h8v-4Zm7 3h-6v-2h6Zm-8 2v5h5v-5Zm4 4h-3v-3h3Zm2-4v5h5v-5Zm4 4h-3v-3h3Zm-14-12v1h1v13a2 2 0 0 0 2 1h13v-1h-13a1 1 0 0 1 0-1v-12h13v-1Z" fill="none" stroke="#fff" stroke-linecap="round" stroke-width="2"/>
  <path d="M76 364v1h13v-1Zm1 6v1h11v-1Zm-3 7v1h16v-1Zm21-14v12h-1v-10h-1v11h4v1h1v-12h-1v10h-1v-12Zm9 10a11 11 0 0 0 4 6l1-1a10 10 0 0 1-5-6l1 1a13 13 0 0 0 1-2 15 15 0 0 1 2 2l1-1a12 12 0 0 0-2-2 12 12 0 0 0 0-3h-1a10 10 0 0 1-2 5 11 11 0 0 1 0-1v-5h4v-1h-4v-2h-1v2h-4v1h4v3a15 15 0 0 1-1 6 7 7 0 0 1-3 3v1a8 8 0 0 0 4-3 12 12 0 0 0 1-3Zm-4-6a10 10 0 0 1-1 5l1 1a12 12 0 0 0 1-2 15 15 0 0 1 1 1l1-1a11 11 0 0 0-2-1 11 11 0 0 0 0-3Zm15-1v4h8v-4Zm7 3h-6v-2h6Zm-8 2v5h5v-5Zm4 4h-3v-3h3Zm2-4v5h5v-5Zm4 4h-3v-3h3Zm-14-12v1h1v13a2 2 0 0 0 2 1h13v-1h-13a1 1 0 0 1 0-1v-12h13v-1Z"/>
  <path d="M183 327v2h-3v1h3v6h2v-6h3v-1h-3v-2h3v-2h-2a19 19 0 0 0 1-2h-1a23 23 0 0 1-1 2h-2a16 16 0 0 0-1-2h-1a16 16 0 0 1 1 2h-2v2Zm12-7a16 16 0 0 1-6 1v8a12 12 0 0 1-2 6l1 1a14 14 0 0 0 2-7v-2h3v9h1v-9h2v-1h-6v-4a18 18 0 0 0 6-1Zm-15 1v2h8v-2h-3l-1-1h-1a13 13 0 0 1 0 1Zm1 10a14 14 0 0 1-1 4l1 1a17 17 0 0 0 2-5Zm6 0h-2a29 29 0 0 1 2 3h1a32 32 0 0 0-1-3Zm19-7v6h-4v6h2v-1h7v1h1v-6h-4v-3h6v-1h-6v-2Zm-2 10v-3h7v3Zm2-14h-1a13 13 0 0 1 1 2h-7v5a19 19 0 0 1-1 8l1 1a21 21 0 0 0 2-9v-4h13v-1h-7l-1-2Zm15 3v4h8v-4Zm7 3h-6v-2h6Zm-9 2v5h5v-5Zm4 4h-2v-2h2Zm3-4v5h5v-5Zm4 4h-3v-2h3Zm-14-11v1h1v12a2 2 0 0 0 2 2h13v-2h-13a1 1 0 0 1-1 0v-12h13v-1Z" fill="none" stroke="#fff" stroke-linecap="round" stroke-width="2"/>
  <path d="M183 327v2h-3v1h3v6h2v-6h3v-1h-3v-2h3v-2h-2a19 19 0 0 0 1-2h-1a23 23 0 0 1-1 2h-2a16 16 0 0 0-1-2h-1a16 16 0 0 1 1 2h-2v2Zm12-7a16 16 0 0 1-6 1v8a12 12 0 0 1-2 6l1 1a14 14 0 0 0 2-7v-2h3v9h1v-9h2v-1h-6v-4a18 18 0 0 0 6-1Zm-15 1v2h8v-2h-3l-1-1h-1a13 13 0 0 1 0 1Zm1 10a14 14 0 0 1-1 4l1 1a17 17 0 0 0 2-5Zm6 0h-2a29 29 0 0 1 2 3h1a32 32 0 0 0-1-3Zm19-7v6h-4v6h2v-1h7v1h1v-6h-4v-3h6v-1h-6v-2Zm-2 10v-3h7v3Zm2-14h-1a13 13 0 0 1 1 2h-7v5a19 19 0 0 1-1 8l1 1a21 21 0 0 0 2-9v-4h13v-1h-7l-1-2Zm15 3v4h8v-4Zm7 3h-6v-2h6Zm-9 2v5h5v-5Zm4 4h-2v-2h2Zm3-4v5h5v-5Zm4 4h-3v-2h3Zm-14-11v1h1v12a2 2 0 0 0 2 2h13v-2h-13a1 1 0 0 1-1 0v-12h13v-1Z"/>
  <path d="M264 321v1h6a18 18 0 0 1-6 9v1a21 21 0 0 0 4-4v8h2v-1h7v1h1v-9h-9a21 21 0 0 0 2-5h9v-1Zm6 13v-6h7v6Zm14-12a18 18 0 0 1-3 7l1 2a19 19 0 0 0 1-2v7h2v-1h3v-9h-4a25 25 0 0 0 1-4h3v-1h-6v1Zm1 12v-7h1v7Zm13-12h-4l-1-2h-1a14 14 0 0 1 1 2h-4v3h1v1h3v8a6 6 0 0 1-2-3v-3h-1a18 18 0 0 1-2 8h1a13 13 0 0 0 1-3 6 6 0 0 0 3 3 14 14 0 0 0 5 0v-1h-2a11 11 0 0 1-2 0v-4h3v-2h-3v-3h3v-1h1Zm-8 3v-2h7v2Zm15-2v4h8v-4Zm7 3h-6v-2h6Zm-9 2v5h5v-5Zm4 4h-2v-2h2Zm3-4v5h5v-5Zm4 4h-3v-2h3Zm-14-11v1h1v12a2 2 0 0 0 2 2h13v-2h-13a1 1 0 0 1-1 0v-12h13v-1Z" fill="none" stroke="#fff" stroke-linecap="round" stroke-width="2"/>
  <path d="M264 321v1h6a18 18 0 0 1-6 9v1a21 21 0 0 0 4-4v8h2v-1h7v1h1v-9h-9a21 21 0 0 0 2-5h9v-1Zm6 13v-6h7v6Zm14-12a18 18 0 0 1-3 7l1 2a19 19 0 0 0 1-2v7h2v-1h3v-9h-4a25 25 0 0 0 1-4h3v-1h-6v1Zm1 12v-7h1v7Zm13-12h-4l-1-2h-1a14 14 0 0 1 1 2h-4v3h1v1h3v8a6 6 0 0 1-2-3v-3h-1a18 18 0 0 1-2 8h1a13 13 0 0 0 1-3 6 6 0 0 0 3 3 14 14 0 0 0 5 0v-1h-2a11 11 0 0 1-2 0v-4h3v-2h-3v-3h3v-1h1Zm-8 3v-2h7v2Zm15-2v4h8v-4Zm7 3h-6v-2h6Zm-9 2v5h5v-5Zm4 4h-2v-2h2Zm3-4v5h5v-5Zm4 4h-3v-2h3Zm-14-11v1h1v12a2 2 0 0 0 2 2h13v-2h-13a1 1 0 0 1-1 0v-12h13v-1Z"/>
  <path d="M335 345v1h2v7h-3l1 2a38 38 0 0 0 5-2v-1a23 23 0 0 1-2 0v-6h2v-1h-2v-5h-1v5Zm6-4v1h4v7h-5v1h5v7h1v-7h5v-1h-5v-7h5v-1Zm8 2a23 23 0 0 1-1 5h1a24 24 0 0 0 1-4Zm-7 0-1 1a33 33 0 0 1 1 4h2a36 36 0 0 0-2-5Zm18 1v1h3a19 19 0 0 1-4 7l1 2a22 22 0 0 0 4-7v10h1v-10a24 24 0 0 0 3 7l1-2a20 20 0 0 1-4-7h4v-1h-4v-4h-1v4Zm-7 0v1h3a16 16 0 0 1-3 6v2a20 20 0 0 0 3-6v10h1v-10a36 36 0 0 1 2 3l1-1-3-3v-1h3v-1h-3v-4h-1v4Zm23-1v5h8v-5Zm7 4h-6v-2h6Zm-9 2v5h5v-5Zm4 4h-3v-3h3Zm3-4v5h5v-5Zm3 4h-2v-3h2Zm-13-12v1h1v12a2 2 0 0 0 1 2h14v-1h-13a1 1 0 0 1-1-1v-12h13v-1Z" fill="none" stroke="#fff" stroke-linecap="round" stroke-width="2"/>
  <path d="M335 345v1h2v7h-3l1 2a38 38 0 0 0 5-2v-1a23 23 0 0 1-2 0v-6h2v-1h-2v-5h-1v5Zm6-4v1h4v7h-5v1h5v7h1v-7h5v-1h-5v-7h5v-1Zm8 2a23 23 0 0 1-1 5h1a24 24 0 0 0 1-4Zm-7 0-1 1a33 33 0 0 1 1 4h2a36 36 0 0 0-2-5Zm18 1v1h3a19 19 0 0 1-4 7l1 2a22 22 0 0 0 4-7v10h1v-10a24 24 0 0 0 3 7l1-2a20 20 0 0 1-4-7h4v-1h-4v-4h-1v4Zm-7 0v1h3a16 16 0 0 1-3 6v2a20 20 0 0 0 3-6v10h1v-10a36 36 0 0 1 2 3l1-1-3-3v-1h3v-1h-3v-4h-1v4Zm23-1v5h8v-5Zm7 4h-6v-2h6Zm-9 2v5h5v-5Zm4 4h-3v-3h3Zm3-4v5h5v-5Zm3 4h-2v-3h2Zm-13-12v1h1v12a2 2 0 0 0 1 2h14v-1h-13a1 1 0 0 1-1-1v-12h13v-1Z"/>
  <path d="M433 263v5h7v-1h-3v-2h2v-1h-2v-1h2v-1h-2v-1h2v-1h-2a14 14 0 0 0 0-2l-2 1a12 12 0 0 1 1 1h-2l1-1-1-1a14 14 0 0 1-3 5l1 1 1-1Zm3 4h-2v-2h2Zm0-3h-2v-1h2Zm0-2h-2v-1h2Zm-11 1v5h7v-1h-3v-2h2v-1h-2v-1h2v-1h-2v-1h3v-1h-3v-2l-1 1a10 10 0 0 1 0 1h-2l1-1h-1a14 14 0 0 1-3 4l1 1a14 14 0 0 0 1-1Zm3 4h-2v-2h2Zm0-3h-2v-1h2Zm0-2h-2v-1h2Zm-1 8a10 10 0 0 0 3 3 37 37 0 0 1-6 1l1 1a33 33 0 0 0 7-2 39 39 0 0 0 7 2l1-1a48 48 0 0 1-6-1 16 16 0 0 0 4-3v-1h-13v1Zm5 2a11 11 0 0 1-4-2h8a16 16 0 0 1-4 2Zm25-13a58 58 0 0 1-11 0v2a54 54 0 0 0 11-1Zm-11 11v1h5c-1 2-3 3-6 3l1 1c3-1 5-2 6-4h5v-1h-5v-2h4v1h1a30 30 0 0 0-2-4l-1 1 1 1-5 1a32 32 0 0 0 5-4l-1-1-2 2h-3a16 16 0 0 0 2-2h-1a13 13 0 0 1-2 2 3 3 0 0 1-1 0v1h4a15 15 0 0 1-4 2v1h4v1Zm10-10a13 13 0 0 1-1 3l1 1a13 13 0 0 0 1-3Zm-4 1h-1v2h2a23 23 0 0 0-1-2Zm-4 0-1 1a15 15 0 0 1 1 2l1-1a14 14 0 0 0-1-2Zm-5-2-1 1a20 20 0 0 1 3 2l1-1a20 20 0 0 0-3-2Zm0 4-1 1a17 17 0 0 1 2 3l1-1a20 20 0 0 0-2-3Zm1 5a59 59 0 0 1-2 6l1 1a65 65 0 0 0 2-7Zm9 4-1 1a42 42 0 0 1 5 2l1-1a39 39 0 0 0-5-2Zm12-10v4h8v-4Zm7 3h-6v-2h6Zm-9 2v5h5v-5Zm4 4h-3v-3h3Zm3-4v5h5v-5Zm3 4h-2v-3h2Zm-13-12v2h1v12a2 2 0 0 0 1 1h14v-1h-13a1 1 0 0 1-1-1v-11h13v-2Z" fill="none" stroke="#fff" stroke-linecap="round" stroke-width="2"/>
  <path d="M433 263v5h7v-1h-3v-2h2v-1h-2v-1h2v-1h-2v-1h2v-1h-2a14 14 0 0 0 0-2l-2 1a12 12 0 0 1 1 1h-2l1-1-1-1a14 14 0 0 1-3 5l1 1 1-1Zm3 4h-2v-2h2Zm0-3h-2v-1h2Zm0-2h-2v-1h2Zm-11 1v5h7v-1h-3v-2h2v-1h-2v-1h2v-1h-2v-1h3v-1h-3v-2l-1 1a10 10 0 0 1 0 1h-2l1-1h-1a14 14 0 0 1-3 4l1 1a14 14 0 0 0 1-1Zm3 4h-2v-2h2Zm0-3h-2v-1h2Zm0-2h-2v-1h2Zm-1 8a10 10 0 0 0 3 3 37 37 0 0 1-6 1l1 1a33 33 0 0 0 7-2 39 39 0 0 0 7 2l1-1a48 48 0 0 1-6-1 16 16 0 0 0 4-3v-1h-13v1Zm5 2a11 11 0 0 1-4-2h8a16 16 0 0 1-4 2Zm25-13a58 58 0 0 1-11 0v2a54 54 0 0 0 11-1Zm-11 11v1h5c-1 2-3 3-6 3l1 1c3-1 5-2 6-4h5v-1h-5v-2h4v1h1a30 30 0 0 0-2-4l-1 1 1 1-5 1a32 32 0 0 0 5-4l-1-1-2 2h-3a16 16 0 0 0 2-2h-1a13 13 0 0 1-2 2 3 3 0 0 1-1 0v1h4a15 15 0 0 1-4 2v1h4v1Zm10-10a13 13 0 0 1-1 3l1 1a13 13 0 0 0 1-3Zm-4 1h-1v2h2a23 23 0 0 0-1-2Zm-4 0-1 1a15 15 0 0 1 1 2l1-1a14 14 0 0 0-1-2Zm-5-2-1 1a20 20 0 0 1 3 2l1-1a20 20 0 0 0-3-2Zm0 4-1 1a17 17 0 0 1 2 3l1-1a20 20 0 0 0-2-3Zm1 5a59 59 0 0 1-2 6l1 1a65 65 0 0 0 2-7Zm9 4-1 1a42 42 0 0 1 5 2l1-1a39 39 0 0 0-5-2Zm12-10v4h8v-4Zm7 3h-6v-2h6Zm-9 2v5h5v-5Zm4 4h-3v-3h3Zm3-4v5h5v-5Zm3 4h-2v-3h2Zm-13-12v2h1v12a2 2 0 0 0 1 1h14v-1h-13a1 1 0 0 1-1-1v-11h13v-2Z"/>
  <path d="M504 255v1h6v1h-7v1h16v-1h-7v-1h5v-1Zm1 4v8h12v-8Zm11 7h-10v-1h10Zm-10-2v-1h10v1Zm0-2v-1h10v1Zm7 6-1 1a34 34 0 0 1 6 1l1-1a38 38 0 0 0-6-1Zm-4-1a20 20 0 0 1-6 2v1a20 20 0 0 0 6-2Zm14-9v1h4a10 10 0 0 1-3 2 15 15 0 0 0-1-2l-1 1a15 15 0 0 1 1 2 15 15 0 0 1-2 1v1a17 17 0 0 0 3-1v3h4v3s0 0 0 0h-2v1h2l2-1v-3h4v-4a21 21 0 0 0 3 2v-1a20 20 0 0 1-3-2 16 16 0 0 0 2-1l-1-1a11 11 0 0 1-2 2 10 10 0 0 1-2-2h4v-1h1v-3h-6a11 11 0 0 0-1-1h-2a8 8 0 0 1 1 1h-6v3Zm2 4s0 0 0 0h8v1h-8Zm2-1a11 11 0 0 0 1-2h2a9 9 0 0 0 1 2Zm8-3h-6l1-1-2-1a11 11 0 0 1 0 2h-5v-2h12Zm-10 6h8v1h-8Zm7 3v1a18 18 0 0 1 4 2v-1a21 21 0 0 0-4-2Zm-6 0a14 14 0 0 1-5 2l1 1a16 16 0 0 0 4-3Zm18-10v4h8v-4Zm7 3h-6v-2h6Zm-9 3v4h5v-4Zm4 3h-2v-2h2Zm3-3v4h5v-4Zm4 3h-3v-2h3Zm-14-11v1h1v12a2 2 0 0 0 2 2h13v-1h-13a1 1 0 0 1-1-1v-12h13v-1Z" fill="none" stroke="#fff" stroke-linecap="round" stroke-width="2"/>
  <path d="M504 255v1h6v1h-7v1h16v-1h-7v-1h5v-1Zm1 4v8h12v-8Zm11 7h-10v-1h10Zm-10-2v-1h10v1Zm0-2v-1h10v1Zm7 6-1 1a34 34 0 0 1 6 1l1-1a38 38 0 0 0-6-1Zm-4-1a20 20 0 0 1-6 2v1a20 20 0 0 0 6-2Zm14-9v1h4a10 10 0 0 1-3 2 15 15 0 0 0-1-2l-1 1a15 15 0 0 1 1 2 15 15 0 0 1-2 1v1a17 17 0 0 0 3-1v3h4v3h-2v1h2l2-1v-3h4v-4a21 21 0 0 0 3 2v-1a20 20 0 0 1-3-2 16 16 0 0 0 2-1l-1-1a11 11 0 0 1-2 2 10 10 0 0 1-2-2h4v-1h1v-3h-6a11 11 0 0 0-1-1h-2a8 8 0 0 1 1 1h-6v3Zm2 4h8v1h-8Zm2-1a11 11 0 0 0 1-2h2a9 9 0 0 0 1 2Zm8-3h-6l1-1-2-1a11 11 0 0 1 0 2h-5v-2h12Zm-10 6h8v1h-8Zm7 3v1a18 18 0 0 1 4 2v-1a21 21 0 0 0-4-2Zm-6 0a14 14 0 0 1-5 2l1 1a16 16 0 0 0 4-3Zm18-10v4h8v-4Zm7 3h-6v-2h6Zm-9 3v4h5v-4Zm4 3h-2v-2h2Zm3-3v4h5v-4Zm4 3h-3v-2h3Zm-14-11v1h1v12a2 2 0 0 0 2 2h13v-1h-13a1 1 0 0 1-1-1v-12h13v-1Z"/>
  <path d="M403 181v2h2v5h-2v1a34 34 0 0 0 6-2v-1l-3 1v-4h2v-2h-2v-4h2v-1h-5v1h2v4Zm14-3h-3v-3h-1v3h-2v-3h-1v4h8v-4h-1Zm-8 3v1h4a8 8 0 0 1-1 2h-3v7h1v-6h2v6h1v-6h2v6h1v-6h1v5s0 0 0 0h-1l1 1h0l1-1v-6h-4a14 14 0 0 0 0-2h5v-1Zm16-6v1h-4v2h4v1h1v-1h2v-2h-2v-1Zm7 0v1h-3v2h3v1h1v-1h4v-2h-4v-1Zm-11 6v1h5a13 13 0 0 1-1 5 8 8 0 0 1-4 3l1 1a9 9 0 0 0 4-3 10 10 0 0 0 1-3h6a22 22 0 0 1 0 3 2 2 0 0 1-2 2h-2l1 1h1a3 3 0 0 0 3-2 23 23 0 0 0 1-5h-8a22 22 0 0 0 0-2h10v-1h-7a15 15 0 0 0-1-3l-1 1v2Zm23-3v4h8v-4Zm7 3h-6v-2h6Zm-9 2v5h5v-5Zm4 4h-2v-3h2Zm3-4v5h5v-5Zm4 4h-3v-3h3Zm-14-12v2h1v12a2 2 0 0 0 2 2h13v-2h-13a1 1 0 0 1-1 0v-12h13v-2Z" fill="none" stroke="#fff" stroke-linecap="round" stroke-width="2"/>
  <path d="M403 181v2h2v5h-2v1a34 34 0 0 0 6-2v-1l-3 1v-4h2v-2h-2v-4h2v-1h-5v1h2v4Zm14-3h-3v-3h-1v3h-2v-3h-1v4h8v-4h-1Zm-8 3v1h4a8 8 0 0 1-1 2h-3v7h1v-6h2v6h1v-6h2v6h1v-6h1v5h-1l1 1 1-1v-6h-4a14 14 0 0 0 0-2h5v-1Zm16-6v1h-4v2h4v1h1v-1h2v-2h-2v-1Zm7 0v1h-3v2h3v1h1v-1h4v-2h-4v-1Zm-11 6v1h5a13 13 0 0 1-1 5 8 8 0 0 1-4 3l1 1a9 9 0 0 0 4-3 10 10 0 0 0 1-3h6a22 22 0 0 1 0 3 2 2 0 0 1-2 2h-2l1 1h1a3 3 0 0 0 3-2 23 23 0 0 0 1-5h-8a22 22 0 0 0 0-2h10v-1h-7a15 15 0 0 0-1-3l-1 1v2Zm23-3v4h8v-4Zm7 3h-6v-2h6Zm-9 2v5h5v-5Zm4 4h-2v-3h2Zm3-4v5h5v-5Zm4 4h-3v-3h3Zm-14-12v2h1v12a2 2 0 0 0 2 2h13v-2h-13a1 1 0 0 1-1 0v-12h13v-2Z"/>
  <path d="M358 235v1h7v7h-8v1h8v7h1v-7h7v-1h-7v-7h7v-1Zm2 3h-1a33 33 0 0 1 2 4h1a42 42 0 0 0-2-4Zm11-1a24 24 0 0 1-3 5h2a22 22 0 0 0 2-4Zm19-3a58 58 0 0 1-10 1v1a54 54 0 0 0 11-1Zm-10 12v1h4l-5 3 1 1c3-1 5-2 5-4h6v-1h-5v-2h3l1 1 1-1a30 30 0 0 0-2-3l-1 1 1 1h-6a32 32 0 0 0 6-3l-1-1-2 2h-3a16 16 0 0 0 2-2h-1a13 13 0 0 1-2 1 3 3 0 0 1-1 1v1h4a15 15 0 0 1-5 2l1 1 4-1-1 2Zm9-10a13 13 0 0 1-1 3h1a13 13 0 0 0 2-2Zm-3 1h-1v2h1a23 23 0 0 0 0-2Zm-4 0h-2a15 15 0 0 1 2 2h1a14 14 0 0 0-1-2Zm-6-3v1a20 20 0 0 1 2 3l1-1a20 20 0 0 0-3-3Zm0 5-1 1a17 17 0 0 1 3 2l1-1a20 20 0 0 0-3-2Zm2 4a59 59 0 0 1-3 7l2 1a65 65 0 0 0 2-7Zm8 5h-1a42 42 0 0 1 6 3l1-1a39 39 0 0 0-6-2Zm12-11v5h8v-5Zm7 3h-6v-1h6Zm-8 3v5h5v-5Zm4 4h-3v-3h3Zm2-4v5h5v-5Zm4 4h-3v-3h3Zm-14-12v1h1v12a2 2 0 0 0 2 2h13v-1h-13a1 1 0 0 1 0-1v-12h13v-1Z" fill="none" stroke="#fff" stroke-linecap="round" stroke-width="2"/>
  <path d="M358 235v1h7v7h-8v1h8v7h1v-7h7v-1h-7v-7h7v-1Zm2 3h-1a33 33 0 0 1 2 4h1a42 42 0 0 0-2-4Zm11-1a24 24 0 0 1-3 5h2a22 22 0 0 0 2-4Zm19-3a58 58 0 0 1-10 1v1a54 54 0 0 0 11-1Zm-10 12v1h4l-5 3 1 1c3-1 5-2 5-4h6v-1h-5v-2h3l1 1 1-1a30 30 0 0 0-2-3l-1 1 1 1h-6a32 32 0 0 0 6-3l-1-1-2 2h-3a16 16 0 0 0 2-2h-1a13 13 0 0 1-2 1 3 3 0 0 1-1 1v1h4a15 15 0 0 1-5 2l1 1 4-1-1 2Zm9-10a13 13 0 0 1-1 3h1a13 13 0 0 0 2-2Zm-3 1h-1v2h1a23 23 0 0 0 0-2Zm-4 0h-2a15 15 0 0 1 2 2h1a14 14 0 0 0-1-2Zm-6-3v1a20 20 0 0 1 2 3l1-1a20 20 0 0 0-3-3Zm0 5-1 1a17 17 0 0 1 3 2l1-1a20 20 0 0 0-3-2Zm2 4a59 59 0 0 1-3 7l2 1a65 65 0 0 0 2-7Zm8 5h-1a42 42 0 0 1 6 3l1-1a39 39 0 0 0-6-2Zm12-11v5h8v-5Zm7 3h-6v-1h6Zm-8 3v5h5v-5Zm4 4h-3v-3h3Zm2-4v5h5v-5Zm4 4h-3v-3h3Zm-14-12v1h1v12a2 2 0 0 0 2 2h13v-1h-13a1 1 0 0 1 0-1v-12h13v-1Z"/>
  <path d="m281 208-1 1a22 22 0 0 1 3 2h1a23 23 0 0 0-3-3Zm-1 4-1 1a20 20 0 0 1 4 3v-1a23 23 0 0 0-3-3Zm3 5a52 52 0 0 1-3 6l1 1a59 59 0 0 0 3-6Zm5-3-1 1a25 25 0 0 1 3 3 20 20 0 0 1-7 5l1 1q10-4 11-13v-1h-6a23 23 0 0 0 0-2h-1a15 15 0 0 1-4 7l1 1a15 15 0 0 0 3-5h6a14 14 0 0 1-3 6 25 25 0 0 0-3-3Zm17-6v14h-3v-11h-2v11h-3v1h16v-1h-6v-7h5v-1h-5v-6Zm15 3v4h8v-4Zm7 3h-6v-2h6Zm-8 2v5h5v-5Zm4 4h-3v-3h3Zm2-4v5h5v-5Zm4 4h-3v-3h3Zm-14-12v2h1v12a2 2 0 0 0 2 1h13v-1h-13a1 1 0 0 1 0-1v-11h13v-2Z" fill="none" stroke="#fff" stroke-linecap="round" stroke-width="2"/>
  <path d="m281 208-1 1a22 22 0 0 1 3 2h1a23 23 0 0 0-3-3Zm-1 4-1 1a20 20 0 0 1 4 3v-1a23 23 0 0 0-3-3Zm3 5a52 52 0 0 1-3 6l1 1a59 59 0 0 0 3-6Zm5-3-1 1a25 25 0 0 1 3 3 20 20 0 0 1-7 5l1 1q10-4 11-13v-1h-6a23 23 0 0 0 0-2h-1a15 15 0 0 1-4 7l1 1a15 15 0 0 0 3-5h6a14 14 0 0 1-3 6 25 25 0 0 0-3-3Zm17-6v14h-3v-11h-2v11h-3v1h16v-1h-6v-7h5v-1h-5v-6Zm15 3v4h8v-4Zm7 3h-6v-2h6Zm-8 2v5h5v-5Zm4 4h-3v-3h3Zm2-4v5h5v-5Zm4 4h-3v-3h3Zm-14-12v2h1v12a2 2 0 0 0 2 1h13v-1h-13a1 1 0 0 1 0-1v-11h13v-2Z"/>
  <path d="M258 266v1a14 14 0 0 1 2 2l1-1a16 16 0 0 0-3-2Zm0 3-1 1a12 12 0 0 1 3 2v-1a15 15 0 0 0-2-2Zm2 4a34 34 0 0 1-2 4h0a39 39 0 0 0 2-4Zm3 0a7 7 0 0 1-3 3l1 1a8 8 0 0 0 3-4h0v4h1v-4h0a9 9 0 0 0 3 3h0a8 8 0 0 1-2-3h2v-1h-3v-1h-1v1h-3v1Zm5-6h-7v2h1v-1h5v1h1Zm-5 1a3 3 0 0 1 0 2 4 4 0 0 1-2 1h0a5 5 0 0 0 2-1 3 3 0 0 0 1-2Zm2 0v2l1 1h2v-1h-2s0 0 0 0v-2Zm4 1v1h2v5h-2l1 1a25 25 0 0 0 3-1v-1h-1v-4h1v-1h-1v-3h-1v3Zm4-1v1h7v-1h-3a14 14 0 0 0-1-2h-1a9 9 0 0 1 1 2Zm0 9h1a6 6 0 0 0 1-2 8 8 0 0 0 0-2v-2h2v5l2 1h0a2 2 0 0 0 1 0 1 1 0 0 0 0-1 12 12 0 0 0 0-1h0a6 6 0 0 1-1 1h0a1 1 0 0 1 0 0h0-1v-6h-3v3a7 7 0 0 1-1 2 5 5 0 0 1-1 2Zm12-9v3h5v-3Zm4 2h-3v-1h3Zm-5 2v3h3v-3Zm2 3h-1v-2h1Zm2-3v3h3v-3Zm3 3h-2v-2h2Zm-9-8v1h0v8a1 1 0 0 0 1 1h9v-1h-9 0v-8h9v-1Z" fill="none" stroke="#fff" stroke-linecap="round" stroke-width="2"/>
  <path d="M258 266v1a14 14 0 0 1 2 2l1-1a16 16 0 0 0-3-2Zm0 3-1 1a12 12 0 0 1 3 2v-1a15 15 0 0 0-2-2Zm2 4a34 34 0 0 1-2 4 39 39 0 0 0 2-4Zm3 0a7 7 0 0 1-3 3l1 1a8 8 0 0 0 3-4v4h1v-4a9 9 0 0 0 3 3 8 8 0 0 1-2-3h2v-1h-3v-1h-1v1h-3v1Zm5-6h-7v2h1v-1h5v1h1Zm-5 1a3 3 0 0 1 0 2 4 4 0 0 1-2 1 5 5 0 0 0 2-1 3 3 0 0 0 1-2Zm2 0v2l1 1h2v-1h-2v-2Zm4 1v1h2v5h-2l1 1a25 25 0 0 0 3-1v-1h-1v-4h1v-1h-1v-3h-1v3Zm4-1v1h7v-1h-3a14 14 0 0 0-1-2h-1a9 9 0 0 1 1 2Zm0 9h1a6 6 0 0 0 1-2 8 8 0 0 0 0-2v-2h2v5l2 1a2 2 0 0 0 1 0 1 1 0 0 0 0-1 12 12 0 0 0 0-1 6 6 0 0 1-1 1h-1v-6h-3v3a7 7 0 0 1-1 2 5 5 0 0 1-1 2Zm12-9v3h5v-3Zm4 2h-3v-1h3Zm-5 2v3h3v-3Zm2 3h-1v-2h1Zm2-3v3h3v-3Zm3 3h-2v-2h2Zm-9-8v9a1 1 0 0 0 1 1h9v-1h-9v-8h9v-1Z"/>
  <path d="M180 260h-1a15 15 0 0 1 4 2v-1a14 14 0 0 0-3-1Zm5 2a9 9 0 0 1-3 3 12 12 0 0 1 0-2v-1h-5v1h4v6l-1 1h-1v1h1l2-1v-5a14 14 0 0 0 4 5v-1a12 12 0 0 1-3-4 9 9 0 0 0 3-2Zm-9 2v1h3a7 7 0 0 1-4 4l1 1a8 8 0 0 0 4-5v-1Zm22-4h-5v10h1v-1h3v1h1Zm-4 8v-7h3v7Zm-6-5v1h2a9 9 0 0 1-3 3l1 1a12 12 0 0 0 2-3v6h1v-6l1 2 1-1a25 25 0 0 0-2-2h2v-1h-2v-2a14 14 0 0 0 2-1h-1a16 16 0 0 1-4 1h2v2Zm15-1v3h5v-3Zm4 2h-3v-2h3Zm-5 1v4h3v-4Zm2 3h-1v-2h1Zm2-3v4h3v-4Zm3 3h-2v-2h2Zm-9-8v1h0v8a1 1 0 0 0 1 1h9v-1h-9 0v-8h9v-1Z" fill="none" stroke="#fff" stroke-linecap="round" stroke-width="2"/>
  <path d="M180 260h-1a15 15 0 0 1 4 2v-1a14 14 0 0 0-3-1Zm5 2a9 9 0 0 1-3 3 12 12 0 0 1 0-2v-1h-5v1h4v6l-1 1h-1v1h1l2-1v-5a14 14 0 0 0 4 5v-1a12 12 0 0 1-3-4 9 9 0 0 0 3-2Zm-9 2v1h3a7 7 0 0 1-4 4l1 1a8 8 0 0 0 4-5v-1Zm22-4h-5v10h1v-1h3v1h1Zm-4 8v-7h3v7Zm-6-5v1h2a9 9 0 0 1-3 3l1 1a12 12 0 0 0 2-3v6h1v-6l1 2 1-1a25 25 0 0 0-2-2h2v-1h-2v-2a14 14 0 0 0 2-1h-1a16 16 0 0 1-4 1h2v2Zm15-1v3h5v-3Zm4 2h-3v-2h3Zm-5 1v4h3v-4Zm2 3h-1v-2h1Zm2-3v4h3v-4Zm3 3h-2v-2h2Zm-9-8v9a1 1 0 0 0 1 1h9v-1h-9v-8h9v-1Z"/>
  <path d="M160 276v2h-5v5h5v4h0v-4h5v-5h-5v-2Zm-4 6v-3h4v3Zm4 0v-3h4v3Zm17-5h-5v9h1v-1h3v1h1Zm-4 7v-7h3v7Zm-6-5v1h2a9 9 0 0 1-2 3v1a12 12 0 0 0 2-3v6h1v-6l1 2 1-1a25 25 0 0 0-2-2h2v-1h-2v-2a14 14 0 0 0 2 0l-1-1a16 16 0 0 1-4 1h2v2Zm15-1v3h5v-3Zm5 2h-4v-1h4Zm-6 1v4h3v-4Zm3 3h-2v-2h2Zm1-3v4h4v-4Zm3 3h-2v-2h2Zm-9-8v1h0v8a1 1 0 0 0 1 1h9v-1h-9v-8h9v-1Z" fill="none" stroke="#fff" stroke-linecap="round" stroke-width="2"/>
  <path d="M160 276v2h-5v5h5v4-4h5v-5h-5v-2Zm-4 6v-3h4v3Zm4 0v-3h4v3Zm17-5h-5v9h1v-1h3v1h1Zm-4 7v-7h3v7Zm-6-5v1h2a9 9 0 0 1-2 3v1a12 12 0 0 0 2-3v6h1v-6l1 2 1-1a25 25 0 0 0-2-2h2v-1h-2v-2a14 14 0 0 0 2 0l-1-1a16 16 0 0 1-4 1h2v2Zm15-1v3h5v-3Zm5 2h-4v-1h4Zm-6 1v4h3v-4Zm3 3h-2v-2h2Zm1-3v4h4v-4Zm3 3h-2v-2h2Zm-9-8v9a1 1 0 0 0 1 1h9v-1h-9v-8h9v-1Z"/>
  <path d="M128 253h2a12 12 0 0 1-2 5h0a15 15 0 0 0 2-3v6h1v-6l1 2v-1l-1-2v-1h1-1v-3h-1v3Zm6 1a10 10 0 0 0 2 4 10 10 0 0 1-3 3h1a10 10 0 0 0 2-2 9 9 0 0 0 3 2v-1a9 9 0 0 1-2-1 8 8 0 0 0 1-5h0-5v-2h6v-1h-6v4a11 11 0 0 1-2 6h1a12 12 0 0 0 1-6v-1Zm2 4a8 8 0 0 1-1-4h2a8 8 0 0 1-1 4Zm7-3 1 2v-1l-1-2v-1h1-1v-3h-1v3h-2 2a11 11 0 0 1-2 4v1a14 14 0 0 0 2-3v6h1Zm1-3v1h2a6 6 0 0 1-2 1v1a7 7 0 0 0 1-1v2h4v-2a6 6 0 0 0 2 1v-1a5 5 0 0 1-2-1h2v-1h-4a6 6 0 0 0 1-1 15 15 0 0 0 2 0v-1a22 22 0 0 1-6 1h3a6 6 0 0 1-1 1Zm5 2h-3a6 6 0 0 0 1-1h1a5 5 0 0 0 1 1Zm-1 1h-2v-1h2Zm-2 3v2h3v-2Zm2 1h-1v-1h1Zm1 2a1 1 0 0 0 1-1v-4h-6v5h1v-4h5v3h-2v1Zm6-9v3h6v-3Zm5 2h-4v-1h4Zm-6 2v3h4v-3Zm3 2h-2v-1h2Zm2-2v3h3v-3Zm2 2h-2v-1h2Zm-9-7h1v9a1 1 0 0 0 1 1h9v-1h-9v-9h8Z" fill="none" stroke="#fff" stroke-linecap="round" stroke-width="2"/>
  <path d="M128 253h2a12 12 0 0 1-2 5 15 15 0 0 0 2-3v6h1v-6l1 2v-1l-1-2v-1h1-1v-3h-1v3Zm6 1a10 10 0 0 0 2 4 10 10 0 0 1-3 3h1a10 10 0 0 0 2-2 9 9 0 0 0 3 2v-1a9 9 0 0 1-2-1 8 8 0 0 0 1-5h-5v-2h6v-1h-6v4a11 11 0 0 1-2 6h1a12 12 0 0 0 1-6v-1Zm2 4a8 8 0 0 1-1-4h2a8 8 0 0 1-1 4Zm7-3 1 2v-1l-1-2v-1h1-1v-3h-1v3h-2 2a11 11 0 0 1-2 4v1a14 14 0 0 0 2-3v6h1Zm1-3v1h2a6 6 0 0 1-2 1v1a7 7 0 0 0 1-1v2h4v-2a6 6 0 0 0 2 1v-1a5 5 0 0 1-2-1h2v-1h-4a6 6 0 0 0 1-1 15 15 0 0 0 2 0v-1a22 22 0 0 1-6 1h3a6 6 0 0 1-1 1Zm5 2h-3a6 6 0 0 0 1-1h1a5 5 0 0 0 1 1Zm-1 1h-2v-1h2Zm-2 3v2h3v-2Zm2 1h-1v-1h1Zm1 2a1 1 0 0 0 1-1v-4h-6v5h1v-4h5v3h-2v1Zm6-9v3h6v-3Zm5 2h-4v-1h4Zm-6 2v3h4v-3Zm3 2h-2v-1h2Zm2-2v3h3v-3Zm2 2h-2v-1h2Zm-9-7h1v9a1 1 0 0 0 1 1h9v-1h-9v-9h8Z"/>
  <path d="M104 241v2h-3 3v5h0v-5h3-3v-2h3-2a13 13 0 0 0 1-2h-1a15 15 0 0 1 0 2h-2a11 11 0 0 0 0-2h-1a11 11 0 0 1 1 2h-2 0Zm7-4a10 10 0 0 1-4 1v5a8 8 0 0 1-1 4l1 1a9 9 0 0 0 1-5v-2h2v7h1v-7h1-4v-3a12 12 0 0 0 4 0Zm-10 1v1h6v-1h-3v-1h-1a9 9 0 0 1 1 1Zm1 6a9 9 0 0 1-1 3h1a11 11 0 0 0 1-3Zm4 0h-1a19 19 0 0 1 1 2h0a21 21 0 0 0 0-2Zm8-4v3h3v1h-4v1h1a3 3 0 0 1-1 2l1 1a4 4 0 0 0 1-3h2v3h0v-8h0v2h-2v-2Zm7 0v2h-3v1h3v4h-3 6-3v-4h3v-1h-3v-2Zm-8-2h3v1h1v-1h1-1v-1h-1v1Zm7-1v1h-1 1v1h1v-1h3-3v-1Zm8 2v3h6v-3Zm5 2h-4v-1h4Zm-5 2v3h3v-3Zm2 2h-2v-2h2Zm2-2v3h3v-3Zm2 2h-1v-2h1Zm-9-8v1h1v8a1 1 0 0 0 1 1h9-9v-9h9v-1Z" fill="none" stroke="#fff" stroke-linecap="round" stroke-width="2"/>
  <path d="M104 241v2h-3 3v5-5h3-3v-2h3-2a13 13 0 0 0 1-2h-1a15 15 0 0 1 0 2h-2a11 11 0 0 0 0-2h-1a11 11 0 0 1 1 2h-2Zm7-4a10 10 0 0 1-4 1v5a8 8 0 0 1-1 4l1 1a9 9 0 0 0 1-5v-2h2v7h1v-7h1-4v-3a12 12 0 0 0 4 0Zm-10 1v1h6v-1h-3v-1h-1a9 9 0 0 1 1 1Zm1 6a9 9 0 0 1-1 3h1a11 11 0 0 0 1-3Zm4 0h-1a19 19 0 0 1 1 2 21 21 0 0 0 0-2Zm8-4v3h3v1h-4v1h1a3 3 0 0 1-1 2l1 1a4 4 0 0 0 1-3h2v3-8 2h-2v-2Zm7 0v2h-3v1h3v4h-3 6-3v-4h3v-1h-3v-2Zm-8-2h3v1h1v-1h1-1v-1h-1v1Zm7-1v1h-1 1v1h1v-1h3-3v-1Zm8 2v3h6v-3Zm5 2h-4v-1h4Zm-5 2v3h3v-3Zm2 2h-2v-2h2Zm2-2v3h3v-3Zm2 2h-1v-2h1Zm-9-8v1h1v8a1 1 0 0 0 1 1h9-9v-9h9v-1Z"/>
  <path d="M148 213v1h9v-1Zm1 5h7Zm-2 4v1h11v-1Zm13-6v4h4v1h-4v1h4-5v1h11v-1h-5 4v-1h-4v-1h3v-4h-3v-1h4v-1h-4 0l3-1h0-8v1h4-5v1h5v1Zm8 3h-3v-1h3Zm-4 0h-3v-1h3Zm-3-1v-1h3v1Zm4-1h3v1h-3Zm9-2v2h6v-2Zm5 2h-4v-2h4Zm-6 1v3h4v-3Zm3 3h-2v-2h2Zm2-3v3h3v-3Zm2 3h-2v-2h2Zm-9-8v1h1v8a1 1 0 0 0 1 1h8v-1h-9v-8h9v-1Z" fill="none" stroke="#fff" stroke-linecap="round" stroke-width="2"/>
  <path d="M148 213v1h9v-1Zm1 5h7Zm-2 4v1h11v-1Zm13-6v4h4v1h-4v1h4-5v1h11v-1h-5 4v-1h-4v-1h3v-4h-3v-1h4v-1h-4l3-1h-8v1h4-5v1h5v1Zm8 3h-3v-1h3Zm-4 0h-3v-1h3Zm-3-1v-1h3v1Zm4-1h3v1h-3Zm9-2v2h6v-2Zm5 2h-4v-2h4Zm-6 1v3h4v-3Zm3 3h-2v-2h2Zm2-3v3h3v-3Zm2 3h-2v-2h2Zm-9-8v1h1v8a1 1 0 0 0 1 1h8v-1h-9v-8h9v-1Z"/>
  <path d="M146 190v1h-3v3a9 9 0 0 1-2 4l1 1a10 10 0 0 0 1-5v-2h3-2v1h2l1 1h4v-1h-4 3v-1h-3 4a4 4 0 0 1-1 1h1a7 7 0 0 0 1-2h0-5 4v-1h-4 0Zm-1 4v2h6v-2Zm5 2h-2v-1h2Zm-3 0h-2v-1h2Zm-2-1v-1h2v1Zm3-1h2v1h-2Zm3 3h-7v1h-1v1h9v-1h-1Zm-6 1v-1h1v1Zm2 0v-1h1v1Zm2 0v-1h1v1Zm-7-10v1h2v1h1v-1h2v-1h-2 0-1 0Zm7 0h0-2v1h2v1h0v-1h3v-1h-3 0Zm12 0v11h0v-11Zm2 0v11h1v-11Zm-5 0v4a19 19 0 0 1 0 2 19 19 0 0 0-1-3h-1a19 19 0 0 1 1 3h1a8 8 0 0 1-2 4l1 1 2-7v-4Zm-4 0v1a13 13 0 0 1 2 2v-1a15 15 0 0 0-2-2Zm0 3-1 1a12 12 0 0 1 2 2l1-1a14 14 0 0 0-2-2Zm1 4a35 35 0 0 1-1 3v1a39 39 0 0 0 2-4Zm5-4h-1l1 3h0v-3Zm2 0h0v3h1a28 28 0 0 0-1-3Zm7-1v3h5v-3Zm4 2h-3v-1h3Zm-5 2v3h3v-3Zm2 2h-1v-2h1Zm2-2v3h3v-3Zm3 2h-2v-2h2Zm-9-8v1h0v8a1 1 0 0 0 1 2h9v-1h-8l-1-1v-8h9v-1Z" fill="none" stroke="#fff" stroke-linecap="round" stroke-width="2"/>
  <path d="M146 190v1h-3v3a9 9 0 0 1-2 4l1 1a10 10 0 0 0 1-5v-2h3-2v1h2l1 1h4v-1h-4 3v-1h-3 4a4 4 0 0 1-1 1h1a7 7 0 0 0 1-2h-5 4v-1h-4Zm-1 4v2h6v-2Zm5 2h-2v-1h2Zm-3 0h-2v-1h2Zm-2-1v-1h2v1Zm3-1h2v1h-2Zm3 3h-7v1h-1v1h9v-1h-1Zm-6 1v-1h1v1Zm2 0v-1h1v1Zm2 0v-1h1v1Zm-7-10v1h2v1h1v-1h2v-1h-3Zm7 0h-2v1h2v1-1h3v-1h-3Zm12 0v11-11Zm2 0v11h1v-11Zm-5 0v4a19 19 0 0 1 0 2 19 19 0 0 0-1-3h-1a19 19 0 0 1 1 3h1a8 8 0 0 1-2 4l1 1 2-7v-4Zm-4 0v1a13 13 0 0 1 2 2v-1a15 15 0 0 0-2-2Zm0 3-1 1a12 12 0 0 1 2 2l1-1a14 14 0 0 0-2-2Zm1 4a35 35 0 0 1-1 3v1a39 39 0 0 0 2-4Zm5-4h-1l1 3v-3Zm2 0v3h1a28 28 0 0 0-1-3Zm7-1v3h5v-3Zm4 2h-3v-1h3Zm-5 2v3h3v-3Zm2 2h-1v-2h1Zm2-2v3h3v-3Zm3 2h-2v-2h2Zm-9-8v9a1 1 0 0 0 1 2h9v-1h-8l-1-1v-8h9v-1Z"/>
  <path d="M106 188h3l-1 5h-3v1h11v-1h-2v-5h-4v-3h5v-1h-10v1h4v3Zm2 5 1-5h4v5Zm14-5v1h0a6 6 0 0 0 2 3 9 9 0 0 1-3 1l1 1a9 9 0 0 0 3-2 12 12 0 0 0 2 2l1-1a11 11 0 0 1-3-1 7 7 0 0 0 2-3v-1Zm1 1h3a7 7 0 0 1-1 2 5 5 0 0 1-2-2Zm0-5v1a2 2 0 0 1-1 2v1a3 3 0 0 0 1-3v-1h2v2a1 1 0 0 0 1 1h2-1l-1-1v-2Zm-2 0h-3v5a9 9 0 0 1-1 5h0a10 10 0 0 0 1-4h2v3s0 0 0 0h-1v1h1a1 1 0 0 0 1-1Zm-3 5v-2h2v2h-2Zm0-3v-2h2v3a16 16 0 0 0-2-1Zm14-1v3h6v-3Zm5 2h-4v-1h4Zm-6 2v3h4v-3Zm3 2h-2v-1h2Zm2-2v3h3v-3Zm2 2h-2v-1h2Zm-9-7h1v9a1 1 0 0 0 1 1h8v-1h-8l-1-1v-8h9Z" fill="none" stroke="#fff" stroke-linecap="round" stroke-width="2"/>
  <path d="M106 188h3l-1 5h-3v1h11v-1h-2v-5h-4v-3h5v-1h-10v1h4v3Zm2 5 1-5h4v5Zm14-5v1a6 6 0 0 0 2 3 9 9 0 0 1-3 1l1 1a9 9 0 0 0 3-2 12 12 0 0 0 2 2l1-1a11 11 0 0 1-3-1 7 7 0 0 0 2-3v-1Zm1 1h3a7 7 0 0 1-1 2 5 5 0 0 1-2-2Zm0-5v1a2 2 0 0 1-1 2v1a3 3 0 0 0 1-3v-1h2v2a1 1 0 0 0 1 1h2-1l-1-1v-2Zm-2 0h-3v5a9 9 0 0 1-1 5 10 10 0 0 0 1-4h2v3h-1v1h1a1 1 0 0 0 1-1Zm-3 5v-2h2v2h-2Zm0-3v-2h2v3a16 16 0 0 0-2-1Zm14-1v3h6v-3Zm5 2h-4v-1h4Zm-6 2v3h4v-3Zm3 2h-2v-1h2Zm2-2v3h3v-3Zm2 2h-2v-1h2Zm-9-7h1v9a1 1 0 0 0 1 1h8v-1h-8l-1-1v-8h9Z"/>
  <path d="M99 221a13 13 0 0 1 1 2l1-1a12 12 0 0 0-1-1 12 12 0 0 0 1-1h3a5 5 0 0 0 1 0 10 10 0 0 1-1 2h0a9 9 0 0 0 1-1 9 9 0 0 0 2 1l1-1a6 6 0 0 1-3-1h2v-1h-6l1-1h4v-1h-4v-1h5v-1h-4v-1h-1v1h-4v1h4l-1 1h-3v1h3a10 10 0 0 1-1 1h-3v1h3a9 9 0 0 1-3 2h0a11 11 0 0 0 2-1Zm5 1-1 1a15 15 0 0 1 4 2v-1a17 17 0 0 0-3-2Zm-3 1a11 11 0 0 1-3 1v1a12 12 0 0 0 3-2Zm1 2 1-1v-4h-1v4l-1 1h-1 1Zm16-9v8h-3v-9h-1v9h-4v-8h-1v9h1v-1h8v1h1v-9Zm6 1v2h6v-2Zm5 2h-4v-2h4Zm-6 1v3h3v-3Zm3 3h-2v-2h2Zm2-3v3h3v-3Zm2 3h-2v-2h2Zm-9-8v1h1v8a1 1 0 0 0 1 1h8v-1h-9v-8h9v-1Z" fill="none" stroke="#fff" stroke-linecap="round" stroke-width="2"/>
  <path d="M99 221a13 13 0 0 1 1 2l1-1a12 12 0 0 0-1-1 12 12 0 0 0 1-1h3a5 5 0 0 0 1 0 10 10 0 0 1-1 2 9 9 0 0 0 1-1 9 9 0 0 0 2 1l1-1a6 6 0 0 1-3-1h2v-1h-6l1-1h4v-1h-4v-1h5v-1h-4v-1h-1v1h-4v1h4l-1 1h-3v1h3a10 10 0 0 1-1 1h-3v1h3a9 9 0 0 1-3 2 11 11 0 0 0 2-1Zm5 1-1 1a15 15 0 0 1 4 2v-1a17 17 0 0 0-3-2Zm-3 1a11 11 0 0 1-3 1v1a12 12 0 0 0 3-2Zm1 2 1-1v-4h-1v4l-1 1h-1 1Zm16-9v8h-3v-9h-1v9h-4v-8h-1v9h1v-1h8v1h1v-9Zm6 1v2h6v-2Zm5 2h-4v-2h4Zm-6 1v3h3v-3Zm3 3h-2v-2h2Zm2-3v3h3v-3Zm2 3h-2v-2h2Zm-9-8v1h1v8a1 1 0 0 0 1 1h8v-1h-9v-8h9v-1Z"/>
  <path d="M48 178v1h2a13 13 0 0 1-3 5v1a15 15 0 0 0 3-5v7h1v-7a16 16 0 0 0 2 5v-1a13 13 0 0 1-2-5h2v-1h-2v-2h-1v2Zm-5 0v1h2a11 11 0 0 1-3 4l1 1a13 13 0 0 0 2-3v6h0v-6a24 24 0 0 1 2 2v-1l-2-2v-1h2v-1h-2v-2h0v2Zm21-1h-8v10h0v-1h7v1h1Zm-8 8v-7h7v7Zm14-7v3h5v-3Zm4 2h-3v-1h3Zm-5 2v3h3v-3Zm2 2h-1v-1h1Zm2-2v3h3v-3Zm3 2h-2v-1h2Zm-9-7h0v8a1 1 0 0 0 1 2h9v-1h-8l-1-1v-8h9Z" fill="none" stroke="#fff" stroke-linecap="round" stroke-width="2"/>
  <path d="M48 178v1h2a13 13 0 0 1-3 5v1a15 15 0 0 0 3-5v7h1v-7a16 16 0 0 0 2 5v-1a13 13 0 0 1-2-5h2v-1h-2v-2h-1v2Zm-5 0v1h2a11 11 0 0 1-3 4l1 1a13 13 0 0 0 2-3v6-6a24 24 0 0 1 2 2v-1l-2-2v-1h2v-1h-2v-2 2Zm21-1h-8v10-1h7v1h1Zm-8 8v-7h7v7Zm14-7v3h5v-3Zm4 2h-3v-1h3Zm-5 2v3h3v-3Zm2 2h-1v-1h1Zm2-2v3h3v-3Zm3 2h-2v-1h2Zm-9-7v8a1 1 0 0 0 1 2h9v-1h-8l-1-1v-8h9Z"/>
  <path d="M90 145h2q0 7 4 10v-1c-2-2-3-5-3-9Zm-1 0q-1 7-4 9l1 1c2-1 3-5 3-9Zm10 3h3v1h-3Zm3 2v2h-4 4v2h-5v1h11v-1h-5v-2h4-4v-2h4v-5h-9v5Zm1-1v-1h3v1Zm3-2h-3v-2h3Zm-4-2v2h-3v-2Zm11 1v3h5v-3Zm4 2h-4v-1h4Zm-5 2v3h3v-3Zm2 2h-2v-1h2Zm2-2v3h3v-3Zm2 2h-1v-1h1Zm-9-7h1v9a1 1 0 0 0 1 1h9v-1h-9v-9h9Z" fill="none" stroke="#fff" stroke-linecap="round" stroke-width="2"/>
  <path d="M90 145h2q0 7 4 10v-1c-2-2-3-5-3-9Zm-1 0q-1 7-4 9l1 1c2-1 3-5 3-9Zm10 3h3v1h-3Zm3 2v2h-4 4v2h-5v1h11v-1h-5v-2h4-4v-2h4v-5h-9v5Zm1-1v-1h3v1Zm3-2h-3v-2h3Zm-4-2v2h-3v-2Zm11 1v3h5v-3Zm4 2h-4v-1h4Zm-5 2v3h3v-3Zm2 2h-2v-1h2Zm2-2v3h3v-3Zm2 2h-1v-1h1Zm-9-7h1v9a1 1 0 0 0 1 1h9v-1h-9v-9h9Z"/>
  <path d="m132 104-1 1a17 17 0 0 1 1 2h1a18 18 0 0 0-1-3Zm0 7h-1a18 18 0 0 1 1 2h1a16 16 0 0 0-1-2Zm3-3a20 20 0 0 1 4 2v-1a23 23 0 0 0-4-2 7 7 0 0 0 1-2v-1h-1v1a4 4 0 0 1-1 3 6 6 0 0 1-3 1v1a7 7 0 0 0 3-2 5 5 0 0 0 1 0Zm0 1v2a6 6 0 0 1-1 3 6 6 0 0 1-4 2h1a7 7 0 0 0 3-2 6 6 0 0 0 1-1 7 7 0 0 0 4 3h1q-4-2-5-5h1v-2Zm3-5a10 10 0 0 1-1 3h1a11 11 0 0 0 1-2Zm0 7a9 9 0 0 1-1 2h1a10 10 0 0 0 1-2Zm-10-7v1a14 14 0 0 1 2 2l1-1a16 16 0 0 0-3-2Zm0 3-1 1a14 14 0 0 1 3 2v-1a18 18 0 0 0-2-2Zm1 4a41 41 0 0 1-2 5h1a48 48 0 0 0 2-5Zm12-4v1h4a11 11 0 0 1-4 6l1 1a12 12 0 0 0 4-7v-1Zm11-1a20 20 0 0 1-3 3 16 16 0 0 1-1-2v-3h-1v11l-1 1h-1v1h2l1-2v-6a16 16 0 0 0 5 6l1-1a14 14 0 0 1-4-4 21 21 0 0 0 3-3Zm7 0v3h6v-3Zm5 3h-4v-2h4Zm-6 1v4h4v-4Zm3 3h-2v-2h2Zm2-3v4h4v-4Zm3 3h-2v-2h2Zm-11-9v1h1v10a1 1 0 0 0 1 1h10v-1h-10a1 1 0 0 1 0 0v-10h10v-1Z" fill="none" stroke="#fff" stroke-linecap="round" stroke-width="2"/>
  <path d="m132 104-1 1a17 17 0 0 1 1 2h1a18 18 0 0 0-1-3Zm0 7h-1a18 18 0 0 1 1 2h1a16 16 0 0 0-1-2Zm3-3a20 20 0 0 1 4 2v-1a23 23 0 0 0-4-2 7 7 0 0 0 1-2v-1h-1v1a4 4 0 0 1-1 3 6 6 0 0 1-3 1v1a7 7 0 0 0 3-2 5 5 0 0 0 1 0Zm0 1v2a6 6 0 0 1-1 3 6 6 0 0 1-4 2h1a7 7 0 0 0 3-2 6 6 0 0 0 1-1 7 7 0 0 0 4 3h1q-4-2-5-5h1v-2Zm3-5a10 10 0 0 1-1 3h1a11 11 0 0 0 1-2Zm0 7a9 9 0 0 1-1 2h1a10 10 0 0 0 1-2Zm-10-7v1a14 14 0 0 1 2 2l1-1a16 16 0 0 0-3-2Zm0 3-1 1a14 14 0 0 1 3 2v-1a18 18 0 0 0-2-2Zm1 4a41 41 0 0 1-2 5h1a48 48 0 0 0 2-5Zm12-4v1h4a11 11 0 0 1-4 6l1 1a12 12 0 0 0 4-7v-1Zm11-1a20 20 0 0 1-3 3 16 16 0 0 1-1-2v-3h-1v11l-1 1h-1v1h2l1-2v-6a16 16 0 0 0 5 6l1-1a14 14 0 0 1-4-4 21 21 0 0 0 3-3Zm7 0v3h6v-3Zm5 3h-4v-2h4Zm-6 1v4h4v-4Zm3 3h-2v-2h2Zm2-3v4h4v-4Zm3 3h-2v-2h2Zm-11-9v1h1v10a1 1 0 0 0 1 1h10v-1h-10v-10h10v-1Z"/>
  <path d="M176 67v1h11v-1Zm1 5v1h9v-1Zm-2 5v1h13v-1Zm20-8h-1a13 13 0 0 1 1 2h-5v1h8a15 15 0 0 1-6 4s0 0 0 0a1 1 0 0 0 0 0c-1 0-2 0-3 2l1 1 2-2a1 1 0 0 1 0 0 5 5 0 0 0 4 1h5l1-1h-6a4 4 0 0 1-3-1 15 15 0 0 0 7-5h0-4a15 15 0 0 0-1-2Zm-6-2v1h3v1h1v-1h2v-1h-2v-1h-1v1Zm8-1v1h-1v1h1v1h1v-1h3v-1h-3v-1Zm10 2v3h6v-3Zm5 3h-4v-2h4Zm-6 1v4h4v-4Zm3 3h-2v-2h2Zm2-3v4h4v-4Zm3 3h-2v-2h2Zm-11-9v1h1v10a1 1 0 0 0 1 1h10v-1h-10a1 1 0 0 1 0-1v-9h10v-1Z" fill="none" stroke="#fff" stroke-linecap="round" stroke-width="2"/>
  <path d="M176 67v1h11v-1Zm1 5v1h9v-1Zm-2 5v1h13v-1Zm20-8h-1a13 13 0 0 1 1 2h-5v1h8a15 15 0 0 1-6 4c-1 0-2 0-3 2l1 1 2-2a5 5 0 0 0 4 1h5l1-1h-6a4 4 0 0 1-3-1 15 15 0 0 0 7-5h-4a15 15 0 0 0-1-2Zm-6-2v1h3v1h1v-1h2v-1h-2v-1h-1v1Zm8-1v1h-1v1h1v1h1v-1h3v-1h-3v-1Zm10 2v3h6v-3Zm5 3h-4v-2h4Zm-6 1v4h4v-4Zm3 3h-2v-2h2Zm2-3v4h4v-4Zm3 3h-2v-2h2Zm-11-9v1h1v10a1 1 0 0 0 1 1h10v-1h-10a1 1 0 0 1 0-1v-9h10v-1Z"/>
  <path d="M221 32v1h5a14 14 0 0 1-5 6v1a17 17 0 0 0 3-3v7h1v-1h6v1h1v-7h-7a16 16 0 0 0 2-4h6v-1Zm4 10v-5h6v5Zm11-8h3v2h-3Zm3 0h-3v-2h3Zm4 0h3v2h-3Zm3 0h-3v-2h3Zm0 3v5l-1 1h-1v1h2l1-2V31h-5v6Zm-6-6h-5v13h1v-7h4Zm13 2v4h6v-4Zm5 3h-4v-2h4Zm-6 2v3h3v-3Zm3 3h-3v-2h3Zm2-3v3h3v-3Zm2 3h-2v-2h2Zm-10-9h1v10a1 1 0 0 0 1 1h10v-1h-10a1 1 0 0 1 0 0V32h10Z" fill="none" stroke="#fff" stroke-linecap="round" stroke-width="2"/>
  <path d="M221 32v1h5a14 14 0 0 1-5 6v1a17 17 0 0 0 3-3v7h1v-1h6v1h1v-7h-7a16 16 0 0 0 2-4h6v-1Zm4 10v-5h6v5Zm11-8h3v2h-3Zm3 0h-3v-2h3Zm4 0h3v2h-3Zm3 0h-3v-2h3Zm0 3v5l-1 1h-1v1h2l1-2V31h-5v6Zm-6-6h-5v13h1v-7h4Zm13 2v4h6v-4Zm5 3h-4v-2h4Zm-6 2v3h3v-3Zm3 3h-3v-2h3Zm2-3v3h3v-3Zm2 3h-2v-2h2Zm-10-9h1v10a1 1 0 0 0 1 1h10v-1h-10V32h10Z"/>
  <path d="M245 76v1h3v2h-5v1h5v4h-2a17 17 0 0 0-1-3h-1a14 14 0 0 1 1 3h-3v1h12v-1h-3a18 18 0 0 0 1-3h0a22 22 0 0 1-2 3h-1v-4h5v-1h-5v-2h3v-1a17 17 0 0 0 2 1l1-1a15 15 0 0 1-6-4h-1a18 18 0 0 1-6 4v1a21 21 0 0 0 3-1Zm7 0h-7a18 18 0 0 0 3-3 14 14 0 0 0 4 3Zm15-2v9h-4V72h-1v11h-4v-9h-1v11h1v-1h9v1h1V74Zm7 0v4h6v-4Zm5 3h-4v-2h4Zm-6 2v4h4v-4Zm3 3h-2v-2h2Zm2-3v4h4v-4Zm3 3h-2v-2h2Zm-11-9v1h1v9a1 1 0 0 0 1 1h10v-1h-10a1 1 0 0 1 0 0v-9h10v-1Z" fill="none" stroke="#fff" stroke-linecap="round" stroke-width="2"/>
  <path d="M245 76v1h3v2h-5v1h5v4h-2a17 17 0 0 0-1-3h-1a14 14 0 0 1 1 3h-3v1h12v-1h-3a18 18 0 0 0 1-3 22 22 0 0 1-2 3h-1v-4h5v-1h-5v-2h3v-1a17 17 0 0 0 2 1l1-1a15 15 0 0 1-6-4h-1a18 18 0 0 1-6 4v1a21 21 0 0 0 3-1Zm7 0h-7a18 18 0 0 0 3-3 14 14 0 0 0 4 3Zm15-2v9h-4V72h-1v11h-4v-9h-1v11h1v-1h9v1h1V74Zm7 0v4h6v-4Zm5 3h-4v-2h4Zm-6 2v4h4v-4Zm3 3h-2v-2h2Zm2-3v4h4v-4Zm3 3h-2v-2h2Zm-11-9v1h1v9a1 1 0 0 0 1 1h10v-1h-10v-9h10v-1Z"/>
  <path d="M274 112v4h4v1h-4v5h0v-4h4v2h-3l1 1 5-1 1 1h1a14 14 0 0 0-2-3v1s0 0 0 0l-2 1v-2h4v3q0 0 0 0h-2v1h2l1-1v-4h-5v-1h4v-4Zm8 4h-3v-1h3Zm-4 0h-3v-1h3Zm-3-2v-1h3v1Zm4-1h3v1h-3Zm-6-3v1h3v1h1v-1h1v-1h-1v-1h-1v1Zm8-1v1h-2v1h2v1h1v-1h3v-1h-3v-1Zm8 4h3v2h-3Zm3 3v2h-5v1h5v1h-5v1h12v-1h-6v-1h5v-1h-5v-2h5v-6h-10v6Zm1-1v-2h4v2Zm4-3h-4v-1h4Zm-5-1v1h-3v-1Zm12 0v4h7v-4Zm6 3h-5v-2h5Zm-7 2v4h4v-4Zm3 3h-2v-2h2Zm2-3v4h4v-4Zm3 3h-2v-2h2Zm-10-9v1h0v9a1 1 0 0 0 2 1h10v-1h-10a1 1 0 0 1-1 0v-9h11v-1Z" fill="none" stroke="#fff" stroke-linecap="round" stroke-width="2"/>
  <path d="M274 112v4h4v1h-4v5-4h4v2h-3l1 1 5-1 1 1h1a14 14 0 0 0-2-3v1l-2 1v-2h4v3h-2v1h2l1-1v-4h-5v-1h4v-4Zm8 4h-3v-1h3Zm-4 0h-3v-1h3Zm-3-2v-1h3v1Zm4-1h3v1h-3Zm-6-3v1h3v1h1v-1h1v-1h-1v-1h-1v1Zm8-1v1h-2v1h2v1h1v-1h3v-1h-3v-1Zm8 4h3v2h-3Zm3 3v2h-5v1h5v1h-5v1h12v-1h-6v-1h5v-1h-5v-2h5v-6h-10v6Zm1-1v-2h4v2Zm4-3h-4v-1h4Zm-5-1v1h-3v-1Zm12 0v4h7v-4Zm6 3h-5v-2h5Zm-7 2v4h4v-4Zm3 3h-2v-2h2Zm2-3v4h4v-4Zm3 3h-2v-2h2Zm-10-9v10a1 1 0 0 0 2 1h10v-1h-10a1 1 0 0 1-1 0v-9h11v-1Z"/>
  <path d="M115 306v1h4v5h-5v1h11v-1h-5v-5h4v-1h-4v-4h-1v4Zm11-1v1h1v4h-1v1a15 15 0 0 0 3-1v-1l-1 1v-4h1v-1h-1v-3h-1v3Zm5 2h1a20 20 0 0 1 0 3h-1 0v1h1a1 1 0 0 0 1-1 17 17 0 0 0 0-4h-2v-1h2a26 26 0 0 0 1 4 12 12 0 0 0 0 1 7 7 0 0 1-2 2v1a7 7 0 0 0 3-2 6 6 0 0 0 0 1l1 1 1-2v-1l-1 2-1-1a6 6 0 0 1 0-1 14 14 0 0 0 2-4h-1a14 14 0 0 1-1 3v-1a27 27 0 0 1-1-3h3v-1h-3v-2h-1v2h-3v3a9 9 0 0 1-1 5v1a10 10 0 0 0 2-6Zm5-5h-1a10 10 0 0 1 1 2h0a10 10 0 0 0 0-2Zm6 2v3h5v-3Zm4 2h-3v-1h3Zm-5 2v3h3v-3Zm2 2h-1v-1h1Zm2-2v3h3v-3Zm3 2h-2v-1h2Zm-9-7h0v9a1 1 0 0 0 1 1h9v-1h-9v-9h9Z" fill="none" stroke="#fff" stroke-linecap="round" stroke-width="2"/>
  <path d="M115 306v1h4v5h-5v1h11v-1h-5v-5h4v-1h-4v-4h-1v4Zm11-1v1h1v4h-1v1a15 15 0 0 0 3-1v-1l-1 1v-4h1v-1h-1v-3h-1v3Zm5 2h1a20 20 0 0 1 0 3h-1v1h1a1 1 0 0 0 1-1 17 17 0 0 0 0-4h-2v-1h2a26 26 0 0 0 1 4 12 12 0 0 0 0 1 7 7 0 0 1-2 2v1a7 7 0 0 0 3-2 6 6 0 0 0 0 1l1 1 1-2v-1l-1 2-1-1a6 6 0 0 1 0-1 14 14 0 0 0 2-4h-1a14 14 0 0 1-1 3v-1a27 27 0 0 1-1-3h3v-1h-3v-2h-1v2h-3v3a9 9 0 0 1-1 5v1a10 10 0 0 0 2-6Zm5-5h-1a10 10 0 0 1 1 2 10 10 0 0 0 0-2Zm6 2v3h5v-3Zm4 2h-3v-1h3Zm-5 2v3h3v-3Zm2 2h-1v-1h1Zm2-2v3h3v-3Zm3 2h-2v-1h2Zm-9-7v9a1 1 0 0 0 1 1h9v-1h-9v-9h9Z"/>
  <path d="m79 294 1 1h0l-1-2v-1h1v-1h-1v-2h-1v2h-1v1h1a12 12 0 0 1-2 4l1 1a16 16 0 0 0 1-3v6h1Zm5-3v1h2v6l-1 1h-1v1h2l1-1v-7h0v-1h0v-2h-1v2Zm1 2-1 1a18 18 0 0 1 1 2h0a18 18 0 0 0 0-3Zm-5-3v1h2v1h-2v1h4v-1h-2v-1h2v-1h-2v-1h0v1Zm3 6a14 14 0 0 1-1 2l-2 1v1a26 26 0 0 0 4-1v-1h-1l1-1Zm-3-3v3h4v-3Zm3 2h-2v-1h2Zm-2 2h-1a11 11 0 0 1 1 1h0a11 11 0 0 0 0-1Zm13-6v1h2a13 13 0 0 1-3 5v1a15 15 0 0 0 3-5v7h1v-7a16 16 0 0 0 2 5l1-1a13 13 0 0 1-3-5h2v-1h-2v-2h-1v2Zm-5 0v1h2a11 11 0 0 1-2 4v1a13 13 0 0 0 2-4v7h1v-7a24 24 0 0 1 1 2h0l-1-2v-1h1v-1h-1v-2h-1v2Zm15 0v3h5v-3Zm5 2h-4v-1h4Zm-6 1v4h3v-4Zm3 3h-2v-2h2Zm1-3v4h4v-4Zm3 3h-2v-2h2Zm-9-8v1h0v8a1 1 0 0 0 1 1h9v-1h-9v-8h9v-1Z" fill="none" stroke="#fff" stroke-linecap="round" stroke-width="2"/>
  <path d="m79 294 1 1-1-2v-1h1v-1h-1v-2h-1v2h-1v1h1a12 12 0 0 1-2 4l1 1a16 16 0 0 0 1-3v6h1Zm5-3v1h2v6l-1 1h-1v1h2l1-1v-10h-1v2Zm1 2-1 1a18 18 0 0 1 1 2 18 18 0 0 0 0-3Zm-5-3v1h2v1h-2v1h4v-1h-2v-1h2v-1h-2v-1 1Zm3 6a14 14 0 0 1-1 2l-2 1v1a26 26 0 0 0 4-1v-1h-1l1-1Zm-3-3v3h4v-3Zm3 2h-2v-1h2Zm-2 2h-1a11 11 0 0 1 1 1 11 11 0 0 0 0-1Zm13-6v1h2a13 13 0 0 1-3 5v1a15 15 0 0 0 3-5v7h1v-7a16 16 0 0 0 2 5l1-1a13 13 0 0 1-3-5h2v-1h-2v-2h-1v2Zm-5 0v1h2a11 11 0 0 1-2 4v1a13 13 0 0 0 2-4v7h1v-7a24 24 0 0 1 1 2l-1-2v-1h1v-1h-1v-2h-1v2Zm15 0v3h5v-3Zm5 2h-4v-1h4Zm-6 1v4h3v-4Zm3 3h-2v-2h2Zm1-3v4h4v-4Zm3 3h-2v-2h2Zm-9-8v9a1 1 0 0 0 1 1h9v-1h-9v-8h9v-1Z"/>
  <path d="M44 309H33v2h1v-1h9v1h1Zm-8 3h5v1h-5Zm5 0h-5v-1h5Zm-5 2h8-8v-1h6v-2h-4a2 2 0 0 0 0-1h0a3 3 0 0 1-1 1h-2v4h8a3 3 0 0 1 0 1 1 1 0 0 1-1 0h-1v1h1a2 2 0 0 0 1 0 4 4 0 0 0 1-2h-8Zm-2 1a5 5 0 0 1-1 2h1a6 6 0 0 0 1-1Zm2 1h0a8 8 0 0 1 0 1h1a8 8 0 0 0-1-1Zm2 0h0a9 9 0 0 1 0 1h1a9 9 0 0 0-1-1Zm2-1v1a10 10 0 0 1 0 1h1a10 10 0 0 0-1-2Zm-6-9v1a7 7 0 0 1 0 1h1a6 6 0 0 0-1-2Zm5 0v1a8 8 0 0 1 0 1h1a7 7 0 0 0-1-2Zm-1 0a4 4 0 0 1-1 2h1a4 4 0 0 0 0-2Zm-2 2a14 14 0 0 1 2 1h0a16 16 0 0 0-2-1 3 3 0 0 0 0-1v-1h0v1a2 2 0 0 1-1 1 4 4 0 0 1-2 1h1a4 4 0 0 0 2-1s0 0 0 0Zm7-2a3 3 0 0 1-1 2h1a4 4 0 0 0 0-1Zm-2 2a11 11 0 0 1 2 1h0a12 12 0 0 0-2-1 3 3 0 0 0 1-1v-1h-1v1a2 2 0 0 1-1 1 4 4 0 0 1-1 1h0a4 4 0 0 0 2-1 1 1 0 0 1 0 0Zm5 5v2h3v-2Zm2 2h-2v-1h2Zm4-9a11 11 0 0 1-2 5h1a8 8 0 0 0 1-2h3a18 18 0 0 1-1 2h1l1-3h0-4l1-2Zm-3 1v4h-4v1h4v4s0 0 0 0h-1v1h1a1 1 0 0 0 1-1v-4h1v-1h-1v-4h1-5 0Zm-3 1v2h3v-2Zm2 2h-2v-1h2Zm5 0a17 17 0 0 1-1 3 6 6 0 0 1-2 3l1 1a6 6 0 0 0 2-3v-1a10 10 0 0 0 3 4v-1a9 9 0 0 1-3-4 21 21 0 0 0 1-2Zm8-2v3h5v-3Zm4 2h-4v-1h4Zm-5 2v3h3v-3Zm2 2h-2v-1h2Zm2-2v3h3v-3Zm2 2h-1v-1h1Zm-9-7h1v8a1 1 0 0 0 1 2h9v-1h-9v-9h9Z" fill="none" stroke="#fff" stroke-linecap="round" stroke-width="2"/>
  <path d="M44 309H33v2h1v-1h9v1h1Zm-8 3h5v1h-5Zm5 0h-5v-1h5Zm-5 2h8-8v-1h6v-2h-4a2 2 0 0 0 0-1 3 3 0 0 1-1 1h-2v4h8a3 3 0 0 1 0 1 1 1 0 0 1-1 0h-1v1h1a2 2 0 0 0 1 0 4 4 0 0 0 1-2h-8Zm-2 1a5 5 0 0 1-1 2h1a6 6 0 0 0 1-1Zm2 1a8 8 0 0 1 0 1h1a8 8 0 0 0-1-1Zm2 0a9 9 0 0 1 0 1h1a9 9 0 0 0-1-1Zm2-1v1a10 10 0 0 1 0 1h1a10 10 0 0 0-1-2Zm-6-9v1a7 7 0 0 1 0 1h1a6 6 0 0 0-1-2Zm5 0v1a8 8 0 0 1 0 1h1a7 7 0 0 0-1-2Zm-1 0a4 4 0 0 1-1 2h1a4 4 0 0 0 0-2Zm-2 2a14 14 0 0 1 2 1 16 16 0 0 0-2-1 3 3 0 0 0 0-1v-1 1a2 2 0 0 1-1 1 4 4 0 0 1-2 1h1a4 4 0 0 0 2-1Zm7-2a3 3 0 0 1-1 2h1a4 4 0 0 0 0-1Zm-2 2a11 11 0 0 1 2 1 12 12 0 0 0-2-1 3 3 0 0 0 1-1v-1h-1v1a2 2 0 0 1-1 1 4 4 0 0 1-1 1 4 4 0 0 0 2-1Zm5 5v2h3v-2Zm2 2h-2v-1h2Zm4-9a11 11 0 0 1-2 5h1a8 8 0 0 0 1-2h3a18 18 0 0 1-1 2h1l1-3h-4l1-2Zm-3 1v4h-4v1h4v4h-1v1h1a1 1 0 0 0 1-1v-4h1v-1h-1v-4h1-5Zm-3 1v2h3v-2Zm2 2h-2v-1h2Zm5 0a17 17 0 0 1-1 3 6 6 0 0 1-2 3l1 1a6 6 0 0 0 2-3v-1a10 10 0 0 0 3 4v-1a9 9 0 0 1-3-4 21 21 0 0 0 1-2Zm8-2v3h5v-3Zm4 2h-4v-1h4Zm-5 2v3h3v-3Zm2 2h-2v-1h2Zm2-2v3h3v-3Zm2 2h-1v-1h1Zm-9-7h1v8a1 1 0 0 0 1 2h9v-1h-9v-9h9Z"/>
  <g fill="#ff4b55">
    <path d="M450 255a13 13 0 0 1-13-13 13 13 0 0 1 13-13 13 13 0 0 1 13 13 13 13 0 0 1-13 13Z"/>
    <path d="M450 230a12 12 0 1 0 0 24 12 12 0 0 0 0-24m0-2a14 14 0 0 1 14 14 14 14 0 0 1-14 14 14 14 0 0 1-14-14 14 14 0 0 1 14-14Z" fill="#fff"/>
  </g>
  <text transform="translate(450 246)" fill="#fff" font-size="12" font-family="GreycliffCF-Bold, Greycliff CF" font-weight="700"><tspan x="-3.1" y="0">7</tspan></text>
  <g fill="#ff4b55">
    <path d="M306 203a13 13 0 0 1-13-13 13 13 0 0 1 13-13 13 13 0 0 1 13 13 13 13 0 0 1-13 13Z"/>
    <path d="M306 178a12 12 0 1 0 0 24 12 12 0 0 0 0-24m0-2a14 14 0 0 1 14 14 14 14 0 0 1-14 14 14 14 0 0 1-14-14 14 14 0 0 1 14-14Z" fill="#fff"/>
  </g>
  <text transform="translate(306 194)" fill="#fff" font-size="12" font-family="GreycliffCF-Bold, Greycliff CF" font-weight="700"><tspan x="-3.3" y="0">5</tspan></text>
  <g fill="#ff4b55">
    <path d="M361 335a13 13 0 0 1-13-13 13 13 0 0 1 13-13 13 13 0 0 1 13 13 13 13 0 0 1-13 13Z"/>
    <path d="M361 310a12 12 0 1 0 0 24 12 12 0 0 0 0-24m0-2a14 14 0 0 1 14 14 14 14 0 0 1-14 14 14 14 0 0 1-14-14 14 14 0 0 1 14-14Z" fill="#fff"/>
  </g>
  <text transform="translate(361 326)" fill="#fff" font-size="12" font-family="GreycliffCF-Bold, Greycliff CF" font-weight="700"><tspan x="-3.4" y="0">9</tspan></text>
  <g fill="#ff4b55">
    <path d="M204 449a13 13 0 0 1-13-13 13 13 0 0 1 13-13 13 13 0 0 1 13 13 13 13 0 0 1-13 13Z"/>
    <path d="M204 424a12 12 0 1 0 0 24 12 12 0 0 0 0-24m0-2a14 14 0 0 1 14 14 14 14 0 0 1-14 14 14 14 0 0 1-14-14 14 14 0 0 1 14-14Z" fill="#fff"/>
  </g>
  <text transform="translate(204 440)" fill="#fff" font-size="12" font-family="GreycliffCF-Bold, Greycliff CF" font-weight="700"><tspan x="-6.1" y="0">10</tspan></text>
  <g fill="#ff4b55">
    <path d="M101 358a13 13 0 0 1-13-13 13 13 0 0 1 13-13 13 13 0 0 1 13 13 13 13 0 0 1-13 13Z"/>
    <path d="M101 333a12 12 0 1 0 0 24 12 12 0 0 0 0-24m0-2a14 14 0 0 1 14 14 14 14 0 0 1-14 14 14 14 0 0 1-14-14 14 14 0 0 1 14-14Z" fill="#fff"/>
  </g>
  <text transform="translate(101 349)" fill="#fff" font-size="12" font-family="GreycliffCF-Bold, Greycliff CF" font-weight="700"><tspan x="-3.9" y="0">0</tspan></text>
  <g fill="#ff4b55">
    <path d="M51 303a13 13 0 0 1-13-13 13 13 0 0 1 13-13 13 13 0 0 1 13 13 13 13 0 0 1-13 13Z"/>
    <path d="M51 278a12 12 0 1 0 0 24 12 12 0 0 0 0-24m0-2a14 14 0 0 1 14 14 14 14 0 0 1-14 14 14 14 0 0 1-14-14 14 14 0 0 1 14-14Z" fill="#fff"/>
  </g>
  <text transform="translate(51 294)" fill="#fff" font-size="12" font-family="GreycliffCF-Bold, Greycliff CF" font-weight="700"><tspan x="-3.9" y="0">0</tspan></text>
  <g fill="#ff4b55">
    <path d="M94 285a13 13 0 0 1-13-13 13 13 0 0 1 13-13 13 13 0 0 1 13 13 13 13 0 0 1-13 13Z"/>
    <path d="M94 260a12 12 0 1 0 0 24 12 12 0 0 0 0-24m0-2a14 14 0 0 1 14 14 14 14 0 0 1-14 14 14 14 0 0 1-14-14 14 14 0 0 1 14-14Z" fill="#fff"/>
  </g>
  <text transform="translate(94 276)" fill="#fff" font-size="12" font-family="GreycliffCF-Bold, Greycliff CF" font-weight="700"><tspan x="-6.1" y="0">10</tspan></text>
  <g fill="#ff4b55">
    <path d="M123 178a13 13 0 0 1-13-13 13 13 0 0 1 13-13 13 13 0 0 1 13 13 13 13 0 0 1-13 13Z"/>
    <path d="M123 153a12 12 0 1 0 0 24 12 12 0 0 0 0-24m0-2a14 14 0 0 1 14 14 14 14 0 0 1-14 14 14 14 0 0 1-14-14 14 14 0 0 1 14-14Z" fill="#fff"/>
  </g>
  <text transform="translate(123 169)" fill="#fff" font-size="12" font-family="GreycliffCF-Bold, Greycliff CF" font-weight="700"><tspan x="-3.4" y="0">6</tspan></text>
  <g fill="#ff4b55">
    <path d="M290 315a13 13 0 0 1-13-13 13 13 0 0 1 13-13 13 13 0 0 1 13 13 13 13 0 0 1-13 13Z"/>
    <path d="M290 290a12 12 0 1 0 0 24 12 12 0 0 0 0-24m0-2a14 14 0 0 1 14 14 14 14 0 0 1-14 14 14 14 0 0 1-14-14 14 14 0 0 1 14-14Z" fill="#fff"/>
  </g>
  <text transform="translate(290 306)" fill="#fff" font-size="12" font-family="GreycliffCF-Bold, Greycliff CF" font-weight="700"><tspan x="-3.4" y="0">6</tspan></text>
  <g fill="#ff4b55">
    <path d="M275 262a13 13 0 0 1-13-13 13 13 0 0 1 13-13 13 13 0 0 1 13 13 13 13 0 0 1-13 13Z"/>
    <path d="M275 237a12 12 0 1 0 0 24 12 12 0 0 0 0-24m0-2a14 14 0 0 1 14 14 14 14 0 0 1-14 14 14 14 0 0 1-14-14 14 14 0 0 1 14-14Z" fill="#fff"/>
  </g>
  <text transform="translate(275 253)" fill="#fff" font-size="12" font-family="GreycliffCF-Bold, Greycliff CF" font-weight="700"><tspan x="-3.5" y="0">8</tspan></text>
  <g fill="#ff4b55">
    <path d="M206 317a13 13 0 0 1-13-13 13 13 0 0 1 13-13 13 13 0 0 1 13 13 13 13 0 0 1-13 13Z"/>
    <path d="M206 292a12 12 0 1 0 0 24 12 12 0 0 0 0-24m0-2a14 14 0 0 1 14 14 14 14 0 0 1-14 14 14 14 0 0 1-14-14 14 14 0 0 1 14-14Z" fill="#fff"/>
  </g>
  <text transform="translate(206 308)" fill="#fff" font-size="12" font-family="GreycliffCF-Bold, Greycliff CF" font-weight="700"><tspan x="-3.1" y="0">7</tspan></text>
  <g fill="#ff4b55">
    <path d="M132 299a13 13 0 0 1-13-13 13 13 0 0 1 13-13 13 13 0 0 1 13 13 13 13 0 0 1-13 13Z"/>
    <path d="M132 274a12 12 0 1 0 0 24 12 12 0 0 0 0-24m0-2a14 14 0 0 1 14 14 14 14 0 0 1-14 14 14 14 0 0 1-14-14 14 14 0 0 1 14-14Z" fill="#fff"/>
  </g>
  <text transform="translate(132 290)" fill="#fff" font-size="12" font-family="GreycliffCF-Bold, Greycliff CF" font-weight="700"><tspan x="-6.1" y="0">10</tspan></text>
  <g fill="#ff4b55">
    <path d="M192 257a13 13 0 0 1-13-13 13 13 0 0 1 13-13 13 13 0 0 1 13 13 13 13 0 0 1-13 13Z"/>
    <path d="M192 232a12 12 0 1 0 0 24 12 12 0 0 0 0-24m0-2a14 14 0 0 1 14 14 14 14 0 0 1-14 14 14 14 0 0 1-14-14 14 14 0 0 1 14-14Z" fill="#fff"/>
  </g>
  <text transform="translate(192 248)" fill="#fff" font-size="12" font-family="GreycliffCF-Bold, Greycliff CF" font-weight="700"><tspan x="-5.3" y="0">17</tspan></text>
  <g fill="#ff4b55">
    <path d="M85 255a13 13 0 0 1-13-13 13 13 0 0 1 13-13 13 13 0 0 1 13 13 13 13 0 0 1-13 13Z"/>
    <path d="M85 230a12 12 0 1 0 0 24 12 12 0 0 0 0-24m0-2a14 14 0 0 1 14 14 14 14 0 0 1-14 14 14 14 0 0 1-14-14 14 14 0 0 1 14-14Z" fill="#fff"/>
  </g>
  <text transform="translate(85 246)" fill="#fff" font-size="12" font-family="GreycliffCF-Bold, Greycliff CF" font-weight="700"><tspan x="-3.5" y="0">4</tspan></text>
  <g fill="#ff4b55">
    <path d="M82 228a13 13 0 0 1-13-13 13 13 0 0 1 13-13 13 13 0 0 1 13 13 13 13 0 0 1-13 13Z"/>
    <path d="M82 203a12 12 0 1 0 0 24 12 12 0 0 0 0-24m0-2a14 14 0 0 1 14 14 14 14 0 0 1-14 14 14 14 0 0 1-14-14 14 14 0 0 1 14-14Z" fill="#fff"/>
  </g>
  <text transform="translate(82 219)" fill="#fff" font-size="12" font-family="GreycliffCF-Bold, Greycliff CF" font-weight="700"><tspan x="-3.4" y="0">9</tspan></text>
  <g fill="#ff4b55">
    <path d="M197 228a13 13 0 0 1-13-13 13 13 0 0 1 13-13 13 13 0 0 1 13 13 13 13 0 0 1-13 13Z"/>
    <path d="M197 203a12 12 0 1 0 0 24 12 12 0 0 0 0-24m0-2a14 14 0 0 1 14 14 14 14 0 0 1-14 14 14 14 0 0 1-14-14 14 14 0 0 1 14-14Z" fill="#fff"/>
  </g>
  <text transform="translate(197 219)" fill="#fff" font-size="12" font-family="GreycliffCF-Bold, Greycliff CF" font-weight="700"><tspan x="-3.2" y="0">2</tspan></text>
  <g fill="#ff4b55">
    <path d="M173 316a13 13 0 0 1-13-13 13 13 0 0 1 13-13 13 13 0 0 1 13 13 13 13 0 0 1-13 13Z"/>
    <path d="M173 291a12 12 0 1 0 0 24 12 12 0 0 0 0-24m0-2a14 14 0 0 1 14 14 14 14 0 0 1-14 14 14 14 0 0 1-14-14 14 14 0 0 1 14-14Z" fill="#fff"/>
  </g>
  <text transform="translate(173 307)" fill="#fff" font-size="12" font-family="GreycliffCF-Bold, Greycliff CF" font-weight="700"><tspan x="-3.5" y="0">4</tspan></text>
  <g fill="#ff4b55">
    <path d="M293 105a13 13 0 0 1-13-13 13 13 0 0 1 13-13 13 13 0 0 1 13 13 13 13 0 0 1-13 13Z"/>
    <path d="M293 80a12 12 0 1 0 0 24 12 12 0 0 0 0-24m0-2a14 14 0 0 1 14 14 14 14 0 0 1-14 14 14 14 0 0 1-14-14 14 14 0 0 1 14-14Z" fill="#fff"/>
  </g>
  <text transform="translate(293 96)" fill="#fff" font-size="12" font-family="GreycliffCF-Bold, Greycliff CF" font-weight="700"><tspan x="-3.5" y="0">8</tspan></text>
  <g fill="#ff4b55">
    <path d="M262 67a13 13 0 0 1-13-13 13 13 0 0 1 13-13 13 13 0 0 1 13 13 13 13 0 0 1-13 13Z"/>
    <path d="M262 42a12 12 0 1 0 0 24 12 12 0 0 0 0-24m0-2a14 14 0 0 1 14 14 14 14 0 0 1-14 14 14 14 0 0 1-14-14 14 14 0 0 1 14-14Z" fill="#fff"/>
  </g>
  <text transform="translate(262 58)" fill="#fff" font-size="12" font-family="GreycliffCF-Bold, Greycliff CF" font-weight="700"><tspan x="-3.4" y="0">6</tspan></text>
  <g fill="#ff4b55">
    <path d="M241 27a13 13 0 0 1-13-13 13 13 0 0 1 13-13 13 13 0 0 1 13 13 13 13 0 0 1-13 13Z"/>
    <path d="M241 2a12 12 0 1 0 0 24 12 12 0 0 0 0-24m0-2a14 14 0 0 1 14 14 14 14 0 0 1-14 14 14 14 0 0 1-14-14 14 14 0 0 1 14-14Z" fill="#fff"/>
  </g>
  <text transform="translate(241 18)" fill="#fff" font-size="12" font-family="GreycliffCF-Bold, Greycliff CF" font-weight="700"><tspan x="-3.1" y="0">3</tspan></text>
  <g fill="#ff4b55">
    <path d="M144 247a13 13 0 0 1-13-13 13 13 0 0 1 13-13 13 13 0 0 1 13 13 13 13 0 0 1-13 13Z"/>
    <path d="M144 222a12 12 0 1 0 0 24 12 12 0 0 0 0-24m0-2a14 14 0 0 1 14 14 14 14 0 0 1-14 14 14 14 0 0 1-14-14 14 14 0 0 1 14-14Z" fill="#fff"/>
  </g>
  <text transform="translate(144 238)" fill="#fff" font-size="12" font-family="GreycliffCF-Bold, Greycliff CF" font-weight="700"><tspan x="-3.5" y="0">4</tspan></text>
  <g fill="#ff4b55">
    <path d="M149 99a13 13 0 0 1-13-13 13 13 0 0 1 13-13 13 13 0 0 1 13 13 13 13 0 0 1-13 13Z"/>
    <path d="M149 74a12 12 0 1 0 0 24 12 12 0 0 0 0-24m0-2a14 14 0 0 1 14 14 14 14 0 0 1-14 14 14 14 0 0 1-14-14 14 14 0 0 1 14-14Z" fill="#fff"/>
  </g>
  <text transform="translate(149 90)" fill="#fff" font-size="12" font-family="GreycliffCF-Bold, Greycliff CF" font-weight="700"><tspan x="-3.4" y="0">6</tspan></text>
  <g fill="#ff4b55">
    <path d="M103 141a13 13 0 0 1-13-13 13 13 0 0 1 13-13 13 13 0 0 1 13 13 13 13 0 0 1-13 13Z"/>
    <path d="M103 116a12 12 0 1 0 0 24 12 12 0 0 0 0-24m0-2a14 14 0 0 1 14 14 14 14 0 0 1-14 14 14 14 0 0 1-14-14 14 14 0 0 1 14-14Z" fill="#fff"/>
  </g>
  <text transform="translate(103 132)" fill="#fff" font-size="12" font-family="GreycliffCF-Bold, Greycliff CF" font-weight="700"><tspan x="-3.1" y="0">3</tspan></text>
  <g fill="#ff4b55">
    <path d="M60 172a13 13 0 0 1-13-13 13 13 0 0 1 13-13 13 13 0 0 1 13 13 13 13 0 0 1-13 13Z"/>
    <path d="M60 147a12 12 0 1 0 0 24 12 12 0 0 0 0-24m0-2a14 14 0 0 1 14 14 14 14 0 0 1-14 14 14 14 0 0 1-14-14 14 14 0 0 1 14-14Z" fill="#fff"/>
  </g>
  <text transform="translate(60 163)" fill="#fff" font-size="12" font-family="GreycliffCF-Bold, Greycliff CF" font-weight="700"><tspan x="-3.1" y="0">3</tspan></text>
  <g fill="#ff4b55">
    <path d="M161 185a13 13 0 0 1-13-13 13 13 0 0 1 13-13 13 13 0 0 1 13 13 13 13 0 0 1-13 13Z"/>
    <path d="M161 160a12 12 0 1 0 0 24 12 12 0 0 0 0-24m0-2a14 14 0 0 1 14 14 14 14 0 0 1-14 14 14 14 0 0 1-14-14 14 14 0 0 1 14-14Z" fill="#fff"/>
  </g>
  <text transform="translate(161 176)" fill="#fff" font-size="12" font-family="GreycliffCF-Bold, Greycliff CF" font-weight="700"><tspan x="-3.9" y="0">0</tspan></text>
  <g fill="#ff4b55">
    <path d="M194 61a13 13 0 0 1-13-13 13 13 0 0 1 13-13 13 13 0 0 1 13 13 13 13 0 0 1-13 13Z"/>
    <path d="M194 36a12 12 0 1 0 0 24 12 12 0 0 0 0-24m0-2a14 14 0 0 1 14 14 14 14 0 0 1-14 14 14 14 0 0 1-14-14 14 14 0 0 1 14-14Z" fill="#fff"/>
  </g>
  <text transform="translate(194 52)" fill="#fff" font-size="12" font-family="GreycliffCF-Bold, Greycliff CF" font-weight="700"><tspan x="-3.5" y="0">4</tspan></text>
  <g fill="#ff4b55">
    <path d="M384 231a13 13 0 0 1-13-13 13 13 0 0 1 13-13 13 13 0 0 1 13 13 13 13 0 0 1-13 13Z"/>
    <path d="M384 206a12 12 0 1 0 0 24 12 12 0 0 0 0-24m0-2a14 14 0 0 1 14 14 14 14 0 0 1-14 14 14 14 0 0 1-14-14 14 14 0 0 1 14-14Z" fill="#fff"/>
  </g>
  <text transform="translate(384 222)" fill="#fff" font-size="12" font-family="GreycliffCF-Bold, Greycliff CF" font-weight="700"><tspan x="-3.4" y="0">9</tspan></text>
  <g fill="#ff4b55">
    <path d="M529 250a13 13 0 0 1-13-13 13 13 0 0 1 13-13 13 13 0 0 1 13 13 13 13 0 0 1-13 13Z"/>
    <path d="M529 225a12 12 0 1 0 0 24 12 12 0 0 0 0-24m0-2a14 14 0 0 1 14 14 14 14 0 0 1-14 14 14 14 0 0 1-14-14 14 14 0 0 1 14-14Z" fill="#fff"/>
  </g>
  <text transform="translate(529 241)" fill="#fff" font-size="12" font-family="GreycliffCF-Bold, Greycliff CF" font-weight="700"><tspan x="-3.1" y="0">7</tspan></text>
  <g fill="#ff4b55">
    <path d="M429 171a13 13 0 0 1-13-13 13 13 0 0 1 13-13 13 13 0 0 1 13 13 13 13 0 0 1-13 13Z"/>
    <path d="M429 146a12 12 0 1 0 0 24 12 12 0 0 0 0-24m0-2a14 14 0 0 1 14 14 14 14 0 0 1-14 14 14 14 0 0 1-14-14 14 14 0 0 1 14-14Z" fill="#fff"/>
  </g>
  <text transform="translate(429 162)" fill="#fff" font-size="12" font-family="GreycliffCF-Bold, Greycliff CF" font-weight="700"><tspan x="-3.3" y="0">5</tspan></text>
</svg>