<svg xmlns="http://www.w3.org/2000/svg" xmlns:xlink="http://www.w3.org/1999/xlink" width="600.001" height="400.003" viewBox="0 0 600.001 400.003"><defs><clipPath id="a"><path d="M228.388,189.493l-.016.011-.062.04Zm-3.217,7.24L239.727,206.8l-10.693-24.123Zm-12.724-1.5s1.773,19.4,11.528,29.672q.527.554,1.073,1.037a186.866,186.866,0,0,0-1.257-30.168l.836.58c-2.8-5.445-.851-13.564,1.6-20L221.1,164.774Z" transform="translate(-212.447 -164.774)" fill="none"/></clipPath><radialGradient id="b" cx="4.583" cy="1.057" r="6.953" gradientTransform="matrix(0, 1, 0.663, 0, -9.661, 13.167)" gradientUnits="objectBoundingBox"><stop offset="0" stop-color="#868686"/><stop offset="1" stop-color="#1d1d1b"/></radialGradient><clipPath id="c"><path d="M233.541,210.76l-.164-.042Z" transform="translate(-233.377 -210.718)" fill="none"/></clipPath><radialGradient id="d" cx="317.558" cy="-805.04" r="2644.01" gradientTransform="matrix(0.279, 0, 0, -0.785, -978.953, 16476.561)" gradientUnits="objectBoundingBox"><stop offset="0" stop-color="#f85e80"/><stop offset="0.031" stop-color="#f85e80"/><stop offset="0.452" stop-color="#f85480"/><stop offset="0.751" stop-color="#f85079"/><stop offset="1" stop-color="#f84a70"/></radialGradient><clipPath id="e"><path d="M237.564,210.7l-.179-.06Z" transform="translate(-237.385 -210.64)" fill="none"/></clipPath><radialGradient id="f" cx="413.717" cy="-1153.577" r="2050.425" gradientTransform="matrix(0.357, 0, 0, -1, -810.069, 13157.403)" xlink:href="#d"/><clipPath id="g"><path d="M222.493,185.657l-.052.077.065-.095Zm.013-.018v0Z" transform="translate(-222.441 -185.637)" fill="none"/></clipPath><radialGradient id="h" cx="1197.698" cy="-384.95" r="1292.237" gradientTransform="matrix(1.388, 0, 0, -1, 1132.322, 8843.186)" gradientUnits="objectBoundingBox"><stop offset="0" stop-color="#ffffe5"/><stop offset="0.031" stop-color="#ffffe5"/><stop offset="0.452" stop-color="#ffe5e5"/><stop offset="0.657" stop-color="#ffdede"/><stop offset="0.942" stop-color="#fcc"/><stop offset="1" stop-color="#ffc8c8"/></radialGradient><clipPath id="i"><path d="M235.225,152.445c7.28-2.86,14-5.52,19.947-7.9l-6.061-5.44Z" transform="translate(-235.225 -139.108)" fill="none"/></clipPath><radialGradient id="j" cx="3.475" cy="3.059" r="6.028" gradientTransform="matrix(0.759, 0, 0, -1, -2.457, 59.1)" gradientUnits="objectBoundingBox"><stop offset="0" stop-color="#8f86d9"/><stop offset="0.308" stop-color="#8f86d9"/><stop offset="1" stop-color="#8f72c2"/></radialGradient><clipPath id="k"><path d="M234.371,152.691l-17.344,16.661a74.9,74.9,0,0,0-1.576,11.077l4.539,5.216-.105-3.4,59.547-14.914-25.114-22.537c-5.948,2.377-12.666,5.037-19.947,7.9" transform="translate(-215.451 -144.794)" fill="none"/></clipPath><radialGradient id="l" cx="1.438" cy="0.951" r="1.948" gradientTransform="matrix(0.735, 0, 0, -1, -0.765, 19.036)" gradientUnits="objectBoundingBox"><stop offset="0" stop-color="#ffefe6"/><stop offset="0.308" stop-color="#ffefe6"/><stop offset="1" stop-color="#ffcbce"/></radialGradient><clipPath id="m"><path d="M220.65,203.112l-.011-.4-.632-.2q.309.314.644.6" transform="translate(-220.006 -202.508)" fill="none"/></clipPath><radialGradient id="n" cx="134.042" cy="-8.412" r="141.879" gradientTransform="matrix(0.956, 0, 0, -1, -12.356, 1215.476)" gradientUnits="objectBoundingBox"><stop offset="0" stop-color="#f85881"/><stop offset="0.308" stop-color="#f85881"/><stop offset="1" stop-color="#f84b74"/></radialGradient><clipPath id="o"><path d="M255.332,360.862h.006a4.423,4.423,0,0,1-.452-.156.614.614,0,0,0,.446.156" transform="translate(-254.886 -360.706)" fill="none"/></clipPath><radialGradient id="p" cx="-2.881" cy="-13.079" r="26.461" gradientTransform="matrix(0.799, 0, 0, -1, -105.09, 1504.481)" gradientUnits="objectBoundingBox"><stop offset="0" stop-color="#90aa9e"/><stop offset="0.508" stop-color="#879a8c"/><stop offset="1" stop-color="#819081"/></radialGradient><clipPath id="q"><path d="M315.98,299.858a4.117,4.117,0,0,1,.451-.162.616.616,0,0,0-.451.162" transform="translate(-315.98 -299.696)" fill="none"/></clipPath><radialGradient id="r" cx="-13.051" cy="-2.857" r="20.998" gradientTransform="matrix(0, 1, -1.258, 0, 96.39, 1532.538)" xlink:href="#p"/></defs><g transform="translate(12503.687 -2157.802)"><g transform="translate(-12503.687 2446.34)"><path d="M507.842,147.926H494.231a6.515,6.515,0,0,0-6.514,6.514v59.483a6.514,6.514,0,0,0,6.514,6.514h13.611a6.513,6.513,0,0,0,6.513-6.514V154.44a6.513,6.513,0,0,0-6.513-6.514" transform="translate(-487.717 -108.973)" fill="#774fe8"/><path d="M548.9,130.4H533.6a5.672,5.672,0,0,0-5.671,5.672v77.939a5.672,5.672,0,0,0,5.671,5.671h15.3a5.671,5.671,0,0,0,5.671-5.671V136.07A5.671,5.671,0,0,0,548.9,130.4" transform="translate(-489.453 -108.216)" fill="#774fe8"/><path d="M588.419,113.9H573.47a5.845,5.845,0,0,0-5.844,5.844v93.379a5.845,5.845,0,0,0,5.844,5.844h14.948a5.845,5.845,0,0,0,5.844-5.844V119.745a5.845,5.845,0,0,0-5.844-5.844" transform="translate(-491.168 -107.504)" fill="#774fe8"/><path d="M519.876,213.751H506.265a6.514,6.514,0,0,1-6.514-6.514V147.754a6.515,6.515,0,0,1,6.514-6.514h13.611a6.513,6.513,0,0,1,6.513,6.514v59.483a6.513,6.513,0,0,1-6.513,6.514" transform="translate(-488.237 -108.684)" fill="#ffd066"/><path d="M560.93,212.995h-15.3a5.672,5.672,0,0,1-5.671-5.671V129.384a5.672,5.672,0,0,1,5.671-5.672h15.3a5.671,5.671,0,0,1,5.671,5.672v77.939a5.671,5.671,0,0,1-5.671,5.671" transform="translate(-489.973 -107.927)" fill="#fe504f"/><path d="M600.453,212.282H585.5a5.844,5.844,0,0,1-5.843-5.844V113.059a5.845,5.845,0,0,1,5.843-5.844h14.949a5.845,5.845,0,0,1,5.844,5.844v93.379a5.845,5.845,0,0,1-5.844,5.844" transform="translate(-491.687 -107.215)" fill="#2d2d2d"/><path d="M564.721,201.317V131.194a5.41,5.41,0,0,0-5.409-5.41h-9.229a1.641,1.641,0,0,0,0,3.282h9.229a2.133,2.133,0,0,1,2.128,2.128v70.123a1.641,1.641,0,1,0,3.282,0Z" transform="translate(-490.339 -108.017)" fill="#fff"/><path d="M524.783,198.555V148.514a5.41,5.41,0,0,0-5.409-5.41h-9.229a1.641,1.641,0,0,0,0,3.282h9.229a2.133,2.133,0,0,1,2.128,2.128v50.042a1.641,1.641,0,1,0,3.282,0Z" transform="translate(-488.615 -108.765)" fill="#fff"/><path d="M604.456,185.219V115.1a5.409,5.409,0,0,0-5.41-5.41h-9.228a1.641,1.641,0,1,0,0,3.282h9.228a2.131,2.131,0,0,1,2.128,2.128v70.122a1.641,1.641,0,0,0,3.282,0" transform="translate(-492.055 -107.322)" fill="#fff"/></g><g transform="translate(-12047.883 2157.802)"><path d="M484.107,491.394a66.9,66.9,0,0,0-39.506-38.62,3.577,3.577,0,0,0-4.509,2.027l-18.26,44.52a3.589,3.589,0,0,0,3.831,4.914l55.6-7.985a3.594,3.594,0,0,0,2.84-4.857" transform="translate(-350.39 -444.887)" fill="#774fe8"/><path d="M477.921,509.618l-57.688,8.135a1.969,1.969,0,0,0-.745,3.632L472.74,553.7a1.978,1.978,0,0,0,2.823-.876,66.811,66.811,0,0,0,4.564-41.647,1.977,1.977,0,0,0-2.205-1.562" transform="translate(-350.259 -447.35)" fill="#774fe8"/><path d="M461.835,557.663l-57.111-35.037a5.08,5.08,0,0,1-2.094-6.124L421.6,466.326a5.015,5.015,0,0,0-4.255-6.786l-.066,0a64.862,64.862,0,0,0-28.38,4.151h0c-.382.147-.758.307-1.136.461-.475.193-.947.389-1.417.594-.406.177-.809.357-1.211.543-.47.215-.934.44-1.4.667-.422.207-.844.411-1.261.627q-.993.512-1.967,1.058c-.371.209-.737.425-1.1.64q-.649.38-1.288.775c-.361.223-.722.446-1.078.676-.551.356-1.094.721-1.633,1.093q-.633.436-1.254.888c-.46.334-.919.67-1.371,1.015q-.489.375-.973.761-.639.508-1.265,1.033c-.285.239-.573.474-.854.717q-.95.821-1.868,1.68c-.264.247-.521.5-.78.751q-.617.6-1.218,1.207c-.264.269-.528.539-.787.812q-.712.749-1.4,1.521c-.225.254-.45.506-.672.763q-.741.86-1.452,1.744c-.218.272-.432.546-.646.822q-.573.735-1.122,1.486c-.188.257-.38.513-.565.773q-.769,1.081-1.5,2.193c-.143.219-.277.444-.418.664q-.55.867-1.073,1.752c-.165.278-.328.558-.488.839q-.551.963-1.068,1.949c-.093.177-.191.35-.283.528q-.627,1.223-1.2,2.477c-.12.259-.233.521-.349.782q-.428.959-.824,1.935c-.107.262-.216.524-.32.788-.342.874-.67,1.754-.975,2.647-.047.135-.087.273-.132.408q-.393,1.171-.74,2.363c-.082.278-.161.559-.239.84q-.31,1.118-.583,2.252c-.049.2-.1.4-.149.608q-.323,1.412-.586,2.848c-.043.236-.079.474-.121.711q-.2,1.14-.352,2.294c-.038.279-.077.559-.111.84-.121.988-.228,1.981-.3,2.983A65.12,65.12,0,0,0,463.19,565.107a5.058,5.058,0,0,0-1.355-7.444" transform="translate(-347.178 -445.18)" fill="#774fe8"/><path d="M455.3,444.751A66.9,66.9,0,0,1,494.8,483.371a3.593,3.593,0,0,1-2.839,4.856l-55.605,7.987a3.591,3.591,0,0,1-3.831-4.916l18.261-44.519a3.578,3.578,0,0,1,4.509-2.028" transform="translate(-350.852 -444.541)" fill="#2d2d2d"/><path d="M430.93,509.731l57.688-8.135a1.977,1.977,0,0,1,2.205,1.563,66.824,66.824,0,0,1-4.565,41.647,1.977,1.977,0,0,1-2.822.876l-53.254-32.319a1.969,1.969,0,0,1,.746-3.632" transform="translate(-350.721 -447.004)" fill="#fe504f"/><path d="M427.98,451.513l.066,0A5.014,5.014,0,0,1,432.3,458.3l-18.973,50.176a5.08,5.08,0,0,0,2.094,6.125l57.111,35.037a5.057,5.057,0,0,1,1.354,7.444A65.123,65.123,0,1,1,427.98,451.513" transform="translate(-347.64 -444.834)" fill="#ffd066"/><path d="M472.532,549.837l-1.57-.963c-.6.615-1.206,1.226-1.843,1.819A61.456,61.456,0,0,1,427,568.138c-16.138,0-30.463-6.747-42.116-17.445-11.7-10.736-16.756-26.713-17.446-42.117a44.86,44.86,0,0,1,5.129-22.947,44.632,44.632,0,0,1,12.316-19.169,58.716,58.716,0,0,1,14.714-10.6,65.128,65.128,0,1,0,74.287,101.421,5.058,5.058,0,0,0-1.355-7.444" transform="translate(-347.64 -445.03)" fill="#ffb166"/><path d="M458.714,453.041l.01,0a78.213,78.213,0,0,1,12.019,7.494,61.307,61.307,0,0,1,9.155,8.381,34.769,34.769,0,0,1,6.647,10.751,1.575,1.575,0,0,0,2.958-1.084,38.066,38.066,0,0,0-7.378-11.9,70.862,70.862,0,0,0-14.448-12.124,73.993,73.993,0,0,0-7.612-4.363,1.575,1.575,0,0,0-1.351,2.846" transform="translate(-351.955 -444.778)" fill="#fff"/><path d="M488.128,508.664a72.123,72.123,0,0,1,.809,10.453c0,6.06-.925,12.471-3.662,17.812a1.575,1.575,0,1,0,2.805,1.434c3.06-6,4-12.876,4.006-19.246a75.1,75.1,0,0,0-.843-10.914,1.575,1.575,0,0,0-3.116.461" transform="translate(-353.134 -447.232)" fill="#fff"/></g><g transform="translate(0 2)"><path d="M34.369,423.817H375.1a29.324,29.324,0,0,0,29.325-29.325V167.34A29.324,29.324,0,0,0,375.1,138.015H34.369A29.325,29.325,0,0,0,5.044,167.34V394.493a29.325,29.325,0,0,0,29.325,29.325" transform="translate(-12412.35 2108.018)" fill="#774fe8"/><path d="M402.841,388.508H62.112a29.325,29.325,0,0,1-29.325-29.325V132.031a29.325,29.325,0,0,1,29.325-29.325H402.841a29.325,29.325,0,0,1,29.326,29.325V359.184a29.325,29.325,0,0,1-29.326,29.325" transform="translate(-12413.548 2109.543)" fill="#ffd066"/><path d="M432.166,132.03a29.325,29.325,0,0,0-29.326-29.325H62.112A29.325,29.325,0,0,0,32.787,132.03V144.6H432.166Z" transform="translate(-12413.548 2109.543)" fill="#fe504f"/><path d="M402.664,388.331v-3.918H61.935a25.409,25.409,0,0,1-25.407-25.406V131.854a25.407,25.407,0,0,1,25.407-25.406H402.664a25.407,25.407,0,0,1,25.407,25.406V359.007a25.409,25.409,0,0,1-25.407,25.406v7.835a33.243,33.243,0,0,0,33.243-33.242V131.854a33.243,33.243,0,0,0-33.243-33.243H61.935a33.243,33.243,0,0,0-33.243,33.243V359.007a33.243,33.243,0,0,0,33.243,33.242H402.664Z" transform="translate(-12413.371 2109.719)" fill="#2d2d2d"/><path d="M423.37,127.265a5.586,5.586,0,1,1-5.587-5.586,5.586,5.586,0,0,1,5.587,5.586" transform="translate(-12429.932 2108.723)" fill="#fff"/><path d="M404.261,127.265a5.586,5.586,0,1,1-5.586-5.586,5.585,5.585,0,0,1,5.586,5.586" transform="translate(-12429.106 2108.723)" fill="#fff"/><path d="M385.153,127.265a5.586,5.586,0,1,1-5.586-5.586,5.585,5.585,0,0,1,5.586,5.586" transform="translate(-12428.281 2108.723)" fill="#fff"/><g transform="translate(-12208.859 2271.636)"><g transform="translate(0 0)" clip-path="url(#a)"><rect width="66.494" height="44.089" transform="translate(-17.22 55.864) rotate(-72.868)" fill="url(#b)"/></g></g><path d="M281.367,261.351c-35.9-20.42-24.374-44.309-24.374-44.309l-37.066-19.605c15.636,66.913-10.369,62.407-6.695,79.422,11.14,30.012,50.124,67.216,67.766,57.232,10.027-5.675,81.82-58.641.369-72.739" transform="translate(-12421.325 2105.452)" fill="#ffa3a3"/><path d="M262.253,245.18c-11.244-15.069-4.942-28.138-4.942-28.138l-37.066-19.605c3.664,15.678,18.282,60.714,36.819,60.07,6.223-.216,4.168-9.962,5.189-12.327" transform="translate(-12421.644 2105.452)" fill="#f85e8f"/><path d="M343.78,391.454h65.96s-54.191-80.714-63.916-96.665c-12.227-20.052-54.666-26.145-54.666-26.145l30.6,102.3a272.118,272.118,0,0,1,22.025,20.509" transform="translate(-12424.705 2102.377)" fill="#fe504f"/><path d="M303.7,294.521q-3.582-4.4-7.373-8.612l25.656,85.782A272.118,272.118,0,0,1,344,392.2h13.675s-.1-99.544-53.983-97.679" transform="translate(-12424.928 2101.631)" fill="#e3364f"/><path d="M236.282,281.547h0Zm-.035-.031.009.009-.009-.009m-.037-.033.015.014-.015-.014m-.037-.031.019.014-.019-.014m-.036-.033.02.017-.02-.017m-.05-.044.035.031-.035-.031" transform="translate(-12422.326 2101.827)" fill="#fbe3e9"/><path d="M308.124,275.571s-10.509-10.81-33.613-12.754l-6.171,37.411-56.3-36.592c-34.9,1.688-55.355,26.582-55.355,26.582s-53.722,74.843-62.147,88.029c-21.412,33.513-7.79,79.724,44.221,67.959l39.17-53.111,160.354-1.862c-2.413-59.756-30.165-115.662-30.165-115.662" transform="translate(-12415.795 2102.629)" fill="#fe504f"/><path d="M124.953,431.67c2.75-6.524,50.138-35.175,50.138-35.175l47.234-1.983c-4.776-33.34-14.367-73.431-42.418-96.071l2.793,32.816-19.783,29.79L105.2,379.2l19.089,53.635s.441-.779.666-1.166" transform="translate(-12416.675 2101.09)" fill="#e3364f"/><g transform="translate(-12188.832 2315.596)"><g transform="translate(0 0)" clip-path="url(#c)"><rect width="0.165" height="0.046" transform="translate(-0.001 0) rotate(-1.312)" fill="url(#d)"/></g></g><g transform="translate(-12184.997 2315.522)"><g transform="translate(0)" clip-path="url(#e)"><rect width="0.18" height="0.064" transform="translate(-0.001 0) rotate(-1.309)" fill="url(#f)"/></g></g><g transform="translate(-12199.296 2291.599)"><g transform="translate(0 0)" clip-path="url(#g)"><rect width="0.073" height="0.101" transform="translate(-0.007 0) rotate(-4.18)" fill="url(#h)"/></g></g><g transform="translate(-12187.064 2247.079)"><g transform="translate(0 0)" clip-path="url(#i)"><rect width="22.017" height="16.701" transform="matrix(0.984, -0.179, 0.179, 0.984, -2.355, 0.43)" fill="url(#j)"/></g></g><g transform="translate(-12205.985 2252.519)"><g transform="translate(0 0)" clip-path="url(#k)"><rect width="70.273" height="51.671" transform="matrix(0.984, -0.179, 0.179, 0.984, -7.213, 1.316)" fill="url(#l)"/></g></g><g transform="translate(-12201.626 2307.741)"><g transform="translate(0 0)" clip-path="url(#m)"><rect width="0.742" height="0.71" transform="matrix(0.984, -0.179, 0.179, 0.984, -0.107, 0.019)" fill="url(#n)"/></g></g><path d="M264.587,140.359c-84.671-8.968-48.178,75.281-43.714,64.59,1.049,14.815,13.245,29.908,28.263,34.739,28.783,9.259,39.2-29,39.2-29s.3-12.879,1.531-20.639c4.576-28.831,3.08-47.1-25.285-49.688" transform="translate(-12421.168 2107.946)" fill="#ffa3a3"/><path d="M291.693,190.441c3-18.89,3.387-33.244-4.677-41.625-2.225,8.841-6.33,24.034-22.277,28.786,3.526,8.3,7.164,23.613,7.164,23.613,17.311-1.368,1.719,11.74,1.719,11.74s-38.89,28.1-13.733,28.918,30.273-30.793,30.273-30.793.3-12.879,1.531-20.639" transform="translate(-12422.988 2107.552)" fill="#fcc8ba"/><path d="M268.951,117.015c-10.474,1.344-14.776,11.974-30.64,16.884,0,0-37.438-5.972-29.264,24,0,0-16.843,12.658,2.186,33.5,0,0,3.69-34.479,10.081,4.691l2.205.323c2.709-2.57-.56-6.857.738-9.509,5.888-12.031,4.507-22.039,4.507-22.039,1.695,1.714,18.638,9.93,27.115,9.029,4.513-.479-.9-8.477-.9-8.477,4.515,1.106,16.843,4.674,22.725,4.271a10.3,10.3,0,0,0,8.3-5.584l7.261,7.928c13.9-11.444.308-12.254,1.183-13.246,15.78-17.894-4.911-20.256-4.911-20.256s2.411-24.47-20.588-21.519" transform="translate(-12420.862 2108.935)" fill="#2d2d2d"/><path d="M259.564,294l.014,0Z" transform="translate(-12423.34 2101.282)" fill="#ffcd91"/><g transform="translate(-12168.252 2459.107)"><g transform="translate(0 0)" clip-path="url(#o)"><rect width="0.465" height="0.372" transform="translate(-0.07 0.044) rotate(-32.099)" fill="url(#p)"/></g></g><g transform="translate(-12109.797 2400.732)"><g transform="translate(0 0)" clip-path="url(#q)"><rect width="0.373" height="0.469" transform="matrix(0.521, -0.854, 0.854, 0.521, -0.072, 0.118)" fill="url(#r)"/></g></g><path d="M267.162,188.333l4.068,16.121,1.045-.031h0a13.312,13.312,0,0,1,1.727.1,8.094,8.094,0,0,1,3.066.9,2.262,2.262,0,0,1,.828.789,1.778,1.778,0,0,1,.186,1.141,6.6,6.6,0,0,1-1.134,2.661,26.122,26.122,0,0,1-3.636,4.267,1.3,1.3,0,0,0,1.828,1.858,28.706,28.706,0,0,0,4-4.712,9.1,9.1,0,0,0,1.532-3.766,4.406,4.406,0,0,0-.5-2.732,4.6,4.6,0,0,0-1.251-1.4,7.461,7.461,0,0,0-2.335-1.132,13.283,13.283,0,0,0-2.269-.459,15.707,15.707,0,0,0-2.113-.115l.037,1.3,1.264-.319-3.812-15.108a1.3,1.3,0,1,0-2.527.638" transform="translate(-12423.667 2105.915)" fill="#2d2d2d"/><path d="M259.07,191.431c-.3,2.547-2.017,4.437-3.828,4.221s-3.033-2.455-2.73-5,2.018-4.436,3.828-4.221,3.033,2.455,2.73,5" transform="translate(-12423.034 2105.928)" fill="#2d2d2d"/><path d="M283.829,193.294c-.3,2.547-2.017,4.437-3.828,4.221s-3.033-2.456-2.73-5,2.018-4.436,3.828-4.221,3.033,2.455,2.73,5" transform="translate(-12424.103 2105.848)" fill="#2d2d2d"/><path d="M253.1,221.949a11.734,11.734,0,0,0,1.707,3.056,10.105,10.105,0,0,0,2.379,2.258,8.337,8.337,0,0,0,3.681,1.363,11.2,11.2,0,0,0,5.886-1.062,1.3,1.3,0,1,0-1.054-2.382,8.628,8.628,0,0,1-4.525.856,5.736,5.736,0,0,1-2.541-.942,8.123,8.123,0,0,1-2.36-2.559,9.61,9.61,0,0,1-.552-1.053c-.058-.131-.1-.233-.125-.3l-.027-.07,0-.012-.351.123.352-.121v0l-.351.123.352-.121a1.3,1.3,0,1,0-2.465.845" transform="translate(-12423.059 2104.468)" fill="#2d2d2d"/><path d="M184.387,311.451l.017.04a102.08,102.08,0,0,1,7.411,37.68,75.16,75.16,0,0,1-9.082,36.84,1.3,1.3,0,1,0,2.278,1.266,77.784,77.784,0,0,0,9.409-38.106,104.27,104.27,0,0,0-7.656-38.787,1.3,1.3,0,1,0-2.377,1.067" transform="translate(-12420.017 2100.608)" fill="#2d2d2d"/><path d="M112.4,386.509a33.015,33.015,0,0,1,14.121,5.535,35.01,35.01,0,0,1,11.053,13.085,38.183,38.183,0,0,1,2.138,5.18c.211.647.358,1.164.451,1.513.046.175.078.308.1.394l.022.1.006.023a1.3,1.3,0,1,0,2.549-.542,39.159,39.159,0,0,0-5.662-12.494,36.176,36.176,0,0,0-9.162-9.39,35.633,35.633,0,0,0-15.219-5.976,1.3,1.3,0,0,0-.4,2.576" transform="translate(-12416.938 2097.399)" fill="#2d2d2d"/><path d="M230.029,311.512l19.731-13.288,23.758,2.013-56.3-31.968a10.679,10.679,0,0,0,4.026-10.067s-10.469,2.014-11.274,11.275,20.055,42.035,20.055,42.035" transform="translate(-12421.199 2102.828)" fill="#e3364f"/><path d="M233.338,304.455l16.107-13.691,24.387,9.053-51.127-46.5s-9.9,2.013-10.71,11.274,21.342,39.865,21.342,39.865" transform="translate(-12421.286 2103.039)" fill="#fe504f"/><path d="M298.32,285.639l-21.544,14.295-2.617-42.08-7.384-6.678s9.973.691,17.249,6.476,14.295,27.987,14.295,27.987" transform="translate(-12423.651 2103.131)" fill="#fe504f"/><path d="M210.82,265.148a35.856,35.856,0,0,0,5,14.185c4.238,6.861,16.516,26.183,16.518,26.186l.689,1.084,18.906-15.72a1.13,1.13,0,0,0-1.444-1.738l-17.919,14.9.722.869.953-.606s-.191-.3-.536-.844c-2.407-3.791-12.275-19.342-15.966-25.318a34.1,34.1,0,0,1-3.87-9.108c-.329-1.243-.53-2.277-.648-2.995-.058-.359-.1-.638-.12-.825-.011-.094-.019-.164-.024-.209l0-.049v-.011a1.13,1.13,0,0,0-2.251.2" transform="translate(-12421.236 2102.581)" fill="#2d2d2d"/><path d="M285.947,284.371l-10.966,17.571L251.1,291.849a1.129,1.129,0,1,0-.878,2.08l25.652,10.846,11.985-19.208a1.129,1.129,0,1,0-1.916-1.2" transform="translate(-12422.907 2101.721)" fill="#2d2d2d"/><path d="M285.5,290.127l15.277,3.294-.229-1.6a80.9,80.9,0,0,0-1.8-8.394,74.868,74.868,0,0,0-6.636-17.025,1.129,1.129,0,1,0-1.971,1.1,72.679,72.679,0,0,1,6.422,16.5c.633,2.392,1.071,4.434,1.349,5.873.139.72.238,1.289.3,1.677.033.193.055.342.071.44l.017.111,0,.033,1.119-.16.238-1.1-13.691-2.953a1.13,1.13,0,0,0-.477,2.208" transform="translate(-12424.422 2102.499)" fill="#2d2d2d"/><path d="M229.2,356.365c-1.862-6.207-3.1-.62-9.309-3.413-4.617-2.078-11.8,4.6-15.187,8.155q-.606,0-1.261.068l-98.215,19.9c-37.158,15.8-23.74,92.164,32.118,72.614,3.964-1.388,57.511-54.376,72.518-69.277,31.119,9.978,21.142-22.024,19.335-28.044" transform="translate(-12415.774 2098.753)" fill="#ffa3a3"/><path d="M232.077,367.576a72.234,72.234,0,0,0-2.585-11.21c-1.862-6.207-3.1-.621-9.309-3.413-4.617-2.078-11.8,4.6-15.187,8.155q-.606,0-1.261.068l-98.215,19.9a31.959,31.959,0,0,0-14.453,12.321c37.364-6.785,112.388-19.007,112.388-19.007,14.865-28.379,19.141-4.25,28.622-6.811" transform="translate(-12416.064 2098.753)" fill="#fcc8ba"/><path d="M327.6,299.418l.1-.092-.1.092.1-.092-.1.092c.135.163,20.659,23.758,26.232,91.769a1.27,1.27,0,0,0,2.531-.208c-5.644-69-26.669-93.034-26.858-93.24a1.269,1.269,0,0,0-1.905,1.678Z" transform="translate(-12426.265 2101.139)" fill="#2d2d2d"/><path d="M161.793,370.383l-56.564,11.46c-37.158,15.8-23.74,92.164,32.117,72.615,2.462-.862,24.038-21.616,43.636-40.8-7.254-14.022-14.07-28.243-19.189-43.279" transform="translate(-12415.774 2097.984)" fill="#fe504f"/><path d="M158.77,408.17c-13.722,7.188-27.613,14.065-40.3,23.03-11.129,7.864-26.481,2.191-33.89-7.74,2.247,22.67,20.365,43.615,52.773,32.272,2.462-.86,24.038-21.615,43.635-40.795-2.569-4.965-5.077-9.959-7.479-15-4.813,2.876-9.731,5.607-14.744,8.232" transform="translate(-12415.785 2096.707)" fill="#e3364f"/><path d="M469.862,267.093c-.058-.133-.12-.269-.181-.4,1.9-.8,4.62-1.5,7.011-.433,4.207,1.873,5.162-2.072,5.162-2.072-1.914-7.864-10.336-7.063-15.56-5.735a7.993,7.993,0,0,1,5.251-1.508c4.573.542,4.316-3.509,4.316-3.509-4.145-6.921-11.913-3.7-16.515-.894-.112-.072-.223-.145-.335-.212a7.3,7.3,0,0,1,3.512-2.476c4.418-1.3,2.591-4.922,2.591-4.922-5.757-4.176-11.008,0-14.314,4.057.333.345-3.909,2.839-4.365,3.205-.5.3-.974.6-1.385.872l-.219.107c-.677-5.2-2.9-9.884-7.241-11.014,0,0-3.959.892-2.155,5.128s1.433,3.982-1.856,9.4.855,13.1.524,13.389l-67.562,76.6,1.745,40.109a142.343,142.343,0,0,0,35.659-9.139l10.256,9.651s35.526-83.866,38.626-102.035c5.3-1.695,21.212-11.72,23.413-9.875,3.529,2.958,6.435-.7,6.435-.7.7-6.937-8.269-7.807-12.814-7.585" transform="translate(-12427.96 2103.521)" fill="#ffa3a3"/><path d="M485.915,269.646a8.027,8.027,0,0,0-2.274-1.893,4.055,4.055,0,0,0,.682-.316,4.688,4.688,0,0,0,1.709-1.855,5.123,5.123,0,0,0,.439-1.11,1.28,1.28,0,0,0,0-.6,10.346,10.346,0,0,0-1.628-3.647,8.843,8.843,0,0,0-4.119-3.1,11.232,11.232,0,0,0-1.329-.4l.164-.177a4.719,4.719,0,0,0,.816-1.791,5.59,5.59,0,0,0,.142-1.216c0-.095,0-.155,0-.172a1.278,1.278,0,0,0-.179-.594,9.8,9.8,0,0,0-3.7-3.689,9.224,9.224,0,0,0-4.451-1.075,13,13,0,0,0-2.376.246,4.306,4.306,0,0,0,.338-1.658,5.323,5.323,0,0,0-.51-2.248,1.292,1.292,0,0,0-.388-.456,9.526,9.526,0,0,0-5.653-1.974,10.571,10.571,0,0,0-5.959,2.043,21.713,21.713,0,0,0-4.431,4.214,1.229,1.229,0,0,0-.166.3l-.113.095c-.444.362-1.325.947-2.11,1.45-.394.254-.769.491-1.074.685-.152.1-.286.185-.4.26-.083.056-.152.1-.223.156l-.187.115a1.269,1.269,0,1,0,1.327,2.164l.222-.136.138-.1h0c.038-.028.159-.109.312-.208.546-.355,1.55-.978,2.427-1.572.442-.3.852-.59,1.189-.864a4.449,4.449,0,0,0,.475-.439,2.064,2.064,0,0,0,.242-.322,2.181,2.181,0,0,0,.107-.22,18.948,18.948,0,0,1,3.7-3.491,8.073,8.073,0,0,1,4.523-1.6,6.84,6.84,0,0,1,3.872,1.3,2.886,2.886,0,0,1,.14.844,1.624,1.624,0,0,1-.32,1.015,3.182,3.182,0,0,1-1.734,1.013,8.557,8.557,0,0,0-4.133,2.885,1.269,1.269,0,0,0,.323,1.9c.08.049.181.115.3.193a1.271,1.271,0,0,0,1.349.016,25.933,25.933,0,0,1,4.219-2.11,13.107,13.107,0,0,1,4.57-.957,6.683,6.683,0,0,1,3.24.767,7.063,7.063,0,0,1,2.545,2.463,2.65,2.65,0,0,1-.319,1.069,1.548,1.548,0,0,1-.584.579,2.65,2.65,0,0,1-1.331.288,5.534,5.534,0,0,1-.654-.041,7.351,7.351,0,0,0-.852-.05,9.684,9.684,0,0,0-5.246,1.759,1.27,1.27,0,0,0,1.011,2.291,24.344,24.344,0,0,1,5.826-.814,10.066,10.066,0,0,1,5.133,1.182,6.057,6.057,0,0,1,1.835,1.675,7.623,7.623,0,0,1,1.121,2.425,2.772,2.772,0,0,1-.408.7,1.81,1.81,0,0,1-.54.457,1.656,1.656,0,0,1-.807.188,3.9,3.9,0,0,1-1.562-.394,7.836,7.836,0,0,0-3.206-.652,12.694,12.694,0,0,0-4.812,1.073,1.27,1.27,0,0,0-.667,1.691c.062.138.122.271.178.4a1.27,1.27,0,0,0,1.225.755c.366-.018.765-.029,1.186-.029a18.77,18.77,0,0,1,7.009,1.192,6.193,6.193,0,0,1,2.432,1.721,4.093,4.093,0,0,1,.892,2.679l-.011.225a4.638,4.638,0,0,1-.957.72,2.9,2.9,0,0,1-1.4.4,3.1,3.1,0,0,1-2.021-.858,2.169,2.169,0,0,0-.833-.424,3.071,3.071,0,0,0-.809-.1,8.036,8.036,0,0,0-2.285.426,40.6,40.6,0,0,0-5.064,2.1c-2.824,1.343-5.981,3.019-8.823,4.482-1.42.73-2.76,1.407-3.93,1.959a25.842,25.842,0,0,1-2.871,1.2,1.269,1.269,0,0,0-.864,1,61.375,61.375,0,0,1-2.021,7.294c-1.486,4.585-3.484,10.067-5.108,14.393-.811,2.164-1.53,4.04-2.046,5.374-.257.668-.465,1.2-.607,1.564s-.22.562-.22.562a1.27,1.27,0,0,0,2.362.931c0-.007,2.232-5.672,4.611-12.2,1.189-3.263,2.416-6.742,3.423-9.843.88-2.72,1.59-5.129,1.966-6.92,1.247-.471,2.758-1.184,4.477-2.043,3.078-1.542,6.722-3.507,9.945-5.075,1.609-.784,3.114-1.467,4.365-1.942a16.548,16.548,0,0,1,1.651-.544,4.43,4.43,0,0,1,1.038-.171l.108,0a5.614,5.614,0,0,0,3.555,1.375,5.217,5.217,0,0,0,1.928-.38,6.752,6.752,0,0,0,1.93-1.207,6.384,6.384,0,0,0,.735-.751,1.283,1.283,0,0,0,.268-.662,8.693,8.693,0,0,0,.046-.881,6.659,6.659,0,0,0-1.452-4.269" transform="translate(-12431.343 2103.531)" fill="#2d2d2d"/><path d="M435.3,264.542c0-4.642,2.836-7.139,3.641-10.457s-3.922-8.144-2.341-11.5c-1.034.588-2.351,1.923-1.16,4.717,1.8,4.236,1.432,3.982-1.857,9.4s.855,13.1.525,13.389l-67.562,76.193,2.412,38.61s23.858-31.391,35.322-48.028c12.281-17.82,22.624-36.889,31.92-56.41a9.78,9.78,0,0,1,2.944-3.574c-.256-1.3,7.8,5.567,7.74,4.246-2.068-2.239-11.584-13.384-11.584-16.59" transform="translate(-12427.96 2103.502)" fill="#fcc8ba"/><path d="M408.8,299.646l-42.678,50.715,1.006,42.633h45.85s20.249-42.606,31.551-74.377c-11.932-6.3-23.914-12.511-35.728-18.971" transform="translate(-12427.942 2101.038)" fill="#fe504f"/><path d="M426.046,309.232l-56.982,83.773,44.04.4s20.249-42.606,31.551-74.377q-9.3-4.911-18.609-9.8" transform="translate(-12428.069 2100.625)" fill="#e3364f"/><path d="M364.513,353.082l44.37-52.69,34.328,19.2a1.269,1.269,0,0,0,1.239-2.216l-36.158-20.219-45.721,54.295a1.269,1.269,0,0,0,1.942,1.635Z" transform="translate(-12427.775 2101.146)" fill="#2d2d2d"/><path d="M455.655,253.868s11.865,6.636,13.474,16.692c.4-5.43,2.011-10.86-13.474-16.692" transform="translate(-12431.809 2103.015)" fill="#fcc8ba"/><path d="M113.7,382.142l48.551-10.368,18.772,42.337a1.269,1.269,0,1,0,2.321-1.029L163.737,368.86l-50.567,10.8a1.27,1.27,0,1,0,.531,2.483" transform="translate(-12416.976 2098.049)" fill="#2d2d2d"/><path d="M264.389,124.581l.021-.012a32.852,32.852,0,0,1,5.67-2.418c3.091-.993,6.922-1.639,10.093-.65a8.679,8.679,0,0,1,4.6,3.311,16.519,16.519,0,0,1,2.656,7.944.9.9,0,1,0,1.783-.2,18.268,18.268,0,0,0-2.984-8.8,10.5,10.5,0,0,0-5.526-3.974c-3.892-1.186-8.164-.331-11.482.757a34,34,0,0,0-5.727,2.482.9.9,0,0,0,.895,1.556Z" transform="translate(-12423.49 2108.83)" fill="#fff"/><path d="M288.339,141.856a39.75,39.75,0,0,1,7.283,1.214,7.709,7.709,0,0,1,3.885,2.292,3.653,3.653,0,0,1,.749,1.782,6.061,6.061,0,0,1-.291,2.6A16.191,16.191,0,0,1,298,153.694a.9.9,0,1,0,1.5.98,17.935,17.935,0,0,0,2.177-4.4,7.818,7.818,0,0,0,.354-3.376,5.642,5.642,0,0,0-2.079-3.63,11.038,11.038,0,0,0-3.8-1.913,41.169,41.169,0,0,0-7.62-1.283.9.9,0,1,0-.191,1.784Z" transform="translate(-12424.548 2107.929)" fill="#fff"/><path d="M166.508,108.984A38.913,38.913,0,0,0,127.6,70.071H38.912a38.913,38.913,0,0,0,0,77.826h73.843l45.609,19.909-14.479-23.483a38.911,38.911,0,0,0,22.623-35.338" transform="translate(-12412.132 2110.952)" fill="#2d2d2d"/><path d="M48.613,111.776a6.485,6.485,0,1,0,6.485-6.485,6.486,6.486,0,0,0-6.485,6.485" transform="translate(-12414.231 2109.431)" fill="#fff"/><path d="M79.643,111.776a6.485,6.485,0,1,0,6.485-6.485,6.486,6.486,0,0,0-6.485,6.485" transform="translate(-12415.571 2109.431)" fill="#fff"/><path d="M110.673,111.776a6.485,6.485,0,1,0,6.485-6.485,6.486,6.486,0,0,0-6.485,6.485" transform="translate(-12416.911 2109.431)" fill="#fff"/></g></g></svg>