<svg xmlns="http://www.w3.org/2000/svg" xmlns:xlink="http://www.w3.org/1999/xlink" width="128" height="104" viewBox="0 0 128 104"><defs><clipPath id="a"><rect width="128" height="104" transform="translate(-10080 2342)" fill="#fff" opacity="0"/></clipPath></defs><g transform="translate(10080 -2342)"><g clip-path="url(#a)"><g transform="translate(-10078.083 2342)"><path d="M114.311,102h-1.854l-.882-7.15h2.736Z" fill="#9e616a"/><path d="M143.425,119.837h-5.977v-.076a2.327,2.327,0,0,1,2.326-2.326h3.651Z" transform="translate(-28.641 -16.043)" fill="#2f2e41"/><path d="M107.2,102h-1.854l-.882-7.15H107.2Z" fill="#9e616a"/><path d="M136.318,119.837h-5.977v-.076a2.327,2.327,0,0,1,2.326-2.326h3.651Z" transform="translate(-28.641 -16.043)" fill="#2f2e41"/><path d="M55.757,119.56V62.131A1.334,1.334,0,0,1,57.091,60.8h5.951a1.334,1.334,0,0,1,1.334,1.334h0V119.71Z" transform="translate(-28.641 -16.043)" fill="#3f3d56"/><path d="M75.414,119.74V74.076a1.334,1.334,0,0,1,1.334-1.334H82.7a1.334,1.334,0,0,1,1.334,1.334h0v45.566Z" transform="translate(-28.641 -16.043)" fill="#3f3d56"/><path d="M40.485,65.487a.454.454,0,0,1-.338-.756l19.9-22.2,19.584,11,19.7-33.945L119.4,36.105a.454.454,0,0,1-.577.7L99.58,20.966,79.967,54.761,60.237,43.682,40.823,65.336A.452.452,0,0,1,40.485,65.487Z" transform="translate(-28.641 -16.043)" fill="#3f3d56"/><circle cx="4.234" cy="4.234" r="4.234" transform="translate(7.535 44.757)" fill="#ea5e66"/><circle cx="4.234" cy="4.234" r="4.234" transform="translate(27.192 22.832)" fill="#ccc"/><circle cx="4.234" cy="4.234" r="4.234" transform="translate(46.849 33.87)" fill="#e6e6e6"/><circle cx="4.234" cy="4.234" r="4.234" transform="translate(66.505)" fill="#ea5e66"/><circle cx="4.234" cy="4.234" r="4.234" transform="translate(104.307 31.532)" fill="#ea5e66"/><path d="M135.685,84.79c1.585.191,5.637-1.255,5.856.944,2.086,6.14,2.024,29.675,2.024,29.675l-3.175.151s-2.537-18.7-3.737-22.7c-.6,4.863-.5,23.457-.5,23.457l-2.873.151s-2.577-15.834-2.592-20.481c-.313-3.4.455-8.449.126-11.74a12.583,12.583,0,0,0,4.867.543Z" transform="translate(-28.641 -16.043)" fill="#3f3d56"/><path d="M114.727,119.537V53.346a1.446,1.446,0,0,1,1.334-1.537h5.951a1.446,1.446,0,0,1,1.334,1.537V119.71Z" transform="translate(-28.641 -16.043)" fill="#3f3d56"/><path d="M130.294,66.978a19.755,19.755,0,0,0-2.315-3.655,5.8,5.8,0,0,1-.514-.7,9.735,9.735,0,0,1-.628-1.843c-.575-1.73-2.008-3.119-2.357-4.908-.127-.65-1.2,1.24-.918,2.046.5,1.459.569,3,1.21,4.414s1.394,2.761,1.948,4.2a14.49,14.49,0,0,0,1.027,2.419,2.978,2.978,0,0,0,2.05,1.5,5.058,5.058,0,0,1,.246-1.615C130.232,68.243,130.568,67.542,130.294,66.978Z" transform="translate(-28.641 -16.043)" fill="#9e616a"/><path d="M139.807,67.957a8.355,8.355,0,0,1,.491-3.142,3.257,3.257,0,0,0,.289-1.187,2.911,2.911,0,0,0-.366-1.075,27.574,27.574,0,0,1-1.361-3.7l-.756-2.366c-.246-.181,1.193-.243,1.5.181a36.75,36.75,0,0,1,2.56,4.518,7.649,7.649,0,0,1,.517,1.133,6.228,6.228,0,0,1,.272,1.957,27.152,27.152,0,0,1-.333,3.7,3.309,3.309,0,0,1-.83,2.117A11.985,11.985,0,0,0,139.807,67.957Z" transform="translate(-28.641 -16.043)" fill="#9e616a"/><circle cx="3.138" cy="3.138" r="3.138" transform="translate(104.03 44.414)" fill="#9e616a"/><path d="M133.258,60.465a.545.545,0,0,1,.115-.563c.078-.062.182-.085.266-.144a1.149,1.149,0,0,0,.287-.363,1.56,1.56,0,0,1,1.952-.5c.518.271.832.815,1.293,1.181.234.19.506.33.741.52a3.046,3.046,0,0,1,.961,1.554,8.818,8.818,0,0,1,.266,1.833,1.648,1.648,0,0,1-.021.557,1.56,1.56,0,0,1-.211.431,4.8,4.8,0,0,1-1.882,1.741,2.907,2.907,0,0,1-2.507.043.431.431,0,0,1-.192-.154.553.553,0,0,1-.03-.332,2.271,2.271,0,0,0-.25-1.271c-.144-.287-.359-.534-.474-.832a2.9,2.9,0,0,1-.135-1.031A11.2,11.2,0,0,0,133.258,60.465Z" transform="translate(-28.641 -16.043)" fill="#2d293d"/><path d="M36.1,119.627V87.671c0-.41.6-.742,1.334-.742h5.951c.737,0,1.334.333,1.334.742V119.71Z" transform="translate(-28.641 -16.043)" fill="#3f3d56"/><path d="M152.656,120.043H28.792a.151.151,0,1,1,0-.3H152.655a.151.151,0,0,1,0,.3Z" transform="translate(-28.641 -16.043)" fill="#e6e6e6"/><path d="M95.071,119.514V44.4A1.581,1.581,0,0,1,96.4,42.655h5.951a1.581,1.581,0,0,1,1.334,1.744V119.71Z" transform="translate(-28.641 -16.043)" fill="#ea5e66"/><circle cx="1.361" cy="1.361" r="1.361" transform="translate(93.473 38.764)" fill="#a0616a"/><circle cx="1.361" cy="1.361" r="1.361" transform="translate(108.594 38.159)" fill="#a0616a"/><path d="M141.9,72.409c.133-.122,1.215-6.453,1.209-6.6-.017-.78-2.4-1.671-2.873-1.361-.449.292-1.232,3.648-1.735,4.259l-.533-.932h-4.234l-.257.477c-.556-.335-1.055-.643-1.234-.745a.8.8,0,0,0-.2-.1,3.071,3.071,0,0,1-1.21-.569c-.348-.268-1.962-3.071-2.394-3a3.769,3.769,0,0,0-2.117,2.873,54.2,54.2,0,0,1,2.943,5.591c.207.85.891,13.243,1.112,13.82,1.017-.1.214-.274,1.2,0a8.776,8.776,0,0,0,3.272-.142,12.568,12.568,0,0,1,1.37-.06,26.325,26.325,0,0,1,5.648.513,19.215,19.215,0,0,0-1.261-4.335,2.91,2.91,0,0,1,0-.9C140.658,80.845,141.543,72.812,141.9,72.409Z" transform="translate(-28.641 -16.043)" fill="#e6e6e6"/></g></g></g></svg>