<svg xmlns="http://www.w3.org/2000/svg" xmlns:xlink="http://www.w3.org/1999/xlink" width="128" height="104" viewBox="0 0 128 104"><defs><clipPath id="a"><rect width="128" height="104" transform="translate(-10080 2513)" fill="#fff" opacity="0"/></clipPath></defs><g transform="translate(10080 -2513)"><g clip-path="url(#a)"><g transform="translate(-10080 2524.049)"><circle cx="5.631" cy="5.631" r="5.631" transform="translate(95.172 3.754)" fill="#2f2e41"/><path d="M108.426,28.606s.1,3.26-2.074,4.248,8.5.889,8.5.889-3.161-3.853-2.272-5.137Z" transform="translate(-9.846 -14.431)" fill="#ffb8b8"/><path d="M108.426,28.606s.1,3.26-2.074,4.248,8.5.889,8.5.889-3.161-3.853-2.272-5.137Z" transform="translate(-9.846 -14.431)" opacity="0.1"/><circle cx="3.853" cy="3.853" r="3.853" transform="translate(96.9 8.347)" fill="#ffb8b8"/><path d="M110.105,32.162l-3.309-.741-1.926,2.025-2.173.3L105.561,45.5l-.1,2.963S102.3,50.832,102.5,61.8s-1.581,32.7.593,32.894,6.717,1.185,7.014.3.79-35.957.79-35.957-.1,35.166,1.383,35.562,6.026,1.185,6.618-.1,0-34.771,0-34.771-.1-8.693-3.655-11.261l-.4-2.272,3.062-12.447h-2.47l-1.482-2.568L110.9,32.261Z" transform="translate(-9.846 -14.431)" fill="#2f2e41"/><path d="M102.034,45.628,97.8,52.77s-3.1,3.177-1.547,4.055,3.2-3.7,3.2-3.7l4.555-6Z" transform="translate(-9.846 -14.431)" fill="#ffb8b8"/><path d="M119.378,45.78l3.424,7.564s2.729,3.5,1.092,4.2-2.771-4.028-2.771-4.028l-3.869-6.461Z" transform="translate(-9.846 -14.431)" fill="#ffb8b8"/><path d="M103.981,34.434l-1.284-.691s-2.272,3.754-1.877,10.076c0,0-.4,3.359.4,3.556s3.062.593,3.161.2,1.284-7.705,1.284-7.705Z" transform="translate(-9.846 -14.431)" fill="#2f2e41"/><path d="M116.724,34.237l1.185-.494A7.114,7.114,0,0,1,119.49,37.4c.3,2.272,1.679,9.582.593,9.779s-3.655.593-3.655,0-.889-7.507-.889-7.507Z" transform="translate(-9.846 -14.431)" fill="#2f2e41"/><path d="M104.519,8.734l-2.857-1.5-3.946.612L96.9,11.455l2.032-.078.568-1.325v1.3l.938-.036.544-2.109.34,2.245,3.334-.068Z" fill="#2f2e41"/><circle cx="2.272" cy="2.272" r="2.272" transform="translate(98.827 0.691)" fill="#2f2e41"/><path d="M108.08,16.7a2.272,2.272,0,0,1,1.926-2.246,2.272,2.272,0,1,0,0,4.492A2.273,2.273,0,0,1,108.08,16.7Z" transform="translate(-9.846 -14.431)" fill="#2f2e41"/><ellipse cx="0.969" cy="0.66" rx="0.969" ry="0.66" transform="translate(60.316 70.787)" fill="#ea5e66"/><path d="M71.132,85.878s4.6,8,4.483,9.154" transform="translate(-9.846 -14.431)" fill="#ea5e66"/><path d="M74.161,86.43v4.68c-.964-1.336-2.888-2.712-6.493-3.829L74.161,96.2v.068l.035-.02.011.015.026-.036C74.989,95.788,81.333,91.837,74.161,86.43Z" transform="translate(-9.846 -14.431)" fill="#3f3d56"/><rect width="67.323" height="0.246" transform="translate(60.677 81.656)" fill="#3f3d56"/><path d="M87.877,96.241h-2.43v-2.43h2.43Zm-2.243-.187H87.69V94H85.634Z" transform="translate(-9.846 -14.431)" fill="#3f3d56"/><circle cx="1.24" cy="1.24" r="1.24" transform="translate(122.121 76.803)" fill="#ea5e66"/><path d="M133.207,96.058a3.584,3.584,0,1,1,3.583-3.584,3.584,3.584,0,0,1-3.583,3.584Zm0-6.891a3.308,3.308,0,1,0,3.308,3.308,3.308,3.308,0,0,0-3.308-3.308Z" transform="translate(-9.846 -14.431)" fill="#2f2e41"/><rect width="82.831" height="49.477" transform="translate(4.431 4.941)" fill="#ea5e66"/><path d="M56.182,4.941,4.431,40.469v-8.51L43.787,4.941Z" opacity="0.1"/><path d="M80.985,4.941V5.8L10.166,54.418H4.431V49.847L69.844,4.941Z" opacity="0.1"/><rect width="0.246" height="8.738" transform="translate(11.492 45.68)" fill="#3f3d56"/><circle cx="3.077" cy="3.077" r="3.077" transform="translate(8.554 42.603)" fill="#3f3d56"/><rect width="0.246" height="16.246" transform="translate(28.6 38.172)" fill="#3f3d56"/><circle cx="3.077" cy="3.077" r="3.077" transform="translate(25.662 35.464)" fill="#3f3d56"/><rect width="0.246" height="29.908" transform="translate(45.708 24.51)" fill="#3f3d56"/><circle cx="3.077" cy="3.077" r="3.077" transform="translate(42.769 21.433)" fill="#3f3d56"/><rect width="0.246" height="20.923" transform="translate(62.816 33.495)" fill="#3f3d56"/><circle cx="3.077" cy="3.077" r="3.077" transform="translate(59.877 30.418)" fill="#3f3d56"/><rect width="0.246" height="38.769" transform="translate(79.923 15.649)" fill="#3f3d56"/><circle cx="3.077" cy="3.077" r="3.077" transform="translate(76.985 12.572)" fill="#3f3d56"/><rect width="0.738" height="0.246" transform="translate(4.431 45.557)" fill="#3f3d56"/><path d="M19.643,60.234H18.486v-.246h1.157Zm-2.314,0H16.172v-.246h1.157Z" transform="translate(-9.846 -14.431)" fill="#3f3d56"/><rect width="0.738" height="0.246" transform="translate(10.954 45.557)" fill="#3f3d56"/><rect width="0.738" height="0.246" transform="translate(4.431 38.418)" fill="#3f3d56"/><path d="M35.922,53.1H34.429v-.246h1.493Zm-2.987,0H31.442v-.246h1.493Zm-2.987,0H28.455v-.246h1.493Zm-2.987,0H25.469v-.246h1.493Zm-2.987,0H22.482v-.246h1.493Zm-2.987,0H19.5v-.246h1.493ZM18,53.1H16.509v-.246H18Z" transform="translate(-9.846 -14.431)" fill="#3f3d56"/><rect width="0.738" height="0.246" transform="translate(27.569 38.418)" fill="#3f3d56"/><rect width="0.738" height="0.246" transform="translate(4.431 33.372)" fill="#3f3d56"/><path d="M68.544,48.049H67.057V47.8h1.487Zm-2.974,0H64.083V47.8H65.57Zm-2.974,0H61.109V47.8H62.6Zm-2.974,0H58.136V47.8h1.487Zm-2.974,0H55.162V47.8h1.487Zm-2.974,0H52.188V47.8h1.487Zm-2.974,0H49.214V47.8H50.7Zm-2.974,0H46.24V47.8h1.487Zm-2.974,0H43.267V47.8h1.487Zm-2.974,0H40.293V47.8H41.78Zm-2.974,0H37.319V47.8h1.487Zm-2.974,0H34.345V47.8h1.487Zm-2.974,0H31.371V47.8h1.487Zm-2.974,0H28.4V47.8h1.487Zm-2.974,0H25.424V47.8h1.487Zm-2.974,0H22.45V47.8h1.487Zm-2.974,0H19.476V47.8h1.487Zm-2.974,0H16.5V47.8h1.487Z" transform="translate(-9.846 -14.431)" fill="#3f3d56"/><rect width="0.738" height="0.246" transform="translate(60.185 33.372)" fill="#3f3d56"/><rect width="0.738" height="0.246" transform="translate(4.431 24.387)" fill="#3f3d56"/><path d="M51.525,39.064H50v-.246h1.521Zm-3.042,0H46.961v-.246h1.521Zm-3.042,0H43.919v-.246H45.44Zm-3.042,0H40.876v-.246H42.4Zm-3.042,0H37.834v-.246h1.521Zm-3.042,0H34.791v-.246h1.521Zm-3.042,0H31.749v-.246H33.27Zm-3.042,0H28.706v-.246h1.521Zm-3.042,0H25.664v-.246h1.521Zm-3.042,0H22.622v-.246h1.521Zm-3.042,0H19.579v-.246H21.1Zm-3.042,0H16.537v-.246h1.521Z" transform="translate(-9.846 -14.431)" fill="#3f3d56"/><rect width="0.738" height="0.246" transform="translate(43.2 24.387)" fill="#3f3d56"/><rect width="0.738" height="0.246" transform="translate(4.43 15.772) rotate(-0.196)" fill="#3f3d56"/><path d="M16.471,30.442V30.2l1.455,0v.246Zm2.91-.009v-.246l1.455,0v.246Zm2.91-.009v-.246l1.455,0v.246Zm2.91-.009v-.246l1.455,0v.246Zm2.91-.009v-.246l1.455,0V30.4Zm2.91-.009v-.246l1.455,0v.246Zm2.91-.009v-.246l1.455,0v.246Zm2.91-.009v-.246l1.455,0v.246Zm2.91-.009V30.12l1.455,0v.246Zm2.91-.009v-.246l1.455,0v.246Zm2.91-.009V30.1l1.455,0v.246Zm2.91-.009v-.246l1.455,0v.246Zm2.91-.009v-.246l1.455,0v.246Zm2.91-.009v-.246l1.455,0v.246Zm2.91-.009v-.246l1.455,0V30.3Zm2.91-.009v-.246l1.455,0V30.3Zm2.91-.009v-.246l1.455,0v.246Zm2.91-.009v-.246l1.455,0v.246Zm2.91-.009v-.246l1.455,0v.246Zm2.91-.009v-.246l1.455,0v.246Zm2.91-.009v-.246l1.455,0v.246Zm2.91-.009V30l1.455,0v.246Zm2.91-.009v-.246l1.455,0v.246Zm2.91-.009v-.246l1.455,0v.246Zm2.91-.009v-.246l1.455,0v.246Z" transform="translate(-9.846 -14.431)" fill="#3f3d56"/><rect width="0.738" height="0.246" transform="translate(79.385 15.528) rotate(-0.168)" fill="#3f3d56"/><rect width="2.462" height="2.462" transform="translate(0 14.541)" fill="#3f3d56"/><rect width="2.462" height="2.462" transform="translate(0 23.28)" fill="#3f3d56"/><rect width="2.462" height="2.462" transform="translate(0 32.264)" fill="#3f3d56"/><rect width="2.462" height="2.462" transform="translate(0 37.31)" fill="#3f3d56"/><rect width="2.462" height="2.462" transform="translate(0 44.449)" fill="#3f3d56"/><rect width="6.4" height="6.4" transform="matrix(-0.254, 0.967, -0.967, -0.254, 122.713, 37.521)" fill="#ea5e66"/><path d="M123.467,56.945a1.477,1.477,0,1,1,1.9.861,1.477,1.477,0,0,1-1.9-.861ZM126,55.991a1.231,1.231,0,1,0-.718,1.586A1.231,1.231,0,0,0,126,55.991Z" transform="translate(-9.846 -14.431)" fill="#3f3d56"/><ellipse cx="2.092" cy="1.108" rx="2.092" ry="1.108" transform="translate(94.154 79.526)" fill="#2f2e41"/><ellipse cx="2.092" cy="1.108" rx="2.092" ry="1.108" transform="translate(103.754 79.526)" fill="#2f2e41"/><path d="M77.56,42.052a1.477,1.477,0,1,1,1.477-1.477,1.477,1.477,0,0,1-1.477,1.477Zm0-2.708a1.231,1.231,0,1,0,1.231,1.231,1.231,1.231,0,0,0-1.231-1.231Z" transform="translate(-9.846 -14.431)" fill="#fff"/><path d="M44.7,64.329a1.477,1.477,0,1,1,1.477-1.477A1.477,1.477,0,0,1,44.7,64.329Zm0-2.708a1.231,1.231,0,1,0,1.231,1.231A1.231,1.231,0,0,0,44.7,61.621Z" transform="translate(-9.846 -14.431)" fill="#fff"/><path d="M30.175,28.513a1.477,1.477,0,1,1,1.477-1.477,1.477,1.477,0,0,1-1.477,1.477Zm0-2.708a1.231,1.231,0,1,0,1.231,1.231,1.231,1.231,0,0,0-1.231-1.231Z" transform="translate(-9.846 -14.431)" fill="#fff"/></g></g></g></svg>