<svg xmlns="http://www.w3.org/2000/svg" xmlns:xlink="http://www.w3.org/1999/xlink" width="128" height="104" viewBox="0 0 128 104"><defs><clipPath id="a"><rect width="128" height="104" transform="translate(-10080 2684)" fill="#fff" opacity="0"/></clipPath></defs><g transform="translate(10080 -2684)"><g clip-path="url(#a)"><g transform="translate(-10080 2684.064)"><path d="M164.3,90.982c-.14.27-.287.535-.438.8-5.8,10.1-19.286,16.375-42.033,13.055-12.916-1.975-18.416,5.269-23.742,12.689-.091.128-.182.256-.275.384-5.578,7.781-11.1,15.583-24.907,12.99-14.638-2.314-23.671-14.2-25.069-26.888-.017-.154-.032-.31-.046-.464A29.107,29.107,0,0,1,55.627,80.37a19.811,19.811,0,0,1,14.539-5.882,26.725,26.725,0,0,0,4.931-.366c.359-.063.708-.133,1.048-.211,6.988-1.6,10.208-6.344,12.183-12.138.046-.137.093-.275.137-.414C93,47.543,90.9,28.15,115.555,31c22.06,1.626,38.25,13.858,46.192,27.971.079.142.157.284.235.426A43.045,43.045,0,0,1,166.6,71.946c.049.247.094.494.136.741A28.706,28.706,0,0,1,164.3,90.982Z" transform="translate(-41.961 -27.535)" fill="#f2f2f2"/><path d="M161.981,59.4a33.782,33.782,0,0,1-5.318,5.078,49.968,49.968,0,0,1-26.74,9.659,53.128,53.128,0,0,1-14.584-.991,64.723,64.723,0,0,1-14.03-4.922c-4.38-2.044-8.631-4.349-12.982-6.451.046-.137.093-.275.137-.414,4.744,2.284,9.392,4.8,14.192,6.975a60.641,60.641,0,0,0,14.1,4.618,52.942,52.942,0,0,0,14.809.58c9.477-.954,19.117-4.45,26.4-10.7a31.526,31.526,0,0,0,3.78-3.854C161.826,59.117,161.9,59.259,161.981,59.4Z" transform="translate(-41.961 -27.535)" fill="#fff"/><path d="M129.056,27.68h-.033a22.266,22.266,0,0,0,0,44.443.508.508,0,0,0,.383-.138.5.5,0,0,0,.16-.37V28.188A.51.51,0,0,0,129.056,27.68Z" transform="translate(-41.961 -27.535)" fill="#ccc"/><path d="M146.935,64.742a.656.656,0,0,1-.462-.191l-15.12-15.12a.649.649,0,0,1-.191-.462V28.188a.646.646,0,0,1,.206-.475.656.656,0,0,1,.491-.177,22.412,22.412,0,0,1,15.571,36.98.656.656,0,0,1-.47.226Z" transform="translate(-41.961 -27.535)" fill="#ccc"/><path d="M131.817,72.27a.658.658,0,0,1-.449-.178.647.647,0,0,1-.206-.476V52.867a.653.653,0,0,1,1.114-.462L145.47,65.6a.654.654,0,0,1-.025.948,22.459,22.459,0,0,1-13.588,5.722Z" transform="translate(-41.961 -27.535)" fill="#ea5e66"/><path d="M166.734,72.686a32.5,32.5,0,0,1-8.528,9.689,49.968,49.968,0,0,1-26.74,9.659,53.128,53.128,0,0,1-14.584-.991,64.723,64.723,0,0,1-14.03-4.922c-4.585-2.14-9.031-4.567-13.6-6.747A74.4,74.4,0,0,0,75.1,74.123c.36-.063.708-.133,1.048-.211q.481.125.96.259c9.6,2.685,18.078,7.975,27.095,12.062a60.641,60.641,0,0,0,14.1,4.618,52.942,52.942,0,0,0,14.809.58c9.477-.954,19.117-4.45,26.4-10.7a30.774,30.774,0,0,0,7.088-8.781C166.647,72.193,166.692,72.44,166.734,72.686Z" transform="translate(-41.961 -27.535)" fill="#fff"/><path d="M71.4,105.646c9.461,2.645,17.827,7.819,26.7,11.879-.091.128-.182.256-.275.384-.225-.1-.449-.207-.673-.312-4.585-2.14-9.031-4.567-13.6-6.747a73.938,73.938,0,0,0-14.472-5.329,64.668,64.668,0,0,0-21.235-1.51c-.017-.154-.032-.31-.046-.464a65.154,65.154,0,0,1,23.6,2.1Z" transform="translate(-41.961 -27.535)" fill="#fff"/><path d="M109.422,120.533H42.137a.177.177,0,1,1,0-.353h67.285a.177.177,0,1,1,0,.353Z" transform="translate(-41.961 -27.535)" fill="#ccc"/><circle cx="4.338" cy="4.338" r="4.338" transform="translate(23.057 60.499)" fill="#a0616a"/><path d="M43.624,95.443l.1,2.163-8.294,1.42-.149-3.192Z" fill="#a0616a"/><path d="M87.655,122.328l.23,4.917-.088,0a3.354,3.354,0,0,1-1.946-.471,1.679,1.679,0,0,1-.858-1.316h0l-.141-3Z" transform="translate(-41.961 -27.535)" fill="#2f2e41"/><path d="M43.392,99h2.165l1.03-8.351h-3.2Z" fill="#a0616a"/><path d="M84.8,125.829h4.264a2.717,2.717,0,0,1,2.717,2.717v.088H84.8Z" transform="translate(-41.961 -27.535)" fill="#2f2e41"/><path d="M64.912,124.513a1.9,1.9,0,0,0,.442-2.875l1.728-17.193-4.116.288-.4,16.81a1.907,1.907,0,0,0,2.35,2.971Z" transform="translate(-41.961 -27.535)" fill="#a0616a"/><path d="M67.062,107.425l-4.265-.52a.851.851,0,0,1-.717-1.07l1.136-4.13a2.362,2.362,0,1,1,4.689.585l.111,4.268a.851.851,0,0,1-.953.866Z" transform="translate(-41.961 -27.535)" fill="#ea5e66"/><path d="M66.465,126.949a2.943,2.943,0,0,1-2.231-4.592l2.786-2.892,10.155-9.095,5.429-4.5a2.431,2.431,0,0,1,3.912,1.287l2.836,11.474a.793.793,0,0,1-.5.939l-3.092,1.113a.795.795,0,0,1-1.037-.543l-1.176-4.411L77,121.98l2.042.752a.8.8,0,0,1,.49.961l-.66,2.338a.792.792,0,0,1-.742.578Z" transform="translate(-41.961 -27.535)" fill="#2f2e41"/><path d="M66.188,120.427l-.269-9.811-1.694-4.3a6.475,6.475,0,0,1,4.71-8.715l.417-.085h0a6.474,6.474,0,0,1,7.7,5.717l.8,7.386,0,.014c-1.27,5.647-4.943,8.755-11.562,9.781Z" transform="translate(-41.961 -27.535)" fill="#ea5e66"/><path d="M70.2,113.613a1.86,1.86,0,0,1,.292-.022l4.9-7.258-.928-1.914,2.706-1.779,1.973,3.229a1.413,1.413,0,0,1-.161,1.688l-6.709,7.367a1.854,1.854,0,1,1-2.074-1.311Z" transform="translate(-41.961 -27.535)" fill="#a0616a"/><path d="M74.96,106.2a.794.794,0,0,1-.505-.427l-1.7-3.61a2.207,2.207,0,1,1,3.67-2.453l2.679,2.973a.795.795,0,0,1-.151,1.194l-3.343,2.221A.794.794,0,0,1,74.96,106.2Z" transform="translate(-41.961 -27.535)" fill="#ea5e66"/><path d="M126.885,95.736H112.568a.778.778,0,1,1,0-1.556h14.317a.778.778,0,1,1,0,1.556Z" transform="translate(-41.961 -27.535)" fill="#ccc"/><path d="M108.289,96.514a1.634,1.634,0,1,1,1.634-1.634A1.634,1.634,0,0,1,108.289,96.514Z" transform="translate(-41.961 -27.535)" fill="#3f3d56"/><path d="M126.885,100.4H112.568a.778.778,0,1,1,0-1.556h14.317a.778.778,0,1,1,0,1.556Z" transform="translate(-41.961 -27.535)" fill="#ccc"/><path d="M108.289,101.182a1.634,1.634,0,1,1,1.634-1.634A1.634,1.634,0,0,1,108.289,101.182Z" transform="translate(-41.961 -27.535)" fill="#3f3d56"/><path d="M126.885,105.073H112.568a.778.778,0,1,1,0-1.556h14.317a.778.778,0,0,1,0,1.556Z" transform="translate(-41.961 -27.535)" fill="#ccc"/><path d="M108.289,105.851a1.634,1.634,0,1,1,1.634-1.634A1.634,1.634,0,0,1,108.289,105.851Z" transform="translate(-41.961 -27.535)" fill="#3f3d56"/><path d="M131,99.605h5.914a.156.156,0,0,0,.156-.156V62.891a.156.156,0,0,0-.311,0v36.4H131a.156.156,0,1,0,0,.311Z" transform="translate(-41.961 -27.535)" fill="#3f3d56"/><path d="M156.339,39h0a2.006,2.006,0,1,1,1.838-2.16A2.006,2.006,0,0,1,156.339,39Zm-.025-.308h0a1.7,1.7,0,1,0-1.828-1.555,1.7,1.7,0,0,0,1.828,1.555Z" transform="translate(-41.961 -27.535)" fill="#ccc"/><circle cx="1.234" cy="1.234" r="1.234" transform="translate(120.05 3.847)" fill="#ccc"/><circle cx="0.648" cy="0.648" r="0.648" transform="translate(126.703 0.555)" fill="#ccc"/><path d="M146.914,78.477a2.006,2.006,0,1,1-.568-2.779h0a2.008,2.008,0,0,1,.568,2.779Zm-3.089-2.041a1.7,1.7,0,1,0,2.352-.48h0A1.7,1.7,0,0,0,143.824,76.436Z" transform="translate(-41.961 -27.535)" fill="#ccc"/><circle cx="1.234" cy="1.234" r="1.234" transform="translate(106.122 55.85)" fill="#ccc"/><circle cx="0.648" cy="0.648" r="0.648" transform="translate(110.151 62.761)" fill="#ccc"/><path d="M97.109,44.79a2.006,2.006,0,1,1,2.689.9h0a2.008,2.008,0,0,1-2.689-.9Zm3.316-1.648a1.7,1.7,0,1,0-.765,2.275h0a1.7,1.7,0,0,0,.765-2.275Z" transform="translate(-41.961 -27.535)" fill="#ccc"/><circle cx="1.234" cy="1.234" r="1.234" transform="translate(47.395 15.017)" fill="#ccc"/><circle cx="0.648" cy="0.648" r="0.648" transform="translate(40.783 15.407)" fill="#ccc"/><path d="M73.939,92.751l-.181-.461a3.926,3.926,0,0,0-2.968-2.432A3.392,3.392,0,0,0,67.5,91.384,7.435,7.435,0,0,0,66.8,93.01c-.057.169-.114.291-.224.328s-.247-.032-.452-.159a.283.283,0,0,0-.429.279l.214,1.531-.179-.16a3.392,3.392,0,0,1-.564-4.236l-1.92.394.087-.165a6.557,6.557,0,0,1,3.822-3.228l-1.839-.4.186-.115a5.32,5.32,0,0,1,5.535.071,6.277,6.277,0,0,1,2.888,5.11Z" transform="translate(-41.961 -27.535)" fill="#2f2e41"/></g></g></g></svg>