<svg xmlns="http://www.w3.org/2000/svg" width="1004" height="1306.4">
  <defs>
    <style>
    .cls-1 {
      fill: #a3dcdc
    }

    .cls-1,
    .cls-2,
    .cls-3,
    .cls-4 {
      stroke-linecap: round;
      stroke-linejoin: round
    }

    .cls-2 {
      fill: #66c4c5
    }

    .cls-3 {
      fill: #c2e7e8
    }

    .cls-4 {
      fill: #85d0d1
    }

    .cls-10,
    .cls-6 {
      fill: #fff
    }

    .cls-6 {
      opacity: 0
    }

    .cls-7 {
      fill: #1a202c
    }

    .cls-7,
    .cls-8 {
      font-size: 18px
    }

    .cls-10,
    .cls-7,
    .cls-8 {
      font-family: NotoSansCJKtc-Bold, Noto Sans CJK TC;
      font-weight: 700
    }

    .cls-8 {
      fill: #1b1b26
    }

    .cls-9 {
      fill: #ff9e9e
    }

    .cls-10 {
      font-size: 16px
    }

    .cls-11,
    .cls-12 {
      stroke: none
    }

    .cls-12 {
      fill: #fff
    }
    </style>
  </defs>
  <g id="taiwan_map_citys" transform="translate(-182 -168)">
    <g id="taiwan" transform="translate(62 -92)">
      <g id="Kaohsiung" class="cls-1">
        <path class="cls-11" d="m581 1132-1-1-3-1h-1l-1 1h-4l-13-10v-1l-12-17 2-1 10 12-1-3-4-7-5-6-9-8-3-5h-1l-1-5 2-5 1-4-1-5-3-6-5-7-4-11h-1l-1-4v-1l1-3 1-3v-3l-3-2v-3l-3-5-1-2-2-14v-1l6-4h2v1l4 9 4 2 16 2 8-1 8 1 4-1 3-3h1l6-2 6-5 2-5 3-5 6-7 6-7 7-5 7-7 6-9 10-17 11-15 2-6-1-6-2-5 1-5v-1l3-3 1-1 7 1 6-1 12-7 4-5 8-6 8-5 4-4 3-7h1l8-7 19-10 5 1 6 2v1l4 6 1 2 2 6v1l-3 5-6 2-1 3 1 3 5 4 7 5 3 8v3l-1 1-15 3-6 4-4 4-8 5-1 5 3 6v1l-3 5h-1l-6 4-1 6 2 10-3 13v12l-5 6-8 7-2 10 1 7 3 5 6 6 1 5 1 1-2 1h-4l-5-1h-4l-8 7h-1l-6-6-7-8-7 1-6 6-1 1v-1l-13-6-9 4-6 7h-1l-8 3-17-1-1 4-2 7v1l-2 7v17l-6 21v7l3 7v9l-8 21v1Z" transform="translate(122 270)" />
        <path class="cls-12" d="m725 846-18 10-9 6-3 7-5 5-7 5-8 6-5 5-12 7-6 1-7-1-3 4-1 5 2 4 1 7-2 7-11 15-10 17-6 8-8 7-6 6-6 6-6 7-3 6-2 5-6 5-7 2-3 3-5 1-8-1-8 1-16-2-5-3-4-8v-1l-6 4 2 14 1 2 3 5v2l3 2v4l-1 3-1 3 1 5 5 10 5 8 3 5 1 6-1 4-2 5 1 5 4 4 9 8 5 6 4 8 2 7-13-15 12 17 13 10h2l2-1h2l2 1 8-20v-8l-3-8v-7l6-21v-17l2-8 2-7 1-5 18 1 8-3 7-7 9-4 13 6 7-6 7-1 8 9 5 5 9-7h4l5 1h4l-1-5-6-7-3-4-1-8 2-10 8-8 5-5v-12l3-13-2-10 1-7 7-4 3-5-3-6 1-5 8-5 4-4 7-4 15-4v-3l-3-7-6-6-6-3-1-4 2-3 5-3 3-5-2-6v-2l-5-6-5-2-5-1m0-2h1l4 1 6 3h1l4 6v1l1 2 2 6v1l-3 5-1 1-5 2-1 2 1 3 5 3 6 5 1 1 3 8v2l-1 3-16 3-6 4-3 4h-1l-7 5-1 4 3 6-1 1-2 5-1 1-7 4v5l2 10v1l-3 13v11l-1 1-4 6-8 7-2 9 1 7 3 4 6 6v1l1 5a2 2 0 0 1-1 3h-5l-5-1h-3l-8 7h-3l-6-6-7-8-5 1-7 6h-2l-12-6-8 4-6 7h-1l-8 3h-1l-16-1-2 3-1 8-2 7v17l-6 21v7l3 7v9l-8 21a2 2 0 0 1-3 1l-2-1h-1l-1 1h-4l-13-11h-1l-12-17a2 2 0 0 1 3-3l7 9-2-5-5-6-9-9h-1l-3-4v-1l-2-4v-2l2-4 1-4-1-5-3-5-5-8-4-10-1-1-1-4v-1l1-3 1-4v-2l-2-2-1-1v-2l-3-4v-1l-1-2-2-14 1-2 6-3a2 2 0 0 1 3 1l4 8 4 2 15 2 8-1 8 1 4-1 3-2v-1l7-2 5-4 2-5h1l3-6 5-7 6-7 7-5 7-7 6-8 10-17 11-15 2-6-1-6-1-5h-1l1-5v-2l4-3 1-1 7 1 5-1 12-6 4-6 8-6h1l7-4 4-5 3-7h1l8-7h1l18-10h1Z" transform="translate(122 270)" />
      </g>
      <g id="Pingtung" class="cls-2">
        <path class="cls-11" d="m694 1298-2-3-4-7-7-5-8-3-6-2v6h-1l-2 3h-1l-3-1h-1l-4-3v-3l1-7-5-9-1-3v-2l1-3v-15l3-3v-3l-20-51-1-3-6-7-4-10-2-2-8-7-5-3h-1l-1-4v-1l-4-2-10-5h-1l-4-3v-1l-5-4-2-1-1-1 8-21v-8l-3-7v-8l6-21v-17l2-7 1-8h1l1-5h1l18 1 7-3 7-7 9-5h1v1l13 6 6-6 8-2 1 1 7 9 5 4 8-6h5l6 1 4 7v4l5 2h1l5 3 1 1h-1l-2 14v6l-2 5h-1l-10 4-5 3-7 2-5 4-3 6-3 7-3 7-1 15 1 6 2 6 1 7v6l3 4 4 6h1l-1 1-2 4-6 3-1 4-1 4 2 3 4 2 3 4v6l1 6 3 6 4 5 10 4h5v1l1 52-1 7-3 6v1l-4 2-3 4v7l1 9v10Zm-131-120-1-1v-4h-1 1l1-3 3-4h2l1-1h1v1l2 3h1-1v2l-3 2-5 4-1 1Z" transform="translate(122 270)" />
        <path class="cls-12" d="M693 1295v-6l-1-10v-8l4-4 3-2 3-6 1-7-1-52h-4l-10-5-5-4-3-6-1-6v-6l-3-5-3-1-3-4 1-5 2-4 5-3 3-4-5-5-3-5v-6l-1-7-2-6-1-6 1-15 3-8 4-6 2-7 5-4 8-2 5-3 10-4 2-5v-5l2-14-5-3-5-2-1-5-4-6-5-1h-4l-9 7-6-6-7-9-7 2-7 6-13-7-10 5-6 7-8 3-18-1-2 5-1 7-2 8v16l-6 22v7l3 7v8l-8 21 3 2 5 4 4 3 10 5 4 3 1 1 1 4 6 3 8 6 2 3 4 10 6 7 1 3 20 51v3l-3 4v14l-1 3v2l1 2 5 10-1 7v2l4 3 3 1 3-2v-7l8 2 8 4 6 5 5 7m-130-119 5-4 3-2v-1l-2-3v1h-2l-3 3-2 3 1 3m130 121-2-1-4-7-6-5-8-3-5-1v4l-1 1-2 2-2 1-4-1-4-3-1-2v-3l1-6-5-8v-1l-1-2v-3l1-3v-14l1-1 2-4v-2l-20-51-1-2-5-7h-1l-4-10-2-3-8-6-5-3-1-1-1-3v-1l-4-3-10-4v-1l-5-3-4-4-3-1-1-3 8-20v-7l-3-8v-8l6-21v-17l2-8 1-7h1l1-5 2-1 18 1 7-3 6-6 1-1 9-4h2l12 6 5-5 1-1 7-2 2 1 8 9 4 4 8-6h5l6 1 1 1 4 6v5l4 1h1l6 3v3l-2 13v5l-1 1-2 5-1 1-9 4-5 3h-1l-7 1-4 4-3 6v1l-3 6-3 7-1 14 1 7 2 6 1 7v5l3 5 4 5v2l-2 4-1 1-5 3-1 3-1 3 2 3 3 2h1l3 5v6l1 6 3 5 4 5 9 4h4a2 2 0 0 1 2 2l1 52-1 7v1l-3 6-1 1-3 2-3 3v7l1 9v7a2 2 0 0 1-2 2Zm-130-119a2 2 0 0 1-2-1v-5l1-3 3-4h6l2 3v3l-1 1-2 2-5 4h-2Z" transform="translate(122 270)" />
      </g>
      <g id="Taitung" class="cls-1">
        <path class="cls-11" d="M884 1267v-1l-8-2v-1l-7-4-4-4v-1l1-3v-2l-1-2-1-2-2-2h23v4l-1 3-1 2 1 2 5 4 2 2v5h-1l-6 1v1Zm-187-65v-1l-10-4v-1l-5-4v-1l-3-6-1-6v-6l-3-3-3-2-3-4v-6h1l2-4 5-3 2-3-4-5-3-5v-6l-1-7-2-6-1-7 1-15 3-8 3-6 3-7 5-5h1l7-2 5-2 10-4 1-5v-5l3-13-5-3-5-1-1-1v-5l-4-6v-2h4l-1-4-6-6-3-5-2-8v-1l3-10 8-7 4-6 1-11 3-13-3-10 1-7 1-1 7-3 2-5-2-5v-1l1-6 8-5 4-4 7-4 16-4 1-1v2l1 7 5 7 7 3 6 3h1l4 5 6 1h1l5 1h1v1l9 16 11 9 8 1 6-3 1-6v-7l3-6 4-13h1l3-8 3-8 2-7 4-5 3-7v-7l-2-6v-1l4-6 11-5h1l3 1h1v1l-4 26-1 1-2 4v1l-7 9-2 5-2 6-2 11v10l-1 10-5 10-2 3-5 3-2 2-1 2-1 6h-1l-4 9-3 12v1l-2 6-11 15-1 2-14 12-3 4v11l-1 4-3 3-4 7-5 4-16 11-11 12-3 1-2 3-5 13-3 5-8 10-3 6-2 12-5 17-9 17-1 5-2 17v15h-5l-1 1Zm169-114h-4v-1h-1l-2-1h-1v-1l-3-4v-1l-1-4v-1l1-1 10-1h1v1h1v1l1 2-1 4v2l-1 1 1 2-1 1v1Z" transform="translate(122 270)" />
        <path class="cls-12" d="m884 1266 6-2v-3l-2-2-5-4-1-2 1-3 1-4v-2h-20l2 2 1 3v2l-1 3 4 4 7 5 7 3m-186-66h4v-15l2-16 1-5 9-17 5-17 2-12 4-6 8-10 2-5 5-14 2-3 3-1 11-12 16-11 5-4 5-6 2-4 1-3v-12l3-3 14-12 1-3 11-15 2-6 3-13 5-8 1-6 1-2 3-3 4-3 2-2 5-10 1-10v-10l2-11 2-7 2-5 7-9 3-5 4-26-3-1-11 5-4 5 2 7v7l-3 7-4 5-2 7-3 8-4 8-4 13-3 6v7l-1 6-7 4-8-1-12-10-9-16-6-1-6-1-5-5-6-3-8-3-5-8-1-7-16 3-6 5-4 4-8 5-1 5 2 6-2 5-8 4-1 7 3 10-3 13-1 12-4 5-8 8-3 9 2 9 3 4 6 7 1 5h-4l4 7v5l6 1 5 3-3 14v6l-2 5-9 4-5 2-8 2-5 4-3 7-3 7-3 7-1 15 1 6 2 7 1 7v5l3 5 4 6-2 3-5 4-3 4v4l3 4 3 2 3 4v6l1 6 3 6 4 5 11 4m167-113 1-1-1-2 1-1v-2l1-4-1-2-1-1-10 1v1l1 4 3 5 3 1v1h3m19 181-1-1-7-3-7-5-4-3-1-3 1-2v-2l-1-1-1-2a2 2 0 0 1 1-4h20l2 2v3l-1 3-1 2 1 2 4 3h1l2 3v4l-2 2-5 1-1 1Zm-186-66h-1l-10-4-1-1-5-5-3-6v-1l-1-6v-5l-2-4-3-1-1-1-3-4v-6h1l2-4v-1l5-3 2-2-4-5-3-5v-6l-1-7-2-6-1-7 1-15v-1l3-7 3-7 3-6v-1l6-5h1l7-2 5-2 9-4 1-4v-5h1l2-13-4-2-5-1-2-2v-5l-4-6a2 2 0 0 1 2-3h2l-1-2-6-6v-1l-3-4v-1l-2-8v-1l3-10v-1l9-7 3-5 1-11 3-13-2-9-1-1 1-7 1-2 7-3 2-4-2-5v-1l1-6 1-1 8-5 3-4h1l6-4h1l15-4a2 2 0 0 1 3 1l1 7 4 8 8 2 6 3 5 5 6 1 6 1 1 1 9 16 11 9 7 1 5-3 1-5v-8l3-6 5-13 3-7 3-9 2-6 1-1 3-5 3-6v-6l-2-7v-2l4-5 1-1 11-5h1l4 1 1 2-4 26-1 1-2 5-7 10-3 4-1 6-2 11v10l-1 10v1l-5 10-2 2h-1l-4 4-2 2-1 2-1 5-1 1-4 8-3 13-2 6h-1l-10 15-1 3h-1l-13 12-3 3v12l-1 3h-1l-2 4-5 6-5 5-16 11-10 11-1 1-2 1-2 2-5 13v1l-3 5-8 10-3 5-2 12v1l-5 16v1l-9 16-1 6-2 16v14l-2 2h-4Zm167-113h-3l-2-1-2-1-1-1-3-5-1-5v-2h1l1-1 10-1 1 1h1l1 1 1 2v1l-1 4v1l-1 1v1l1 1v1l-1 1a2 2 0 0 1-2 2Z" transform="translate(122 270)" />
      </g>
      <g id="Penghu" class="cls-3">
        <path class="cls-11" d="m319 929-1-1-1-1-2-5v-1l1-1 1-1h1l-3-1-2-3-1-3h1l1-2h1l3 1h1l1 3 1 1h-1l-1 3v1l2-1 3 1h1v5h-1l-1 1-1 2-1 1-2 1Zm64-14-1-3-1-3v-2l1-2 1 1h3v3l-1 1-1 2-1 3Zm-15-2-1-1-1-1v-2h1l3-1 1 1v2l1 1h-1l-2 1h-1Zm-28-31h-4l-1-1h-1v-1l1-3v-3l-1 1h-1l-1-1v-3l2-5h1l1-1h1v1l3 3 1 1 1 1v3l1 1h1l-1 1v2l-1 1v1l1 1h-1l-2 1Zm4-2h-1v-3l2-2 1-1h2l2 1v3h-2l-3 2h-1Zm-54-10v-1l-1-1h-1l1-1 1-3h1l3 1v4h-1l-2 1h-1Zm52-25-2-1-1-2v-1h1v-1h3l3-1 1-1 3 1 2 1-2 1-3 2-2 1-3 1Zm15-9v-1l-5-1v-1l-5-5h-1l1-1 1-2 1-2 1 2 2 3h4l3-1 2-1v-1l-2-1h-1l-1-2-1-1v1h-1l-2 1v-11h3l2 1 7-5 5-1 2-1-1 2-1 4 2-1h5l2-2 1-2v2l5 9 1 4v5l-2-1-2-2-2-2h-2l-4 2h-3l-1 1v1l-1 4h-1v2h-1l-4 3h-1l-5 1Zm-28-14h-5v-1l1-2 1-2h1l2-1h4v-7h1l3-10v-1l3-3h1l5 4 1 1-1 1-3 1-1 3-3 8v2l1 2v1l-1 1v1h-6l-1 1h-1l-1 1h-1Zm31-17-1-2-1-4-2-2-4-4-1-1 1-1 5-4h1l4 2 3 3 2 3v1l-3 2 1 3v1l-1 2h-1l-2 1h-1Zm5-28-1-3-1-3v-2l2-2 1-3 1-1 1 1v1l3 2v3h-1l-2 1-2 2v1l-1 3Z" transform="translate(122 270)" />
        <path class="cls-12" d="m319 928 2-1 1-2 2-2v-3l-3-1-4 1-1 2 2 4 1 2m-1-10 2-3-2-3-3-1-2 1 1 3 2 2 2 1m65-6 1-2 1-2v-1h-3v2l1 3m-15 0 2-1v-2l-3 1 1 2m-28-31 1-1v-1l1-2 1-1-2-1v-4l-2-1-3-4-1 1-2 5v2l2-1h1v4l-1 3 2 1h3m4-2 3-2h2v-1l-1-1h-2l-1 1-1 2v1m-53-10 2-1v-2l-2-1-2 3 2 1m51-25 2-1 2-1 4-2-3-1-4 2h-2l-1 1 1 1 1 1m15-9 5-1 5-3 1-1 1-4v-2h2l3-1 4-2 2 1 3 1 2 2v-3l-1-4-5-9-1 3h-6l-4 1 1-1 1-4-4 1-8 5-2-1h-2v8h1l1-2 2 3 1 1 2 1 2 1-3 3-4 1-4-1-3-3-1 3 5 5 4 2m-28-14 1-1h2l1-1h5l1-1-1-2v-3l3-8 2-4 2-1-4-4-3 3-4 10v7l-2 1h-3l-2 1-1 1-1 2h4m32-17 2-1 1-2-1-3 3-3-2-3-3-3-3-1-6 4 5 4 2 3 1 4 1 1m4-30 1-1 2-2 2-2v-2l-2-1-1-1-1 3-2 1v2l1 3m-46 156-2-1-1-1v-1l-2-5 1-2v-1h-1l-2-3v-1l-1-2 1-2 1-1 2-1 3 1 1 1 2 3v3l3 1 2 2v4l-1 1-1 1-2 2v1l-2 1h-1Zm64-16-2-1-1-3v-1l1-2a2 2 0 0 1 2-2h2l2 2v3l-1 1-1 2-2 1Zm-15 0-2-1-1-2v-2l2-1 3-1 2 2v2a2 2 0 0 1-1 2l-2 1h-1Zm-28-31h-4l-2-1a2 2 0 0 1-1-3l1-2v-1a2 2 0 0 1-3-2v-3l2-5 2-1 1-1 2 1 3 3 1 1 1 2v2l1 1h1l1-1h3l1 1 1 2v2l-2 1h-1l-3 2h-2l-1 1-1 1h-1Zm-49-12-2-1-1-1v-2l1-3 2-1 3 1 1 2v2l-1 1-1 1-2 1Zm51-25h-1l-1-1-1-1-1-2 1-2 1-1h3l3-1h4a2 2 0 0 1 1 4l-4 2-2 1-2 1h-1Zm15-9v-1l-5-2h-1l-5-5v-2l1-3a2 2 0 0 1 3 0l3 3h3l3-1h1l-2-1v-1l-2-1h-1a2 2 0 0 1-3-2v-8l2-2h3l1 1 7-5 5-1a2 2 0 0 1 2 2v2h5l1-2a2 2 0 0 1 3 1l5 8v1l1 4v4a2 2 0 0 1-4 1l-1-2-2-2h-2l-3 2h-4v2l-2 3v2l-1 1-5 3h-1l-4 1h-1Zm-28-14h-4a2 2 0 0 1-2-2l1-2 1-1 1-1 1-1 2-1h3v-6h1l3-11 3-3h3l4 3a2 2 0 0 1 0 3l-2 2-1 3-3 8v3l1 1-1 1-1 2h-6l-1 1h-1l-1 1a2 2 0 0 1-1 0Zm32-17-2-1-1-1v-1l-1-3-2-3-4-4a2 2 0 0 1 0-3l6-4h2l3 2h1l3 3 2 3-1 3-1 1v4l-1 2-1 1-3 1Zm4-30-2-1-1-3v-4l2-1 1-3a2 2 0 0 1 4 0v1l2 1 1 2v2l-1 1-2 1-2 2a2 2 0 0 1-2 2Z" transform="translate(122 270)" />
      </g>
      <g id="Tainan" class="cls-3">
        <path class="cls-11" d="m563 1013-8-1-8 1-16-2-5-3h-1l-3-8-6 3-1 1v-2l-1-6-2-3-3-4-1-1 1-1 4-3 3-5-1-5h-5l-1 1-1 3-2 3h-5l-1-2v-8l-1-2-3-1-1 2-2 2v1h-4v1-1l-3-2h-1v-3 1l-1 1v1l-1-1-3-2-2-4v-1l1-1v-1h2v1l1 1 1 2 2 2v-4l2-3 3-2h4l2-1 1-2-1-1-9-2h-1v-4h8v-1l-4-4h-1l-2-3h-1v-1l1-4 1-1 2-1 3-1 1-2-1-3-1-3-1-1h1l-3 5h-2l3-10 1-1h2v2l1-3 2-2v-5l4-9 1-2h1l-2-2v-1l2-4v-1h1l5 2 9 2 7 1 5-2 3-5 6-4 6-5 5-4v-1l6-4 8-4 16-3h9l7 2 4 3h1l2 4v1l1 4 10 10v1l1 7v1l-1 14 1 4 4 3h3l5-2h1l5-1 4 1 8 1h1v1l-2 7h-1l-10 15-10 17-7 9-7 7-7 6-6 6-5 7-3 5-2 5v1h-1l-6 4-6 3-4 2v1l-4 1h-1Zm-81-65-2-1 4-13 1-1h1l1 1v1l-2 6-3 7Zm13-40h-2v-12h2v1h1v1l-1 8h-1 1v2Z" transform="translate(122 270)" />
        <path class="cls-12" d="m563 1012 5-1 3-3 7-3 6-4 2-5 3-6 6-7 6-6 6-6 8-7 6-8 10-17 11-15 2-7-8-1-4-1-5 1-6 2h-3l-5-4-1-4 1-14-1-8-10-10-1-5-2-4-4-3-8-2h-8l-15 3-8 4-6 4-5 5-7 5-5 4-3 5-6 2-7-1-9-2-5-2-2 4 4 3-3 1-2 1-3 9v5l-2 3-2 3v3l1 3 1 4-2 3-2 1-3 1-1 4 3 3 5 4v3h-8v2l10 2 1 2-1 3-3 1h-4l-3 2-1 2v7l3 3 3-1 2-3 2-2 4 2 1 2v7l1 2h3l2-2 1-4 1-1h7l1 6-3 6-5 3 4 4 2 4 1 6 6-4v1l4 8 5 3 16 2 8-1 8 1m-80-42 1-1v-1l-2-3-1-2-1-1-1 1 2 5 2 2m-2-22 3-7 2-7h-1l-4 14m7-20 4-8v-2h-1l-3 10m6-20v-3l1-8h-1v11m69 106-8-1-8 1h-1l-15-2h-1l-5-3-1-1-3-7-4 3a2 2 0 0 1-3-2l-1-6-1-3-4-3a2 2 0 0 1 0-3l4-4 3-5-1-3h-4l-1 3v1l-2 3h-5l-2-1-1-2v-9l-2-1-2 1-1 3-1 1h-5l-3-2v-1a2 2 0 0 1-3 0l-2-2-1-1-2-4v-1l1-1 2-2 2 1 1 1v1l1 1v1-2l1-1 1-2v-1l3-2h5l2-1v-1l-9-2-2-2v-2l2-2h5l-3-3-3-3v1l-3 6a2 2 0 0 1-4-1l4-13 3-2 2 1 2-1 2-1 1-1-1-3-1-1-1 3a2 2 0 0 1-4-2l3-10 2-1h2v-1l2-2v-4a2 2 0 0 1-3-1v-11a2 2 0 0 1 3-2l1 1 1 2-1 8v1l3-7v-1l1-2-1-2 2-4 2-2 5 2 9 2 7 1 5-2 2-4 1-1 5-4 7-4 4-5h1l6-5 8-4 16-3h9l7 2h1l4 3v1l3 4 1 5 10 10v1l1 7v1l-1 14 1 3 3 3h3l5-2h1l5-1 4 1 8 1a2 2 0 0 1 2 3l-2 6-1 1-10 15-10 17-7 8v1l-7 7-7 5-6 7-5 6-3 5-2 6-1 1-6 4h-1l-6 3-3 2-1 1-4 1h-1Z" transform="translate(122 270)" />
      </g>
      <g id="ChiayiCounty" class="cls-1">
        <path class="cls-11" d="M622 919h-5l-4-4h-1l-1-5 1-14-1-7-9-10v-1l-2-5-2-4-4-2-7-2h-8l-15 3-8 4-6 4-4 5-7 5-6 4-2 4v1l-7 3-8-2-8-2h-1l-5-2v-2h6l-2-1h-3l-1 2-1 3h-1l-2 2h-1v-2h-1l1-1 2-3 1-2 1-2 1-1v1h1v-2l2-5v-1h9l-3-9-3-5-1 2v1h1v5h-2v-7l1 1-1-2v-2l-1-2h1l2-4v-1l-2-1h-1v-1l1-2 1-2 1-2v-1l3-3h-7v-11l12-1h1l8 5h5l4-3 1-5 3-3 5-1 7-6 4-2 4-4 17-9 7-2 13-3h8l5 5 5 6 12 4h3l9-3h1l4 4 3 3h5l12-3 3-1v-8h8l7 3 4 1 6 3v7l-3 5 1 4 3 6v7l1 3 7 1h27l2 1-2 1-19 10-8 6-3 7h-1l-4 5-8 4-8 6-4 6-13 7-6 1-6-1-3 3v5l1 4 1 7v1h-1l-9-1-3-1-5 1-5 2Zm-37-67 6 2 7-3h4l3-2-3-6-2-4-4-2-5-2-8 1-8 2-4 3 1 5 6 2 7 4Zm-83 30-1-1h-1v-1l2-4v-1h2l2-1-1 2v2h-1l-1 3-1 1Zm5-23-1-1-2-2-1-3 2 1 2 1h1v1l-1 2v1Zm-33 0-1-1 4-5v-1l14-14 10-13h1l2-1 3-1-1 2-10 15-4 5-3 3-4 4-3 2-4 4h-1l-3 1Z" transform="translate(122 270)" />
        <path class="cls-12" d="m621 918 6-2 5-1 4 1 8 1-1-7-1-4v-5l3-4 7 1 6-1 12-7 5-5 8-6 7-5 5-5 3-6 9-7 18-10h-26l-8-2-1-3v-6l-3-7-1-5 3-5v-5l-5-3-4-1-7-3h-7v8l-4 1-12 3h-6l-2-3-5-4-8 3h-4l-13-5-5-5-5-5h-7l-13 3-7 2-16 9-4 4-4 2-7 6-6 1-2 3-1 5-4 3h-6l-9-5-11 1v9h8l-4 5-1 3-1 2-1 1 3 2v2l-2 3 4 8 4 11h-9l-2 6v3h2l2 1 2-2 1 3h-1l-4 1h-3l5 2 9 2 7 2 6-3 3-5 5-4 7-5 5-5 6-4 8-4 15-3h8l8 2 4 3 2 4 1 5 10 10 1 8-1 14 1 5 5 3h3m-30-84 6 2 4 3 2 4 3 6-3 3h-5l-6 3-8-2-7-4-6-3-1-5 4-4 9-2 8-1m-93 61 2-2 1-3 2-2-1-1-1 1-1 3-3 3 1 1m4-14 2-3v-2h-1l-2 4 1 1m5-9v-5 5m0-8 1-2h-1v2m-33-5 3-2 4-4 3-2 4-4 3-3 5-5 9-14h-3l-10 14-14 14-4 6m32-2 1-1-2-1 1 2m115 63h-5l-4-4-1-1-1-4v-1l1-14-1-7-9-10-2-5-2-4-3-2-7-2h-8l-15 3-7 3-6 5-5 5-6 5h-1l-5 3-2 5-1 1-6 2-2 1-7-2-9-2-5-2-1 1v1l-2 1a2 2 0 0 1-3-1v-3l2-2 1-3 1-2a2 2 0 0 1 2 0v-2a2 2 0 0 1-2-1v-1l-1-2 2-4 1-1h1a2 2 0 0 1 3 2v1h6l-2-8-1-1v5a2 2 0 0 1-4-1v-5a2 2 0 0 1 1-2l-1-1v-4h1v-1l-1-1-2-2a2 2 0 0 1 1-3l1-2v-1l2-2v-2h1l1-2h-4a2 2 0 0 1-2-2v-8l1-3 12-1h1l8 5h5l3-3 1-4h1l2-3 1-1 5-1 6-5 1-1 4-2 3-3 1-1 16-9h1l7-2 13-3h8l6 5 4 6 12 4h3l8-3 2 1 5 3 2 3h5l12-3h2v-7l2-2h7l1 1 6 2 4 1h1l5 3 1 2v5l-1 1-2 5 1 4 2 6 1 1v5l1 3 6 1h27a2 2 0 0 1 0 4l-18 9-8 7-4 6v1l-4 5h-1l-7 4-8 6-4 5-1 1-12 7h-1l-6 1-6-1-2 3v4l1 4 1 7a2 2 0 0 1-2 2l-9-1-3-1-5 1-5 2h-1Zm-36-69 6 2 7-3h4l1-1-1-6-3-3-3-2-5-2-7 1-9 1-3 3 1 4 5 2 7 4Zm-111 10a2 2 0 0 1-2-4l4-5 14-14 11-14h1l2-1a2 2 0 0 1 2 3l-9 14v1l-4 4-3 4-4 4-3 2-5 3v1l-3 1-1 1Z" transform="translate(122 270)" />
      </g>
      <g id="ChiayiCity" class="cls-2">
        <path class="cls-11" d="m591 856-7-2h-1l-6-4-6-3h-1v-1l-1-5v-1l4-4h1l9-2 8-1 6 2 4 3h1l2 4 3 7v1h-1l-3 2v1h-5l-6 3h-1Z" transform="translate(122 270)" />
        <path class="cls-12" d="m591 834-8 1-9 2-4 4 1 5 6 3 7 4 7 2 7-3h5l3-3-3-6-2-4-4-3-6-2m0-2h1l5 2v1l5 2 3 4v1l3 7-1 2-3 2-1 1h-4l-7 3h-1l-7-2h-1l-7-5-6-2-1-1-1-6 1-2 3-4h1l10-2 8-1Z" transform="translate(122 270)" />
      </g>
      <g id="Yunlin" class="cls-4">
        <path class="cls-11" d="M531 838h-7l-8-5-11 2h-3l2-2 4-5v-16l1-12v-1l2-9v-1h1l4-7 1-10 2-9 2-3 6-8 1-3 1-2 5-4 1-2h1l8 4 22-2h8l6 2 12 4 19 3h1l12 6h5l12 2 1-3 1 3 2 7v1l-2 4-1 7 1 8-2 6-1 5 4 4 5 2 7-2 8-1h1v1l3 3 1 2h-2v8h-1l-4 1v1l-12 2-6 1h-1v-1l-2-4-4-3-8 3h-5l-12-5h-1l-5-6-4-4h-7l-12 3-7 2-17 9-3 4h-1l-4 2-7 6-5 1-2 2-2 5v1l-4 3Z" transform="translate(122 269)" />
        <path class="cls-12" d="m536 742-1 2-5 4-1 1-1 3-6 8-2 3-2 9-1 10-5 8-2 10-1 12v16l-5 6 12-2 8 5h7l3-3 2-5 2-3 6-1 7-6 4-2 4-4 16-9 7-2 13-3h7l5 5 5 6 13 4h4l8-3 5 4 2 4 6-1 12-2 4-2v-8h1l-3-4-8 1-7 2-6-2-4-5 1-6 2-5-1-8 1-7 2-5-2-7-1 1-12-2h-6l-12-6-20-3-11-4-7-2h-7l-22 2-8-4m0-2h1l7 4 21-2h9l6 2h1l11 4 19 3h1l12 6h6l11 2a2 2 0 0 1 3 1l2 7v1l-2 5-1 6 1 8v1l-2 5-1 4 4 4 4 2 6-2h1l8-1 2 1 2 4a2 2 0 0 1 0 2v7l-1 2-4 1-1 1-11 2h-1l-6 1-2-1-2-4-4-3-7 3h-5l-12-5h-1l-5-6-5-4h-6l-12 3-7 2-16 9-4 3v1l-4 2-7 6h-1l-5 1-1 2-2 4v1l-4 4h-9l-7-5-11 2a2 2 0 0 1-2-4l4-4v-16l1-12v-1l2-10h1l4-8 1-9 2-9v-1l2-3 6-8 1-2v-1l1-1v-1l6-4v-1a2 2 0 0 1 2-1Z" transform="translate(122 269)" />
      </g>
      <g id="Changhua" class="cls-3">
        <path class="cls-11" d="m641 762-12-2h-6l-12-6-20-2v-1l-12-4-6-2h-7l-22 3h-1v-1l-8-4v-1l1-2 1-7 2-3 7-7 2-2 2-8 5-8 5-16 3-5 3-3 3-2 2-1 1-1 1-3 1-3 5-4 1-3 1-10 1-3 3-3 11-13h1l6 2 4 3 1 1 2 6 1 8 5 5 11 3h1l4 4 3 5 2 4v5l1 2 4 1h1l5 3v3l1 3v1h-1l-4 2-1 2 1 4h-1l-2 5-1 5v6l-1 6-1 13 2 6 3 3 4 2 5 3h1v1l-1 3v1h-1l-3 1-3 3-2 1-1 1h-1Z" transform="translate(122 269)" />
        <path class="cls-12" d="m597 636-11 13-3 3-1 2-1 11-1 3-5 4-1 2-1 3-1 2-3 1-2 2-3 3-3 4-5 16-5 8-2 8-2 3-7 7-2 3-1 7-1 1 8 5 22-3h7l7 2 11 5 20 2 12 6h6l12 2 1-1 3-1 2-2 4-2 1-3-6-3-4-2-3-3-2-6 1-14 1-6v-6l2-6 2-4-1-4 1-3 5-2-1-3v-2l-5-3-4-1-1-3-1-4-2-4-3-5-4-4-12-3-5-6-1-7-2-7-4-3-6-2m0-2h1l5 2h1l4 4h1l2 7 1 7 4 5 11 3 1 1 4 3 1 1 3 5 2 4v4l1 2 3 1h1l6 4v3l1 3-2 2-3 1-1 2v5l-2 4-1 5v6l-1 6-1 13 2 6 2 2 4 2 6 3 1 2-1 4-1 1-4 1-2 2v1l-3 1-1 1h-1l-12-2h-7l-11-6-20-2v-1l-12-4-6-2h-7l-22 3-1-1-8-4-1-3 1-1 1-7 2-3v-1l7-7 2-2 2-7 1-1 4-7 5-16 1-1 2-4 1-1 3-3 2-2h1l2-1v-1l1-2 1-3 1-1 5-4v-2l1-10 1-3 1-1 2-2 11-14h2Z" transform="translate(122 269)" />
      </g>
      <g id="Nantou" class="cls-4">
        <path class="cls-11" d="M739 859v-1l-1-2-4-5-5-2-4-1-1-1h-26l-7-1h-1v-1l-1-4-1-6-2-6-2-5 1-1 2-5 1-4-5-3-4-1-7-2-6-1-3-3h-7l-7 2v1-1l-6-2h-1l-4-5v-1l1-6 2-5-1-7v-1l1-7 2-4-2-7v-1l3-2 2-2h1l3-2 1-2-5-2-4-2-4-3v-1l-2-6h-1 1v-14l2-7v-5l1-6 2-4v-5l1-2v-1h1l3-1v-4h6l17 2h4l5-5 7-14 4-8v-1h1l6-3h1l10 1h5l6-7 3-2v-1l1 1 9 6h2l2-5 1-1 4-4h8l4-2 8-7 5-3h1l4-1 9-5h6l6-1 11-4h1l4-1 5 1 13 2v1l1-1 2 7v4h-1l-5 3-6 2-4 3 1 9 2 2 5 4h1l1 5v4l-8 11-5 10-2 8 1 2v1l2 4v8l-2 10-3 9-4 9-2 7v3l-1 1-5 9 2 3 3 4 1 6 1 7-1 9-3 13-2 5-5 3-7 3-4 5-1 8v1h-1l-5 4v1h-8l-7 2-5 3-1 4-2 2 2 6v1l-3 3-6 4h-2Z" transform="translate(122 269)" />
        <path class="cls-12" d="m807 625-4 1-11 4-7 1h-6l-9 5-4 1-5 3-8 7-5 2h-7l-5 4-2 5-4 1-9-6-3 2-5 7h-6l-11-1-6 3-4 9-7 14-5 5h-5l-17-2h-5v3l-4 2-1 3v4l-2 4-1 6v6l-2 6v14l2 6 3 3 4 2 6 3-1 3-4 2-3 2-2 1 2 8-2 4-1 8 1 7-2 6-1 5 4 5 6 2 7-2h8l3 3 6 1 6 2 5 2 5 2-1 6-3 5 2 5 2 6 1 6 1 4 7 1h26l1 1 4 1 6 2 4 6 1 2 6-4 3-3-2-6 2-2 1-4 6-4 7-2h7l6-5 1-9 4-5 8-3 4-3 2-5 3-12 1-9-1-7-1-5-3-5-2-4 6-9v-4l2-7 4-8 3-9 2-10v-8l-1-4-2-3 2-8 5-11 8-10v-4l-1-5-5-3-3-3-1-10 4-3 7-2 5-2v-4l-2-6-13-2-5-1m0-2h1l4 1 14 2 1 1 2 6v4l-1 2-5 3h-1l-6 2-3 2 1 8 2 3 5 3 1 1 1 4v6l-8 10-5 11-2 6 1 3 2 5v8l-2 10v1l-3 8v1l-4 8-2 7v3l-1 1-5 9 2 2 3 4v1l1 6 1 7-1 9-3 13-2 5-1 1-4 3h-1l-7 3-3 4-1 8-1 2-5 4-1 1h-8l-7 1-4 4-1 3v1l-1 1 1 6-1 2-3 3-6 3a2 2 0 0 1-3-1v-1l-4-5-5-2-4-1-1-1h-26l-8-1-1-2-1-3v-1l-1-5-2-7-2-5 1-1 2-5 1-3-4-3-4-1-7-2-6-1-1-1-2-2h-7l-7 2h-1l-6-2v-1l-4-4-1-2 1-6 2-5-1-7v-1l1-7 2-4-2-7 1-2 2-2 3-2 3-1v-1l-4-3-3-1h-1l-4-4-2-7v-14l2-7v-6l1-5 2-4v-5l1-3 1-1 3-1v-2a2 2 0 0 1 2-2h5l17 2h4l4-4 7-14 4-9 1-1 7-3h1l10 1h5l5-7 3-2h3l8 6h1l3-5v-1l5-3 1-1h6l5-1 7-8h1l5-3 5-1 8-5h7l6-1 11-4h1l4-1Z" transform="translate(122 269)" />
      </g>
      <g id="Taichung" class="cls-4">
        <path class="cls-11" d="M670 694h-1l-17-3h-6v-2l-4-3-5-1v-1l-2-3v-4l-2-4-3-5-4-3-11-3h-1v-1l-4-5h-1v-1l-1-7-2-6-4-3-6-2-1-1 1-1 1-3v-1h1l3-2 2-7 2-12h1l9-16 3-10 3-6 14-15v-1l1 1 9 15 5 5 6 5 15 11 7 4 7 1 11 6h12l5-3v-7h1l5-4h1l10 1 6 2v1h1l4 5 5 2 9-5 7-2 11-10 6-3 4-4h1l4-3h6l4-2 1-5 1-1 4-2v-1h1l10-1h1l3 1 3 1h1v1l-1 5 1 3 5 1 5 3 3 2h3l5-3h6l6 5 1 1-1 1-4 4-1 4-2 7h-1l-7 5-3 4-1 5v1l-3 4h-1l-3 1-1 2v1l-3 2h-1l-13-2-5-1-4 1-11 4-7 1h-6l-8 5h-1l-4 1-5 3-7 7h-1l-5 2h-6l-5 4-2 5-1 1h-3l-1 1v-1l-9-6-2 1-6 8-6 1h-1l-9-2-6 3-4 8-7 15h-1l-5 5-4 1Z" transform="translate(122 269)" />
        <path class="cls-12" d="m635 564-13 15-3 5-3 10-10 16-2 13-2 6-4 3-1 3v1l6 2 4 3 2 7 1 7 5 6 12 3 4 4 3 5 2 4v4l2 3 4 1 5 3v2h5l18 3 4-1 5-5 7-14 4-9 6-3 11 2 6-1 5-7 3-2 9 6h4l2-6 5-4h7l5-2 8-7 5-3 4-1 9-5h6l7-1 11-4 4-1 5 1 13 2 3-2 1-2 4-2 3-4 1-5 3-5 8-5 2-6 1-4 4-5-6-5h-5l-4 3h-4l-4-2-4-3-5-1-2-4 1-5-4-1-2-1-11 1-1 1-4 2-1 6-5 2h-6l-4 3-4 4-6 3-12 9-7 3-9 5-5-2-5-6-6-2-10-1-6 3v8l-6 3h-12l-11-6-7-2-7-3-15-11-7-6-5-5-9-14m0-2a2 2 0 0 1 2 1l9 14 5 5 6 5 15 11 7 4 6 1h1l11 6h11l4-2v-7l1-1 6-4h1l10 1h1l6 3 5 5 4 2 8-4 7-3 11-9 1-1 5-3 5-4 4-3h6l4-2 2-4v-2l4-2 1-1h1l10-1h1l3 1 3 1 2 2-1 5 1 2 4 1h1l4 3 3 2h3l5-3h5l2 1 6 4a2 2 0 0 1 0 3l-4 5-1 3v1l-2 6-1 1-7 4-3 5-1 5-4 4v1l-3 1-1 2h-1l-2 2-2 1-13-2-5-1-4 1-11 4-6 1h-6l-9 5-4 1-5 2-8 8-5 2h-7l-4 3-2 5-2 2h-5l-8-6-1 1-6 8h-1l-6 1h-1l-9-2-5 3-4 8-7 14-1 1-5 4-1 1-4 1h-1l-18-3h-4l-2-2-4-3-4-1-1-1-2-3v-5l-1-3-3-5-4-3-12-3-1-1-4-5-1-1-1-8-2-5-3-3-6-2a2 2 0 0 1-1-3l1-1v-3l1-1 3-2 2-6 2-12 1-1 9-16 3-9v-1l3-5v-1l14-14 1-1Z" transform="translate(122 269)" />
      </g>
      <g id="HsinchuCity" class="cls-3">
        <path class="cls-11" d="m719 491-4-1h-1v-1l-2-3-4-3-7-3h-1v-1l1-4h1l5-11v-1l2-2 1-2v-1l-1-2-1-2v-1l2-3 2-2h1l8 4 15 4 6 3 4 4v1l2 3v1l-1 4h-1l-2 2-5 1-6 2-3 4-2 5v1l-2 2-1 1h-1l-4 1h-1Z" transform="translate(122 269)" />
        <path class="cls-12" d="m720 490 4-1 3-3 2-6 3-4 6-2 5-1 3-2 1-3-2-4-4-4-5-3-15-4-9-4-1 2-2 3 1 2 1 2v2l-1 1-2 3-6 11-1 5 7 2 4 3 3 4 5 1m0 2h-1l-5-1-1-1-2-4-4-2-7-3-1-2 1-4h1l5-12 2-3 1-1v-1l-1-1-1-2v-2l2-3v-1l2-2h2l8 4 15 4 1 1 5 2 1 1 3 4h1l2 4v1l-1 4-1 1-3 1v1l-5 1-5 2-3 3-2 6h-1l-2 3v1h-1l-5 1Z" transform="translate(122 269)" />
      </g>
      <g id="HsinchuCounty" class="cls-4">
        <path class="cls-11" d="M803 573v-2l-1-5-4-7-3-4h-1l-1-4-4-4-12 4h-1l-4-1-7 1-8 2-4-1-1-1v-1l1-5 1-4-1-4-1-3 1-3 1-4v-8l-4-3-12-6-6-5-4-4-5-11v-1h1l2-3 2-6 4-5 6-2 5-1 2-1 1-3-2-3-3-4-6-3-15-4v-1l-8-3-1-1v-1l2-2v-4l1-2v-1l2-3h1l2-2h1l1-1v-1l1-2v-1l2-6 2-3 1-1h1l3 1h13v-1l1 1 4 3h1l4 9 4 1 4 2h1l4 2 6 2h1l3 4 1 1-1 5 3 4 6 2 4 3 3 3h8l4 4 2 4 4 3h1l3 2v1l1 5 1 7v1l-2 7v1l-4 6v3l5 4 6 4 5 1h1l4 3 7 4 5 2-1 1h1l-2 7-1 4v5l-4 6-14 14-4 10v1h-1l-3-1-10 1-1 1-1 1Z" transform="translate(122 269)" />
        <path class="cls-12" d="m804 571 1-1 10-1 3 1 4-11 14-14 4-6v-4l1-5 2-6-4-2-8-5-4-2-5-1-6-4-6-4v-4l4-7 2-8-1-7-1-5-3-3-4-2-3-4-3-4h-8l-3-3-4-3-7-3-3-3 1-6-4-4-7-2-4-2-4-2-5-2-4-8-5-3-14 1-3-2-2 4-2 6-1 3 1 1-3 1-3 2-2 3-1 3v4l-2 2 9 4 15 4 5 3 4 4 2 4-1 3-3 2-5 1-6 2-3 4-2 6-3 3 5 11 4 5 6 4 12 6 4 3v9l-1 4-1 3 1 3 1 4-1 5-1 5 4 1 8-2 7-1 5 1 12-4 5 4 1 5 4 3 4 8 1 5m0 2a2 2 0 0 1-2-2l-1-4-4-8-3-3-1-1-1-3-3-3-12 2-1 1-4-1-7 1-7 2h-1l-4-1-2-3 1-5 1-4-1-3-1-3v-2l1-3 1-3v-8l-3-2-12-6h-1l-6-5-4-4v-1l-5-11 1-2 2-3 2-5v-1l4-4 1-1 6-2 5-1 1-1 1-2-2-3-3-3-5-3-15-5-8-3a2 2 0 0 1-1-3l1-2v-4l1-3h1l2-3v-1l3-2h1v-1l1-3 2-6h1l2-4h19l5 3 1 1 3 8 4 1 5 2 4 2 7 2h1l3 5 1 1-1 5 2 3 6 2h1l4 3 3 3h6l2 1 3 3 1 1 2 4 4 2 4 2v2l1 5 1 7v1l-2 8-4 6v3l5 3 5 4 6 1 4 3 7 4 5 2 1 2v1l-2 6-1 4v6l-4 5v1l-14 14-4 10-2 1-3-1-10 1-1 1Z" transform="translate(122 269)" />
      </g>
      <g id="Miaoli" class="cls-3">
        <path class="cls-11" d="M696 613v-1l-12-6-6-1h-1l-7-4-15-11-7-6-4-5-10-14v-2l8-8 1-3 1-7 2-6h1l5-10 2-6 2-3v-1l7-2 1-1 1-3 2-2v-1l4-4 5-3v-1l6-1 6 1-1-4v-1l3-4 4-3 2-6 1-2 3-2v-1l1-1 1 1 7 2 4 3 3 4 4 1 4-1v1h1l5 11 3 4 6 4 12 6h1l3 3 1 1 1 5-1 4v1l-1 3-1 3 1 2v1l1 4-1 5-1 4 3 1 8-3h12l12-3h1l5 4v1l1 4 4 3 4 8v1l1 5v1l-4 2-2 5v1l-5 2h-5l-4 3-5 4-6 3-11 9-1 1-6 2-9 5h-1l-6-2-5-6-5-2-10-1-5 3-1 7v1l-5 3h-1l-12 1Z" transform="translate(122 269)" />
        <path class="cls-12" d="M701 480v1l-4 2v2l-2 5-4 4-3 4 1 5-7-1-6 1-4 4-4 4-2 3-1 2-2 2-7 2-1 3-2 6-6 11-2 5-1 7-2 4-7 8 9 14 5 5 6 6 16 11 7 4 6 1 12 7 12-1 5-3 1-7 6-4 10 1 6 3 5 5 5 2 9-4 7-3 12-10 5-3 5-4 4-3h6l5-2 1-6 4-2-1-5-4-8-3-3-2-5-5-4-12 3h-12l-8 3-4-1 1-6 1-4-1-4-1-3 1-3 1-4 1-4-1-5-4-3-12-6-6-4-4-5-5-11-4 1-5-1-2-4-5-3-7-2m0-2h1l7 2 5 3v1l3 3 3 1 3-1a2 2 0 0 1 3 1l5 11 3 4 6 4 12 6 4 4 1 1 1 5v1l-1 3v1l-1 3v5l1 4v1l-1 5v3h1l8-1v-1h12l12-3 1 1 5 4 1 1 1 4 3 3h1l4 8v1l1 4-1 2-3 3-2 5-1 1-5 2h-5l-4 2-4 5h-1l-5 3-12 9-7 3-9 5h-2l-5-2-1-1-4-5-6-2-9-1-4 3-1 6-1 2-5 3h-1l-12 1-1-1-11-6-6-1-1-1-7-3h-1l-15-11v-1l-6-5-5-5v-1l-9-14v-2l7-8 1-4 1-6 3-6 5-10 2-7 2-3 1-1 6-1 1-2 1-2h1l1-3 4-5h1l4-3 1-1 6-1 5 1-1-3 1-1 2-4h1l3-4 2-5 1-2 1-1 2-2a2 2 0 0 1 2-1Z" transform="translate(122 269)" />
      </g>
      <g id="Taoyuan" class="cls-3">
        <path class="cls-11" d="M844 525h-1l-5-2-7-5-4-2-5-1h-1l-6-4-5-4h-1v-6l4-6 2-8-1-7-1-4-3-3-4-2-3-5-3-3-3 1h-1l-3-1h-1l-3-3-4-3-6-2-1-1-3-3-1-1h1l1-6-4-3-6-2-4-2-5-2-5-2-4-9-4-2-14 1-3-2h-1v-1l9-14 7-9 8-6 18-6 4-3 4-3 5-3 9-3 20-3 1-1v1l4 4 6 3h1l4 3 3 3 4 1 5 2v1l5 7v1l1 4-1 4v1l-4 3-13 4-3 4v6l-1 5 1 5 5 5 1 6-1 6 4 2h8l5 2 9 13v1l-1 5h-1l-3 4 1 4 2 6 8 8 3 6v1h-1l-3 1-4 3 3 12v1l-3 4-4 1h-3l-3 1-1 1v1Z" transform="translate(122 269)" />
        <path class="cls-12" d="m843 524 1-2 4-1h3l3-1 3-4-3-12 5-4 3-1-2-5-9-9-2-5-1-6 4-3 1-6-8-12-5-2h-8l-5-3 1-6-1-5-5-5-1-6 1-5v-7l3-4 14-4 3-3 1-4-1-4-5-8-4-2-4-1-3-3-5-3-6-3-5-5-20 4-9 3-4 3-4 3-4 3-19 6-7 6-7 8-9 14 3 2 14-1 5 3 4 8 5 2 4 2 4 2 7 2 4 4-2 6 4 4 7 2 4 3 3 3 4 1 4-1 3 4 3 4 4 3 3 2 1 5 1 7-2 8-4 7v4l5 4 7 4 5 1 4 3 8 4 4 2m0 2h-1l-4-2v-1l-8-4-4-2-5-1v-1l-7-3-5-4-1-2v-5l5-7 1-7-1-6v-1l-1-4-2-2-4-2-1-1-3-4-2-3-3 1h-1l-4-1-1-1-3-3-3-3-7-2-4-4v-6l-2-3-6-2-1-1-4-1-4-2-5-2-1-1-4-8-3-2-13 1-1-1-3-1a2 2 0 0 1-1-3l9-14 7-8v-1l7-6h1l18-6 4-3 3-3h1l4-2 1-1 9-3 20-3h2l4 4 6 3 5 4 3 2 3 1h1l4 2 1 1 5 8v1l1 4-1 5h-1l-3 4h-1l-13 4-2 3v6l-1 5 1 5 5 4v1l1 5v1l-1 5 4 2h7l5 2 1 1 9 12v2l-2 5v1l-2 3v4l1 5 9 8v1l3 5a2 2 0 0 1-1 3l-3 1-4 3 3 11-1 1-2 4-1 1-3 1h-4l-3 1v1a2 2 0 0 1-2 1Z" transform="translate(122 269)" />
      </g>
      <g id="Hualien" class="cls-2">
        <path class="cls-11" d="m814 954-8-2h-1l-12-10-9-15-5-2-6-1h-1l-5-5-6-3-7-2h-1v-1l-5-8-1-8-1-2-2-7-6-5-6-4-1-4v-1l1-3v-1h1l5-2 3-4-2-6v-1l6-3 3-3-2-5v-1l2-3 1-4h1l5-4 8-2h7l5-4 1-9 4-5 1-1 7-2 4-3 2-5 3-12 1-9-1-7-1-5-3-4-2-4h-1l1-1 5-9 1-4 2-7 4-8 3-9 2-10v-7l-2-5-2-3v-1l3-7 5-11 8-10v-4l-1-4-5-3-3-3-1-1v-10l1-1 3-3h1l6-2 5-2v-3l-2-6v-1h1l2-2 1-2h1l3-2 3-3 1-5v-1l3-5 8-4 2-6v-5h1l4-5h2l2 2 6 3 15 4 9 3h6l4-4 2-6h1l4-1h1l18 11 11 2h2v1l2 3v2l-1 2-6 6-6 9h-1l-4 3-1 2v2l-1 2-6 5-3 2-3 6-2 12v1h-1l-7 11-1 4v4l2 5 1 2 1 1 1 2v4l-1 3-3 6-1 3v7l-4 16-6 17-8 40v1l-5 9-11 64v2l-1-1-3-1-11 5-3 5 1 7h1v7l-4 7-3 5-3 7-2 8-4 8-5 13-3 6v13h-1v1l-6 3-1 1Z" transform="translate(122 269)" />
        <path class="cls-12" d="m855 588-5 5v4l-2 6-8 5-3 5-1 5-3 4-4 2-1 2-3 2 2 6v4l-5 2-7 2-4 3v10l3 3 6 4 1 4v4l-8 10-5 11-3 8 2 3 2 5v7l-2 10-3 9-4 8-2 7-1 4-5 10 2 4 3 4 1 5 1 7-1 9-3 12-2 5-4 4-8 2-4 6-1 8-6 5h-7l-8 2-5 4-1 4-2 2 2 7-3 2-6 4 2 6-3 5-6 2-1 3 1 4 5 4 7 5 2 8 1 2 1 8 5 8 8 3 6 2 5 5 6 1 6 2 9 16 12 9 8 2 7-4v-13l3-6 5-13 4-8 2-9 3-6 4-5 3-7v-7l-2-7 4-6 11-5 3 1 11-64 5-10 8-40 6-17 4-16v-7l1-3 3-6 1-4v-4l-2-1-1-3-2-5v-5l1-4 8-11 3-12 2-6 3-3 6-5 1-1v-2l1-2 5-4 6-9 6-5 1-3v-1l-2-3h-1l-11-2-19-11-4 1-2 6-5 4h-7l-8-3-15-4-6-3-3-2m0-2h1l3 2 6 3 15 4 8 3h5l4-4 2-5 2-1 4-1h1l18 11 11 2h1a2 2 0 0 1 1 0l1 1 2 3v3l-1 3h-1l-5 6-7 8v1l-4 3-1 1v3l-1 1v1l-7 5-2 2-3 6-2 12h-1l-7 11-1 4v4l2 5 1 1 1 1v1l1 1v5l-1 3v1l-3 5-1 3v7h-1l-3 16v1l-6 17-8 40-5 10-11 64a2 2 0 0 1-2 1l-3-1-10 5-3 4 1 6 1 1v8l-4 7-3 5-3 6-2 8v1l-4 7-5 13v1l-3 5v13l-1 2-7 3-1 1-8-2h-1l-12-10h-1l-8-16-5-1-6-1h-2l-4-5-6-3-8-2-1-1-5-8v-1l-1-7v-1l-1-2-2-7-6-4-5-4-1-1-1-4v-2l1-3 1-1 5-2 3-4-2-5 1-2 6-3 2-2-2-5v-2l2-2 1-4 1-1 5-4h1l7-2h7l5-4 1-8v-1l4-5 1-1 8-2 3-3 2-4 3-13 1-8-1-7-1-4-3-4v-1l-2-4v-1l5-9 1-4 2-7 4-9 3-8 2-10v-7l-1-4-2-3-1-2 3-7v-1l5-10v-1l8-10v-3l-1-3-5-3-3-4-1-1v-10l1-1 4-3v-1l7-2 4-2v-2l-2-6 1-2 2-2 1-1 1-1 3-2 3-3 1-5 3-5 1-1 7-4 2-5v-4l1-2 5-4 1-1Z" transform="translate(122 269)" />
      </g>
      <g id="Yilan" class="cls-3">
        <path class="cls-11" d="m937 605-2-2h-1l-11-2-18-11-3 1-2 5v1h-1l-5 4h-7l-8-3-15-4h-1l-6-3-3-2-5-4h-5l-4 2h-5v1-1l-4-2-4-3-5-1h-1l-1-4v-5l-2-1h-1v-1l4-11 14-14 4-6-1-4 2-5 2-6 1-2v-1l4-1h4l3-1 1-3-3-12v-1h1l5-4h1l3-1 5-2 5-1 4-3v-1l5-3 6-3 4-3-1-1-1-3v-5l2-5h1l4-4 4-3 13-5 14-8 6-2 5-4 3-4 3-5 4-2 4-1 4-3 1-3-2-3v-1l1-3h1l11-3 4-2 8-4v-1l6-1h1l3 2h1v2h1l-1 1-12 6-5 5-19 22-3 5-2 7-1 7-1 8v7l4 15v1l-1 4-1 4v7l3 6 7 4 7 1h1v4h-7l-3 1-1 1 3 4 1 7-1 6-6 4v4l2 3 1 3-1 1-2 2-6 4-7 7v11l-1 2-1 2-1 3-1 7v2l-1 1-1 1 1 1h1v1l1 1h-1v2Zm49-150h-5l-1-1-2-3-2-2h3l1 1 2-2h1l2 1h1l1 2 1 1h-1v2l-1 1Z" transform="translate(123 269)" />
        <path class="cls-12" d="m987 407-6 1-9 5-3 2-12 3-1 3 2 3-1 4-5 3-3 1-4 2-3 4-3 5-5 4-7 2-13 8-13 5-4 2-5 4-2 5v5l1 3 1 2-4 3-7 3-5 3-3 4-5 1-6 2-3 1-6 4 3 12-2 4-3 1h-3l-4 1-1 2-2 6-2 5 1 4-4 6-14 15-4 10 4 1-1 6 1 3 5 1 5 3 3 2h4l5-2h5l6 4 2 2 7 3 15 4 8 3h7l5-4 2-6 4-1 18 11 12 2h1l-2-2 1-1 1-2v-1l1-7 1-3 1-2 1-3v-10l7-8 6-4 3-2-1-3-2-3v-5l6-4 1-5-1-7-3-5 2-1 2-1h7v-2l-8-1-6-4-4-6v-9l1-3 1-4-4-16v-7l1-8 1-8 2-7 3-4 19-23 6-5 12-6-1-1-3-2m-4 42-3 2-1-1 2 3 1 1h4v-2l-1-3h-2m4-44h1l3 2v1l1 1a2 2 0 0 1 0 3l-12 6-5 4-19 23-3 4-2 7-1 7-1 8v7l4 15v1l-1 4-1 4v7l3 5 6 4 7 1 2 2v2a2 2 0 0 1-2 2h-6l-2 1 1 3 1 1 1 6v1l-1 6-1 1-5 3v4l2 2v1l1 2-1 2-2 3h-1l-6 3-6 8v10l-1 3-1 2-1 3-1 6v2l-1 1v2a2 2 0 0 1-1 3h-2l-11-2h-1l-17-11-2 1-2 5h-1l-5 5h-8l-9-3-15-4-6-3h-1l-2-2-6-4h-3l-5 2h-6l-3-2-5-3-4-1-2-1-1-4v-4l-2-1a2 2 0 0 1-1-3l4-10 1-1 14-14 3-5-1-4 1-1 1-4 2-7 1-1 1-2 4-1h4l2-1 1-2-3-12 1-2 6-4 3-1 6-2 4-1 4-3 5-4 7-3 3-2v-1l-1-3h-1v-5l2-5 1-1 5-4 4-3 13-5 13-8h1l6-2 4-3 3-5 3-4 1-1 4-2 3-1 4-2 1-3-2-2v-2l1-3 2-1 11-3 3-2 9-4v-1l6-1h1Zm-4 42 2 1h1l2 3v4l-2 1h-5l-1-1-1-1-2-3a2 2 0 0 1 2-3l1 1 2-2h1Z" transform="translate(123 269)" />
      </g>
      <g id="Keelung" class="cls-2">
        <path class="cls-11" d="M932 391h-1l-5-1-11-4v-1l-3-2-4-3-2-4h-1l-1-3-3-4-1-3v-1h1l3-3 7-3 4-3h1l2 1 2 3 4 1 11 3 4 1-3 1v14l3 3 1 1h-1v3l-3 2-4 2Z" transform="translate(123 269)" />
        <path class="cls-12" d="m916 357-4 3-8 3-3 2 1 3 3 4 1 4 3 3 4 3 3 3 10 4 6 1 4-2 2-2v-2l-3-4v-15l-11-3-4-1-3-3-1-1m0-2 1 1h1l1 1 2 2 3 1 11 3a2 2 0 0 1 2 2v14l3 3v5l-1 1-2 2h-1l-4 2h-1l-5-1-11-4v-1l-3-2h-1l-3-3v-1l-3-3v-1l-2-3-3-3v-1l-1-3 1-2 3-2 1-1 7-3 4-2 1-1Z" transform="translate(123 269)" />
      </g>
      <g id="Taipei" style="fill:#58a3a9;stroke-linecap:round;stroke-linejoin:round">
        <path class="cls-11" d="M893 416h-6l-5-1-4-4-4-4-5-5h-1l-3-7h-1l2-7-1-6-6-6-4-4v-1l2-3 2-2 2-5 4-4 11-7 2-2h1l4-2 4 1h1l2 2v8l3 7 3 9 3 4h1l1 5-1 7v4l4 2 4 4v1l-2 4-8 10-4 2h-1Z" transform="translate(123 269)" />
        <path class="cls-12" d="m893 415 4-2 8-9 2-5-4-3-4-2v-6l1-6-1-5-4-3-3-10-3-7v-7l-2-2-4-1-4 2-3 2-11 7-3 4-2 4-2 3-2 3 4 4 6 5 1 7-2 7 4 7 6 4 4 5 4 3 4 1h6m0 2h-6l-5-1-1-1-3-3h-1l-3-4-6-5-4-7-1-1 2-7-1-6-5-5-4-4-1-2 2-3v-1l2-2 2-4v-1l4-4 11-7 3-2 4-2h2l4 1 3 3v8l3 6 2 10 4 3v1l2 4v1l-1 7v3l3 2 1 1 3 3 1 2-2 5-8 10a2 2 0 0 1-1 0l-4 2h-1Z" transform="translate(123 269)" />
      </g>
      <g id="NewTaipei" class="cls-2">
        <path class="cls-11" d="m861 500-2-6-9-8v-1l-2-5-1-5v-1h1l2-4 2-4-8-12-5-2h-8l-5-3v-1l1-6-1-5-5-5-1-5v-1l1-5v-7l3-4h1l13-4 3-3 1-4-1-4-5-7-4-2-4-1-3-3-5-3-6-3-4-5-2-1h2l11-2 5-2 6-5 2-1 2-1h4l3 1h1v1l2 2v1l1 2 1 1 2-1-3-4-6-6-3-2v-1l1-3 2-2 2-1 2-5 4-6v-1l6-5 1-1 9-4v-1l12-2 11 1 5 4 10 14 3 7h1l2-1h7v2l-1 1-1 1v4l2 1h3l-2 2-5 3-7 3-3 2 1 2 3 3v1l1 3 3 3 4 4 3 2 10 4 5 1 3-2 2-1 1-2-4-3v-17h1l35 9 3 2h1v1l-2 3v3l1 5 2 9 2 3 2 1 7-1h4l4 2 4 2 2 2 1 1-1 1-9 4-1 1v-1l-1-1-3-2-5 2-8 4-4 2-11 3-1 2 2 3h1l-1 1-1 3v1h-1l-4 3-4 1-3 2-4 4-3 5-5 4-6 2-14 8-13 5-3 2-5 4-2 5v4l1 3 1 2-1 1-3 3h-1l-6 3-5 3-4 4-5 1v1l-6 1h-1Zm27-86h5l4-1 7-10 2-3-3-3-5-2v-7l1-6-1-4-4-3v-1l-3-10-3-6v-8l-1-1-4-1-3 1-3 3-11 6-3 4-2 5h-1l-1 2-1 2 3 4 6 6 1 6v1l-1 7 3 6 6 5 4 4 3 3 5 1Z" transform="translate(123 269)" />
        <path class="cls-12" d="m877 323-11 2-10 5-7 6-3 6-2 5-1 1-2 1-1 2-1 2 3 2 6 6 3 6-3 1-2-1-1-3-2-3-3-1h-3l-3 1h-2l-6 6-4 1-12 3 5 4 6 3 5 3 3 3 4 1 4 2 5 8 1 4-1 4-4 4-13 3-3 4v7l-1 6 1 5 5 5 1 5-1 7 5 2h7l5 2 9 12-2 6-3 3 1 6 1 5 9 9 3 5 6-1 5-2 3-4 5-3 7-3 4-3-1-2-1-3v-4l2-5 5-4 4-3 13-5 13-8 7-2 5-4 3-5 3-4 4-2 3-1 5-3 1-4-2-3 1-3 12-3 3-2 9-4 6-2 3 2 1 1 8-4-2-3-3-1-5-2h-3l-7 1-2-1-3-4-2-9-1-5v-3l2-3-3-2-35-9v15l4 4-1 2-2 2-4 2-5-1-11-4-3-2-4-4-3-3-1-4-3-4-1-3 3-2 8-3 4-3-2-1-1-2v-2l1-2 1-1v-1h-5l-3 1h-1l-4-7-10-14-4-4-11-1m21 90-5 2h-5l-5-1-4-3-4-5-6-4-3-7 1-7-1-7-6-5-4-4 2-3 2-3 2-4 3-4 11-7 3-2 4-2 4 1 2 2v7l3 7 3 10 4 4 1 4-1 7v5l4 2 4 3-2 5-7 9m-21-92 11 1 1 1 4 3h1l10 15 3 6 2-1h6l2 2v1l-1 1-1 1v3l2 2a2 2 0 0 1 0 3l-4 3h-1l-7 3-1 1v2l2 3h1l1 4 3 3 3 3 3 2 10 4 4 1 4-2 1-1h1l-4-4v-16a2 2 0 0 1 3-2l34 9h1l3 2 1 2-2 4v2l1 5 2 8 2 4h1l7-1h4v1l4 1h1l3 2h1l2 3a2 2 0 0 1-1 3l-8 4-3-1h-1l-2-2-5 1-8 5-3 2h-1l-10 3-1 1 2 2v2l-1 4-1 1-5 3-4 1-3 2-3 3-3 5v1l-5 4h-1l-6 2-13 8-13 5-4 2-4 4-2 4v3l1 3v1l1 2-1 2-4 2v1l-7 3-4 3-4 3-1 1-5 1-6 2-2-1-2-5-9-8v-1l-2-6-1-5 1-2 3-3 1-4-8-11-4-2h-8l-5-3-1-2 1-6-1-4-5-5v-1l-1-5v-1l1-5v-8l4-4h1l12-4 3-3 1-3-1-3-4-7-4-2-4-1h-1l-3-3-4-3-6-3h-1l-4-5a2 2 0 0 1 1-3l11-2 4-2 6-5h1l1-1h1l2-1h4l3 1-2-2-3-2-1-2 1-3v-1l2-1 1-1h1v-1l2-5h1l3-6 7-6 10-5v-1l11-2h1Zm9 29-3-1-3 1-2 3h-1l-10 6-4 4-1 4h-1l-1 3-1 1 3 3 5 6 1 1 1 6v1l-1 7 3 5 5 5h1l3 4 4 3 4 1h5l3-1 7-9 2-3-3-2-4-3-1-1v-6l1-6-1-3-4-4v-1l-3-9-3-7v-7l-1-1Zm-38 16v-1 1Z" transform="translate(123 269)" />
      </g>
      <g id="Kinmen" class="cls-3">
        <path class="cls-11" d="M30 584h-1l-3-2h-3l-3-1-1-3h-1l1-1 2-3 1-1v-4l-1-4-1-5h-1v-3h1l1-1 8-4 1 1 10 6 5-1 2-8 2-6h1l7-2h1v1l7 6v1l5 12v1l-1 8v1l-4 5h-1l-7-4-5-2-7 1-7 4-4 6-4 2Zm-26-5-3-1H0v-1l5-10v-1l2-1 2-1h3l2 2 2 2v4l-1 2h-1v1h-2l-1 1v1h-1l-1 1-5 1Zm327-164v-1l-2-1v-1l1-3v-1l3-1h3v3l-1 2v1l-3 1-1 1Z" transform="translate(121 269)" />
        <path class="cls-12" d="m30 583 3-2 4-6 7-4 8-1 5 2 7 4 4-5 1-8-5-13-7-7-7 2-3 5-1 9-7 1-10-7-7 4-2 1v2l2 4 1 5v4l-1 1-2 3v1l1 2 2 1h3l4 2m-26-5 5-1 1-1 1-1 1-1h2l1-3v-3l-1-1-2-2H9l-2 1-1 1-5 10 3 1m327-165 3-1 1-2v-2h-2l-2 1-1 3 1 1M30 585h-1l-4-2h-3l-2-1-1-1-1-2v-3l2-3h1v-4l-1-4-1-4-1-1v-2l1-2 2-1 7-3h2l10 6 5-1 1-7 2-6 1-1 8-2 2 1 7 6v1l5 13v1l-1 9v1l-4 4-3 1-7-5-4-1-7 1-6 4-4 6h-1l-3 2h-1Zm-26-5H3l-3-1a2 2 0 0 1-1-3l5-10h1l1-2h1l2-1h4l2 2 2 2v6l-2 2-1 1h-1l-1 1-1 1h-1v1l-5 1H4Zm327-165h-1l-1-1-1-2 1-3 1-2 2-1h3l2 2v3l-1 2-1 1-3 1h-1Z" transform="translate(121 269)" />
      </g>
      <g id="Lienchiang" transform="translate(588 269)">
        <g id="TWN5128" class="cls-1">
          <path class="cls-11" d="m458 107 1-3 2-4 1-1h3l1-1v4l-2 2-3 2-3 1Zm-4-5-1-1-2-3v-1h1l3-1h1l2 1 1 1-1 1-2 1-1 1-1 1Zm-2-41h-1l-2-2-1-2v-1l1-2 1-2 1-1h1v2l2 1 3-2h4v3l-3 3-4 2h-1v1h-1Zm10-12-1-1-1-1h-1v-5l1-2 1-1h2l1-1 2-1h3l1 2 1 1v3l1 2-2-1h-2l-1-2-1 1h-2l-1 1-1 3v2ZM571 9l-1-2h-1l-2-1h-1l1-1 1-1-1-1 1-1 2-2h1l2 1h1v2h1l1 1-1 1h-2l-1 1-1 1v2Z" transform="translate(-449 -1)" />
          <path class="cls-12" d="m460 105 4-2 1-2v-1h-1v1l-2-1-2 5m-6-4 2-2 1-1-2-1-3 1 2 3m-2-41h1l5-3 2-2v-2h-2l-4 2h-1l-2-1v-2l-1 1v1l-1 2 1 2 2 2m9-13 1-4 1-1h2l2-1h1l1 2h1v-2l-1-2-1-1h-2l-2 1-2 1-1 1-1 1v5h1M570 7l1-2 1-1h2l-1-1V2l-2-1-2 1-1 1 1 1-1 1 1 1h1v1M460 107a2 2 0 0 1-2-3l2-5 3-1h2a2 2 0 0 1 2 2v3l-2 1-1 1-3 1-1 1Zm-6-4a2 2 0 0 1-1-1l-2-3a2 2 0 0 1 1-3l2-1h2l2 1a2 2 0 0 1 0 4h-1l-1 2-2 1Zm-2-41-1-1-2-1-1-1-1-2v-1l1-2v-1l1-1 1-1h1a2 2 0 0 1 2 1v1h1l2-2h4l2 2v2l-1 1-2 3h-1l-4 2h-1l-1 1Zm9-13h-1l-1-1-1-1v-6l1-1 1-1 1-1h2v-1l2-1h3l2 1 1 1 1 1v3a2 2 0 0 1-2 3h-1l-2-1v-1l-1 1h-2l-1 4a2 2 0 0 1-2 1ZM570 9l-1-1h-1l-1-1a2 2 0 0 1-1-3l1-3h1l2-2h2l2 1 1 1v1l1 1a2 2 0 0 1-1 3h-2l-1 2a2 2 0 0 1-2 1Z" transform="translate(-449 -1)" />
        </g>
      </g>
    </g>
    <g id="texts">
      <g id="Yilan-t" transform="translate(-38 310)"><text id="宜蘭縣" class="cls-7" transform="translate(1104 406)">
          <tspan x="0" y="0">宜蘭縣</tspan>
        </text></g>
      <g id="Hualien-t" transform="translate(-105 526)"><text id="花蓮縣" class="cls-7" transform="translate(1104 406)">
          <tspan x="0" y="0">花蓮縣</tspan>
        </text></g>
      <g id="Taitung-t" transform="translate(-197 778)"><text id="台東縣" class="cls-7" transform="translate(1104 406)">
          <tspan x="0" y="0">台東縣</tspan>
        </text></g>
      <g id="Pingtung-t" transform="translate(-310 866)"><text id="屏東縣" class="cls-7" transform="translate(1104 406)">
          <tspan x="0" y="0">屏東縣</tspan>
        </text></g>
      <g id="Kaohsiung-t" transform="translate(-310 763)"><text id="高雄市" class="cls-7" transform="translate(1104 406)">
          <tspan x="0" y="0">高雄市</tspan>
        </text></g>
      <g id="Tainan-t" transform="translate(-388 723)"><text id="台南市" class="cls-8" transform="translate(1104 406)">
          <tspan x="0" y="0">台南市</tspan>
        </text></g>
      <g id="ChiayiCity-t" transform="translate(-361 622)"><text id="嘉義市" class="cls-7" transform="translate(1104 406)">
          <tspan x="0" y="0">嘉義市</tspan>
        </text></g>
      <g id="ChiayiCounty-t" transform="translate(-283 638)"><text id="嘉義縣" class="cls-7" transform="translate(1104 406)">
          <tspan x="0" y="0">嘉義縣</tspan>
        </text></g>
      <g id="Yunlin-t" transform="translate(-388 558)"><text id="雲林縣" class="cls-7" transform="translate(1104 406)">
          <tspan x="0" y="0">雲林縣</tspan>
        </text></g>
      <g id="Changhua-t" transform="translate(-349 479)"><text id="彰化縣" class="cls-8" transform="translate(1104 406)">
          <tspan x="0" y="0">彰化縣</tspan>
        </text></g>
      <g id="Nantou-t" transform="translate(-222 511)"><text id="南投縣" class="cls-8" transform="translate(1104 406)">
          <tspan x="0" y="0">南投縣</tspan>
        </text></g>
      <g id="Taichung-t" transform="translate(-261 411)"><text id="台中市" class="cls-7" transform="translate(1104 406)">
          <tspan x="0" y="0">台中市</tspan>
        </text></g>
      <g id="Miaoli-t" transform="translate(-236 325)"><text id="苗栗縣" class="cls-7" transform="translate(1104 406)">
          <tspan x="0" y="0">苗栗縣</tspan>
        </text></g>
      <g id="Taoyuan-t" transform="translate(-158 190)"><text id="桃園市" class="cls-8" transform="translate(1104 406)">
          <tspan x="0" y="0">桃園市</tspan>
        </text></g>
      <g id="HsinchuCounty-t" transform="translate(-171 275)"><text id="新竹縣" class="cls-7" transform="translate(1104 406)">
          <tspan x="0" y="0">新竹縣</tspan>
        </text></g>
      <g id="HsinchuCity-t" transform="translate(-238 244)"><text id="新竹市" class="cls-7" transform="translate(1104 406)">
          <tspan x="0" y="0">新竹市</tspan>
        </text></g>
      <g id="Penghu-t" transform="translate(-600 638)"><text id="澎湖縣" class="cls-7" transform="translate(1104 406)">
          <tspan x="0" y="0">澎湖縣</tspan>
        </text></g>
      <g id="Kinmen-t" transform="translate(-901 341)"><text id="金門縣" class="cls-7" transform="translate(1104 406)">
          <tspan x="0" y="0">金門縣</tspan>
        </text></g>
      <g id="Lienchiang-t" transform="translate(-458 -175)"><text id="連江縣" class="cls-7" transform="translate(1104 406)">
          <tspan x="0" y="0">連江縣</tspan>
        </text></g>
      <g id="Keelung-t" transform="translate(-2 144)"><text id="基隆市" class="cls-7" transform="translate(1104 406)">
          <tspan x="0" y="0">基隆市</tspan>
        </text></g>
      <g id="Taipei-t" transform="translate(-65 160)"><text id="台北市" class="cls-7" transform="translate(1104 406)">
          <tspan x="0" y="0">台北市</tspan>
        </text></g>
      <g id="NewTaipei-t" transform="translate(-66 223)"><text id="新北市" class="cls-7" transform="translate(1104 406)">
          <tspan x="0" y="0">新北市</tspan>
        </text></g>
    </g>
    <g id="points">
      <g id="points-2" data-name="points" transform="translate(1110 489)">
        <g id="Union_3" data-name="Union 3" class="cls-9">
          <path class="cls-11" d="M10620 1781a20 20 0 0 1-20-20 20 20 0 0 1 20-20 20 20 0 0 1 20 20 20 20 0 0 1-20 20Z" transform="translate(-10601 -1742)" />
          <path class="cls-12" d="M10620 1742a19 19 0 1 0 0 38 19 19 0 0 0 0-38m0-2a21 21 0 0 1 21 21 21 21 0 0 1-21 21 21 21 0 0 1-21-21 21 21 0 0 1 21-21Z" transform="translate(-10601 -1742)" />
        </g><text id="_96" data-name="96" class="cls-10" transform="translate(19 26)">
          <tspan x="-9.4" y="0">96</tspan>
        </text>
      </g>
      <g id="points-3" data-name="points" transform="translate(1047 505)">
        <g id="Union_3-2" data-name="Union 3" class="cls-9">
          <path class="cls-11" d="M10620 1781a20 20 0 0 1-20-20 20 20 0 0 1 20-20 20 20 0 0 1 20 20 20 20 0 0 1-20 20Z" transform="translate(-10601 -1742)" />
          <path class="cls-12" d="M10620 1742a19 19 0 1 0 0 38 19 19 0 0 0 0-38m0-2a21 21 0 0 1 21 21 21 21 0 0 1-21 21 21 21 0 0 1-21-21 21 21 0 0 1 21-21Z" transform="translate(-10601 -1742)" />
        </g><text id="_117" data-name="117" class="cls-10" transform="translate(19 26)">
          <tspan x="-14.1" y="0">117</tspan>
        </text>
      </g>
      <g id="points-4" data-name="points" transform="translate(1046 568)">
        <g id="Union_3-3" data-name="Union 3" class="cls-9">
          <path class="cls-11" d="M10620 1781a20 20 0 0 1-20-20 20 20 0 0 1 20-20 20 20 0 0 1 20 20 20 20 0 0 1-20 20Z" transform="translate(-10601 -1742)" />
          <path class="cls-12" d="M10620 1742a19 19 0 1 0 0 38 19 19 0 0 0 0-38m0-2a21 21 0 0 1 21 21 21 21 0 0 1-21 21 21 21 0 0 1-21-21 21 21 0 0 1 21-21Z" transform="translate(-10601 -1742)" />
        </g><text id="_91" data-name="91" class="cls-10" transform="translate(19 26)">
          <tspan x="-9.4" y="0">91</tspan>
        </text>
      </g>
      <g id="points-5" data-name="points" transform="translate(1073 655)">
        <g id="Union_3-4" data-name="Union 3" class="cls-9">
          <path class="cls-11" d="M10620 1781a20 20 0 0 1-20-20 20 20 0 0 1 20-20 20 20 0 0 1 20 20 20 20 0 0 1-20 20Z" transform="translate(-10601 -1742)" />
          <path class="cls-12" d="M10620 1742a19 19 0 1 0 0 38 19 19 0 0 0 0-38m0-2a21 21 0 0 1 21 21 21 21 0 0 1-21 21 21 21 0 0 1-21-21 21 21 0 0 1 21-21Z" transform="translate(-10601 -1742)" />
        </g><text id="_18" data-name="18" class="cls-10" transform="translate(19 26)">
          <tspan x="-9.4" y="0">18</tspan>
        </text>
      </g>
      <g id="points-6" data-name="points" transform="translate(915 1123)">
        <g id="Union_3-5" data-name="Union 3" class="cls-9">
          <path class="cls-11" d="M10620 1781a20 20 0 0 1-20-20 20 20 0 0 1 20-20 20 20 0 0 1 20 20 20 20 0 0 1-20 20Z" transform="translate(-10601 -1742)" />
          <path class="cls-12" d="M10620 1742a19 19 0 1 0 0 38 19 19 0 0 0 0-38m0-2a21 21 0 0 1 21 21 21 21 0 0 1-21 21 21 21 0 0 1-21-21 21 21 0 0 1 21-21Z" transform="translate(-10601 -1742)" />
        </g><text id="_28" data-name="28" class="cls-10" transform="translate(19 26)">
          <tspan x="-9.4" y="0">28</tspan>
        </text>
      </g>
      <g id="points-7" data-name="points" transform="translate(724 1068)">
        <g id="Union_3-6" data-name="Union 3" class="cls-9">
          <path class="cls-11" d="M10620 1781a20 20 0 0 1-20-20 20 20 0 0 1 20-20 20 20 0 0 1 20 20 20 20 0 0 1-20 20Z" transform="translate(-10601 -1742)" />
          <path class="cls-12" d="M10620 1742a19 19 0 1 0 0 38 19 19 0 0 0 0-38m0-2a21 21 0 0 1 21 21 21 21 0 0 1-21 21 21 21 0 0 1-21-21 21 21 0 0 1 21-21Z" transform="translate(-10601 -1742)" />
        </g><text id="_6" data-name="6" class="cls-10" transform="translate(19 26)">
          <tspan x="-4.7" y="0">6</tspan>
        </text>
      </g>
      <g id="points-8" data-name="points" transform="translate(724 903)">
        <g id="Union_3-7" data-name="Union 3" class="cls-9">
          <path class="cls-11" d="M10620 1781a20 20 0 0 1-20-20 20 20 0 0 1 20-20 20 20 0 0 1 20 20 20 20 0 0 1-20 20Z" transform="translate(-10601 -1742)" />
          <path class="cls-12" d="M10620 1742a19 19 0 1 0 0 38 19 19 0 0 0 0-38m0-2a21 21 0 0 1 21 21 21 21 0 0 1-21 21 21 21 0 0 1-21-21 21 21 0 0 1 21-21Z" transform="translate(-10601 -1742)" />
        </g><text id="_66" data-name="66" class="cls-10" transform="translate(19 26)">
          <tspan x="-9.4" y="0">66</tspan>
        </text>
      </g>
      <g id="points-9" data-name="points" transform="translate(802 1108)">
        <g id="Union_3-8" data-name="Union 3" class="cls-9">
          <path class="cls-11" d="M10620 1781a20 20 0 0 1-20-20 20 20 0 0 1 20-20 20 20 0 0 1 20 20 20 20 0 0 1-20 20Z" transform="translate(-10601 -1742)" />
          <path class="cls-12" d="M10620 1742a19 19 0 1 0 0 38 19 19 0 0 0 0-38m0-2a21 21 0 0 1 21 21 21 21 0 0 1-21 21 21 21 0 0 1-21-21 21 21 0 0 1 21-21Z" transform="translate(-10601 -1742)" />
        </g><text id="_49" data-name="49" class="cls-10" transform="translate(19 26)">
          <tspan x="-9.4" y="0">49</tspan>
        </text>
      </g>
      <g id="points-10" data-name="points" transform="translate(751 967)">
        <g id="Union_3-9" data-name="Union 3" class="cls-9">
          <path class="cls-11" d="M10620 1781a20 20 0 0 1-20-20 20 20 0 0 1 20-20 20 20 0 0 1 20 20 20 20 0 0 1-20 20Z" transform="translate(-10601 -1742)" />
          <path class="cls-12" d="M10620 1742a19 19 0 1 0 0 38 19 19 0 0 0 0-38m0-2a21 21 0 0 1 21 21 21 21 0 0 1-21 21 21 21 0 0 1-21-21 21 21 0 0 1 21-21Z" transform="translate(-10601 -1742)" />
        </g><text id="_96-2" data-name="96" class="cls-10" transform="translate(19 26)">
          <tspan x="-9.4" y="0">96</tspan>
        </text>
      </g>
      <g id="points-11" data-name="points" transform="translate(829 984)">
        <g id="Union_3-10" data-name="Union 3" class="cls-9">
          <path class="cls-11" d="M10620 1781a20 20 0 0 1-20-20 20 20 0 0 1 20-20 20 20 0 0 1 20 20 20 20 0 0 1-20 20Z" transform="translate(-10601 -1742)" />
          <path class="cls-12" d="M10620 1742a19 19 0 1 0 0 38 19 19 0 0 0 0-38m0-2a21 21 0 0 1 21 21 21 21 0 0 1-21 21 21 21 0 0 1-21-21 21 21 0 0 1 21-21Z" transform="translate(-10601 -1742)" />
        </g><text id="_39" data-name="39" class="cls-10" transform="translate(19 26)">
          <tspan x="-9.4" y="0">39</tspan>
        </text>
      </g>
      <g id="points-12" data-name="points" transform="translate(802 1211)">
        <g id="Union_3-11" data-name="Union 3" class="cls-9">
          <path class="cls-11" d="M10620 1781a20 20 0 0 1-20-20 20 20 0 0 1 20-20 20 20 0 0 1 20 20 20 20 0 0 1-20 20Z" transform="translate(-10601 -1742)" />
          <path class="cls-12" d="M10620 1742a19 19 0 1 0 0 38 19 19 0 0 0 0-38m0-2a21 21 0 0 1 21 21 21 21 0 0 1-21 21 21 21 0 0 1-21-21 21 21 0 0 1 21-21Z" transform="translate(-10601 -1742)" />
        </g><text id="_72" data-name="72" class="cls-10" transform="translate(19 26)">
          <tspan x="-9.4" y="0">72</tspan>
        </text>
      </g>
      <g id="points-13" data-name="points" transform="translate(1007 871)">
        <g id="Union_3-12" data-name="Union 3" class="cls-9">
          <path class="cls-11" d="M10620 1781a20 20 0 0 1-20-20 20 20 0 0 1 20-20 20 20 0 0 1 20 20 20 20 0 0 1-20 20Z" transform="translate(-10601 -1742)" />
          <path class="cls-12" d="M10620 1742a19 19 0 1 0 0 38 19 19 0 0 0 0-38m0-2a21 21 0 0 1 21 21 21 21 0 0 1-21 21 21 21 0 0 1-21-21 21 21 0 0 1 21-21Z" transform="translate(-10601 -1742)" />
        </g><text id="_77" data-name="77" class="cls-10" transform="translate(19 26)">
          <tspan x="-9.4" y="0">77</tspan>
        </text>
      </g>
      <g id="points-14" data-name="points" transform="translate(890 856)">
        <g id="Union_3-13" data-name="Union 3" class="cls-9">
          <path class="cls-11" d="M10620 1781a20 20 0 0 1-20-20 20 20 0 0 1 20-20 20 20 0 0 1 20 20 20 20 0 0 1-20 20Z" transform="translate(-10601 -1742)" />
          <path class="cls-12" d="M10620 1742a19 19 0 1 0 0 38 19 19 0 0 0 0-38m0-2a21 21 0 0 1 21 21 21 21 0 0 1-21 21 21 21 0 0 1-21-21 21 21 0 0 1 21-21Z" transform="translate(-10601 -1742)" />
        </g><text id="_62" data-name="62" class="cls-10" transform="translate(19 26)">
          <tspan x="-9.4" y="0">62</tspan>
        </text>
      </g>
      <g id="points-15" data-name="points" transform="translate(851 756)">
        <g id="Union_3-14" data-name="Union 3" class="cls-9">
          <path class="cls-11" d="M10620 1781a20 20 0 0 1-20-20 20 20 0 0 1 20-20 20 20 0 0 1 20 20 20 20 0 0 1-20 20Z" transform="translate(-10601 -1742)" />
          <path class="cls-12" d="M10620 1742a19 19 0 1 0 0 38 19 19 0 0 0 0-38m0-2a21 21 0 0 1 21 21 21 21 0 0 1-21 21 21 21 0 0 1-21-21 21 21 0 0 1 21-21Z" transform="translate(-10601 -1742)" />
        </g><text id="_58" data-name="58" class="cls-10" transform="translate(19 26)">
          <tspan x="-9.4" y="0">58</tspan>
        </text>
      </g>
      <g id="points-16" data-name="points" transform="translate(876 670)">
        <g id="Union_3-15" data-name="Union 3" class="cls-9">
          <path class="cls-11" d="M10620 1781a20 20 0 0 1-20-20 20 20 0 0 1 20-20 20 20 0 0 1 20 20 20 20 0 0 1-20 20Z" transform="translate(-10601 -1742)" />
          <path class="cls-12" d="M10620 1742a19 19 0 1 0 0 38 19 19 0 0 0 0-38m0-2a21 21 0 0 1 21 21 21 21 0 0 1-21 21 21 21 0 0 1-21-21 21 21 0 0 1 21-21Z" transform="translate(-10601 -1742)" />
        </g><text id="_8" data-name="8" class="cls-10" transform="translate(19 26)">
          <tspan x="-4.7" y="0">8</tspan>
        </text>
      </g>
      <g id="points-17" data-name="points" transform="translate(763 824)">
        <g id="Union_3-16" data-name="Union 3" class="cls-9">
          <path class="cls-11" d="M10620 1781a20 20 0 0 1-20-20 20 20 0 0 1 20-20 20 20 0 0 1 20 20 20 20 0 0 1-20 20Z" transform="translate(-10601 -1742)" />
          <path class="cls-12" d="M10620 1742a19 19 0 1 0 0 38 19 19 0 0 0 0-38m0-2a21 21 0 0 1 21 21 21 21 0 0 1-21 21 21 21 0 0 1-21-21 21 21 0 0 1 21-21Z" transform="translate(-10601 -1742)" />
        </g><text id="_24" data-name="24" class="cls-10" transform="translate(19 26)">
          <tspan x="-9.4" y="0">24</tspan>
        </text>
      </g>
      <g id="points-18" data-name="points" transform="translate(954 535)">
        <g id="Union_3-17" data-name="Union 3" class="cls-9">
          <path class="cls-11" d="M10620 1781a20 20 0 0 1-20-20 20 20 0 0 1 20-20 20 20 0 0 1 20 20 20 20 0 0 1-20 20Z" transform="translate(-10601 -1742)" />
          <path class="cls-12" d="M10620 1742a19 19 0 1 0 0 38 19 19 0 0 0 0-38m0-2a21 21 0 0 1 21 21 21 21 0 0 1-21 21 21 21 0 0 1-21-21 21 21 0 0 1 21-21Z" transform="translate(-10601 -1742)" />
        </g><text id="_16" data-name="16" class="cls-10" transform="translate(19 26)">
          <tspan x="-9.4" y="0">16</tspan>
        </text>
      </g>
      <g id="points-19" data-name="points" transform="translate(941 620)">
        <g id="Union_3-18" data-name="Union 3" class="cls-9">
          <path class="cls-11" d="M10620 1781a20 20 0 0 1-20-20 20 20 0 0 1 20-20 20 20 0 0 1 20 20 20 20 0 0 1-20 20Z" transform="translate(-10601 -1742)" />
          <path class="cls-12" d="M10620 1742a19 19 0 1 0 0 38 19 19 0 0 0 0-38m0-2a21 21 0 0 1 21 21 21 21 0 0 1-21 21 21 21 0 0 1-21-21 21 21 0 0 1 21-21Z" transform="translate(-10601 -1742)" />
        </g><text id="_52" data-name="52" class="cls-10" transform="translate(19 26)">
          <tspan x="-9.4" y="0">52</tspan>
        </text>
      </g>
      <g id="points-20" data-name="points" transform="translate(874 589)">
        <g id="Union_3-19" data-name="Union 3" class="cls-9">
          <path class="cls-11" d="M10620 1781a20 20 0 0 1-20-20 20 20 0 0 1 20-20 20 20 0 0 1 20 20 20 20 0 0 1-20 20Z" transform="translate(-10601 -1742)" />
          <path class="cls-12" d="M10620 1742a19 19 0 1 0 0 38 19 19 0 0 0 0-38m0-2a21 21 0 0 1 21 21 21 21 0 0 1-21 21 21 21 0 0 1-21-21 21 21 0 0 1 21-21Z" transform="translate(-10601 -1742)" />
        </g><text id="_40" data-name="40" class="cls-10" transform="translate(19 26)">
          <tspan x="-9.4" y="0">40</tspan>
        </text>
      </g>
      <g id="points-21" data-name="points" transform="translate(513 984)">
        <g id="Union_3-20" data-name="Union 3" class="cls-9">
          <path class="cls-11" d="M10620 1781a20 20 0 0 1-20-20 20 20 0 0 1 20-20 20 20 0 0 1 20 20 20 20 0 0 1-20 20Z" transform="translate(-10601 -1742)" />
          <path class="cls-12" d="M10620 1742a19 19 0 1 0 0 38 19 19 0 0 0 0-38m0-2a21 21 0 0 1 21 21 21 21 0 0 1-21 21 21 21 0 0 1-21-21 21 21 0 0 1 21-21Z" transform="translate(-10601 -1742)" />
        </g><text id="_18-2" data-name="18" class="cls-10" transform="translate(19 26)">
          <tspan x="-9.4" y="0">18</tspan>
        </text>
      </g>
      <g id="points-22" data-name="points" transform="translate(655 170)">
        <g id="Union_3-21" data-name="Union 3" class="cls-9">
          <path class="cls-11" d="M10620 1781a20 20 0 0 1-20-20 20 20 0 0 1 20-20 20 20 0 0 1 20 20 20 20 0 0 1-20 20Z" transform="translate(-10601 -1742)" />
          <path class="cls-12" d="M10620 1742a19 19 0 1 0 0 38 19 19 0 0 0 0-38m0-2a21 21 0 0 1 21 21 21 21 0 0 1-21 21 21 21 0 0 1-21-21 21 21 0 0 1 21-21Z" transform="translate(-10601 -1742)" />
        </g><text id="_26" data-name="26" class="cls-10" transform="translate(19 26)">
          <tspan x="-9.4" y="0">26</tspan>
        </text>
      </g>
      <g id="points-23" data-name="points" transform="translate(212 686)">
        <g id="Union_3-22" data-name="Union 3" class="cls-9">
          <path class="cls-11" d="M10620 1781a20 20 0 0 1-20-20 20 20 0 0 1 20-20 20 20 0 0 1 20 20 20 20 0 0 1-20 20Z" transform="translate(-10601 -1742)" />
          <path class="cls-12" d="M10620 1742a19 19 0 1 0 0 38 19 19 0 0 0 0-38m0-2a21 21 0 0 1 21 21 21 21 0 0 1-21 21 21 21 0 0 1-21-21 21 21 0 0 1 21-21Z" transform="translate(-10601 -1742)" />
        </g><text id="_14" data-name="14" class="cls-10" transform="translate(19 26)">
          <tspan x="-9.4" y="0">14</tspan>
        </text>
      </g>
    </g>
  </g>
</svg>