<svg width="24" height="24" fill="none" xmlns="http://www.w3.org/2000/svg"><path opacity=".4" d="M19.48 12.95h2.02v-1.44c0-2.07-1.69-3.76-3.76-3.76H6.26c-2.07 0-3.76 1.69-3.76 3.76v4.37A3.999 3.999 0 019 19c0 .75-.21 1.46-.58 2.06-.21.36-.48.68-.79.94h10.11c2.07 0 3.76-1.69 3.76-3.76v-1.19h-1.9c-1.08 0-2.07-.79-2.16-1.87-.06-.63.18-1.22.6-1.63.37-.38.88-.6 1.44-.6z" fill="#292D32"/><path d="M14.85 3.95v3.8H6.26c-2.07 0-3.76 1.69-3.76 3.76V7.84c0-1.19.73-2.25 1.84-2.67l7.94-3c1.24-.46 2.57.45 2.57 1.78zM22.56 13.97v2.06c0 .55-.44 1-1 1.02H19.6c-1.08 0-2.07-.79-2.16-1.87-.06-.63.18-1.22.6-1.63.37-.38.88-.6 1.44-.6h2.08c.56.02 1 .47 1 1.02zM14 12.75H7c-.41 0-.75-.34-.75-.75s.34-.75.75-.75h7c.41 0 .75.34.75.75s-.34.75-.75.75zM7.828 16.171a4.003 4.003 0 00-2.39-1.145 3.97 3.97 0 00-3.266 1.145 3.92 3.92 0 00-1.047 1.867 3.97 3.97 0 001.047 3.79 3.905 3.905 0 002.566 1.153c.403.035.82 0 1.224-.106a3.922 3.922 0 001.866-1.047 3.999 3.999 0 000-5.657zm-3.563 1.33c0-.41.339-.75.75-.75.416.007.749.34.756.757l-.007.742.714-.007c.417.007.75.34.756.757a.767.767 0 01-.756.756l-.714-.007.007.743a.767.767 0 01-.757.756.774.774 0 01-.75-.75v-.749h-.777a.742.742 0 01-.53-.219.742.742 0 01-.22-.53c0-.41.34-.75.75-.75h.778v-.75z" fill="#292D32"/></svg>