<svg width="24" height="24" fill="none" xmlns="http://www.w3.org/2000/svg"><path opacity=".4" d="M16.19 1.97H7.81C4.17 1.97 2 4.14 2 7.78v8.38c0 3.64 2.17 5.81 5.81 5.81h8.38c3.64 0 5.81-2.17 5.81-5.81V7.78c0-3.64-2.17-5.81-5.81-5.81z" fill="#292D32"/><path d="M18.31 8.84c0 .41-.33.75-.75.75h-5.25c-.41 0-.75-.34-.75-.75s.34-.75.75-.75h5.25c.42 0 .75.34.75.75zM9.97 7.87l-2.25 2.25c-.15.15-.34.22-.53.22s-.39-.07-.53-.22l-.75-.75c-.3-.29-.3-.77 0-1.06.29-.29.76-.29 1.06 0l.22.22 1.72-1.72c.29-.29.76-.29 1.06 0 .29.29.29.77 0 1.06zM18.31 15.84c0 .41-.33.75-.75.75h-5.25c-.41 0-.75-.34-.75-.75s.34-.75.75-.75h5.25c.42 0 .75.34.75.75zM9.97 14.87l-2.25 2.25c-.15.15-.34.22-.53.22s-.39-.07-.53-.22l-.75-.75c-.3-.29-.3-.77 0-1.06.29-.29.76-.29 1.06 0l.22.22 1.72-1.72c.29-.29.76-.29 1.06 0 .29.29.29.77 0 1.06z" fill="#292D32"/></svg>