<svg width="24" height="24" fill="none" xmlns="http://www.w3.org/2000/svg"><path opacity=".4" d="M18.35 19.68a3.63 3.63 0 01-3.4 2.32h-5.9a3.62 3.62 0 01-3.4-2.32c-.55-1.42-.17-2.99.95-4.01L10.65 12h2.71l4.04 3.67a3.635 3.635 0 01.95 4.01z" fill="#292D32"/><path d="M13.82 18.14h-3.64a.68.68 0 010-1.36h3.64c.38 0 .68.31.68.68 0 .37-.31.68-.68.68zM18.349 4.32a3.63 3.63 0 00-3.4-2.32h-5.9a3.63 3.63 0 00-2.44 6.33l4.04 3.67h2.71l4.04-3.67a3.635 3.635 0 00.95-4.01zm-4.53 2.91h-3.64a.68.68 0 01-.68-.68c0-.37.31-.68.68-.68h3.64c.38 0 .68.31.68.68 0 .37-.31.68-.68.68z" fill="#292D32"/></svg>