<svg width="24" height="24" fill="none" xmlns="http://www.w3.org/2000/svg"><path d="M6.9 21.9c-1 0-1.8-.3-2.2-.8-.5-.5-.7-1.2-.7-2.2v-14c0-1 .2-1.8.7-2.2.5-.4 1.2-.7 2.2-.7H13c.9 0 1.7.1 2.4.2s1.4.4 2 .7c.5.3.9.7 1.3 1.1.4.5.7 1 .9 1.5.2.6.3 1.2.3 1.8 0 1.7-.7 3-2 4 1.9 1 2.9 2.6 2.9 4.7 0 1.2-.3 2.2-.9 3.2-.6.9-1.4 1.7-2.5 2.1-.6.3-1.3.4-2.1.6-.8.1-1.7.2-2.7.2H6.9v-.2zm5.6-4.2c2.8 0 3.2-1.1 3.2-2.1 0-.9-.4-1.3-.7-1.5-.6-.4-1.4-.5-2.6-.5H9.1v4.1h3.4zm-.6-8.1c.9 0 1.5-.1 2-.2.4-.1.6-.4.8-.7.2-.3.2-.6.2-.9 0-.9-.4-1.2-.6-1.3-.6-.3-1.5-.4-2.8-.4H9.1v3.5h2.8z" fill="#000"/></svg>