<svg width="24" height="24" fill="none" xmlns="http://www.w3.org/2000/svg"><path opacity=".3" d="M19.2 15.9c0 1.2-.3 2.2-.9 3.2-.6.9-1.5 1.7-2.6 2.2-1.2.5-2.5.8-4.1.8-1.9 0-3.5-.4-4.7-1.1-.9-.5-1.6-1.2-2.1-2.1-.3-.4-.5-.9-.7-1.4-.4-1.8 1.9-2.6 3.1-1.5.5.5.7 1.2 1 1.7.3.4.7.8 1.2 1 .5.3 1.2.4 2 .4 1.2 0 2.1-.3 2.8-.8.7-.5 1.1-1.2 1.1-2 0-.6-.2-1.2-.6-1.6-.4-.4-.9-.7-1.5-.9-.6-.2-1.4-.4-2.5-.7-1.4-.3-2.6-.7-3.5-1.1-.9-.4-1.7-1-2.2-1.8-.6-.8-.8-1.7-.8-2.8 0-1.1.3-2 .9-2.8.6-.8 1.4-1.5 2.5-1.9C8.7 2.3 10 2 11.5 2c1.2 0 2.2.1 3.1.4.9.3 1.6.7 2.2 1.2.9.8 1.8 1.9 1.2 3.1-.3.5-.8.9-1.4 1.1-.5.1-1 0-1.3-.3l-.4-.4c-.4-.6-.7-1.2-1.3-1.7-.5-.4-1.3-.6-2.4-.6-1 0-1.8.2-2.4.7-.6.5-.9 1-.9 1.6 0 .4.1.7.3 1 .2.3.5.5.9.7.4.2.7.4 1.1.5.4.1 1 .3 1.9.5 1.1.3 2.1.5 3 .8.9.3 1.6.7 2.3 1.1.6.4 1.1 1 1.5 1.7.1.7.3 1.5.3 2.5z" fill="#000"/><path d="M3 12h17" stroke="#000" stroke-width="3" stroke-miterlimit="10" stroke-linecap="round" stroke-linejoin="round"/></svg>