<svg width="24" height="24" fill="none" xmlns="http://www.w3.org/2000/svg"><rect opacity=".3" x="12.75" y="4.25" width="12" height="2" rx="1" transform="rotate(90 12.75 4.25)" fill="#000"/><path d="M12.057 6.119l1.463 1.755a1.04 1.04 0 101.578-1.358l-2.6-2.925a1 1 0 00-1.495 0l-2.6 2.925A1.04 1.04 0 109.98 7.874l1.463-1.755a.4.4 0 01.614 0z" fill="#000"/><path d="M18.75 8.25h-1a1 1 0 100 2 1 1 0 011 1v7a1 1 0 01-1 1h-12a1 1 0 01-1-1v-7a1 1 0 011-1 1 1 0 100-2h-1a2 2 0 00-2 2v9a2 2 0 002 2h14a2 2 0 002-2v-9a2 2 0 00-2-2z" fill="#C4C4C4"/></svg>