<svg width="24" height="24" fill="none" xmlns="http://www.w3.org/2000/svg"><rect opacity=".3" x="8.5" y="11" width="12" height="2" rx="1" fill="#000"/><path d="M10.369 11.693l1.755-1.463a1.04 1.04 0 10-1.358-1.578l-2.925 2.6a1 1 0 000 1.495l2.925 2.6a1.04 1.04 0 101.358-1.577l-1.755-1.463a.4.4 0 010-.614z" fill="#000"/><path opacity=".5" d="M16 5v1a1 1 0 11-2 0 1 1 0 00-1-1H6a1 1 0 00-1 1v12a1 1 0 001 1h7a1 1 0 001-1 1 1 0 112 0v1a2 2 0 01-2 2H5a2 2 0 01-2-2V5a2 2 0 012-2h9a2 2 0 012 2z" fill="#000"/></svg>