<svg width="24" height="24" fill="none" xmlns="http://www.w3.org/2000/svg"><path opacity=".3" d="M12 10.6l2.8-2.8c.4-.4 1-.4 1.4 0 .4.4.4 1 0 1.4L13.4 12 12 10.6zM10.6 12l-2.8 2.8c-.4.4-.4 1 0 1.4.2.2.5.3.7.3.2 0 .5-.1.7-.3l2.8-2.8-1.4-1.4z" fill="#000"/><path d="M21 22H3c-.6 0-1-.4-1-1V3c0-.6.4-1 1-1h18c.6 0 1 .4 1 1v18c0 .6-.4 1-1 1zm-7.6-10l2.8-2.8c.4-.4.4-1 0-1.4-.4-.4-1-.4-1.4 0L12 10.6 9.2 7.8c-.4-.4-1-.4-1.4 0-.4.4-.4 1 0 1.4l2.8 2.8-2.8 2.8c-.4.4-.4 1 0 1.4.2.2.5.3.7.3.2 0 .5-.1.7-.3l2.8-2.8 2.8 2.8c.2.2.5.3.7.3.2 0 .5-.1.7-.3.4-.4.4-1 0-1.4L13.4 12z" fill="#000"/></svg>