<svg width="24" height="24" fill="none" xmlns="http://www.w3.org/2000/svg"><rect opacity=".3" width="12" height="2" rx="1" transform="matrix(0 -1 -1 0 12.75 19.75)" fill="#000"/><path d="M12.057 17.881l1.463-1.755a1.04 1.04 0 111.578 1.358l-2.6 2.925a1 1 0 01-1.495 0l-2.6-2.925a1.04 1.04 0 111.577-1.358l1.463 1.755a.4.4 0 00.614 0z" fill="#000"/><path d="M18.75 15.75h-1a1 1 0 110-2 1 1 0 001-1v-7a1 1 0 00-1-1h-12a1 1 0 00-1 1v7a1 1 0 001 1 1 1 0 110 2h-1a2 2 0 01-2-2v-9a2 2 0 012-2h14a2 2 0 012 2v9a2 2 0 01-2 2z" fill="#C4C4C4"/></svg>