<svg width="24" height="24" fill="none" xmlns="http://www.w3.org/2000/svg"><path d="M15.88 15.375c.1-.3.1-.6.1-.9 0-.7-.2-1.4-.5-2-.7-1.2-2-2-3.5-2-.2 0-.4 0-.6.1-4 .5-6.7 4-8.8 7.5l8.3-14.4c.5-.9 1.7-.9 2.2 0 .1.2.2.3.3.5 1.9 3.4 3.6 7.5 2.5 11.2z" fill="#000"/><path opacity=".3" d="M20.68 20.675c-3.9 0-8.3-.4-11.1-3.1.7.5 1.5.8 2.4.8 1.5 0 2.8-.8 3.5-2.1.2-.3.3-.6.3-.9v-.1c1.1-3.7-.5-7.8-2.5-11.2l8.4 14.6c.6.9 0 2-1 2zm-12-2c-.5-.8-.7-1.7-.9-2.7-.4-2.4.9-5.2 3.6-5.6-4 .5-6.7 4-8.8 7.5-.1.2-.3.5-.4.7-.5.9.1 1.9 1.1 1.9h7.1c-.7-.3-1.3-1.1-1.7-1.8z" fill="#000"/></svg>