<svg width="24" height="24" fill="none" xmlns="http://www.w3.org/2000/svg"><path opacity=".3" d="M11.425 7.325c1.5-1.5 3.8-1.5 5.3 0s1.5 3.8 0 5.3-3.8 1.5-5.3 0c-1.5-1.4-1.5-3.8 0-5.3zm-3-3c-3.1 3.1-3.1 8.2 0 11.3 3.1 3.1 8.2 3.1 11.3 0 3.1-3.1 3.1-8.2 0-11.3-3.2-3.1-8.2-3.1-11.3 0z" fill="#000"/><path d="M11.325 17.525c-1.3.5-2.9.2-4-.8-1.5-1.5-1.5-3.8 0-5.3s3.8-1.5 5.3 0c.6.6 1 1.5 1.1 2.3 1.1.1 2.2-.2 3-1.1.4-.4.7-.8.8-1.3-.4-1.1-1-2.1-1.9-2.9-3.1-3.1-8.2-3.1-11.3 0-3.1 3.1-3.1 8.2 0 11.3 3.1 3.1 8.2 3.1 11.3 0 .7-.7 1.3-1.5 1.6-2.4-1.8.8-4 .9-5.9.2z" fill="#000"/></svg>