<svg width="24" height="24" fill="none" xmlns="http://www.w3.org/2000/svg"><path opacity=".3" d="M21.25 18.525l-8.2 3.3c-.7.3-1.4.3-2.1 0l-8.2-3.3c-1-.4-1-1.8 0-2.2l1.3-.5 6.2 2.5c.6.2 1.2.3 1.8.3.6 0 1.2-.1 1.8-.3l6.2-2.5 1.3.5c1 .4 1 1.8-.1 2.2zm-8.2-2.1l8.2-3.3c1-.4 1-1.8 0-2.2l-8.2-3.3c-.7-.3-1.4-.3-2.1 0l-8.2 3.3c-1 .4-1 1.8 0 2.2l8.2 3.3c.7.3 1.5.3 2.1 0z" fill="#000"/><path d="M11.05 11.025l-8.2-3.3c-1-.4-1-1.8 0-2.2l8.2-3.3c.7-.3 1.4-.3 2.1 0l8.2 3.3c1 .4 1 1.8 0 2.2l-8.3 3.3c-.6.3-1.4.3-2 0z" fill="#000"/></svg>