<svg width="24" height="24" fill="none" xmlns="http://www.w3.org/2000/svg"><path d="M10.6 10.7C13.3 8 16.9 6.3 20.9 6c.6 0 1-.5 1-1.1V3c0-.6-.5-1-1-1-5.1.3-9.7 2.4-13.1 5.8-3.4 3.4-5.6 8-5.8 13.1 0 .6.4 1 1 1h1.9c.6 0 1.1-.4 1.1-1 .2-3.9 1.9-7.5 4.6-10.2z" fill="#000"/><path opacity=".3" d="M14.8 14.9c1.6-1.6 3.7-2.7 6.1-2.9.6-.1 1-.5 1-1.1V9c0-.6-.5-1-1.1-1-3.4.3-6.5 1.8-8.8 4.1-2.3 2.3-3.8 5.4-4.1 8.8 0 .6.4 1.1 1 1.1h1.9c.6 0 1-.4 1.1-1 .3-2.4 1.3-4.5 2.9-6.1zm1.4 1.4c1.2-1.2 2.8-2 4.5-2.3.6-.1 1.1.4 1.1 1v2c0 .5-.4 1-.9 1.1-.8.2-1.4.5-1.9 1.1-.5.6-.9 1.2-1.1 1.9-.1.5-.5.9-1.1.9h-2c-.6 0-1.1-.5-1-1.1.4-1.8 1.2-3.4 2.4-4.6z" fill="#000"/></svg>