<svg width="24" height="24" fill="none" xmlns="http://www.w3.org/2000/svg"><path d="M4.5 7a2.5 2.5 0 100-5 2.5 2.5 0 000 5z" fill="#000"/><path opacity=".3" d="M14 4.5C14 5.9 12.9 7 11.5 7S9 5.9 9 4.5 10.1 2 11.5 2 14 3.1 14 4.5zM18.5 2C17.1 2 16 3.1 16 4.5S17.1 7 18.5 7 21 5.9 21 4.5 19.9 2 18.5 2zm-14 7C3.1 9 2 10.1 2 11.5S3.1 14 4.5 14 7 12.9 7 11.5 5.9 9 4.5 9zm7 0C10.1 9 9 10.1 9 11.5s1.1 2.5 2.5 2.5 2.5-1.1 2.5-2.5S12.9 9 11.5 9zm7 0c-1.4 0-2.5 1.1-2.5 2.5s1.1 2.5 2.5 2.5 2.5-1.1 2.5-2.5S19.9 9 18.5 9zm-14 7C3.1 16 2 17.1 2 18.5S3.1 21 4.5 21 7 19.9 7 18.5 5.9 16 4.5 16zm7 0C10.1 16 9 17.1 9 18.5s1.1 2.5 2.5 2.5 2.5-1.1 2.5-2.5-1.1-2.5-2.5-2.5zm7 0c-1.4 0-2.5 1.1-2.5 2.5s1.1 2.5 2.5 2.5 2.5-1.1 2.5-2.5-1.1-2.5-2.5-2.5z" fill="#000"/></svg>