<svg width="24" height="24" fill="none" xmlns="http://www.w3.org/2000/svg"><path opacity=".3" d="M2.077 11.85l.8-1.8c.2-.5.8-.7 1.3-.5l.9.4c2.1.9 4.1.9 6.2 0 3.1-1.4 6.2-1.4 9.3 0l.9.4c.5.2.7.8.5 1.3l-.8 1.8c-.2.5-.8.7-1.3.5l-.9-.4c-2.1-.9-4.1-.9-6.2 0-3.1 1.4-6.2 1.4-9.3 0l-.9-.4c-.5-.2-.7-.8-.5-1.3zm.5 8.2l.9.4c3.1 1.4 6.2 1.4 9.3 0 2.1-.9 4.1-.9 6.2 0l.9.4c.5.2 1.1 0 1.3-.5l.8-1.8c.2-.5 0-1.1-.5-1.3l-.9-.4c-3.1-1.4-6.2-1.4-9.3 0-2.1.9-4.1.9-6.2 0l-.9-.4c-.5-.2-1.1 0-1.3.5l-.8 1.8c-.2.5 0 1.1.5 1.3z" fill="#000"/><path d="M2.077 4.95l.8-1.8c.2-.5.8-.7 1.3-.5l.9.4c2.1.9 4.1.9 6.2 0 3.1-1.4 6.2-1.4 9.3 0l.9.4c.5.2.7.8.5 1.3l-.8 1.8c-.2.5-.8.7-1.3.5l-.9-.4c-2.1-.9-4.1-.9-6.2 0-3.1 1.4-6.2 1.4-9.3 0l-.9-.4c-.5-.2-.7-.8-.5-1.3z" fill="#000"/></svg>