<svg width="24" height="24" fill="none" xmlns="http://www.w3.org/2000/svg"><path d="M12.44 22a2 2 0 10.001-4 2 2 0 000 4z" fill="#000"/><path opacity=".3" d="M9.041 14.8l.9 1.3c.7-.5 1.6-.8 2.5-.8.9 0 1.8.3 2.5.8l.9-1.3c.3-.5.2-1.2-.4-1.4-.9-.4-1.9-.7-3-.7s-2.1.2-3 .7c-.6.2-.7.9-.4 1.4zM3.141 5.8l.9 1.4c2.4-1.6 5.3-2.5 8.4-2.5 3.1 0 6 .9 8.4 2.5l.9-1.4c.3-.5.1-1.1-.4-1.4-2.6-1.5-5.7-2.4-8.9-2.4s-6.3.9-8.9 2.4c-.5.3-.7.9-.4 1.4zM6.141 10.3l.9 1.4c1.6-1 3.4-1.6 5.5-1.6s3.9.6 5.5 1.6l.9-1.4c.3-.5.2-1.2-.4-1.4-1.8-1-3.8-1.5-6-1.5s-4.2.5-6 1.5c-.6.2-.8.9-.4 1.4z" fill="#000"/></svg>