<svg xmlns="http://www.w3.org/2000/svg" width="88" height="88" viewBox="0 0 88 88"><path d="M50.783,10.716l-.513-.293-5.1-2.933L34.65,1.4a12.217,12.217,0,0,0-11.367,0L12.76,7.489l-5.1,2.97L7,10.826c-6.563,4.4-7,5.207-7,12.283v16.9C0,47.089.44,47.9,7.15,52.406l16.133,9.313a11.26,11.26,0,0,0,5.683,1.393,11.356,11.356,0,0,0,5.683-1.393L50.93,52.3c6.563-4.4,7-5.207,7-12.283v-16.9C57.933,16.033,57.493,15.226,50.783,10.716Z" transform="translate(15.033 17.554)" fill="#fff" opacity="0.4"/><path d="M0,20.68l5.1-2.97,10.047-5.793.477-.293a12.216,12.216,0,0,1,11.367,0l.477.293L37.51,17.71l5.1,2.933V12.8c0-8.25-4.547-12.8-12.8-12.8H12.76C4.51,0,0,4.547,0,12.8Z" transform="translate(22.697 7.333)" fill="#fff"/><path d="M21.6,10.532l-2.273,2.787a2.755,2.755,0,0,0-.587,1.76l.22,3.593c.147,2.2-1.43,3.337-3.483,2.53l-3.337-1.32a3.374,3.374,0,0,0-1.907,0L6.9,21.2c-2.053.807-3.63-.33-3.483-2.53l.22-3.593a2.755,2.755,0,0,0-.587-1.76L.772,10.532c-1.43-1.687-.807-3.557,1.32-4.107l3.483-.88a2.911,2.911,0,0,0,1.5-1.137L9.022,1.4c1.21-1.87,3.117-1.87,4.327,0l1.943,3.007a2.911,2.911,0,0,0,1.5,1.137l3.483.88C22.405,6.976,23.029,8.846,21.6,10.532Z" transform="translate(32.815 38.381)" fill="#fff"/><path d="M0,0H88V88H0Z" transform="translate(0 0)" fill="none" opacity="0"/></svg>