<svg xmlns="http://www.w3.org/2000/svg" width="88" height="88" viewBox="0 0 88 88"><path d="M69.986,19.1c-3.117-3.447-8.323-5.17-15.877-5.17h-.88v-.147c0-6.16,0-13.787-13.787-13.787H33.869C20.083,0,20.083,7.663,20.083,13.787v.183H19.2c-7.59,0-12.76,1.723-15.877,5.17C-.3,23.173-.194,28.6.173,32.3l.037.257.367,3.85a.8.8,0,0,0,.183.147c1.21.807,2.457,1.613,3.777,2.347.513.33,1.063.623,1.613.917a62.94,62.94,0,0,0,20.167,6.893c.33,3.447,1.833,7.48,9.863,7.48s9.607-4,9.863-7.553a61.705,61.705,0,0,0,21.23-7.627c.22-.11.367-.22.55-.33a46.821,46.821,0,0,0,4.8-3.117.442.442,0,0,0,.183-.183l.147-1.32.183-1.723c.037-.22.037-.4.073-.66C73.506,27.977,73.433,22.917,69.986,19.1ZM40.653,44.22c0,3.887,0,4.473-4.51,4.473s-4.51-.7-4.51-4.437v-4.62h9.02ZM25.326,13.933v-.147c0-6.233,0-8.543,8.543-8.543h5.573c8.543,0,8.543,2.347,8.543,8.543v.183H25.326Z" transform="translate(7.344 6.49)" fill="#fff"/><path d="M67.247,3.3l-.55.33a62.47,62.47,0,0,1-21.23,7.627c-.293,3.52-1.833,7.553-9.863,7.553s-9.57-4-9.863-7.48A61.213,61.213,0,0,1,5.573,4.437c-.55-.293-1.1-.587-1.613-.917C2.64,2.787,1.393,1.98.183,1.173A.8.8,0,0,1,0,1.027L2.237,24.9c.77,7.3,3.777,14.813,19.91,14.813h27.94c16.133,0,19.14-7.517,19.91-14.85L72.307,0a.442.442,0,0,1-.183.183A45.691,45.691,0,0,1,67.247,3.3Z" transform="translate(7.92 41.8)" fill="#fff" opacity="0.4"/><path d="M0,0H88V88H0Z" fill="none" opacity="0"/></svg>