<svg xmlns="http://www.w3.org/2000/svg" width="88" height="88" viewBox="0 0 88 88"><path d="M0,0H88V88H0Z" fill="none" opacity="0"/><path d="M51.993,0H21.3C7.957,0,0,7.957,0,21.3v30.69C0,65.34,7.957,73.3,21.3,73.3h30.69c13.347,0,21.3-7.957,21.3-21.3V21.3C73.3,7.957,65.34,0,51.993,0Z" transform="translate(7.37 7.333)" fill="#fff" opacity="0.4"/><g transform="translate(23.173 24.2)"><path d="M13.9,0H4.18A4.178,4.178,0,0,0,0,4.18V22.953H13.9V0Z" transform="translate(0 16.684)" fill="#fff"/><path d="M9.753,0H4.18A4.178,4.178,0,0,0,0,4.18V39.6H13.9V4.18A4.147,4.147,0,0,0,9.753,0Z" transform="translate(13.86 0)" fill="#fff" opacity="0.4"/><path d="M9.717,0H0V16.684H13.9V4.18A4.226,4.226,0,0,0,9.717,0Z" transform="translate(27.793 22.917)" fill="#fff"/></g></svg>