<svg xmlns="http://www.w3.org/2000/svg" width="88" height="87.642" viewBox="0 0 88 87.642"><g opacity="0.995"><path d="M52.03,0H21.3C7.957,0,0,7.924,0,21.217V51.782C0,65.111,7.957,73.035,21.3,73.035h30.69c13.347,0,21.3-7.924,21.3-21.217v-30.6C73.333,7.924,65.377,0,52.03,0Z" transform="translate(7.333 7.304)" fill="#fff" opacity="0.4"/><path d="M23.283,24.649l-5.537-1.935V10.334h1.32a5.6,5.6,0,0,1,5.39,5.77,2.75,2.75,0,0,0,5.5,0A11.076,11.076,0,0,0,19.067,4.857h-1.32V2.739a2.75,2.75,0,0,0-5.5,0V4.857H9.863A10.037,10.037,0,0,0,0,15.009c0,6.537,3.813,8.618,6.71,9.641l5.537,1.935V38.928h-1.32a5.6,5.6,0,0,1-5.39-5.77,2.764,2.764,0,0,0-2.75-2.739,2.764,2.764,0,0,0-2.75,2.739,11.076,11.076,0,0,0,10.89,11.247h1.32V46.56a2.75,2.75,0,0,0,5.5,0V44.442H20.13A10.037,10.037,0,0,0,29.993,34.29C29.957,27.717,26.143,25.635,23.283,24.649ZM8.543,19.5c-1.87-.657-3.007-1.278-3.007-4.455A4.513,4.513,0,0,1,9.9,10.371h2.383V20.815ZM20.13,38.964H17.747V28.52l3.7,1.278c1.87.657,3.007,1.278,3.007,4.455A4.541,4.541,0,0,1,20.13,38.964Z" transform="translate(29.003 19.172)" fill="#fff"/><path d="M0,0H88V87.642H0Z" transform="translate(0 0)" fill="none" opacity="0"/></g></svg>