<svg xmlns="http://www.w3.org/2000/svg" width="88" height="88" viewBox="0 0 88 88"><path d="M52.03,0H21.3C7.957,0,0,7.957,0,21.3v30.69c0,13.383,7.957,21.34,21.3,21.34h30.69c13.347,0,21.3-7.957,21.3-21.3V21.3C73.333,7.957,65.377,0,52.03,0Z" transform="translate(7.333 7.333)" fill="#fff" opacity="0.4"/><path d="M0,0H88V88H0Z" fill="none" opacity="0"/><path d="M-12.8,14.16h4.4v-28h-4.4ZM3.4,3.72v4c0,2-.88,2.72-2.28,2.72s-2.28-.72-2.28-2.72V-7.4c0-2,.88-2.76,2.28-2.76S3.4-9.4,3.4-7.4v3H7.56V-7.12c0-4.48-2.24-7.04-6.56-7.04S-5.56-11.6-5.56-7.12V7.44c0,4.48,2.24,7.04,6.56,7.04s6.56-2.56,6.56-7.04V3.72ZM20-13.84H13.56l-4.48,28h4.04l.76-5.08h5.4l.76,5.08h4.44ZM16.56-8.88,18.68,5.28H14.44ZM33-13.84H26.52v28h4.4V3.64H33c4.4,0,6.56-2.44,6.56-6.92V-6.92C39.56-11.4,37.4-13.84,33-13.84Zm0,4c1.4,0,2.16.64,2.16,2.64V-3c0,2-.76,2.64-2.16,2.64H30.92V-9.84Z" transform="translate(31.2 43.84)" fill="#fff"/></svg>