<svg xmlns="http://www.w3.org/2000/svg" width="88" height="87.642" viewBox="0 0 88 87.642"><path d="M0,0H88V87.642H0Z" fill="none" opacity="0"/><path d="M73.333,21.217v26.84a13.068,13.068,0,0,0-3.557-1.1l-1.137-.183-.953-1.972c-2.017-4.09-5.317-6.464-9.02-6.464s-7,2.374-9.02,6.464l-.99,1.972-1.1.183c-4.363.73-7.517,3.141-8.653,6.573C37.8,57,38.94,60.8,42.057,63.942l1.137,1.132-.11.438a12.8,12.8,0,0,0,.257,7.523H21.3C7.957,73.035,0,65.111,0,51.818v-30.6C0,7.924,7.957,0,21.3,0H52.03C65.377,0,73.333,7.924,73.333,21.217Z" transform="translate(7.333 7.304)" fill="#fff" opacity="0.4"/><path d="M18.773,3.424,19.946,5.8A5.206,5.206,0,0,0,23.283,8.28l1.577.256c4.8.8,5.9,4.309,2.493,7.742l-1.467,1.461a5.142,5.142,0,0,0-1.21,4.273l.183.876c1.32,5.77-1.76,8-6.783,4.966L17.013,27.2a5.075,5.075,0,0,0-4.693,0l-1.063.657c-5.06,3.031-8.1.8-6.783-4.966l.183-.876a5.176,5.176,0,0,0-1.21-4.273L1.98,16.278C-1.43,12.809-.33,9.339,4.473,8.536L6.05,8.28A5.118,5.118,0,0,0,9.386,5.8L10.56,3.424C12.833-1.141,16.5-1.141,18.773,3.424Z" transform="translate(51.334 51.134)" fill="#fff"/><path d="M38.682.574a2.731,2.731,0,0,1,.489,3.843l-8.486,10.9a6.477,6.477,0,0,1-9.009,1.089l-.019-.015-6.7-5.249a.933.933,0,0,0-1.305.169h0L4.929,22.6A2.746,2.746,0,0,1,.571,19.253L9.3,7.966a6.449,6.449,0,0,1,9.028-1.15l.019.015,6.7,5.249a.962.962,0,0,0,1.319-.15L34.823,1.061A2.758,2.758,0,0,1,38.682.574Z" transform="translate(20.46 28.337)" fill="#fff"/></svg>