<svg xmlns="http://www.w3.org/2000/svg" width="88" height="88" viewBox="0 0 88 88"><path d="M0,0H88V88H0Z" transform="translate(0)" fill="none" opacity="0"/><path d="M46.86,21.56c-3.483,2.567-8.067,3.887-13.53,3.887H2.6A20.274,20.274,0,0,1,0,25.3L25.3,0Z" transform="translate(26.033 55.22)" fill="#fff" opacity="0.4"/><path d="M25.447,2.6V33.33c0,5.463-1.32,10.047-3.887,13.53L0,25.3,25.3,0A20.274,20.274,0,0,1,25.447,2.6Z" transform="translate(55.22 26.033)" fill="#fff" opacity="0.4"/><path d="M47.887,44l21.56,21.56a15.066,15.066,0,0,1-3.887,3.887L44,47.887l-25.3,25.3a21.912,21.912,0,0,1-6.417-1.357C4.437,68.97,0,62,0,52.03V21.3C0,7.957,7.957,0,21.3,0H52.03C62,0,68.97,4.437,71.83,12.283A21.912,21.912,0,0,1,73.187,18.7Z" transform="translate(7.333 7.333)" fill="#fff" opacity="0.4"/><path d="M35.6,31.717l21.56,21.56a15.066,15.066,0,0,1-3.887,3.887L31.717,35.6,6.417,60.9A21.912,21.912,0,0,1,0,59.547l1.43-1.43L59.547,0A21.913,21.913,0,0,1,60.9,6.417Z" transform="translate(19.617 19.617)" fill="#fff"/><path d="M23.212,8.8C21.819,2.75,16.466.037,11.772,0,7.079,0,1.726,2.713.332,8.763-1.208,15.473,2.9,21.083,6.6,24.6a7.413,7.413,0,0,0,5.17,2.053,7.579,7.579,0,0,0,5.17-2.053C20.646,21.083,24.752,15.473,23.212,8.8Zm-11.33,5.72a3.667,3.667,0,0,1,0-7.333h.037a3.667,3.667,0,1,1-.037,7.333Z" transform="translate(21.668 20.277)" fill="#fff"/></svg>