<svg xmlns="http://www.w3.org/2000/svg" width="88" height="88" viewBox="0 0 88 88"><path d="M0,0H88V88H0Z" transform="translate(0 0)" fill="none" opacity="0"/><path d="M24.457,0H7.333A7.355,7.355,0,0,0,0,7.333v22H24.457Z" transform="translate(7.333 51.333)" fill="#fff" opacity="0.4"/><path d="M17.123,0H7.333A7.355,7.355,0,0,0,0,7.333V44H24.457V7.333A7.331,7.331,0,0,0,17.123,0Z" transform="translate(31.753 36.667)" fill="#fff"/><path d="M17.123,0H0V18.333H24.457v-11A7.355,7.355,0,0,0,17.123,0Z" transform="translate(56.21 62.333)" fill="#fff" opacity="0.4"/><path d="M23.446,13.044a3.7,3.7,0,0,0,1.21-3.667A3.616,3.616,0,0,0,21.54,7.1l-3.52-.587a1.2,1.2,0,0,1-.55-.4L15.526,2.228c-1.467-2.97-4.8-2.97-6.27,0L7.313,6.114a1.2,1.2,0,0,1-.55.4L3.243,7.1A3.664,3.664,0,0,0,.126,9.378a3.7,3.7,0,0,0,1.21,3.667l2.713,2.75a1.207,1.207,0,0,1,.22.7L3.5,19.864c-.587,2.493.367,3.63.99,4.107.623.44,1.98,1.027,4.217-.293l3.3-1.943a.94.94,0,0,1,.77,0l3.3,1.943a4.854,4.854,0,0,0,2.53.807,2.918,2.918,0,0,0,1.65-.513c.623-.44,1.577-1.577.99-4.107l-.77-3.373a.94.94,0,0,1,.22-.7Z" transform="translate(31.59 4.739)" fill="#fff"/></svg>