<svg xmlns="http://www.w3.org/2000/svg" width="674.9" height="54"><defs><clipPath id="a"><path fill="none" d="M0 0h31.4v31.4H0z"/></clipPath><clipPath id="b"><path fill="none" d="M15.6 31.3a15.7 15.7 0 1 0 15.7-15.7 15.7 15.7 0 0 0-15.7 15.7" transform="translate(-15.6 -15.6)"/></clipPath><filter id="c" width="323.6" height="44" x="351.2" y="7" filterUnits="userSpaceOnUse"><feOffset dy="2"/><feGaussianBlur result="d" stdDeviation="4"/><feFlood flood-opacity=".2"/><feComposite in2="d" operator="in"/><feComposite in="SourceGraphic"/></filter><filter id="d" width="316.3" height="45.5" x="53.1" y="6" filterUnits="userSpaceOnUse"><feOffset dy="2"/><feGaussianBlur result="f" stdDeviation="4"/><feFlood flood-color="#1a202c" flood-opacity=".1"/><feComposite in2="f" operator="in"/><feComposite in="SourceGraphic"/></filter></defs><path fill="#fff" d="M57.2 27A23.2 23.2 0 1 1 34 3.8 23.2 23.2 0 0 1 57.2 27"/><path fill="#d1d1d0" d="M34 51a24 24 0 1 1 24-24 24 24 0 0 1-24 24m0-46.3A22.3 22.3 0 1 0 56.3 27 22.3 22.3 0 0 0 34 4.7"/><path fill="#474746" d="m18.2 15-.3.1a.7.7 0 0 0 0-.4 1.4 1.4 0 0 1 .1-.1h.1a1 1 0 0 1 0 .1.6.6 0 0 1 .1.3m2.7.3a.6.6 0 0 0-.4-.1l.3-.4a.3.3 0 0 0 .1 0q0-.2-.3-.5l-.5.6a1 1 0 0 1 .2.6 2.5 2.5 0 0 1-.4 1 .8.8 0 0 0-.2 0 1 1 0 0 0-.2 0 2.6 2.6 0 0 0 .3-.8.7.7 0 0 0 0-.5l-.5.6-.2-.2-.2.2-.5-.4a.8.8 0 0 0-.2 0 1.2 1.2 0 0 0 .2-.5.5.5 0 0 0-.1-.3 2 2 0 0 0-.3-.3l.2-.3a2 2 0 0 1 .4.4l.5-.2v.4a4.2 4.2 0 0 0-.4 0 1 1 0 0 1-.1.6l.4-.5.5-.5a.7.7 0 0 0-.3 0 1.2 1.2 0 0 0 .1-.4.6.6 0 0 0 0-.4 1.8 1.8 0 0 0-.4-.3l.3-.2a2 2 0 0 1 .3.4l.8-.3v.3-.1l.5.4-.2.2h.1a5.6 5.6 0 0 1 .5.5.6.6 0 0 1 .1.3.5.5 0 0 1-.1.3l-.4.4m-2-1.1-.2.1a2.2 2.2 0 0 0-.1-.4 2.6 2.6 0 0 1 .2-.1h.1a.4.4 0 0 0 0 .1v.2m.4-.2-.3.1a.6.6 0 0 0-.1-.5h.2s0-.1 0 0a1 1 0 0 1 .1.1.6.6 0 0 1 0 .3m0 1.6.5-.6-.2-.2-.2.3-.3.3Zm.7-2.5-.2.2a1.7 1.7 0 0 0-.1-.4 2 2 0 0 1 .2-.2h.1v.4m-.3 1 .3-.3.3-.3s-.3 0-.5.2a1 1 0 0 1 0 .5m.3.5.3-.4.3-.3-.2-.2-.6.7.2.2M23.5 12.9a1 1 0 0 0-.3 0l-1 .9-.3-.2.6-.5-.1-.1-.3.1-.2.2a.5.5 0 0 1-.1 0 .4.4 0 0 1-.1-.2l.3-.2.2-.2-.6.3-.2-.4-.3-.4.5-.3-.1-.1-.3.2-.3.2v-.1a.5.5 0 0 1-.1-.1l.2-.2.3-.2v-.1l-.5.3a1 1 0 0 0-.2-.1 11.3 11.3 0 0 0 1-1h.4l-.5.5.1.1.6-.4v.2l.3-.2-.4-.5.3-.3.4.5.6-.4.1.2.8 1a1.2 1.2 0 0 1 .2.5.4.4 0 0 1 0 .2.7.7 0 0 1-.1.1 2.9 2.9 0 0 1-.4.3.7.7 0 0 0-.3-.2l.3-.2a.1.1 0 0 0 0-.1.9.9 0 0 0-.1-.4l-.6-.9-.3.2a3.8 3.8 0 0 1 .5 1 1.6 1.6 0 0 1 0 1m-2-.6.3-.1-.1-.1h-.1l-.1.1Zm.3.3.2-.1v-.2l-.2.1-.1.1Zm1 .2.4-.4a1.5 1.5 0 0 0-.1-.6 3.6 3.6 0 0 0-.4-.6l-.2.1-.2-.1-.5.4.5-.3.3.4.3.3-.5.4.1.1.3-.2.2-.2v.1a.4.4 0 0 1 .2.2l-.3.1-.2.2ZM22 12l.2-.1v-.1H22l-.1.1Zm.2.3h.1l.1-.1v-.2l-.3.2ZM24.3 9.6a.6.6 0 0 1 0-.1.6.6 0 0 1-.1-.2l.3-.1.3-.2h-.1v-.2a2.3 2.3 0 0 1 .2-.1h.2V9l.3-.2.3-.1a.6.6 0 0 1 0 .1.7.7 0 0 1 .1.2l-.3.2-.4.1-.4.2-.4.2m.3.8a.8.8 0 0 1 0-.1.6.6 0 0 1-.1-.2 1.6 1.6 0 0 0 .2 0l.1-.1a1.7 1.7 0 0 0-.3-.4l.3-.2a1.3 1.3 0 0 1 .3.3l-.2.2.8-.3h-.3a2.2 2.2 0 0 0 0-.5 1.7 1.7 0 0 1 .3 0h.1a.2.2 0 0 0 0 .2v.2h.1l.2-.1a.6.6 0 0 1 .1.1.7.7 0 0 1 0 .2 4 4 0 0 0-.4.2l-.4.1-.4.2-.4.2m1 1.1a.7.7 0 0 1-.2.1 5.5 5.5 0 0 0-.3-.5v-.3l-.2-.3a3.3 3.3 0 0 0 .3-.1l.3-.2.4-.1.3-.2.1.3.2.3a4.7 4.7 0 0 0 .2.5.8.8 0 0 1-.2 0 .6.6 0 0 1-.2.2.4.4 0 0 0 0-.1l-.6.2a.3.3 0 0 0 0 .1l-.1.1m0-.5.2-.1.3-.2-.1-.3-.6.2Zm1.5-.2a.9.9 0 0 1-.2.1 5.4 5.4 0 0 0-.2-.6l-.3-.6L26 9a5.7 5.7 0 0 0-.3-.6l.4-.2.5-.2h.4v1a1 1 0 0 1 .6.5.5.5 0 0 1 0 .5.6.6 0 0 1-.1.2 1.9 1.9 0 0 1-.3.1.8.8 0 0 0 0-.1.7.7 0 0 0-.2-.2 1.8 1.8 0 0 0 .1 0 .4.4 0 0 0 .1-.1v-.3a.9.9 0 0 0-.6-.4V8.4l-.4.2.6 1.3a8 8 0 0 0 .4.8 1 1 0 0 1-.2.1M28.4 8l-.3-.1a.7.7 0 0 0 .2-.4 1.4 1.4 0 0 1 .2 0v.1a.7.7 0 0 1 0 .2.6.6 0 0 1-.1.2m2 1.8a.6.6 0 0 0-.3-.3l.5-.1a1 1 0 0 0 .1-.6L30 9a1 1 0 0 1-.3.6 2.5 2.5 0 0 1-.9.5.8.8 0 0 0-.1-.1 1.1 1.1 0 0 0-.2-.1 2.6 2.6 0 0 0 .8-.4.7.7 0 0 0 .2-.4l-.8.1V9h-.3l-.1-.6a.8.8 0 0 0-.2-.2 1.2 1.2 0 0 0 .4-.2.5.5 0 0 0 .2-.4 2 2 0 0 0 0-.4h.3a2 2 0 0 1 0 .5l.6.2-.3.2A4 4 0 0 0 29 8a1 1 0 0 1-.3.3l.6-.1.6-.1a.7.7 0 0 0-.2-.2 1.2 1.2 0 0 0 .4-.3.5.5 0 0 0 .1-.3 1.7 1.7 0 0 0 0-.4h.3a2 2 0 0 1 0 .5q.5 0 .8.2l-.1.2h.1l.1.6h-.2a.8.8 0 0 0 0 .1 5.8 5.8 0 0 1 0 .7.6.6 0 0 1 0 .3.5.5 0 0 1-.3.2h-.5M28.8 9l.7-.2v-.2H29l-.3.1Zm.5-1.2h-.2a2.1 2.1 0 0 0 .1-.5 2.4 2.4 0 0 1 .3 0v.2l-.1.2m.4 0h-.3a.6.6 0 0 0 .2-.5h.2l.1.1a1 1 0 0 1 0 .2.6.6 0 0 1-.2.2m.2 1h.4l.5-.2v-.2l-1 .2v.2M30 8h.4l.5-.2-.5-.1a1 1 0 0 1-.4.3m.8-.6h-.2a1.7 1.7 0 0 0 .1-.5 2.4 2.4 0 0 1 .3 0h.1V7l-.1.1-.1.2M34 9.4a1 1 0 0 0-.3-.2l-1.4.1V9h.7v-.2h-.7a.4.4 0 0 1 0-.2h.7v-.2h-.6v-1h.6-.7a.4.4 0 0 1 0-.2.4.4 0 0 1 0-.2h.7-.6a1 1 0 0 0-.1-.3 11.4 11.4 0 0 0 1.5-.2l.2.3-.7.1v.2h.7v.1h.3v-.6h.4v.6h.7v1.5a1.2 1.2 0 0 1-.1.5.3.3 0 0 1-.2.2.6.6 0 0 1-.1 0 2.8 2.8 0 0 1-.4 0 .7.7 0 0 0-.2-.3h.4a.1.1 0 0 0 .1 0 .8.8 0 0 0 0-.5l.1-1h-.3a3.9 3.9 0 0 1-.2 1 1.6 1.6 0 0 1-.6.8m-1.2-1.6h.3v-.1h-.3Zm0 .4h.3V8h-.3Zm.6.7h.6a1.5 1.5 0 0 0 .3-.6 3.6 3.6 0 0 0 .1-.7H34v-.3h-.7v.1h.7v1h-.7v.1h.7a.4.4 0 0 1 0 .2h-.7Zm0-1h.3v-.2h-.3Zm0 .3h.3V8h-.3ZM36.3 9.5a1 1 0 0 0-.1-.1 1.3 1.3 0 0 0-.1-.2 2 2 0 0 0 1-.6 2 2 0 0 0 .4-.7l-.5-.1-.5-.1a1 1 0 0 1 0-.2.9.9 0 0 1 0-.2h.6l.5.2v-.3a2.7 2.7 0 0 0 .1-.3h.3l.2.1a.6.6 0 0 0-.1.3v.3l.6.1.7.2V8L39 9.3a1 1 0 0 1-.3.5.5.5 0 0 1-.2 0 .7.7 0 0 1-.2.1 3.7 3.7 0 0 1-.5-.1.8.8 0 0 0 0-.2.8.8 0 0 0 0-.2l.4.1a.2.2 0 0 0 .2 0 3.5 3.5 0 0 0 .5-1.4l-1-.1a2.4 2.4 0 0 1-.4.9 2.3 2.3 0 0 1-1.2.6M40 10.4a.6.6 0 0 0 0-.3l.4.2a.2.2 0 0 0 .2 0l.2-.3-.4-.2-.3-.1a5.8 5.8 0 0 0 .4-.6l.6.2.1-.2-.5-.2h-.3a1.4 1.4 0 0 0 0-.4 2.4 2.4 0 0 0 .6 0l-.3-.3h.3a2.6 2.6 0 0 1 .3.3 1.4 1.4 0 0 0 .2-.1l-.3-.2H41a.5.5 0 0 1 0-.2.4.4 0 0 1 .1-.2 2 2 0 0 0 .2.1l.2.1.5.2.2.2a1.9 1.9 0 0 1-.9.4l.4.2-.2.6a.5.5 0 0 0 .3-.1.5.5 0 0 0 0-.2l.2-.2.6.3a2.2 2.2 0 0 1-.3-1h.3a1.5 1.5 0 0 0 0 .3 2.6 2.6 0 0 0 .5 0 1.1 1.1 0 0 1 .1.1V9a.2.2 0 0 0-.2 0h-.2l.1.2a2.8 2.8 0 0 0 .5-.1 1.2 1.2 0 0 1 0 .2l.1.1a.2.2 0 0 0-.2 0H43a2.5 2.5 0 0 0 .4.4 1.5 1.5 0 0 0-.4.2 3.1 3.1 0 0 1-.3-.3v.2a.2.2 0 0 0-.1.1.2.2 0 0 0 .1 0 1.1 1.1 0 0 0 .1 0 .9.9 0 0 0 .2.2.5.5 0 0 1 0 .1.2.2 0 0 1-.2 0 .5.5 0 0 1-.2 0h-.2a.3.3 0 0 1-.1-.2.2.2 0 0 1 0-.1.7.7 0 0 1 0-.2v-.2h-.2a.7.7 0 0 1-.6.3 1.2 1.2 0 0 0-.1-.3v.1a.6.6 0 0 1-.3 0 .5.5 0 0 1-.1 0v-.1l-.3-.2a2 2 0 0 1-.1.2l.7.3-.1.1a4.2 4.2 0 0 1-.3.5.4.4 0 0 1-.2.1.4.4 0 0 1-.3 0l-.4-.2m1 .5a1 1 0 0 0 0-.4 2.6 2.6 0 0 0 .5.1 1.4 1.4 0 0 1-.1-.4h.2H41.3a.4.4 0 0 1 0-.2l.1-.1.3.1.2.1.5.2h.1l.2.2a1.3 1.3 0 0 1-.6.4 2.6 2.6 0 0 0 .5.4 1.1 1.1 0 0 0-.4.1 2.4 2.4 0 0 1-.5-.4 2.8 2.8 0 0 1-.7-.1m.9-.3a1 1 0 0 0 .3 0l-.2-.2h-.3a1 1 0 0 0 .2.2M43.3 12a1.2 1.2 0 0 0-.1-.2 1.3 1.3 0 0 0-.1-.2 2 2 0 0 0 .7-.4 5 5 0 0 0 .5-.7l.3-.4a3.8 3.8 0 0 0 .3-.3l.5.4.6.4.5.3a6 6 0 0 0 .6.5 3 3 0 0 0-.3.3l-.2.3-.4-.3-.1.2.2.2.2.1a.5.5 0 0 1-.1.1.6.6 0 0 1-.1.2l-.2-.2-.2-.1-.1.1.2.2.3.2a.6.6 0 0 1-.1.1.6.6 0 0 1-.1.2 1.1 1.1 0 0 0-.1-.1l-.2-.2.1.3a4 4 0 0 1-.5 0 2.1 2.1 0 0 0 .4.5 1 1 0 0 0-.4 0 1.8 1.8 0 0 1-.5-.9v.3l-.8-.4-.4-.3.1-.3.3.2.3-.4h-.1l-.2-.2a.5.5 0 0 1 0-.1l.2-.1a2.3 2.3 0 0 0 .2.1l.2.2.1-.2-.1-.1a2 2 0 0 0-.2-.1.5.5 0 0 1 0-.2.6.6 0 0 1 .2-.1 1.7 1.7 0 0 0 .1.1l.2.2.1-.2-.4-.3a3.2 3.2 0 0 1-1.4 1.3m1.1.3h.2v.1l.3.2a1.7 1.7 0 0 1 0-.5l-.2-.2Zm.5-1.9 1.5 1.1.1-.2-.7-.5-.8-.5Zm.1 1.4.4.3.2-.2-.2-.1-.3-.2Zm.3.8a3.9 3.9 0 0 0 .4 0h-.2l-.2-.2a1.3 1.3 0 0 0 0 .2m0-1.2.4.3.2-.2-.2-.1-.3-.2ZM46.6 14.8a.7.7 0 0 1-.1-.2 3.3 3.3 0 0 0 .3-.2l.2-.3a5.2 5.2 0 0 1-.4-.3 1.3 1.3 0 0 0 0-.2 1.3 1.3 0 0 0 0-.2 8 8 0 0 0 1.3.8l-.5-.5-.4-.4a1.1 1.1 0 0 1 .2-.2l.4.4.4.4-.2-.4-.3-.3.1-.1a.5.5 0 0 1 .1 0l.3.2.3.3-.6-.7.3-.3a3 3 0 0 0 .2-.2l.5.5.5.5.9 1-.3.2a3 3 0 0 0-.3.3 7 7 0 0 0-.4-.5l-.5-.5.4.6v.1a2.8 2.8 0 0 0 .3 0 1.3 1.3 0 0 1 0 .4.2.2 0 0 0-.1 0h-.3l.2.2.2.2h-.1a.5.5 0 0 1-.1.2l-.3-.4-.3-.3a2 2 0 0 1 .2.4h-.2l.2.2-.4.3a4.7 4.7 0 0 0-.4.4.9.9 0 0 1-.1-.2l-.2-.1-.8-1-.2-.1m.4-.1.9 1v-.1l-.4-.5-.4-.5Zm.3-.2.4.4.4.5h.1l-.8-1Zm.6 0 .2.3.3.3a3.2 3.2 0 0 0-.2-.3h.2a5.7 5.7 0 0 1-.5-.2m.3-1.6.1.1.1.2.2-.2-.3-.2Zm0 1.2.3.3a2.8 2.8 0 0 0 .3 0l-.3-.2-.2-.2Zm.5-.6.2.2.2-.1-.1-.1-.2-.2Zm.5.5.2.3.2-.1-.1-.2-.2-.1ZM17.6 19.1 15.9 18l.2-.4 2.4.7-.1.3-1.9-.5 1.6 1-.2.5L16 19l1.6 1.1-.2.3-2-1.4.2-.5ZM17.2 21.3c-.2.4-.7.7-1.5.4s-1-.8-.9-1.2.6-.7 1.5-.4 1 .8.9 1.2m-2-.7c-.2.3 0 .5.6.7s1 .1 1 0 0-.6-.7-.8-.9-.1-1 .1M16.8 22.4l-.1.7a.6.6 0 0 1-.8.4.5.5 0 0 1-.5-.5s0 .2-.3.2h-1l.1-.4h.8a.3.3 0 0 0 .3-.2v-.1l-1-.3.1-.3Zm-1.2.3a.3.3 0 0 0 .3.4c.3.1.4 0 .4-.2v-.2l-.6-.1ZM16.4 24.1v.4l-1-.1 1 .7-.1.5-1-.9-1.5.6V25l1.3-.5-1.1-.2v-.4ZM16.3 25.9v1h-.4v-.7h-.7v.7h-.4v-.7h-1v-.4ZM16.3 28c0 .5-.3.9-1.2 1s-1.3-.4-1.3-.8.3-1 1.2-1 1.3.4 1.3.8m-2.2.1c0 .3.3.5 1 .4s.9-.2.8-.5-.2-.4-.9-.4-.9.3-.9.5M16.3 29.2l.1.6a.6.6 0 0 1-.5.8.5.5 0 0 1-.6-.3l-.3.2-.9.5v-.5l.7-.3a.3.3 0 0 0 .2-.3v-.1l-1 .1v-.3Zm-1 .7a.3.3 0 0 0 .5.3c.3 0 .3-.2.3-.4v-.2l-.7.1ZM14.7 32.8a1 1 0 0 1-.2-.4c-.2-.7.2-1.1 1-1.3s1.2 0 1.4.6a1.2 1.2 0 0 1 0 .5l-.4.1a.8.8 0 0 0 0-.4c0-.3-.4-.5-1-.4s-.7.5-.7.8a.6.6 0 0 0 .3.4ZM17.1 32.6l.4 1-.4.1-.2-.7-.6.3.2.6-.3.1-.3-.6-.6.2.2.7-.3.2-.4-1.1ZM18 34.7l.2.5c.3.6.1 1.1-.6 1.5a1 1 0 0 1-1.5-.3l-.3-.5ZM16.3 36v.2c.3.3.7.4 1.1.1s.7-.6.5-1ZM18.9 36.4l.6 1-.3.1-.4-.6-.5.4.4.5-.3.2-.4-.5-.6.4.4.6-.3.2-.6-1ZM19.6 37.5l.3.4-1.2 1.5 1.8-.9.2.3-2.3 1-.3-.3ZM20.9 39l.8.8-.3.3-.5-.6-.5.5.5.5-.2.2-.5-.5-.6.5.6.6-.3.2-.8-.8ZM22 40l.2.3L21 42l.5.5-.2.2-.9-.7ZM23.7 41.4c.3.3.4.8 0 1.5s-1.1.8-1.5.5-.5-.8 0-1.5 1-.8 1.5-.5m-1.3 1.8c.2.1.5 0 .9-.5s.4-.9.2-1-.6 0-1 .5-.3.8-.1 1M24.6 42.1l.5.3a.7.7 0 0 1-.7 1.3l-.2-.1-.5.8-.3-.2Zm-.1 1.3c.2 0 .4 0 .5-.2s.1-.4-.1-.5l-.1-.1-.4.7ZM27.3 44 26 45.5l-.2-.1.3-2.1-.8 1.9-.3-.2 1-2.2.5.2-.3 1.9 1.1-1.5.5.2-1 2.2-.3-.1ZM28.3 43.8l1 .4v.3l-.8-.2-.2.6.7.2-.1.4-.7-.2-.2.6.7.3v.3l-1.2-.3ZM29.7 44.3h.5l.3 2 .4-1.8h.3l-.5 2.5-.4-.1-.4-2-.3 1.8h-.4ZM31.9 45h-.5v-.4l1.4.2v.3h-.5l-.2 2h-.4ZM34.9 46.6H34l-.1.6h-.4l.6-2.4h.5l.7 2.4H35Zm-.1-.3-.3-1.2-.3 1.2ZM36.6 45.7l.6-.1.2 1.2a1.2 1.2 0 0 1-.6.2c-.6.1-1-.3-1.2-1s.2-1.3 1-1.4a1.3 1.3 0 0 1 .5 0v.4a.9.9 0 0 0-.5 0c-.4 0-.6.4-.5.9 0 .5.3.9.7.8a.6.6 0 0 0 .2 0V46h-.4ZM37.5 44.4l1.1-.2v.3l-.6.2.1.6.7-.1v.3l-.6.2.2.7.7-.2v.4l-1 .2ZM39 44.1l.4-.1 1.3 1.5-.6-1.8h.3l.8 2.2-.4.2-1.3-1.6.6 1.8-.4.1ZM43 45a1 1 0 0 1-.3.3c-.6.3-1.1 0-1.4-.7s-.2-1.3.3-1.6a1.2 1.2 0 0 1 .5 0l.2.3a.8.8 0 0 0-.5 0c-.3.2-.4.5-.1 1.1s.6.7.9.5a.6.6 0 0 0 .3-.2ZM43.5 43.8l-1.3-1 .3-.2.9.6-.1-1 .3-.2.2 1.6.5.8-.4.2ZM44.9 43.5l.2.9-.2.1-.3-.8ZM46.3 40.4l1 1.9-.3.2-1.7-1.3 1.3 1.6-.2.2-1.6-1.8.4-.4 1.5 1-.8-1.6.4-.4 1.6 1.9-.2.2ZM46.6 39.5l.3-.3 1.7 1.7-.2.3ZM47.2 38.9l.3-.4 2 .7L48 38l.2-.3 1.9 1.6-.3.3-2-.6 1.5 1.2-.2.3ZM48.5 37.4l.2-.4 2 1.4-.3.3zM50.6 37.7a.8.8 0 0 0 .4-.3.3.3 0 0 0-.1-.5h-.5l-.2.1a.7.7 0 0 1-.7 0 .6.6 0 0 1-.3-1 1.3 1.3 0 0 1 .3-.3l.3.3a1 1 0 0 0-.3.2.3.3 0 0 0 .1.5.4.4 0 0 0 .4 0l.3-.2a.7.7 0 0 1 .7 0 .7.7 0 0 1 .3 1 .9.9 0 0 1-.4.4ZM50.2 35.2l-.2.4-.3-.1.6-1.3.3.2-.2.4 1.8 1-.1.3ZM50.4 34l.2-.6a.6.6 0 0 1 .8-.4.5.5 0 0 1 .4.6s.1-.1.4 0h1l-.2.4-.8-.1a.3.3 0 0 0-.4.2l1 .4-.2.4Zm1.1-.1a.3.3 0 0 0-.2-.5c-.2 0-.3 0-.4.2v.2l.6.2ZM52.4 32.6l-1.6.2.2-.4 1-.2-.8-.6.1-.4 1.2 1 1 .3-.1.3ZM51.6 29.4c0-.5.5-.8 1.3-.7s1.2.6 1.2 1-.5.8-1.4.7-1.2-.6-1.1-1m2.1.3c0-.3-.2-.5-.8-.6s-1 0-1 .3.2.5.9.6.9-.1 1-.3M51.7 28.2V27h.4v.7h.7v-.7h.4v.7h1v.5ZM51.8 26v-.5l2-.2v-.7h.3v1.1ZM53.3 23.1v.8h.7v.4l-2.5-.3v-.4l2.2-1.1.1.4Zm-.4.2-1 .4 1.1.1ZM51.3 22.7l-.2-.6c-.1-.4 0-.7.4-.8a.5.5 0 0 1 .6.2.5.5 0 0 1 .5-.5.6.6 0 0 1 .8.4l.2.7Zm.9-.6-.1-.2a.3.3 0 0 0-.4-.2.3.3 0 0 0-.3.4v.2Zm1-.3v-.2a.3.3 0 0 0-.5-.2.3.3 0 0 0-.3.4v.2ZM50.5 20.4c-.2-.4 0-1 .8-1.3s1.3 0 1.5.4 0 .9-.8 1.2-1.3.1-1.5-.3m2-.8c-.1-.2-.4-.3-1 0s-.8.4-.7.7.4.3 1 0 .8-.5.7-.7M50 19.3l-.3-.6a.6.6 0 0 1 .3-.9.5.5 0 0 1 .7.1l.1-.3.7-.7.2.4-.6.5a.3.3 0 0 0 0 .4v.1l1-.5.1.4Zm.7-1a.3.3 0 0 0-.5-.1.3.3 0 0 0-.1.4v.2l.7-.3Z"/><g clip-path="url(#a)" style="mix-blend-mode:multiply;isolation:isolate" transform="translate(18.3 11.3)"><path fill="#ffb900" d="M31.4 15.7A15.7 15.7 0 1 1 15.7 0a15.7 15.7 0 0 1 15.7 15.7"/></g><g clip-path="url(#b)" transform="translate(18.3 11.3)"><path fill="#86c9cf" d="M14 31.3a16 16 0 0 0 1.7 0 15.7 15.7 0 0 0 14.1-8.9l-7.7-21A15.6 15.6 0 0 0 4.3 4.9Z"/><path fill="#86c9cf" d="M15.7 31.4a15.7 15.7 0 0 0 9-28.6 25.5 25.5 0 0 1-3 8.4 46.7 46.7 0 0 0-6.8 20.1h.8"/><path fill="#59b5ad" d="M15.7 31.4a15.7 15.7 0 0 0 14.1-9l-6-16.3a29.8 29.8 0 0 1-2.1 5.1 46.7 46.7 0 0 0-6.8 20.1h.8"/><path fill="#dddddc" d="M20.3.7A15.7 15.7 0 0 0 9.5 30.1Z"/><path fill="#e85620" d="m1.5 11.2-.5-1a15.6 15.6 0 0 0 7.1 19.2c-.4-3.6-2-9.5-6.6-18.2"/></g><path fill="#fff" d="M22 35.2h7.5S38.3 24.9 41.3 15a52.4 52.4 0 0 1-13.4 9.1 37.2 37.2 0 0 0 5.9-.3A75.8 75.8 0 0 1 22 35.2"/><path fill="#fff" d="M23 25.9h-.1c1.1-1.4 4.8-1.3 8.4.4l.3.1.9-1c-4.5-1.7-8.6-1.6-9.6.5"/><path fill="#fff" d="M41 33.4c-.1-2.9-3.2-5-5.5-6.5-4.2-2.7-11.4-3.9-12.6-1 2-2.3 8.8-.1 11.7 2.5 4.5 3.6 1.2 7.3-3.8 5.3l-.6.7a15 15 0 0 0 3.3 1.4 11.6 11.6 0 0 0 2.7.4c2 0 4.7-.5 4.8-2.8"/><g><path fill="#00406e" d="M612.7 34.4v-.1a13.6 13.6 0 0 0 1.8-3.1 10.8 10.8 0 0 0 .5-3.5V20h.1a30.6 30.6 0 0 0 7.2-1l1 1.5h-.2a31 31 0 0 1-6.4 1v3.3h7.3v1.7h-2.5v8.9h-1.7v-8.9h-3v1.4a12 12 0 0 1-.8 4 14.4 14.4 0 0 1-2 3.6v.1Zm-167.8 0v-.1a13.5 13.5 0 0 0 1.7-3.1 10.8 10.8 0 0 0 .6-3.5V20a30.6 30.6 0 0 0 7.3-1l1 1.5h-.2a31 31 0 0 1-6.4 1v3.3h7.3v1.7h-2.5v8.9H452v-8.9h-3.1v1.4a12 12 0 0 1-.7 4 14.4 14.4 0 0 1-2 3.6v.1Zm132.5 1v-4A18.2 18.2 0 0 1 575 33a21.9 21.9 0 0 1-4.2 1.6h-.1l-.8-1.3h.2a18.8 18.8 0 0 0 4.4-2 15.4 15.4 0 0 0 2.9-1.9v-1.1h-3.7v3h-1.8v-4.5h5.5v-1h-6.7v-1.4h6.7v-1.2h1.6l-1.3-1h.1a8.3 8.3 0 0 0 .7-.6h-5.1a9.4 9.4 0 0 1-2.1 1.9l-1.3-1.3h.1a8.9 8.9 0 0 0 1.9-1.6 8.7 8.7 0 0 0 1.3-1.7v-.1l1.7.4v.2l-.5.7h4.2v1.3a7.4 7.4 0 0 0 .7-.9 7.7 7.7 0 0 0 1.1-1.7l1.7.4-.1.2-.3.6h4.6v1.6h-5.6a10.3 10.3 0 0 1-1.6 1.7h-.1v1h7V26h-7v.9h6v3c0 1.2-.7 1.7-2.1 1.7a3.3 3.3 0 0 1-.9-.1 18.9 18.9 0 0 0 4.3 1.5h.2l-.8 1.6h-.1a21.3 21.3 0 0 1-4-1.5 13.2 13.2 0 0 1-2.6-1.7v4.2Zm1.7-6a13.7 13.7 0 0 0 2.6 1.8l-.3-1.5h.2a4 4 0 0 0 1.4.3c.1 0 .3 0 .3-.5v-1.2h-4.2Zm52.2 5.9h-.1l-.3-2h.2a6.9 6.9 0 0 0 1.9.4c.2 0 .4-.1.4-.6v-3.4l-5.9.3-.3-1.8a32.1 32.1 0 0 0 4.8-2l-3.6.4h-.1l-.4-1.5a26.7 26.7 0 0 0 7-4.2l1.7.5-.1.2a21 21 0 0 1-4 3l2.9-.3a26.2 26.2 0 0 0 2.4-2l1.5 1v.1a31.4 31.4 0 0 1-5.1 3.6c-1 .5-2 1-3 1.3a33.1 33.1 0 0 0 6.6-.8 39 39 0 0 0-1-1v-.1l1.4-1a17.5 17.5 0 0 1 3.3 4l-1.6 1h-.1a15.4 15.4 0 0 0-.8-1.4l-3.8.5v3.9c0 .8-.1 1.3-.4 1.5a2.7 2.7 0 0 1-1.8.5 9.6 9.6 0 0 1-1.7-.1Zm-219.2 0-.3-1.4h.2l1.7.1c.1 0 .2 0 .3-.2a3.2 3.2 0 0 0 .1-1.2 12.2 12.2 0 0 1-1.8 1 14.6 14.6 0 0 1-2.8 1.1h-.1l-.7-1.3h.2a15.2 15.2 0 0 0 2.8-1.1 12.9 12.9 0 0 0 2.1-1.3 2.4 2.4 0 0 0 0-.2 11.1 11.1 0 0 1-1.6.9 9.9 9.9 0 0 1-2.4 1l-.8-1.4h.2a16.9 16.9 0 0 0 2.4-.9 12.5 12.5 0 0 0 1.3-.7 4.6 4.6 0 0 0-.5-.3 13.2 13.2 0 0 1-2.6 1.2l-.8-1a13.2 13.2 0 0 1-.5 2.6 10 10 0 0 1-1.4 2.9L406 34a8.8 8.8 0 0 0 1.1-2.8 22.3 22.3 0 0 0 .4-4.5v-5.2h4v-2.7h1.7v.8h4.7v1.3h-4.7v.6h5.6v.1a14 14 0 0 1-1.5 3.4v.1l-1.3-.7v.3l-3.3.3v.3s0 .2.2.2h4.7v1.2h-5c-1.3 0-1.5-.6-1.5-1.1V25l-1.8.1-.2-1.3 2-.1v-1h-2v4.4l-.1 2.2a9.3 9.3 0 0 0 2.2-.8l.5-.2h-2.3v-1.4h9v1.4h-4.5l-.3.2a5 5 0 0 1 1.3 1.5 10.3 10.3 0 0 0 2.2-1.4l1.1 1.1-.1.1a13.8 13.8 0 0 1-2.3 1.3 15.8 15.8 0 0 0 3 2.1v.1l-1 1.5a17 17 0 0 1-2.2-1.8 3 3 0 0 1-.6 1.8 1.7 1.7 0 0 1-1.3.6Zm4-11.1a10 10 0 0 0 .6-1.5h-4v.9l3.3-.3Zm60.7 10a12 12 0 0 0 1.3-3 12.3 12.3 0 0 0 .5-3.3v-8.6h13.6V33c0 1.4-.6 2.1-1.8 2.1a14 14 0 0 1-2-.1l-.4-2h.2a7.5 7.5 0 0 0 1.9.3c.3 0 .3-.5.3-1v-2.7h-4.1v5h-1.8v-5h-4.2a15.2 15.2 0 0 1-.5 2.5 13.6 13.6 0 0 1-1.4 3.2Zm9.5-6.3h4.1v-2.6h-4.1Zm-5.9 0h4v-2.6h-4Zm5.9-4.3h4.1V21h-4.1Zm-5.9 0h4V21h-4Zm-81.6 11.7a15.6 15.6 0 0 1-2.6-3 10.8 10.8 0 0 1-2.6 3h-.1l-1-1.2-.9 1.2a23 23 0 0 0-2.8-1.5 11.4 11.4 0 0 1-4.5 1.4h-.1l-.5-1.5h.2a9.4 9.4 0 0 0 3-.7l-2.3-.8-.1-.1V32l.8-1h-1.7v-1.3h2.5l.5-1h-2.5v-3.3h3.4v-.6h-3.1v-2h-.8v-1.4h.8v-1.9h3v-.8h1.7v.8h3v2h1v1.3h-1v2h-3v.6h3.4v3.3h-5.3l1 .1v.2l-.3.7h2.2l.1-.7h1.7l-.2.6h1.3V31h-1.8a7.7 7.7 0 0 1-1 1.7l2.3 1.1h.1v.1a10 10 0 0 0 2.6-3.3 23.6 23.6 0 0 1-1.5-4l.2-.2-1.2-1.2a22 22 0 0 0 1-3l.7-3.3v-.1l1.5.4v.1l-.4 2.3h4.4v1.6h-1.2a24.7 24.7 0 0 1-1.5 7l-.1.4a11.4 11.4 0 0 0 3 3.2l-1.2 1.6Zm-12-3.9 1.7.6h.1a4.7 4.7 0 0 0 .8-1H387l-.3.4Zm8.2-5.6a21.6 21.6 0 0 0 1 3 24.4 24.4 0 0 0 1-5.6h-1.9a17.1 17.1 0 0 1-1 3l-.1.1 1-.7Zm-6 1.6h2v-.7h-2Zm-3.3 0h1.8v-.7h-1.8Zm3.4-4h1.5v-.6h-1.5Zm-3.1 0h1.5v-.6H386Zm3-2h1.6V21h-1.5Zm-3 0h1.5V21H386ZM651 34a6.2 6.2 0 0 0 2-2.2 10.8 10.8 0 0 0 .7-4.2H651.8l-.5-1.3V26a12.1 12.1 0 0 0 2.7-3.6h-2.5v-1.6h3.3l.7-2v-.2l1.7.5v.1l-.6 1.6h4.2v1.6h-5L655 24a12.8 12.8 0 0 1-1.2 1.8l4.3-.4a14.3 14.3 0 0 0-1-1.6l1.3-.7h.1a19.5 19.5 0 0 1 2.3 4.1v.1l-1.5.7V28a21 21 0 0 0-.5-1h-.7v6a.9.9 0 0 0 0 .4h.4l1-.1a1.6 1.6 0 0 0 .2-.9 9.7 9.7 0 0 0 .2-1.3v-.2l1.5.8c-.3 1.6-.5 2.6-.9 3l-.8.3a4.2 4.2 0 0 1-1.2.1 3.4 3.4 0 0 1-1-.1c-.7-.1-1-.7-1-1.7v-6h-1.1c-.1 2.7-.4 4.5-1 5.4a7.7 7.7 0 0 1-2.5 2.6Zm-96.6-.2h.2a12.6 12.6 0 0 0 4.2-2.8 5 5 0 0 0 1.2-2.3h-4.4v-1.7h4.5v-3.5h-3.4v-1.7h3.4v-2.9h1.7v2.9h4.6v5.2h1.6v1.7h-6.3a6.5 6.5 0 0 1-1.8 3.7 13.6 13.6 0 0 1-4.3 3h-.1Zm7.4-6.8h2.8v-3.5h-2.8ZM500 33.8h.1a5 5 0 0 0 3-2 6.6 6.6 0 0 0 .8-2.2h-1.6V19.4h8.3v10.2h-2v3.6c0 .2.1.3.2.3h1.3v-.1a1.9 1.9 0 0 0 .2-.8l.2-1.4v-.1l1.6.8c-.2 1.6-.5 2.5-.9 2.8a1 1 0 0 1-.7.4 4.9 4.9 0 0 1-1.2 0 4.7 4.7 0 0 1-1.2 0c-.8-.1-1.1-.7-1.1-1.6v-3.9h-1.4a8.6 8.6 0 0 1-1.1 3.2 6.4 6.4 0 0 1-3.8 2.5h-.1Zm4-5.8h5v-1.3h-5Zm0-2.8h5V24h-5Zm0-2.7h5V21h-5Zm47.6 11.7V34a39 39 0 0 0 2.3-6.9V27l1.5 1v.1a38.6 38.6 0 0 1-2.2 7l-.1.2Zm-16.5 1.1v-9.5a19.5 19.5 0 0 1-1.4 1.9l-.1.1-1-1.7h.1a22.8 22.8 0 0 0 3.8-7.4v-.1l1.8.5a25.3 25.3 0 0 1-1.5 3.6v12.6Zm-37.4 0V28a8.8 8.8 0 0 1-1.5 1v.1l-1-1.7a8.9 8.9 0 0 0 2.8-2 12.7 12.7 0 0 0 1.6-2.2h-4v-1.7h2.8a7.4 7.4 0 0 0-1.2-1.7h-.1l1.3-1h.1a9 9 0 0 1 1.4 1.9l-1.2.8h2.9V23a19.1 19.1 0 0 1-2 3.1 26.5 26.5 0 0 1 2.5 2.3l.1.1-1 1.5-.2-.1a19.3 19.3 0 0 0-1.5-1.7v7.1Zm-133-1.6a16.6 16.6 0 0 0 5.6-4.7 9.8 9.8 0 0 0 1.6-4h-6.6v-1.8h6.7V19h1.9v4.3h6.8V25h-6.1a14.8 14.8 0 0 0 2.3 4.8 10.6 10.6 0 0 0 4.4 3.4l.1.1-1 1.8a12 12 0 0 1-4.7-4 17.4 17.4 0 0 1-2.3-4.2 11.2 11.2 0 0 1-2 3.7 17.8 17.8 0 0 1-5.8 4.6v.1ZM589 34h.1a10.2 10.2 0 0 0 3.7-3 8.1 8.1 0 0 0 1.4-4h-2.8v-1.6a12.7 12.7 0 0 1-1.6 1.5h-.1l-1.1-1.4a21.6 21.6 0 0 0 2.9-3 16.7 16.7 0 0 0 2-3.2V19l1.6.9a18.6 18.6 0 0 1-2.2 3.6l-1.4 1.6h10.1a9.4 9.4 0 0 1-.6-.9 11.8 11.8 0 0 1-1.6-3.4h-2v-1.7h3.5a9.3 9.3 0 0 0 1.4 4 10 10 0 0 0 2.8 2.7h.2l-1.5 1.4v-.1a13.8 13.8 0 0 1-1.6-1.4c0 5-.3 7.7-.7 8.3a2 2 0 0 1-2 1 14.8 14.8 0 0 1-1.9-.2L597 33h.2a12.7 12.7 0 0 0 2.1.3c.2 0 .4 0 .6-.5a37.6 37.6 0 0 0 .3-5.9H596a9 9 0 0 1-1.7 5.2 11.2 11.2 0 0 1-4.2 3.1Zm-167.8 0h.1a10.2 10.2 0 0 0 3.7-3 8.1 8.1 0 0 0 1.4-4h-2.8v-1.6a12.7 12.7 0 0 1-1.6 1.5h-.1l-1.2-1.4h.1a21.6 21.6 0 0 0 2.8-3 16.7 16.7 0 0 0 2-3.2l.1-.1 1.6.9a18.6 18.6 0 0 1-2.3 3.6q-.7 1-1.4 1.6h10.2a9.4 9.4 0 0 1-.7-.9 11.8 11.8 0 0 1-1.6-3.4h-1.9v-1.7h3.5a9.3 9.3 0 0 0 1.4 4 10 10 0 0 0 2.8 2.7h.1l-1.4 1.4-.1-.1a13.8 13.8 0 0 1-1.6-1.4c0 5-.2 7.7-.6 8.3a2 2 0 0 1-2 1 14.8 14.8 0 0 1-2-.2l-.4-1.9h.1a12.7 12.7 0 0 0 2.2.3c.2 0 .4 0 .5-.5a37.6 37.6 0 0 0 .4-5.9H428a9 9 0 0 1-1.7 5.2 11.2 11.2 0 0 1-4 3.1h-.2Zm93.4-.2h.2a8.7 8.7 0 0 0 3.6-.8 2.5 2.5 0 0 0 .6-.4h-2.5v-6.4H528v6.4h-3.2v.8c0 .2.4.3.7.3h1.1a13 13 0 0 0 1.9 0 .5.5 0 0 0 .3-.4 3 3 0 0 0 .2-1V32l1.5.8a2.5 2.5 0 0 1-.7 2 3 3 0 0 1-1 .2 18.4 18.4 0 0 1-2.2 0h-1.5c-1.3 0-2-.5-2-1.3v-1.2H521a4.2 4.2 0 0 1-1.5 1.7 10.4 10.4 0 0 1-4.3 1h-.2Zm3.5-2.5h8.3v-.5h-8.3Zm0-1.7h8.3V29h-8.3Zm0-1.7h8.3v-.4h-8.3Zm92.1 7.5V28l-.2.4a14.2 14.2 0 0 1-1.6 3v.1l-1.3-1.2a17.7 17.7 0 0 0 2-3.6 17.2 17.2 0 0 0 1-3.1h-2.5v-1.8h2.6v-3h1.7v3h2.4v1.8h-2.4v.7a37.5 37.5 0 0 1 2.5 3.6l-1.1 1.6v-.1l-1.4-2.6v8.5Zm-167.8 0V28l-.2.4a14.2 14.2 0 0 1-1.6 3l-.1.1-1.2-1.2a17.6 17.6 0 0 0 2-3.6 17 17 0 0 0 1-3.1h-2.5v-1.8h2.6v-3h1.7v3h2.3v1.8h-2.3v.7a37.5 37.5 0 0 1 2.5 3.6l-1.1 1.6-.1-.1-1.3-2.6v8.5Zm-40-.3-.3-1.6h.2a7.1 7.1 0 0 0 1.4.2.6.6 0 0 0 .4-.1 1.2 1.2 0 0 0 .1-.5v-4.3l-1.3.4h-.1l-.6-1.6h.1l1.9-.6v-3.3h-1.8V22h1.8v-3.2h1.6V22h1.2v1.6h-1.2v2.7l1-.4h.1l.3 1.3-1.4.8v5.3a1.6 1.6 0 0 1-2 1.9 6.2 6.2 0 0 1-1.4-.2Zm55.6-.6v-.1a22.8 22.8 0 0 0 1-3.9 28.7 28.7 0 0 0 .3-4V20h6.8a3.6 3.6 0 0 0-.5-.7v-.1l1.7-.5v.1a4.7 4.7 0 0 1 .8 1.2h6.5v1.4h-11l1.3.3v.2a13.4 13.4 0 0 1-1.2 2.2v6.7h-1.5V26l-.6.6-.1.1-.6-1.2v1.3a29 29 0 0 1-.4 4.5 18.8 18.8 0 0 1-1 3.6v.2Zm2.9-9.2a11.6 11.6 0 0 0 2.4-3.7v-.1H461Zm81.5 10a3 3 0 0 1-1-.2c-.8 0-1.2-.6-1.2-1.7V18.8h1.7v6h7.1v1.7h-7v6.2c0 .2 0 .6.2.6a1.7 1.7 0 0 0 .7 0h3a4.2 4.2 0 0 0 1-.2c.2 0 .5-.4.7-2.8V30l1.8.7v.1a7.7 7.7 0 0 1-1 3.5 2.8 2.8 0 0 1-1.4.5 36.3 36.3 0 0 1-4 .2Zm-76.6-.1c-1.2 0-1.8-.5-1.8-1.4v-2.6h1.7v2.1c0 .1 0 .3.6.4h1a21.8 21.8 0 0 0 2.3 0 .6.6 0 0 0 .5-.4l.2-1V32l1.5.9c-.1 1-.4 1.6-.8 1.9a3.5 3.5 0 0 1-1.1.2 17.6 17.6 0 0 1-2.6.1h-1.5Zm100.4-.1a35.5 35.5 0 0 0-4-4.1l-.1-.1 1.4-1a31 31 0 0 1 4 3.8l.2.1-1.4 1.4Zm78.3-.7v-.1a16.9 16.9 0 0 0 .8-4l1.6.3a18.7 18.7 0 0 1-.8 4.4v.1ZM460.6 34l.1-.1a8.2 8.2 0 0 0 1.6-2.7V31l1.5.8v.1a7 7 0 0 1-1.6 2.9h-.1Zm12.7.6a13 13 0 0 0-1.7-2.9h-.1l1.3-.9a13.6 13.6 0 0 1 2 3v.1l-1.5.8Zm167.6 0a25.6 25.6 0 0 0-4.4-3.5l-.2-.1 1.4-1h.1a29 29 0 0 1 4.4 3.2h.1l-1.3 1.5ZM626 33h.1a15.7 15.7 0 0 0 2.6-1.3 10.4 10.4 0 0 0 2-1.6V30l1.2 1.3v.1a12.3 12.3 0 0 1-4.8 3.1h-.1Zm21.7 1.3a11.6 11.6 0 0 0-.5-3.7v-.1l1.4-.3a10.7 10.7 0 0 1 .7 4l-1.6.2Zm2.3-.6a17 17 0 0 0-.6-3.1v-.1l1.4-.5v.1a16.9 16.9 0 0 1 .8 3.2l-1.6.6Zm-182.1-.5a15.2 15.2 0 0 0-1.5-1.9h-.1l.9-.7h-1.9V26l-.7.9h-.2l-.7-1.4a12.2 12.2 0 0 0 2.4-4l1.5.3v.1l-.4.9h1.8l-.3-.8v-.1l1.6-.4a10.8 10.8 0 0 1 .4 1.2h3.3v1.5h-3.3v.7h2.9v1.4h-3v.7h3v1.4h-3v.8h3.9v1.4h-6.7a14 14 0 0 1 1.5 1.6l-1.3 1.1Zm-1-4h2.2v-.8h-2.3Zm0-2.2h2.2v-.7h-2.3Zm0-2h2.2v-.8h-2.3Zm177.8 3.5a20.8 20.8 0 0 0 2.8-3.3l-2.6.4h-.1l-.2-1.5a14.2 14.2 0 0 0 3-5.2v-.1l1.7.5v.1a21.6 21.6 0 0 1-1.9 3.7 10.3 10.3 0 0 1-.7.8l1.7-.1 1.4-2.5 1.7.5v.1a22.5 22.5 0 0 1-3.4 5.2l-1 1 2.6-.4a10 10 0 0 0-.6-1.4V26l1.4-.4a14.7 14.7 0 0 1 1.2 3.4v.1l-1.5.5v-.1l-.2-.5a30.4 30.4 0 0 1-4.8.9Zm-116-1.2v-1.6H516v1.6h-1.5v-3h1l-.1-4.8h.1a18.8 18.8 0 0 0 4-.8l.6.8.6-.8h.1l1.7.8a10.6 10.6 0 0 0 1.2-1h.1l.7.9-.8.7 1 .5h.2l-1 1 .6.7h-.1c-.3.3-.5.5-.8.6l1.1.6v-.9h2.9v-.4h-2.8v-1.3h2.9v-.5h-3V19h4.6l-.2 5.4h1.1v2.9Zm-4.6-3h3.4V24h-2.7v-.3Zm-3.4 0h3.2l-1.4-.7a10.3 10.3 0 0 1-1.8.8Zm-3.7 0h3.5l-.7-1h.2l1-.3a12 12 0 0 0-1-.4h-.2l.7-1h-.1l-.1.1-.6-1h.1l1.3-.5-.9-.4v.1a16 16 0 0 1-3.2.7v.3h2.7v1.3H517v.5h2.7v1.2H517Zm3.5-2.7h.1a17.5 17.5 0 0 1 1.7.7 11 11 0 0 0 1.3-.9l-1.1-.6a13 13 0 0 1-2 .8Zm33.8 4.8a17.3 17.3 0 0 0-2.8-2h-.2l1.2-1.2a14.2 14.2 0 0 1 2.9 1.8l-1 1.5Zm20.3-2.4a4.6 4.6 0 0 0-.9-1.7v-.1l1.6-.5a5.8 5.8 0 0 1 1.1 1.7v.1l-1.7.6Zm7.7 0a4.8 4.8 0 0 0-.8-1.7l-.2-.1 1.7-.5a5.4 5.4 0 0 1 1 1.6l.1.1-1.8.6Zm45.6-1.6h.2a29.6 29.6 0 0 0 3.5-1.8 14.3 14.3 0 0 0 2.5-1.9h.1l1.5.8-.1.1a15.4 15.4 0 0 1-2.8 2.2 23.5 23.5 0 0 1-3.8 1.9h-.1Zm-72.6-.1a15.9 15.9 0 0 0-2.8-2h-.2l1.2-1.3a15.6 15.6 0 0 1 3 1.8v.1l-1 1.5Z"/><g filter="url(#c)"><path fill="#fff" d="M614 35.5a14.4 14.4 0 0 0 2-3.7 12 12 0 0 0 .7-4v-1.4h3.1v8.9h1.7v-8.9h2.5v-1.7h-7.3v-3.3a31 31 0 0 0 6.4-1h.2l-1-1.5a30.6 30.6 0 0 1-7.2 1h-.1v7.8a10.8 10.8 0 0 1-.5 3.5 13.6 13.6 0 0 1-1.7 3v.2l1.2 1.1m-167.9 0h.1a14.4 14.4 0 0 0 2-3.7 12 12 0 0 0 .7-4v-1.4h3v8.9h1.8v-8.9h2.5v-1.7h-7.3v-3.3a31 31 0 0 0 6.4-1h.2l-1-1.5a30.6 30.6 0 0 1-7.2 1h-.1v7.8a10.8 10.8 0 0 1-.6 3.5 13.5 13.5 0 0 1-1.7 3v.2l1.2 1.1m133 0v-4.2a13.2 13.2 0 0 0 2.7 1.7 21.3 21.3 0 0 0 3.9 1.5l1-1.6h-.2a18.9 18.9 0 0 1-4.4-1.5 3.3 3.3 0 0 0 .9.1c1.4 0 2.2-.5 2.2-1.7v-3H579v-1h7v-1.4h-7v-1.1h.2a10.3 10.3 0 0 0 1.5-1.7h5.6V20h-4.6l.3-.6v-.2l-1.5-.5v.1a7.7 7.7 0 0 1-1.2 1.7 7.4 7.4 0 0 1-.7 1V20h-4.1c0-.3.2-.5.3-.7v-.2l-1.5-.4a8.7 8.7 0 0 1-1.4 1.8 8.9 8.9 0 0 1-1.9 1.6h-.1l1.2 1.3h.1a9.4 9.4 0 0 0 2-1.8h5.1a8.3 8.3 0 0 1-.5.5h-.2l1.3 1h-1.6v1.2h-6.7v1.5h6.7v.9h-5.5v4.6h1.8v-3.1h3.7v1a15.4 15.4 0 0 1-2.9 2 18.8 18.8 0 0 1-4.4 2h-.2l.8 1.3A21.9 21.9 0 0 0 575 33a18.2 18.2 0 0 0 2.4-1.5v4h1.7m0-7.2h4.3v1.2c0 .4-.2.5-.4.5a4 4 0 0 1-1.4-.3h-.2l.3 1.5a13.7 13.7 0 0 1-2.6-1.8v-1.1m54 7a2.7 2.7 0 0 0 1.7-.4c.3-.2.4-.7.4-1.5v-3.9l3.8-.5a15.4 15.4 0 0 1 .8 1.3v.1l1.8-1a17.5 17.5 0 0 0-3.3-4l-1.5 1 1 1a33.1 33.1 0 0 1-6.5.9l2.9-1.3a31.4 31.4 0 0 0 5-3.6h.2l-1.5-1h-.1a26.2 26.2 0 0 1-2.4 1.9l-3 .3a21 21 0 0 0 4-3l.2-.2-1.6-.5a26.7 26.7 0 0 1-7 4.1h-.1l.4 1.6c1.3 0 2.5-.2 3.7-.3a32.1 32.1 0 0 1-4.7 1.9h-.1l.2 1.8h.1l6-.3v3.4c0 .5-.3.6-.5.6a6.9 6.9 0 0 1-2-.3h-.1l.3 1.8h.1a9.6 9.6 0 0 0 1.7.2m-219.3 0a1.7 1.7 0 0 0 1.4-.6 3 3 0 0 0 .5-1.8 17 17 0 0 0 2.2 1.7v.1l1-1.5a15.8 15.8 0 0 1-3-2.2 13.8 13.8 0 0 0 2.3-1.3h.1l-1-1.3v.1A10.3 10.3 0 0 1 415 30a5 5 0 0 0-1.4-1.4l.3-.3h4.5v-1.4h-9v1.4h2.3l-.5.2a9.3 9.3 0 0 1-2.2.8l.1-2.2v-4.4h2v1l-2 .1.3 1.3 1.7-.1v.5c0 .5.3 1.2 1.5 1.2h5v-1.3H413c-.2 0-.2-.1-.2-.2V25l3.4-.3v-.3l1.1.7h.1a14 14 0 0 0 1.5-3.5v-.1h-5.6v-.6h4.7v-1.3h-4.7v-.8h-1.6v2.7h-4.1v5.2a22.3 22.3 0 0 1-.4 4.5 8.8 8.8 0 0 1-1 2.8h-.1l1 1.3.2-.1a10 10 0 0 0 1.3-2.9 13.2 13.2 0 0 0 .5-2.6l.8 1a13.2 13.2 0 0 0 2.6-1.2 4.6 4.6 0 0 1 .5.3 12.5 12.5 0 0 1-1.3.7 16.9 16.9 0 0 1-2.4.9h-.1l.6 1.4h.1a9.9 9.9 0 0 0 2.4-1 11.1 11.1 0 0 0 1.5-1 2.4 2.4 0 0 1 .2.3 12.9 12.9 0 0 1-2.1 1.3 15.2 15.2 0 0 1-3 1v.1l.6 1.4h.1a14.6 14.6 0 0 0 2.8-1.2 12.2 12.2 0 0 0 1.8-1 3.2 3.2 0 0 1-.1 1.2l-.3.2H412l.2 1.4h1.6m2.3-12-3.3.2v-.9h4a10 10 0 0 1-.7 1.5v-.9m62.3 12a13.6 13.6 0 0 0 1.5-3.2 15.2 15.2 0 0 0 .5-2.5h4.2v5.1h1.8v-5h4.1v2.7c0 .4 0 1-.3 1a7.5 7.5 0 0 1-2-.4h-.1l.4 2a14 14 0 0 0 2 .1c1.2 0 1.8-.7 1.8-2V19.2h-13.6v8.6a12.3 12.3 0 0 1-.5 3.3 12 12 0 0 1-1.3 3l1.5 1.2m8-10h4.1v2.5h-4.1v-2.6m-5.9 0h4V28h-4v-2.6m5.9-4.3h4.1v2.6h-4.1V21m-5.9 0h4v2.6h-4V21M399 35.4l1.2-1.6a11.4 11.4 0 0 1-3-3.2l.1-.4a24.7 24.7 0 0 0 1.5-7h1.2v-1.6h-4.4l.4-2.3-1.5-.5v.1l-.7 3.4a22 22 0 0 1-1 2.9l1.2 1.2-.2.2a23.6 23.6 0 0 0 1.6 4 10 10 0 0 1-2.7 3.4v-.1h-.1l-2.3-1.2a7.7 7.7 0 0 0 1-1.7h1.8v-1.3h-1.2l.2-.7h-1.7l-.2.7h-2.2l.3-.7.1-.1-1-.2h5.3v-3.3H389v-.6h3v-2h1v-1.4h-1v-1.9h-3v-.7h-1.6v.7h-3v2h-1v1.3h1v2h3v.6h-3.4v3.3h2.5l-.5 1h-2.5V31h1.7l-.7 1-.1.1h.2l2.2 1a9.4 9.4 0 0 1-3 .6h-.2l.5 1.5a11.4 11.4 0 0 0 4.6-1.4 23 23 0 0 1 2.7 1.4l.1.1.9-1.2 1 1.3h.1a10.8 10.8 0 0 0 2.6-3 15.6 15.6 0 0 0 2.6 3h.1m-11.8-4.3h2.3a4.7 4.7 0 0 1-.8.9l-1.8-.6.3-.3m7.9-5.5-1 .8v-.1a17.1 17.1 0 0 0 1.1-3.1h2a24.4 24.4 0 0 1-1 5.6 21.6 21.6 0 0 1-1-3l-.1-.2m-6 1h2v.8h-2v-.7m-3.3 0h1.8v.7h-1.8v-.7m3.4-3.9h1.5v.6h-1.5v-.6m-3.1 0h1.5v.6H386v-.6m3-1.9h1.6v.6h-1.5v-.6m-3.1 0h1.5v.6H386v-.6m265.8 14.5h.1a7.7 7.7 0 0 0 2.5-2.7c.6-.9.9-2.6 1-5.3l1-.1v6c0 1 .4 1.6 1 1.7a3.4 3.4 0 0 0 1.1.1 4.2 4.2 0 0 0 1.2 0c.4-.1.7-.2.8-.4.4-.4.6-1.3.8-3l-1.4-.8v.2a9.7 9.7 0 0 1-.2 1.3 1.6 1.6 0 0 1-.3.9s-.2.2-.9.2h-.3a.9.9 0 0 1 0-.5v-6h.6l.4 1v.1l1.6-.6v-.1a19.5 19.5 0 0 0-2.3-4.1v-.1l-1.5.7h.1a14.3 14.3 0 0 1 1 1.6l-4.3.4A12.8 12.8 0 0 0 655 24l.9-1.6h4.9v-1.6h-4.2l.6-1.5v-.1l-1.7-.6v.2l-.7 2h-3.3v1.6h2.6a12.1 12.1 0 0 1-2.7 3.6h-.1l.5 1.5h1.9a10.8 10.8 0 0 1-.7 4.2 6.2 6.2 0 0 1-2 2.1l.8 1.5m-96.3 0h.1a13.6 13.6 0 0 0 4.3-3 6.5 6.5 0 0 0 1.9-3.8h6.2v-1.7h-1.6v-5.2h-4.6v-2.9h-1.7v2.9h-3.4v1.7h3.4v3.5h-4.5v1.7h4.4a5 5 0 0 1-1.2 2.3 12.6 12.6 0 0 1-4.2 2.8h-.2l1.1 1.7m6.3-12h2.8v3.5h-2.8v-3.5m-61 12a6.4 6.4 0 0 0 3.8-2.6 8.6 8.6 0 0 0 1-3.2h1.5v4c0 .8.4 1.4 1.1 1.5a4.7 4.7 0 0 0 1.2 0 4.9 4.9 0 0 0 1.2 0 1 1 0 0 0 .7-.4c.4-.3.7-1.2.9-2.7v-.1l-1.6-.8v.2l-.2 1.3a1.9 1.9 0 0 1-.2.8s-.2.2-.8.2h-.5l-.1-.4v-3.6h2V19.5h-8.4v10.1h1.6a6.6 6.6 0 0 1-.9 2.3 5 5 0 0 1-2.8 1.9h-.2l.6 1.6m3.4-8.7h5V28h-5v-1.3m0-2.8h5v1.3h-5V24m0-2.8h5v1.4h-5V21m49.1 14.2v-.1a38.6 38.6 0 0 0 2.2-7V28l-1.3-1v.2a39 39 0 0 1-2.4 6.9l1.5 1.2m-16.3 0V22.7a25.3 25.3 0 0 0 1.4-3.5V19l-1.6-.5v.1a22.8 22.8 0 0 1-3.9 7.4l.9 1.7.1-.1a19.5 19.5 0 0 0 1.4-1.9v9.5h1.7m-37.3 0v-7a19.3 19.3 0 0 1 1.5 1.6h.1l1.1-1.4a26.5 26.5 0 0 0-2.7-2.4 19.1 19.1 0 0 0 2-3V21.3h-2.8l1.3-.7-.1-.1a9 9 0 0 0-1.4-1.8l-1.4.8v.1a7.4 7.4 0 0 1 1.3 1.7h-2.8v1.7h4a12.7 12.7 0 0 1-1.6 2.1 8.9 8.9 0 0 1-2.7 2l-.1.1 1 1.7a8.8 8.8 0 0 0 1.5-1v7.3h1.8m-134 0h.1a17.8 17.8 0 0 0 5.8-4.7 11.2 11.2 0 0 0 2-3.7 17.4 17.4 0 0 0 2.3 4.2 12 12 0 0 0 4.7 4l1-1.8a10.6 10.6 0 0 1-4.5-3.5 14.8 14.8 0 0 1-2.3-4.8h6.1v-1.8H374V19H372v4.3h-6.7V25h6.6a9.8 9.8 0 0 1-1.6 4 16.6 16.6 0 0 1-5.6 4.7l.8 1.6m224.5 0a11.2 11.2 0 0 0 4.2-3.2A9 9 0 0 0 596 27h4.3a37.6 37.6 0 0 1-.3 5.8c-.2.5-.4.5-.6.5a12.7 12.7 0 0 1-2.1-.2h-.2l.4 1.8h.1a14.8 14.8 0 0 0 2 .2 2 2 0 0 0 1.9-1c.4-.6.7-3.3.7-8.3a13.8 13.8 0 0 0 1.5 1.4h.1l1.5-1.2-.1-.1a10 10 0 0 1-2.9-2.8 9.3 9.3 0 0 1-1.4-3.8v-.1h-3.5v1.7h2a11.8 11.8 0 0 0 1.6 3.4 9.4 9.4 0 0 0 .6 1h-10.1l1.4-1.6A18.6 18.6 0 0 0 595 20V20l-1.4-1-.1.2a16.7 16.7 0 0 1-2 3.2 21.6 21.6 0 0 1-2.8 3h-.1l1.1 1.5h.1a12.7 12.7 0 0 0 1.7-1.6V27h2.7a8.1 8.1 0 0 1-1.4 4 10.2 10.2 0 0 1-3.7 2.8l-.1.1 1 1.4m-167.8 0h.1a11.2 11.2 0 0 0 4.1-3.2 9 9 0 0 0 1.7-5.1h4.4a37.6 37.6 0 0 1-.4 5.8c-.1.5-.3.5-.5.5a12.7 12.7 0 0 1-2.2-.2h-.1l.4 1.9a14.8 14.8 0 0 0 2 .1 2 2 0 0 0 2-1c.4-.5.6-3.3.6-8.3a13.8 13.8 0 0 0 1.6 1.4l1.6-1.2-.2-.1a10 10 0 0 1-2.8-2.7 9.3 9.3 0 0 1-1.4-3.9h-3.5v1.6h2a11.8 11.8 0 0 0 1.5 3.5 9.4 9.4 0 0 0 .7.9h-10.1l1.3-1.6a18.6 18.6 0 0 0 2.2-3.6V20l-1.5-1v.2a16.7 16.7 0 0 1-2 3.2 21.6 21.6 0 0 1-2.9 3l1 1.5h.2a12.7 12.7 0 0 0 1.6-1.6V27h2.8a8.1 8.1 0 0 1-1.4 4 10.2 10.2 0 0 1-3.7 2.8l-.1.1 1 1.4m92.8 0h.2a10.4 10.4 0 0 0 4.3-1.1 4.2 4.2 0 0 0 1.5-1.7h2.2v1.2c0 .8.7 1.3 2 1.3h1.5a18.4 18.4 0 0 0 2.2 0 3 3 0 0 0 1-.3 2.5 2.5 0 0 0 .7-1.8l-1.5-.9v.2a3 3 0 0 1-.2 1 .5.5 0 0 1-.3.4 13 13 0 0 1-1.9 0h-1c-.4 0-.8 0-.8-.3v-.8h3.2v-6.4h-11.6v6.4h2.5a2.5 2.5 0 0 1-.6.5 8.7 8.7 0 0 1-3.6.7h-.2l.4 1.6m3.1-4.6h8.3v.5h-8.3v-.5m0-1.7h8.3v.5h-8.3V29m0-1.6h8.3v.4h-8.3v-.4m93.8 7.9v-8.5l1.3 2.6v.2l1.2-1.6a37.5 37.5 0 0 0-2.5-3.7v-.7h2.4v-1.7h-2.4v-3h-1.7v3h-2.6v1.7h2.5a17.2 17.2 0 0 1-1 3.1 17.7 17.7 0 0 1-2 3.6l1.2 1.3.1-.2a14.2 14.2 0 0 0 1.6-3l.2-.4v7.3h1.7m-167.8 0v-8.5l1.3 2.6v.2l1.2-1.6a37.5 37.5 0 0 0-2.6-3.7v-.7h2.4v-1.7H444v-3h-1.6v3h-2.6v1.7h2.5a17 17 0 0 1-1 3.1 17.6 17.6 0 0 1-2 3.6l1.2 1.3v-.2a14.2 14.2 0 0 0 1.7-3l.2-.4v7.3h1.6m-40.1 0a1.6 1.6 0 0 0 1.9-2V28l1.3-.7-.2-1.5-.1.1-1 .4v-2.7h1.2V22h-1.2v-3.2h-1.6V22h-1.9v1.6h1.9v3.3l-2 .6.6 1.7 1.4-.5V33a1.2 1.2 0 0 1-.1.5.6.6 0 0 1-.4.1 7.1 7.1 0 0 1-1.4-.1h-.2l.3 1.5a6.2 6.2 0 0 0 1.5.2m55.6 0V35a18.8 18.8 0 0 0 1-3.7 29 29 0 0 0 .4-4.5v-1.3l.6 1.2h.1l.6-.7v4.7h1.5V24a13.4 13.4 0 0 0 1.1-2.2v-.1l-1.3-.4h11V20h-6.4a4.7 4.7 0 0 0-.7-1.2l-2 .4.2.1a3.6 3.6 0 0 1 .5.7h-6.8v6.5a28.7 28.7 0 0 1-.3 4 22.8 22.8 0 0 1-1 3.8l1.5.9m1.3-13.8h2.5a11.6 11.6 0 0 1-2.5 3.8v-3.8M543 35.1a36.3 36.3 0 0 0 4-.2 2.8 2.8 0 0 0 1.5-.5 7.7 7.7 0 0 0 1-3.4v-.1l-1.8-.8v.2c-.2 2.5-.5 2.8-.7 2.8a4.2 4.2 0 0 1-1 .2h-.2l-2.8.1a1.7 1.7 0 0 1-.7 0c-.3-.1-.3-.5-.3-.7v-6.2h7.1v-1.8h-7v-5.9h-1.8v14.5c0 1.1.4 1.7 1.1 1.7a3 3 0 0 0 1 .1h.6m-75.7 0a17.6 17.6 0 0 0 2.6 0 3.5 3.5 0 0 0 1.1-.3c.5-.3.7-.8.9-1.8l-1.6-1v.3l-.1.9a.6.6 0 0 1-.5.4 21.8 21.8 0 0 1-2.4 0h-.9c-.7 0-.7-.3-.7-.4v-2.1H464v2.6c0 .9.6 1.3 1.8 1.4h1.4m99 0 1.4-1.3v-.1a31 31 0 0 0-4-3.8l-.1-.1-1.4 1a35.5 35.5 0 0 1 4 4.2l.2.1m79.7 0v-.2a18.7 18.7 0 0 0 .8-4.3v-.1l-1.5-.4v.2a16.9 16.9 0 0 1-.8 3.9v.1l1.5.7M462 35h.1a7 7 0 0 0 1.6-3l-1.4-.9v.2a8.2 8.2 0 0 1-1.6 2.7l1.4 1m11.2-.1 1.4-.9a13.6 13.6 0 0 0-1.8-3h-.1l-1.4.8h.1a13 13 0 0 1 1.8 3m167.6 0 1.4-1.4a29 29 0 0 0-4.5-3.3h-.1l-1.4 1h.1a25.6 25.6 0 0 1 4.4 3.6h.1m-14 0h.1a12.3 12.3 0 0 0 4.8-3.2h.1l-1.2-1.4v.1a10.4 10.4 0 0 1-2 1.6 15.7 15.7 0 0 1-2.6 1.3h-.1l1 1.6m20.7-.2 1.6-.1V34a10.7 10.7 0 0 0-.7-3.8l-1.5.2v.1a11.6 11.6 0 0 1 .6 3.7v.1m2.3-.5 1.6-.5v-.1a16.9 16.9 0 0 0-.8-3.1V30l-1.5.4v.1a17 17 0 0 1 .7 3.2v.1m-182-.5 1.3-1.1v-.1a14 14 0 0 0-1.6-1.6h6.7v-1.4h-3.8v-.7h2.9V27h-2.9v-.8h3V25h-3v-.7h3.4v-1.4h-3.4a10.8 10.8 0 0 0-.3-1.2v-.1l-1.7.4v.1l.3.8h-1.7l.3-.8v-.2l-1.3-.4v.1a12.2 12.2 0 0 1-2.4 4l.6 1.5.2-.1.7-1v4.7h1.9l-1 .7h.2a15.2 15.2 0 0 1 1.5 2m-1-4.8h2.2v.7h-2.3v-.7m0-2.2h2.3v.8h-2.3v-.8m0-2h2.3v.7h-2.3v-.8M645.1 30h.1a30.4 30.4 0 0 0 4.8-.9l.1.5v.1l1.6-.4V29a14.7 14.7 0 0 0-1.1-3.3v-.1l-1.6.4v.2a10 10 0 0 1 .6 1.4l-2.4.5.9-1a22.5 22.5 0 0 0 3.3-5.2v-.2l-1.5-.5h-.1l-1.4 2.5-1.7.2a10.3 10.3 0 0 0 .7-.9 21.6 21.6 0 0 0 1.9-3.7l-1.7-.6v.1a14.2 14.2 0 0 1-3 5.2l.2 1.5h.1l2.6-.4a20.8 20.8 0 0 1-2.8 3.3l.4 1.5m-114.9-2.7v-2.9h-1.1l.2-5.4h-4.6v1.4h3v.5h-3v1.3h3l-.1.4h-2.8v1l-.1-.1a30 30 0 0 0-1-.5l.7-.6v-.1l-.4-.6.9-1h-.2c-.3-.3-.6-.4-1-.6l.7-.6h.1l-.7-1v.1a10.6 10.6 0 0 1-1.3.9l-1.7-.7-.7.7-.5-.8h-.1a18.8 18.8 0 0 1-4 .8h-.1l.1 5h-1v2.8h1.5v-1.6h12.7v1.6h1.5m-5.4-3.7v.3h2.7v.5h-3.4l.7-.8m-2.3 0 1.4.8h-3.2a10.3 10.3 0 0 0 1.8-.7m-5.5.3h2.7v-1.3H517v-.5h2.7V21H517v-.3a16 16 0 0 0 3.1-.8h.2l.8.3-1.3.5h-.1l.6 1h.2l-.7.9h.2l1 .4-1 .3h-.2l.7 1.1H517V24m5.5-3.2 1 .6a11 11 0 0 1-1.2 1 17.5 17.5 0 0 0-1.7-.7 13 13 0 0 0 1.9-.9m31.9 5.7 1-1.4V25a14.2 14.2 0 0 0-2.8-1.8h-.1l-1.2 1.2h.2a17.3 17.3 0 0 1 2.8 2v.1m20.3-2.4 1.8-.6a5.8 5.8 0 0 0-1-1.7l-.1-.1-1.7.5.1.2a4.6 4.6 0 0 1 1 1.6v.1m7.6 0 1.8-.6v-.2a5.4 5.4 0 0 0-1-1.5l-.1-.1-1.7.5.2.2a4.8 4.8 0 0 1 .8 1.5v.2m46.6-.4a23.5 23.5 0 0 0 3.9-1.9 15.4 15.4 0 0 0 2.8-2.2l-1.4-1v.1a14.3 14.3 0 0 1-2.6 2 29.6 29.6 0 0 1-3.6 1.7h-.1l1 1.3m-73.5-1.3 1.2-1.5h-.1a15.6 15.6 0 0 0-3-1.8l-1.2 1.2h.2a15.9 15.9 0 0 1 2.8 2h.1M614 37a1.5 1.5 0 0 1-1-.4l-.2-.1a1.5 1.5 0 0 1-1 .3h-1.6a1.5 1.5 0 0 1-1.5-1.5V33a1.5 1.5 0 0 1-1.4-.4l-1.2-1.2a1.5 1.5 0 0 1-.2-2 16.2 16.2 0 0 0 1.9-3.3l.4-1h-.6a1.5 1.5 0 0 1-1.5-1.5v-1.8a1.5 1.5 0 0 1 1.5-1.5h1.1v-1.5a1.5 1.5 0 0 1 1.5-1.5h1.7a1.5 1.5 0 0 1 1.5 1.5v1.5h.1V20a1.5 1.5 0 0 1 1.5-1.5 29.2 29.2 0 0 0 6.9-.9 1.5 1.5 0 0 1 1.7.7l1 1.5a1.5 1.5 0 0 1-1 2.2h-.1a30.6 30.6 0 0 1-5.3.9v.4h5.8a1.5 1.5 0 0 1 1.5 1.5v1.7A1.5 1.5 0 0 1 624 28h-1v7.4a1.5 1.5 0 0 1-1.5 1.5h-1.7a1.5 1.5 0 0 1-1.5-1.5v-7.4a13.5 13.5 0 0 1-.9 4.4 16 16 0 0 1-2.2 4v.1a1.5 1.5 0 0 1-1.1.6h-.1ZM446 37a1.5 1.5 0 0 1-1-.4l-.2-.1a1.5 1.5 0 0 1-.8.3h-1.7a1.5 1.5 0 0 1-1.5-1.5V33a1.5 1.5 0 0 1-1.5-.4l-1.2-1.2a1.5 1.5 0 0 1-.1-2A16.2 16.2 0 0 0 440 26l.4-1h-.5a1.5 1.5 0 0 1-1.5-1.5v-1.8a1.5 1.5 0 0 1 1.5-1.5h1v-1.5a1.5 1.5 0 0 1 1.6-1.5h1.7a1.5 1.5 0 0 1 1.5 1.5v1.5-.4a1.5 1.5 0 0 1 1.5-1.5h.2a29.2 29.2 0 0 0 6.7-.9h.1a1.5 1.5 0 0 1 1.7.7l1 1.5a1.5 1.5 0 0 1-1 2.2h-.1a30.6 30.6 0 0 1-5.3.9v.4h5.8a1.5 1.5 0 0 1 1.5 1.5v1.7a1.5 1.5 0 0 1-1.5 1.5h-1v7.4a1.5 1.5 0 0 1-1.5 1.5H452a1.5 1.5 0 0 1-1.5-1.5v-7.4h-.1a13.5 13.5 0 0 1-.8 4.4 16 16 0 0 1-2.2 4v.1a1.5 1.5 0 0 1-1.1.6h-.2Zm133 0h-1.7a1.5 1.5 0 0 1-1.5-1.5v-1.3l-.2.1a23.4 23.4 0 0 1-4.5 1.8h-.2a1.5 1.5 0 0 1-1.6-.7l-.5-.8a1.5 1.5 0 0 1-.2.2l-1.4 1.4a1.5 1.5 0 0 1-1 .4h-.1a1.5 1.5 0 0 1-1-.6h-.2a33.2 33.2 0 0 0-3.3-3.5 9.5 9.5 0 0 1-.7.9 15.1 15.1 0 0 1-4.8 3.3 1.8 1.8 0 0 0-2.6.1 1.5 1.5 0 0 1-1.3-.3l-1.6-1.1a1.5 1.5 0 0 1-.5-1.1 4.4 4.4 0 0 1-.6 1v.1a1.5 1.5 0 0 1-.3.2 4.1 4.1 0 0 1-2.1.8 37.8 37.8 0 0 1-4.3.2h-.5a4.6 4.6 0 0 1-1.3-.1c-1.2-.2-2.4-1-2.4-3.2V22.5l-.3.6v12.2a1.5 1.5 0 0 1-1.5 1.5h-1.7a1.5 1.5 0 0 1-1.5-1.5v-6a1.5 1.5 0 0 1-.2 0 1.5 1.5 0 0 1-1.2-.8l-.6-1.2a1.5 1.5 0 0 1-1.5 1.5h-.7v1.8a1.5 1.5 0 0 1 .3 0l1.5 1a1.5 1.5 0 0 1 .8 1.4 3.8 3.8 0 0 1-1.4 3h-.2a4.3 4.3 0 0 1-1.4.5 17.5 17.5 0 0 1-2.4 0h-1.6a4.3 4.3 0 0 1-2.2-.6 2.5 2.5 0 0 1-1.1-1.8 5.5 5.5 0 0 1-1.6 1.4 11.7 11.7 0 0 1-5 1.3 1.5 1.5 0 0 1-1.6-1.2l-.4-1.3a3.6 3.6 0 0 1-.7 1.4 2.5 2.5 0 0 1-1.6.9 6.5 6.5 0 0 1-1.5.1 6.3 6.3 0 0 1-1.5-.2 2.6 2.6 0 0 1-1.8-1 3 3 0 0 1-.5-1.5 8 8 0 0 1-4.4 2.8h-.1a3 3 0 0 0-1.5 0h-1.8a1.5 1.5 0 0 1-1.5-1.5v-4.8a1.5 1.5 0 0 1-1.4-.7l-1-1.7a1.5 1.5 0 0 1 .7-2.1h.1a7 7 0 0 0 1.9-1.4h-1a1.5 1.5 0 0 1-1.5-1.5v-1.7a1.5 1.5 0 0 1 1.5-1.5 1.5 1.5 0 0 1 .7-1.5l1.4-1a1.5 1.5 0 0 1 2 .3 10.9 10.9 0 0 1 1.2 1.5 1.5 1.5 0 0 1 1.5-1.2h8.3a1.5 1.5 0 0 1 1.5 1.5v10.1a1.5 1.5 0 0 1 0 .6l.7.4a1.5 1.5 0 0 1 .8 1.5l-.1.5a1.5 1.5 0 0 1 1-.4h.4v-3.4h-.5a1.5 1.5 0 0 1-1.5-1.5v-2.9a1.5 1.5 0 0 1 1-1.4l-.1-3.4a1.5 1.5 0 0 1 1.3-1.5h.1a17.4 17.4 0 0 0 3.7-.8 20.3 20.3 0 0 0 2.3 0l1 .5.4-.3.1-.1a1.5 1.5 0 0 1 2.2.1h4.3a1.5 1.5 0 0 1 1.5 1.6l-.1 3.9a1.5 1.5 0 0 1 1 1.4v.7a21.2 21.2 0 0 0 3.5-6.8v-.1a1.5 1.5 0 0 1 1.8-1l1.8.4a1.5 1.5 0 0 1 .3.2 1.5 1.5 0 0 1 1-.5h1.8a1.5 1.5 0 0 1 1.5 1.5v4.4h5.6a.6.6 0 0 0 1.2.2l1.2-1.3a1.5 1.5 0 0 1 .5-.3l-.2-.1-.1-.1a1.5 1.5 0 0 1-.4-2.3l1.2-1.3a1.5 1.5 0 0 1 1.7-.3h.1a17.1 17.1 0 0 1 3.2 2h.1a1.5 1.5 0 0 1 .4.5h.7v-1.4a1.5 1.5 0 0 1 1.5-1.5h1.7a1.5 1.5 0 0 1 1.5 1.5v1.4h3a1.5 1.5 0 0 1 1.6 1.5v3.7a1.5 1.5 0 0 1 1.3.7v-1.7a1.5 1.5 0 0 1 .1-.6l-.4-.5a1.5 1.5 0 0 1 .3-2.3h.1a7.4 7.4 0 0 0 1.6-1.4 7.2 7.2 0 0 0 1-1.4l.1-.1a1.5 1.5 0 0 1 1.7-.7l1.7.4a1.5 1.5 0 0 1 1 .8h2.2a1.5 1.5 0 0 1 .3 0 4.4 4.4 0 0 0 .2-.4 1.5 1.5 0 0 1 2-.9l1.5.5a1.5 1.5 0 0 1 .9.8h2.9a1.5 1.5 0 0 1 1.5 1.5v1.5a1.4 1.4 0 0 0-.3 2.7 20.1 20.1 0 0 0 2.7-2.8 15.2 15.2 0 0 0 1.8-3 1.5 1.5 0 0 1 2.2-.7l1.5.9a1.6 1.6 0 0 1 .2 0 1.5 1.5 0 0 1 1.4-1h3.5a1.5 1.5 0 0 1 1.5 1.2v.1a8 8 0 0 0 1.1 3.3 8.5 8.5 0 0 0 2.5 2.4 1.5 1.5 0 0 1 .3 2.4l-1.5 1.3a1.5 1.5 0 0 1-1.2.4c-.1 4.5-.5 5.6-.9 6.2a3.5 3.5 0 0 1-3.1 1.6 16.3 16.3 0 0 1-2.2-.1h-.1a1.5 1.5 0 0 1-1.3-1.2l-.4-1.9a1.5 1.5 0 0 1 0-.5l-.2.2a12.7 12.7 0 0 1-4.6 3.5h-.1a1.5 1.5 0 0 1-1.8-.4l-1.1-1.4a1.5 1.5 0 0 1-.2-.4l-.5.8a1.5 1.5 0 0 1-1.7.8h-.1a22.8 22.8 0 0 1-4.2-1.6l-.5-.3v1.4A1.5 1.5 0 0 1 579 37ZM550.9 31l-.3 1.8a37.8 37.8 0 0 0 2-6 15.2 15.2 0 0 0-1.9-1.1h-.1v-.1.8A1.5 1.5 0 0 1 549 28h-5.6v3.9h2a1.5 1.5 0 0 1 .2 0l.2-.1h.1a13.4 13.4 0 0 0 .2-1.6V30a1.5 1.5 0 0 1 2-1.3l1.9.8a1.5 1.5 0 0 1 .9 1.6Zm35.4.2.5.2h.1a1.5 1.5 0 0 1 1 .8.2.2 0 1 0 .4.2h.2a8.8 8.8 0 0 0 3.2-2.4 4.9 4.9 0 0 0 .7-1.6h-1a9 9 0 0 0-2.9-.7l-1-1.3a1.5 1.5 0 0 1-.9.8V30a3.3 3.3 0 0 1-.3 1.4Zm-20.1-1.2q1.2 1.1 2.4 2.5a1.5 1.5 0 0 1 .9-.7h.1l.8-.3a1.5 1.5 0 0 1 0-.2v-4a1.5 1.5 0 0 1-1-.6v1.8a1.5 1.5 0 0 1-1.4 1.5Zm31.1-1.6a10.7 10.7 0 0 1-1 3.3 1.5 1.5 0 0 1 1-.2h.2l1.1.2.2-3.3Zm-96.2 3v.3a3 3 0 0 0 .4-.3 1.5 1.5 0 0 1-.2 0 1.4 1.4 0 0 1-.2 0Zm55.4-1.4-.2 1a8 8 0 0 0 1.2-1Zm.4-4.7h1.7V25H557a1.5 1.5 0 0 1 0 .5Zm37.7-1.6h4.3a14.1 14.1 0 0 1-.6-1.4h-.9a1.5 1.5 0 0 1-1.4-1 20 20 0 0 1-1.4 2.3ZM633 36.9a11.1 11.1 0 0 1-2-.1 1.5 1.5 0 0 1-1.3-1.3V35a16.9 16.9 0 0 1-2.1 1h-.1a1.5 1.5 0 0 1-1.8-.6l-1-1.5a1.5 1.5 0 0 1 .7-2.2l.2-.1.9-.4a1.5 1.5 0 0 1-.6-1l-.2-1.8a1.5 1.5 0 0 1 1-1.6l-.3-1.4a1.5 1.5 0 0 1 .7-1.6l-.4-.5a1.5 1.5 0 0 1 .6-2.3h.2a28 28 0 0 0 3.3-1.7 12.8 12.8 0 0 0 2.3-1.6v-.1a1.5 1.5 0 0 1 1.8-.2l1.5.8a1.5 1.5 0 0 1 .7 1.8 2.4 2.4 0 0 0 1.6 1l1.5 1a1.5 1.5 0 0 1 .1 2.5h-.1l-.4.4a18.6 18.6 0 0 1 3 3.7 1.5 1.5 0 0 1-.5 2.2l-.4.2 1.3 1 .1.2a1.5 1.5 0 0 1 .2.2 15 15 0 0 0 .3-1.7 1.5 1.5 0 0 1-.2-.3l-.4-1.5a1.5 1.5 0 0 1 .4-1.5h.1l.4-.5a1.5 1.5 0 0 1-.8-1l-.2-1.5a1.5 1.5 0 0 1 .4-1.3 12.7 12.7 0 0 0 2.7-4.7v-.1a1.5 1.5 0 0 1 1.9-1l1.6.6a1.2 1.2 0 0 0 1.8 1.5h2.2l.3-1v-.2a1.5 1.5 0 0 1 2-1l1.7.6a1.5 1.5 0 0 1 1 1.6h2a1.5 1.5 0 0 1 1.6 1.5v1.6a1.5 1.5 0 0 1-1.5 1.5 21.2 21.2 0 0 1 1.3 2.8 1.5 1.5 0 0 1-.7 2l-1.4.6a1.5 1.5 0 0 1 .6.2l1.4.7a1.5 1.5 0 0 1 .8 1.6c-.2 2-.6 3-1.1 3.7a2.4 2.4 0 0 1-1.7.9 6 6 0 0 1-1.5.1 5 5 0 0 1-1.4-.2 2.5 2.5 0 0 1-2-2 9.6 9.6 0 0 1-2.3 2.2h-.1a1.5 1.5 0 0 1-2.1-.4l-.5-.7a1.5 1.5 0 0 1-.6.2l-1.6.2a1 1 0 0 0-1.3.5 1.5 1.5 0 0 1-1.2 0l-1.5-.8a1.5 1.5 0 0 1-.8-1l-1 1.1a1.5 1.5 0 0 1-1.1.5 1.5 1.5 0 0 1-1.1-.5h-.1a23.1 23.1 0 0 0-3-2.6v.3a3.5 3.5 0 0 1-1.1 2.7 4.1 4.1 0 0 1-2.7.8Zm-219.3 0h-1.6a1.5 1.5 0 0 1-1.4-1l-.8.3h-.1a1.5 1.5 0 0 1-1.4-.3l-.1.2a1.5 1.5 0 0 1-1.2.6 1.5 1.5 0 0 1-1.2-.5 4 4 0 0 1-2 .5 7.7 7.7 0 0 1-1.8-.2 1.5 1.5 0 0 1-1.2-1.2l-.8 1a1.5 1.5 0 0 1-2.2.2h-.1a16 16 0 0 1-1.6-1.6 12 12 0 0 1-1.7 1.6 26 26 0 0 0-3.7 0h-.1a19 19 0 0 0-1.9-1 14.2 14.2 0 0 1-4.3 1.2h-.1a1.5 1.5 0 0 1-1.7-1l-.2-1-.6 1.1a1.5 1.5 0 0 1-2 .6 13.5 13.5 0 0 1-5.4-4.4 16.4 16.4 0 0 1-1-1.6 14 14 0 0 1-.9 1.2 19.3 19.3 0 0 1-6.2 5 1.5 1.5 0 0 1-2-.5l-1-1.6a1.5 1.5 0 0 1 .6-2l.1-.1a15.2 15.2 0 0 0 5-4.3 9.2 9.2 0 0 0 1-1.6h-4.8a1.5 1.5 0 0 1-1.5-1.5v-1.7a1.5 1.5 0 0 1 1.5-1.5h5.3v-2.9a1.5 1.5 0 0 1 1.5-1.5h1.9a1.5 1.5 0 0 1 1.5 1.5v2.9h5.3a1.5 1.5 0 0 1 1.3.7v-1a1.5 1.5 0 0 1 .8-1.4v-.6a1.5 1.5 0 0 1 1.5-1.5h1.8a1.5 1.5 0 0 1 1.3-.7h1.6a1.5 1.5 0 0 1 1.3.7h1.8a.8.8 0 0 0 1.4-.5 1.5 1.5 0 0 1 1.2-.1l1.5.4a1.5 1.5 0 0 1 1 1.6v.7h2.6a1.5 1.5 0 0 0 2.4.4h.4v-1.7a1.5 1.5 0 0 1 1.5-1.5h1.6a1.5 1.5 0 0 1 1.5 1.5v1a1.5 1.5 0 0 1 .2 0h2.6v-1a1.5 1.5 0 0 1 1.5-1.5h1.6a1.5 1.5 0 0 1 1.3.7h3.4a1.5 1.5 0 0 1 1.5 1.5v.5a1.5 1.5 0 0 1 .9 1.8v.1a14.7 14.7 0 0 1-1.3 3 1.5 1.5 0 0 1 .1.5v.2h.2a1.5 1.5 0 0 1 .5-1.3v-.1a20.2 20.2 0 0 0 2.6-2.7 15.2 15.2 0 0 0 2-3 1.5 1.5 0 0 1 2-.7l1.6.9a1.6 1.6 0 0 1 .1 0 1.5 1.5 0 0 1 1.5-1h3.4a1.5 1.5 0 0 1 1.5 1.2v.1a8 8 0 0 0 1.2 3.3 8.5 8.5 0 0 0 2.4 2.3l.2.1a1.5 1.5 0 0 1 .1 2.4l-1.4 1.3a1.5 1.5 0 0 1-1.2.4c-.1 4.4-.5 5.5-.9 6.1a3.5 3.5 0 0 1-3.2 1.7 16.3 16.3 0 0 1-2.1-.2h-.2a1.5 1.5 0 0 1-1.2-1.1l-.4-1.9a1.5 1.5 0 0 1 0-.6l-.2.2a12.7 12.7 0 0 1-4.6 3.6h-.1a1.5 1.5 0 0 1-1.9-.4l-1-1.4a1.5 1.5 0 0 1-.2-.2l-.7 1a1.5 1.5 0 0 1-2.1.4h-.1l-.5-.4-.2.2a3.2 3.2 0 0 1-2.5 1.1Zm5.8-5v.1a.6.6 0 0 0 1 .6l.1-.1a8.8 8.8 0 0 0 3.2-2.4 4.9 4.9 0 0 0 .8-1.6h-1a9 9 0 0 0-3-.7l-.7-1v1.5a2 2 0 0 0-.2 1.7 1.5 1.5 0 0 1-.6 1h-.1l-.5.4 1 .5Zm-20.8-1.4a10.4 10.4 0 0 0 2.2 2 1.5 1.5 0 0 1 1.5-.5h.2v-1.3a1.5 1.5 0 0 1-1.3-1l-.6-1.6a1.5 1.5 0 0 1 1-2h.2l.8-.3v-.7h-.4a1.4 1.4 0 0 0-2.3-.4 25 25 0 0 1-1.2 5.7ZM382 31.9h.1a1.5 1.5 0 0 1 .7.6 1.5 1.5 0 0 1 .1 0 1.5 1.5 0 0 1-.8-1.4v-1.4a1.5 1.5 0 0 1 .5-1.2v-3.1a1.5 1.5 0 0 1 .3-.9v-.3a1.5 1.5 0 0 1-.6-.6V25a1.5 1.5 0 0 1-1.5 1.5h-4a12.1 12.1 0 0 0 1.4 2.4 9.1 9.1 0 0 0 3.8 3Zm47.5-3.4a10.7 10.7 0 0 1-1.1 3.4 1.5 1.5 0 0 1 1.1-.3h.2l1 .2c.1-.5.2-1.5.2-3.3Zm-2.7-4.7h4.2a14.1 14.1 0 0 1-.6-1.4h-.8a1.5 1.5 0 0 1-1.4-1 20 20 0 0 1-1.4 2.3Zm51.5 13.1a1.5 1.5 0 0 1-.9-.3l-1.5-1.1a1.5 1.5 0 0 1-.3-.3l-1.5.9a1.5 1.5 0 0 1-2-.4 2.5 2.5 0 0 1-.4.4h-.1a4.8 4.8 0 0 1-1.6.4 18.3 18.3 0 0 1-2.8.1h-1.5a3.6 3.6 0 0 1-2.4-.9v.1l-.1.1a1.5 1.5 0 0 1-2 .3l-.4-.3a1.5 1.5 0 0 1-2 .6l-1.6-.8a1.5 1.5 0 0 1-.7-1.8v-.1a21.4 21.4 0 0 0 1-3.6 27.2 27.2 0 0 0 .3-3.7V20a1.5 1.5 0 0 1 1.5-1.5h4.9a1.5 1.5 0 0 1 1-.8l1.8-.4a1.5 1.5 0 0 1 1.5.5v.1a6.8 6.8 0 0 1 .5.6h5.6A1.5 1.5 0 0 1 476 20v1.4a1.5 1.5 0 0 1-.6 1.2 1.5 1.5 0 0 1 0 .2v1.4a1.5 1.5 0 0 1-.4 1.1v1a1.5 1.5 0 0 1-.1.5 1.5 1.5 0 0 1 0 .3v.7a1.5 1.5 0 0 1 1 1.4v1.4a1.5 1.5 0 0 1-.7 1.2l.6 1a11 11 0 0 0 .8-2 10.8 10.8 0 0 0 .4-2.8v-8.7a1.5 1.5 0 0 1 1.5-1.5h13.6a1.5 1.5 0 0 1 1.5 1.5V33c0 2.3-1.3 3.6-3.3 3.6a15.4 15.4 0 0 1-2.2-.1 1.2 1.2 0 0 0-2-.3h-1.8a1.5 1.5 0 0 1-1.5-1.5v-3.6h-1.3l-.4 1.5a15 15 0 0 1-1.5 3.5h-.1a1.5 1.5 0 0 1-1.3.8Zm9.6-5.4a1.5 1.5 0 0 1 .4 0l.2.1.4.1v-.6h-1.1v.4a1.5 1.5 0 0 1 .2 0Z"/></g></g><g><path fill="#1a202c" d="M313 36a16.4 16.4 0 0 1-5.3-2.7 16.6 16.6 0 0 1-5.7 2.6l-1-2h.1a16.1 16.1 0 0 0 5.1-2 15.3 15.3 0 0 1-2.7-4.1h-.6v-1.9h.3l-1.5-1.2.1-.1a5.6 5.6 0 0 0 1.6-1.5 4.5 4.5 0 0 0 .5-2.3V18h7.1v4.5c0 .8.4.8.5.8h2.3v1.8h-2.7a1.8 1.8 0 0 1-2-2V20h-3.4v.8a5.8 5.8 0 0 1-2.4 5.1h9.1v1.4a14.4 14.4 0 0 1-3.2 4.8 15.5 15.5 0 0 0 4.8 2.1h.1l-1 1.9Zm-5.3-5.2a10.6 10.6 0 0 0 2.3-3h-4.5a11 11 0 0 0 2.2 3Zm-177.8 3.5h.2a9 9 0 0 0 4.6-2.4 5 5 0 0 0 1-1.6H131V29h-1.9v-3.8h1.4l-1-1.2a6.4 6.4 0 0 0 2.7-2c.5-.7.8-2.1.8-4.3v-.1h1.7v.1a21.5 21.5 0 0 1 0 2.3 9.3 9.3 0 0 0 1.9-1.3l1.2 1.3-.1.1a15 15 0 0 1-2.8 1.6 19.5 19.5 0 0 1 2.7 2l.1.1-1.1 1.4h2.4l-1.2-1.2.2-.1a6.2 6.2 0 0 0 2.6-2c.6-.6.8-2 .8-4.2h1.8a21.2 21.2 0 0 1-.1 2.3 8.6 8.6 0 0 0 2-1.4l.2-.1 1 1.4a15.1 15.1 0 0 1-3 1.8 19.5 19.5 0 0 1 2.8 2.1l.1.1-1 1.3h1.6v4H145v-2.3h-13.9v1.9h5a14 14 0 0 0 .4-1.7v-.1l1.9.3-.3 1.5h6.7v.1c0 3.3-.4 5.2-1 6a2.5 2.5 0 0 1-2 1 25 25 0 0 1-3-.3h-.2l-.5-2 .2.1a29.4 29.4 0 0 0 3.5.3.6.6 0 0 0 .5-.4 12.6 12.6 0 0 0 .4-3.2h-5a8.9 8.9 0 0 1-1.6 3 10.4 10.4 0 0 1-5.3 2.7Zm9.4-9.2h5.7a20.7 20.7 0 0 0-2.9-2.3 7.7 7.7 0 0 1-2.8 2.3Zm-8.3 0h5.5a20.9 20.9 0 0 0-2.7-2.3 7.7 7.7 0 0 1-2.8 2.3Zm-63.7 9.2h.2a9 9 0 0 0 4.5-2.4 5 5 0 0 0 1-1.6h-4.5V29h-2v-3.8H68l-1-1.2h.1a6.4 6.4 0 0 0 2.7-2c.5-.7.8-2.1.8-4.3h1.7a21.6 21.6 0 0 1-.1 2.3 9.2 9.2 0 0 0 2-1.3l1.1 1.3v.1a15 15 0 0 1-2.8 1.6 19.7 19.7 0 0 1 2.7 2v.1l-1 1.4h2.3l-1.1-1.2.2-.1a6.2 6.2 0 0 0 2.6-2c.5-.6.8-2 .8-4.2h1.7a21 21 0 0 1 0 2.3 8.6 8.6 0 0 0 2-1.4l.1-.1 1.1 1.4a15.1 15.1 0 0 1-3 1.8 19.5 19.5 0 0 1 2.8 2.1v.1l-1 1.3h1.6v4h-1.8v-2.3h-14v1.9h5.2a13.7 13.7 0 0 0 .2-1.7v-.1l2 .3-.3 1.5h6.6v.1c0 3.3-.3 5.2-1 6a2.5 2.5 0 0 1-2 1 25 25 0 0 1-3-.3H76l-.5-2 .2.1a29.5 29.5 0 0 0 3.4.3.6.6 0 0 0 .6-.4 12.6 12.6 0 0 0 .3-3.2h-5a8.8 8.8 0 0 1-1.5 3 10.4 10.4 0 0 1-5.3 2.7Zm9.3-9.2h5.7a20.7 20.7 0 0 0-2.8-2.3 7.7 7.7 0 0 1-2.9 2.3Zm-8.3 0H74a20.7 20.7 0 0 0-2.8-2.3 7.6 7.6 0 0 1-2.8 2.3Zm90.7 9.7.1-.1.2-.3-9.1.8h-.2l-.3-1.8h.2l4.3-.2v-1h-3.9v-1.5h3.9v-1h-3.9v-6.4h3.9v-.8h-4.5v-1.6h4.5v-1l-3.4.1-.8-1.4h.2l8.7-.7 1.1 1.5h-.2l-4 .3V21h4.4v1.6h-4.3v.8h3.8v6.4H156v1h3.7v1.5H156v1l3.9-.3.1.6a13 13 0 0 0 1.4-3.1 29.7 29.7 0 0 0 .8-7.2h-2v-1.7h2v-4h1.8v4h3.8v.1a101.3 101.3 0 0 1-.6 12.2 2.6 2.6 0 0 1-.8 1.5 2.3 2.3 0 0 1-1.5.6 10.4 10.4 0 0 1-2-.2h-.1l-.2-2h.2a9.8 9.8 0 0 0 2.1.3c.1 0 .3 0 .4-.3a3.7 3.7 0 0 0 .3-1.4c.2-2.8.3-5.9.3-9H164a31.3 31.3 0 0 1-1 8.1 11.5 11.5 0 0 1-2.5 4.5l-.1.1ZM156 28h2v-.9h-2Zm-3.8 0h2v-.9h-2Zm3.8-2.3h2v-1h-2Zm-3.8 0h2v-1h-2Zm-55.7 9v-.1l.3-.3-9.2.8h-.1l-.3-1.8h.1l4.3-.2v-1h-3.8v-1.5h3.8v-1h-3.8v-6.4h3.8v-.8H87v-1.6h4.5v-1l-3.3.1-.8-1.4h.2l8.6-.7h.1l1.1 1.5h-.2l-4 .3V21h4.3v1.6h-4.3v.8h3.9v6.4h-3.9v1H97v1.5h-3.8v1l3.9-.3h.1v.6a13 13 0 0 0 1.4-3.1 29.7 29.7 0 0 0 .9-7.2h-2v-1.7h2v-4h1.8v4h3.7v.1a101.5 101.5 0 0 1-.5 12.2 2.6 2.6 0 0 1-.8 1.5 2.3 2.3 0 0 1-1.5.6 10.4 10.4 0 0 1-2-.2h-.2l-.1-2h.1a9.8 9.8 0 0 0 2.2.3s.2 0 .3-.3a3.7 3.7 0 0 0 .3-1.4l.4-9h-2a31.4 31.4 0 0 1-1 8.1 11.5 11.5 0 0 1-2.4 4.5l-.1.1ZM93.2 28h2.1v-.9h-2Zm-3.8 0h2.1v-.9h-2Zm3.8-2.3h2.1v-1h-2Zm-3.8 0h2.1v-1h-2Zm127.4 8.6.2-.1a.5.5 0 0 0 .2-.3v-4.1h-1.6l-.2 1.6a21.7 21.7 0 0 1-1.3 4.2v.2l-1.8-1v-.1a27.9 27.9 0 0 0 1.3-4.5 33.2 33.2 0 0 0 .4-4.6v-7.6h15v4.7h-13.1v1.7h3.1V23h1.9v1.5h3.2V23h1.8v1.5h3.4v1.8h-3.4V28h4.3V30H219v4l3.5-1 .1-.1.3 1.6a31.3 31.3 0 0 1-5.2 1.6Zm4-6.3h3.3v-1.8H221Zm-5 0h3.2v-1.8H216V28Zm0-7h11.4v-1.2h-11.3ZM262.3 36v-6.5h-7v-8.3h7v-3.6h2v3.6h6.9v8.3h-7V36Zm2-8.3h4.9V23h-5Zm-7 0h5V23h-5Zm-49.8 8.2-2.8-1.9-1 .5a11.8 11.8 0 0 1-4 1.3h-.1l-.5-1.7h.1a9.5 9.5 0 0 0 3.4-1 3 3 0 0 0 .3-.1l-3.1-1.6h-.2l.9-1h-.7v-1.6l-.7-1.6v1.1h-4l-.3 1.2h4.5v.2c-.4 2.9-.8 4.6-1.4 5.2a2.5 2.5 0 0 1-2 .8h-2l-.2-1.9h.2a18.8 18.8 0 0 0 2 .2.8.8 0 0 0 .7-.4 6 6 0 0 0 .7-2.4h-4.8l1.2-4.5h3.6v-1.5h-3a12.8 12.8 0 0 1-2 .7h-.1l-1-1.7h.2a12.1 12.1 0 0 0 3.2-1.2 15.4 15.4 0 0 0-1.9-1.7h-.1l1.2-1.3a14.1 14.1 0 0 1 2.4 2 8 8 0 0 0 1.8-2.2h-5v-1.7h7.2v1.2a10.3 10.3 0 0 1-3 4.1l-.2.2h2v3.6h.2a2.8 2.8 0 0 0 1.3-1 6 6 0 0 0 .4-2.7v-.1h4a11 11 0 0 1-1.2-1 10.2 10.2 0 0 1-3-4.3v-.2l1.6-.4a6.4 6.4 0 0 0 1 2 10.6 10.6 0 0 0 2.4-2l1.2 1.3v.1a14.5 14.5 0 0 1-2.4 1.8l.6.6h.1a10.6 10.6 0 0 0 2.6-2.1V19l1.3 1.3-.1.1a15.4 15.4 0 0 1-2.2 2 17.7 17.7 0 0 0 3.1 1.2h.2l-1.3 1.6h-.1a14.6 14.6 0 0 1-2.4-1v1.6c0 .4.2.5.3.5h2.3V28h-2.6c-1.5 0-1.8-.8-1.8-1.5V25h-1.9a4.4 4.4 0 0 1-.7 2.3 3.6 3.6 0 0 1-1.9 1.4h7.7v1.1a7.6 7.6 0 0 1-1.3 2.5 3.8 3.8 0 0 1-.3.3l2.6 1.6.1.1-1.2 1.5Zm-3-4c0-.2.1-.3.2-.3a5.8 5.8 0 0 0 .8-1.1h-3.9l2.9 1.3Zm-33.1 2.3h.1a14.2 14.2 0 0 0 5-4.6 14 14 0 0 0 1.6-6h-6.2v-2h6.3l.1-3.5V18h2v.1l-.1 3.5h7.4v.2c0 5.8-.2 9.4-.5 11a3.6 3.6 0 0 1-1 2.1 4 4 0 0 1-2.2.6 26.5 26.5 0 0 1-3.4-.2h-.1l-.5-2.2h.2a25.6 25.6 0 0 0 3.8.3 1.1 1.1 0 0 0 1-.3 4.5 4.5 0 0 0 .3-1.7c.2-1.7.3-4.4.3-7.8H180c-.3 3.4-1 5.8-2 7.2a15.8 15.8 0 0 1-5.5 5l-.1.1Zm145.8.1h.1a11.4 11.4 0 0 0 4.1-3.2 9 9 0 0 0 1.5-4.5h-3v-1.9h11.3a10.4 10.4 0 0 1-.7-1 13 13 0 0 1-1.8-3.8h-2.2v-2h3.9v.2a10.4 10.4 0 0 0 1.6 4.3 11.2 11.2 0 0 0 3 3l.2.1-1.6 1.4a15.5 15.5 0 0 1-1.8-1.6c0 5.6-.3 8.6-.8 9.2a2.2 2.2 0 0 1-2 1.2 16.2 16.2 0 0 1-2.3-.2l-.5-2h.2a14.1 14.1 0 0 0 2.4.2c.3 0 .4-.2.6-.6a42.1 42.1 0 0 0 .3-6.5h-4.8a10 10 0 0 1-1.9 5.7 12.4 12.4 0 0 1-4.6 3.5Zm-87.5 1.5a17.7 17.7 0 0 1-3.4-1 8 8 0 0 1-2.4-1.5 7.6 7.6 0 0 1-1.8-2.6v-.2l1.5-.5a6.7 6.7 0 0 0 1.2 1.7 11 11 0 0 0 2.5-1.7l1.2 1.3v.1a14.4 14.4 0 0 1-2.1 1.4 7.7 7.7 0 0 0 1 .4 13.2 13.2 0 0 0 3 .8h.3l-.9 1.8Zm122.4 0V35h-9.5v.8h-1.9v-6l-2.4.6h-.1l-.8-1.5h.2l5.7-1.4h-5.6V26h7.4v-.8h-6.1v-1.4h6v-1h2v1h4.2v1c1-.5 2.1-1 3-1.6h.2l1 1.2-3 1.6h3.5v1.5h-7.2l-1 .4-2 .6h8.3v7.3Zm-9.5-2.3h9.5v-1h-9.5Zm0-2.4h9.5v-1h-9.5Zm4.4-5h1l2-.9h-3Zm-50.7 9.5h-.1l-.4-2h.2a7 7 0 0 0 2.1.3h.3a2.3 2.3 0 0 0 .1-.8V29c-.6.2-1.3.5-2 .6h-.2l-.6-1.9h.1l2.7-.7v-3.7H296v-1.9h2.5v-3.7h2v3.7h2.3v1.9h-2.4v3.1l1.8-.6h.2l.2 1.6-2.2 1v5.2a3 3 0 0 1-.4 1.8 2.2 2.2 0 0 1-1.6.5 8.3 8.3 0 0 1-2.1-.2Zm-16.6.2v-2.4H275v-1.7h4.6v-1h-3.8v-6.2h9.4v6.2h-3.7v1h4.5v1.7h-4.5v2.4Zm-2-6.6h5.7v-.9h-5.7Zm0-2.3h5.7V26h-5.7Zm-30 9v-1H238v1h-2v-6l-2.3.5h-.1l-.8-1.5h.2l5.7-1.4h-5.6V26h7.4v-.8h-6.1v-1.4h6v-1h2v1h4.2v1c1-.5 2.1-1 3-1.6h.2l1 1.2-3 1.6h3.6v1.5h-7.3l-1 .4-2 .6h8.3v7.3Zm-9.5-2.4h9.5v-1H238Zm0-2.4h9.5v-1H238Zm4.4-5h1l2-.8h-3Zm-123.7 9.7V18.4h7.5l-2.6 7a9.7 9.7 0 0 1 1.7 2.2 5.8 5.8 0 0 1 .8 2.6c0 2.2-1 3.3-3 3.3a12 12 0 0 1-1.7-.2l-.5-2.2.2.1a6.6 6.6 0 0 0 2 .4c.7 0 1-.5 1-1.4a4.3 4.3 0 0 0-.5-2 7.2 7.2 0 0 0-1.9-2.3l1.8-5.7h-3v15.6ZM285 34.2l.2-.1a23.4 23.4 0 0 0 3.7-3 16.3 16.3 0 0 0 2.7-3v-.2l1.6 1a18.4 18.4 0 0 1-2.9 3.7 23.2 23.2 0 0 1-3.9 3.1ZM109 35.7v-7.8h8.1v7.6h-1.8v-1h-4.4v1.2Zm1.9-3h4.4v-3h-4.4Zm175.1-5.4h.1a19.2 19.2 0 0 0 3-2.3 12.3 12.3 0 0 0 2.2-2.4v-.1l1.6.9v.1a14.5 14.5 0 0 1-2.4 2.8 19.7 19.7 0 0 1-3.2 2.5h-.1Zm-178-.7v-1.8h2.5a19.7 19.7 0 0 0-1.1-3v-.1l.6-.3h-1.7v-1.8h3.7a7.2 7.2 0 0 0-.5-1.3V18l1.7-.5a9.4 9.4 0 0 1 .9 2h4v1.8h-1.6l.8.2v.1a19.4 19.4 0 0 1-.8 2.2l-.3.9h2v1.8Zm4.4-1.8h1.7a14 14 0 0 0 .6-1.4 15.8 15.8 0 0 0 .6-2h-4.1a26.1 26.1 0 0 1 1.2 3.4Zm204.3.1a24.3 24.3 0 0 0 3.2-3.3 18.6 18.6 0 0 0 2.3-3.6v-.1l1.7 1a20.6 20.6 0 0 1-2.5 4 20.9 20.9 0 0 1-3.4 3.5Zm-41.6-1v-1.6h2.5a13.8 13.8 0 0 0-.4-1.6h-1.6V19h4a4.4 4.4 0 0 0-.5-.8V18l1.7-.5a9.3 9.3 0 0 1 .7 1.5h4v1.6H284l-.3.9-.2.7h2.5v1.5Zm4.3-1.6h2.5l.3-1 .2-.6h-3.4a11 11 0 0 1 .4 1.6Zm6.7-.1.1-.1a17.8 17.8 0 0 0 2.6-2.1 12 12 0 0 0 1.8-2.3h.1l1.6.8v.1a14.1 14.1 0 0 1-2 2.7 16.3 16.3 0 0 1-3 2.3Zm52.6.5v-4.5h16.2v4.5Zm11.4-1.5h3v-1.5h-3Zm-4.7 0h3v-1.5h-3Zm-4.9 0h3.1v-1.5h-3Zm-106.2 1.5v-4.5h16.2v4.5Zm11.4-1.5h3v-1.5h-3Zm-4.7 0h3v-1.5h-3Zm-4.9 0h3.1v-1.5h-3Zm-105.2.8a11.5 11.5 0 0 0-1.4-2.4v-.1l1.3-1v.1a12 12 0 0 1 1.5 2.6l-1.4.9ZM68 22a11.4 11.4 0 0 0-1.3-2.4l-.1-.1 1.3-1 .1.1a11.8 11.8 0 0 1 1.5 2.6l-1.4.9Zm71-.1a11.4 11.4 0 0 0-1.3-2.4l-.1-.1 1.3-1 .1.2a12.5 12.5 0 0 1 1.5 2.5l-1.4 1Zm-62.6 0a11.3 11.3 0 0 0-1.4-2.4v-.1l1.3-1v.2A12.6 12.6 0 0 1 78 21l-1.4 1Z"/><g filter="url(#d)"><path fill="#fff" d="m313.2 36 1-1.7h-.2a15.5 15.5 0 0 1-4.8-2.2 14.4 14.4 0 0 0 3.2-4.8v-1.4h-9a5.8 5.8 0 0 0 2.3-5.1v-.9h3.4v3.3a1.8 1.8 0 0 0 2 2h2.7v-1.8h-2.3s-.5 0-.5-.8V18h-7v2.7a4.5 4.5 0 0 1-.6 2.3 5.6 5.6 0 0 1-1.6 1.5l1.4 1.3h-.3v1.9h.6a15.3 15.3 0 0 0 2.7 4 16.1 16.1 0 0 1-5.1 2.1h-.2l1 2h.1a16.6 16.6 0 0 0 5.7-2.6 16.4 16.4 0 0 0 5.4 2.7m-7.6-8.2h4.5a10.6 10.6 0 0 1-2.3 3 11 11 0 0 1-2.2-3M130.7 36h.1a10.4 10.4 0 0 0 5.3-2.9 8.9 8.9 0 0 0 1.6-2.9h5a12.6 12.6 0 0 1-.4 3.2.6.6 0 0 1-.5.3 29.4 29.4 0 0 1-3.5-.2h-.2l.5 1.9h.1a25 25 0 0 0 3 .2 2.5 2.5 0 0 0 2-.8c.7-.9 1-2.8 1-6v-.2h-6.6l.2-1.4V27l-1.8-.2a14 14 0 0 1-.3 1.8H131v-1.9H145v2.3h1.9v-4h-1.6l1-1.3a19.5 19.5 0 0 0-3-2.2 15.1 15.1 0 0 0 3-1.8h.2l-1.1-1.4h-.1a8.6 8.6 0 0 1-2.1 1.5 21.2 21.2 0 0 0 0-2.3v-.1h-1.7v.1c0 2.1-.2 3.5-.8 4.2a6.2 6.2 0 0 1-2.6 2h-.2l1.2 1.3h-2.4l1.1-1.4a19.5 19.5 0 0 0-2.8-2.1 15 15 0 0 0 2.8-1.6l-1-1.5-.1.1a9.3 9.3 0 0 1-2 1.3 21.5 21.5 0 0 0 .1-2.3v-.1h-1.7v.1c0 2.2-.3 3.6-.8 4.3a6.4 6.4 0 0 1-2.6 2h-.2l1 1.2h-1.3v3.8h1.9v1.4h4.6a5 5 0 0 1-1 1.6 9 9 0 0 1-4.6 2.3h-.1l.7 1.9m11.4-13.3a20.7 20.7 0 0 1 2.9 2.3h-5.7a7.7 7.7 0 0 0 2.8-2.3m-8.3 0a20.9 20.9 0 0 1 2.7 2.3H131a7.7 7.7 0 0 0 2.8-2.3M68 36h.1a10.4 10.4 0 0 0 5.3-2.9 8.8 8.8 0 0 0 1.6-2.9h5a12.6 12.6 0 0 1-.4 3.1.6.6 0 0 1-.6.4 29.5 29.5 0 0 1-3.4-.2h-.2l.5 1.9a25 25 0 0 0 3.1.2 2.5 2.5 0 0 0 2-.8c.7-.9 1-2.9 1-6.1v-.1h-6.6l.2-1.4V27l-1.9-.3v.2a13.7 13.7 0 0 1-.2 1.7h-5.1v-1.9h13.9v2.3h1.8v-4h-1.6l1-1.3v-.1a19.5 19.5 0 0 0-2.9-2.1 15.1 15.1 0 0 0 3-1.8h.1l-1-1.4h-.2a8.6 8.6 0 0 1-2 1.5 21 21 0 0 0 0-2.3v-.1H79v.1c0 2.1-.3 3.5-.8 4.2a6.2 6.2 0 0 1-2.6 2h-.2l1.1 1.2H74l1.2-1.3-.1-.1a19.7 19.7 0 0 0-2.7-2 15 15 0 0 0 2.7-1.6l.1-.1-1-1.4H74a9.2 9.2 0 0 1-2 1.4 21.6 21.6 0 0 0 .2-2.3v-.1h-1.7c0 2.2-.3 3.7-.8 4.4a6.4 6.4 0 0 1-2.7 2H67l1 1.1h-1.3v4h1.9v1.3H73a5 5 0 0 1-1 1.5 9 9 0 0 1-4.5 2.4h-.2l.8 1.8m11.4-13.2a20.7 20.7 0 0 1 2.8 2.2h-5.7a7.7 7.7 0 0 0 2.9-2.2m-8.4 0A20.7 20.7 0 0 1 74 25h-5.6a7.6 7.6 0 0 0 2.8-2.2M160.3 36v-.1a11.5 11.5 0 0 0 2.6-4.5 31.3 31.3 0 0 0 1-8.2h1.9c0 3.2-.1 6.2-.4 9a3.7 3.7 0 0 1-.2 1.5c-.1.2-.3.3-.4.3a9.8 9.8 0 0 1-2.1-.3h-.2l.2 2a10.4 10.4 0 0 0 2.1.2 2.3 2.3 0 0 0 1.5-.6 2.6 2.6 0 0 0 .8-1.6 101.3 101.3 0 0 0 .6-12.1v-.1h-3.8v-4h-1.8v4h-2v1.7h2a29.7 29.7 0 0 1-.8 7.1 13 13 0 0 1-1.4 3.2v-.6h-.1l-4 .2v-1h3.9v-1.4h-3.8v-1h3.8v-6.4H156v-.9h4.3v-1.6h-4.3v-1.1l4-.3h.1l-1-1.5h-.1l-8.7.7h-.2l.8 1.4 3.4-.2v1h-4.5v1.6h4.5v.9h-3.9v6.4h3.9v1h-3.9v1.5h3.9v1l-4.3.2h-.1l.2 1.8h.2l9.1-.8-.2.2v.1l1.2 1.3m-4.4-8.8h2v1h-2v-1m-3.8 0h2v1h-2v-1m3.8-2.4h2v1h-2v-1m-3.8 0h2v1h-2v-1M97.7 36v-.1a11.5 11.5 0 0 0 2.5-4.5 31.4 31.4 0 0 0 1-8.2h2c0 3.2-.2 6.2-.4 9a3.7 3.7 0 0 1-.2 1.5l-.4.3a9.8 9.8 0 0 1-2.2-.3h-.1l.2 2a10.4 10.4 0 0 0 2 .2 2.3 2.3 0 0 0 1.6-.6 2.6 2.6 0 0 0 .8-1.6 101.5 101.5 0 0 0 .5-12.1v-.1h-3.7v-4h-1.8v4h-2v1.7h2a29.7 29.7 0 0 1-.9 7.2 13 13 0 0 1-1.3 3V33H97l-3.9.2v-1H97v-1.4h-3.8v-1h3.9v-6.4h-3.9v-.9h4.3v-1.6h-4.3v-1.1l4-.3h.2l-1-1.5h-.1l-8.7.7h-.2L88 20h.1l3.3-.2v1h-4.4v1.6h4.4v.9h-3.8v6.4h3.8v1h-3.8v1.5h3.8v1l-4.2.2H87l.3 1.8h.1l9.2-.8-.2.2-.1.1 1.3 1.3m-4.5-8.8h2.1v1h-2v-1m-3.9 0h2.1v1h-2v-1m3.7-2.4h2.1v1h-2v-1m-3.9 0h2.1v1h-2v-1M217.5 36h.1a31.3 31.3 0 0 0 5.1-1.6h.1l-.3-1.7a40 40 0 0 1-3.6 1.1v-4h11.2v-1.7H226v-1.9h3.3v-1.7H226V23H224v1.5H221V23H219v1.5h-3.2v-1.7H229v-4.7h-15v7.6a33.2 33.2 0 0 1-.4 4.6 27.9 27.9 0 0 1-1.3 4.5l1.8 1a21.7 21.7 0 0 0 1.3-4.3l.3-1.6h1.5v4a.5.5 0 0 1-.2.4h-.2l.8 1.7m3.3-9.8h3.2v2H221v-2m-5 0h3.2v2h-3.3v-2m0-6.3h11.4V21h-11.3v-1.2m48.2 16v-6.4h7v-8.3h-7v-3.6h-2v3.6h-6.8v8.3h6.9V36h2m0-13h4.9v4.6h-5V23m-6.9 0h5v4.6h-5V23m-49.7 13 1.2-1.6v-.1l-2.7-1.6a3.8 3.8 0 0 0 .3-.3 7.6 7.6 0 0 0 1.3-2.5v-1.2H200a3.6 3.6 0 0 0 1.9-1.3 4.4 4.4 0 0 0 .7-2.3h1.9v1.3c0 .7.3 1.6 1.8 1.6h2.6v-1.7h-2.3c-.1 0-.3 0-.3-.4v-1.7a14.6 14.6 0 0 0 2.4 1l1.4-1.5h-.2a17.7 17.7 0 0 1-3.1-1.3 15.4 15.4 0 0 0 2.2-1.9l-1.1-1.4h-.1a10.6 10.6 0 0 1-2.6 2.3v-.1l-.7-.6a14.5 14.5 0 0 0 2.3-1.8h.1l-1.1-1.5-.1.1a10.6 10.6 0 0 1-2.4 2 6.4 6.4 0 0 1-1-2l-1.6.4v.2a10.2 10.2 0 0 0 3 4.4 11 11 0 0 0 1.1.8h-3.9v.2a6 6 0 0 1-.4 2.8 2.8 2.8 0 0 1-1.3.8h-.1v-3.5h-2l.1-.2a10.3 10.3 0 0 0 3-4.1V18h-7.2v1.7h5A8 8 0 0 1 196 22a14.1 14.1 0 0 0-2.3-2h-.1l-1.2 1.2.1.1a15.4 15.4 0 0 1 1.9 1.7 12.1 12.1 0 0 1-3.2 1.1h-.1l.9 1.8a12.8 12.8 0 0 0 2.2-.7h2.9v1.4h-3.6l-1.2 4.6h4.8a6 6 0 0 1-.6 2.4.8.8 0 0 1-.7.4 18.8 18.8 0 0 1-2.1-.2h-.2l.2 1.8h2a2.5 2.5 0 0 0 2-.7c.6-.6 1-2.3 1.4-5.2v-.2h-4.5l.3-1.2h4v-1.1l.8 1.6h-.1v1.7h.7l-.9.8.2.1 3.1 1.6a3 3 0 0 1-.3.1 9.5 9.5 0 0 1-3.3 1h-.2l.5 1.7a11.8 11.8 0 0 0 4.2-1.3l.9-.5 2.8 1.9m-5.9-5.4h4a5.8 5.8 0 0 1-.9 1l-.2.3c-1-.5-1.9-1-2.9-1.3m-29.1 5.4a15.8 15.8 0 0 0 5.7-5.1c1-1.4 1.6-3.8 1.9-7.2h5.4c0 3.4-.1 6-.3 7.8a4.5 4.5 0 0 1-.4 1.7 1.1 1.1 0 0 1-1 .3 25.6 25.6 0 0 1-3.7-.3h-.2l.5 2.1h.1a26.5 26.5 0 0 0 3.4.3 4 4 0 0 0 2.1-.6 3.6 3.6 0 0 0 1.1-2.2c.3-1.5.5-5.2.5-11H180l.1-3.6V18h-2v3.6h-6.3v2h6a14 14 0 0 1-1.5 6 14.2 14.2 0 0 1-5 4.6l1 1.7m145.9 0v-.1a12.4 12.4 0 0 0 4.6-3.5 10 10 0 0 0 1.9-5.7h4.9a42.1 42.1 0 0 1-.4 6.5c-.1.4-.3.6-.6.6a14.1 14.1 0 0 1-2.4-.3h-.2l.5 2a16.2 16.2 0 0 0 2.2.2 2.2 2.2 0 0 0 2.1-1c.5-.7.8-3.7.8-9.3a15.5 15.5 0 0 0 1.8 1.6l1.6-1.4h-.1a11.2 11.2 0 0 1-3.1-3.1 10.4 10.4 0 0 1-1.6-4.3V18h-3.9v1.9h2.2a13 13 0 0 0 1.8 3.8 10.4 10.4 0 0 0 .7 1h-11.3v1.9h3a9 9 0 0 1-1.5 4.5 11.4 11.4 0 0 1-4 3.1l-.2.1 1.1 1.5m-88.5 0 .8-1.8h-.1a13.2 13.2 0 0 1-3-.8h-.1a7.7 7.7 0 0 1-1-.4 14.4 14.4 0 0 0 2-1.4h.1l-1.2-1.4a11 11 0 0 1-2.5 1.7 6.7 6.7 0 0 1-1.1-1.6V30l-1.7.5v.1a7.6 7.6 0 0 0 1.9 2.7 8 8 0 0 0 2.4 1.5 17.7 17.7 0 0 0 3.4 1h.1m124.2 0v-7.3h-8.3a47.2 47.2 0 0 0 3-1h7.2V26h-3.5l3-1.6-1-1.2h-.1l-3.1 1.6v-1h-4.2v-1h-2v1h-6v1.4h6v.8h-7.3v1.5h5.6a87 87 0 0 1-5.7 1.3h-.2l.8 1.6 2.5-.5v5.9h1.9v-.9h9.5v.9h1.9m-11.4-3.3h9.5v1h-9.5v-1m0-2.5h9.5v1h-9.5v-1m4.4-4.8h3l-2 .8h-1v-.8m-48.6 10.6a2.2 2.2 0 0 0 1.6-.6 3 3 0 0 0 .4-1.7v-5.3l2.2-.8-.2-1.7h-.2l-1.8.6v-3.1h2.4v-1.9h-2.4v-3.7h-1.9v3.7H296v1.9h2.5v3.7l-2.7.7h-.1l.6 2h.1a36 36 0 0 0 2.1-.7v4.2a2.3 2.3 0 0 1 0 .7l-.4.1a7 7 0 0 1-2-.3h-.3l.4 2a8.3 8.3 0 0 0 2.2.2m-16.8 0v-2.4h4.5v-1.7h-4.5v-1h3.7v-6.2h-9.4v6.2h3.8v1H275v1.7h4.6v2.4h1.9m-3.9-7.5h5.7v.8h-5.7v-.8m0-2.2h5.7v.8h-5.7V26m-28.1 9.7v-7.3h-8.3a47.2 47.2 0 0 0 3-1h7.2V26H248l3-1.6-1-1.2h-.1l-3.1 1.6v-1h-4.2v-1h-2v1h-6v1.4h6v.8h-7.3v1.5h5.6c-1.8.5-3.7 1-5.7 1.3h-.2l.8 1.6 2.5-.5v5.9h1.9v-.9h9.5v.9h1.9M238 32.5h9.5v1H238v-1m0-2.5h9.5v1H238v-1m4.4-4.8h3l-2 .8h-1v-.8M120.7 35.8V20.2h3l-2 5.6h.1a7.2 7.2 0 0 1 2 2.4 4.3 4.3 0 0 1 .5 2c0 1-.4 1.4-1 1.4a6.6 6.6 0 0 1-2-.4h-.3l.5 2.1a12 12 0 0 0 1.7.2c2 0 3-1.1 3-3.3a5.8 5.8 0 0 0-.8-2.6 9.7 9.7 0 0 0-1.7-2.3l2.6-6.9h-7.5v17.4h1.9m165.7 0h.1a23.2 23.2 0 0 0 4-3.2 18.4 18.4 0 0 0 2.8-3.6v-.2l-1.5-.9v.1a16.3 16.3 0 0 1-2.8 3.2 23.4 23.4 0 0 1-3.7 2.9h-.2l1.3 1.7m-175.6-.1v-1.3h4.4v1h1.8V28h-8v7.8h1.8m0-6h4.4v3h-4.4v-3m176.3-.9h.1a19.7 19.7 0 0 0 3.3-2.5 14.5 14.5 0 0 0 2.3-2.8v-.1l-1.6-1v.2A12.3 12.3 0 0 1 289 25a19.2 19.2 0 0 1-3 2.2l1.1 1.6m-169-2.2v-1.8h-2l.4-1a19.4 19.4 0 0 0 .7-2v-.2l-.8-.3h1.6v-1.7h-4a9.4 9.4 0 0 0-.8-2l-1.9.5v.1a7.2 7.2 0 0 1 .6 1.4h-3.7v1.7h1.7l-.7.3v.1a19.7 19.7 0 0 1 1.2 3H108v1.9h10.3m-7.1-5.3h4.1a15.8 15.8 0 0 1-.6 2.1 14 14 0 0 1-.6 1.4h-1.7a26.1 26.1 0 0 0-1.2-3.5m206.7 5.2h.1a20.9 20.9 0 0 0 3.4-3.6 20.6 20.6 0 0 0 2.5-4l-1.7-1a18.6 18.6 0 0 1-2.3 3.6 24.3 24.3 0 0 1-3.1 3.3h-.1l1.2 1.7M286 23.8v-1.5h-2.5l.2-.8.3-.8h1.5V19h-4a9.3 9.3 0 0 0-.7-1.5l-1.8.5v.2a4.4 4.4 0 0 1 .5.8h-4v1.6h1.6a13.8 13.8 0 0 1 .4 1.6H275v1.5h11m-7.1-3.1h3.4l-.2.7-.3.9h-2.5a11 11 0 0 0-.4-1.6m8.3 3v-.1a16.3 16.3 0 0 0 3-2.3 14.1 14.1 0 0 0 2-2.7l-1.6-1v.1a12 12 0 0 1-1.9 2.3 17.8 17.8 0 0 1-2.6 2v.1l1 1.5m67.7-1v-4.4h-16.2v4.5h16.2m-4.8-3h3v1.5h-3v-1.5m-4.7 0h3v1.5h-3v-1.5m-4.9 0h3.1v1.5h-3v-1.5m-90 3v-4.5h-16.3v4.5h16.2m-4.8-3h3v1.5h-3v-1.5m-4.7 0h3v1.5h-3v-1.5m-4.9 0h3.1v1.5h-3v-1.5m-105.3 2.4 1.5-.8v-.1a12 12 0 0 0-1.5-2.6h-.1l-1.4.9h.1a11.5 11.5 0 0 1 1.4 2.5v.1m-62.6 0 1.5-.8v-.1a11.8 11.8 0 0 0-1.6-2.6l-1.4.9a11.4 11.4 0 0 1 1.5 2.5v.1m71 0 1.5-.9v-.1a12.5 12.5 0 0 0-1.6-2.5v-.1l-1.4.9v.1a11.4 11.4 0 0 1 1.5 2.4v.1m-62.6 0 1.4-.8v-.1a12.6 12.6 0 0 0-1.5-2.5l-.1-.1-1.4.9.1.1a11.3 11.3 0 0 1 1.4 2.4v.1m54.6 15.5-1.7-.8-.8-1.8 1-2 .2-.1a9.5 9.5 0 0 0 2.5-1h-1.2l-1.4-1.4h-.5l-1.5-1.5v-3.8l.8-.8.4-1.7.2-.1.2-.1a10 10 0 0 0-1.1-2l.3-2.2 1.3-.9 1.8.3v-.1l1.5-1.5h1.7l1.5 1.5h1.4l.5-.3 1.8.3 1.5-1.5h1.8l1.3 1.3 2 .2 1 1.4-.2 2-.1.1-1 .8 1 .8.1 1.5 1 1v4l-1.5 1.5h-.7c-.1 2.6-.5 4.2-1.2 5.2a4 4 0 0 1-3.2 1.4 26.5 26.5 0 0 1-3.3-.2l-1.3-1.2-.3-1.2a12 12 0 0 1-5.7 3Zm7.5-5.4 2.4.2v-.5h-2.3l-.1.3Zm-70.1 5.4-1.8-.8-.8-1.8 1-2 .2-.1a9.5 9.5 0 0 0 2.6-1h-1.2L67 30.5h-.5L65 29v-4l.8-.7.4-1.7.1-.1.3-.1a10 10 0 0 0-1.1-2h-.1l.3-2.2 1.4-.9 1.8.3 1.5-1.6h1.7l1.5 1.5H75l.6-.3 1.8.3 1.5-1.5h1.7l1.3 1.3 2 .2 1.1 1.4-.3 2v.2l-1.1.7 1 .8.2 1.5 1 1v4l-1.6 1.5h-.6c-.2 2.6-.5 4.2-1.2 5.1v.1a4 4 0 0 1-3.3 1.4A26.5 26.5 0 0 1 76 37h-.1l-1.3-1.2-.3-1.2a12 12 0 0 1-5.7 3Zm7.5-5.4 2.4.2v-.5h-2.3l-.1.3Zm236.7 5.4a18.2 18.2 0 0 1-5-2.4 18.5 18.5 0 0 1-5.3 2.3h-.1l-1.6-.8a3.9 3.9 0 0 1-2.4.7 9.8 9.8 0 0 1-2.5-.3l-1.2-1.2-.3-2 1.9-1.7h.2l.5.2V31h-.2v.1l-2-1-.2-.9.1.5v.1a19.8 19.8 0 0 1-3.1 4 24.6 24.6 0 0 1-4.2 3.3h-.1l-2-.3-1.2-1.6v-.2h-1v1l-1.5 1.4h-1.9l-1.5-1.5v-1H275l-1.5-1.4v-1.7l.9-1v-6l-1-.9v-1.5l1.2-1.1-.6-.5V19l1.5-1.5h2.7l.3-1 1.8-.5 1.7.7v.1q.3.3.4.7h3L287 19v.5l.7-.7a10.6 10.6 0 0 0 1.6-2l2-.6 1.7.9.5 2v.2a14 14 0 0 1-1.3 1.8l1.4.9.5 2v.2a15 15 0 0 1-2 2.4h.4l1.6.8.1.5 1-1.9h.2l1.5-.4v-1h-1l-1.5-1.5v-1.9l1.5-1.5h1v-2.2l1.5-1.5h2l1.4 1.5v2.2h.6v-1.7l1.5-1.5h7.2l1.5 1.5V22h1.2l1.5 1.5v1.8l-1.3 1.4v.7l-.2.5v.1a17.7 17.7 0 0 1-2.2 3.8 16.1 16.1 0 0 0 2.8 1l.2.1.9 2.2-1 1.8Zm-10.9-8.2v3a15.7 15.7 0 0 0 2.1-.8 17.2 17.2 0 0 1-1.4-2.5l-.7.3Zm-15.2 1.5.3.3 1-1 .2-.1h-.2v.1l-1.2-.2v.9Zm20-6.3h1.2a4.5 4.5 0 0 1-.2-1.3v-1.7h-.4a8 8 0 0 1-.7 3Zm-42.5 13h-2l-1.5-1.5v-5h-5.3l-1.5-1.5v-8.3l1.5-1.5h5.4v-2.1l1.5-1.5h2l1.4 1.5v2.1h5.5l1.5 1.5v8.3L271 31h-5.5v5Zm1.5-11.3h2v-1.7h-2Zm-6.9 0h2v-1.7h-2ZM218 37.5l-1.6-.8-.5-1-.3.6v.2l-2.2.7-1.7-1-.7-1.8v-.1a26.6 26.6 0 0 0 1.3-4.2 31.7 31.7 0 0 0 .3-4.4v-7.5l1.5-1.5h15l1.5 1.5v4.6l-.7.8 1 1v1.7l-.5.5 1.4 1.4v1.2l.6-1.3-.6-.6V26l1.3-1.2v-1l.4-.4-.7-.7v-4.5l1.5-1.5h16.2l1.5 1.5v4.5l-.2.3.4.4-.3 1.5L253 26v1.5l-1.5 1.5h-.4v6.8l-1.5 1.5h-2l-.8-.8H239l-.8.8h-2l-1.4-1.5v-4h-.7l-1.7-.7-.6-1.4v.2l-1.5 1.5h-.7l-.1.9 1.2.2h.2l1.1 2.1-.8 1.8-1.7.9a19.2 19.2 0 0 1-3.8-1.2 12.2 12.2 0 0 1-1.8-.9l-.3.6h-.1a32.8 32.8 0 0 1-5.4 1.6Zm2.6-6.1v.5l.3-.1-.2-.4Zm-55.7 6a11.9 11.9 0 0 1-2.3-.3h-.1l-.5-.6-.4.5-2.2.1-1.1-1-8 .6-1.6-1.2-.3-1.9.9-1-.4-.4v-1.5l.5-.5-.5-.5v-6.4h.1l-.7-.8v-1.6l.8-.9-.3-.7 1.2-2.2h.2c2.9-.1 5.8-.4 8.6-.7l1.5.6.4.7v-.1l1.5-1.5h1.8l1.5 1.5V20h2.3l1.5 1.5v.1a102.7 102.7 0 0 1-.6 12.4 4 4 0 0 1-1.2 2.5 3.8 3.8 0 0 1-2.6.9Zm-62.6 0a11.9 11.9 0 0 1-2.4-.3l-.6-.6-.4.5-2.2.1-1-1-8 .6h-.1l-1.6-1.3-.3-1.8 1-1-.4-.4v-1.5l.5-.5-.5-.5v-6.4l-.7-.8v-1.6l.9-.9-.4-.7 1.3-2.2h.2c2.9-.1 5.7-.4 8.6-.7l1.4.6.5.7v-.1l1.5-1.5h1.8l1.5 1.5V20h2.2l1.5 1.5v3.1l1.3-1.3h.5l-.2-.5-1.5-1.5v-1.7l1.5-1.5h2.1l.7-1.4 1.8-.6 1.7.7v.1a10.5 10.5 0 0 1 .6 1.2h2.6l1.2-1.2h7.5l1.4 2-2.2 6.1a10.7 10.7 0 0 1 1.3 1.9 7.3 7.3 0 0 1 .9 3.3 5 5 0 0 1-1.2 3.5 4.3 4.3 0 0 1-3.3 1.3 9.9 9.9 0 0 1-1 0v.8l-1.5 1.5h-2l-1-1-.7.7h-1.8l-1-1H112l-1.3 1.2H109l-1.5-1.5v-7.8l.1-.1-1-1.1c-.1 3-.3 5.4-.6 7.3a4 4 0 0 1-1.2 2.4v.1a3.8 3.8 0 0 1-2.5.9Zm10-6.2h1.5-1.4Zm10-1.3a5.8 5.8 0 0 0 .6.2 3 3 0 0 0-.4-1.2 3 3 0 0 0-.2-.4Zm77.5 7.4-1.4-.8a4.2 4.2 0 0 1-2.4.7h-2l-1.6-1.4-.2-1.8 1.3-1.3h-1l-1.4-1.9 1-3.7-1.3-.5-.9-1.7 1-2.2h.2q.4 0 .7-.2h-.1l-.2-2.3.2-.2-.2-.2v-1.7l1.5-1.5h7.2l1.7-.6 1.9 1v.2a9.5 9.5 0 0 0 .8-.7h2.3l1.2 1.4v.2h.9l1.2 1.4v2h-.2l-.4.5.8.3h.2l.6 2.5L210 26l.2.3V28l-1 1.1v.8l-.1.5a9.2 9.2 0 0 1-.9 2l1.2.7h.2l.3 2.3-1.3 1.5-2 .3-.1-.1-2-1.3h-.1a13.3 13.3 0 0 1-4.6 1.5Zm0-14.4 1.1-1h.2l-.3-.4a12.6 12.6 0 0 1-1 1.3ZM354 37.3h-2l-.8-.8h-7.8l-.8.8h-2l-1.4-1.5v-4h-.7l-1.7-.7-.7-1.6.7-1.4-.6-.6v-.9l-1.6 1.5h-1.4c0 5.4-.5 6.6-1 7.3a3.7 3.7 0 0 1-3.3 1.8 17.6 17.6 0 0 1-2.4-.2l-1.3-1.2-.5-2 1.7-1.9h.2l1.4.2.2-4h-2a10.6 10.6 0 0 1-2 5.1 13.9 13.9 0 0 1-5.1 4h-.1l-1.9-.4-1.1-1.6.5-2.2.2-.1a9.9 9.9 0 0 0 3.6-2.7 5.8 5.8 0 0 0 .9-2.1h-1.3l-.7-.7-.3.2-2.1-.2-1.3-1.6.2-2 .1-.1a22.8 22.8 0 0 0 3-3 17 17 0 0 0 2-3.4l2.2-.7 1.7 1 .3 1V18l1.5-1.5h3.9l1.4 1.2v.1a9 9 0 0 0 1.4 3.7 9.7 9.7 0 0 0 2.7 2.7h.2l.1 2.3V26l1.3-1.3v-1l.4-.3-.7-.7v-4.5l1.5-1.5h16.2l1.5 1.5v4.5l-.2.2.4.4-.3 1.6 1.1 1.1v1.5l-1.5 1.5h-.4v6.8Zm-31-14h5.4a15.2 15.2 0 0 1-.8-2h-1L325 20a21.7 21.7 0 0 1-2 3.3Zm-149.8 14-2-.6-1-1.6.4-2.1.2-.1a12.8 12.8 0 0 0 4.4-4.1 9.6 9.6 0 0 0 1.2-3.7h-4.5l-1.5-1.5v-2l1.5-1.5h4.9V18l1.5-1.5h2l1.5 1.5V20h5.8l1.5 1.5v.2c0 6-.2 9.6-.5 11.2a4.9 4.9 0 0 1-1.7 3.1v.1a5.4 5.4 0 0 1-3 .8 28 28 0 0 1-3.6-.2l-1.4-1.2-.4-2.2 1.6-1.8h.2a24.3 24.3 0 0 0 3.3.3l.1-.6.2-6.2h-2.5a15 15 0 0 1-2 6.5 17.3 17.3 0 0 1-6 5.6Z"/></g></g></svg>