<svg width="24" height="24" fill="none" xmlns="http://www.w3.org/2000/svg"><path opacity=".4" d="M23 15.97c0 3.87-3.13 7-7 7l1.05-1.75M1 7.97c0-3.87 3.13-7 7-7L6.95 2.72" stroke="#292D32" stroke-width="1.5" stroke-linecap="round" stroke-linejoin="round"/><path opacity=".4" d="M14.85 15.33c0 3.41-2.76 6.17-6.17 6.17s-6.17-2.76-6.17-6.17 2.76-6.17 6.17-6.17c.16 0 .31.01.48.02 3.03.23 5.45 2.65 5.68 5.68 0 .15.01.3.01.47z" fill="#292D32"/><path d="M21.5 8.67c0 3.41-2.76 6.17-6.17 6.17h-.49a6.174 6.174 0 00-5.68-5.68v-.49c0-3.41 2.76-6.17 6.17-6.17s6.17 2.76 6.17 6.17zM11.12 15.01c.12-.25.19-.52.19-.81 0-1-.88-1.88-1.88-1.88h-.26v-.38c0-.41-.34-.75-.75-.75s-.75.34-.75.75v.38H6.62c-.41 0-.75.34-.75.75v4.5c0 .41.34.75.75.75h1.05v.38c0 .41.34.75.75.75s.75-.34.75-.75v-.38h.66c1.12 0 2.04-.84 2.04-1.88 0-.57-.3-1.09-.75-1.43zm-3.75-1.19h2.06c.21 0 .38.23.38.38 0 .21-.17.38-.38.38H7.37v-.76zm2.46 3.01H7.36v-.75h2.46c.32 0 .54.2.54.38s-.21.37-.53.37z" fill="#292D32"/></svg>