<svg width="24" height="24" fill="none" xmlns="http://www.w3.org/2000/svg"><path opacity=".4" d="M12 15.7v.61H2v-.61c0-1.76.44-2.2 2.22-2.2h5.56c1.78 0 2.22.44 2.22 2.2z" fill="#292D32"/><path d="M2 16.31v3.49c0 1.76.44 2.2 2.22 2.2h5.56c1.78 0 2.22-.44 2.22-2.2v-3.49H2z" fill="#292D32"/><g opacity=".4" stroke="#292D32" stroke-width="1.5" stroke-linecap="round" stroke-linejoin="round"><path d="M22 15c0 3.87-3.13 7-7 7l1.05-1.75M2 9c0-3.87 3.13-7 7-7L7.95 3.75"/></g><path opacity=".4" d="M23 6.5h-9c0 2.48 2.02 4.5 4.5 4.5A4.5 4.5 0 0023 6.5z" fill="#292D32"/><path d="M23 6.5a4.5 4.5 0 00-9 0h9z" fill="#292D32"/></svg>