<svg width="24" height="24" fill="none" xmlns="http://www.w3.org/2000/svg">
  <path d="M16614.293-2544.478a4.836,4.836,0,0,0,.416-3.174,1.19,1.19,0,0,0-.088-.259,5.837,5.837,0,0,1,3.141,5.18v2.932A4.9,4.9,0,0,0,16614.293-2544.478Zm-16.053,1.748a5.844,5.844,0,0,1,4.709-5.739l-1.748,4.179,1.752-4.179.037-.092.059-.158c.033-.071.055-.129.084-.179,1.309-3.032,2.789-3.72,5.768-2.582l-.029.071-2.9,6.731h-2.854a4.79,4.79,0,0,0-1.918.388,4.892,4.892,0,0,0-2.961,4.492Z" transform="translate(-16596 2554)" fill="#292d32" opacity="0.8" />
  <path d="M16600.738-2536.518v-1.809h-1.75a.755.755,0,0,1-.746-.75.755.755,0,0,1,.746-.75h1.75v-1.692a.754.754,0,0,1,.75-.746.752.752,0,0,1,.752.746v1.692h1.75a.758.758,0,0,1,.75.75.758.758,0,0,1-.75.75h-1.75v1.809a.756.756,0,0,1-.752.75A.758.758,0,0,1,16600.738-2536.518Zm5.631-8.678h-6.91l2.9-6.732.029-.071c.143.05.293.121.443.171l2.209.929a6.637,6.637,0,0,1,2.621,1.68c.088.121.166.229.246.359a1.433,1.433,0,0,1,.2.433,1.073,1.073,0,0,1,.092.259,4.8,4.8,0,0,1-.42,3.172A4.954,4.954,0,0,0,16606.369-2545.2Z" transform="translate(-16589.49 2554.518)" fill="#292d32" />
  <path d="M21.76,14.2v1.95c0,.2-.01.4-.02.59C21.55,20.24,19.6,22,15.9,22H8.1a5.394,5.394,0,0,1-.71-.05q-4.77-.315-5.1-5.09a5.648,5.648,0,0,1-.05-.71V14.2A4.894,4.894,0,0,1,5.2,9.71a4.777,4.777,0,0,1,1.92-.39h9.76a5.057,5.057,0,0,1,1.41.2,4.9,4.9,0,0,1,3.47,4.68Z" fill="#292d32" opacity="0.4" />
</svg>