<svg width="24" height="24" fill="none" xmlns="http://www.w3.org/2000/svg"><path opacity=".3" d="M16.163 17.55a6.83 6.83 0 001.812-3.221 6.375 6.375 0 011.656-3.023l-6.937-6.937a6.38 6.38 0 01-3.023 1.656 6.852 6.852 0 00-5.226 6.8 5.905 5.905 0 01-1.727 4.3l-.431.431a.982.982 0 000 1.388l2.775 2.775a.982.982 0 001.388 0l.431-.431a5.904 5.904 0 014.3-1.727 6.83 6.83 0 004.982-2.011z" fill="#000"/><path d="M19.631 11.306l-6.937-6.937 2.081-2.082a.982.982 0 011.388 0l5.55 5.55a.982.982 0 010 1.388l-2.082 2.081zm-6.59-.347a2.452 2.452 0 00-4.017 2.629l-6.043 6.043 1.388 1.388 6.043-6.044a2.451 2.451 0 002.629-4.016z" fill="#000"/></svg>