<svg width="24" height="24" fill="none" xmlns="http://www.w3.org/2000/svg"><path opacity=".3" d="M20.859 12.596l-3.123 1-7.348 7.348a1.04 1.04 0 01-1.47 0L2.3 14.323a1.04 1.04 0 010-1.47L11.853 3.3a1.04 1.04 0 011.47 0l7.876 7.876a.853.853 0 01-.34 1.42z" fill="#000"/><path d="M14.8 10.184a.913.913 0 01-.165-.014L5.816 8.7a1 1 0 01.329-1.973l8.818 1.47a1 1 0 01-.163 1.987zm2.2 8.439a2.5 2.5 0 104.364-1.666l-1.521-1.7a.458.458 0 00-.686 0l-1.521 1.7A2.488 2.488 0 0017 18.623zm-6.612 2.318l7.348-7.348H2a1.036 1.036 0 00.3.735l6.614 6.613a1.04 1.04 0 001.474 0z" fill="#000"/></svg>