<svg width="24" height="24" fill="none" xmlns="http://www.w3.org/2000/svg"><path opacity=".3" d="M5.78 21.115l-2.5.834a.972.972 0 01-1.228-1.228l.834-2.5 4.342-4.342 2.9 2.895-4.348 4.341z" fill="#000"/><path d="M21.7 8.089L15.911 2.3a1.022 1.022 0 00-1.447 0l-.724.723a1.024 1.024 0 000 1.448l.724.723-3.161 3.161a6.124 6.124 0 00-6.971 1.181 1.025 1.025 0 000 1.448l8.684 8.683a1.024 1.024 0 001.448 0 6.121 6.121 0 001.181-6.97l3.161-3.161.723.724a1.024 1.024 0 001.448 0l.723-.724a1.021 1.021 0 000-1.447z" fill="#000"/></svg>