<svg width="24" height="24" fill="none" xmlns="http://www.w3.org/2000/svg"><path d="M13 2.375l9 7.2v11c0 .6-.4 1-1 1H3c-.6 0-1-.4-1-1v-11l9-7.2c.6-.5 1.4-.5 2 0zm5.6 9.6c.3-.4.2-1.1-.2-1.4-3.8-2.7-9-2.7-12.8 0-.4.3-.6.9-.2 1.4.3.4.9.6 1.4.2 3.1-2.2 7.3-2.2 10.5 0 .2.1.4.2.6.2.2.1.5-.1.7-.4zm-4.6 6.6c.3-.4.2-1.1-.2-1.4-1-.8-2.4-.8-3.5 0-.4.3-.6.9-.2 1.4.3.4.9.6 1.4.2.3-.2.8-.2 1.2 0 .2.1.4.2.6.2.2 0 .5-.2.7-.4zm2.3-3.3c.3-.4.2-1.1-.2-1.4-2.4-1.7-5.8-1.7-8.1 0-.4.3-.6.9-.2 1.4.4.5.9.6 1.4.2 1.7-1.2 4.1-1.2 5.8 0 .2.1.4.2.6.2.2 0 .5-.1.7-.4z" fill="#000"/></svg>