<svg width="24" height="24" fill="none" xmlns="http://www.w3.org/2000/svg"><path d="M5 11.3V11c0-1.1.9-2 2-2h10c1.1 0 2 .9 2 2v.3c-.3-.2-.6-.3-1-.3H6c-.4 0-.7.1-1 .3zM4 13H3c-.6 0-1 .4-1 1v4c0 .6.4 1 1 1h1v-6zm18 5v-4c0-.6-.4-1-1-1h-1v6h1c.6 0 1-.4 1-1z" fill="#000"/><path opacity=".3" d="M18 21H6c-1.1 0-2-.9-2-2v-6c0-1.1.9-2 2-2h12c1.1 0 2 .9 2 2v6c0 1.1-.9 2-2 2zM14 3c0-.6-.4-1-1-1h-2c-.6 0-1 .4-1 1v6h4V3zm-8 9c-.6 0-1 .4-1 1s.4 1 1 1 1-.4 1-1-.4-1-1-1zm12 0c-.6 0-1 .4-1 1s.4 1 1 1 1-.4 1-1-.4-1-1-1zM6 18c-.6 0-1 .4-1 1s.4 1 1 1 1-.4 1-1-.4-1-1-1zm12 0c-.6 0-1 .4-1 1s.4 1 1 1 1-.4 1-1-.4-1-1-1z" fill="#000"/></svg>