<svg width="24" height="24" fill="none" xmlns="http://www.w3.org/2000/svg"><path opacity=".3" d="M11 6.5C11 9 9 11 6.5 11S2 9 2 6.5 4 2 6.5 2 11 4 11 6.5zM17.5 2C15 2 13 4 13 6.5s2 4.5 4.5 4.5S22 9 22 6.5 20 2 17.5 2zm-11 11C4 13 2 15 2 17.5S4 22 6.5 22s4.5-2 4.5-4.5S9 13 6.5 13zm11 0C15 13 13 15 13 17.5s2 4.5 4.5 4.5 4.5-2 4.5-4.5-2-4.5-4.5-4.5z" fill="#000"/><path d="M17.5 16s-.1 0 0 0l-.8-.7c-.6-.6-1-1.4-1.1-2.2-.1-.7-.1-1.5 0-2.3.1-.8.5-1.6 1.1-2.2l.7-.7h.1c.8 0 1.5-.7 1.5-1.5s-.7-1.5-1.5-1.5-1.5.7-1.5 1.5v.1l-.7.7c-.6.6-1.4 1-2.2 1.1-.7.1-1.5.1-2.3 0-.8-.1-1.6-.5-2.2-1.1l-.7-.7v-.1c0-.8-.7-1.5-1.5-1.5s-1.5.7-1.5 1.5.7 1.5 1.5 1.5h.1l.7.7c.6.6 1 1.4 1.1 2.2.1.7.1 1.5 0 2.3-.1.8-.5 1.6-1.1 2.2l-.7.7h-.1c-.8 0-1.5.7-1.5 1.5S5.6 19 6.4 19s1.5-.7 1.5-1.5v-.1l.7-.7c.6-.6 1.4-1 2.2-1.1.7-.1 1.5-.1 2.3 0 .8.1 1.6.5 2.2 1.1l.7.7v.1c0 .8.7 1.5 1.5 1.5s1.5-.7 1.5-1.5-.7-1.5-1.5-1.5z" fill="#000"/></svg>