<svg width="24" height="24" fill="none" xmlns="http://www.w3.org/2000/svg"><path d="M21 10h-8v1c0 .6-.4 1-1 1s-1-.4-1-1v-1H3c-.6 0-1 .4-1 1v2h20v-2c0-.6-.4-1-1-1z" fill="#000"/><path opacity=".3" d="M12 12c-.6 0-1-.4-1-1V3c0-.6.4-1 1-1s1 .4 1 1v8c0 .6-.4 1-1 1zM18.1 21H5.9c-.5 0-1-.4-1.1-.9L3 13h18l-1.8 7.1c-.1.5-.6.9-1.1.9zM13 18v-3c0-.6-.4-1-1-1s-1 .4-1 1v3c0 .6.4 1 1 1s1-.4 1-1zm4 0v-3c0-.6-.4-1-1-1s-1 .4-1 1v3c0 .6.4 1 1 1s1-.4 1-1zm-8 0v-3c0-.6-.4-1-1-1s-1 .4-1 1v3c0 .6.4 1 1 1s1-.4 1-1z" fill="#000"/></svg>