<svg width="24" height="24" fill="none" xmlns="http://www.w3.org/2000/svg"><path opacity=".3" d="M3 6c-.6 0-1-.4-1-1V3c0-.6.4-1 1-1h2c.6 0 1 .4 1 1s-.4 1-1 1H4v1c0 .6-.4 1-1 1zm19-1V3c0-.6-.4-1-1-1h-2c-.6 0-1 .4-1 1s.4 1 1 1h1v1c0 .6.4 1 1 1s1-.4 1-1zM6 21c0-.6-.4-1-1-1H4v-1c0-.6-.4-1-1-1s-1 .4-1 1v2c0 .6.4 1 1 1h2c.6 0 1-.4 1-1zm16 0v-2c0-.6-.4-1-1-1s-1 .4-1 1v1h-1c-.6 0-1 .4-1 1s.4 1 1 1h2c.6 0 1-.4 1-1z" fill="#000"/><path d="M3 16c-.6 0-1-.4-1-1V9c0-.6.4-1 1-1s1 .4 1 1v6c0 .6-.4 1-1 1zm10-1V9c0-.6-.4-1-1-1s-1 .4-1 1v6c0 .6.4 1 1 1s1-.4 1-1zm4 0V9c0-.6-.4-1-1-1s-1 .4-1 1v6c0 .6.4 1 1 1s1-.4 1-1zm-8 0V9c0-.6-.4-1-1-1H7c-.6 0-1 .4-1 1v6c0 .6.4 1 1 1h1c.6 0 1-.4 1-1zm13 0V9c0-.6-.4-1-1-1h-1c-.6 0-1 .4-1 1v6c0 .6.4 1 1 1h1c.6 0 1-.4 1-1z" fill="#000"/></svg>