<svg width="24" height="24" fill="none" xmlns="http://www.w3.org/2000/svg"><path opacity=".3" d="M18 21.6c-1.7 0-3-1.3-3-3V2.5c0-.3-.4-.5-.7-.3L13 3.6l-1.3-1.3c-.4-.4-1-.4-1.4 0L9 3.6 7.7 2.3c-.4-.4-1-.4-1.4 0L5 3.6 3.7 2.3c-.2-.2-.7-.1-.7 1.2v15.1c0 1.7 1.3 3 3 3h12z" fill="#000"/><path d="M12 12.6h-1c-.6 0-1-.4-1-1s.4-1 1-1h1c.6 0 1 .4 1 1s-.4 1-1 1zm-3-1c0-.6-.4-1-1-1H6c-.6 0-1 .4-1 1s.4 1 1 1h2c.6 0 1-.4 1-1zm0-4c0-.6-.4-1-1-1H6c-.6 0-1 .4-1 1s.4 1 1 1h2c.6 0 1-.4 1-1zm4 0c0-.6-.4-1-1-1h-1c-.6 0-1 .4-1 1s.4 1 1 1h1c.6 0 1-.4 1-1zm0 8c0-.6-.4-1-1-1h-2c-.6 0-1 .4-1 1s.4 1 1 1h2c.6 0 1-.4 1-1zM15 18.6c0 1.7 1.3 3 3 3s3-1.3 3-3v-6.1c0-.3-.4-.5-.7-.3L19 13.6l-1.3-1.3c-.4-.4-1-.4-1.4 0L15 13.6v5z" fill="#000"/></svg>