<svg width="24" height="24" fill="none" xmlns="http://www.w3.org/2000/svg"><path opacity=".3" d="M18 22H6c-.6 0-1-.4-1-1V8l4-4h6l4 4v13c0 .6-.4 1-1 1zM12 5.5c-.8 0-1.5.7-1.5 1.5s.7 1.5 1.5 1.5 1.5-.7 1.5-1.5-.7-1.5-1.5-1.5z" fill="#000"/><path d="M12 7c-.6 0-1-.4-1-1V3c0-.6.4-1 1-1s1 .4 1 1v3c0 .6-.4 1-1 1zm3.1 3.6c0-.1 0-.2-.1-.3-.1-.1-.2-.1-.3-.1-.1 0-.2 0-.3.1-.1.1-.1.2-.2.3L9 19.1c-.1.1-.1.2-.1.3 0 .1 0 .2.1.3.1.1.2.1.3.1.2 0 .3-.1.5-.3l5.2-8.4c0-.3.1-.4.1-.5zm-4.1 1c-.1-.3-.2-.5-.4-.8-.2-.2-.4-.4-.6-.5-.2-.1-.5-.2-.9-.2-.5 0-.8.1-1.1.3-.3.2-.5.5-.6.8-.1.4-.2.8-.2 1.4 0 .5.1.9.3 1.3.2.4.4.6.7.8.3.2.6.2 1 .2.6 0 1.1-.2 1.4-.6.4-.4.5-1 .5-1.8 0-.2 0-.6-.1-.9zm-1.2 2.2c-.1.3-.3.4-.6.4-.2 0-.4-.1-.5-.2-.1-.1-.2-.3-.2-.5s-.1-.5-.1-.9 0-.7.1-.9c0-.2.1-.4.2-.5.1-.1.3-.2.5-.2.3 0 .5.1.6.4.1.3.2.6.2 1.2s-.1 1-.2 1.2zm6.7 2.3c-.1-.3-.2-.5-.4-.7-.2-.2-.4-.4-.6-.5-.2-.1-.5-.2-.9-.2-.7 0-1.2.2-1.5.6-.3.4-.5 1-.5 1.8 0 .5.1.9.3 1.3.2.3.4.6.7.8.3.2.6.3 1 .3.6 0 1.1-.2 1.4-.6.4-.4.5-1 .5-1.8.2-.3.1-.7 0-1zm-1.2 2.3c-.1.3-.3.4-.6.4s-.5-.1-.6-.4c-.1-.3-.2-.7-.2-1.2 0-.4 0-.7.1-.9.1-.2.1-.4.2-.5.1-.1.3-.2.5-.2.3 0 .5.1.6.4.1.2.2.6.2 1.2 0 .5-.1.9-.2 1.2z" fill="#000"/></svg>