<svg width="24" height="24" fill="none" xmlns="http://www.w3.org/2000/svg"><path opacity=".3" d="M21.6 11.2l-2.3-2.3V5.6c0-.6-.4-1-1-1h-3.4l-2.3-2.3c-.4-.4-1-.4-1.4 0L8.9 4.6H5.6c-.6 0-1 .4-1 1v3.3l-2.3 2.3c-.4.4-.4 1 0 1.4l2.3 2.3v3.3c0 .6.4 1 1 1h3.3l2.3 2.3c.4.4 1 .4 1.4 0l2.3-2.3h3.3c.6 0 1-.4 1-1v-3.3l2.3-2.3c.5-.4.5-1 .1-1.4z" fill="#000"/><path d="M11.3 9.4c0 .8-.2 1.5-.6 1.9-.4.4-.9.6-1.5.6-.4 0-.8-.1-1.1-.3-.3-.2-.6-.4-.7-.8-.2-.4-.3-.8-.3-1.4 0-.6.1-1 .2-1.4.1-.4.4-.7.7-.9.3-.2.7-.3 1.2-.3.3 0 .6.1.9.2.3.1.5.3.7.5.2.2.3.5.4.8.1.3.1.7.1 1.1zm-1.2 0c0-.6-.1-1-.2-1.3-.1-.3-.3-.4-.7-.4-.2 0-.4.1-.5.2-.1.1-.2.3-.3.6 0 .2-.1.6-.1.9 0 .4 0 .7.1 1 0 .2.1.4.3.6.1.1.3.2.5.2.3 0 .5-.1.7-.4.1-.4.2-.8.2-1.4zm4.8-1.6l-5.5 8.9c-.1.2-.3.4-.5.4-.1 0-.2 0-.3-.1-.1-.1-.2-.2-.2-.3 0-.1 0-.2.1-.3L14 7.5c.1-.2.2-.3.3-.4.1-.1.2-.1.3-.1.1 0 .2 0 .3.1.1.1.1.2.1.3.2-.1.1.1-.1.4zm1.7 6.4c0 .8-.2 1.5-.6 1.9-.4.4-.9.6-1.5.6-.4 0-.8-.1-1.1-.3-.3-.2-.6-.4-.7-.8-.2-.4-.3-.8-.3-1.4 0-.9.2-1.5.5-1.9.3-.4.8-.6 1.6-.6.3 0 .6.1.9.2.3.1.5.3.7.5.2.2.3.5.4.8.1.2.1.6.1 1zm-1.2-.1c0-.6-.1-1-.2-1.2-.1-.3-.3-.4-.7-.4-.2 0-.4.1-.5.2-.1.1-.2.3-.3.5-.1.2-.1.6-.1.9 0 .6.1 1 .2 1.3.1.3.3.4.7.4.3 0 .5-.1.7-.4.1-.2.2-.7.2-1.3z" fill="#000"/></svg>