<svg width="24" height="24" fill="none" xmlns="http://www.w3.org/2000/svg"><path opacity=".3" d="M18 10v10c0 .6.4 1 1 1s1-.4 1-1V10h-2zM11 10v7H6v-7H4v10c0 .6.4 1 1 1h7c.6 0 1-.4 1-1V10h-2z" fill="#000"/><path opacity=".3" d="M10 10c0 1.1-.9 2-2 2s-2-.9-2-2h4zM18 10c0 1.1-.9 2-2 2s-2-.9-2-2h4zM14 4h-4v6h4V4zM17 4h3l2 6h-4l-1-6zM7 4H4l-2 6h4l1-6z" fill="#000"/><path d="M6 10c0 1.1-.9 2-2 2s-2-.9-2-2h4zm4 0c0 1.1.9 2 2 2s2-.9 2-2h-4zm8 0c0 1.1.9 2 2 2s2-.9 2-2h-4zm1-8H5c-.6 0-1 .4-1 1v1h16V3c0-.6-.4-1-1-1zm-7 15c0-.6-.4-1-1-1H6c-.6 0-1 .4-1 1s.4 1 1 1h5c.6 0 1-.4 1-1z" fill="#000"/></svg>