<svg width="24" height="24" fill="none" xmlns="http://www.w3.org/2000/svg"><path opacity=".3" d="M3 13h7c.6 0 1 .4 1 1v7c0 .6-.4 1-1 1H3c-.6 0-1-.4-1-1v-7c0-.6.4-1 1-1z" fill="#000"/><path d="M7 16H6c-.6 0-1-.4-1-1v-2h3v2c0 .6-.4 1-1 1z" fill="#000"/><path opacity=".3" d="M14 13h7c.6 0 1 .4 1 1v7c0 .6-.4 1-1 1h-7c-.6 0-1-.4-1-1v-7c0-.6.4-1 1-1z" fill="#000"/><path d="M18 16h-1c-.6 0-1-.4-1-1v-2h3v2c0 .6-.4 1-1 1z" fill="#000"/><path opacity=".3" d="M3 2h7c.6 0 1 .4 1 1v7c0 .6-.4 1-1 1H3c-.6 0-1-.4-1-1V3c0-.6.4-1 1-1z" fill="#000"/><path d="M7 5H6c-.6 0-1-.4-1-1V2h3v2c0 .6-.4 1-1 1z" fill="#000"/><path opacity=".3" d="M14 2h7c.6 0 1 .4 1 1v7c0 .6-.4 1-1 1h-7c-.6 0-1-.4-1-1V3c0-.6.4-1 1-1z" fill="#000"/><path d="M18 5h-1c-.6 0-1-.4-1-1V2h3v2c0 .6-.4 1-1 1z" fill="#000"/></svg>