<svg width="24" height="24" fill="none" xmlns="http://www.w3.org/2000/svg"><path d="M6 7H3c-.6 0-1-.4-1-1V3c0-.6.4-1 1-1h3c.6 0 1 .4 1 1v3c0 .6-.4 1-1 1z" fill="#000"/><path opacity=".3" d="M13 7h-3c-.6 0-1-.4-1-1V3c0-.6.4-1 1-1h3c.6 0 1 .4 1 1v3c0 .6-.4 1-1 1zm8-1V3c0-.6-.4-1-1-1h-3c-.6 0-1 .4-1 1v3c0 .6.4 1 1 1h3c.6 0 1-.4 1-1zM7 13v-3c0-.6-.4-1-1-1H3c-.6 0-1 .4-1 1v3c0 .6.4 1 1 1h3c.6 0 1-.4 1-1zm7 0v-3c0-.6-.4-1-1-1h-3c-.6 0-1 .4-1 1v3c0 .6.4 1 1 1h3c.6 0 1-.4 1-1zm7 0v-3c0-.6-.4-1-1-1h-3c-.6 0-1 .4-1 1v3c0 .6.4 1 1 1h3c.6 0 1-.4 1-1zM7 20v-3c0-.6-.4-1-1-1H3c-.6 0-1 .4-1 1v3c0 .6.4 1 1 1h3c.6 0 1-.4 1-1zm7 0v-3c0-.6-.4-1-1-1h-3c-.6 0-1 .4-1 1v3c0 .6.4 1 1 1h3c.6 0 1-.4 1-1zm7 0v-3c0-.6-.4-1-1-1h-3c-.6 0-1 .4-1 1v3c0 .6.4 1 1 1h3c.6 0 1-.4 1-1z" fill="#000"/></svg>