<svg width="24" height="24" fill="none" xmlns="http://www.w3.org/2000/svg"><path opacity=".3" d="M18.4 5.6c3.5 3.5 3.5 9.2 0 12.7s-9.2 3.5-12.7 0L18.4 5.6z" fill="#000"/><path d="M12 2C6.5 2 2 6.5 2 12s4.5 10 10 10 10-4.5 10-10S17.5 2 12 2zm7.9 9H13V8.9c1.9-.2 3.7-.9 5.1-2.1 1 1.2 1.6 2.6 1.8 4.2zM11 19.9c-1.3-.2-2.6-.7-3.6-1.4 1.1-.8 2.3-1.3 3.6-1.4v2.8zm-5.1-13C7.4 8.1 9.2 8.8 11 9v2.1H4.1c.2-1.7.8-3.1 1.8-4.2zm1.5-1.4c1.1-.8 2.3-1.3 3.6-1.4V7c-1.3-.2-2.6-.7-3.6-1.5zM13 17.1c1.3.2 2.6.7 3.6 1.4-1.1.8-2.3 1.3-3.6 1.4v-2.8zm0-13c1.3.2 2.6.7 3.6 1.4-1.1.8-2.3 1.3-3.6 1.4V4.1zM4.1 13H11v2.1c-1.9.2-3.7.9-5.1 2.1-1-1.2-1.6-2.6-1.8-4.2zm14 4.1c-1.5-1.2-3.3-1.9-5.1-2.1v-2.1h6.9c-.2 1.7-.8 3.1-1.8 4.2z" fill="#000"/></svg>