<svg width="24" height="24" fill="none" xmlns="http://www.w3.org/2000/svg"><path d="M8.4 20.507c-1.1 0-2-.9-2-2s.9-2 2-2h1.5c1.9 0 3.5-1.6 3.5-3.5s-1.6-3.5-3.5-3.5H8.1l-1.5 1.7c-.1.1-.3.2-.5.3h3.7c.8 0 1.5.7 1.5 1.5s-.7 1.5-1.5 1.5H8.4c-2.2 0-4 1.8-4 4s1.8 4 4 4h7v-2h-7z" fill="#000"/><path opacity=".3" d="M8.9 8.707l-2.2 2.5c-.4.4-1.1.4-1.5 0L3 8.707c-.8-.9-1.2-2.2-.9-3.6.3-1.5 1.5-2.7 3-3 2.6-.6 4.9 1.4 4.9 3.9-.1 1-.5 2-1.1 2.7z" fill="#000"/><path d="M5.9 7.507a1.5 1.5 0 100-3 1.5 1.5 0 000 3z" fill="#000"/><path opacity=".3" d="M17.4 22.507h-2v-9c0-.6.4-1 1-1s1 .4 1 1v9z" fill="#000"/><path d="M21.4 18.507h-6v-5h6c.8 0 1.2.9.7 1.5l-.8 1 .8 1c.6.6.1 1.5-.7 1.5z" fill="#000"/></svg>