<svg width="24" height="24" fill="none" xmlns="http://www.w3.org/2000/svg"><path d="M10.613 16.163l-2.776-2.776a.981.981 0 010-1.387l6.938-6.938a.98.98 0 011.387 0l2.776 2.776a.98.98 0 010 1.387L12 16.163a.981.981 0 01-1.387 0zm-5.9 1.04l-2.228 3.119a.853.853 0 001.19 1.19l3.119-2.228-2.081-2.081z" fill="#000"/><path opacity=".3" d="M7.837 12l-5.55-5.55a.982.982 0 010-1.388l2.775-2.775a.982.982 0 011.388 0L12 7.837 7.837 12zm11.1 9.713l2.775-2.775a.982.982 0 000-1.388L16.162 12 12 16.163l5.55 5.55a.982.982 0 001.388 0h-.001zm-9.791-.079a.948.948 0 001.506-.223 6.255 6.255 0 00-8.064-8.064.949.949 0 00-.223 1.506l6.781 6.781zm10.035-14.8a.745.745 0 00.291-1.233L18.401 4.53a.745.745 0 00-1.233.291l-.313.938 1.388 1.388.938-.313z" fill="#000"/></svg>