<svg xmlns="http://www.w3.org/2000/svg" xmlns:xlink="http://www.w3.org/1999/xlink" width="362" height="238"><defs><linearGradient id="a" x1=".5" x2=".5" y2="1" gradientUnits="objectBoundingBox"><stop offset="0" stop-color="#1bb48a"/><stop offset="1" stop-color="#7bc44e"/></linearGradient><linearGradient id="e" x1="-.139" y1="-.192" x2="1" y2="1.151" xlink:href="#a"/><linearGradient id="g" x1="0" x2="1" y2=".5" xlink:href="#a"/><filter id="b" x="0" y="0" width="362" height="238" filterUnits="userSpaceOnUse"><feOffset dy="2"/><feGaussianBlur stdDeviation="4" result="b"/><feFlood flood-color="#74809e" flood-opacity=".38"/><feComposite operator="in" in2="b"/><feComposite in="SourceGraphic"/></filter><filter id="c" x="0" y="0" width="362" height="238" filterUnits="userSpaceOnUse"><feOffset dy="2"/><feGaussianBlur stdDeviation="4" result="d"/><feFlood flood-color="#74809e" flood-opacity=".38"/><feComposite operator="in" in2="d"/><feComposite in="SourceGraphic"/></filter><filter id="d" x="233.5" y="114.5" width="115" height="115" filterUnits="userSpaceOnUse"><feOffset dy="2"/><feGaussianBlur stdDeviation="4.5" result="g"/><feFlood flood-color="#74809e" flood-opacity=".161"/><feComposite operator="in" in2="g"/><feComposite in="SourceGraphic"/></filter><clipPath id="f"/></defs><g transform="translate(-642 -206)"><text transform="translate(674 259)" fill="#163440" font-size="20" font-family="NotoSansCJKtc-Bold, Noto Sans CJK TC" font-weight="700"><tspan x="0" y="0">參訓中學員數 / 結訓學員就業率</tspan></text><text transform="translate(674 315)" fill="#15ca20" font-size="36" font-family="NotoSansCJKtc-Black, Noto Sans CJK TC" font-weight="800"><tspan x="0" y="0">27,829</tspan></text><g transform="translate(642 206)" filter="url(#d)"><rect width="88" height="88" rx="44" transform="translate(247 126)" opacity=".88" fill="url(#a)"/></g><text transform="translate(933 388)" fill="#fff" font-size="28" font-family="NotoSansCJKtc-Bold, Noto Sans CJK TC" font-weight="700"><tspan x="-29.96" y="0">77%</tspan></text><g transform="translate(677.636 362.364)" fill="url(#e)"><path d="M14.078 0a9.491 9.491 0 00-.24 18.98 1.613 1.613 0 01.44 0h.14A9.493 9.493 0 0014.078 0z" opacity=".4"/><path d="M24.239 24.3c-5.58-3.72-14.68-3.72-20.3 0-2.54 1.7-3.94 4-3.94 6.46s1.4 4.74 3.92 6.42A18.479 18.479 0 0014.079 40a18.479 18.479 0 0010.16-2.82c2.52-1.7 3.92-3.98 3.92-6.46-.02-2.465-1.399-4.74-3.92-6.42z"/><path d="M36.06 10.681a7.158 7.158 0 01-6.26 7.74h-.1a.936.936 0 00-.34.04 7.176 7.176 0 01-5.06-1.66 9.152 9.152 0 003-7.6 9.282 9.282 0 00-1.54-4.36 7.181 7.181 0 0110.3 5.84z" opacity=".4"/><path d="M40.058 29.18a6.091 6.091 0 01-3.48 4.76 14.117 14.117 0 01-7.02 1.56 7.139 7.139 0 002.44-4.64c.2-2.48-.98-4.86-3.34-6.76a16.51 16.51 0 00-4.6-2.52c4.42-1.28 9.98-.42 13.4 2.34a6.077 6.077 0 012.6 5.26z"/></g><rect width="122" height="6" rx="2" transform="translate(674 324)" opacity=".158" fill="url(#g)"/><text transform="translate(803 317)" fill="#74809e" font-size="18" font-family="NotoSansCJKtc-Bold, Noto Sans CJK TC" font-weight="700"><tspan x="0" y="0">位</tspan></text></g></svg>