<svg xmlns="http://www.w3.org/2000/svg" xmlns:xlink="http://www.w3.org/1999/xlink" width="362" height="238"><defs><linearGradient id="a" x1=".5" x2=".5" y2="1" gradientUnits="objectBoundingBox"><stop offset="0" stop-color="#23d7dc"/><stop offset="1" stop-color="#528de7"/></linearGradient><linearGradient id="e" x1="-.139" y1="-.192" x2="1" y2="1.151" xlink:href="#a"/><linearGradient id="g" x1="0" x2="1" y2=".5" xlink:href="#a"/><filter id="b" x="0" y="0" width="362" height="238" filterUnits="userSpaceOnUse"><feOffset dy="2"/><feGaussianBlur stdDeviation="4" result="b"/><feFlood flood-color="#74809e" flood-opacity=".38"/><feComposite operator="in" in2="b"/><feComposite in="SourceGraphic"/></filter><filter id="c" x="0" y="0" width="362" height="238" filterUnits="userSpaceOnUse"><feOffset dy="2"/><feGaussianBlur stdDeviation="4" result="d"/><feFlood flood-color="#74809e" flood-opacity=".38"/><feComposite operator="in" in2="d"/><feComposite in="SourceGraphic"/></filter><filter id="d" x="232.5" y="114.5" width="115" height="115" filterUnits="userSpaceOnUse"><feOffset dy="2"/><feGaussianBlur stdDeviation="4.5" result="g"/><feFlood flood-color="#74809e" flood-opacity=".161"/><feComposite operator="in" in2="g"/><feComposite in="SourceGraphic"/></filter><clipPath id="f"/></defs><g transform="translate(-288 -206)"><text transform="translate(320 259)" fill="rgba(22,52,64,0.4)" font-size="20" font-family="NotoSansCJKtc-Bold, Noto Sans CJK TC" font-weight="700"><tspan x="0" y="0">累積使用經費 / 執行率 </tspan><tspan y="0" font-size="14">(單位：元或千元)</tspan></text><text transform="translate(585 317)" fill="#74809e" font-size="18" font-family="NotoSansCJKtc-Bold, Noto Sans CJK TC" font-weight="700"><tspan x="0" y="0">元</tspan></text><text transform="translate(320 315)" fill="#0dcaf0" font-size="36" font-family="NotoSansCJKtc-Black, Noto Sans CJK TC" font-weight="800"><tspan x="0" y="0">1,875,672,991</tspan></text><g transform="translate(288 206)" filter="url(#d)"><rect width="88" height="88" rx="44" transform="translate(246 126)" opacity=".88" fill="url(#a)"/></g><text transform="translate(578 387.5)" fill="#fff" font-size="28" font-family="NotoSansCJKtc-Bold, Noto Sans CJK TC" font-weight="700"><tspan x="-29.96" y="0">83%</tspan></text><g transform="translate(322.909 363.818)" fill="url(#e)"><path d="M8 20a8 8 0 108 8 8 8 0 00-8-8zm2 7.36a3.526 3.526 0 01-1.7 3l-1.52.92a1.489 1.489 0 11-1.52-2.56l1.52-.92a.514.514 0 00.24-.42v-1.86a1.5 1.5 0 013 0v1.84z"/><path d="M42 10v12c0 7-4 10-10 10H14.9a7.8 7.8 0 001.1-4 7.993 7.993 0 00-14-5.28V10C2 3 6 0 12 0h20c6 0 10 3 10 10z" opacity=".4"/><path d="M22 21a5 5 0 10-5-5 5 5 0 005 5zM35 21.5a1.511 1.511 0 01-1.5-1.5v-8a1.5 1.5 0 013 0v8a1.511 1.511 0 01-1.5 1.5z"/></g><rect width="258" height="6" rx="2" transform="translate(320 324)" opacity=".158" fill="url(#g)"/></g></svg>