<svg xmlns="http://www.w3.org/2000/svg" xmlns:xlink="http://www.w3.org/1999/xlink" width="362" height="238"><defs><linearGradient id="a" x1=".5" x2=".5" y2="1" gradientUnits="objectBoundingBox"><stop offset="0" stop-color="#ffcf44"/><stop offset="1" stop-color="#ed8a4e"/></linearGradient><linearGradient id="e" x1="-.139" y1="-.192" x2="1" y2="1.151" xlink:href="#a"/><linearGradient id="g" x1="0" x2="1" y2=".5" xlink:href="#a"/><filter id="b" x="0" y="0" width="362" height="238" filterUnits="userSpaceOnUse"><feOffset dy="2"/><feGaussianBlur stdDeviation="4" result="b"/><feFlood flood-color="#74809e" flood-opacity=".38"/><feComposite operator="in" in2="b"/><feComposite in="SourceGraphic"/></filter><filter id="c" x="0" y="0" width="362" height="238" filterUnits="userSpaceOnUse"><feOffset dy="2"/><feGaussianBlur stdDeviation="4" result="d"/><feFlood flood-color="#74809e" flood-opacity=".38"/><feComposite operator="in" in2="d"/><feComposite in="SourceGraphic"/></filter><filter id="d" x="232.5" y="119.5" width="115" height="115" filterUnits="userSpaceOnUse"><feOffset dy="2"/><feGaussianBlur stdDeviation="4.5" result="g"/><feFlood flood-color="#74809e" flood-opacity=".161"/><feComposite operator="in" in2="g"/><feComposite in="SourceGraphic"/></filter><clipPath id="f"/></defs><g transform="translate(-996 -206)"><text transform="translate(1028 259)" fill="#163440" font-size="20" font-family="NotoSansCJKtc-Bold, Noto Sans CJK TC" font-weight="700"><tspan x="0" y="0">開班中訓練單位數 / 開班率</tspan></text><text transform="translate(1028 315)" fill="#ffc107" font-size="36" font-family="NotoSansCJKtc-Black, Noto Sans CJK TC" font-weight="800"><tspan x="0" y="0">1,210</tspan></text><g transform="translate(996 206)" filter="url(#d)"><rect width="88" height="88" rx="44" transform="translate(246 131)" opacity=".88" fill="url(#a)"/></g><text transform="translate(1286 393)" fill="#fff" font-size="28" font-family="NotoSansCJKtc-Bold, Noto Sans CJK TC" font-weight="700"><tspan x="-29.96" y="0">92%</tspan></text><g transform="translate(1027.182 360.182)" fill="url(#e)"><path d="M39.5 1.5v24.2c0 3.8-2 5.8-5.8 5.8H9.3c-3.8 0-5.8-2-5.8-5.8V1.5z" opacity=".4"/><path d="M41.5 3h-40a1.5 1.5 0 010-3h40a1.5 1.5 0 010 3zM30.841 42.18a1.505 1.505 0 01-1.34.82 1.528 1.528 0 01-.66-.16l-7.34-3.66-7.34 3.66a1.528 1.528 0 01-.66.16 1.505 1.505 0 01-1.34-.82 1.48 1.48 0 01.68-2.02l7.16-3.58V31.5h3v5.08l7.16 3.58a1.48 1.48 0 01.68 2.02zM12.502 21a1.517 1.517 0 01-1.16-.54 1.5 1.5 0 01.2-2.12l6.3-5.26a2.514 2.514 0 012.02-.56 2.477 2.477 0 011.72 1.2l2.1 3.5 5.86-4.88a1.506 1.506 0 111.92 2.32l-6.3 5.26a2.514 2.514 0 01-2.02.56 2.477 2.477 0 01-1.72-1.2l-2.1-3.5-5.86 4.88a1.563 1.563 0 01-.96.34z"/></g><rect width="100" height="6" rx="2" transform="translate(1028 324)" opacity=".158" fill="url(#g)"/><text transform="translate(1136 317)" fill="#74809e" font-size="18" font-family="NotoSansCJKtc-Bold, Noto Sans CJK TC" font-weight="700"><tspan x="0" y="0">班</tspan></text></g></svg>