<svg xmlns="http://www.w3.org/2000/svg" width="128" height="104"><defs><clipPath id="a"/></defs><g clip-path="url(#a)" transform="translate(10080 -2171)"><g transform="translate(-10080 2175.222)"><path d="M43.211 88.886l-1.951 1.8 1.551-2.6a20.092 20.092 0 00-3.219-4.13s-4.145 3.971-4.145 7.093 1.856 4.212 4.145 4.212 4.145-1.09 4.145-4.212a5.476 5.476 0 00-.526-2.163z" fill="#f2f2f2"/><path d="M40.758 90.779v.154a8.216 8.216 0 01-.9 4.167l-.026.043-.066-.04-.063-.04a8.126 8.126 0 00.9-4.121v-.152c0-.66-.043-1.328-.107-1.977 0-.05-.01-.1-.015-.152a30.366 30.366 0 00-.381-2.535 30.664 30.664 0 00-.516-2.265l-.011-.04.072-.021.073-.021s.014.046.035.127c.082.3.293 1.12.5 2.2l.028.149c.108.577.214 1.221.3 1.9q.032.255.057.5l.016.152q.1 1.053.104 1.972z" fill="#fff"/><path d="M40.25 86.105c-.051.007-.1.014-.155.019a4.2 4.2 0 01-.43.022 4.088 4.088 0 01-1.767-.4l-.1.122a4.239 4.239 0 001.864.43 4.349 4.349 0 00.459-.024c.052-.005.1-.012.155-.02a4.2 4.2 0 001.215-.368l-.1-.123a4.074 4.074 0 01-1.141.342zM40.633 88.655H40.426a4.109 4.109 0 01-3.373-1.762l-.091.136a4.262 4.262 0 003.464 1.779h.222a4.239 4.239 0 002.263-.797l-.074-.135a4.081 4.081 0 01-2.204.779z" fill="#fff"/><path d="M40.758 90.779c-.053 0-.107.008-.16.01s-.114 0-.171 0a4.12 4.12 0 01-3.95-2.965c-.034.062-.069.123-.1.184a4.271 4.271 0 004.052 2.933h.171c.057 0 .107 0 .161-.008a4.259 4.259 0 002.811-1.372 3.616 3.616 0 00-.053-.168 4.107 4.107 0 01-2.758 1.386z" fill="#fff"/><path d="M116.403 91.62l-2.648.153 2.848-1.03a20.093 20.093 0 00.127-5.235s-5.723.444-7.7 2.859-1.234 4.434.537 5.885 3.9 1.784 5.875-.63a5.476 5.476 0 00.961-2z" fill="#f2f2f2"/><path d="M113.305 91.529l-.1.119a8.217 8.217 0 01-3.339 2.651l-.047.017-.026-.073-.024-.071a8.126 8.126 0 003.306-2.619l.1-.117a20.26 20.26 0 001.17-1.6l.085-.128c.473-.719.892-1.434 1.239-2.068l.073-.134c.585-1.075.955-1.9 1.036-2.08l.017-.037.069.03.07.03-.054.121a31.57 31.57 0 01-1.007 2.02l-.073.133c-.282.515-.608 1.08-.972 1.656q-.137.217-.274.425l-.084.128q-.585.879-1.165 1.597z" fill="#fff"/><path d="M115.875 87.592a4.836 4.836 0 01-.132-.084 4.2 4.2 0 01-.346-.255 4.088 4.088 0 01-1.114-1.429l-.152.033a4.239 4.239 0 001.169 1.514 4.348 4.348 0 00.37.272c.043.029.088.056.132.083a4.2 4.2 0 001.173.485v-.156a4.074 4.074 0 01-1.1-.463zM114.555 89.811q-.064-.046-.125-.1l-.038-.03a4.109 4.109 0 01-1.492-3.5l-.156.047a4.262 4.262 0 001.552 3.571l.05.04.125.1a4.239 4.239 0 002.249.819l.028-.151a4.081 4.081 0 01-2.193-.796z" fill="#fff"/><path d="M113.305 91.529c-.044-.03-.087-.062-.13-.094s-.091-.069-.135-.106a4.12 4.12 0 01-1.176-4.8l-.2.078a4.271 4.271 0 001.275 4.836c.044.036.089.072.134.105s.086.065.13.1a4.259 4.259 0 003.044.72c.023-.054.044-.108.066-.164a4.107 4.107 0 01-3.012-.676z" fill="#fff"/><path d="M24.554 93.414h2.064L27 85.408l-2.448.043z" fill="#ffb6b6"/><path d="M24.027 92.74h4.066a2.591 2.591 0 012.591 2.591v.084h-6.657z" fill="#2f2e41"/><path d="M16.208 93.414h2.064l.409-8.006-2.474.043z" fill="#ffb6b6"/><path d="M15.682 92.74h4.066a2.591 2.591 0 012.591 2.591v.084h-6.657z" fill="#2f2e41"/><path d="M36.318 59.117a1.637 1.637 0 00-1.978-1.544l-3.014-4.974-1.3 2.731 3.061 4.3a1.646 1.646 0 003.227-.517zM11.131 64.32a1.637 1.637 0 00-.609-2.435l.683-5.774-2.7 1.356-.235 5.277a1.646 1.646 0 002.862 1.578z" fill="#ffb6b6"/><path d="M25.764 58.469l1.462.866s1.188.756.788 6.016-.877 26.331-.877 26.331h-2.59L20.35 66.511l-1.531 25.444-2.728-.136s-5.573-28.968-3.162-32.112z" fill="#2f2e41"/><path d="M12.047 39.856s7.109-2.286 12.845-.155l-.47 11.064 3.538 8.631s-11.248 4.363-15 .7l1.093-8.645z" fill="#ffcf44"/><path d="M22.981 41.001l1.49-1.3s.994-.012 1.849 1.517a57.016 57.016 0 012.4 6.464l4.96 8.4-2.182 1.5-7.867-11zM12.311 40.401l.1-.693a3.251 3.251 0 00-3 2.874c-.234 2.669-1.091 17.73-1.091 17.73l2.74.546L13.786 45.4z" fill="#ffcf44"/><path d="M21.911 35.857L13.6 37.494a.658.658 0 01-.772-.518l-.705-3.582a4.892 4.892 0 119.6-1.89l.705 3.582a.658.658 0 01-.518.772z" fill="#2f2e41"/><circle cx="3.587" cy="3.587" r="3.587" transform="translate(14.448 29.292)" fill="#ffb6b6"/><path d="M22.932 31.638l-5.082 1-.2-.719-.117.781-.782.154-.388-1.426-.232 1.548-1.514.3-.014-.072a3.874 3.874 0 013.049-4.545l.716-.141a3.874 3.874 0 014.545 3.049z" fill="#2f2e41"/><path d="M18.702 37.184a.671.671 0 01-.116.012l-3.85.076-1.211-6.15 4.1-.807-.078.138c-1.087 1.923.5 4.382 1.545 5.677a.647.647 0 01.082.684.655.655 0 01-.468.368z" fill="#2f2e41"/><path fill="#f2f2f2" d="M23.755.04h49.627v26.058H23.755z"/><path fill="#e6e6e6" d="M23.725 0h49.627v3.021H23.725z"/><path fill="#fff" d="M24.877 4.246h47.576v20.479H24.877z"/><circle cx=".5" cy=".5" r=".5" transform="translate(27.928 1.003)" fill="#fff"/><circle cx=".5" cy=".5" r=".5" transform="translate(29.825 1.003)" fill="#fff"/><circle cx=".5" cy=".5" r=".5" transform="translate(26.026 1.003)" fill="#fff"/><circle cx=".878" cy=".878" r=".878" transform="translate(32.105 17.968)" fill="#e4e4e4"/><circle cx=".878" cy=".878" r=".878" transform="translate(39.86 15.669)" fill="#e4e4e4"/><circle cx=".878" cy=".878" r=".878" transform="translate(47.615 17.968)" fill="#e4e4e4"/><circle cx=".878" cy=".878" r=".878" transform="translate(55.371 6.37)" fill="#e4e4e4"/><circle cx=".878" cy=".878" r=".878" transform="translate(63.126 6.262)" fill="#e4e4e4"/><path d="M48.512 19.043l-7.774-2.415-7.667 2.336-.176-.234 7.843-2.467 7.737 2.388 7.688-11.526.031-.013 7.755-.012.109.272h-7.724z" fill="#e4e4e4"/><path fill="#f2f2f2" d="M34.992 34.167h46.702v24.522H34.992z"/><path fill="#e6e6e6" d="M34.963 34.129h46.702v2.843H34.963z"/><path fill="#fff" d="M35.976 37.961h44.843v19.48H35.976z"/><circle cx=".47" cy=".47" r=".47" transform="translate(38.918 35.073)" fill="#fff"/><circle cx=".47" cy=".47" r=".47" transform="translate(40.703 35.073)" fill="#fff"/><circle cx=".47" cy=".47" r=".47" transform="translate(37.129 35.073)" fill="#fff"/><path fill="#e6e6e6" d="M57.474 10.747h55.397v29.087H57.474z"/><path fill="#ffcf44" d="M57.44 10.702h55.397v3.372H57.44z"/><path fill="#fff" d="M58.717 15.109h52.82V38.21h-52.82z"/><circle cx=".558" cy=".558" r=".558" transform="translate(62.132 11.821)" fill="#fff"/><circle cx=".558" cy=".558" r=".558" transform="translate(64.249 11.821)" fill="#fff"/><circle cx=".558" cy=".558" r=".558" transform="translate(60.009 11.821)" fill="#fff"/><path d="M85.505 20.171a.457.457 0 000 .906h18.7a.457.457 0 000-.906zM85.505 30.852a.457.457 0 000 .906h18.7a.457.457 0 000-.906zM85.505 22.888a.457.457 0 000 .906h8.048a.457.457 0 000-.906zM85.505 25.478a.457.457 0 000 .906h18.7a.457.457 0 000-.906zM85.505 28.195a.457.457 0 000 .906h8.048a.457.457 0 000-.906z" fill="#e6e6e6"/><path d="M74.604 31.262a.431.431 0 100-.862H65.86a.431.431 0 100 .862zM74.604 28.722a.431.431 0 100-.862H65.86a.431.431 0 100 .862z" fill="#e4e4e4"/><path d="M70.232 20.667a2.713 2.713 0 11-2.713 2.713 2.716 2.716 0 012.713-2.713z" fill="#ffcf44"/><circle cx="1.062" cy="1.062" r="1.062" transform="translate(47.228 42.539)" fill="#e4e4e4"/><path d="M65.346 42.775a.72.72 0 110 1.44H54.181a.72.72 0 010-1.44h11.165m0-.176H54.181a.9.9 0 000 1.793h11.165a.9.9 0 100-1.793z" fill="#e4e4e4"/><path d="M60.94 44.391h-8.4a.9.9 0 110-1.793h8.4a.9.9 0 010 1.793z" fill="#e4e4e4"/><circle cx="1.062" cy="1.062" r="1.062" transform="translate(47.228 46.948)" fill="#e4e4e4"/><path d="M65.346 47.183a.72.72 0 110 1.44H54.181a.72.72 0 010-1.44h11.165m0-.176H54.181a.9.9 0 000 1.793h11.165a.9.9 0 100-1.793z" fill="#e4e4e4"/><path d="M64.111 48.799H52.535a.9.9 0 010-1.793h11.576a.9.9 0 010 1.793z" fill="#e4e4e4"/><circle cx="1.062" cy="1.062" r="1.062" transform="translate(47.228 51.356)" fill="#e4e4e4"/><path d="M65.346 51.591a.72.72 0 110 1.44H54.181a.72.72 0 010-1.44h11.165m0-.176H54.181a.9.9 0 000 1.793h11.165a.9.9 0 100-1.793z" fill="#e4e4e4"/><path d="M65.386 53.211H52.535a.9.9 0 010-1.793h12.85a.9.9 0 010 1.793z" fill="#e4e4e4"/><path d="M98.795 63.936a1.379 1.379 0 00-.368-2.083l.917-4.815-2.351.98-.51 4.423a1.387 1.387 0 002.313 1.5zM110.519 93.485h-1.991l-.947-7.679h2.939z" fill="#ffb7b7"/><path d="M111.027 95.411h-6.416v-.081a2.5 2.5 0 012.5-2.5h3.921z" fill="#2f2e41"/><path d="M99.639 93.485h-1.991l-.948-7.68h2.939z" fill="#ffb7b7"/><path d="M99.659 95.411h-6.42v-.081a2.5 2.5 0 012.5-2.5h3.921zM99.476 61.051l-1.949 4.49-1.608 25.8 4.06-.162 1.109-12.3 3.421-10.956 1.967 12.215.812 10.718 3.359.145 1.339-29.953z" fill="#2f2e41"/><path d="M109.217 38.897l-5.648.141-3.316 1.7-.182 12.559-2.068 8.671s12.922.889 14.708-.41l-2.111-9.906 2.832-10.706z" fill="#3f3d56"/><path d="M100.856 40.937l-.6-.2a4.607 4.607 0 00-1.732 4.2s-.072 1.537 0 2.559c.079 1.173-2.274 12.829-2.274 12.829h3.41l1.451-10.554z" fill="#3f3d56"/><path d="M113.343 64.098a1.379 1.379 0 01.368-2.087l-.917-4.815 2.351.98.51 4.423a1.387 1.387 0 01-2.313 1.5z" fill="#ffb7b7"/><path d="M112.581 41.1l.6-.2a4.607 4.607 0 011.732 4.2s.072 1.537 0 2.559c-.079 1.173.974 12.829.974 12.829h-3.41l-1.462-10.556z" fill="#3f3d56"/><path d="M110.603 33.628a3.915 3.915 0 11-3.915-3.915 3.906 3.906 0 013.915 3.9v.015z" fill="#ffb7b7"/><path d="M102.785 28.369c.459-.986 1.346-.791 2.123-.457.983-.218 1.918-.871 2.977-.485 1.043 1.517 4.546 1.071 3.8 3.541 0 .592 1.114.247.919 1.217.591 1.866-2.132 5.4-3.695 4.655.387-.708 1.269-2.317-.07-2.477-2.881 2.68-.3-5.1-3.917-2.84-1.196 1.097-2.837-2.057-2.137-3.154z" fill="#2f2e41"/><path d="M127.852 95.555H.148a.15.15 0 110-.3h127.7a.15.15 0 010 .3z" fill="#cacaca"/></g></g></svg>