<svg xmlns="http://www.w3.org/2000/svg" width="128" height="104"><defs><clipPath id="a"/></defs><g clip-path="url(#a)" transform="translate(10080 -2171)"><g transform="translate(-10080 2180.205)"><path fill="#e6e6e6" d="M.04.053h94.207v60.335H.04z"/><path fill="#fff" d="M2.734 7.621h88.82v23H2.734z"/><path fill="#e6e6e6" d="M24.827 10.943H43.61v1.078H24.827z"/><path fill="#ffcf44" d="M24.827 14.876h29.006v1.078H24.827z"/><path fill="#e6e6e6" d="M24.827 18.582h23.639v1.078H24.827zM24.827 22.273h13.8v1.078h-13.8zM24.827 25.965h20.828v1.078H24.827zM16.266 10.56h2.3v2.3h-2.3z"/><path fill="#ffcf44" d="M16.266 14.265h2.3v2.3h-2.3z"/><path fill="#e6e6e6" d="M16.266 17.971h2.3v2.3h-2.3zM16.266 21.676h2.3v2.3h-2.3zM16.266 25.382h2.3v2.3h-2.3zM71.466 15.799h7.667v7.667h-7.667z"/><path fill="#fff" d="M2.734 33.815h88.82v23H2.734z"/><path fill="#e6e6e6" d="M20.227 35.859h2.3v2.3h-2.3z"/><path fill="#ffcf44" d="M16.266 35.859h2.3v2.3h-2.3z"/><path d="M55.261 40.889a8.709 8.709 0 00-14.06-1.3l-.561-.49a9.452 9.452 0 0115.261 1.409z" fill="#e6e6e6"/><path d="M55.613 50.585l-.618-.415a8.714 8.714 0 00.267-9.281l.641-.379a9.458 9.458 0 01-.29 10.076zM40.72 51.622a9.452 9.452 0 01-.078-12.522l.561.49a8.708 8.708 0 00.071 11.536z" fill="#ffcf44"/><path d="M47.761 54.771a9.468 9.468 0 01-7.043-3.148l.554-.5a8.709 8.709 0 0013.721-.956l.618.415a9.447 9.447 0 01-7.85 4.189z" fill="#ffcf44"/><path fill="#e6e6e6" d="M71.466 40.843h7.667v7.667h-7.667zM15.947 45.826h7.667v7.667h-7.667z"/><path fill="#ffcf44" d="M0 0h94.207v4.002H0z"/><circle cx=".742" cy=".742" r=".742" transform="translate(2.232 1.304)" fill="#fff"/><circle cx=".742" cy=".742" r=".742" transform="translate(5.048 1.304)" fill="#fff"/><circle cx=".742" cy=".742" r=".742" transform="translate(7.864 1.304)" fill="#fff"/><path d="M109.417 83.513h1.907l.907-7.356h-2.815z" fill="#ffb8b8"/><path d="M108.93 82.89h3.756a2.394 2.394 0 012.394 2.393v.078h-6.15z" fill="#2f2e41"/><path d="M104.667 76.29l1.407 1.287 5.634-4.816-2.077-1.9z" fill="#ffb8b8"/><path d="M104.728 75.502l2.772 2.535a2.394 2.394 0 01.151 3.382l-.052.057-4.538-4.15zM112.415 57.679l-.541 10.811 1.351 11.757-4.054.541-2.571-14.865-.811-10.135z" fill="#2f2e41"/><path d="M118.761 53.76s1.622 10.676-1.757 14.189a125.209 125.209 0 00-7.973 9.73l-3.243-4.054 8.243-8.784-1.622-5.946-6.622-3.108 1.081-7.432 9.73-.135z" fill="#2f2e41"/><circle cx="3.31" cy="3.31" r="3.31" transform="translate(108.015 22.411)" fill="#ffb8b8"/><path d="M114.07 30.425l.507.768 1.351 3.784-1.081 14.73-6.351.135-.811-16.892 1.7-2.123z" fill="#ccc"/><path d="M105.117 33.355l-1.081-.135s-.27.135-.405 1.081-1.757 9.324-1.757 9.324l2.162 10.27 2.432-3.243-1.486-5.676 1.486-5.676zM118.9 33.22h.811l2.027 10.946-1.892 8.514-1.892-3.108.541-3.378-.27-2.973-.946-1.757zM113.28 25.721l-.6-.15s-.451-2.557-1.5-2.257-3.761.6-3.761-.6 2.557-2.257 4.062-2.106 3.426.65 3.911 2.858c.779 3.541-1.606 4.435-1.606 4.435l.04-.129a2.008 2.008 0 00-.539-2.05z" fill="#2f2e41"/><path d="M104.171 33.22l4.324-1.757 1.014-.743 3.041 13.446 2.027-6.081-.608-7.77 5.608 2.905-1.892 9.189-.27 3.514.811 2.838s2.838 2.027 1.892 4.189-2.027 2.3-2.027 2.3-4.595-4.324-4.865-5.405-.676-2.973-.676-2.973-2.3 8.649-5 8.514-2.7-2.973-2.7-2.973l.676-2.973 1.081-3.108-.541-5.135z" fill="#2f2e41"/><path d="M127.861 85.59h-35.88a.134.134 0 010-.268h35.88a.134.134 0 010 .268z" fill="#ccc"/></g></g></svg>