<svg xmlns="http://www.w3.org/2000/svg" width="128" height="104"><defs><clipPath id="a"/></defs><g clip-path="url(#a)" transform="translate(10080 -2171)"><g transform="translate(-10080 2179.134)"><path d="M46.017 78.2l-.346 4.5 3.349.346-.808-5.427z" fill="#ffb9b9"/><path fill="#f2f2f2" d="M29.39 4.671h9.031v16.504H29.39zM56.17 59.062h12.145v16.504H56.17zM44.233 33.631h12.041v18.165H44.233zM56.274 9.965h12.041V28.13H56.274z"/><path fill="#2f2e41" d="M5.083 87.473h111.255v.259H5.083z"/><path d="M83.17 75.682h-53.9V4.555h53.9zm-53.665-.231h53.434V4.786H29.505z" fill="#3f3d56"/><path d="M71.856 75.682H40.693V4.659h31.163zm-30.937-.231h30.7V4.89h-30.7z" fill="#3f3d56"/><path d="M83.17 51.912h-53.9v-23.9h53.9zm-53.665-.231h53.434V28.245H29.505z" fill="#3f3d56"/><circle cx="3.425" cy="3.425" r="3.425" transform="translate(37.382 24.704)" fill="#ffcf44"/><circle cx="3.425" cy="3.425" r="3.425" transform="translate(68.315 1.661)" fill="#ffcf44"/><path fill="#3f3d56" d="M56.107 4.775h.231v70.792h-.231z"/><path d="M95.255 77.472a25.917 25.917 0 011.135 10.206 24.623 24.623 0 01-6.334-19.062 25.917 25.917 0 015.199 8.856z" fill="#ffcf44"/><path d="M97.524 77.472a25.917 25.917 0 00-1.135 10.206 24.623 24.623 0 006.33-19.062 25.917 25.917 0 00-5.195 8.856z" fill="#ffcf44"/><path d="M98.229 77.529A25.917 25.917 0 0196.3 87.615a24.623 24.623 0 01-.425-20.082 25.917 25.917 0 012.354 9.996z" fill="#3f3d56"/><path d="M34.351 37.188c2.854.88 4.377 4.16 3.4 7.328l-1.24 4.025-1.238-.381-.254-1.713-.28 1.546-7.956-2.452-.234-1.556-.255 1.406-.9-.276.974-3.16c1.125-3.645 4.698-5.779 7.983-4.767z" fill="#2f2e41"/><path d="M29.919 49.267a1.874 1.874 0 00-2.177 1.724 2.154 2.154 0 001.273 2.12c2.31 1.292 7.32 4.109 7.32 4.109l9.559 1.836s4.83 3.854 5.436 1.662-4.583-3.531-4.583-3.531l-8.784-2.252-5.6-4.047a4.554 4.554 0 00-2.444-1.621zM26.862 58.249l.961 2.708 5.765-1.4L32.1 57.55zM11.446 83.71l-4.367-.437 3.057-2.97 2.184 1.485z" fill="#ffb9b9"/><circle cx="3.587" cy="3.587" r="3.587" transform="translate(29.754 39.076)" fill="#ffb9b9"/><path d="M30.531 43.225s-2.009 2.358-3.057 2.708-3.669 3.672-2.355 5.852 6.114-.524 6.114-.524l-.175-2.184a29.893 29.893 0 012.446-3.756c.433-.261-2.973-2.096-2.973-2.096z" fill="#ffb9b9"/><path d="M30.181 47.443a2.924 2.924 0 00-5.2.637q-.021.061-.039.124c-.7 2.358.349 6.376.349 6.376l1.572 4.717s4.105-1.922 7.075 1.31l-.437-3.319s1.223-2.8-.349-4.8c-1.002-1.283-1.933-3.483-2.971-5.045z" fill="#575a89"/><path d="M33.981 60.825s-2.1-2.8-6.376-1.135l-.786 2.183a7.592 7.592 0 00-2.009 9.084l-.175 8.21-.7 2.358-12.664-1.047-.437 4.018 2.271.175s12.84 5.066 14.849 1.922 6.2-15.547 6.2-15.547l10.875 1.628s-.318 3.4.031 3.84.175 2.271.349 2.62a3.061 3.061 0 01.029 1.258l3.608-.119v-1.748s.437-2.358.437-2.97 2.622-8.65-1.919-9.35-12.36-1.978-12.36-1.978z" fill="#2f2e41"/><path d="M9.524 83.098l-.175 1.31s-5.765-1.135-6.988-.087-1.222 1.747-2.182 1.048c-.408-.3-.059-1.02.477-1.753a8.825 8.825 0 013.252-2.7c1.442-.706 3.433-1.731 3.433-2.01 0-.437 1.572-1.747 2.184-1.048a26.007 26.007 0 011.747 2.62zM45.478 80.622s-1.28 4.539-.815 4.772a5.475 5.475 0 002.793.931 9.083 9.083 0 012.927.813 7.055 7.055 0 003.215.553c.733-.05 1.356-.222 1.307-.668-.116-1.048-2.328-1.28-2.328-1.28l-2.328-3.026s-.407-1.92-.757-1.92a.765.765 0 01-.524-.175z" fill="#2f2e41"/><path d="M29.9 47.173a2.165 2.165 0 00-3-1.138 2.489 2.489 0 00-1.348 2.518c.087 3.057.262 9.7.262 9.7l3.843 10.569s-.961 7.075 1.572 6.376.786-6.638.786-6.638l-2.97-10.045.7-7.948a5.261 5.261 0 00.155-3.394z" fill="#ffb9b9"/><path d="M32.395 38.315a2.836 2.836 0 012.475-.432l.1.031a3.94 3.94 0 012.324 5.046l-.656-.2.142-.838-.4.758-3.888-1.2-.116-.782-.129.707-.765-.236a6.7 6.7 0 00-.1 5.792l-1.3-.4-.231-1.564-.262 1.408-2.484-.765.478-3.286a5.546 5.546 0 014.812-4.039z" fill="#2f2e41"/><circle cx="10.484" cy="10.484" r="10.484" transform="translate(45.79 41.312)" fill="#ffcf44"/><path d="M118.182 27.405l-.085-.215-20 7.885-19.12-21.87 23.742-9.361-.085-.215-23.815 9.391-5.91-6.756.974-.379a6.973 6.973 0 01-2.126-.763 6.979 6.979 0 01.472 2.209l.506-.914 5.852 6.688-36.316 14.324-.03-1.045a6.973 6.973 0 01-1.434 1.746 6.979 6.979 0 012.239.3l-.691-.784 36.393-14.352 19.123 21.872-40.134 15.825-.03-1.044a6.974 6.974 0 01-1.434 1.746 6.979 6.979 0 012.239.3l-.693-.788L98.03 35.35l17.408 19.911.174-.152-17.351-19.848z" fill="#3f3d56"/><path fill="#3f3d56" d="M108.278 23.563H128v7.577h-19.722z"/><path fill="#f2f2f2" d="M111.755 25.587h12.767v.623h-12.767zM111.755 27.04h12.767v.623h-12.767zM111.755 28.493h12.767v.623h-12.767z"/><path fill="#3f3d56" d="M92.812 0h19.722v7.577H92.812z"/><path fill="#f2f2f2" d="M96.289 2.024h12.767v.623H96.289zM96.289 3.477h12.767V4.1H96.289zM96.289 4.931h12.767v.623H96.289z"/><path fill="#3f3d56" d="M105.683 51.381h19.722v7.577h-19.722z"/><path fill="#f2f2f2" d="M109.16 53.405h12.767v.623H109.16zM109.16 54.858h12.767v.623H109.16zM109.16 56.312h12.767v.623H109.16z"/></g></g></svg>