<svg xmlns="http://www.w3.org/2000/svg" width="128" height="104"><defs><clipPath id="a"/></defs><g clip-path="url(#a)" transform="translate(10080 -2171)"><g transform="translate(-10080 2188.418)"><path d="M18.472 59.986h90.374v-5.448c0-1.138-1.371-2.258-3.762-3.073l-.025-.008c-1.614-.57-11.933-4.622-17.514-4.5a19.234 19.234 0 00-7.5 1.485c-6.318 2.868-14.618 3.928-19 3.1a144.39 144.39 0 00-18.393-1.892c-5.49.076-5.506.993-11.141 3.953-2.152 1.13-2.957 1.271-13.035 2.172z" fill="#f2f2f2" style="isolation:isolate"/><path d="M3.902 51.979c-.2-2.923 1.044-5.875 3.615-6.96a14.155 14.155 0 001.772 9.259c.643 1.13 1.469 2.336 1.293 3.517a2.487 2.487 0 01-1.22 1.7 7.819 7.819 0 01-2.041.782l-.123.129a18.437 18.437 0 01-3.296-8.427z" fill="#f2f2f2"/><path d="M7.555 45.072a10.274 10.274 0 00-1.605 6.636 5.3 5.3 0 00.353 1.551 3.451 3.451 0 00.956 1.285 7.281 7.281 0 011.118 1.048 1.869 1.869 0 01.357 1.419 3.819 3.819 0 01-.711 1.548 3.753 3.753 0 00-.789 1.72c-.008.081-.137.047-.129-.034.111-1.163 1.091-1.869 1.421-2.928a1.8 1.8 0 00-.178-1.555 5.644 5.644 0 00-1.117-1.083 3.7 3.7 0 01-.978-1.228 4.968 4.968 0 01-.411-1.54 10.664 10.664 0 01.161-3.44 9.969 9.969 0 011.449-3.487c.043-.065.146.028.1.092z" fill="#fff"/><path d="M5.835 50.921a2.073 2.073 0 01-1.654-1.745c-.009-.083.12-.083.129 0a1.919 1.919 0 001.542 1.621.063.063 0 01-.017.125zM7.045 54.392a2.787 2.787 0 001.111-1.995c.008-.081.137-.047.129.034a2.9 2.9 0 01-1.16 2.077c-.063.043-.142-.07-.08-.116zM6.41 47.318a.942.942 0 00.913-.094c.062-.047.141.066.08.112a1.055 1.055 0 01-1.009.106.078.078 0 01-.056-.079.056.056 0 01.073-.045z" fill="#fff"/><path d="M16.902 49.78l-.113.093a10.468 10.468 0 00-1.391 1.37l-.1.116a11.349 11.349 0 00-2.159 4.189 11.928 11.928 0 00-.36 1.907 7.756 7.756 0 01-.512 2.641 1.868 1.868 0 01-.134.227l-4.741.241-.035-.014-.188.018v-.1-.06-.039-.012-.034c.01-.2.022-.395.035-.592a17.575 17.575 0 01.8-4.37c.014-.041.028-.084.044-.125a10.617 10.617 0 01.8-1.773 9.132 9.132 0 01.574-.886 7.536 7.536 0 011.97-1.852 6.87 6.87 0 015.352-.976z" fill="#f2f2f2"/><path d="M16.902 49.842a9.583 9.583 0 00-5.495 3.766 4.162 4.162 0 00-.641 1.32 2.809 2.809 0 00.055 1.492 6.321 6.321 0 01.343 1.421 1.484 1.484 0 01-.556 1.227 3.915 3.915 0 01-1.578.677 3.846 3.846 0 00-1.754.753c-.057.053-.15-.049-.093-.1.812-.763 2.112-.678 3.054-1.235a1.469 1.469 0 00.8-1.217 4.867 4.867 0 00-.321-1.445 3.044 3.044 0 01-.109-1.465 3.886 3.886 0 01.583-1.347 9.088 9.088 0 012.255-2.358 10.036 10.036 0 013.422-1.617c.078-.02.112.108.034.128z" fill="#fff"/><path d="M11.786 52.981a1.792 1.792 0 01-.389-2.241c.043-.065.157.013.114.078a1.66 1.66 0 00.366 2.084c.065.061-.026.14-.091.079zM10.723 56.187a2.96 2.96 0 002.207-.755c.057-.053.15.05.093.1a3.08 3.08 0 01-2.3.781c-.084-.005-.085-.133 0-.128zM14.508 50.756a1.163 1.163 0 00.864.482c.084 0 .085.132 0 .128a1.3 1.3 0 01-.956-.531.065.065 0 010-.091.068.068 0 01.092.012z" fill="#fff"/><path d="M122.594 51.979c.2-2.923-1.044-5.875-3.615-6.96a14.155 14.155 0 01-1.772 9.259c-.643 1.13-1.469 2.336-1.293 3.517a2.487 2.487 0 001.22 1.7 7.819 7.819 0 002.041.782l.123.129a18.437 18.437 0 003.296-8.427z" fill="#f2f2f2"/><path d="M118.941 45.072a10.274 10.274 0 011.606 6.632 5.3 5.3 0 01-.353 1.551 3.451 3.451 0 01-.956 1.285 7.28 7.28 0 00-1.118 1.048 1.869 1.869 0 00-.357 1.419 3.819 3.819 0 00.711 1.548 3.753 3.753 0 01.789 1.72c.008.081.137.047.129-.034-.111-1.163-1.091-1.869-1.421-2.928a1.8 1.8 0 01.178-1.555 5.645 5.645 0 011.117-1.083 3.7 3.7 0 00.978-1.228 4.969 4.969 0 00.411-1.54 10.663 10.663 0 00-.161-3.44 9.969 9.969 0 00-1.449-3.487c-.043-.065-.146.028-.1.092z" fill="#fff"/><path d="M120.661 50.921a2.073 2.073 0 001.654-1.745c.009-.083-.12-.083-.129 0a1.919 1.919 0 01-1.542 1.621.063.063 0 00.017.125zM119.451 54.392a2.787 2.787 0 01-1.111-1.995c-.008-.081-.137-.047-.129.034a2.9 2.9 0 001.161 2.073c.063.046.142-.067.08-.112zM120.086 47.318a.942.942 0 01-.913-.094c-.062-.047-.141.066-.08.112a1.055 1.055 0 001.009.106.078.078 0 00.056-.079.056.056 0 00-.073-.045z" fill="#fff"/><path d="M109.602 49.78l.113.093a10.469 10.469 0 011.387 1.37l.1.116a11.349 11.349 0 012.159 4.189 11.926 11.926 0 01.36 1.907 7.756 7.756 0 00.511 2.641 1.868 1.868 0 00.134.227l4.741.241.035-.014.188.018v-.1-.06-.039-.012-.034c-.01-.2-.022-.395-.035-.592a17.576 17.576 0 00-.8-4.37c-.014-.041-.028-.084-.044-.125a10.617 10.617 0 00-.8-1.773 9.128 9.128 0 00-.574-.886 7.536 7.536 0 00-1.975-1.857 6.87 6.87 0 00-5.352-.976z" fill="#f2f2f2"/><path d="M109.597 49.842a9.583 9.583 0 015.492 3.767 4.162 4.162 0 01.641 1.32 2.809 2.809 0 01-.055 1.492 6.321 6.321 0 00-.343 1.421 1.484 1.484 0 00.556 1.227 3.915 3.915 0 001.578.677 3.846 3.846 0 011.754.753c.057.053.15-.049.093-.1-.812-.763-2.112-.678-3.054-1.235a1.469 1.469 0 01-.8-1.217 4.867 4.867 0 01.321-1.445 3.044 3.044 0 00.109-1.465 3.886 3.886 0 00-.583-1.347 9.088 9.088 0 00-2.255-2.358 10.035 10.035 0 00-3.422-1.617c-.078-.02-.112.108-.034.128z" fill="#fff"/><path d="M114.71 52.981a1.792 1.792 0 00.392-2.241c-.043-.065-.157.013-.114.078a1.66 1.66 0 01-.366 2.084c-.068.061.023.14.088.079zM115.774 56.187a2.959 2.959 0 01-2.207-.755c-.057-.053-.15.05-.093.1a3.08 3.08 0 002.3.781c.082-.005.083-.131 0-.126zM111.988 50.756a1.163 1.163 0 01-.864.482c-.084 0-.085.132 0 .128a1.3 1.3 0 00.956-.531.065.065 0 000-.091.068.068 0 00-.092.012z" fill="#fff"/><path fill="#e6e6e6" d="M7.236 37.509h.869v.29h-.869zM117.472 37.798h-1.764v-.29h1.764zm-3.528 0h-1.764v-.29h1.764zm-3.528 0h-1.764v-.29h1.764zm-3.528 0h-1.764v-.29h1.764zm-3.528 0h-1.764v-.29h1.764zm-3.528 0h-1.764v-.29h1.764zm-3.528 0H94.54v-.29h1.762zm-3.528 0h-1.764v-.29h1.764zm-3.528 0h-1.764v-.29h1.764zm-3.528 0h-1.764v-.29h1.764zm-3.528 0h-1.764v-.29h1.764zm-3.528 0h-1.762v-.29h1.764zm-3.528 0h-1.763v-.29h1.764zm-3.528 0h-1.763v-.29h1.764zm-3.528 0h-1.763v-.29h1.764zm-3.528 0h-1.763v-.29h1.764zm-3.528 0h-1.763v-.29h1.764zm-3.528 0h-1.763v-.29h1.764zm-3.528 0h-1.766v-.29h1.764zm-3.528 0h-1.763v-.29h1.764zm-3.528 0h-1.763v-.29h1.764zm-3.528 0h-1.763v-.29h1.764zm-3.528 0h-1.763v-.29h1.764zm-3.528 0h-1.763v-.29h1.764zm-3.528 0h-1.763v-.29h1.765zm-3.528 0h-1.763v-.29h1.764zm-3.528 0h-1.763v-.29h1.764zm-3.528 0h-1.763v-.29h1.764zm-3.528 0h-1.763v-.29h1.764zm-3.528 0h-1.758v-.29h1.764zm-3.528 0H9.869v-.29h1.764zM119.236 37.509h.869v.29h-.869zM7.236 35.481h.869v.29h-.869zM117.472 35.771h-1.764v-.29h1.764zm-3.528 0h-1.764v-.29h1.764zm-3.528 0h-1.764v-.29h1.764zm-3.528 0h-1.764v-.29h1.764zm-3.528 0h-1.764v-.29h1.764zm-3.528 0h-1.764v-.29h1.764zm-3.528 0H94.54v-.29h1.762zm-3.528 0h-1.764v-.29h1.764zm-3.528 0h-1.764v-.29h1.764zm-3.528 0h-1.764v-.29h1.764zm-3.528 0h-1.764v-.29h1.764zm-3.528 0h-1.762v-.29h1.764zm-3.528 0h-1.763v-.29h1.764zm-3.528 0h-1.763v-.29h1.764zm-3.528 0h-1.763v-.29h1.764zm-3.528 0h-1.763v-.29h1.764zm-3.528 0h-1.763v-.29h1.764zm-3.528 0h-1.763v-.29h1.764zm-3.528 0h-1.766v-.29h1.764zm-3.528 0h-1.763v-.29h1.764zm-3.528 0h-1.763v-.29h1.764zm-3.528 0h-1.763v-.29h1.764zm-3.528 0h-1.763v-.29h1.764zm-3.528 0h-1.763v-.29h1.764zm-3.528 0h-1.763v-.29h1.765zm-3.528 0h-1.763v-.29h1.764zm-3.528 0h-1.763v-.29h1.764zm-3.528 0h-1.763v-.29h1.764zm-3.528 0h-1.763v-.29h1.764zm-3.528 0h-1.758v-.29h1.764zm-3.528 0H9.869v-.29h1.764zM119.236 35.481h.869v.29h-.869zM7.236 31.281h.869v.29h-.869zM117.472 31.571h-1.764v-.29h1.764zm-3.528 0h-1.764v-.29h1.764zm-3.528 0h-1.764v-.29h1.764zm-3.528 0h-1.764v-.29h1.764zm-3.528 0h-1.764v-.29h1.764zm-3.528 0h-1.764v-.29h1.764zm-3.528 0H94.54v-.29h1.762zm-3.528 0h-1.764v-.29h1.764zm-3.528 0h-1.764v-.29h1.764zm-3.528 0h-1.764v-.29h1.764zm-3.528 0h-1.764v-.29h1.764zm-3.528 0h-1.762v-.29h1.764zm-3.528 0h-1.763v-.29h1.764zm-3.528 0h-1.763v-.29h1.764zm-3.528 0h-1.763v-.29h1.764zm-3.528 0h-1.763v-.29h1.764zm-3.528 0h-1.763v-.29h1.764zm-3.528 0h-1.763v-.29h1.764zm-3.528 0h-1.766v-.29h1.764zm-3.528 0h-1.763v-.29h1.764zm-3.528 0h-1.763v-.29h1.764zm-3.528 0h-1.763v-.29h1.764zm-3.528 0h-1.763v-.29h1.764zm-3.528 0h-1.763v-.29h1.764zm-3.528 0h-1.763v-.29h1.765zm-3.528 0h-1.763v-.29h1.764zm-3.528 0h-1.763v-.29h1.764zm-3.528 0h-1.763v-.29h1.764zm-3.528 0h-1.763v-.29h1.764zm-3.528 0h-1.758v-.29h1.764zm-3.528 0H9.869v-.29h1.764zM119.236 31.281h.869v.29h-.869zM7.236 28.384h.869v.29h-.869zM117.472 28.674h-1.764v-.29h1.764zm-3.528 0h-1.764v-.29h1.764zm-3.528 0h-1.764v-.29h1.764zm-3.528 0h-1.764v-.29h1.764zm-3.528 0h-1.764v-.29h1.764zm-3.528 0h-1.764v-.29h1.764zm-3.528 0H94.54v-.29h1.762zm-3.528 0h-1.764v-.29h1.764zm-3.528 0h-1.764v-.29h1.764zm-3.528 0h-1.764v-.29h1.764zm-3.528 0h-1.764v-.29h1.764zm-3.528 0h-1.762v-.29h1.764zm-3.528 0h-1.763v-.29h1.764zm-3.528 0h-1.763v-.29h1.764zm-3.528 0h-1.763v-.29h1.764zm-3.528 0h-1.763v-.29h1.764zm-3.528 0h-1.763v-.29h1.764zm-3.528 0h-1.763v-.29h1.764zm-3.528 0h-1.766v-.29h1.764zm-3.528 0h-1.763v-.29h1.764zm-3.528 0h-1.763v-.29h1.764zm-3.528 0h-1.763v-.29h1.764zm-3.528 0h-1.763v-.29h1.764zm-3.528 0h-1.763v-.29h1.764zm-3.528 0h-1.763v-.29h1.765zm-3.528 0h-1.763v-.29h1.764zm-3.528 0h-1.763v-.29h1.764zm-3.528 0h-1.763v-.29h1.764zm-3.528 0h-1.763v-.29h1.764zm-3.528 0h-1.758v-.29h1.764zm-3.528 0H9.869v-.29h1.764zM119.236 28.384h.869v.29h-.869zM7.236 22.157h.869v.29h-.869zM117.472 22.446h-1.764v-.29h1.764zm-3.528 0h-1.764v-.29h1.764zm-3.528 0h-1.764v-.29h1.764zm-3.528 0h-1.764v-.29h1.764zm-3.528 0h-1.764v-.29h1.764zm-3.528 0h-1.764v-.29h1.764zm-3.528 0H94.54v-.29h1.762zm-3.528 0h-1.764v-.29h1.764zm-3.528 0h-1.764v-.29h1.764zm-3.528 0h-1.764v-.29h1.764zm-3.528 0h-1.764v-.29h1.764zm-3.528 0h-1.762v-.29h1.764zm-3.528 0h-1.763v-.29h1.764zm-3.528 0h-1.763v-.29h1.764zm-3.528 0h-1.763v-.29h1.764zm-3.528 0h-1.763v-.29h1.764zm-3.528 0h-1.763v-.29h1.764zm-3.528 0h-1.763v-.29h1.764zm-3.528 0h-1.766v-.29h1.764zm-3.528 0h-1.763v-.29h1.764zm-3.528 0h-1.763v-.29h1.764zm-3.528 0h-1.763v-.29h1.764zm-3.528 0h-1.763v-.29h1.764zm-3.528 0h-1.763v-.29h1.764zm-3.528 0h-1.763v-.29h1.765zm-3.528 0h-1.763v-.29h1.764zm-3.528 0h-1.763v-.29h1.764zm-3.528 0h-1.763v-.29h1.764zm-3.528 0h-1.763v-.29h1.764zm-3.528 0h-1.758v-.29h1.764zm-3.528 0H9.869v-.29h1.764zM119.236 22.157h.869v.29h-.869z"/><path d="M49.313 13.787a7.849 7.849 0 11-2.3-5.585 7.884 7.884 0 012.3 5.585z" fill="#f2f2f2"/><path d="M44.654 11.901l-.039.07a2.5 2.5 0 00-.588-2.555 3.9 3.9 0 00-2.325-1.057 3.782 3.782 0 00-1.881.146 4.867 4.867 0 00-2.082 1.911 2.084 2.084 0 00-.476 1.247 2.7 2.7 0 00.484 1.15 1.478 1.478 0 01.232 1.206 2.369 2.369 0 01-.428.6.8.8 0 00-.2.694.567.567 0 00.422.367 1.492 1.492 0 00.561-.013l4.833-.73a2.06 2.06 0 001.5-3.033z" fill="#2f2e41"/><circle cx="2.363" cy="2.363" r="2.363" transform="translate(38.696 10.174)" fill="#ffb9b9"/><path d="M47.349 18.993a7.881 7.881 0 01-11.03.8l.676-1.887a2.029 2.029 0 011.724-1.184l.43-.026 1.026-.885s2.764-.1 2.723-.146l1.674 1.007v-.007l.658.04a2.028 2.028 0 011.724 1.184z" fill="#ffcf44"/><path d="M43.302 10.344c-.061-.323-.39-.47-.672-.542a6.474 6.474 0 00-2.5-.138 2.738 2.738 0 00-1.675.754 2.253 2.253 0 00-.57 1.451 1.728 1.728 0 00.207.922.854.854 0 00.71.458l.028.1a4.3 4.3 0 002.982-2 2.559 2.559 0 01-.748 1.208 4.659 4.659 0 002.011-1.55.878.878 0 00.227-.663z" fill="#2f2e41"/><circle cx="7.884" cy="7.884" r="7.884" transform="translate(100.729 8.403)" fill="#f2f2f2"/><circle cx="1.113" cy="1.113" r="1.113" transform="translate(105.335 11.102)" fill="#2f2e41"/><circle cx="2.82" cy="2.82" r="2.82" transform="translate(105.409 11.918)" fill="#2f2e41"/><circle cx="2.291" cy="2.291" r="2.291" transform="translate(106.171 12.974)" fill="#9e616a"/><path d="M110.018 12.93a2.625 2.625 0 00-3.99 2.291 6.091 6.091 0 003.639.07l.294-.72.173.72a1.061 1.061 0 001.14 0 2.68 2.68 0 00-1.256-2.36z" fill="#2f2e41"/><path d="M105.412 9.193a2.277 2.277 0 00-2.376.366 2.575 2.575 0 00-.822 2.292 5.912 5.912 0 001.125 2.309 4.445 4.445 0 01.946 2.37 2.35 2.35 0 01-2.345 2.348 5.29 5.29 0 002.286.6 1.81 1.81 0 001.756-1.332 3 3 0 00-.415-1.64 11.6 11.6 0 01-.811-2.669 2.683 2.683 0 01.015-1.322 1.552 1.552 0 011.542-1.019l.262-.236a2.043 2.043 0 00-1.163-2.067z" fill="#2f2e41"/><path d="M114.545 21.561a7.881 7.881 0 01-11.03.8l.676-1.887a2.029 2.029 0 011.724-1.184l.43-.026 1.026-.885s2.764-.1 2.723-.146l1.674 1.007v-.007l.658.04a2.028 2.028 0 011.724 1.184z" fill="#ffcf44"/><path d="M94.066 7.898a7.863 7.863 0 11-2.293-5.585 7.884 7.884 0 012.293 5.585z" fill="#f2f2f2"/><path d="M82.528 5.319a3.541 3.541 0 012.093-2.343 3.64 3.64 0 013.3.952c1.41 1.405 1.754 6.232.785 7.758-.193-.01-.858-.018-1.053-.025l-.276-.919v.91q-.466-.014-.939-.02a4.088 4.088 0 01-4.036-3.987 9.371 9.371 0 01.126-2.326z" fill="#2f2e41"/><circle cx="2.247" cy="2.247" r="2.247" transform="translate(83.818 4.269)" fill="#9e616a"/><path d="M84.126 4.542l2.587-1.3a3.252 3.252 0 011.9 2.694l.064.772-1.075-.27-.119-.988-.184.911-.5-.127V4.701l-.5 1.532-1.786-.41z" fill="#2f2e41"/><path d="M92.033 13.101a7.881 7.881 0 01-11.03.8l.676-1.887a2.029 2.029 0 011.723-1.186l.43-.026 1.026-.885s2.764-.1 2.723-.146l1.674 1.007v-.007l.658.04a2.028 2.028 0 011.724 1.184z" fill="#ffcf44"/><circle cx="7.884" cy="7.884" r="7.884" transform="translate(56.625 12.747)" fill="#f2f2f2"/><circle cx="2.517" cy="2.517" r="2.517" transform="translate(61.775 16.575)" fill="#ffb6b6"/><path d="M70.424 25.908a7.881 7.881 0 01-11.03.8l.676-1.887a2.029 2.029 0 011.724-1.184l.43-.026 1.026-.885s2.764-.1 2.723-.146l1.674 1.007v-.007l.658.04a2.028 2.028 0 011.724 1.184z" fill="#ffcf44"/><path d="M66.946 17.53a3.245 3.245 0 00-1.359-1.849 2.21 2.21 0 00-1.786-.332 1.455 1.455 0 00-1.055 1.4.614.614 0 00-.62.191 1.421 1.421 0 00-.3.616 3.914 3.914 0 00.037 2.168l-.012.1a.981.981 0 00.651-.566c.138-.267.217-.563.366-.824a.893.893 0 01.693-.5l-.026.452.763-.393-.182.434.667-.279-.075.418a.992.992 0 011.365-.441 1.318 1.318 0 01.539.758 3.994 3.994 0 01.129.946 3.308 3.308 0 00.208-2.3z" fill="#2f2e41"/><circle cx="7.884" cy="7.884" r="7.884" transform="translate(10.983 16.331)" fill="#f2f2f2"/><circle cx="2.392" cy="2.392" r="2.392" transform="translate(16.302 20.249)" fill="#9e616a"/><path d="M24.68 29.42a7.881 7.881 0 01-11.03.8l.676-1.887a2.029 2.029 0 011.724-1.184l.43-.026 1.026-.885s2.764-.1 2.723-.146l1.673 1.005v-.007l.658.04a2.028 2.028 0 011.724 1.184z" fill="#ffcf44"/><path d="M16.521 23.747l-.014-.039-.028.024z" fill="#2f2e41"/><path d="M21.559 21.79a1.72 1.72 0 00-.642-1.255 1.509 1.509 0 01-.393-.355 2.43 2.43 0 01-.133-.333 1.116 1.116 0 00-1.176-.6 1.767 1.767 0 00-1.149.769.782.782 0 00-1.094.907.562.562 0 00-.788.234 1.45 1.45 0 00-.083.915 8.65 8.65 0 00.406 1.639 1.068 1.068 0 00.193-.909c-.03-.333-.012-.74.279-.9s.623.016.934.106a1.765 1.765 0 001.46-.23 4.6 4.6 0 01.48-.334.567.567 0 01.559-.01.78.78 0 01.259.455l.359 1.216a1.719 1.719 0 00.529-1.315z" fill="#2f2e41"/><path fill="#3f3d56" d="M18.141 38.167h.753v22.058h-.753zM40.671 27.865h.753v32.36h-.753zM63.248 34.638h.753v25.587h-.753zM85.824 22.22h.753v38.004h-.753zM108.401 30.875h.753v29.35h-.753z"/><circle cx="2.302" cy="2.302" r="2.302" transform="translate(38.792 26.081)" fill="#ffcf44"/><circle cx="2.302" cy="2.302" r="2.302" transform="translate(83.945 20.061)" fill="#ffcf44"/><circle cx="2.302" cy="2.302" r="2.302" transform="translate(61.368 32.478)" fill="#ffcf44"/><circle cx="2.302" cy="2.302" r="2.302" transform="translate(16.215 35.864)" fill="#ffcf44"/><circle cx="2.302" cy="2.302" r="2.302" transform="translate(106.522 28.339)" fill="#ffcf44"/><path d="M124.973 59.997H2.752l-.767.384a.384.384 0 00.384.384h122.604a.384.384 0 100-.767z" fill="#3f3d56"/><circle cx="2.302" cy="2.302" r="2.302" transform="translate(0 57.897)" fill="#3f3d56"/><circle cx="2.302" cy="2.302" r="2.302" transform="translate(16.221 64.559)" fill="#e6e6e6"/><circle cx="2.302" cy="2.302" r="2.302" transform="translate(38.815 64.559)" fill="#e6e6e6"/><circle cx="2.302" cy="2.302" r="2.302" transform="translate(61.408 64.559)" fill="#e6e6e6"/><circle cx="2.302" cy="2.302" r="2.302" transform="translate(83.857 64.559)" fill="#e6e6e6"/><circle cx="2.302" cy="2.302" r="2.302" transform="translate(106.45 64.559)" fill="#e6e6e6"/><circle cx="2.302" cy="2.302" r="2.302" transform="translate(123.396 57.897)" fill="#3f3d56"/></g></g></svg>