<svg width="200" height="200" viewBox="0 0 500 500" xmlns="http://www.w3.org/2000/svg"><path fill="#1c1c79" d="M0 0h500v500H0z"/><g fill="#04063f"><path opacity=".2" d="M0 0h100v100H0z"/><path d="M51 25l49-25v50L51 25zM51 75l49-25v50L51 75zM2 25L51 0v50L2 25zM2 75l49-25v50L2 75z"/></g><g fill="#04063f"><path d="M126.91 79.84c14.645 14.644 38.389 14.644 53.033 0L126.91 26.807c-14.644 14.644-14.644 38.388 0 53.033z"/><path opacity=".2" d="M179.59 27.16c-14.645-14.644-38.389-14.644-53.033 0l53.033 53.033c14.644-14.644 14.644-38.388 0-53.033z"/></g><g transform="translate(200)" fill="#04063f"><path opacity=".2" d="M0 0h100v100H0z"/><circle cx="30" cy="30" r="15"/><circle opacity=".5" cx="30" cy="70" r="15"/><circle cx="70" cy="30" r="15"/><circle cx="70" cy="70" r="15"/></g><g transform="translate(300)" fill="#04063f"><path opacity=".2" fill-rule="evenodd" clip-rule="evenodd" d="M100 0H0v100h100V0zM50 75c13.807 0 25-11.193 25-25S63.807 25 50 25 25 36.193 25 50s11.193 25 25 25z"/><circle cx="50" cy="50" r="15"/></g><g transform="translate(400)" fill="#04063f"><path opacity=".2" d="M0 0h100v100H0z"/><circle cx="30" cy="30" r="15"/><circle opacity=".5" cx="30" cy="70" r="15"/><circle cx="70" cy="30" r="15"/><circle cx="70" cy="70" r="15"/></g><g fill="#04063f"><path opacity=".2" d="M0 100h100v100H0z"/><path d="M51 125l49-25v50l-49-25zM51 175l49-25v50l-49-25zM2 125l49-25v50L2 125zM2 175l49-25v50L2 175z"/></g><path d="M100 200h100L100 100v100z" fill="#04063f"/><g fill="#04063f"><path d="M226.91 179.84c14.645 14.644 38.389 14.644 53.033 0l-53.033-53.033c-14.644 14.644-14.644 38.388 0 53.033z"/><path opacity=".2" d="M279.59 127.16c-14.645-14.644-38.389-14.644-53.033 0l53.033 53.033c14.644-14.644 14.644-38.388 0-53.033z"/></g><g fill="#04063f"><path d="M326.91 179.84c14.645 14.644 38.389 14.644 53.033 0l-53.033-53.033c-14.644 14.644-14.644 38.388 0 53.033z"/><path opacity=".2" d="M379.59 127.16c-14.645-14.644-38.389-14.644-53.033 0l53.033 53.033c14.644-14.644 14.644-38.388 0-53.033z"/></g><g fill="#04063f"><path d="M400 100h50v50h-50z"/><path opacity=".2" d="M500 100h-50v50h50z"/><path d="M450 150h50v50h-50z"/><path opacity=".2" d="M450 150h-50v50h50z"/></g><path d="M0 300h100L0 200v100zM100 300h100L100 200v100z" fill="#04063f"/><g fill="#04063f"><path opacity=".2" d="M200 200h100v100H200z"/><path d="M251 225l49-25v50l-49-25zM251 275l49-25v50l-49-25zM202 225l49-25v50l-49-25zM202 275l49-25v50l-49-25z"/></g><g transform="translate(300 200)" fill="#04063f"><path opacity=".2" d="M0 0h100v100H0z"/><circle cx="30" cy="30" r="15"/><circle opacity=".5" cx="30" cy="70" r="15"/><circle cx="70" cy="30" r="15"/><circle cx="70" cy="70" r="15"/></g><g fill="#04063f"><path d="M426.91 279.84c14.645 14.644 38.389 14.644 53.033 0l-53.033-53.033c-14.644 14.644-14.644 38.388 0 53.033z"/><path opacity=".2" d="M479.59 227.16c-14.645-14.644-38.389-14.644-53.033 0l53.033 53.033c14.644-14.644 14.644-38.388 0-53.033z"/></g><g fill="#04063f"><path d="M26.91 379.84c14.645 14.644 38.389 14.644 53.033 0L26.91 326.807c-14.644 14.644-14.644 38.388 0 53.033z"/><path opacity=".2" d="M79.59 327.16c-14.645-14.644-38.389-14.644-53.033 0l53.033 53.033c14.644-14.644 14.644-38.388 0-53.033z"/></g><path d="M100 400h100L100 300v100z" fill="#04063f"/><g fill="#04063f"><path opacity=".2" d="M200 300h100v100H200z"/><path d="M251 325l49-25v50l-49-25zM251 375l49-25v50l-49-25zM202 325l49-25v50l-49-25zM202 375l49-25v50l-49-25z"/></g><g fill="#04063f"><path opacity=".2" d="M300 400h100L300 300v100z"/><path d="M325 325h50v50h-50z"/></g><path d="M400 400h100L400 300v100z" fill="#04063f"/><g transform="translate(0 400)" fill="#04063f"><path opacity=".2" fill-rule="evenodd" clip-rule="evenodd" d="M100 0H0v100h100V0zM50 75c13.807 0 25-11.193 25-25S63.807 25 50 25 25 36.193 25 50s11.193 25 25 25z"/><circle cx="50" cy="50" r="15"/></g><g fill="#04063f"><path opacity=".2" d="M100 400h100v100H100z"/><path d="M151 425l49-25v50l-49-25zM151 475l49-25v50l-49-25zM102 425l49-25v50l-49-25zM102 475l49-25v50l-49-25z"/></g><g fill="#04063f"><path d="M226.91 479.84c14.645 14.644 38.389 14.644 53.033 0l-53.033-53.033c-14.644 14.644-14.644 38.388 0 53.033z"/><path opacity=".2" d="M279.59 427.16c-14.645-14.644-38.389-14.644-53.033 0l53.033 53.033c14.644-14.644 14.644-38.388 0-53.033z"/></g><g transform="translate(300 400)" fill="#04063f"><path opacity=".2" fill-rule="evenodd" clip-rule="evenodd" d="M100 0H0v100h100V0zM50 75c13.807 0 25-11.193 25-25S63.807 25 50 25 25 36.193 25 50s11.193 25 25 25z"/><circle cx="50" cy="50" r="15"/></g><g fill="#04063f"><path opacity=".2" d="M400 500h100L400 400v100z"/><path d="M425 425h50v50h-50z"/></g></svg>