<svg width="1000" height="1000" xmlns="http://www.w3.org/2000/svg"><path fill="#b38184" d="M0 0h1000v1000H0z"/><circle cx="50" cy="50" r="50" fill="#73626e" transform="matrix(.8 0 0 .8 10 10)"/><circle cx="50" cy="50" r="50" fill="#f0b49e" transform="matrix(.8 0 0 .8 110 10)"/><path d="M210 90h80l-40-80-40 80z" fill="#73626e"/><circle cx="50" cy="50" r="50" fill="#413e4a" transform="matrix(.8 0 0 .8 310 10)"/><circle cx="50" cy="50" r="50" fill="#f7e4be" transform="matrix(.8 0 0 .8 410 10)"/><path d="M510 90h80l-40-80-40 80z" fill="#f0b49e"/><circle cx="50" cy="50" r="50" fill="#73626e" transform="matrix(.8 0 0 .8 610 10)"/><path fill="#f7e4be" d="M710 10h80v80h-80zm100 80h80l-40-80-40 80z"/><circle cx="50" cy="50" r="50" fill="#f0b49e" transform="matrix(.8 0 0 .8 910 10)"/><path fill="#f7e4be" d="M10 110h80v80H10z"/><path fill="#413e4a" d="M110 110h80v80h-80z"/><circle cx="50" cy="50" r="50" fill="#f7e4be" transform="matrix(.8 0 0 .8 210 110)"/><path fill="#413e4a" d="M310 110h80v80h-80z"/><path fill="#73626e" d="M410 110h80v80h-80z"/><path d="M510 190h80l-40-80-40 80z" fill="#413e4a"/><circle cx="50" cy="50" r="50" fill="#73626e" transform="matrix(.8 0 0 .8 610 110)"/><circle cx="50" cy="50" r="50" fill="#f0b49e" transform="matrix(.8 0 0 .8 710 110)"/><path d="M810 190h80l-40-80-40 80z" fill="#f7e4be"/><path d="M910 190h80l-40-80-40 80z" fill="#73626e"/><path fill="#f0b49e" d="M10 210h80v80H10z"/><circle cx="50" cy="50" r="50" fill="#413e4a" transform="matrix(.8 0 0 .8 110 210)"/><path fill="#f0b49e" d="M210 210h80v80h-80z"/><circle cx="50" cy="50" r="50" fill="#73626e" transform="matrix(.8 0 0 .8 310 210)"/><circle cx="50" cy="50" r="50" fill="#f0b49e" transform="matrix(.8 0 0 .8 410 210)"/><circle cx="50" cy="50" r="50" fill="#f7e4be" transform="matrix(.8 0 0 .8 510 210)"/><path d="M610 290h80l-40-80-40 80z" fill="#f7e4be"/><circle cx="50" cy="50" r="50" fill="#f0b49e" transform="matrix(.8 0 0 .8 710 210)"/><path d="M810 290h80l-40-80-40 80z" fill="#f7e4be"/><path fill="#f0b49e" d="M910 210h80v80h-80z"/><circle cx="50" cy="50" r="50" fill="#f0b49e" transform="matrix(.8 0 0 .8 10 310)"/><path d="M110 390h80l-40-80-40 80z" fill="#73626e"/><path d="M210 390h80l-40-80-40 80z" fill="#413e4a"/><path fill="#f0b49e" d="M310 310h80v80h-80z"/><circle cx="50" cy="50" r="50" fill="#73626e" transform="matrix(.8 0 0 .8 410 310)"/><path fill="#f7e4be" d="M510 310h80v80h-80z"/><path d="M610 390h80l-40-80-40 80z" fill="#413e4a"/><path fill="#f7e4be" d="M710 310h80v80h-80zm100 80h80l-40-80-40 80z"/><circle cx="50" cy="50" r="50" fill="#f7e4be" transform="matrix(.8 0 0 .8 910 310)"/><path fill="#f7e4be" d="M10 410h80v80H10z"/><circle cx="50" cy="50" r="50" fill="#73626e" transform="matrix(.8 0 0 .8 110 410)"/><path fill="#413e4a" d="M210 410h80v80h-80z"/><circle cx="50" cy="50" r="50" fill="#f0b49e" transform="matrix(.8 0 0 .8 310 410)"/><path d="M410 490h80l-40-80-40 80z" fill="#73626e"/><circle cx="50" cy="50" r="50" fill="#73626e" transform="matrix(.8 0 0 .8 510 410)"/><circle cx="50" cy="50" r="50" fill="#413e4a" transform="matrix(.8 0 0 .8 610 410)"/><path d="M710 490h80l-40-80-40 80zm100 0h80l-40-80-40 80zm100-80h80v80h-80z" fill="#f7e4be"/><path fill="#73626e" d="M10 510h80v80H10z"/><circle cx="50" cy="50" r="50" fill="#f0b49e" transform="matrix(.8 0 0 .8 110 510)"/><path fill="#f0b49e" d="M210 510h80v80h-80z"/><path fill="#73626e" d="M310 510h80v80h-80z"/><path fill="#413e4a" d="M410 510h80v80h-80zm100 0h80v80h-80z"/><path fill="#73626e" d="M610 510h80v80h-80z"/><circle cx="50" cy="50" r="50" fill="#413e4a" transform="matrix(.8 0 0 .8 710 510)"/><circle cx="50" cy="50" r="50" fill="#73626e" transform="matrix(.8 0 0 .8 810 510)"/><path d="M910 590h80l-40-80-40 80z" fill="#f0b49e"/><path fill="#73626e" d="M10 610h80v80H10z"/><path d="M110 690h80l-40-80-40 80z" fill="#f7e4be"/><circle cx="50" cy="50" r="50" fill="#413e4a" transform="matrix(.8 0 0 .8 210 610)"/><circle cx="50" cy="50" r="50" fill="#f0b49e" transform="matrix(.8 0 0 .8 310 610)"/><path fill="#73626e" d="M410 610h80v80h-80z"/><path d="M510 690h80l-40-80-40 80z" fill="#f0b49e"/><path d="M610 690h80l-40-80-40 80z" fill="#413e4a"/><circle cx="50" cy="50" r="50" fill="#f7e4be" transform="matrix(.8 0 0 .8 710 610)"/><circle cx="50" cy="50" r="50" fill="#413e4a" transform="matrix(.8 0 0 .8 810 610)"/><path fill="#f0b49e" d="M910 610h80v80h-80z"/><circle cx="50" cy="50" r="50" fill="#f0b49e" transform="matrix(.8 0 0 .8 10 710)"/><circle cx="50" cy="50" r="50" fill="#413e4a" transform="matrix(.8 0 0 .8 110 710)"/><circle cx="50" cy="50" r="50" fill="#f0b49e" transform="matrix(.8 0 0 .8 210 710)"/><path fill="#f7e4be" d="M310 710h80v80h-80z"/><circle cx="50" cy="50" r="50" fill="#f7e4be" transform="matrix(.8 0 0 .8 410 710)"/><path d="M510 790h80l-40-80-40 80z" fill="#f0b49e"/><circle cx="50" cy="50" r="50" fill="#f0b49e" transform="matrix(.8 0 0 .8 610 710)"/><circle cx="50" cy="50" r="50" fill="#413e4a" transform="matrix(.8 0 0 .8 710 710)"/><path fill="#413e4a" d="M810 710h80v80h-80z"/><path fill="#f0b49e" d="M910 710h80v80h-80z"/><path fill="#73626e" d="M10 810h80v80H10z"/><path fill="#f7e4be" d="M110 810h80v80h-80z"/><path d="M210 890h80l-40-80-40 80zm100-80h80v80h-80z" fill="#f0b49e"/><path fill="#73626e" d="M410 810h80v80h-80zm100 80h80l-40-80-40 80zm100-80h80v80h-80z"/><path d="M710 890h80l-40-80-40 80z" fill="#f0b49e"/><path fill="#f7e4be" d="M810 810h80v80h-80zm100 0h80v80h-80zM10 910h80v80H10z"/><path d="M110 990h80l-40-80-40 80z" fill="#413e4a"/><path d="M210 990h80l-40-80-40 80z" fill="#f0b49e"/><circle cx="50" cy="50" r="50" fill="#f7e4be" transform="matrix(.8 0 0 .8 310 910)"/><path fill="#73626e" d="M410 910h80v80h-80z"/><path d="M510 990h80l-40-80-40 80z" fill="#f7e4be"/><circle cx="50" cy="50" r="50" fill="#f7e4be" transform="matrix(.8 0 0 .8 610 910)"/><path d="M710 990h80l-40-80-40 80z" fill="#73626e"/><circle cx="50" cy="50" r="50" fill="#413e4a" transform="matrix(.8 0 0 .8 810 910)"/><path fill="#73626e" d="M910 910h80v80h-80z"/></svg>