<svg width="1440" height="447.798" viewBox="0 0 381 118.48" xmlns="http://www.w3.org/2000/svg"><defs><linearGradient id="a" x1="1053.2" x2="815.11" y1="628.42" y2="-278.58" gradientUnits="userSpaceOnUse"><stop stop-color="#B6D3EF" offset="0"/><stop stop-color="#D0E1F5" offset=".26"/><stop stop-color="#DFE9F8" offset=".456"/><stop stop-color="#fff" offset="1"/></linearGradient><linearGradient id="c" x1="407.48" x2="1046.3" y1="-415.96" y2="528.27" gradientUnits="userSpaceOnUse"><stop stop-color="#5333ED" stop-opacity="0" offset=".149"/><stop stop-color="#5333ED" stop-opacity=".2" offset="1"/></linearGradient><mask id="b" x="-1" y="0" width="1440" height="450" maskUnits="userSpaceOnUse"><path d="M-1 0h1440v450H-1z" fill="url(#a)"/></mask></defs><g transform="translate(.27) scale(.26458)" mask="url(#b)"><path d="M1399.8-329.57l26.8-15.524 5.5-3.184h-1.9l-4.5 2.587-26.8 15.523-26.9-15.523-4.5-2.587h-1.9l5.4 3.184 26.8 15.524-26.8 15.523-26.7 15.523-53.6-31.046 26.8-15.524 5.4-3.084h-1.9l-4.4 2.587-26.8 15.523-26.8-15.523-4.3-2.488h-1.9l5.3 3.085 26.8 15.523-53.6 31.046-53.6-31.046 26.6-15.822 5.2-2.985h-1.9l-4.3 2.488-26.8 15.523-26.8-15.523-4.2-2.488h-1.9l5.2 2.985 26.8 15.523-26.8 15.524-26.8 15.523-26.8-15.523-26.8-15.524 26.8-15.523 5.1-2.985h-1.9l-4.2 2.388-26.8 15.523-26.8-15.523-4.1-2.388h-1.9l31.9 18.508-26.8 15.524-26.8 15.523-26.9-15.623-26.8-15.523 26.8-15.523 5-2.886h-1.9l-4 2.289-26.8 15.523-26.8-15.523-4-2.289h-1.9l4.9 2.886 26.8 15.523-53.6 31.046-53.6-31.046 26.8-15.523 4.9-2.786h-1.9l-3.9 2.288-26.8 15.523-30.7-17.911h-1.9l4.8 2.786 26.8 15.523-26.8 15.524-26.8 15.523-26.8-15.523-26.8-15.524 26.8-15.523 4.7-2.786h-1.9l-3.8 2.189-26.8 15.523-26.8-15.523-3.7-2.189h-1.9l4.7 2.687 26.8 15.523-53.6 31.046-53.6-31.046 26.8-15.523 4.6-2.687h-1.9l-3.7 2.09-26.8 15.523-26.9-15.523-3.5-2.09h-1.9l4.5 2.587 26.8 15.523-26.8 15.524-26.8 15.523-26.8-15.523-26.8-15.524 26.8-15.523 4.5-2.587h-1.9l-3.5 2.09-26.8 15.523-26.9-15.623-3.5-1.99h-1.9l4.4 2.587 26.8 15.523-26.7 15.524-26.8 15.523-26.8-15.523-26.8-15.524 26.8-15.523 4.4-2.487h-1.9l-3.4 1.99-26.8 15.523-26.9-15.722-3.4-1.891h-1.9l31.1 18.011-53.6 31.046-53.6-31.046 26.8-15.523 4.2-2.488h-1.9l-3.3 1.891-26.8 15.523-26.8-15.523-3.2-1.891h-1.9l4.2 2.388 26.8 15.523-26.8 15.524-26.8 15.523-26.8-15.523-26.8-15.524 26.8-15.523 4.1-2.388h-1.9l-3.2 1.791-26.8 15.523-29.9-17.314h-1.9l4 2.289 26.9 15.622-53.6 31.047-26.8-15.523-26.9-15.623 26.8-15.523 4-2.289H119l-3 1.791-26.8 15.523-26.8-15.622-3-1.692h-1.9l3.9 2.289 26.8 15.523-53.6 31.046-26.8-15.523-8.8-5.174v1.094l7.9 4.578 26.8 15.523-26.8 15.523-7.9 4.577v1.095l8.8-5.075 26.8-15.523 53.6 31.046-26.8 15.623-26.8 15.523-26.8-15.623-8.8-5.075v1.095l7.9 4.577 26.8 15.523-26.8 15.524-7.9 4.577v1.095l8.8-5.075 26.8-15.523 26.8 15.523 26.9 15.523-53.6 31.046-26.9-15.523-8.8-5.174v1.094l7.9 4.578 26.8 15.523-26.8 15.523-7.9 4.577v1.095l8.9-5.175 26.8-15.523 26.8 15.523 26.8 15.524-53.6 31.046-26.8-15.424-8.9-5.075v1.095l7.9 4.577 26.8 15.523L6.9-93.639-1-89.06v1.094l8.9-5.174 26.8-15.523 53.6 31.046L34.7-46.57 7.9-61.995-1-67.17v1.095l7.9 4.577 26.8 15.524L7-30.452l-8 4.577v1.095l8.9-5.175 26.8-15.523 26.8 15.623 26.8 15.523L61.5 1.192 34.7 16.715 7.9 1.192-1-3.982v1.094L7 1.69l26.8 15.523L7 32.835l-8 4.578v1.094l8.9-5.174 26.8-15.425 26.8 15.523 26.8 15.524-53.6 31.047L7.9 64.478-1 59.304v1.095l8 4.677 26.8 15.522L7 96.023l-8 4.577v1.095l8.9-5.175 26.8-15.522 53.6 31.046-26.8 15.523-26.7 15.723-26.9-15.623-8.9-5.174v1.094l8 4.677 26.8 15.523L7 159.309l-8 4.677v1.095l9-5.175 26.8-15.523 53.6 31.046-26.8 15.524-26.8 15.523L8 190.953l-9-5.175v1.095l8 4.677 26.8 15.523L7 222.596l-8 4.677v1.094l9-5.174 26.8-15.523 53.6 31.046-53.6 31.046L8 254.14l-9-5.175v1.095l8 4.677 26.8 15.523L7 285.783l-8 4.677v1.095l9-5.175 26.8-15.523 53.6 31.046-26.8 15.524-26.8 15.523L8 317.427l-9-5.175v1.095l8.1 4.677 26.8 15.523L7.1 349.07l-8.1 4.677v1.094l9-5.174 26.8-15.523 26.8 15.523 26.9 15.523-53.6 31.046L8 380.614l-9-5.274v1.094l8.1 4.677 26.8 15.523-26.8 15.623-8.1 4.677v1.094l9-5.273 26.8-15.524 53.6 31.047-26.8 15.523-6.6 3.98h1.9l5.7-3.284 26.8-15.523 26.8 15.523 5.6 3.284h1.9L117.1 444l-26.8-15.523 53.6-31.047 53.6 31.047L170.7 444l-6.5 3.781h1.9l5.6-3.284 26.8-15.523 26.8 15.523 5.5 3.185h1.9l-6.5-3.782-26.8-15.523 53.6-31.046 53.6 31.046-26.8 15.523-6.4 3.682h1.9l5.5-3.184 26.8-15.523 26.8 15.523 5.4 3.085h1.9l-6.3-3.682-26.8-15.523 53.6-31.047 53.6 31.047-26.8 15.523-6.3 3.682h1.9l5.3-3.085 26.8-15.523 26.8 15.523 5.3 3.085h1.9l-6.2-3.583-26.8-15.523 53.6-31.046 53.6 31.046-26.8 15.523-6.1 3.881h1.9l5.2-2.985 26.8-15.523 32 18.508h1.9l-6.1-3.582-26.8-15.523 53.6-31.047 53.6 31.047-26.8 15.523-6 3.483h1.9l5.1-2.986 26.8-15.523 31.8 18.509h1.9l-6-3.483-26.8-15.424 53.6-31.046 53.6 31.046-26.8 15.523-5.9 3.384h1.9l5-2.886 26.8-15.523 26.8 15.523 4.9 2.886h1.9l-5.8-3.384-26.8-15.423 53.6-31.046 53.6 31.046-26.8 15.523-5.8 3.383h1.9l4.8-2.786 26.8-15.523 26.8 15.523 4.8 2.786h1.9l-5.7-3.284-26.8-15.622 53.6-31.046 53.6 31.046-26.8 15.523-5.7 3.284h1.9l4.7-2.687 26.8-15.523 26.8 15.523 4.6 2.687h1.9l-32.4-18.807 53.6-31.046 53.6 31.046-26.8 15.523-5.5 3.184h1.9l4.6-2.687 26.8-15.523 26.8 15.523 4.5 2.588h1.9l-5.5-3.185-26.8-15.523 53.6-31.046 53.6 31.046-26.8 15.523-5.4 3.085h1.9l4.5-2.587 26.8-15.523 31.4 18.508h1.9l-5.3-3.085-26.8-15.523 53.6-31.046 53.6 31.046-26.8 15.523-5.3 3.085h1.9l4.3-2.487 26.8-15.524 26.8 15.524 4.3 2.487h1.9l-5.2-2.985-26.8-15.523 53.6-31.046 53.6 31.046-26.8 15.523-5.2 2.985h1.9l4.2-2.487 26.8-15.524 26.8 15.524 4.1 2.388h1.9l-5.1-2.986-26.8-15.523 26.8-15.523 12.2-7.065v-1.094l-13.1 7.562-26.8 15.523-53.6-31.046 53.6-31.046 40 23.185v-1.095l-12.2-7.065-26.8-15.523 26.8-15.523 12.2-7.065v-1.095l-40 23.186-53.6-31.047 53.6-31.046 26.8 15.523 13.2 7.662v-1.094l-12.2-7.065-26.8-15.524 26.8-15.523 12.2-7.065v-1.094l-13.2 7.662-26.8 15.523-53.6-31.046 26.8-15.524 26.8-15.523 26.8 15.523 13.2 7.663v-1.095l-12.2-7.065-26.8-15.523 26.8-15.523 12.3-7.065v-1.095l-13.2 7.662-26.8 15.523-53.6-31.046 53.6-31.046 40 23.185v-1.393l-12.3-7.065-26.8-15.523 26.8-15.524 12.3-7.065v-1.094l-40 23.185-53.6-31.046 53.6-31.047 26.8 15.524 13.2 7.662v-1.095l-12.3-7.164-26.8-15.524 26.8-15.523 12.3-7.164v-1.095l-13.2 7.662-26.8 15.523-53.6-31.046 53.6-31.046 26.8 15.523 13.2 7.662v-1.095l-12.3-7.164-26.8-15.523 26.8-15.524 12.3-7.164v-1.095l-13.3 7.663-26.8 15.523-26.8-15.523-26.8-15.524 53.6-31.046 26.8 15.523 13.3 7.662V9.352l-12.3-7.165-26.8-15.523 26.8-15.523 12.3-7.165v-1.094l-13.3 7.662-26.8 15.523-53.6-31.046 26.8-15.524 26.8-15.523 26.8 15.523 13.3 7.662v-1.094l-12.3-7.165-26.8-15.522 26.8-15.523 12.4-7.164v-1.095l-13.3 7.662-26.8 15.523-53.6-31.046 53.6-31.046 26.8 15.523 13.3 7.761v-1.094l-12.4-7.165-26.8-15.523 26.8-15.523 12.4-7.165v-1.094l-13.3 7.662-26.8 15.523-53.6-31.046 26.5-15.623 26.8-15.523 26.8 15.523 13.3 7.762v-1.095l-12.4-7.164-26.8-15.524 26.8-15.523 12.4-7.164v-1.095l-13.3 7.762-26.8 15.523-53.6-31.046 26.8-15.524 26.8-15.523 26.8 15.523 13.3 7.762v-1.095l-12.4-7.164-26.8-15.523 26.8-15.523 12.4-7.165v-1.095l-13.4 7.762-26.8 15.523-26.7-15.722-26.8-15.523 53.6-31.046 40.2 23.284v-1.094l-12.4-7.165-26.8-15.622zm-136.9 16.02l26.8-15.523 53.6 31.046-26.8 15.524-26.8 15.523-26.8-15.523-26.8-15.524zM415.8 49.15l-53.6 31.046-26.9-15.523-26.8-15.523 53.6-31.047zm-52.7-31.644l53.6-31.046 53.6 31.046-53.6 31.047-26.8-15.524zm26.8 47.764l26.8-15.523 53.6 31.046-53.6 31.046-53.6-31.046zm54.6-.498l-26.8-15.523 53.6-31.046 53.6 31.046-53.6 31.046zm27.7-47.166l53.6-31.047 53.6 31.047-26.8 15.523-26.8 15.623L499 33.129zm53.6 32.24l26.8 15.523 26.8 15.524-26.8 15.524-26.8 15.523-53.6-31.147zm27.8 14.926l-26.8-15.523 53.6-31.046L634 49.249l-26.8 15.524-26.8 15.523-26.8-15.523zm27.7-47.067l53.6-31.045 53.6 31.046-26.8 15.523L635 48.753l-26.8-15.524-26.9-15.523zm26.9 47.664L635 49.846l26.8 15.523 26.8 15.524-26.8 15.623-26.8 15.523-53.6-31.146zm54.5-.497l-26.8-15.523 53.6-31.047 53.6 31.047-53.6 31.046zm27.8-47.167l53.6-31.045 53.6 31.046-53.6 31.047-53.6-31.047zm26.8 47.764l26.8-15.523 53.6 31.046-53.6 31.046-53.6-31.045 26.8-15.523zm54.6-.498l-26.8-15.523 53.6-31.046 53.6 31.046-53.6 31.046zm27.7-47.166l53.6-31.047L880 2.283l26.8 15.523-53.6 31.045zm53.7 32.24l53.6 31.046-26.8 15.524-26.8 15.523-53.6-31.046zM881 65.071l-26.8-15.523 53.6-31.047 53.6 31.047-26.8 15.523-26.8 15.522zm27.8-47.167l53.6-31.046 53.6 31.046-53.6 31.047-26.8-15.524zm26.8 47.664l26.8-15.523 53.6 31.046-26.8 15.524-26.8 15.523-53.6-31.046zm27.7-16.02l53.6-31.047 53.6 31.146-53.6 31.046zm81.4 16.12l26.8-15.523 53.6 31.046-53.6 31.046-53.6-31.046zm26.8-16.618l-53.6-31.046 53.6-31.047 53.6 31.047-26.8 15.523zm-53.6-94.333l53.6-31.046 53.6 31.046-53.6 31.046zm25.8 16.12l26.8 15.523-53.6 31.047-53.6-31.048 53.6-31.046 26.8 15.523zm-54.5-.597l-26.8 15.523-53.6-31.046 53.6-31.046 26.8 15.522 26.8 15.523-26.8 15.523zm-54.6.498l26.8 15.523-53.6 31.046-53.6-31.046 53.6-31.046zm-54.6-.597l-26.8 15.522-53.6-31.046 26.8-15.524 26.8-15.523 53.6 31.048zm-54.5.497l26.8 15.524-53.6 31.046-26.8-15.523L745-13.839l53.6-31.046zm-54.6-.497l-26.8 15.522-53.6-31.046 26.8-15.524 26.8-15.523 26.8 15.523 26.8 15.524-26.8 15.523zm-54.6.497l26.8 15.524-53.6 31.046-26.8-15.523-26.8-15.623 53.6-31.046zm-54.5-.597L635-14.436l-53.6-31.046L635-76.527l53.6 31.046-26.8 15.523zm-54.6.498L634-13.938l-53.6 31.046-53.6-31.046 53.6-31.046zm-54.6-.597l-26.8 15.523-53.6-31.046L499-61.105l26.8-15.523 26.8 15.523 26.8 15.524zm-54.5.497l26.8 15.523-26.8 15.524-26.8 15.523-26.8-15.523-26.8-15.524 53.6-31.046zm-54.6-.597l-26.8 15.523-53.6-31.046 53.6-31.046 53.6 31.046zm-54.6.597l26.8 15.523-53.6 31.047-26.8-15.523-26.8-15.524 53.6-31.046zm-54.5-.597l-26.8 15.523-26.8-15.523-26.9-15.622 26.8-15.524 26.8-15.523 26.8 15.523 26.8 15.524zM307.6-13.54l53.6 31.046-53.6 31.047L254 17.506l26.8-15.523zm0 63.187l53.6 31.046-26.8 15.524-26.8 15.523-26.8-15.523L254 80.693l26.8-15.524 26.8-15.523zm0 63.287l53.6 31.046-53.6 31.047L254 143.98l26.8-15.523zm27.8 14.926l-26.8-15.523 53.6-31.046L389 96.813l26.8 15.523-26.8 15.622-26.8 15.524-26.8-15.623zm54.5.597l26.8-15.523 53.6 31.046-26.8 15.523-26.8 15.623-53.6-31.046zm54.6-.498l-26.8-15.523 53.6-31.046 53.6 31.046-53.6 31.047zm54.6.598l26.8-15.524 53.6 31.047-53.6 31.046-53.6-31.046zm54.5-.498l-26.8-15.523 53.6-31.046 53.6 31.046-53.6 31.046zm81.4-14.926l53.6 31.046-53.6 31.046-53.6-31.046zm27.8 15.025L636 112.635l53.6-31.046 53.6 31.046-53.6 31.047zm54.5.598l26.8-15.524 53.6 31.047-26.7 15.523-26.8 15.523-53.6-31.046zm27.8-16.121l53.6-31.046 53.6 31.046-53.6 31.047zm81.4 16.121l26.8-15.524 53.6 31.047-53.6 31.046-53.6-31.046zm54.5-.498l-26.8-15.523 53.6-31.046 53.6 31.046-53.6 31.046zm54.6.597l26.8-15.523 53.6 31.046-53.6 31.046-53.6-31.046zm54.6-.497l-26.8-15.524 53.6-31.046 53.6 31.046-26.8 15.524-26.8 15.523zm54.5.597l26.8-15.524 53.6 31.047-53.6 31.046-53.6-31.046zm54.6-.498l-26.8-15.523 53.6-31.047 53.6 31.047-53.6 31.046zm26.8-47.763l-53.6-31.047 53.6-31.046 53.6 31.046-53.6 31.046zm0-63.188l-53.6-31.046 53.6-31.046 53.6 31.046-26.8 15.523zm0-63.286l-53.6-31.047 53.6-31.046 53.6 31.046-26.8 15.523zm-27.8-47.167l-26.8 15.523-53.6-31.046 53.6-31.046 53.6 31.046zm-54.6.498l26.8 15.523-53.6 31.046-53.6-31.046 53.6-31.047zm-54.5-.498l-26.8 15.523-53.6-31.046 53.6-31.046 53.6 31.046zm-54.6.498l26.8 15.523-53.6 31.046L881-61.403l-26.8-15.524L881-92.549l26.8-15.523zm-54.6-.598l-26.8 15.523-26.8-15.523-26.8-15.524 53.6-31.046 53.6 31.046L880-93.046zm-54.5.497l26.8 15.523-53.6 31.047-26.8-15.524L745-77.026l53.6-31.046 26.9 15.523zm-54.6-.597l-26.8 15.523-53.6-31.046 53.6-31.046 53.6 31.046zm-54.6.498l26.8 15.523-53.6 31.046-53.6-31.046 53.6-31.047zm-54.6-.597l-26.8 15.523-53.6-31.146 53.6-31.046 53.6 31.046zm-54.5.497L634-77.225l-53.6 31.047-53.6-31.047 53.6-31.046 26.8 15.523zm-54.6-.498l-26.8 15.524L499-93.345l-26.8-15.523 53.6-31.046 53.6 31.046-26.8 15.623zm-54.6.498l26.8 15.523-26.7 15.523-26.8 15.524-26.9-15.524-26.8-15.523 53.6-31.046L498-92.748zm-54.5-.597l-26.8 15.523-26.8-15.523-26.9-15.623 53.6-31.046 53.6 31.046zm-54.6.498l26.8 15.523-53.6 31.046-53.6-31.046 53.6-31.047zm-54.6-.597l-26.8 15.523-26.8-15.523-26.8-15.524 53.6-31.046 53.6 31.046-26.8 15.523zm-54.5.497l26.8 15.523-26.8 15.523L253-46.377l-53.6-31.046 53.6-31.046 26.8 15.523zM253-45.183l53.6 31.046L253 16.909l-53.6-31.046 26.8-15.523zm0 63.187l53.6 31.046-26.8 15.623L253 80.196 199.4 49.15l26.8-15.523L253 18.003zm0 63.287l53.6 31.046-53.6 31.046-53.6-31.046 26.8-15.523zm0 63.187l53.6 31.046L253 206.57l-53.6-31.046 26.8-15.523zm27.8 47.166l26.8-15.523 53.6 31.046-26.8 15.524-26.8 15.523-26.8-15.523-26.8-15.524zm54.6-.497l-26.8-15.524 53.6-31.046 53.6 31.046-26.8 15.524-26.8 15.523zm54.5.597l26.8-15.523 53.6 31.046-53.6 31.046L390 222.79l-26.8-15.523zm54.6-.498l-26.8-15.523 53.6-31.046 53.6 31.046-53.6 31.046zm54.6.597l26.8-15.523 53.6 31.046-53.6 31.047-53.6-31.047zm54.5-.597l-26.8-15.523 53.6-31.046 53.6 31.046-53.6 31.046zm54.6.597L635 176.32l53.6 31.046-26.8 15.523-26.8 15.623-53.6-31.046zm54.6-.497L636 175.823l26.8-15.524 26.8-15.523 26.8 15.523 26.8 15.524-53.6 31.046zm54.6.597l26.8-15.523 53.6 31.046-26.8 15.623-26.8 15.523-26.8-15.523-26.8-15.524zm54.5-.498l-26.8-15.523 53.6-31.046 53.6 31.046-53.6 31.046zm54.6.597l26.8-15.523 53.6 31.046-26.8 15.524-26.8 15.523-26.8-15.523-26.8-15.524zm54.6-.497l-26.8-15.523 26.8-15.524 26.8-15.523 26.8 15.523 26.8 15.524-53.6 31.046zm54.5.497l26.8-15.523 53.6 31.046-26.8 15.524-26.8 15.523-26.8-15.523-26.8-15.524zm54.6-.497l-26.8-15.523 26.8-15.524 26.8-15.523 26.8 15.523 26.8 15.524-53.6 31.046zm54.6.597l26.8-15.523 53.6 31.046-53.6 31.046-53.6-31.046zm54.5-.498l-26.8-15.523 53.6-31.046 53.6 31.046-53.6 31.046zm54.6.597l26.8-15.523 53.6 31.046-53.6 31.047-26.8-15.523-26.8-15.524zm26.8-16.618l-53.6-31.046 53.6-31.046 53.6 31.046-26.8 15.523zm0-63.286l-53.6-31.046 26.8-15.524 26.8-15.523 53.6 31.046-26.8 15.524zm0-63.187l-26.8-15.523-26.8-15.524 53.6-31.046 53.6 31.046-26.8 15.523zm-.1-63.287L1127-45.183l53.6-31.047 26.8 15.523 26.8 15.524-26.8 15.523zm0-63.187l-26.8-15.523-26.8-15.623 53.6-31.046 53.6 31.046-26.8 15.523zm0-63.287l-53.6-31.046 53.6-31.047 53.6 31.047-26.8 15.523zm-27.8-14.926l26.8 15.523-53.6 31.046-53.6-31.046 26.8-15.523 26.8-15.623zm-54.5-.597l-26.8 15.523-53.6-31.046 53.6-31.047 53.6 31.047zm-27.8 16.021l-53.6 31.046-53.6-31.046 26.8-15.524 26.8-15.523zm-81.4-16.121l-26.8 15.524-53.6-31.047 53.6-31.046 53.6 31.046zm-54.5.498l26.8 15.523-53.6 31.046-53.6-31.046 53.6-31.046zm-54.6-.597l-26.8 15.523-53.6-31.146 53.6-31.046 53.6 31.046zm-54.6.497l26.8 15.524-53.6 31.046-53.6-31.046 26.8-15.524 26.8-15.523zm-54.5-.497l-26.8 15.523-53.6-31.046 26.8-15.523 26.7-15.623 53.6 31.046zm-54.6.497l26.8 15.524-53.6 31.046-53.6-31.046 26.8-15.524 26.8-15.523zm-54.6-.597l-26.8 15.524-53.6-31.047 53.6-31.046 53.6 31.046zm-54.5.498l26.8 15.523-53.6 31.046-53.6-31.046 53.6-31.046zm-54.6-.597l-26.8 15.523-26.8-15.523-26.8-15.623 53.6-31.046 53.6 31.046zm-27.8 16.12l-53.6 30.947-53.6-31.046 26.8-15.524 26.8-15.523zm-81.3-16.22l-26.8 15.523-26.8-15.523-26.9-15.523 53.6-31.046 53.6 31.046zm-27.8 16.121l-53.6 31.046-53.6-31.046 26.8-15.524 26.8-15.523zm-81.4-16.121l-26.8 15.523-53.6-31.046 53.6-31.046 53.6 31.046zm-54.5.498l26.8 15.523-53.6 31.046-53.6-31.046 53.6-31.046zm-54.6-.597l-26.8 15.523-53.6-31.046 53.6-31.047 53.6 31.047zm-26.8 16.618l53.6 31.046-53.6 31.046-53.6-31.046 26.8-15.523zm0 63.187l26.8 15.523L252-45.78l-53.6 31.046-53.6-31.046 26.8-15.524zm0 63.286L252 17.407l-53.6 31.046-53.6-31.046 53.6-31.048zm0 63.188L252 80.593l-53.6 31.046-53.6-31.046 53.6-31.046zm.1 63.286l53.6 31.047-53.6 31.046-53.6-31.046 26.8-15.523zm0 63.188l53.6 31.046-53.6 31.046-53.6-31.046 26.8-15.523zm0 63.286l26.8 15.523 26.8 15.524-53.6 31.046-53.6-31.046 26.8-15.524zm27.8 15.026l-26.8-15.523 53.6-31.047 53.6 31.047-53.6 31.046zm54.5.597l26.8-15.523 53.6 31.046-53.5 31.046-26.8-15.523-26.9-15.523zm54.6-.597l-26.8-15.523 53.6-31.047 53.6 31.047-26.8 15.622-26.8 15.524zm54.6.597l26.8-15.523 53.6 31.046-53.6 31.046-26.8-15.423-26.8-15.523zm54.5-.498l-26.8-15.523 53.6-31.046 53.6 31.046-53.6 31.047zm54.6.597l26.8-15.523 53.6 31.146-53.6 31.046-53.6-31.046zm54.6-.497l-26.8-15.523 53.6-31.047 53.6 31.047-53.6 31.046zm54.5.597l26.8-15.523 53.6 31.046-53.6 31.046-53.6-31.046zm54.6-.498L636 239.01l53.6-31.047 53.6 31.047-53.6 31.046zm54.6.597l26.8-15.523 26.8 15.523 26.8 15.524-53.6 31.046-26.8-15.523-26.8-15.623zm54.5-.597l-26.8-15.523 53.6-31.046 53.6 31.046-26.7 15.623-26.8 15.523zm54.6.597l26.8-15.523 26.8 15.523 26.8 15.524-53.6 31.046-53.6-31.046zm54.6-.497l-26.8-15.523 53.6-31.047 53.6 31.047-53.6 31.046zm54.5.597l26.8-15.523 53.6 31.046-53.6 31.046-53.6-31.046zm27.8-16.021l53.6-31.046 53.6 31.046-53.6 31.047zm81.4 16.12l26.8-15.523 26.8 15.523 26.8 15.524-53.6 31.046-53.6-31.046zm54.5-.497l-26.8-15.523 53.6-31.047 26.9 15.524 26.8 15.523-53.6 31.046zm54.6.497l26.8-15.523 53.6 31.146-53.6 31.046-53.6-31.046zm54.6-.497l-26.8-15.523 53.6-31.047 53.6 31.047-53.6 31.046zm-26.9-78.71l26.8-15.524 26.8-15.523 26.8 15.523 26.8 15.524-53.6 31.046zm53.7-32.141l-26.8-15.523-26.8-15.524 53.6-31.046 53.6 31.046-26.8 15.524zm-.1-63.287l-53.6-31.046 53.6-31.047 26.8 15.523 26.8 15.524L1262 65.27zm0-63.187l-26.8-15.523-26.8-15.524 53.6-31.046 53.6 31.146L1262 2.182zm-26.8-78.81l-26.8-15.523 53.6-31.047 53.6 31.047-53.6 31.046zm26.8-47.664l-53.6-31.046 26.8-15.524 26.8-15.523 26.8 15.523 26.8 15.524-26.8 15.523zm0-63.287l-53.6-31.046 53.6-31.046 53.6 31.145-26.8 15.524zm-27.8-47.166l-26.8 15.523-53.6-31.046 26.8-15.524 26.8-15.523 26.8 15.523 26.8 15.524zm-54.6.497l26.8 15.523-26.8 15.524-26.8 15.523-26.8-15.523-26.8-15.524 53.6-31.046zm-54.5-.597l-26.8 15.523-53.6-31.145 26.8-15.524 26.8-15.523 26.8 15.523 26.8 15.524zm-54.6.498l26.8 15.523-53.6 31.046-53.6-31.046 53.6-31.046zm-54.6-.498l-26.8 15.424-53.6-31.046 26.8-15.524 26.8-15.523 26.8 15.523 26.8 15.524zm-54.6.498l26.8 15.523-53.6 31.046-53.6-31.046 53.6-31.046zm-54.5-.597l-26.8 15.523-53.6-31.046 26.8-15.524 26.8-15.523 26.8 15.523 26.8 15.524zm-54.6.497l26.8 15.523-26.8 15.524-26.8 15.523-26.8-15.523-26.8-15.623 53.6-31.046zm-54.6-.597L744-204.097l-53.6-31.046 26.8-15.623 26.8-15.523 26.8 15.523 26.8 15.524zm-54.5.498l26.8 15.523-53.6 31.046-53.6-31.046 53.6-31.046zm-54.6-.597l-26.8 15.523-53.6-31.046 53.6-31.047 26.8 15.523 26.8 15.524zm-27.7 16.12l-26.9 15.523-26.8 15.523-53.6-31.046 53.6-31.046zm-81.4-16.12l-26.8 15.523-53.6-31.046 26.8-15.524 26.8-15.523 26.8 15.523 26.8 15.524zm-54.6.497l26.8 15.523-53.6 31.047-53.6-31.047 53.6-31.046zm-54.6-.597l-26.8 15.523-26.8-15.622-26.8-15.524 53.6-31.046 53.6 31.046zm-54.5.498l26.8 15.523-53.6 31.046-53.6-31.046 53.6-31.046zm-54.6-.597l-26.8 15.523-26.8-15.523-26.8-15.524 53.6-31.046 53.6 31.046zm-54.6.497l26.8 15.523-53.6 31.047-53.6-31.047 53.6-31.046zm-54.5-.597l-26.8 15.523-53.6-31.046 53.6-31.046 53.6 31.046zm-54.6.597l26.8 15.523-53.6 31.047-26.8-15.623-26.8-15.523 53.6-31.046zm-26.8 47.664l26.8 15.523 26.8 15.524-53.6 31.046-53.6-31.046 26.8-15.524zm53.7 94.333l-53.6 31.046L117-61.999 90.2-77.523l53.6-31.048 53.7 31.146zm-53.7 32.141l53.6 31.046-26.8 15.524-26.8 15.523L117 1.287 90.2-14.237 117-29.76zm.1 63.187l26.8 15.523 26.8 15.524-53.6 31.046-53.6-31.046 26.8-15.524zm53.6 94.333l-53.6 31.047-53.6-31.146 53.6-31.046zm-26.8 47.764l26.8 15.523-53.6 31.046-53.6-31.046 53.6-31.046zm-26.8 47.664l53.6 31.046-53.6 31.046-53.6-31.046 26.8-15.523zm0 63.187l53.6 31.046-26.8 15.524-26.7 15.622-53.6-31.146 26.8-15.523zm27.8 47.167l26.8-15.524 53.6 31.047-53.6 31.046-53.6-31.046zm54.6-.498l-26.8-15.523 53.6-31.046 53.6 31.046-53.6 31.046zm54.5.597l26.8-15.523 53.6 31.146-26.7 15.523-26.8 15.523-26.8-15.523-26.9-15.623zm54.6-.497l-26.8-15.524 53.6-31.046 53.6 31.046-26.8 15.524-26.8 15.523zm54.6.597l26.8-15.524 53.6 31.047-53.6 31.046-53.6-31.046zm54.6-.498l-26.8-15.523 53.6-31.046 53.6 31.046-53.6 31.046zm54.5.597l26.8-15.523 53.6 31.046-53.6 31.047-53.6-31.047zm54.6-.597l-26.8-15.523 53.6-31.046 53.6 31.046-26.8 15.523-26.8 15.623zm54.6.597l26.8-15.523 53.6 31.046-53.6 31.047-53.6-31.047zm27.7-16.021l53.6-31.046 53.6 31.046-26.8 15.524-26.8 15.523zm81.4 16.121l26.8-15.524 53.6 31.047-26.8 15.622-26.8 15.524-53.6-31.047zm27.7-16.021l53.6-31.046 53.6 31.046-53.6 31.046zm81.4 16.12l26.8-15.523 53.6 31.046-53.6 31.047-53.6-31.047zm54.6-.497l-26.8-15.524 53.6-31.046 53.6 31.046-26.8 15.524-26.8 15.523zm54.6.597l26.8-15.524 53.6 31.047-53.6 31.046-53.6-31.046zm54.5-.597l-26.8-15.524 53.6-31.046 53.6 31.046-26.8 15.524-26.8 15.523zm54.6.597l26.8-15.524 53.6 31.047-53.6 31.046-53.6-31.046zm54.6-.498l-26.8-15.523 53.6-31.046 53.6 31.046-53.6 31.046zm54.5.597l26.8-15.523 53.6 31.046-53.6 31.047-53.6-31.047zm54.6-.497l-26.8-15.524 53.6-31.046 53.6 31.046-26.8 15.524-26.8 15.523zm54.6.597l26.8-15.524 53.6 31.047-53.6 31.046-53.6-31.046zm26.8-16.618l-53.6-31.046 26.8-15.524 26.8-15.523 26.8 15.523 26.8 15.524-26.8 15.523zm0-63.287l-53.6-31.046 53.6-31.046 53.6 31.046-26.8 15.523zm-.1-63.187l-53.6-31.046 53.6-31.047 53.6 31.047-26.8 15.523zm0-63.287l-53.6-31.046 53.6-31.046 53.6 31.046-26.8 15.523zm0-63.187l-53.6-31.046 53.6-31.046 53.6 31.046-26.8 15.523zm0-63.287l-53.6-31.046 53.6-31.046 53.6 31.046-26.8 15.523zm0-63.187L1263-92.747l-26.8-15.523 53.6-31.046 53.6 31.046-53.6 31.046zm-.1-63.286l-53.6-31.047 53.6-31.046 53.6 31.046-26.8 15.523zm0-63.188l-53.6-31.046 53.6-31.046 53.6 31.046-26.8 15.523zm-54.6-93.835l53.6 31.046-53.6 31.046-53.6-31.046 26.8-15.523zm-81.4-16.12l26.8-15.523 53.6 31.046-26.7 15.523-26.8 15.523-26.9-15.523-26.8-15.523zm-27.7 16.02l53.6 31.047-53.6 31.046-53.6-31.046 26.8-15.523zm-81.4-16.12l26.8-15.523 53.6 31.046-26.8 15.623-26.8 15.523-53.6-31.046zm-27.8 16.12l53.6 31.047-53.6 31.046-26.8-15.523-26.8-15.623L990-282.21zm-81.3-16.219l26.8-15.523 53.6 31.046-53.6 31.046-53.6-31.046zm-27.8 16.12l53.6 31.046-53.6 31.046-53.6-31.046 26.8-15.523zm-54.6-31.643l26.9 15.523 26.8 15.523-53.6 31.046-53.6-31.046zm-54.5 31.543l26.8 15.524 26.8 15.622-53.6 31.046-26.8-15.523-26.8-15.622 26.8-15.523zm-81.4-16.12l26.8-15.523 53.6 31.046-53.6 31.047-53.6-31.047zm-27.8 16.021l53.6 31.046-53.6 31.046-53.6-31.046 26.8-15.523zm-81.3-16.12l26.8-15.523 53.6 31.046-53.6 31.046-53.7-31.046zm-27.8 16.12l53.6 31.046-53.6 31.046-53.6-31.046 26.8-15.523zm-81.4-16.22l26.8-15.523 26.8 15.523 26.9 15.623-53.6 31.046-53.6-31.046zm-27.7 16.12l53.6 31.047-53.6 31.046-53.6-31.046 26.8-15.523zm-81.4-16.12l26.8-15.523 53.6 31.046-53.6 31.047-53.6-31.047zM362-298.131l53.6 31.046-53.6 31.046-53.6-31.046 26.8-15.523zm-81.4-16.12l26.8-15.524 53.6 31.047-53.6 31.046-53.6-31.046zm-27.7 16.02l26.8 15.623 26.8 15.523-53.6 31.046-53.6-31.046 26.8-15.523zm-54.6-31.643l53.6 31.046-26.8 15.523-26.8 15.623-53.6-31.046zm-.9 62.69l-53.6 31.046-26.8-15.523-26.9-15.523 26.9-15.524 26.8-15.523zm-135-16.121l-26.8-15.622 53.6-31.047 26.8 15.623 26.8 15.523-53.6 31.047zm0 63.188l-26.8-15.524 53.6-31.046 53.6 31.046-26.8 15.623-26.8 15.523zm0 63.286l-26.8-15.523L89.2-203.4l53.6 31.046-53.6 31.046zm0 63.188l-26.8-15.524 53.6-31.046 53.6 31.046-26.7 15.623-26.8 15.523-26.9-15.623zm.1 63.286L35.7-45.88l53.6-31.047 53.6 31.046-53.6 31.046zm0 63.187L35.7 17.307l53.6-31.046 53.6 31.046-53.6 31.047zm0 63.287L35.7 80.594l53.6-31.046 53.6 31.045-53.6 31.046-26.8-15.523zm0 63.187l-26.8-15.523 53.6-31.046 53.6 31.046-53.6 31.046zm0 63.287l-26.8-15.523 53.6-31.046 53.6 31.145-26.8 15.524-26.8 15.523zm.1 63.187l-26.8-15.523 53.6-31.046 53.6 31.046-53.6 31.046zm0 63.287l-26.8-15.523 53.6-31.047 53.6 31.047-53.6 31.046zm53.6 63.287l-26.8 15.523-26.8-15.523-26.8-15.524 53.6-31.046 53.6 31.146zm27.8-16.121l-26.8-15.523-26.9-15.523 53.6-31.046 53.6 31.046-26.8 15.523zm81.4 16.22l-26.8 15.424-26.8-15.523-26.8-15.524 53.6-31.046 53.6 31.046zm27.7-16.12l-26.8-15.523-26.8-15.623 53.6-31.046 53.6 31.046-26.8 15.523zm81.4 16.12l-26.8 15.523-53.6-31.046 53.6-31.046 53.6 31.046zm27.7-16.021l-53.6-31.046 53.6-31.046 53.6 31.046-26.8 15.523zm81.4 16.121l-26.8 15.523-26.8-15.523-26.8-15.524 53.6-31.046 53.6 31.046zm27.8-16.021l-53.6-31.046 26.8-15.524 26.8-15.523 26.8 15.523 26.8 15.524-26.8 15.523zm54.6 31.643l-26.8-15.523-26.9-15.623 53.6-31.046 53.6 31.046zm54.5-31.643l-53.6-31.046 26.8-15.524 26.8-15.523 26.8 15.523 26.8 15.524-26.8 15.523zm81.4 16.12l-26.8 15.523-53.6-31.046 53.6-31.046 53.6 31.046zm27.8-16.021l-26.9-15.523-26.8-15.622 26.8-15.524 26.8-15.523 26.8 15.523 26.8 15.524-26.7 15.622zM771 412.75l-26.8 15.523-26.8-15.523-26.8-15.524 53.6-31.046 53.6 31.046zm27.8-16.021L772 381.106l-26.8-15.523 53.6-31.046 53.6 31.046-26.8 15.523zm81.4 16.12l-26.8 15.523-53.6-31.046 53.6-31.046 53.6 31.046zm27.7-16.12l-53.6-31.046 53.6-31.047 53.6 31.047-26.8 15.523zm81.4 16.22l-26.8 15.523-26.8-15.523-26.8-15.524 53.6-31.046 53.6 31.046zm27.8-16.121l-53.6-31.046 53.6-31.046 53.6 31.046-26.8 15.523zm81.4 16.121l-26.8 15.523-26.8-15.523-26.8-15.524 53.6-31.046 53.6 31.046zm27.7-16.021l-53.6-31.046 26.8-15.524 26.8-15.523 26.8 15.523 26.8 15.524-26.8 15.523zm54.6 31.643l-53.6-31.046 53.6-31.046 53.6 31.046zm.9-62.689l26.8-15.524 26.8-15.523 26.8 15.523 26.8 15.524-53.6 31.046zm135 47.266l-26.8 15.523-26.8-15.523-26.8-15.524 53.6-31.046 53.6 31.046zm54.6-62.69l26.8 15.523-53.6 31.046-53.6-31.046 53.6-31.046zm0-63.187l26.8 15.523-53.6 31.046-53.6-31.046 53.6-31.046zm-.1-63.287l26.8 15.523-53.6 31.047-53.6-31.047 53.6-31.046zm0-63.187l26.8 15.523-53.6 31.046-53.6-31.046 53.6-31.046zm0-63.287l26.8 15.523-26.8 15.524-26.8 15.523-26.8-15.523-26.8-15.524 53.6-31.046zm0-63.187l26.8 15.523-53.6 31.046-53.6-31.046 53.6-31.046zm0-63.287L1398-13.44l-53.6 31.046-26.8-15.523-26.8-15.524 53.6-31.046zm-.1-63.187l26.9 15.524-53.6 31.047-53.6-31.047 53.6-31.046 26.7 15.523zm0-63.287l26.8 15.524-53.6 31.046-53.6-31.046 26.8-15.524 26.8-15.523zm0-63.187l26.8 15.523-26.8 15.524-26.8 15.523-26.8-15.523-26.8-15.524 53.6-31.046zm0-63.286l26.8 15.523-53.6 31.046-53.6-31.046 53.6-31.047z" fill="url(#c)"/></g></svg>