<svg height="512" viewBox="0 0 512.473 512.473" width="512" xmlns="http://www.w3.org/2000/svg"><path d="M401.665 155.604l46.884-46.884v32.187c0 17.586 14.257 31.843 31.843 31.843 17.587 0 31.843-14.257 31.843-31.843V31.843C512.236 14.257 497.98 0 480.393 0H371.329c-17.587 0-31.843 14.257-31.843 31.843s14.257 31.843 31.843 31.843h32.187l-46.884 46.884c-87.309-65.453-211.706-58.494-291.109 20.91-87.049 87.049-87.049 228.184 0 315.233s228.184 87.049 315.233 0c79.404-79.403 86.363-203.8 20.909-291.109zM110.557 401.68c-62.078-62.078-62.078-163.088 0-225.167s163.088-62.078 225.167 0 62.078 163.088 0 225.167-163.089 62.078-225.167 0z" fill="#a3defe"/><path d="M223.201 448.786c-87.792 0-159.217-71.425-159.217-159.217-15.329 19.368-44.279 20.611-61.211 2.629l-2.475-2.629c0 123.106 99.797 222.904 222.904 222.904-19.981-16.44-20.061-47.006-.165-63.549z" fill="#7acefa"/><ellipse cx="141.091" cy="297.615" fill="#ffa1ac" rx="30.274" ry="24.109"/><ellipse cx="305.189" cy="297.615" fill="#ffa1ac" rx="30.274" ry="24.109"/><path d="M247.549 279.091c0-15.085-10.928-16.502-24.409-16.502-13.48 0-24.409 1.417-24.409 16.502s10.928 27.313 24.409 27.313c13.48 0 24.409-12.229 24.409-27.313z" fill="#423e4f"/><g><path d="M146.152 276.332a7.5 7.5 0 01-7.5-7.5V256.47a7.5 7.5 0 0115 0v12.362a7.5 7.5 0 01-7.5 7.5z" fill="#495560"/></g><g><path d="M300.127 276.332a7.5 7.5 0 01-7.5-7.5V256.47a7.5 7.5 0 0115 0v12.362a7.5 7.5 0 01-7.5 7.5z" fill="#495560"/></g></svg>