<svg xmlns="http://www.w3.org/2000/svg" width="47.996" height="47.996"><defs><radialGradient id="a" cx=".5" cy=".5" r=".678" gradientUnits="objectBoundingBox"><stop offset="0" stop-color="#fbfcfe"/><stop offset=".443" stop-color="#fff" stop-opacity=".702"/><stop offset="1" stop-color="#66c4c5"/></radialGradient></defs><g transform="translate(10102 18)"><rect width="47.996" height="47.996" rx="23.998" transform="translate(-10102 -18)" fill="url(#a)"/><g fill="#3c9d9e"><path d="M-10089.733 4.363h-2.934a1.839 1.839 0 00-1.833 1.833v15.8a1.839 1.839 0 001.833 1.837h2.934A1.839 1.839 0 00-10087.9 22V6.196a1.827 1.827 0 00-1.833-1.833z" opacity=".08"/><path d="M-10076.533-1.485h-2.934a1.839 1.839 0 00-1.833 1.833V22a1.839 1.839 0 001.833 1.833h2.934A1.839 1.839 0 00-10074.7 22V.348a1.839 1.839 0 00-1.833-1.833z" opacity=".14"/><path d="M-10063.333-7.333h-2.934a1.839 1.839 0 00-1.833 1.833V22a1.839 1.839 0 001.833 1.833h2.934A1.839 1.839 0 00-10061.5 22V-5.5a1.839 1.839 0 00-1.833-1.833z" opacity=".18"/></g><path d="M-10095 21.669s13.348-11.113 18.4-18.341a56.71 56.71 0 01-9.325.532c.379-.18 12.449-6.026 21.125-14.86 0 0-6.35 18.211-18.53 32.669zm25.491-14.36a.41.41 0 01.028-.1c.015-.041.022-.069.031-.088v-.008l.013-.044c.063-.155.1-.274.143-.369a3.358 3.358 0 00.113-.384l.134-.4c.012 0 .018-.008.019-.03a.24.24 0 000-.036 3.647 3.647 0 01.211-.813c.164-.485.3-.74.413-.756l-.014-.015c.014-.022.076-.044.179-.08a.571.571 0 01.167-.046l.006.067a2.2 2.2 0 01-.093.539 5.5 5.5 0 00-.134.536c-.02.007-.028.031-.028.065a.166.166 0 01-.029.059c-.016.04-.022.067 0 .08-.018.029-.039.049-.054.073l-.007.063c-.012 0-.021 0-.027.012s0 0 .008 0h.014l-.068.229h.019a.153.153 0 00.127-.1c.036-.067.072-.13.109-.192.078-.1.187-.225.322-.385.068-.078.131-.157.206-.235a1.294 1.294 0 01.335-.428.574.574 0 01.343-.1l.053.012v.038a.331.331 0 01-.049.165 1.173 1.173 0 00-.1.151l-.017.009a.3.3 0 01-.026.076.19.19 0 01-.047.065.022.022 0 000 .015h.01c-.043.117-.073.206-.094.268a.964.964 0 00-.061.266.329.329 0 01-.029.115.424.424 0 00-.027.111.282.282 0 01-.043.089.122.122 0 00-.023.057l.011.028.034-.007c.1-.132.231-.31.413-.53.135-.175.276-.346.42-.517h.014l.4-.483c.028-.033.054-.068.085-.1s.071-.068.08-.06a.408.408 0 01.119-.1.213.213 0 01.147-.046l.015-.024.057-.012.026.059c.007 0 .013.012.019.015a.279.279 0 00.062.009c.013.022.026.034.035.026l-.044.059a.057.057 0 01-.01.034.106.106 0 01-.026.037l-.044.036a.038.038 0 01-.023.011v.012c-.046.044-.076.075-.1.094a.083.083 0 00-.031.049l-.129.123v.018a.245.245 0 01-.166.1l.018.013h.051l-.022.011a.033.033 0 00-.025.011c-.029.024-.052.051-.08.074l.02.009-.032.056c-.014 0-.045.026-.094.076a.214.214 0 00-.07.124h-.03a.164.164 0 01-.059.014.077.077 0 00.021.031l-.021.023c-.042.007-.061.022-.061.041h.015v-.013c.012 0 .02.008.02.013l.011.011-.059.021c-.022.035-.048.066-.07.1l-.054.017.014.032c0 .01-.013.025-.031.039a.078.078 0 00-.031.043c0 .007-.014.012-.043.015l-.028.037.007.009-.062.065-.025.007a.125.125 0 01-.082.077l-.038.076a.628.628 0 01-.048.077.037.037 0 00-.014.019l-.036.035.005.015-.062.037-.055.1c-.013 0-.022 0-.027.015a.148.148 0 00-.022.054h-.02l-.033.036c-.021.021-.022.041-.027.041l-.017.042a.827.827 0 00-.1.135l.014.026-.049.026-.038.062-.021.011v.021h-.046l.009.014.038.015-.026.015c-.013.006-.02.031-.02.066l-.029.027-.038.093-.032.011v.059a.22.22 0 00-.034.022c-.01.009-.012.016 0 .024a.586.586 0 00-.055.072c-.023.027-.041.041-.054.035a.531.531 0 01-.141.119.283.283 0 01-.157.044l-.065-.014-.006-.1.009-.251v-.039c.011-.031.019-.06.031-.089a.852.852 0 01.036-.083l-.022-.035a.7.7 0 00.028-.1c.01-.036.01-.062.018-.085h.02c.008-.047.019-.093.026-.139a1.1 1.1 0 01.039-.134v-.015c-.008-.032-.011-.046 0-.052l.027-.041a.037.037 0 010-.046.17.17 0 00.015-.041.558.558 0 01.033-.16 1.107 1.107 0 00.034-.113 3.513 3.513 0 00-.245.3 3.048 3.048 0 01-.378.448.082.082 0 01-.026.047c-.02.025-.032.034-.035.034l-.1.129a.284.284 0 00-.081.149l-.069.046c-.011.008-.007.015.011.028s.021.014.02.023a.13.13 0 01-.037.049.32.32 0 01-.043.056l.022.015c0 .006-.013.01-.044.015l-.01.069-.053.038a.019.019 0 00-.026.007v.007a.346.346 0 000 .043l-.034.027c-.007 0-.012 0-.013-.018l-.011-.021-.043.1h-.085l-.026.049a.056.056 0 01-.049.013.077.077 0 01-.029 0l-.034.034-.036-.007a.143.143 0 01-.1.066.153.153 0 00-.091.009zm5.47-.112l-.037-.058a.75.75 0 01.125-.266c.032-.049.067-.1.1-.157h.014v.008a.685.685 0 01.06-.1.61.61 0 00.055-.081c.027-.035.049-.058.059-.075a.583.583 0 00.055-.086.1.1 0 01.028-.027l.216-.3a.134.134 0 01.04-.031 1.27 1.27 0 01.077-.118c.045-.059.072-.086.093-.09a1.31 1.31 0 01.114-.165c.049-.057.094-.112.142-.171l.085-.1.03-.009.04-.075c.013 0 .025-.012.04-.018a.613.613 0 01.1-.165l.005-.021a.7.7 0 00.119-.117c.036-.038.075-.082.114-.128a4.015 4.015 0 00.309-.345.92.92 0 00.081-.086 1.534 1.534 0 00.121-.164l.013.015a.432.432 0 01.139-.067.777.777 0 00.124-.042l.04-.018h.038l.013-.015.1-.009.04.012a.134.134 0 01-.023.092h.016l.014.011h-.022c-.022.1-.041.2-.065.3a1.206 1.206 0 01-.079.281c.005 0 .012 0 .02.008s.007.013 0 .023l-.043.079.023.059c-.008.034-.014.068-.019.1l-.021.127-.035.043v.114h-.019l.015.052a.313.313 0 00-.022.08.4.4 0 01-.008.067l.012.068-.031.04a.174.174 0 00.011.045l.008.037a.028.028 0 01-.019.031V5.77l-.008.006c0 .03.012.037.032.033 0 .015-.009.07-.017.164s-.015.144-.015.147a.116.116 0 000 .043l-.054.034v.052l.039-.008a.024.024 0 01.019.038.145.145 0 01-.022.04l.038.036c.008.013 0 .022-.015.025s-.022.008-.022.015v.015a.082.082 0 01.026.027s-.008.014-.026.008V6.5c0 .03.006.058.012.086a.092.092 0 00-.027.055c0 .015.007.019.023.022a.029.029 0 01.029.028h-.018a.265.265 0 010 .135.958.958 0 01-.051.145l-.06-.012a.131.131 0 00-.015.027.024.024 0 01-.034.014h-.005l-.021.055c-.088.049-.178.093-.266.142a.187.187 0 01-.117-.135.612.612 0 01-.04-.229 1.09 1.09 0 01.011-.121c.007-.041.011-.076.013-.091a.5.5 0 01.017-.053.041.041 0 00-.009-.043v-.067l.026-.017c-.012-.016-.017-.022-.026-.019v-.193l-.066-.006-.049.018c-.01-.012-.016-.014-.022-.014s-.014.006-.019.023h-.045a.059.059 0 01-.016-.021.075.075 0 01-.054.036.339.339 0 01-.059.015l.006-.031a.028.028 0 010-.017h-.021c-.008 0-.017.01-.033.022a.255.255 0 01-.148.045 1.24 1.24 0 00-.062.035.348.348 0 01-.049.039l-.076-.044a.237.237 0 00-.03.063l-.065.015h-.031l-.07.034-.023.052-.033-.008-.034.015-.013.067a.381.381 0 01-.053.061.286.286 0 01-.066.043l-.008.034h.032a.135.135 0 01-.016.037c-.01.007-.014 0-.019-.007a.17.17 0 00-.062.128.514.514 0 00-.111.057c-.044.031-.067.058-.072.085l-.076.067c-.008 0-.013 0-.017-.013l-.006-.015-.207.1-.093.053zm1.939-2.129a.864.864 0 01-.08.111.356.356 0 00-.075.122.309.309 0 00-.075.062.919.919 0 01-.1.132.533.533 0 01-.129.18l-.041.1a.718.718 0 00.157-.016c.17-.033.262-.055.27-.055l.022-.007q.041-.252.086-.5l.039-.171a.1.1 0 01-.074.042zm-4.072 2.11a.867.867 0 01-.137 0l-.127-.043a.391.391 0 01-.1-.189.9.9 0 01.123-.267.324.324 0 00.059-.139c0-.005.008-.012.028-.03a.047.047 0 00.018-.043v.006l.038-.025v-.027c.026-.048.047-.078.059-.1a1.079 1.079 0 01.066-.112c.026-.048.053-.094.079-.149h.023l.019-.074.029-.007.038-.091c.013 0 .023-.024.041-.06a2.344 2.344 0 01.227-.408q.427-.653.444-.681l.013-.018-.008-.013-.049.009-.071-.009-.059-.049a.577.577 0 01.087-.162.565.565 0 01.116-.133c.006-.015.008-.026.018-.031s.005 0 .005 0a.572.572 0 01.329-.153 2.6 2.6 0 01.5-.05.446.446 0 01.069 0 .6.6 0 01.09.005l.127.01a.309.309 0 01.1.03l.02.025h.019v-.01a1.078 1.078 0 01.1.035.593.593 0 01.1.057v.025h.023a.04.04 0 01.034.023c.013.019.025.022.035.006l.031.046h.016l.01.014a.111.111 0 00.032.059c.025.023.037.038.039.052l-.039.021.031.037.016.007a.059.059 0 01-.033.051h.07v.019h-.019s-.008.013-.011.039h.011l.018-.009s-.011.015-.04.036a.073.073 0 000 .02l-.033.043h.075c-.007 0-.013.015-.013.035s0 .031-.011.031h-.046v.02l.015.014a.272.272 0 01.059-.029.086.086 0 01-.074.075.031.031 0 010 .042.046.046 0 00-.023.026h.023l.089-.045-.031.022v.009l-.049.041h-.026l-.031.074-.049.039v.034l.047-.011.011.076h-.041a.038.038 0 01-.01.023.023.023 0 01-.028 0l.041.034v.033c0 .039-.019.058-.062.058l.006.038a.128.128 0 01-.112.008.029.029 0 000 .03l.012.019v.039l-.054.022-.027.008h.046l.032.008.03-.034.02.026-.048.051-.1.006a.1.1 0 00-.018.058h.015l.031-.02v.023a.2.2 0 01-.065 0l-.055.048v.03l.055.007-.094.031-.031.05c.007.009 0 .015-.013.024l-.067.012v.029l.085.015.039-.03-.035.065a.322.322 0 01-.039-.013.145.145 0 01-.053.059.268.268 0 01-.1.037.039.039 0 00.012.015.065.065 0 01.029.008l-.059.021-.031.052-.042.011c-.023.032-.032.051-.031.055h-.045c.014.02.011.031 0 .031a.169.169 0 01-.052 0l-.071.012v.022h.039a.048.048 0 00-.027.049l-.044.013a.021.021 0 00-.011.015h-.034l-.008.027a.086.086 0 01-.034.023.048.048 0 01-.022 0l-.009-.015-.026.06h-.072c0 .028-.026.046-.068.065a.188.188 0 00.032.033l-.049-.011-.049.026v.021h.027c.005 0 .006 0 .006.012l-.037.014a.268.268 0 00-.032.031.154.154 0 01-.054.007.068.068 0 00-.013.032.4.4 0 00-.072.023.081.081 0 00-.041.048l-.021-.011c-.031 0-.05.018-.065.051h-.044a1.17 1.17 0 01-.205.128.613.613 0 01-.229.1.487.487 0 01-.206.124 1.171 1.171 0 01-.238.074.087.087 0 00-.054-.006zm.472-.571v.034l.031.013.09-.013.041-.034h.029c.014-.008.049-.023.111-.051a.234.234 0 00.119-.065h.039s.008-.014.008-.036a.8.8 0 00.121-.043l.029-.028.009-.03a.145.145 0 00.073-.019h.012a.333.333 0 01.088-.093.658.658 0 01.117-.068v-.031a1.519 1.519 0 00.165-.128c.041-.041.091-.1.148-.16l.115-.153c.036-.049.073-.112.116-.182h.022a.27.27 0 01.028-.122.3.3 0 01.061-.112v-.02l.022-.015a.286.286 0 010-.1c.01-.044.019-.1.028-.152a.356.356 0 00-.131-.288.477.477 0 00-.32-.11l-.1.012a.056.056 0 01.022.035c-.022 0-.031.018-.044.048a.172.172 0 00-.01.077.081.081 0 00-.031.091l-.033.012-.008.023a.015.015 0 00-.015 0c-.007 0-.007.009 0 .02l-.034.06v.031l-.043.015v.04l-.044.011-.011.035.024.037-.01.012-.068.009v.014l.012.031.045-.011a.218.218 0 00-.049.047.2.2 0 00-.031.058l-.026.046h-.017l-.014.024h-.018l-.009.033.018.007.041-.015a.082.082 0 01-.072.041v.048h-.018v-.013c0-.006 0-.013-.013-.013l-.011.018.023.026.009.02-.046.07-.011.013-.049.011-.029.07.028.065h-.08l-.007.012.038.022h.022a.16.16 0 01-.05.031.448.448 0 01-.065.015l-.013.031.007.025.023-.022h.036v.023l-.017.023h-.046v.018l-.039.01c.006.013.01.022.014.022l.009.012-.053.019v-.02a.2.2 0 00-.073.116l-.036.007v.041a.234.234 0 01.094-.033l.008.008-.04.02a.107.107 0 01-.076.075l.01.021-.049.031-.008.037h.031l.016-.023.01.017a.035.035 0 00-.012.034l-.039-.013c-.041.021-.065.04-.071.059v.029l.012-.014.01-.007.046-.012.017-.013-.039.06-.034.006h.015v.032l-.025.049-.04-.011-.032.011v.059l-.015.007-.01.028h.022zm.014-.023s-.006.015-.012.019zm-.62-.13a.089.089 0 010 .013zm2.327-.6l-.014.025zm-21.95-1.994h.009-.009z" fill="#d35161"/><path d="M-10081.312 19.095c5.008 2.179 7.276 1.065 8.853-1.14 1.824-2.549-1.432-7.143-7.277-10.261-5.669-3.031-11.694-3.543-13.7-1.231a3.493 3.493 0 01.258-.413c2.331-3.267 10.294-2.683 17.779 1.308s11.661 9.885 9.325 13.156-8.8 4.2-15.99-.275" fill="#2f2c4b"/><path d="M-10083.941-12.208a5.818 5.818 0 00-3.85-3.85c-1.375-.4-2.325-.367-2.984.125a2.9 2.9 0 00-.883 2.416v2.075c0 2.05.933 3.092 2.767 3.092h2.391a2.912 2.912 0 002.417-.883c.508-.65.55-1.6.142-2.975z" fill="#499894"/><path d="M-10086.241-6.867a1.14 1.14 0 00-.858-.392h-2.984a2.66 2.66 0 01-2.658-2.658V-12.9a1.14 1.14 0 00-.39-.859 1.129 1.129 0 00-.894-.275 7.277 7.277 0 00-4.933 2.942A7.194 7.194 0 00-10094.491.2a6.989 6.989 0 001.375.133 7.082 7.082 0 004.208-1.376 7.277 7.277 0 002.942-4.933 1.12 1.12 0 00-.275-.891z" fill="#a3ccc9"/></g></svg>