<svg xmlns="http://www.w3.org/2000/svg" width="561.996" height="47.996"><defs><radialGradient id="a" cx=".5" cy=".5" r=".678" gradientUnits="objectBoundingBox"><stop offset="0" stop-color="#fbfcfe"/><stop offset=".443" stop-color="#fff" stop-opacity=".702"/><stop offset="1" stop-color="#66c4c5"/></radialGradient></defs><path d="M511.402 44.448l.066-.092a14.725 14.725 0 001.809-3.368 11.747 11.747 0 00.576-3.7v-8.474h.123a32.541 32.541 0 007.668-1l.092-.026.963 1.59-.162.046a33.143 33.143 0 01-6.854.963v3.648h7.775v1.789h-2.635v9.57h-1.834v-9.57h-3.307v1.468a13.028 13.028 0 01-.76 4.392 15.648 15.648 0 01-2.109 3.888l-.082.107zm-79.395-.632l.127-.041a5.291 5.291 0 003.094-2.018 7.175 7.175 0 00.932-2.461h-1.707v-10.96h8.908v10.961h-2.09v3.9c0 .265.057.346.092.352l.021.005.02.015a1.337 1.337 0 00.535.051c.643 0 .779-.133.811-.194v-.015l.012-.01a2.006 2.006 0 00.275-.887c.045-.29.1-.769.146-1.432l.016-.194 1.7.892-.016.087c-.215 1.651-.5 2.624-.893 2.966a1.057 1.057 0 01-.779.382 5.067 5.067 0 01-1.273.1 4.846 4.846 0 01-1.3-.138c-.789-.1-1.191-.657-1.191-1.661v-4.219h-1.5a9.369 9.369 0 01-1.187 3.429 6.841 6.841 0 01-4.025 2.736l-.113.031zm4.275-6.212h5.248v-1.5h-5.248zm0-3.022h5.248V33.16h-5.248zm0-2.981h5.248v-1.554h-5.248zm32.674 13.86v-10.3a21.261 21.261 0 01-1.51 2.059l-.121.148-.953-1.834.051-.061a24.88 24.88 0 004.047-7.934l.035-.117 1.824.5-.041.122a27.373 27.373 0 01-1.5 3.786v13.632zm-39.4 0v-7.989a9.208 9.208 0 01-1.619 1.131l-.107.056-1.029-1.819.117-.056a9.511 9.511 0 002.885-2.191 13.847 13.847 0 001.752-2.334h-4.332v-1.773h3.021a8.029 8.029 0 00-1.309-1.855l-.1-.112 1.473-.973.07.076a9.928 9.928 0 011.469 1.921l.061.107-1.381.836h3.123v1.676l-.016.031a20.5 20.5 0 01-2.2 3.368 28.551 28.551 0 012.8 2.482l.072.076-1.131 1.585-.107-.127a20.894 20.894 0 00-1.678-1.789v7.679zm-77.137 0v-3.317a32.815 32.815 0 01-3.76 1.248l-.117.031-.506-1.666.129-.031.941-.24V30.124h-.754v-1.559h6.518v.759h2.227a11.85 11.85 0 00-.285-1.106l-.041-.127 1.646-.464.041.107a8.041 8.041 0 01.438 1.59h2.3v1.559h-.77c-.072.479-.164.978-.266 1.5a17.53 17.53 0 01-.26 1.045h1.416c-.045-1.6-.076-3.526-.086-5.722v-.138l1.621.178v.112c0 2.191.02 4.066.055 5.57h3.033v1.559h-2.992c.025.932.066 1.692.111 2.257s.082 1.075.133 1.564a25.643 25.643 0 001.07-3.536l.031-.138 1.518.56-.025.107a23.99 23.99 0 01-2.094 5.865 3.824 3.824 0 00.535 1.468.863.863 0 00.076-.214v-.005a12.274 12.274 0 00.24-1.84l.016-.2 1.619.983-.016.087a8.209 8.209 0 01-.8 2.66 1.323 1.323 0 01-1.121.708c-.266 0-.7-.209-1.457-2v-.005l-.035-.112a12.754 12.754 0 01-2.064 2.161l-.107.087-.967-1.442.092-.071c.146-.122.289-.245.422-.367h-4.973v-7.633h5.5v7.068a10.956 10.956 0 001.459-1.916 27.564 27.564 0 01-.443-2.66c-.113-.82-.205-1.982-.281-3.44h-7.23v-1.559h1.955c-.1-.882-.229-1.732-.4-2.543h-.887v-.759h-.713v15.34zm4.316-3.363h2.328v-1.646h-2.328zm-6.008-1.024c.586-.168 1.15-.341 1.691-.515v-2.461h-1.691zm6.008-2.028h2.328v-1.631h-2.328zm-6.008-2.431h1.691v-2.543h-1.691zm6.914-3.19h.77c.092-.433.178-.887.26-1.34.066-.4.127-.805.184-1.2h-1.6a24.73 24.73 0 01.387 2.541zm-6.914-.836h1.691v-2.466h-1.691zm43.822 12v.479h-1.738v-.836h-2.609v1.009h-1.773v-6.782h6.121v5.172a12.526 12.526 0 001.074-3.078 19.461 19.461 0 00.428-4.1v-8.117h1.738v8.117a21.707 21.707 0 01-.605 5.289 12.679 12.679 0 01-1.428 3.587l-.076.117zm-4.348-2.028h2.609v-2.429h-2.609zm96.109 1.371l.137-.066a11.016 11.016 0 003.984-3.062 8.8 8.8 0 001.447-4.372h-2.939v-1.839a13.439 13.439 0 01-1.779 1.661l-.1.076-1.2-1.559.092-.076a23.169 23.169 0 002.992-3.175 17.966 17.966 0 002.186-3.465l.061-.127 1.625.963-.045.1a20.126 20.126 0 01-2.35 3.862 37.324 37.324 0 01-1.482 1.732h10.92a8.968 8.968 0 01-.734-.983 12.808 12.808 0 01-1.723-3.7h-2.062v-1.845h3.693l.016.1a10.084 10.084 0 001.523 4.163 10.734 10.734 0 003.018 2.966l.133.092-1.555 1.391-.082-.061a15.463 15.463 0 01-1.682-1.513c-.02 5.417-.26 8.352-.734 8.963a2.114 2.114 0 01-2.021 1.08 15.774 15.774 0 01-2.125-.173l-.088-.01-.457-2.018.188.036a13.4 13.4 0 002.309.245c.279 0 .469-.183.576-.555v-.005a41.545 41.545 0 00.367-6.329h-4.668a9.869 9.869 0 01-1.809 5.554 11.947 11.947 0 01-4.412 3.394l-.092.046zm-39.062-.224l.152-.01a9.317 9.317 0 003.842-.78l.01-.005a2.591 2.591 0 00.725-.484h-2.758v-6.93h12.373v6.93h-3.389v.846c0 .245.438.316.8.331q.428.015 1.162.015a14.853 14.853 0 002.012-.066.5.5 0 00.348-.367l.01-.02.01-.02a3.369 3.369 0 00.168-1.08l.016-.194 1.6.9-.006.082c-.107 1.034-.352 1.671-.754 1.947l-.01.01a3.132 3.132 0 01-1.039.26 19.883 19.883 0 01-2.35.076c-.6 0-1.152-.01-1.625-.036-1.393-.041-2.1-.5-2.1-1.361v-1.32h-2.4a4.39 4.39 0 01-1.67 1.789 11.081 11.081 0 01-4.607 1.172l-.1.01zm3.729-2.665h8.877v-.586h-8.877zm0-1.845h8.877v-.581h-8.877zm0-1.819h8.877v-.51h-8.877zm107.486 8.015v-1.238h-9.615v1.238h-1.828v-8.851h13.273v8.851zm-9.615-2.93h9.615v-4.212h-9.615zm-15.766 2.93v-6.3h-7.551v-1.845h7.551v-6.91h-6.629v-1.845h15.215v1.845h-6.6v6.91h7.582v1.845h-7.582v6.3zm-24.352 0v-7.922c-.07.189-.148.377-.229.555a15.434 15.434 0 01-1.729 3.21l-.08.122-1.295-1.259.061-.092a19.055 19.055 0 002.135-3.827 18.474 18.474 0 001.051-3.414h-2.682v-1.845h2.768v-3.266h1.773v3.266h2.543v1.845h-2.543v.764a40.107 40.107 0 012.676 3.908l.041.066-1.2 1.707-.092-.194c-.475-1-.947-1.936-1.422-2.772v9.147zm-90.457 0v-5.07a14.752 14.752 0 01-1.131 1.732 13.667 13.667 0 01-2.666 2.706l-.1.071-1.061-1.422.117-.071a6.978 6.978 0 00.816-.627l-1.172.362-.021-.143a10.061 10.061 0 00-.744-2.624l-.061-.133 1.467-.453.047.1a12.134 12.134 0 01.82 2.583 14.218 14.218 0 001.166-1.32 11.929 11.929 0 001.311-2h-2.875c.006.046.012.092.021.143l.016.1-1.51.479-.02-.153c-.031-.26-.066-.51-.1-.744a22.653 22.653 0 01-4.5 1l-.107.015-.443-1.631.047-.051a22.209 22.209 0 002.705-3.72 27.42 27.42 0 01-2.354.377l-.117.015-.275-1.559.035-.041a17.435 17.435 0 002.635-5.58l.035-.122 1.748.55-.041.122a24.386 24.386 0 01-1.723 3.949 10.239 10.239 0 01-.637.943c.561-.025 1.07-.071 1.52-.133a39.71 39.71 0 001.115-2.344l.047-.107 1.451.535V29.64h4.535v-2h1.682v2h5.045v1.671h-5.045v.907h4.367v6.859h-2.986a12.472 12.472 0 001.3 1.9 8.375 8.375 0 002.227 1.89l.1.061-.949 1.824-.117-.082a10.665 10.665 0 01-2.477-2.476 14.577 14.577 0 01-1.467-2.466v5.651zm-4.973-9.962a19.836 19.836 0 01.83 3.292v-6.492h4.143v-.907h-4.367v.02a24.527 24.527 0 01-3.145 5.529 13.807 13.807 0 01-.846 1.126 22.947 22.947 0 002.389-.581c-.131-.54-.27-1.06-.422-1.549l-.035-.122 1.416-.433zm6.654 2.023h2.609v-2.517a19.239 19.239 0 01-1.045 2.262l-.051.092-1.453-.479.082-.138a11.813 11.813 0 001.193-2.553l.035-.112 1.238.311v-.474h-2.609zm-4.066 0h2.385v-.912l-1.3.785-.051-.148a10.287 10.287 0 00-1.035-2.2zm1.182-3.419a11.9 11.9 0 011.2 2.334v-2.522h-2.385v.81l1.111-.724zm-14.318 11.358V28.127h1.758v17.264zm-26.889 0v-4.632h-2.559l1.121 1.325-.082.082a10.073 10.073 0 01-2.328 1.651 18.19 18.19 0 01-2.859 1.243l-.105.036-.766-1.733.133-.041a15.206 15.206 0 002.727-1.111 10.893 10.893 0 002.053-1.391l.072-.061h-4.937v-1.564h7.531v-1.026h-6.477v-1.636h6.477v-1.024h-7.176v-1.615h3.857a7.178 7.178 0 00-.58-.7l-.1-.107 1.137-.769h-4.592v-1.615h3.158l-.061-.122a7.438 7.438 0 00-1.258-1.814l-.1-.107 1.4-.9.066.076a8.079 8.079 0 011.375 1.865l.057.107-1.479.892h2.416v-3.057h1.732v3.057h2.014v-3.057h1.752v3.057h2.084l-1.355-1.192.127-.092a7.534 7.534 0 001.652-1.569l.07-.092 1.488.968-.082.107a8.43 8.43 0 01-1.758 1.87h3.648v1.615h-5.59l1.662.56-.057.127a8.282 8.282 0 01-.475.887h3.873v1.615h-7.078v1.024h6.254v1.641h-6.254v1.019h7.756v1.564h-7.756v4.632zm-1.273-11.491h4.264a5.81 5.81 0 00.184-.346 9.07 9.07 0 00.52-1.167l.025-.061h-6.252a9.929 9.929 0 011.26 1.571zm32.865 10.747l.037-.107a18.171 18.171 0 00.916-4.071l.016-.143 1.5.341-.006.107a17.154 17.154 0 01-.9 4.454l-.041.133zm69.158.591a3.079 3.079 0 01-1.061-.153c-.83-.041-1.248-.647-1.248-1.814V27.653h1.85v6.38h7.6v1.865h-7.6v6.69c0 .255.031.678.234.688l.031.005.029.015a1.765 1.765 0 00.785.1 26.618 26.618 0 003-.076v-.031l.117-.01a4.278 4.278 0 001.137-.219l.021-.005c.156-.026.539-.372.723-3.057l.01-.173 1.906.81-.01.092a8.458 8.458 0 01-1.061 3.745l-.01.01-.016.01a2.885 2.885 0 01-1.473.5 38.805 38.805 0 01-4.342.25zm-93.025-.122a22.129 22.129 0 00-4.418-2.854l-.137-.066 1.115-1.437.092.046a29.218 29.218 0 014.7 2.762l.111.082-1.375 1.544zm27.139-.612a13.406 13.406 0 00-.5-3.837l-.041-.133 1.428-.275.035.1a11.757 11.757 0 01.688 3.99v.112l-1.605.178zm-11.439-.861v-14.6h1.758v14.6zm-10.859-6.3v-1.692h6.121v1.692zm148.277-1.386l.063-.112a24.682 24.682 0 002.17-4.983l.041-.127 1.834.632-.035.117a26.6 26.6 0 01-2.211 5.325l-.062.1zm-7.326.826a23.3 23.3 0 00-2.156-4.912l-.072-.117 1.719-.79.055.1a25.906 25.906 0 012.35 4.958l.035.112-1.891.78zm-67.115.01v-1.734h-13.549v1.727h-1.662v-3.117h1.111l-.137-5.243.117-.015a19.68 19.68 0 004.244-.9l.1-.036.551.948.729-.866.082.031c.615.245 1.217.5 1.787.775a11.6 11.6 0 001.326-.963l.1-.081.76.953-.092.081c-.266.219-.529.438-.795.642.357.189.719.387 1.076.6l.137.076-.953 1.029-.02-.015.57.7-.092.082c-.26.219-.529.433-.8.637.393.189.779.382 1.156.581l.1.051v-.978h3l.025-.51h-3.025v-1.379h3.113l.021-.51h-3.211v-1.48h4.943l-.281 5.789h1.234v3.119zm-4.953-3.119h3.7l.029-.586h-2.93v-.28zm-.1 0l-.02-.01c-.494-.29-1.01-.571-1.535-.826a10.736 10.736 0 01-2.037.836h3.592zm-7.439 0h3.74l-.729-1.1.158-.056c.377-.127.748-.26 1.09-.4a12.95 12.95 0 00-1.09-.408l-.174-.056.77-.968.082.025c.621.209 1.232.453 1.818.719a11.771 11.771 0 001.365-.989 16.068 16.068 0 00-1.166-.647 14.476 14.476 0 01-2.262.927l-.092.031-.643-1.05.146-.051c.5-.178.969-.362 1.4-.55-.316-.138-.646-.27-.979-.4l.025.051-.143.051a16.932 16.932 0 01-3.373.805l.01.336h2.9v1.294h-2.9l.016.586h2.883v1.33h-2.863zm110.656 2.38c-.373-.545-.785-1.1-1.229-1.646-4.367.561-8.8.938-13.2 1.111l-.1.005-.4-1.778.076-.051a25.993 25.993 0 006.369-6.14l.057-.076 1.814.724-.088.127a21.456 21.456 0 01-4.187 4.637 28.95 28.95 0 01-.633.52c3-.132 6.039-.326 9.051-.566a41.284 41.284 0 00-1.732-1.86l-.107-.107 1.508-1.034.072.071a38.192 38.192 0 014.229 4.647l.07.087-1.482 1.452zm-172-1.539v-1.676h6.121v1.676zm-24.168-1.768a19.061 19.061 0 00-1.121-3.45l-.051-.112 1.355-.657.051.112a21.778 21.778 0 011.289 3.531l.031.112-1.523.606zm23.338-1.248v-1.78h2.619a10.964 10.964 0 00-.555-1.666l-.062-.138 1.906-.433.041.092a14.447 14.447 0 01.754 2.145h3.078v1.773z" fill="#1a202c" opacity=".82"/><path d="M341.5 43.996h-1v-15h1z" fill="#1a202c" opacity=".12"/><g transform="translate(10102 18)"><rect width="47.996" height="47.996" rx="23.998" transform="translate(-10102 -18)" fill="url(#a)"/><g fill="#3c9d9e"><path d="M-10089.733 4.363h-2.934a1.839 1.839 0 00-1.833 1.833v15.8a1.839 1.839 0 001.833 1.837h2.934A1.839 1.839 0 00-10087.9 22V6.196a1.827 1.827 0 00-1.833-1.833z" opacity=".08"/><path d="M-10076.533-1.485h-2.934a1.839 1.839 0 00-1.833 1.833V22a1.839 1.839 0 001.833 1.833h2.934A1.839 1.839 0 00-10074.7 22V.348a1.839 1.839 0 00-1.833-1.833z" opacity=".14"/><path d="M-10063.333-7.333h-2.934a1.839 1.839 0 00-1.833 1.833V22a1.839 1.839 0 001.833 1.833h2.934A1.839 1.839 0 00-10061.5 22V-5.5a1.839 1.839 0 00-1.833-1.833z" opacity=".18"/></g><path d="M-10095 21.669s13.348-11.113 18.4-18.341a56.71 56.71 0 01-9.325.532c.379-.18 12.449-6.026 21.125-14.86 0 0-6.35 18.211-18.53 32.669zm25.491-14.36a.41.41 0 01.028-.1c.015-.041.022-.069.031-.088v-.008l.013-.044c.063-.155.1-.274.143-.369a3.358 3.358 0 00.113-.384l.134-.4c.012 0 .018-.008.019-.03a.24.24 0 000-.036 3.647 3.647 0 01.211-.813c.164-.485.3-.74.413-.756l-.014-.015c.014-.022.076-.044.179-.08a.571.571 0 01.167-.046l.006.067a2.2 2.2 0 01-.093.539 5.5 5.5 0 00-.134.536c-.02.007-.028.031-.028.065a.166.166 0 01-.029.059c-.016.04-.022.067 0 .08-.018.029-.039.049-.054.073l-.007.063c-.012 0-.021 0-.027.012s0 0 .008 0h.014l-.068.229h.019a.153.153 0 00.127-.1c.036-.067.072-.13.109-.192.078-.1.187-.225.322-.385.068-.078.131-.157.206-.235a1.294 1.294 0 01.335-.428.574.574 0 01.343-.1l.053.012v.038a.331.331 0 01-.049.165 1.173 1.173 0 00-.1.151l-.017.009a.3.3 0 01-.026.076.19.19 0 01-.047.065.022.022 0 000 .015h.01c-.043.117-.073.206-.094.268a.964.964 0 00-.061.266.329.329 0 01-.029.115.424.424 0 00-.027.111.282.282 0 01-.043.089.122.122 0 00-.023.057l.011.028.034-.007c.1-.132.231-.31.413-.53.135-.175.276-.346.42-.517h.014l.4-.483c.028-.033.054-.068.085-.1s.071-.068.08-.06a.408.408 0 01.119-.1.213.213 0 01.147-.046l.015-.024.057-.012.026.059c.007 0 .013.012.019.015a.279.279 0 00.062.009c.013.022.026.034.035.026l-.044.059a.057.057 0 01-.01.034.106.106 0 01-.026.037l-.044.036a.038.038 0 01-.023.011v.012c-.046.044-.076.075-.1.094a.083.083 0 00-.031.049l-.129.123v.018a.245.245 0 01-.166.1l.018.013h.051l-.022.011a.033.033 0 00-.025.011c-.029.024-.052.051-.08.074l.02.009-.032.056c-.014 0-.045.026-.094.076a.214.214 0 00-.07.124h-.03a.164.164 0 01-.059.014.077.077 0 00.021.031l-.021.023c-.042.007-.061.022-.061.041h.015v-.013c.012 0 .02.008.02.013l.011.011-.059.021c-.022.035-.048.066-.07.1l-.054.017.014.032c0 .01-.013.025-.031.039a.078.078 0 00-.031.043c0 .007-.014.012-.043.015l-.028.037.007.009-.062.065-.025.007a.125.125 0 01-.082.077l-.038.076a.628.628 0 01-.048.077.037.037 0 00-.014.019l-.036.035.005.015-.062.037-.055.1c-.013 0-.022 0-.027.015a.148.148 0 00-.022.054h-.02l-.033.036c-.021.021-.022.041-.027.041l-.017.042a.827.827 0 00-.1.135l.014.026-.049.026-.038.062-.021.011v.021h-.046l.009.014.038.015-.026.015c-.013.006-.02.031-.02.066l-.029.027-.038.093-.032.011v.059a.22.22 0 00-.034.022c-.01.009-.012.016 0 .024a.586.586 0 00-.055.072c-.023.027-.041.041-.054.035a.531.531 0 01-.141.119.283.283 0 01-.157.044l-.065-.014-.006-.1.009-.251v-.039c.011-.031.019-.06.031-.089a.852.852 0 01.036-.083l-.022-.035a.7.7 0 00.028-.1c.01-.036.01-.062.018-.085h.02c.008-.047.019-.093.026-.139a1.1 1.1 0 01.039-.134v-.015c-.008-.032-.011-.046 0-.052l.027-.041a.037.037 0 010-.046.17.17 0 00.015-.041.558.558 0 01.033-.16 1.107 1.107 0 00.034-.113 3.513 3.513 0 00-.245.3 3.048 3.048 0 01-.378.448.082.082 0 01-.026.047c-.02.025-.032.034-.035.034l-.1.129a.284.284 0 00-.081.149l-.069.046c-.011.008-.007.015.011.028s.021.014.02.023a.13.13 0 01-.037.049.32.32 0 01-.043.056l.022.015c0 .006-.013.01-.044.015l-.01.069-.053.038a.019.019 0 00-.026.007v.007a.346.346 0 000 .043l-.034.027c-.007 0-.012 0-.013-.018l-.011-.021-.043.1h-.085l-.026.049a.056.056 0 01-.049.013.077.077 0 01-.029 0l-.034.034-.036-.007a.143.143 0 01-.1.066.153.153 0 00-.091.009zm5.47-.112l-.037-.058a.75.75 0 01.125-.266c.032-.049.067-.1.1-.157h.014v.008a.685.685 0 01.06-.1.61.61 0 00.055-.081c.027-.035.049-.058.059-.075a.583.583 0 00.055-.086.1.1 0 01.028-.027l.216-.3a.134.134 0 01.04-.031 1.27 1.27 0 01.077-.118c.045-.059.072-.086.093-.09a1.31 1.31 0 01.114-.165c.049-.057.094-.112.142-.171l.085-.1.03-.009.04-.075c.013 0 .025-.012.04-.018a.613.613 0 01.1-.165l.005-.021a.7.7 0 00.119-.117c.036-.038.075-.082.114-.128a4.015 4.015 0 00.309-.345.92.92 0 00.081-.086 1.534 1.534 0 00.121-.164l.013.015a.432.432 0 01.139-.067.777.777 0 00.124-.042l.04-.018h.038l.013-.015.1-.009.04.012a.134.134 0 01-.023.092h.016l.014.011h-.022c-.022.1-.041.2-.065.3a1.206 1.206 0 01-.079.281c.005 0 .012 0 .02.008s.007.013 0 .023l-.043.079.023.059c-.008.034-.014.068-.019.1l-.021.127-.035.043v.114h-.019l.015.052a.313.313 0 00-.022.08.4.4 0 01-.008.067l.012.068-.031.04a.174.174 0 00.011.045l.008.037a.028.028 0 01-.019.031V5.77l-.008.006c0 .03.012.037.032.033 0 .015-.009.07-.017.164s-.015.144-.015.147a.116.116 0 000 .043l-.054.034v.052l.039-.008a.024.024 0 01.019.038.145.145 0 01-.022.04l.038.036c.008.013 0 .022-.015.025s-.022.008-.022.015v.015a.082.082 0 01.026.027s-.008.014-.026.008V6.5c0 .03.006.058.012.086a.092.092 0 00-.027.055c0 .015.007.019.023.022a.029.029 0 01.029.028h-.018a.265.265 0 010 .135.958.958 0 01-.051.145l-.06-.012a.131.131 0 00-.015.027.024.024 0 01-.034.014h-.005l-.021.055c-.088.049-.178.093-.266.142a.187.187 0 01-.117-.135.612.612 0 01-.04-.229 1.09 1.09 0 01.011-.121c.007-.041.011-.076.013-.091a.5.5 0 01.017-.053.041.041 0 00-.009-.043v-.067l.026-.017c-.012-.016-.017-.022-.026-.019v-.193l-.066-.006-.049.018c-.01-.012-.016-.014-.022-.014s-.014.006-.019.023h-.045a.059.059 0 01-.016-.021.075.075 0 01-.054.036.339.339 0 01-.059.015l.006-.031a.028.028 0 010-.017h-.021c-.008 0-.017.01-.033.022a.255.255 0 01-.148.045 1.24 1.24 0 00-.062.035.348.348 0 01-.049.039l-.076-.044a.237.237 0 00-.03.063l-.065.015h-.031l-.07.034-.023.052-.033-.008-.034.015-.013.067a.381.381 0 01-.053.061.286.286 0 01-.066.043l-.008.034h.032a.135.135 0 01-.016.037c-.01.007-.014 0-.019-.007a.17.17 0 00-.062.128.514.514 0 00-.111.057c-.044.031-.067.058-.072.085l-.076.067c-.008 0-.013 0-.017-.013l-.006-.015-.207.1-.093.053zm1.939-2.129a.864.864 0 01-.08.111.356.356 0 00-.075.122.309.309 0 00-.075.062.919.919 0 01-.1.132.533.533 0 01-.129.18l-.041.1a.718.718 0 00.157-.016c.17-.033.262-.055.27-.055l.022-.007q.041-.252.086-.5l.039-.171a.1.1 0 01-.074.042zm-4.072 2.11a.867.867 0 01-.137 0l-.127-.043a.391.391 0 01-.1-.189.9.9 0 01.123-.267.324.324 0 00.059-.139c0-.005.008-.012.028-.03a.047.047 0 00.018-.043v.006l.038-.025v-.027c.026-.048.047-.078.059-.1a1.079 1.079 0 01.066-.112c.026-.048.053-.094.079-.149h.023l.019-.074.029-.007.038-.091c.013 0 .023-.024.041-.06a2.344 2.344 0 01.227-.408q.427-.653.444-.681l.013-.018-.008-.013-.049.009-.071-.009-.059-.049a.577.577 0 01.087-.162.565.565 0 01.116-.133c.006-.015.008-.026.018-.031s.005 0 .005 0a.572.572 0 01.329-.153 2.6 2.6 0 01.5-.05.446.446 0 01.069 0 .6.6 0 01.09.005l.127.01a.309.309 0 01.1.03l.02.025h.019v-.01a1.078 1.078 0 01.1.035.593.593 0 01.1.057v.025h.023a.04.04 0 01.034.023c.013.019.025.022.035.006l.031.046h.016l.01.014a.111.111 0 00.032.059c.025.023.037.038.039.052l-.039.021.031.037.016.007a.059.059 0 01-.033.051h.07v.019h-.019s-.008.013-.011.039h.011l.018-.009s-.011.015-.04.036a.073.073 0 000 .02l-.033.043h.075c-.007 0-.013.015-.013.035s0 .031-.011.031h-.046v.02l.015.014a.272.272 0 01.059-.029.086.086 0 01-.074.075.031.031 0 010 .042.046.046 0 00-.023.026h.023l.089-.045-.031.022v.009l-.049.041h-.026l-.031.074-.049.039v.034l.047-.011.011.076h-.041a.038.038 0 01-.01.023.023.023 0 01-.028 0l.041.034v.033c0 .039-.019.058-.062.058l.006.038a.128.128 0 01-.112.008.029.029 0 000 .03l.012.019v.039l-.054.022-.027.008h.046l.032.008.03-.034.02.026-.048.051-.1.006a.1.1 0 00-.018.058h.015l.031-.02v.023a.2.2 0 01-.065 0l-.055.048v.03l.055.007-.094.031-.031.05c.007.009 0 .015-.013.024l-.067.012v.029l.085.015.039-.03-.035.065a.322.322 0 01-.039-.013.145.145 0 01-.053.059.268.268 0 01-.1.037.039.039 0 00.012.015.065.065 0 01.029.008l-.059.021-.031.052-.042.011c-.023.032-.032.051-.031.055h-.045c.014.02.011.031 0 .031a.169.169 0 01-.052 0l-.071.012v.022h.039a.048.048 0 00-.027.049l-.044.013a.021.021 0 00-.011.015h-.034l-.008.027a.086.086 0 01-.034.023.048.048 0 01-.022 0l-.009-.015-.026.06h-.072c0 .028-.026.046-.068.065a.188.188 0 00.032.033l-.049-.011-.049.026v.021h.027c.005 0 .006 0 .006.012l-.037.014a.268.268 0 00-.032.031.154.154 0 01-.054.007.068.068 0 00-.013.032.4.4 0 00-.072.023.081.081 0 00-.041.048l-.021-.011c-.031 0-.05.018-.065.051h-.044a1.17 1.17 0 01-.205.128.613.613 0 01-.229.1.487.487 0 01-.206.124 1.171 1.171 0 01-.238.074.087.087 0 00-.054-.006zm.472-.571v.034l.031.013.09-.013.041-.034h.029c.014-.008.049-.023.111-.051a.234.234 0 00.119-.065h.039s.008-.014.008-.036a.8.8 0 00.121-.043l.029-.028.009-.03a.145.145 0 00.073-.019h.012a.333.333 0 01.088-.093.658.658 0 01.117-.068v-.031a1.519 1.519 0 00.165-.128c.041-.041.091-.1.148-.16l.115-.153c.036-.049.073-.112.116-.182h.022a.27.27 0 01.028-.122.3.3 0 01.061-.112v-.02l.022-.015a.286.286 0 010-.1c.01-.044.019-.1.028-.152a.356.356 0 00-.131-.288.477.477 0 00-.32-.11l-.1.012a.056.056 0 01.022.035c-.022 0-.031.018-.044.048a.172.172 0 00-.01.077.081.081 0 00-.031.091l-.033.012-.008.023a.015.015 0 00-.015 0c-.007 0-.007.009 0 .02l-.034.06v.031l-.043.015v.04l-.044.011-.011.035.024.037-.01.012-.068.009v.014l.012.031.045-.011a.218.218 0 00-.049.047.2.2 0 00-.031.058l-.026.046h-.017l-.014.024h-.018l-.009.033.018.007.041-.015a.082.082 0 01-.072.041v.048h-.018v-.013c0-.006 0-.013-.013-.013l-.011.018.023.026.009.02-.046.07-.011.013-.049.011-.029.07.028.065h-.08l-.007.012.038.022h.022a.16.16 0 01-.05.031.448.448 0 01-.065.015l-.013.031.007.025.023-.022h.036v.023l-.017.023h-.046v.018l-.039.01c.006.013.01.022.014.022l.009.012-.053.019v-.02a.2.2 0 00-.073.116l-.036.007v.041a.234.234 0 01.094-.033l.008.008-.04.02a.107.107 0 01-.076.075l.01.021-.049.031-.008.037h.031l.016-.023.01.017a.035.035 0 00-.012.034l-.039-.013c-.041.021-.065.04-.071.059v.029l.012-.014.01-.007.046-.012.017-.013-.039.06-.034.006h.015v.032l-.025.049-.04-.011-.032.011v.059l-.015.007-.01.028h.022zm.014-.023s-.006.015-.012.019zm-.62-.13a.089.089 0 010 .013zm2.327-.6l-.014.025zm-21.95-1.994h.009-.009z" fill="#d35161"/><path d="M-10081.312 19.095c5.008 2.179 7.276 1.065 8.853-1.14 1.824-2.549-1.432-7.143-7.277-10.261-5.669-3.031-11.694-3.543-13.7-1.231a3.493 3.493 0 01.258-.413c2.331-3.267 10.294-2.683 17.779 1.308s11.661 9.885 9.325 13.156-8.8 4.2-15.99-.275" fill="#2f2c4b"/><path d="M-10083.941-12.208a5.818 5.818 0 00-3.85-3.85c-1.375-.4-2.325-.367-2.984.125a2.9 2.9 0 00-.883 2.416v2.075c0 2.05.933 3.092 2.767 3.092h2.391a2.912 2.912 0 002.417-.883c.508-.65.55-1.6.142-2.975z" fill="#499894"/><path d="M-10086.241-6.867a1.14 1.14 0 00-.858-.392h-2.984a2.66 2.66 0 01-2.658-2.658V-12.9a1.14 1.14 0 00-.39-.859 1.129 1.129 0 00-.894-.275 7.277 7.277 0 00-4.933 2.942A7.194 7.194 0 00-10094.491.2a6.989 6.989 0 001.375.133 7.082 7.082 0 004.208-1.376 7.277 7.277 0 002.942-4.933 1.12 1.12 0 00-.275-.891z" fill="#a3ccc9"/></g><g fill="#1a202c"><path d="M61.938 6.933h2.032a27.5 27.5 0 01-.187 3.45 12.961 12.961 0 003-1.952l1.283 1.632a20.482 20.482 0 01-4.012 2.273 26.618 26.618 0 013.9 2.941l-1.425 1.738a28.426 28.426 0 00-3.9-3.236 10.3 10.3 0 01-4.117 3.342l-1.383-1.498a8.824 8.824 0 003.659-2.754q1.151-1.446 1.15-5.936zm11.55 0h2.032a26.862 26.862 0 01-.187 3.424 12 12 0 003.21-2.141l1.283 1.632a20.679 20.679 0 01-4.386 2.539 26.567 26.567 0 014.172 3.022l-1.39 1.714a28.314 28.314 0 00-4.146-3.262 10.273 10.273 0 01-4.01 3.159l-1.391-1.5a8.641 8.641 0 003.663-2.727q1.149-1.42 1.15-5.859zm6.976 10.374v5.161h-2.242v-3.1H58.864v2.888h-2.246v-4.95zm-21.28 4.947h6.953a18.854 18.854 0 00.4-2.487l2.245.348q-.135 1.121-.32 2.139h9.117q-.133 6.551-1.311 8.182a3.213 3.213 0 01-2.647 1.121 34.118 34.118 0 01-4.17-.348l-.562-2.245a40.085 40.085 0 004.732.348.959.959 0 00.91-.642 17.9 17.9 0 00.481-4.518h-7.059a12.01 12.01 0 01-2.219 4.037 13.975 13.975 0 01-7.112 3.8l-.936-2.141a12.427 12.427 0 006.363-3.288 7.266 7.266 0 001.5-2.4h-6.364zm-.775-13.823a16.025 16.025 0 012.032 3.423l-1.684.962A15.641 15.641 0 0056.832 9.5zm11.445-.108a16.9 16.9 0 012.058 3.423l-1.711.962a15.724 15.724 0 00-1.925-3.316zM99.7 7.494l1.256 1.685q-2.624.267-5.562.455v1.9h5.886v1.845h-5.882v1.5h5.267v8.419h-5.267v1.738h5.16v1.685h-5.16v1.636q3.022-.161 5.481-.32l.139 1.149a17.269 17.269 0 002.107-4.729 41.144 41.144 0 001.15-10h-2.646v-2.043h2.67V7.039h2.143v5.375h5.106a137.367 137.367 0 01-.775 16.6 3.366 3.366 0 01-.983 2.06 2.989 2.989 0 01-1.98.7 14.087 14.087 0 01-2.759-.325l-.219-2.352a13.571 13.571 0 002.969.427.693.693 0 00.642-.508 5.594 5.594 0 00.4-2.032q.426-5.829.481-12.54h-2.911a42.821 42.821 0 01-1.422 11.337 15.544 15.544 0 01-3.369 6.1l-1.524-1.5a5.237 5.237 0 00.562-.721q-5.826.7-12.937 1.154l-.348-2.139q3.209-.108 6.013-.24v-1.712H88.15v-1.688h5.242v-1.738H88.15v-8.418h5.242v-1.5h-6.123v-1.844h6.123V9.797q-2.273.161-4.734.268l-.829-1.631q5.936-.3 11.876-.939zm-9.516 14.014h3.208v-1.633h-3.208zm5.213-1.631v1.631h3.208v-1.633zm-5.213-1.579h3.208v-1.609h-3.208zm5.213-1.607v1.6h3.208v-1.6zm29.93-9.653a12.763 12.763 0 011.15 2.807h5.4v2h-3.02l1.951.668a26.245 26.245 0 01-.984 2.888q-.319.828-.641 1.5h2.994v2.139h-13.8v-2.133h3.556a27.313 27.313 0 00-1.6-4.385l1.422-.668h-2.94V9.849h5.187a10.271 10.271 0 00-.8-2.139zm-1.123 9.871h2.593a19.142 19.142 0 00.8-1.979 21.747 21.747 0 00.936-3.075h-6.178a34.9 34.9 0 011.851 5.052zm6.389 4.279v10.025h-2.136V29.74h-6.449v1.708h-2.137V21.185zm-8.585 6.5h6.449V23.19h-6.449zm21.209-19.465l-3.453 9.331a13.141 13.141 0 012.38 3.1 7.7 7.7 0 01.962 3.5q-.052 4.31-3.876 4.309a15.764 15.764 0 01-2.245-.218l-.508-2.567a9.15 9.15 0 002.754.535q1.577 0 1.631-2.058a6.043 6.043 0 00-.749-2.782 9.98 9.98 0 00-2.674-3.288l2.623-7.728h-4.467v21.31h-2.248V8.217zM155.58 6.94h2.032a27.8 27.8 0 01-.187 3.45 12.952 12.952 0 002.994-1.952l1.283 1.632a20.512 20.512 0 01-4.011 2.273 26.62 26.62 0 013.9 2.941l-1.42 1.738a28.457 28.457 0 00-3.9-3.235 10.29 10.29 0 01-4.117 3.342l-1.393-1.5a8.816 8.816 0 003.663-2.754q1.153-1.445 1.153-5.936zm11.55 0h2.032a27.11 27.11 0 01-.187 3.424 12 12 0 003.208-2.141l1.283 1.632a20.7 20.7 0 01-4.385 2.539 26.5 26.5 0 014.17 3.022l-1.392 1.711a28.305 28.305 0 00-4.145-3.262 10.288 10.288 0 01-4.011 3.159l-1.391-1.5a8.642 8.642 0 003.663-2.727q1.149-1.42 1.149-5.859zm6.979 10.374v5.161h-2.248v-3.1h-19.36v2.888h-2.245v-4.957zm-21.28 4.94h6.951a18.478 18.478 0 00.4-2.487l2.247.348q-.135 1.121-.32 2.139h9.118q-.134 6.551-1.312 8.182a3.212 3.212 0 01-2.647 1.121 34.118 34.118 0 01-4.17-.348l-.562-2.245a40.09 40.09 0 004.732.348.959.959 0 00.91-.642 17.911 17.911 0 00.481-4.518h-7.059a12 12 0 01-2.22 4.037 13.97 13.97 0 01-7.112 3.8l-.936-2.141a12.426 12.426 0 006.363-3.288 7.288 7.288 0 001.5-2.4h-6.364zm-.775-13.823a16.025 16.025 0 012.032 3.423l-1.684.962a15.651 15.651 0 00-1.925-3.316zm11.444-.11a16.906 16.906 0 012.058 3.423l-1.711.962a15.687 15.687 0 00-1.927-3.312zm29.846-.829l1.256 1.685q-2.624.267-5.562.455v1.9h5.884v1.845h-5.88v1.5h5.268v8.419h-5.268v1.738h5.161v1.685h-5.161v1.636q3.022-.161 5.481-.32l.133 1.15a17.249 17.249 0 002.113-4.73 41.132 41.132 0 001.15-10h-2.646v-2.041h2.674V7.039h2.139v5.375h5.106a137.644 137.644 0 01-.778 16.6 3.366 3.366 0 01-.983 2.06 2.988 2.988 0 01-1.979.7 14.126 14.126 0 01-2.755-.32l-.218-2.354a13.5 13.5 0 002.968.427.692.692 0 00.641-.508 5.536 5.536 0 00.4-2.032q.428-5.829.481-12.54h-2.914a42.86 42.86 0 01-1.422 11.337 15.54 15.54 0 01-3.369 6.1l-1.524-1.5a5.268 5.268 0 00.562-.723q-5.82.7-12.938 1.15l-.348-2.139q3.209-.108 6.013-.24v-1.709h-5.24v-1.688h5.24v-1.738h-5.24v-8.418h5.24v-1.5h-6.121v-1.844h6.121V9.797q-2.272.161-4.732.268l-.829-1.631q5.94-.3 11.874-.939zm-9.517 14.014h3.209v-1.631h-3.209zm5.214-1.631v1.631h3.208v-1.631zm-5.214-1.579h3.209v-1.607h-3.209zm5.215-1.607v1.6h3.208v-1.6zm24.818-4.092h8.609q.134-2.3.133-5h2.354q0 2.7-.133 5h10.106q0 11.952-.64 14.978a4.734 4.734 0 01-1.422 2.941 5.2 5.2 0 01-2.861.7 36.384 36.384 0 01-4.6-.3l-.552-2.567a34.743 34.743 0 005.161.4 1.7 1.7 0 001.444-.508 6.22 6.22 0 00.562-2.433q.348-3.635.348-10.856h-7.7q-.613 7.113-2.567 9.921a21.348 21.348 0 01-7.619 6.9l-1.293-2.033a19.521 19.521 0 006.872-6.31q1.658-2.54 2.219-8.476h-8.418zm47.153 4.42h-2.861a6 6 0 01-.962 3.262 4.679 4.679 0 01-2.514 1.738l-.962-1.9a4.026 4.026 0 001.818-1.23 8.2 8.2 0 00.641-3.936h5.722a14.964 14.964 0 01-2-1.5 13.708 13.708 0 01-4.037-5.962l1.951-.562a9.011 9.011 0 001.414 2.76 14.645 14.645 0 003.4-2.754l1.363 1.631a19.214 19.214 0 01-3.423 2.593q.508.482 1.07.936a3.081 3.081 0 01.24.219 14.655 14.655 0 003.636-3.127l1.394 1.6a20.511 20.511 0 01-3.182 2.727 23.54 23.54 0 004.573 1.9l-1.6 1.792a19.809 19.809 0 01-3.529-1.5v2.593q0 .749.642.749h2.888v1.9h-3.317q-2.353 0-2.352-1.9zm-14.357 2.46h4.518v-2.273h-3.957v-.187a17.609 17.609 0 01-3.1 1.069l-1.069-2.058a16.406 16.406 0 004.545-1.631 21.313 21.313 0 00-2.727-2.541l1.39-1.5a19.056 19.056 0 013.262 2.755 11.063 11.063 0 002.754-3.37h-6.979v-2.03h9.492v1.47a13.878 13.878 0 01-3.985 5.59c-.232.178-.454.348-.668.508h3.182v6.122h-5.4l-.534 2.033h6.231q-.7 5.827-1.823 7.03a3.263 3.263 0 01-2.567.984h-2.648l-.218-2.139a25.843 25.843 0 002.861.218 1.2 1.2 0 001.078-.593 8.742 8.742 0 00.955-3.611h-6.52l1.524-5.855zm9.118 4.894h-1.176v-2.01h10.561v1.391a10.172 10.172 0 01-1.764 3.342 5.187 5.187 0 01-.534.562q1.925 1.093 3.718 2.273l-1.526 1.848q-1.925-1.391-3.936-2.593-.643.4-1.312.775a15.949 15.949 0 01-5.527 1.709l-.562-2.033a13.026 13.026 0 004.646-1.312 4.525 4.525 0 00.668-.348q-2.245-1.256-4.545-2.3zm5.139 2.219q.218-.241.427-.455a7.935 7.935 0 001.23-1.764h-6.444q2.482 1.037 4.781 2.214zm33.994-16.739h-15.853v2h15.853zm-15.853 4.038v2.7h4.7V14.45h2.14v2.139h4.81V14.45h2.139v2.139h4.6v2h-4.6v2.916h5.776v2.032h-15.271v5.854q2.405-.587 5-1.5l.348 1.951a42.444 42.444 0 01-6.977 2.033l-.936-1.951a.793.793 0 00.427-.616v-5.771h-2.433q-.135 1.23-.348 2.4a29.535 29.535 0 01-1.738 5.723l-2.14-1.176a38.084 38.084 0 001.792-6.123 45.139 45.139 0 00.456-6.365V7.814h20.24v6.069zm-.08 7.619h4.786v-2.917h-4.7v.11q-.015 1.415-.093 2.806zm6.924 0h4.811v-2.917h-4.811zm8.9 2.568l1.391 1.6a19.189 19.189 0 01-3.11 2.028 10.4 10.4 0 001.738.749 18 18 0 004.251 1.069l-.962 2.141a23.889 23.889 0 01-4.625-1.422 10.742 10.742 0 01-3.316-2 10.192 10.192 0 01-2.435-3.53l1.9-.642a9.064 9.064 0 001.657 2.352 15.038 15.038 0 003.5-2.349zM307.16 7.923h21.845v5.78h-21.853zm2.127 4.062h4.6v-2.38h-4.6zm6.63-2.38v2.38h4.412v-2.38zm6.444 0v2.38h4.492v-2.38zm-14.868 5.908h8.353v-1.308h2.247v1.312h5.775v1.47q2.381-1.043 4.492-2.219l1.283 1.363a48.121 48.121 0 01-4.786 2.46h5.53v1.739h-9.813q-.641.239-1.337.455-1.925.667-3.957 1.23h12.408v9.653h-2.245V30.49h-13.338v1.177h-2.245v-8.183q-1.738.4-3.53.775l-.856-1.792q4.867-.963 9.037-2.139h-8.745v-1.737h10.08V17.2h-8.343zm4.6 13.338h13.336v-1.677h-13.338zm0-3.316h13.336v-1.783h-13.338zm7.674-6.953q1.871-.641 3.582-1.391h-5.26v1.394z"/><path d="M65.242 38.1l-1.89 7.293h-.895l-1.838-5.991-1.839 5.991h-.873L56.002 38.1h.9l1.493 5.885 1.792-5.885h.875l1.8 5.885 1.493-5.885zm6.886 3.666a4.132 4.132 0 01-.821 2.7 3.163 3.163 0 01-4.717 0 4.172 4.172 0 01-.812-2.7 4.235 4.235 0 01.812-2.716 2.836 2.836 0 012.353-1.073 2.886 2.886 0 012.36 1.064 4.236 4.236 0 01.821 2.724zm-.913 0a3.572 3.572 0 00-.547-2.052 1.933 1.933 0 00-1.707-.915 1.912 1.912 0 00-1.7.915 3.62 3.62 0 00-.541 2.052 3.545 3.545 0 00.531 2.019 2.053 2.053 0 003.405 0 3.492 3.492 0 00.551-2.021zm6.983 3.618h-1.064a4.417 4.417 0 01-.279-1.447 9.49 9.49 0 00-.168-1.185.557.557 0 00-.336-.411 2.809 2.809 0 00-.736-.056h-1.628v3.117h-.875v-7.3h2.482a2.485 2.485 0 011.586.457 1.969 1.969 0 01.692 1.651 1.644 1.644 0 01-.322.984 1.559 1.559 0 01-.766.6 1.328 1.328 0 01.9 1.307q.047.512.168 1.437a1.656 1.656 0 00.345.846zm-1.251-5.207q0-1.269-1.465-1.27h-1.5v2.492h1.333a2.054 2.054 0 001.171-.313 1.03 1.03 0 00.46-.909zm6.97 5.207h-1.12l-2.742-3.509-.2.206v3.3h-.887v-7.3h.887v2.771l2.688-2.771h1.166l-3.056 3.152zm4.852-6.45h-3.21v2.268h3.089v.84h-3.089v3.333h-.875v-7.288h4.084zm7.12 2.827a4.142 4.142 0 01-.821 2.7 3.16 3.16 0 01-4.712 0 4.177 4.177 0 01-.812-2.7 4.221 4.221 0 01.812-2.715 2.827 2.827 0 012.351-1.073 2.887 2.887 0 012.361 1.063 4.247 4.247 0 01.821 2.727zm-.915 0a3.584 3.584 0 00-.546-2.053 1.934 1.934 0 00-1.708-.913 1.912 1.912 0 00-1.7.913 3.628 3.628 0 00-.541 2.053 3.545 3.545 0 00.537 2.023 1.92 1.92 0 001.7.906 1.939 1.939 0 001.708-.906 3.5 3.5 0 00.556-2.021zm6.989 3.623h-1.064a4.39 4.39 0 01-.28-1.447 9.036 9.036 0 00-.168-1.185.553.553 0 00-.335-.411 2.809 2.809 0 00-.736-.056h-1.624v3.117h-.875v-7.3h2.481a2.491 2.491 0 011.587.457 1.967 1.967 0 01.69 1.651 1.635 1.635 0 01-.321.984 1.551 1.551 0 01-.765.6 1.326 1.326 0 01.895 1.307q.049.512.17 1.437a1.65 1.65 0 00.344.846zm-1.25-5.207q0-1.269-1.465-1.27h-1.5v2.492h1.333a2.057 2.057 0 001.171-.313 1.031 1.031 0 00.46-.909zm7.315 3.154a3.251 3.251 0 01-.11.588 2.052 2.052 0 01-.875 1.153 2.611 2.611 0 01-1.469.437 2.68 2.68 0 01-2.343-1.148 5.3 5.3 0 01.019-5.227 2.677 2.677 0 012.324-1.166 2.471 2.471 0 011.661.547 2 2 0 01.7 1.586h-.886a1.336 1.336 0 00-1.355-1.315c-.042 0-.086 0-.128.009a1.81 1.81 0 00-1.64.942 3.892 3.892 0 00-.476 2.015 3.8 3.8 0 00.476 2 1.815 1.815 0 001.64.933 1.505 1.505 0 001.03-.374 1.658 1.658 0 00.537-.983zm5.291 2.053h-4.432v-7.3h4.282v.84h-3.406v2.266h3.281v.841h-3.281v2.5h3.546zm11.346-3.63q0 3.639-3.733 3.638h-1.875V38.1h1.858a3.837 3.837 0 012.752.946 3.561 3.561 0 01.997 2.704zm-.915-.01q0-2.818-2.938-2.817h-.869v5.617h1.288a2.381 2.381 0 001.9-.76 3.115 3.115 0 00.616-2.04zm6.205 3.64h-4.433v-7.3h4.283v.84H126.4v2.266h3.281v.841H126.4v2.5h3.546zm6.576-7.284l-2.574 7.293h-.887l-2.584-7.293h.923l2.1 6.083 2.109-6.083zm5.138 7.287h-4.428v-7.3h4.282v.84h-3.407v2.266h3.281v.841h-3.281v2.5h3.544zm5.2 0h-4.234v-7.3h.875v6.457h3.359zm6.929-3.623a4.142 4.142 0 01-.821 2.7 3.163 3.163 0 01-4.712 0 4.177 4.177 0 01-.813-2.7 4.228 4.228 0 01.813-2.716 2.829 2.829 0 012.351-1.072 2.884 2.884 0 012.361 1.063 4.239 4.239 0 01.819 2.724zm-.915 0a3.576 3.576 0 00-.547-2.053 2.045 2.045 0 00-3.408 0 3.626 3.626 0 00-.546 2.053 3.541 3.541 0 00.541 2.021 1.915 1.915 0 001.7.908 1.935 1.935 0 001.7-.908 3.494 3.494 0 00.551-2.021zm6.584-1.521q0 2.136-2.893 2.137h-.942v3.005h-.875v-7.3h1.782q2.928.002 2.927 2.156zm-.9-.01a1.122 1.122 0 00-.475-.983 1.88 1.88 0 00-1.12-.309h-1.333v2.6h1.333a1.936 1.936 0 001.13-.3 1.156 1.156 0 00.465-1.012zm9.032 5.152h-.875V40.05l-2.289 5.338h-.838l-2.286-5.338v5.338h-.875v-7.3h.9l2.68 6.251 2.676-6.251h.906zm5.576 0h-4.432v-7.3h4.283v.84h-3.406v2.266h3.281v.841h-3.281v2.5h3.546zm6.28 0h-.953l-3.48-5.887v5.887h-.893v-7.3h.984l3.462 5.869v-5.867h.873zm6.093-6.45h-2.22v6.459h-.875v-6.458h-2.22V38.1h5.327zm11.681 6.45h-.913l-.766-1.9h-3.2l-.756 1.9h-.923l2.893-7.3h.765zm-2.025-2.771l-1.26-3.294-1.241 3.294zm8.31-2.417h-.9a1.341 1.341 0 00-.527-1.022 1.926 1.926 0 00-1.209-.369 1.859 1.859 0 00-1.595.9 3.565 3.565 0 00-.578 2.053 3.324 3.324 0 00.607 2.117 2.262 2.262 0 001.9.831 2.465 2.465 0 001.391-.364v-1.9h-1.7v-.849h2.556v3.312a3.933 3.933 0 01-2.514.634 2.816 2.816 0 01-2.3-1.073 4.1 4.1 0 01-.858-2.7 4.262 4.262 0 01.774-2.613 2.744 2.744 0 012.315-1.149 2.847 2.847 0 011.88.6 2.046 2.046 0 01.744 1.591zm5.574 5.188h-4.447v-7.3h4.282v.84h-3.405v2.266h3.279v.841h-3.279v2.5h3.545zm6.28 0h-.952l-3.48-5.887v5.887h-.886v-7.3h.983l3.461 5.869v-5.867h.875zm6.458-2.053a3.241 3.241 0 01-.11.588 2.058 2.058 0 01-.875 1.153 2.611 2.611 0 01-1.469.437 2.68 2.68 0 01-2.342-1.148 5.289 5.289 0 01.019-5.227 2.677 2.677 0 012.324-1.166 2.469 2.469 0 011.66.547 2 2 0 01.7 1.586h-.887a1.335 1.335 0 00-1.354-1.315c-.044 0-.086 0-.128.009a1.812 1.812 0 00-1.641.942 3.9 3.9 0 00-.475 2.015 3.81 3.81 0 00.475 2 1.818 1.818 0 001.641.933 1.506 1.506 0 001.03-.374 1.659 1.659 0 00.537-.983zm6.617-5.231l-2.667 4.154v3.13h-.859V42.25l-2.669-4.154h1.045l2.062 3.331 2.062-3.331zm1.885 7.228a1.623 1.623 0 01-.262.942 2.6 2.6 0 01-.792.663l-.279-.43a1.342 1.342 0 00.84-1.008h-.672V44.32h1.175zm12.914.056h-.875V40.05l-2.289 5.338h-.84l-2.285-5.338v5.338h-.876v-7.3h.906l2.675 6.251 2.678-6.251h.9zm2.109 0h-.875v-7.3h.875zm6.568 0h-.952l-3.48-5.887v5.887h-.887v-7.3h.984l3.461 5.869v-5.867h.874zm2.118 0h-.875v-7.3h.875zm5.748-1.977q0 2.118-2.669 2.117a2.073 2.073 0 01-1.6-.629 2.467 2.467 0 01-.6-1.683h.9a1.551 1.551 0 00.387 1.12 1.643 1.643 0 001.171.354 1.706 1.706 0 001.008-.289 1.084 1.084 0 00.494-.953.949.949 0 00-.26-.7 1.825 1.825 0 00-.673-.373l-.868-.28a4.662 4.662 0 01-1.324-.644 1.663 1.663 0 01-.672-1.362 1.877 1.877 0 01.709-1.53 2.381 2.381 0 011.55-.523 2.654 2.654 0 011.557.42 1.867 1.867 0 01.765 1.6h-.895a1.145 1.145 0 00-.387-.887 1.459 1.459 0 00-.966-.308 1.626 1.626 0 00-1 .3.985.985 0 00-.43.831.929.929 0 00.448.811 6.06 6.06 0 00.97.437 11.374 11.374 0 011.588.71 1.721 1.721 0 01.791 1.455zm5.71-4.469h-2.22v6.455h-.875v-6.458h-2.22V38.1h5.327zm5.887 6.45h-1.064a4.4 4.4 0 01-.28-1.447 9.026 9.026 0 00-.168-1.185.553.553 0 00-.335-.411 2.819 2.819 0 00-.738-.056h-1.623v3.114h-.875v-7.3h2.482a2.485 2.485 0 011.586.457 1.967 1.967 0 01.692 1.651 1.643 1.643 0 01-.321.984 1.556 1.556 0 01-.765.6 1.326 1.326 0 01.895 1.307q.047.512.168 1.437a1.663 1.663 0 00.348.845zm-1.25-5.211q0-1.269-1.465-1.27h-1.5V41.4h1.335a2.056 2.056 0 001.171-.313 1.03 1.03 0 00.463-.91zm7.781-2.077l-2.669 4.154v3.13h-.857V42.25l-2.669-4.154h1.045l2.062 3.331 2.061-3.331zm11.664 3.663a4.141 4.141 0 01-.821 2.7 3.163 3.163 0 01-4.712 0 4.93 4.93 0 010-5.413 2.829 2.829 0 012.351-1.072 2.881 2.881 0 012.36 1.063 4.232 4.232 0 01.826 2.721zm-.915 0a3.575 3.575 0 00-.547-2.053 2.042 2.042 0 00-3.405 0 3.626 3.626 0 00-.546 2.053 3.534 3.534 0 00.546 2.025 1.916 1.916 0 001.7.9 1.939 1.939 0 001.7-.908 3.5 3.5 0 00.55-2.021zm5.953-2.827h-3.21v2.268h3.09v.839h-3.088v3.332h-.875v-7.289h4.087zm9.974 6.451h-4.236v-7.3h.875v6.457h3.358zm6.9 0h-.918l-.765-1.9h-3.191l-.754 1.9h-.923l2.893-7.3h.765zm-2.025-2.772l-1.26-3.293-1.241 3.292zm7.557.729a1.949 1.949 0 01-.531 1.4 2.252 2.252 0 01-1.717.644h-2.547v-7.3h2.4a2.209 2.209 0 011.474.5 1.784 1.784 0 01.644 1.437 1.714 1.714 0 01-.868 1.5 1.847 1.847 0 011.14 1.81zm-1.175-3.281q0-1.148-1.4-1.148h-1.361v2.268h1.391a1.579 1.579 0 00.942-.262 1.011 1.011 0 00.426-.854zm.252 3.192a1.009 1.009 0 00-.523-.972 3.29 3.29 0 00-1.464-.242h-1.036v2.508h1.409q1.622 0 1.614-1.293zm8.043-1.494a4.142 4.142 0 01-.821 2.7 3.159 3.159 0 01-4.714 0 4.164 4.164 0 01-.812-2.7 4.227 4.227 0 01.812-2.716 2.834 2.834 0 012.351-1.073 2.886 2.886 0 012.36 1.064 4.23 4.23 0 01.822 2.724zm-.913 0a3.585 3.585 0 00-.547-2.053 1.932 1.932 0 00-1.708-.913 1.909 1.909 0 00-1.7.913 3.618 3.618 0 00-.547 2.053 3.542 3.542 0 00.547 2.025 1.92 1.92 0 001.7.906 1.941 1.941 0 001.7-.907 3.494 3.494 0 00.551-2.021zm6.986 3.623h-1.064a4.42 4.42 0 01-.279-1.447 9.467 9.467 0 00-.168-1.185.555.555 0 00-.336-.411 2.81 2.81 0 00-.736-.056h-1.624v3.117h-.875v-7.3h2.482a2.485 2.485 0 011.586.457 1.968 1.968 0 01.692 1.651 1.643 1.643 0 01-.322.984 1.559 1.559 0 01-.766.6 1.328 1.328 0 01.9 1.307q.047.512.168 1.437a1.65 1.65 0 00.342.845zm-1.25-5.207q0-1.269-1.464-1.27H326V41.4h1.333a2.053 2.053 0 001.171-.313 1.03 1.03 0 00.46-.91z" opacity=".66"/></g></svg>