<svg xmlns="http://www.w3.org/2000/svg" width="561.998" height="47.996"><defs><radialGradient id="a" cx=".5" cy=".5" r=".5" gradientUnits="objectBoundingBox"><stop offset="0" stop-color="#fbfcfe"/><stop offset=".443" stop-color="#fff" stop-opacity=".702"/><stop offset="1" stop-color="#96bbdc"/></radialGradient></defs><path d="M511.402 44.446l.064-.09a14.618 14.618 0 001.81-3.37 11.7 11.7 0 00.577-3.695v-8.476h.121a32.655 32.655 0 007.67-1l.09-.026.966 1.591-.162.041a32.852 32.852 0 01-6.854.968v3.646h7.775v1.789h-2.636v9.567h-1.831v-9.567h-3.309v1.47a13.016 13.016 0 01-.759 4.387 15.677 15.677 0 01-2.109 3.888l-.082.111zm-79.4-.631l.129-.039a5.28 5.28 0 003.093-2.016 7.234 7.234 0 00.935-2.467h-1.707V28.337h8.908v10.958h-2.088v3.9c0 .263.054.345.087.35l.023.005.021.015a1.325 1.325 0 00.533.054c.644 0 .782-.136.811-.2l.008-.013.008-.013a1.948 1.948 0 00.275-.888c.049-.288.1-.77.149-1.431l.013-.191 1.694.888-.011.085c-.216 1.656-.507 2.629-.891 2.971a1.076 1.076 0 01-.785.381 5.052 5.052 0 01-1.271.1 4.941 4.941 0 01-1.306-.134c-.79-.1-1.189-.659-1.189-1.661v-4.222h-1.5a9.287 9.287 0 01-1.187 3.432 6.818 6.818 0 01-4.024 2.734l-.113.031zm4.279-6.213h5.247v-1.5h-5.247zm0-3.02h5.247v-1.42h-5.247zm0-2.979h5.247v-1.551h-5.247zm32.675 13.859V35.157a21.833 21.833 0 01-1.511 2.062l-.121.144-.95-1.833.046-.062a24.7 24.7 0 004.045-7.932l.036-.118 1.823.5-.039.121a27.4 27.4 0 01-1.5 3.79v13.63zm-39.4 0v-7.994a9.443 9.443 0 01-1.622 1.128l-.108.057-1.032-1.818.123-.057a9.482 9.482 0 002.879-2.194 13.677 13.677 0 001.756-2.333h-4.328v-1.769h3.018a8.034 8.034 0 00-1.311-1.861l-.1-.106 1.471-.976.071.075a9.706 9.706 0 011.471 1.923l.06.106-1.378.839h3.123v1.674l-.016.028a20.85 20.85 0 01-2.2 3.37 28.572 28.572 0 012.8 2.482l.074.075-1.136 1.583-.1-.124a20.353 20.353 0 00-1.682-1.787v7.678zm-77.14 0v-3.319a33.487 33.487 0 01-3.759 1.246l-.118.031-.5-1.666.129-.031q.491-.12.939-.239V30.126h-.754v-1.56h6.519v.76h2.228a10.85 10.85 0 00-.289-1.11l-.038-.124 1.646-.463.041.106a8.515 8.515 0 01.442 1.591h2.3v1.56h-.772c-.072.474-.162.976-.268 1.493-.085.4-.17.747-.255 1.045h1.416a250.09 250.09 0 01-.09-5.721v-.139l1.624.18v.111c0 2.194.019 4.068.055 5.569h3.032v1.56h-2.989c.023.935.063 1.694.108 2.258s.082 1.076.134 1.563a26.223 26.223 0 001.071-3.538l.031-.136 1.516.561-.025.108a23.962 23.962 0 01-2.093 5.865c.3 1.164.471 1.413.532 1.468a.783.783 0 00.075-.214v-.008a11.7 11.7 0 00.24-1.836l.018-.2 1.619.984-.015.085a8.248 8.248 0 01-.807 2.662 1.319 1.319 0 01-1.125.705c-.26 0-.7-.206-1.449-1.993v-.01l-.036-.111a12.481 12.481 0 01-2.062 2.163l-.105.088-.971-1.444.09-.072a7.39 7.39 0 00.428-.366h-4.972v-7.634h5.5v7.067a11.05 11.05 0 001.455-1.916 26.852 26.852 0 01-.443-2.66c-.11-.821-.2-1.98-.278-3.44h-7.234v-1.56h1.962a26.01 26.01 0 00-.394-2.539h-.892v-.76h-.71v15.337zm4.315-3.362h2.327v-1.648h-2.327zm-6.007-1.027a38.985 38.985 0 001.691-.515v-2.459h-1.691zm6.007-2.029h2.327v-1.63h-2.327zm-6.007-2.43h1.691v-2.541h-1.691zm6.918-3.19h.765c.091-.433.178-.883.258-1.339.066-.4.129-.806.188-1.2h-1.6a24.431 24.431 0 01.393 2.539zm-6.918-.834h1.691v-2.464h-1.691zm43.823 12v.481h-1.735v-.837h-2.613v1.007h-1.773v-6.789h6.122v5.172a12.426 12.426 0 001.071-3.079 19.186 19.186 0 00.43-4.094v-8.118h1.738v8.119a21.72 21.72 0 01-.608 5.288 12.613 12.613 0 01-1.426 3.586l-.072.116zm-4.349-2.029h2.613v-2.428h-2.613zm96.109 1.37l.139-.067a10.978 10.978 0 003.983-3.059 8.845 8.845 0 001.446-4.372h-2.942V34.59a13.451 13.451 0 01-1.776 1.666l-.1.075-1.2-1.56.091-.077a23.27 23.27 0 003-3.172 18.089 18.089 0 002.186-3.468l.06-.124 1.624.963-.044.1a20.052 20.052 0 01-2.351 3.859q-.791.985-1.482 1.735h10.919a9.931 9.931 0 01-.736-.984 12.714 12.714 0 01-1.72-3.7h-2.065v-1.851h3.694l.019.1a10.1 10.1 0 001.521 4.163 10.78 10.78 0 003.018 2.969l.134.09-1.553 1.39-.082-.062a15 15 0 01-1.682-1.511c-.021 5.417-.263 8.35-.736 8.96a2.107 2.107 0 01-2.023 1.081 15.65 15.65 0 01-2.127-.172l-.085-.013-.455-2.013.186.033a13.516 13.516 0 002.312.245c.278 0 .469-.183.577-.556v-.005a41.526 41.526 0 00.368-6.326h-4.67a9.885 9.885 0 01-1.808 5.551 11.948 11.948 0 01-4.41 3.4l-.093.044zm-39.062-.224l.151-.008a9.251 9.251 0 003.844-.783h.006a2.614 2.614 0 00.726-.481h-2.755v-6.934h12.371v6.934H458.2v.842c0 .247.438.317.8.332.286.01.678.018 1.161.018a13.709 13.709 0 002.017-.072.5.5 0 00.348-.363v-.021l.013-.021a3.306 3.306 0 00.167-1.079l.016-.2 1.6.9-.008.08a2.661 2.661 0 01-.749 1.952l-.016.008a3.062 3.062 0 01-1.035.26 19.717 19.717 0 01-2.354.077c-.6 0-1.147-.013-1.624-.039-1.391-.039-2.1-.5-2.1-1.359v-1.316h-2.4a4.462 4.462 0 01-1.668 1.784 11.054 11.054 0 01-4.606 1.177l-.108.008zm3.728-2.665h8.878v-.59h-8.878zm0-1.841h8.878v-.584h-8.878zm0-1.823h8.878v-.51h-8.878zm107.489 8.015v-1.241h-9.616v1.233h-1.83v-8.849h13.277v8.849zm-9.616-2.927h9.616v-4.214h-9.616zm-15.77 2.927v-6.3h-7.549v-1.846h7.549v-6.905h-6.625v-1.846h15.214v1.846h-6.606v6.905h7.585v1.846h-7.585v6.3zm-24.349 0v-7.92a11.9 11.9 0 01-.229.554 15.49 15.49 0 01-1.725 3.211l-.085.121-1.295-1.259.064-.088a19.244 19.244 0 002.132-3.831 18.536 18.536 0 001.053-3.411h-2.683v-1.846h2.768v-3.272h1.776v3.265h2.541v1.846h-2.541v.762a40.2 40.2 0 012.673 3.908l.041.07-1.205 1.7-.093-.193c-.471-1-.944-1.934-1.416-2.773v9.148zm-90.458 0v-5.071a15.29 15.29 0 01-1.13 1.733 13.627 13.627 0 01-2.665 2.7l-.1.07-1.056-1.419.11-.072a6.9 6.9 0 00.819-.626l-1.172.36-.023-.144a10.205 10.205 0 00-.741-2.624l-.06-.129 1.463-.456.046.1a12.023 12.023 0 01.821 2.582 13.27 13.27 0 001.169-1.316 11.806 11.806 0 001.309-2h-2.876c.008.046.013.1.021.142l.016.106-1.507.476-.018-.149c-.031-.26-.067-.51-.105-.744a22.821 22.821 0 01-4.5 1l-.105.013-.442-1.632.049-.052a22.184 22.184 0 002.7-3.72c-.768.162-1.556.288-2.352.378l-.118.015-.272-1.558.033-.044a17.351 17.351 0 002.634-5.577l.036-.124 1.748.554-.041.121a24.477 24.477 0 01-1.723 3.95 11.262 11.262 0 01-.639.942 18.93 18.93 0 001.521-.131c.39-.749.763-1.54 1.115-2.346l.046-.108 1.45.538v-1.479h4.536v-2h1.682v2h5.044v1.674h-5.044v.909h4.366v6.856h-2.981a12.539 12.539 0 001.295 1.9 8.4 8.4 0 002.228 1.89l.1.059-.95 1.825-.115-.08a10.609 10.609 0 01-2.477-2.479 14.417 14.417 0 01-1.468-2.461v5.646zm-4.972-9.961a19.676 19.676 0 01.829 3.293v-6.491h4.143v-.909h-4.364l-.007.021a24.56 24.56 0 01-3.142 5.53c-.271.394-.554.772-.85 1.125a22.455 22.455 0 002.39-.582 25.086 25.086 0 00-.423-1.55l-.036-.118 1.419-.433zm6.653 2.024h2.61v-2.515a19.118 19.118 0 01-1.045 2.263l-.052.09-1.452-.479.082-.136a11.723 11.723 0 001.192-2.554l.036-.111 1.238.312v-.474h-2.61zm-4.068 0h2.387v-.911l-1.3.788-.049-.149a10 10 0 00-1.038-2.2zm1.185-3.419a11.677 11.677 0 011.2 2.338v-2.523h-2.387v.8l1.115-.723zM402.75 45.394v-17.26h1.756v17.26zm-26.89 0v-4.632h-2.56l1.123 1.326-.085.082a10.243 10.243 0 01-2.325 1.653 17.97 17.97 0 01-2.86 1.241l-.108.036-.762-1.733.134-.041a15.276 15.276 0 002.727-1.11 10.929 10.929 0 002.047-1.39l.077-.064h-4.938v-1.56h7.531V38.18h-6.476v-1.635h6.476v-1.022h-7.173v-1.617h3.856a7.063 7.063 0 00-.584-.7l-.1-.108 1.138-.765h-4.59v-1.617h3.161l-.062-.124a7.583 7.583 0 00-1.259-1.813l-.1-.108 1.4-.9.072.075a8.261 8.261 0 011.377 1.869l.054.1-1.478.893h2.41v-3.056h1.737v3.056h2.009v-3.056h1.756v3.056h2.08l-1.352-1.195.129-.093a7.423 7.423 0 001.647-1.568l.072-.093 1.485.971-.074.106a8.552 8.552 0 01-1.759 1.869h3.65v1.617h-5.592l1.666.561-.06.124a8.488 8.488 0 01-.474.888h3.875v1.617H377.7v1.022h6.249v1.635H377.7v1.022h7.755v1.56H377.7v4.632zm-1.274-11.488h4.264q.092-.162.185-.348a10.1 10.1 0 00.523-1.166l.021-.059h-6.249a9.867 9.867 0 011.261 1.568zm32.868 10.744l.035-.106a18.468 18.468 0 00.917-4.073l.016-.139 1.5.34-.008.106a16.942 16.942 0 01-.891 4.457l-.044.131zm69.152.592a3.136 3.136 0 01-1.059-.152c-.829-.039-1.249-.649-1.249-1.815V27.652h1.852v6.377h7.6v1.864h-7.6v6.691c0 .252.028.68.239.69h.031l.025.015a1.776 1.776 0 00.783.1 28.376 28.376 0 003-.072v-.033l.116-.008a4.365 4.365 0 001.138-.221l.021-.005c.157-.023.541-.368.721-3.054l.014-.175 1.9.806-.011.1a8.33 8.33 0 01-1.061 3.744l-.008.01-.013.01a2.937 2.937 0 01-1.476.5 38.371 38.371 0 01-4.343.247zm-93.022-.124a21.985 21.985 0 00-4.418-2.85l-.137-.067 1.115-1.437.09.044a29.146 29.146 0 014.709 2.765l.11.08-1.377 1.542zm27.137-.61a13.342 13.342 0 00-.5-3.836l-.041-.131 1.426-.276.039.1a11.776 11.776 0 01.685 3.991v.113l-1.606.18zm-11.434-.86v-14.6h1.753v14.6zm-10.862-6.3v-1.694h6.122v1.694zm140.949-.564a23.35 23.35 0 00-2.152-4.91l-.072-.118 1.715-.788.059.1a25.676 25.676 0 012.346 4.959l.039.113-1.893.78zm7.327-.821l.062-.113a24.6 24.6 0 002.173-4.985l.039-.126 1.836.633-.036.116a26.4 26.4 0 01-2.212 5.322l-.062.1zm-74.438.834v-1.735h-13.55v1.728h-1.661v-3.118h1.107l-.132-5.245.113-.013a19.914 19.914 0 004.248-.906l.1-.031.554.947.726-.87.085.033c.618.245 1.218.5 1.79.77a11.354 11.354 0 001.32-.958l.1-.085.76.955-.093.08c-.263.221-.527.438-.793.644.357.188.721.389 1.076.595l.134.08-.947 1.027-.023-.015.572.7-.093.08c-.263.221-.531.435-.8.641.389.188.774.381 1.153.577l.1.052v-.978h3l.023-.51h-3.022v-1.37h3.109l.026-.51h-3.213v-1.486h4.945l-.283 5.79h1.236v3.118zm-4.959-3.118h3.7l.025-.584h-2.93v-.283zm-3.689 0h-.01 3.6l-.026-.013c-.491-.291-1-.566-1.531-.821a11.05 11.05 0 01-2.029.824zm-3.847 0h3.739l-.727-1.1.154-.051c.381-.129.747-.263 1.092-.4-.36-.152-.726-.288-1.092-.407l-.17-.057.768-.968.085.028a18.687 18.687 0 011.815.716 11.791 11.791 0 001.367-.989 16.254 16.254 0 00-1.169-.646 14.166 14.166 0 01-2.261.927l-.093.031-.642-1.05.145-.052c.5-.178.968-.36 1.406-.548-.319-.139-.649-.27-.981-.4l.028.046-.142.052a17.01 17.01 0 01-3.378.808l.013.335h2.9v1.3h-2.9l.013.584h2.884v1.331h-2.861zm110.653 2.379c-.373-.546-.785-1.1-1.228-1.645-4.367.561-8.806.937-13.2 1.112h-.105l-.4-1.779.072-.049a25.907 25.907 0 006.37-6.141l.057-.075 1.817.718-.09.131a21.506 21.506 0 01-4.184 4.637c-.212.178-.423.353-.637.52 3-.134 6.043-.324 9.053-.569a44.147 44.147 0 00-1.732-1.859l-.105-.106 1.5-1.032.075.067a38.591 38.591 0 014.23 4.647l.069.088-1.486 1.455zm-172-1.54v-1.674h6.122v1.674zm-24.166-1.766a19.7 19.7 0 00-1.123-3.453l-.049-.111 1.352-.659.055.116a21.993 21.993 0 011.287 3.532l.028.106-1.517.61zm23.337-1.251v-1.769h2.621a10.885 10.885 0 00-.56-1.668l-.059-.136 1.9-.438.041.1a13.649 13.649 0 01.755 2.147h3.079v1.769z" fill="#1a202c" opacity=".82"/><path d="M341.5 43.996h-1v-15h1z" fill="#1a202c" opacity=".12"/><g transform="translate(.023 .21)"><rect width="47.996" height="47.996" rx="23.998" transform="translate(-.024 -.21)" fill="url(#a)"/><path d="M20.832 36.737c5.008 2.179 7.276 1.065 8.853-1.14 1.824-2.549-1.432-7.143-7.277-10.261-5.669-3.031-11.694-3.543-13.7-1.231a3.485 3.485 0 01.258-.413c2.331-3.267 10.295-2.683 17.779 1.308s11.661 9.885 9.325 13.156-8.8 4.2-15.99-.275" fill="#00286f"/><path d="M7.145 39.311S20.492 28.2 25.545 20.97a56.851 56.851 0 01-9.322.534c.4-.193 12.45-6.037 21.113-14.861 0 0-6.35 18.211-18.529 32.669zm25.488-14.359a.477.477 0 01.028-.1c.016-.039.021-.068.031-.086v-.01l.016-.044c.063-.154.1-.272.141-.366a3.926 3.926 0 00.115-.387l.134-.395c.013 0 .019-.008.019-.031a.1.1 0 000-.034 3.627 3.627 0 01.211-.813c.162-.486.3-.74.411-.758l-.014-.013c.014-.024.076-.044.181-.081a.6.6 0 01.165-.047l.008.068a2.191 2.191 0 01-.092.539 5.475 5.475 0 00-.136.536c-.019.008-.026.031-.026.065a.223.223 0 01-.028.06c-.019.039-.023.068 0 .081-.019.026-.039.047-.055.071l-.008.063c-.011 0-.021 0-.026.013s.013 0 .016.005l-.065.23h.019a.154.154 0 00.125-.1c.037-.068.073-.131.11-.194.078-.1.186-.222.321-.384.068-.078.131-.154.207-.235a1.255 1.255 0 01.335-.426.579.579 0 01.342-.1l.053.013v.037a.313.313 0 01-.05.165 1.391 1.391 0 00-.1.152l-.019.008a.249.249 0 01-.07.141.015.015 0 000 .016h.011c-.045.115-.073.207-.1.269a.9.9 0 00-.061.264.364.364 0 01-.028.115.373.373 0 00-.026.112.309.309 0 01-.045.089.11.11 0 00-.023.055l.011.029.036-.008c.095-.131.23-.309.411-.528.136-.175.277-.348.421-.518h.013l.4-.484c.026-.031.053-.068.084-.1s.07-.071.081-.06a.376.376 0 01.117-.1.216.216 0 01.146-.047l.016-.024.058-.01.026.058s.011.013.019.016a.238.238 0 00.063.008c.014.024.026.037.034.026l-.045.06a.061.061 0 01-.01.034.1.1 0 01-.026.037l-.042.037a.092.092 0 01-.023.01v.01c-.047.044-.076.076-.1.094a.109.109 0 00-.031.05l-.128.123v.018a.242.242 0 01-.165.1l.019.013h.052l-.023.01c-.008 0-.021 0-.023.01-.031.024-.055.052-.081.073l.019.01-.031.055c-.014 0-.045.026-.095.076a.219.219 0 00-.07.126h-.029a.14.14 0 01-.06.013.067.067 0 00.023.031l-.023.024c-.042.008-.061.021-.061.042h.016v-.013c.014 0 .021.008.021.013l.01.01-.06.021c-.021.034-.047.065-.068.1l-.055.018.013.031c0 .01-.013.026-.031.039a.076.076 0 00-.028.044c0 .005-.016.01-.045.013l-.028.037.008.01-.061.065-.025.005a.122.122 0 01-.084.078c-.011.024-.023.052-.037.076a.584.584 0 01-.05.078.037.037 0 00-.013.018l-.036.034v.016l-.062.037-.056.1c-.01 0-.021 0-.025.016a.131.131 0 00-.021.052h-.021l-.034.037c-.02.021-.021.039-.026.039l-.019.044a1.084 1.084 0 00-.1.133l.013.026-.049.026-.037.063-.021.01v.021h-.048l.011.013.037.016-.026.016c-.013.008-.019.031-.019.065l-.031.026-.036.094-.032.01v.058a.146.146 0 00-.033.024c-.011.008-.014.016 0 .024-.021.024-.04.047-.058.071s-.039.042-.053.037a.513.513 0 01-.141.118.284.284 0 01-.157.044l-.065-.013v-.1l.008-.251v-.039l.031-.089.036-.084-.021-.034a.727.727 0 00.028-.1.822.822 0 01.016-.084h.021l.026-.139a.652.652 0 01.039-.133v-.016c-.008-.031-.011-.047 0-.052l.025-.042a.037.037 0 010-.044.15.15 0 00.017-.042.464.464 0 01.033-.16c.014-.037.023-.076.034-.115a3.439 3.439 0 00-.246.3 3.228 3.228 0 01-.376.447.087.087 0 01-.026.047c-.021.026-.034.034-.036.034l-.1.128a.272.272 0 00-.081.149l-.07.047c-.011.008-.008.016.011.029s.021.013.021.024a.15.15 0 01-.037.05.706.706 0 01-.044.055l.023.016c0 .005-.013.01-.044.013l-.011.071-.045.034a.029.029 0 00-.028.008v.008a.1.1 0 000 .042l-.034.029c-.008 0-.013 0-.013-.018l-.011-.021-.045.1h-.031a.042.042 0 00-.025 0h-.029l-.026.047a.045.045 0 01-.047.013.063.063 0 01-.031 0l-.031.034-.037-.005a.148.148 0 01-.1.065.16.16 0 00-.092.001zm5.473-.112l-.039-.058a.836.836 0 01.126-.267c.033-.047.067-.1.1-.157h.013l.006.008a.6.6 0 01.06-.094.513.513 0 00.056-.081l.06-.076a.652.652 0 00.053-.086.154.154 0 01.028-.026l.218-.3a.1.1 0 01.039-.029.979.979 0 01.078-.118c.045-.06.07-.086.092-.092a1.731 1.731 0 01.115-.165 8.49 8.49 0 00.141-.17l.087-.1.028-.008.039-.076a.11.11 0 00.042-.018.624.624 0 01.1-.165v-.018a.652.652 0 00.12-.118c.036-.039.076-.081.115-.128a3.932 3.932 0 00.309-.345.936.936 0 00.081-.086 1.613 1.613 0 00.12-.165l.013.016a.4.4 0 01.139-.065.967.967 0 00.123-.044l.039-.018h.029l.013-.016.1-.008.039.013a.13.13 0 01-.021.092h.016l.014.01h-.021c-.023.1-.044.2-.065.3a1.379 1.379 0 01-.078.28s.011 0 .019.008.008.013 0 .021l-.045.081.026.058a.607.607 0 00-.021.1c-.008.047-.014.092-.021.128l-.036.042v.115h-.019l.016.052a.259.259 0 00-.021.078.227.227 0 01-.011.068l.013.068-.031.039a.2.2 0 00.011.044l.008.037a.024.024 0 01-.019.031v-.016l-.008.008c0 .029.013.037.034.031 0 .016-.011.071-.019.165s-.016.144-.016.146a.114.114 0 000 .044l-.055.034v.052l.039-.008a.023.023 0 01.019.037.127.127 0 01-.019.042l.037.034c.008.013 0 .024-.017.026s-.021.008-.021.016v.016c.019.013.026.024.026.026s-.008.013-.026.008v.042a.868.868 0 00.011.086c-.019.026-.026.039-.026.055s.008.018.023.024a.026.026 0 01.026.026h-.016a.269.269 0 01-.006.136.772.772 0 01-.052.144l-.058-.013a.139.139 0 00-.016.029.023.023 0 01-.031.013h-.006l-.021.055c-.089.05-.178.094-.267.144a.2.2 0 01-.118-.136.6.6 0 01-.039-.23.626.626 0 01.011-.12c.008-.042.011-.076.013-.092a.4.4 0 01.016-.052.045.045 0 00-.008-.044v-.066l.026-.016c-.013-.018-.019-.024-.026-.021v-.191l-.065-.008-.05.018a.033.033 0 00-.023-.013s-.013.005-.018.024h-.045c0-.008-.013-.01-.016-.021a.08.08 0 01-.055.037.455.455 0 01-.058.013v-.029a.029.029 0 010-.018h-.021c-.008 0-.019.01-.034.021a.244.244 0 01-.146.047c-.021.01-.042.021-.062.034s-.031.026-.05.039l-.076-.044a.194.194 0 00-.028.063l-.065.016h-.031l-.071.034-.023.052-.033-.008-.034.013-.014.068a.407.407 0 01-.052.063.367.367 0 01-.065.042l-.008.034h.031a.1.1 0 01-.016.037c-.011.008-.016 0-.019-.008a.174.174 0 00-.062.131.489.489 0 00-.112.055.166.166 0 00-.071.084l-.075.068c-.008 0-.014 0-.019-.013v-.016l-.207.1-.094.052zm1.938-2.129a.8.8 0 01-.081.11.335.335 0 00-.072.123.24.24 0 00-.076.063 1 1 0 01-.1.131.549.549 0 01-.126.18c-.016.037-.028.071-.042.1a.645.645 0 00.157-.018c.17-.031.262-.052.27-.052l.021-.008c.025-.167.055-.335.086-.5l.039-.17a.126.126 0 01-.077.041zm-4.071 2.11a1.171 1.171 0 01-.136 0l-.128-.044a.369.369 0 01-.1-.188.834.834 0 01.125-.267.333.333 0 00.058-.139c0-.005.008-.013.029-.031a.044.044 0 00.016-.045v.008l.037-.024v-.029c.026-.047.047-.076.06-.1a1.022 1.022 0 01.065-.112c.026-.047.053-.094.079-.149h.023l.019-.073.028-.008.039-.092c.011 0 .023-.024.039-.06a2.583 2.583 0 01.226-.408c.287-.434.434-.662.444-.68l.013-.018-.008-.013-.047.01-.073-.01-.058-.047a.534.534 0 01.087-.162.52.52 0 01.117-.133c0-.016.008-.026.016-.031s.008 0 .008 0a.537.537 0 01.327-.152 2.513 2.513 0 01.5-.05.315.315 0 01.07 0 .5.5 0 01.089 0l.126.01a.305.305 0 01.1.031l.019.024h.021v-.008a.918.918 0 01.1.034.584.584 0 01.095.058v.024h.023a.055.055 0 01.034.024c.013.018.025.024.033.008l.031.044h.011l.011.013a.119.119 0 00.031.06c.026.024.036.037.039.052l-.039.021.031.037.016.005a.054.054 0 01-.034.052h.071v.018h-.019s-.008.013-.011.039h.011l.019-.008s-.011.013-.039.037a.02.02 0 000 .018l-.034.042h.075c-.008 0-.013.016-.013.037s0 .031-.011.031h-.047v.021l.016.013a.252.252 0 01.061-.029.087.087 0 01-.076.073.03.03 0 010 .042.033.033 0 00-.021.026h.021l.089-.044-.028.021v.008l-.05.042h-.026l-.031.073-.05.039v.034l.047-.01.011.076h-.042a.044.044 0 01-.008.024.023.023 0 01-.028.005l.039.034v.031a.053.053 0 01-.061.06l.008.037a.132.132 0 01-.112.01.021.021 0 000 .029l.011.018-.006.039-.052.021-.029.008h.048l.031.008.031-.034.019.026-.048.052-.094.005a.092.092 0 00-.019.058h.016l.029-.018v.024a.276.276 0 01-.065 0l-.053.047v.029l.053.008-.095.031-.031.05c.008.01 0 .016-.013.024l-.065.013v.029l.084.016.038-.031-.033.065a.228.228 0 01-.039-.013.145.145 0 01-.053.06.3.3 0 01-.1.037.057.057 0 00.011.013.062.062 0 01.031.01l-.061.021-.028.05-.044.01c-.021.034-.032.052-.029.058h-.047c.016.018.013.031 0 .031a.177.177 0 01-.053 0l-.07.01v.021h.023a.016.016 0 00.016 0 .051.051 0 00-.026.05l-.044.013c0 .005-.011.008-.011.016h-.036l-.006.026a.078.078 0 01-.036.024.03.03 0 01-.021 0l-.01-.013-.026.058h-.076c0 .029-.026.047-.067.065a.118.118 0 00.031.034l-.05-.01-.05.026v.021h.028c.006 0 .006 0 .006.01l-.037.013c-.013.01-.021.021-.031.031a.1.1 0 01-.055.008.07.07 0 00-.013.034.243.243 0 00-.071.024.076.076 0 00-.042.047l-.021-.01c-.031 0-.05.016-.065.05h-.042a1.29 1.29 0 01-.206.128.576.576 0 01-.23.094.475.475 0 01-.2.126 1.148 1.148 0 01-.24.073.075.075 0 00-.041-.005zm.471-.573v.034l.031.013.092-.013.039-.034h.029c.013-.008.052-.021.112-.05a.25.25 0 00.117-.065h.04s.008-.013.008-.037a.969.969 0 00.12-.042l.028-.029.011-.029a.133.133 0 00.068-.021h.013a.316.316 0 01.086-.092.8.8 0 01.118-.068v-.029a1.611 1.611 0 00.165-.131c.041-.039.091-.1.148-.16l.115-.152c.034-.05.073-.112.115-.183h.021a.269.269 0 01.029-.12.345.345 0 01.06-.112v-.021l.023-.016a.225.225 0 010-.1c.011-.044.019-.1.026-.152a.349.349 0 00-.131-.288.461.461 0 00-.318-.11l-.105.01a.048.048 0 01.021.037c-.021 0-.031.018-.042.047a.126.126 0 00-.011.076.08.08 0 00-.031.092l-.034.013-.008.024a.016.016 0 00-.016 0c-.008 0-.008.008 0 .018l-.034.06v.031l-.044.016v.039l-.042.01-.011.037.023.037-.01.01-.068.01v.013l.011.031.047-.01a.22.22 0 00-.05.047.211.211 0 00-.031.058l-.026.044h-.018l-.014.024h-.019l-.008.034.019.008.042-.016a.085.085 0 01-.073.039v.05h-.019v-.013c0-.005 0-.013-.013-.013l-.011.018.023.026.011.021-.047.068-.011.013-.047.01-.031.071.028.065h-.081v.013l.036.021h.021a.145.145 0 01-.05.031l-.062.016-.014.031.006.024.025-.021h.034v.024l-.016.024h-.047v.016l-.039.01c0 .013.01.024.016.024l.008.01-.045.024v-.021a.22.22 0 00-.073.118l-.034.008v.039a.249.249 0 01.092-.034l.008.008-.039.021a.111.111 0 01-.076.076l.011.021-.05.029-.008.037h.031l.016-.024.011.018a.033.033 0 00-.013.034l-.039-.013c-.04.021-.065.039-.071.06v.026l.014-.013.008-.005.047-.013.016-.013-.037.06-.033.008h.013v.031l-.023.05-.039-.01-.034.01v.06l-.016.008-.008.026h.022zm.014-.021s0 .016-.012.018zm-.62-.131v.01zm2.327-.6l-.013.026zm-21.947-1.993h.011l-.011.005z" fill="#d53c0f"/><path d="M19.043 39.811H5.763l1.062-.884c.128-.106 12.245-10.225 17.633-17.311a57.567 57.567 0 01-6.808.406 58.6 58.6 0 01-1.325-.015l-.6.258v-.271l-1.574-.039 1.571-.757v-.2l.4.009c1.3-.639 12.624-6.313 20.866-14.709l1.563-1.593-.735 2.108a111.9 111.9 0 01-4.72 10.968 124.438 124.438 0 01-5.822 10.6 94.807 94.807 0 01-8.076 11.264zm-10.534-1h10.068A108.806 108.806 0 0032.186 17.35a123.86 123.86 0 003.886-8.771 87.445 87.445 0 01-17.8 12.439 56.568 56.568 0 007.208-.543l1.138-.16-.658.941c-2.118 3.028-5.876 7.052-11.169 11.962-2.62 2.43-4.98 4.483-6.28 5.593zm23.528-13.175l.1-.75a.868.868 0 01.038-.166v-.009l.067-.192c.031-.075.056-.143.078-.2l.059-.153c.04-.116.072-.223.1-.326l.013-.044.135-.4a4.194 4.194 0 01.231-.884 2.176 2.176 0 01.494-.935.805.805 0 01.373-.214 1.1 1.1 0 01.279-.076l.506-.069.058.5a1.074 1.074 0 01.528-.148l.212-.23-.067.244.055.014.286.071.016-.019a1.48 1.48 0 01.067-.081.739.739 0 01.154-.142.935.935 0 01.113-.092l-1.1-.961 1.485.794.439-.08.065.142h.037l.1.165a1.028 1.028 0 01.258-.066 3.027 3.027 0 01.506-.054v-.068l.337.077.091.008a.865.865 0 01.132.029l.157-.315.45.639.032.025.259-.109v.212l.127-.046-.022.15.146-.033.25-.2-.28.548.014-.016.03-.034a3.439 3.439 0 00.271-.3l.024-.031.029-.027a.441.441 0 00.037-.041 1.3 1.3 0 00.083-.114l.374-.581.192.238.239-.018.352-.4-.1.427.016.005.289.1.033.212 1 .768h-1.093q-.01.045-.023.089a.542.542 0 01-.006.089l.017.036-.057.177v.043l-.006.04c-.007.04-.013.078-.02.111l-.016.073.017.058-.026.065v.192l.012.064-.012.015v.085h-.029l-.006.046c0 .015 0 .032-.007.053l.263.233h-.266l.039.209-.034.021a.518.518 0 01-.013.067c0 .015 0 .031-.008.045a.491.491 0 01.016.085l.013.061-.01.014v.478h-.123l-.175.352-.186-.042-.117.063-.123.066-.21.117-.223-.091a.7.7 0 01-.407-.448q-.016-.048-.029-.1v-.006a1.062 1.062 0 01-.029-.2l-.062.043-.056.123-.059-.014v.163l-.1.032.278.213-.517-.109-.232.21h-.153l-.035.017-.074.042-.011.019-.007-.009-.106.059h-.424l-.317-.467.03-.112-.138.015-.111.3-.277-.142a1.988 1.988 0 01-.079.043 1.107 1.107 0 01-.244.116.982.982 0 01-.264.138 1.665 1.665 0 01-.321.1l-.2.039-.059-.039h-.121l-.308-.107-.084-.088a.878.878 0 01-.04-.046.872.872 0 01-.186-.4l-.01-.054h-.112v.074l-.155.1-.009.01-.026.033a.631.631 0 01-.157.151 1.046 1.046 0 01-.176.131.787.787 0 01-.418.117h-.05l-.5-.1v-.051l-.089.206h-.222l-.041.019-.1.107-.112-.016a.635.635 0 01-.162.041l-.1.011z" fill="rgba(0,0,0,0)"/></g><g fill="#1a202c"><path d="M61.938 6.933h2.032a27.5 27.5 0 01-.187 3.45 12.961 12.961 0 003-1.952l1.283 1.632a20.482 20.482 0 01-4.012 2.273 26.618 26.618 0 013.9 2.941l-1.425 1.738a28.426 28.426 0 00-3.9-3.236 10.3 10.3 0 01-4.117 3.342l-1.383-1.498a8.824 8.824 0 003.659-2.754q1.151-1.446 1.15-5.936zm11.55 0h2.032a26.862 26.862 0 01-.187 3.424 12 12 0 003.21-2.141l1.283 1.632a20.679 20.679 0 01-4.386 2.539 26.567 26.567 0 014.172 3.022l-1.39 1.714a28.314 28.314 0 00-4.146-3.262 10.273 10.273 0 01-4.01 3.159l-1.391-1.5a8.641 8.641 0 003.663-2.727q1.149-1.42 1.15-5.859zm6.976 10.374v5.161h-2.242v-3.1H58.864v2.888h-2.246v-4.95zm-21.28 4.947h6.953a18.854 18.854 0 00.4-2.487l2.245.348q-.135 1.121-.32 2.139h9.117q-.133 6.551-1.311 8.182a3.213 3.213 0 01-2.647 1.121 34.118 34.118 0 01-4.17-.348l-.562-2.245a40.085 40.085 0 004.732.348.959.959 0 00.91-.642 17.9 17.9 0 00.481-4.518h-7.059a12.01 12.01 0 01-2.219 4.037 13.975 13.975 0 01-7.112 3.8l-.936-2.141a12.427 12.427 0 006.363-3.288 7.266 7.266 0 001.5-2.4h-6.364zm-.775-13.823a16.025 16.025 0 012.032 3.423l-1.684.962A15.641 15.641 0 0056.832 9.5zm11.445-.108a16.9 16.9 0 012.058 3.423l-1.711.962a15.724 15.724 0 00-1.925-3.316zM99.7 7.494l1.256 1.685q-2.624.267-5.562.455v1.9h5.886v1.845h-5.882v1.5h5.267v8.419h-5.267v1.738h5.16v1.685h-5.16v1.636q3.022-.161 5.481-.32l.139 1.149a17.269 17.269 0 002.107-4.729 41.144 41.144 0 001.15-10h-2.646v-2.043h2.67V7.039h2.143v5.375h5.106a137.367 137.367 0 01-.775 16.6 3.366 3.366 0 01-.983 2.06 2.989 2.989 0 01-1.98.7 14.087 14.087 0 01-2.759-.325l-.219-2.352a13.571 13.571 0 002.969.427.693.693 0 00.642-.508 5.594 5.594 0 00.4-2.032q.426-5.829.481-12.54h-2.911a42.821 42.821 0 01-1.422 11.337 15.544 15.544 0 01-3.369 6.1l-1.524-1.5a5.237 5.237 0 00.562-.721q-5.826.7-12.937 1.154l-.348-2.139q3.209-.108 6.013-.24v-1.712H88.15v-1.688h5.242v-1.738H88.15v-8.418h5.242v-1.5h-6.123v-1.844h6.123V9.797q-2.273.161-4.734.268l-.829-1.631q5.936-.3 11.876-.939zm-9.516 14.014h3.208v-1.633h-3.208zm5.213-1.631v1.631h3.208v-1.633zm-5.213-1.579h3.208v-1.609h-3.208zm5.213-1.607v1.6h3.208v-1.6zm29.93-9.653a12.763 12.763 0 011.15 2.807h5.4v2h-3.02l1.951.668a26.245 26.245 0 01-.984 2.888q-.319.828-.641 1.5h2.994v2.139h-13.8v-2.133h3.556a27.313 27.313 0 00-1.6-4.385l1.422-.668h-2.94V9.849h5.187a10.271 10.271 0 00-.8-2.139zm-1.123 9.871h2.593a19.142 19.142 0 00.8-1.979 21.747 21.747 0 00.936-3.075h-6.178a34.9 34.9 0 011.851 5.052zm6.389 4.279v10.025h-2.136V29.74h-6.449v1.708h-2.137V21.185zm-8.585 6.5h6.449V23.19h-6.449zm21.209-19.465l-3.453 9.331a13.141 13.141 0 012.38 3.1 7.7 7.7 0 01.962 3.5q-.052 4.31-3.876 4.309a15.764 15.764 0 01-2.245-.218l-.508-2.567a9.15 9.15 0 002.754.535q1.577 0 1.631-2.058a6.043 6.043 0 00-.749-2.782 9.98 9.98 0 00-2.674-3.288l2.623-7.728h-4.467v21.31h-2.248V8.217zM155.58 6.94h2.032a27.8 27.8 0 01-.187 3.45 12.952 12.952 0 002.994-1.952l1.283 1.632a20.512 20.512 0 01-4.011 2.273 26.62 26.62 0 013.9 2.941l-1.42 1.738a28.457 28.457 0 00-3.9-3.235 10.29 10.29 0 01-4.117 3.342l-1.393-1.5a8.816 8.816 0 003.663-2.754q1.153-1.445 1.153-5.936zm11.55 0h2.032a27.11 27.11 0 01-.187 3.424 12 12 0 003.208-2.141l1.283 1.632a20.7 20.7 0 01-4.385 2.539 26.5 26.5 0 014.17 3.022l-1.392 1.711a28.305 28.305 0 00-4.145-3.262 10.288 10.288 0 01-4.011 3.159l-1.391-1.5a8.642 8.642 0 003.663-2.727q1.149-1.42 1.149-5.859zm6.979 10.374v5.161h-2.248v-3.1h-19.36v2.888h-2.245v-4.957zm-21.28 4.94h6.951a18.478 18.478 0 00.4-2.487l2.247.348q-.135 1.121-.32 2.139h9.118q-.134 6.551-1.312 8.182a3.212 3.212 0 01-2.647 1.121 34.118 34.118 0 01-4.17-.348l-.562-2.245a40.09 40.09 0 004.732.348.959.959 0 00.91-.642 17.911 17.911 0 00.481-4.518h-7.059a12 12 0 01-2.22 4.037 13.97 13.97 0 01-7.112 3.8l-.936-2.141a12.426 12.426 0 006.363-3.288 7.288 7.288 0 001.5-2.4h-6.364zm-.775-13.823a16.025 16.025 0 012.032 3.423l-1.684.962a15.651 15.651 0 00-1.925-3.316zm11.444-.11a16.906 16.906 0 012.058 3.423l-1.711.962a15.687 15.687 0 00-1.927-3.312zm29.846-.829l1.256 1.685q-2.624.267-5.562.455v1.9h5.884v1.845h-5.88v1.5h5.268v8.419h-5.268v1.738h5.161v1.685h-5.161v1.636q3.022-.161 5.481-.32l.133 1.15a17.249 17.249 0 002.113-4.73 41.132 41.132 0 001.15-10h-2.646v-2.041h2.674V7.039h2.139v5.375h5.106a137.644 137.644 0 01-.778 16.6 3.366 3.366 0 01-.983 2.06 2.988 2.988 0 01-1.979.7 14.126 14.126 0 01-2.755-.32l-.218-2.354a13.5 13.5 0 002.968.427.692.692 0 00.641-.508 5.536 5.536 0 00.4-2.032q.428-5.829.481-12.54h-2.914a42.86 42.86 0 01-1.422 11.337 15.54 15.54 0 01-3.369 6.1l-1.524-1.5a5.268 5.268 0 00.562-.723q-5.82.7-12.938 1.15l-.348-2.139q3.209-.108 6.013-.24v-1.709h-5.24v-1.688h5.24v-1.738h-5.24v-8.418h5.24v-1.5h-6.121v-1.844h6.121V9.797q-2.272.161-4.732.268l-.829-1.631q5.94-.3 11.874-.939zm-9.517 14.014h3.209v-1.631h-3.209zm5.214-1.631v1.631h3.208v-1.631zm-5.214-1.579h3.209v-1.607h-3.209zm5.215-1.607v1.6h3.208v-1.6zm24.818-4.092h8.609q.134-2.3.133-5h2.354q0 2.7-.133 5h10.106q0 11.952-.64 14.978a4.734 4.734 0 01-1.422 2.941 5.2 5.2 0 01-2.861.7 36.384 36.384 0 01-4.6-.3l-.552-2.567a34.743 34.743 0 005.161.4 1.7 1.7 0 001.444-.508 6.22 6.22 0 00.562-2.433q.348-3.635.348-10.856h-7.7q-.613 7.113-2.567 9.921a21.348 21.348 0 01-7.619 6.9l-1.293-2.033a19.521 19.521 0 006.872-6.31q1.658-2.54 2.219-8.476h-8.418zm47.153 4.42h-2.861a6 6 0 01-.962 3.262 4.679 4.679 0 01-2.514 1.738l-.962-1.9a4.026 4.026 0 001.818-1.23 8.2 8.2 0 00.641-3.936h5.722a14.964 14.964 0 01-2-1.5 13.708 13.708 0 01-4.037-5.962l1.951-.562a9.011 9.011 0 001.414 2.76 14.645 14.645 0 003.4-2.754l1.363 1.631a19.214 19.214 0 01-3.423 2.593q.508.482 1.07.936a3.081 3.081 0 01.24.219 14.655 14.655 0 003.636-3.127l1.394 1.6a20.511 20.511 0 01-3.182 2.727 23.54 23.54 0 004.573 1.9l-1.6 1.792a19.809 19.809 0 01-3.529-1.5v2.593q0 .749.642.749h2.888v1.9h-3.317q-2.353 0-2.352-1.9zm-14.357 2.46h4.518v-2.273h-3.957v-.187a17.609 17.609 0 01-3.1 1.069l-1.069-2.058a16.406 16.406 0 004.545-1.631 21.313 21.313 0 00-2.727-2.541l1.39-1.5a19.056 19.056 0 013.262 2.755 11.063 11.063 0 002.754-3.37h-6.979v-2.03h9.492v1.47a13.878 13.878 0 01-3.985 5.59c-.232.178-.454.348-.668.508h3.182v6.122h-5.4l-.534 2.033h6.231q-.7 5.827-1.823 7.03a3.263 3.263 0 01-2.567.984h-2.648l-.218-2.139a25.843 25.843 0 002.861.218 1.2 1.2 0 001.078-.593 8.742 8.742 0 00.955-3.611h-6.52l1.524-5.855zm9.118 4.894h-1.176v-2.01h10.561v1.391a10.172 10.172 0 01-1.764 3.342 5.187 5.187 0 01-.534.562q1.925 1.093 3.718 2.273l-1.526 1.848q-1.925-1.391-3.936-2.593-.643.4-1.312.775a15.949 15.949 0 01-5.527 1.709l-.562-2.033a13.026 13.026 0 004.646-1.312 4.525 4.525 0 00.668-.348q-2.245-1.256-4.545-2.3zm5.139 2.219q.218-.241.427-.455a7.935 7.935 0 001.23-1.764h-6.444q2.482 1.037 4.781 2.214zm33.994-16.739h-15.853v2h15.853zm-15.853 4.038v2.7h4.7V14.45h2.14v2.139h4.81V14.45h2.139v2.139h4.6v2h-4.6v2.916h5.776v2.032h-15.271v5.854q2.405-.587 5-1.5l.348 1.951a42.444 42.444 0 01-6.977 2.033l-.936-1.951a.793.793 0 00.427-.616v-5.771h-2.433q-.135 1.23-.348 2.4a29.535 29.535 0 01-1.738 5.723l-2.14-1.176a38.084 38.084 0 001.792-6.123 45.139 45.139 0 00.456-6.365V7.814h20.24v6.069zm-.08 7.619h4.786v-2.917h-4.7v.11q-.015 1.415-.093 2.806zm6.924 0h4.811v-2.917h-4.811zm8.9 2.568l1.391 1.6a19.189 19.189 0 01-3.11 2.028 10.4 10.4 0 001.738.749 18 18 0 004.251 1.069l-.962 2.141a23.889 23.889 0 01-4.625-1.422 10.742 10.742 0 01-3.316-2 10.192 10.192 0 01-2.435-3.53l1.9-.642a9.064 9.064 0 001.657 2.352 15.038 15.038 0 003.5-2.349zM307.16 7.923h21.845v5.78h-21.853zm2.127 4.062h4.6v-2.38h-4.6zm6.63-2.38v2.38h4.412v-2.38zm6.444 0v2.38h4.492v-2.38zm-14.868 5.908h8.353v-1.308h2.247v1.312h5.775v1.47q2.381-1.043 4.492-2.219l1.283 1.363a48.121 48.121 0 01-4.786 2.46h5.53v1.739h-9.813q-.641.239-1.337.455-1.925.667-3.957 1.23h12.408v9.653h-2.245V30.49h-13.338v1.177h-2.245v-8.183q-1.738.4-3.53.775l-.856-1.792q4.867-.963 9.037-2.139h-8.745v-1.737h10.08V17.2h-8.343zm4.6 13.338h13.336v-1.677h-13.338zm0-3.316h13.336v-1.783h-13.338zm7.674-6.953q1.871-.641 3.582-1.391h-5.26v1.394z"/><path d="M65.242 38.1l-1.89 7.293h-.895l-1.838-5.991-1.839 5.991h-.873L56.002 38.1h.9l1.493 5.885 1.792-5.885h.875l1.8 5.885 1.493-5.885zm6.886 3.666a4.132 4.132 0 01-.821 2.7 3.163 3.163 0 01-4.717 0 4.172 4.172 0 01-.812-2.7 4.235 4.235 0 01.812-2.716 2.836 2.836 0 012.353-1.073 2.886 2.886 0 012.36 1.064 4.236 4.236 0 01.821 2.724zm-.913 0a3.572 3.572 0 00-.547-2.052 1.933 1.933 0 00-1.707-.915 1.912 1.912 0 00-1.7.915 3.62 3.62 0 00-.541 2.052 3.545 3.545 0 00.531 2.019 2.053 2.053 0 003.405 0 3.492 3.492 0 00.551-2.021zm6.983 3.618h-1.064a4.417 4.417 0 01-.279-1.447 9.49 9.49 0 00-.168-1.185.557.557 0 00-.336-.411 2.809 2.809 0 00-.736-.056h-1.628v3.117h-.875v-7.3h2.482a2.485 2.485 0 011.586.457 1.969 1.969 0 01.692 1.651 1.644 1.644 0 01-.322.984 1.559 1.559 0 01-.766.6 1.328 1.328 0 01.9 1.307q.047.512.168 1.437a1.656 1.656 0 00.345.846zm-1.251-5.207q0-1.269-1.465-1.27h-1.5v2.492h1.333a2.054 2.054 0 001.171-.313 1.03 1.03 0 00.46-.909zm6.97 5.207h-1.12l-2.742-3.509-.2.206v3.3h-.887v-7.3h.887v2.771l2.688-2.771h1.166l-3.056 3.152zm4.852-6.45h-3.21v2.268h3.089v.84h-3.089v3.333h-.875v-7.288h4.084zm7.12 2.827a4.142 4.142 0 01-.821 2.7 3.16 3.16 0 01-4.712 0 4.177 4.177 0 01-.812-2.7 4.221 4.221 0 01.812-2.715 2.827 2.827 0 012.351-1.073 2.887 2.887 0 012.361 1.063 4.247 4.247 0 01.821 2.727zm-.915 0a3.584 3.584 0 00-.546-2.053 1.934 1.934 0 00-1.708-.913 1.912 1.912 0 00-1.7.913 3.628 3.628 0 00-.541 2.053 3.545 3.545 0 00.537 2.023 1.92 1.92 0 001.7.906 1.939 1.939 0 001.708-.906 3.5 3.5 0 00.556-2.021zm6.989 3.623h-1.064a4.39 4.39 0 01-.28-1.447 9.036 9.036 0 00-.168-1.185.553.553 0 00-.335-.411 2.809 2.809 0 00-.736-.056h-1.624v3.117h-.875v-7.3h2.481a2.491 2.491 0 011.587.457 1.967 1.967 0 01.69 1.651 1.635 1.635 0 01-.321.984 1.551 1.551 0 01-.765.6 1.326 1.326 0 01.895 1.307q.049.512.17 1.437a1.65 1.65 0 00.344.846zm-1.25-5.207q0-1.269-1.465-1.27h-1.5v2.492h1.333a2.057 2.057 0 001.171-.313 1.031 1.031 0 00.46-.909zm7.315 3.154a3.251 3.251 0 01-.11.588 2.052 2.052 0 01-.875 1.153 2.611 2.611 0 01-1.469.437 2.68 2.68 0 01-2.343-1.148 5.3 5.3 0 01.019-5.227 2.677 2.677 0 012.324-1.166 2.471 2.471 0 011.661.547 2 2 0 01.7 1.586h-.886a1.336 1.336 0 00-1.355-1.315c-.042 0-.086 0-.128.009a1.81 1.81 0 00-1.64.942 3.892 3.892 0 00-.476 2.015 3.8 3.8 0 00.476 2 1.815 1.815 0 001.64.933 1.505 1.505 0 001.03-.374 1.658 1.658 0 00.537-.983zm5.291 2.053h-4.432v-7.3h4.282v.84h-3.406v2.266h3.281v.841h-3.281v2.5h3.546zm11.346-3.63q0 3.639-3.733 3.638h-1.875V38.1h1.858a3.837 3.837 0 012.752.946 3.561 3.561 0 01.997 2.704zm-.915-.01q0-2.818-2.938-2.817h-.869v5.617h1.288a2.381 2.381 0 001.9-.76 3.115 3.115 0 00.616-2.04zm6.205 3.64h-4.433v-7.3h4.283v.84H126.4v2.266h3.281v.841H126.4v2.5h3.546zm6.576-7.284l-2.574 7.293h-.887l-2.584-7.293h.923l2.1 6.083 2.109-6.083zm5.138 7.287h-4.428v-7.3h4.282v.84h-3.407v2.266h3.281v.841h-3.281v2.5h3.544zm5.2 0h-4.234v-7.3h.875v6.457h3.359zm6.929-3.623a4.142 4.142 0 01-.821 2.7 3.163 3.163 0 01-4.712 0 4.177 4.177 0 01-.813-2.7 4.228 4.228 0 01.813-2.716 2.829 2.829 0 012.351-1.072 2.884 2.884 0 012.361 1.063 4.239 4.239 0 01.819 2.724zm-.915 0a3.576 3.576 0 00-.547-2.053 2.045 2.045 0 00-3.408 0 3.626 3.626 0 00-.546 2.053 3.541 3.541 0 00.541 2.021 1.915 1.915 0 001.7.908 1.935 1.935 0 001.7-.908 3.494 3.494 0 00.551-2.021zm6.584-1.521q0 2.136-2.893 2.137h-.942v3.005h-.875v-7.3h1.782q2.928.002 2.927 2.156zm-.9-.01a1.122 1.122 0 00-.475-.983 1.88 1.88 0 00-1.12-.309h-1.333v2.6h1.333a1.936 1.936 0 001.13-.3 1.156 1.156 0 00.465-1.012zm9.032 5.152h-.875V40.05l-2.289 5.338h-.838l-2.286-5.338v5.338h-.875v-7.3h.9l2.68 6.251 2.676-6.251h.906zm5.576 0h-4.432v-7.3h4.283v.84h-3.406v2.266h3.281v.841h-3.281v2.5h3.546zm6.28 0h-.953l-3.48-5.887v5.887h-.893v-7.3h.984l3.462 5.869v-5.867h.873zm6.093-6.45h-2.22v6.459h-.875v-6.458h-2.22V38.1h5.327zm11.681 6.45h-.913l-.766-1.9h-3.2l-.756 1.9h-.923l2.893-7.3h.765zm-2.025-2.771l-1.26-3.294-1.241 3.294zm8.31-2.417h-.9a1.341 1.341 0 00-.527-1.022 1.926 1.926 0 00-1.209-.369 1.859 1.859 0 00-1.595.9 3.565 3.565 0 00-.578 2.053 3.324 3.324 0 00.607 2.117 2.262 2.262 0 001.9.831 2.465 2.465 0 001.391-.364v-1.9h-1.7v-.849h2.556v3.312a3.933 3.933 0 01-2.514.634 2.816 2.816 0 01-2.3-1.073 4.1 4.1 0 01-.858-2.7 4.262 4.262 0 01.774-2.613 2.744 2.744 0 012.315-1.149 2.847 2.847 0 011.88.6 2.046 2.046 0 01.744 1.591zm5.574 5.188h-4.447v-7.3h4.282v.84h-3.405v2.266h3.279v.841h-3.279v2.5h3.545zm6.28 0h-.952l-3.48-5.887v5.887h-.886v-7.3h.983l3.461 5.869v-5.867h.875zm6.458-2.053a3.241 3.241 0 01-.11.588 2.058 2.058 0 01-.875 1.153 2.611 2.611 0 01-1.469.437 2.68 2.68 0 01-2.342-1.148 5.289 5.289 0 01.019-5.227 2.677 2.677 0 012.324-1.166 2.469 2.469 0 011.66.547 2 2 0 01.7 1.586h-.887a1.335 1.335 0 00-1.354-1.315c-.044 0-.086 0-.128.009a1.812 1.812 0 00-1.641.942 3.9 3.9 0 00-.475 2.015 3.81 3.81 0 00.475 2 1.818 1.818 0 001.641.933 1.506 1.506 0 001.03-.374 1.659 1.659 0 00.537-.983zm6.617-5.231l-2.667 4.154v3.13h-.859V42.25l-2.669-4.154h1.045l2.062 3.331 2.062-3.331zm1.885 7.228a1.623 1.623 0 01-.262.942 2.6 2.6 0 01-.792.663l-.279-.43a1.342 1.342 0 00.84-1.008h-.672V44.32h1.175zm12.914.056h-.875V40.05l-2.289 5.338h-.84l-2.285-5.338v5.338h-.876v-7.3h.906l2.675 6.251 2.678-6.251h.9zm2.109 0h-.875v-7.3h.875zm6.568 0h-.952l-3.48-5.887v5.887h-.887v-7.3h.984l3.461 5.869v-5.867h.874zm2.118 0h-.875v-7.3h.875zm5.748-1.977q0 2.118-2.669 2.117a2.073 2.073 0 01-1.6-.629 2.467 2.467 0 01-.6-1.683h.9a1.551 1.551 0 00.387 1.12 1.643 1.643 0 001.171.354 1.706 1.706 0 001.008-.289 1.084 1.084 0 00.494-.953.949.949 0 00-.26-.7 1.825 1.825 0 00-.673-.373l-.868-.28a4.662 4.662 0 01-1.324-.644 1.663 1.663 0 01-.672-1.362 1.877 1.877 0 01.709-1.53 2.381 2.381 0 011.55-.523 2.654 2.654 0 011.557.42 1.867 1.867 0 01.765 1.6h-.895a1.145 1.145 0 00-.387-.887 1.459 1.459 0 00-.966-.308 1.626 1.626 0 00-1 .3.985.985 0 00-.43.831.929.929 0 00.448.811 6.06 6.06 0 00.97.437 11.374 11.374 0 011.588.71 1.721 1.721 0 01.791 1.455zm5.71-4.469h-2.22v6.455h-.875v-6.458h-2.22V38.1h5.327zm5.887 6.45h-1.064a4.4 4.4 0 01-.28-1.447 9.026 9.026 0 00-.168-1.185.553.553 0 00-.335-.411 2.819 2.819 0 00-.738-.056h-1.623v3.114h-.875v-7.3h2.482a2.485 2.485 0 011.586.457 1.967 1.967 0 01.692 1.651 1.643 1.643 0 01-.321.984 1.556 1.556 0 01-.765.6 1.326 1.326 0 01.895 1.307q.047.512.168 1.437a1.663 1.663 0 00.348.845zm-1.25-5.211q0-1.269-1.465-1.27h-1.5V41.4h1.335a2.056 2.056 0 001.171-.313 1.03 1.03 0 00.463-.91zm7.781-2.077l-2.669 4.154v3.13h-.857V42.25l-2.669-4.154h1.045l2.062 3.331 2.061-3.331zm11.664 3.663a4.141 4.141 0 01-.821 2.7 3.163 3.163 0 01-4.712 0 4.93 4.93 0 010-5.413 2.829 2.829 0 012.351-1.072 2.881 2.881 0 012.36 1.063 4.232 4.232 0 01.826 2.721zm-.915 0a3.575 3.575 0 00-.547-2.053 2.042 2.042 0 00-3.405 0 3.626 3.626 0 00-.546 2.053 3.534 3.534 0 00.546 2.025 1.916 1.916 0 001.7.9 1.939 1.939 0 001.7-.908 3.5 3.5 0 00.55-2.021zm5.953-2.827h-3.21v2.268h3.09v.839h-3.088v3.332h-.875v-7.289h4.087zm9.974 6.451h-4.236v-7.3h.875v6.457h3.358zm6.9 0h-.918l-.765-1.9h-3.191l-.754 1.9h-.923l2.893-7.3h.765zm-2.025-2.772l-1.26-3.293-1.241 3.292zm7.557.729a1.949 1.949 0 01-.531 1.4 2.252 2.252 0 01-1.717.644h-2.547v-7.3h2.4a2.209 2.209 0 011.474.5 1.784 1.784 0 01.644 1.437 1.714 1.714 0 01-.868 1.5 1.847 1.847 0 011.14 1.81zm-1.175-3.281q0-1.148-1.4-1.148h-1.361v2.268h1.391a1.579 1.579 0 00.942-.262 1.011 1.011 0 00.426-.854zm.252 3.192a1.009 1.009 0 00-.523-.972 3.29 3.29 0 00-1.464-.242h-1.036v2.508h1.409q1.622 0 1.614-1.293zm8.043-1.494a4.142 4.142 0 01-.821 2.7 3.159 3.159 0 01-4.714 0 4.164 4.164 0 01-.812-2.7 4.227 4.227 0 01.812-2.716 2.834 2.834 0 012.351-1.073 2.886 2.886 0 012.36 1.064 4.23 4.23 0 01.822 2.724zm-.913 0a3.585 3.585 0 00-.547-2.053 1.932 1.932 0 00-1.708-.913 1.909 1.909 0 00-1.7.913 3.618 3.618 0 00-.547 2.053 3.542 3.542 0 00.547 2.025 1.92 1.92 0 001.7.906 1.941 1.941 0 001.7-.907 3.494 3.494 0 00.551-2.021zm6.986 3.623h-1.064a4.42 4.42 0 01-.279-1.447 9.467 9.467 0 00-.168-1.185.555.555 0 00-.336-.411 2.81 2.81 0 00-.736-.056h-1.624v3.117h-.875v-7.3h2.482a2.485 2.485 0 011.586.457 1.968 1.968 0 01.692 1.651 1.643 1.643 0 01-.322.984 1.559 1.559 0 01-.766.6 1.328 1.328 0 01.9 1.307q.047.512.168 1.437a1.65 1.65 0 00.342.845zm-1.25-5.207q0-1.269-1.464-1.27H326V41.4h1.333a2.053 2.053 0 001.171-.313 1.03 1.03 0 00.46-.91z" opacity=".66"/></g></svg>