<svg xmlns="http://www.w3.org/2000/svg" width="48" height="48"><defs><radialGradient id="a" cx=".5" cy=".5" r=".5" gradientUnits="objectBoundingBox"><stop offset="0" stop-color="#fff"/><stop offset="1" stop-color="#99a0a8"/></radialGradient></defs><g transform="translate(1.991)"><rect width="48" height="48" rx="24" transform="translate(-1.991)" opacity=".24" fill="url(#a)"/><path d="M7.064 37.577s12.83-10.338 17.688-17.056a55.965 55.965 0 01-8.959.491c.395-.184 11.967-5.613 20.285-13.818 0 0-6.1 16.936-17.8 30.382zm24.635-13.358a.853.853 0 01.027-.094c.016-.042.021-.063.031-.084v-.005l.01-.042c.059-.146.094-.256.131-.345a3.618 3.618 0 00.109-.355l.121-.371c.016 0 .016-.005.02-.026v-.037a3.434 3.434 0 01.193-.752c.152-.454.283-.69.387-.705l-.016-.016a.472.472 0 01.168-.073.5.5 0 01.156-.042l.006.063a2.138 2.138 0 01-.084.5 3.953 3.953 0 00-.125.5c-.021.01-.025.031-.025.063a.2.2 0 01-.027.052c-.016.042-.025.063 0 .078a.531.531 0 00-.053.068v.057c-.016 0-.021 0-.027.01s0 0 .006 0a.019.019 0 01.016.005l-.062.214h.016a.137.137 0 00.115-.089c.037-.063.072-.12.1-.178.074-.094.174-.209.3-.36.063-.073.125-.146.193-.219a1.2 1.2 0 01.313-.4.525.525 0 01.318-.094l.047.01v.037a.322.322 0 01-.041.151.981.981 0 00-.094.141l-.016.005a.278.278 0 01-.027.073.214.214 0 01-.041.057v.016h.01c-.041.11-.066.193-.088.251a.766.766 0 00-.057.246.451.451 0 01-.027.11.31.31 0 00-.025.1.214.214 0 01-.037.084.1.1 0 00-.025.057l.01.026.031-.01c.094-.12.215-.287.387-.491.125-.162.256-.324.393-.481h.01l.371-.449c.025-.031.047-.063.078-.1s.063-.063.072-.052a.384.384 0 01.111-.1.188.188 0 01.135-.042l.016-.021.053-.01.025.052c.006 0 .012.01.016.016a.223.223 0 00.059.005c.01.021.025.031.031.026l-.043.052a.155.155 0 010 .037.13.13 0 01-.027.031l-.041.037c-.006.005-.01.005-.021.005v.016c-.041.037-.068.068-.088.084s-.031.037-.031.047l-.115.115v.016a.243.243 0 01-.156.1l.016.01h.047l-.016.01a.042.042 0 00-.027.01c-.025.021-.047.047-.072.068l.016.01-.031.047c-.01 0-.037.026-.084.073a.182.182 0 00-.062.115h-.031a.1.1 0 01-.053.016.15.15 0 00.021.031l-.021.016c-.041.01-.057.021-.057.042h.016v-.01c.01 0 .016.005.016.01a.012.012 0 01.01.01l-.057.016a.693.693 0 01-.062.094l-.053.016.016.031c0 .005-.01.021-.031.037a.066.066 0 00-.025.037c0 .01-.012.01-.037.016l-.031.031.01.01-.057.063-.027.005a.111.111 0 01-.072.073.388.388 0 00-.037.068c-.016.026-.031.052-.047.073a.023.023 0 00-.01.016l-.037.037.006.01-.059.037-.053.094a.022.022 0 00-.025.016.093.093 0 00-.016.052h-.021l-.031.031c-.016.021-.02.037-.025.037l-.016.042a.525.525 0 00-.094.125l.01.021-.041.026-.037.057-.021.01v.021h-.041l.01.01.031.016-.02.016c-.016.005-.021.026-.021.057l-.025.026-.037.089-.031.01v.052a.088.088 0 00-.031.021c-.006.01-.012.016 0 .021a.769.769 0 00-.053.068q-.032.039-.047.031a.44.44 0 01-.131.11.25.25 0 01-.146.042l-.062-.01-.006-.094.012-.23v-.037l.025-.084a.474.474 0 01.037-.078l-.021-.031a.853.853 0 00.027-.094c.01-.037.01-.057.016-.078h.02c.006-.047.016-.089.021-.131s.025-.084.037-.125v-.016c-.006-.026-.012-.042 0-.047l.025-.037a.033.033 0 010-.042l.016-.042a.342.342 0 01.031-.146c.01-.037.021-.068.031-.1-.084.089-.156.183-.23.277a2.63 2.63 0 01-.35.418.069.069 0 01-.025.042.069.069 0 01-.031.031l-.1.12a.293.293 0 00-.072.141l-.064.042c-.01.01-.01.016.012.026s.016.016.016.021a.079.079 0 01-.031.047.457.457 0 01-.043.052l.021.016c0 .005-.01.005-.041.01l-.012.068-.041.031c-.006 0-.01-.005-.016 0s-.01.01-.01.016v.037l-.031.026c-.006 0-.012 0-.012-.016a.032.032 0 01-.01-.021l-.043.1h-.025c-.01-.005-.021-.005-.025 0h-.027l-.025.042c-.01.016-.025.016-.041.016h-.031l-.033.031-.031-.01a.125.125 0 01-.094.063.227.227 0 00-.102-.003zm6.787-.23a.567.567 0 01-.031-.214.458.458 0 01.01-.115c.006-.037.006-.068.01-.084s.012-.031.012-.047a.035.035 0 00-.006-.042v-.063l.027-.016c-.012-.016-.021-.021-.027-.016v-.178l-.057-.01-.047.021c-.012-.01-.016-.016-.021-.016s-.016.005-.021.021h-.041c0-.005-.01-.005-.016-.016a.068.068 0 01-.047.031l-.059.016a.06.06 0 00.006-.031v-.016h-.016c-.01 0-.016.01-.031.021a.258.258 0 01-.141.042l-.053.031a.285.285 0 01-.047.037l-.074-.042a.422.422 0 00-.025.063l-.062.01h-.031l-.062.031-.021.047-.031-.005-.031.016-.01.063a.472.472 0 01-.053.057.235.235 0 01-.057.037l-.012.031h.031a.137.137 0 01-.016.037c-.01.005-.01 0-.016-.005a.146.146 0 00-.057.12.374.374 0 00-.105.047c-.041.031-.062.057-.066.084l-.068.057c-.012 0-.016 0-.021-.01l-.006-.01-.187.094-.088.047h-.027l-.035-.052a.7.7 0 01.113-.246c.031-.047.063-.1.1-.146h.006l.01.005a.706.706 0 01.053-.089.349.349 0 00.053-.073.516.516 0 01.057-.068c.016-.026.031-.057.047-.084.006-.01.016-.016.027-.026l.2-.272a.069.069 0 01.037-.031.741.741 0 01.072-.11c.037-.052.063-.078.084-.084a1.82 1.82 0 01.1-.151c.047-.052.09-.1.137-.162l.078-.094.025-.01.037-.068c.016 0 .025-.01.043-.016a.441.441 0 01.094-.157v-.016a.513.513 0 00.109-.11c.037-.037.068-.078.105-.12a3.305 3.305 0 00.287-.319.558.558 0 00.078-.084.748.748 0 00.109-.151l.012.016a.424.424 0 01.131-.063.7.7 0 00.113-.042l.037-.016h.031l.012-.016.094-.005.035.01a.11.11 0 01-.02.084h.016l.01.01h-.021c-.02.1-.035.183-.057.282a1.207 1.207 0 01-.078.261.028.028 0 01.021.005c.01.005 0 .01 0 .021l-.043.073.021.057-.016.094a2.677 2.677 0 00-.021.12l-.031.037v.11h-.016l.016.047a.182.182 0 00-.025.073c0 .031-.006.052-.006.063l.01.063-.025.042c0 .01.006.026.006.037s.01.031.01.037-.006.026-.016.026v-.01l-.01.005c0 .026.01.031.031.031 0 .01-.006.063-.016.151a1.319 1.319 0 01-.016.136v.042l-.047.031v.047l.035-.005a.019.019 0 01.016.031.134.134 0 01-.02.042l.035.031c.006.01 0 .021-.016.026s-.02.005-.02.01v.016c.02.01.025.021.025.026s-.006.01-.025.005v.042a.536.536 0 01.01.078.1.1 0 00-.021.052c0 .01.006.016.021.021a.019.019 0 01.016.005c.006.005.006.01.006.021h-.012a.339.339 0 010 .125.933.933 0 01-.047.136l-.059-.01c-.006.005-.01.016-.016.021s-.006.016-.01.016h-.021l-.021.047c-.078.047-.166.089-.244.136a.182.182 0 01-.109-.124zm.109-1.854a.52.52 0 01-.078.1.321.321 0 00-.068.115.254.254 0 00-.068.057c-.031.042-.062.084-.094.12a.551.551 0 01-.125.167.512.512 0 01-.037.1.657.657 0 00.146-.016c.156-.031.246-.052.252-.052h-.006l.021-.005c.025-.157.051-.313.078-.47l.041-.157a.109.109 0 01-.061.041zm-3.787 1.964a.549.549 0 01-.131 0l-.115-.042a.318.318 0 01-.088-.172.742.742 0 01.115-.251.279.279 0 00.051-.131c0-.005.012-.01.027-.026a.047.047 0 00.016-.032l.035-.025v-.026a1.3 1.3 0 00.115-.193 1.113 1.113 0 00.074-.141h.025l.016-.068.025-.005.037-.084c.012 0 .021-.026.037-.057a2.18 2.18 0 01.209-.381c.266-.4.4-.616.412-.632l.016-.016-.01-.01-.047.005-.062-.005-.059-.047a.621.621 0 01.084-.151.338.338 0 01.109-.12.033.033 0 01.016-.031c.006-.005.006 0 .006 0a.512.512 0 01.3-.141 2.339 2.339 0 01.465-.047h.068a.465.465 0 01.084.005l.115.01a.214.214 0 01.1.026l.016.021h.021v-.005a.655.655 0 01.094.031.555.555 0 01.09.052v.021h.02c.016.005.027.01.031.026s.027.021.037.005l.027.042h.01l.01.01a.091.091 0 00.031.057c.021.021.031.037.031.047l-.031.021.027.031c0 .005.01.005.016.01a.052.052 0 01-.031.047h.063v.016h-.016c-.006 0-.006.01-.012.037h.012l.016-.01c0 .005-.012.016-.037.037v.021l-.031.037h.072c-.01 0-.016.016-.016.031s0 .031-.01.031h-.041v.016l.016.016a.236.236 0 01.051-.026.073.073 0 01-.066.068.032.032 0 01.01.021.05.05 0 01-.01.021.04.04 0 00-.021.021h.021l.082-.042-.025.021v.01l-.047.037h-.025l-.027.068-.047.037v.031l.043-.01.01.073h-.037a.033.033 0 01-.01.021.025.025 0 01-.027.005l.037.031v.031c0 .037-.016.052-.057.052l.01.037a.12.12 0 01-.1.005.03.03 0 000 .031c0 .005 0 .01.01.016l-.006.037-.051.021-.027.005h.047l.031.01.027-.031.016.021-.043.047-.088.01a.074.074 0 00-.021.052h.016l.031-.021v.021a.127.127 0 01-.062 0l-.047.047v.026l.047.005-.088.031-.027.047c.006.005 0 .016-.01.021l-.062.01v.031l.078.01.029-.021-.029.052a.074.074 0 01-.031-.01.261.261 0 01-.053.057.249.249 0 01-.088.031.023.023 0 00.01.016.065.065 0 01.025.005l-.051.021-.027.047-.041.01a.205.205 0 00-.031.052h-.037c.01.021.006.031 0 .031h-.053l-.062.01v.016h.016a.017.017 0 00.021 0 .049.049 0 00-.031.047l-.037.01c0 .005-.01.01-.01.016h-.031l-.012.026c0 .01-.02.016-.031.021h-.02l-.006-.01-.025.052h-.074c0 .026-.025.042-.062.063a.094.094 0 00.031.031l-.047-.01-.047.021v.021h.025c.006 0 .006 0 .006.01l-.031.016a.056.056 0 00-.031.026.087.087 0 01-.053.005.1.1 0 00-.01.031.369.369 0 00-.068.026.062.062 0 00-.037.042l-.02-.01c-.027 0-.043.016-.059.047h-.041a1.055 1.055 0 01-.193.12.6.6 0 01-.215.089.456.456 0 01-.187.115 1.1 1.1 0 01-.225.068.077.077 0 00-.052-.009zm.439-.533v.031l.025.016.084-.016.041-.031h.027c.01-.005.041-.021.1-.047a.309.309 0 00.109-.057h.037a.115.115 0 00.006-.037.506.506 0 00.109-.042l.031-.021v-.031a.157.157 0 00.068-.016h.012a.3.3 0 01.078-.089l.109-.063v-.026c.057-.037.1-.078.156-.12.037-.037.084-.089.137-.146.031-.052.072-.1.1-.146a1.2 1.2 0 00.109-.167h.021a.232.232 0 01.025-.115.2.2 0 01.059-.1v-.021l.016-.016a.254.254 0 010-.094.9.9 0 00.025-.141.337.337 0 00-.119-.272.441.441 0 00-.3-.1l-.094.01a.048.048 0 01.016.031c-.016 0-.025.021-.041.047a.135.135 0 00-.006.068.1.1 0 00-.031.089l-.031.01-.006.021c0-.005-.01-.005-.016 0s0 .01 0 .021l-.031.052v.031l-.041.01v.037l-.037.01-.01.037.02.031-.01.01-.062.01v.01l.01.031.043-.01a.186.186 0 00-.043.042.131.131 0 00-.031.057l-.025.042h-.016l-.01.021h-.018l-.01.031.016.005.043-.01a.091.091 0 01-.068.037v.042h-.016v-.01c0-.005 0-.01-.016-.01l-.006.016.021.026v.016l-.041.068-.01.01-.043.01-.031.063.027.063h-.074v.01l.035.021h.016a.094.094 0 01-.047.026.192.192 0 01-.057.016l-.012.031.006.021.021-.021h.031v.026l-.016.021h-.043v.016l-.035.01c0 .01.01.016.016.016s0 .01.01.01l-.047.026v-.016a.206.206 0 00-.062.11l-.037.005v.037a.273.273 0 01.09-.031v.01l-.035.016a.11.11 0 01-.068.073l.006.016-.043.031-.01.031h.031l.016-.021.006.016a.069.069 0 00-.012.031l-.037-.01c-.035.021-.057.037-.062.052v.026l.012-.01v-.005l.043-.01.02-.01-.035.052-.031.01h.01v.026l-.021.047-.035-.01-.031.01v.057l-.012.005-.01.026h.022zm.01-.021a.03.03 0 01-.01.019zm-.574-.12a.035.035 0 010 .02zm2.162-.559l-.01.026-.008.005zm-21.062-1.854h.01-.01z" fill="#9aa0a9"/><path d="M20.2 35.185c4.823 2.026 7.008.99 8.527-1.061 1.758-2.37-1.38-6.643-7.008-9.542-5.461-2.818-11.264-3.3-13.2-1.144a3.265 3.265 0 01.249-.384c2.245-3.038 9.916-2.5 17.125 1.217s11.232 9.192 8.981 12.235-8.474 3.908-15.4-.257" fill="#5a6473"/></g></svg>