<svg xmlns="http://www.w3.org/2000/svg" viewBox="0 0 48 48"><defs><radialGradient id="a" cx=".5" cy=".5" r=".5" gradientUnits="objectBoundingBox"><stop offset="0" stop-color="#fbfcfe"/><stop offset=".4" stop-color="#fff" stop-opacity=".7"/><stop offset="1" stop-color="#96bbdc"/></radialGradient></defs><rect width="48" height="48" fill="url(#a)" rx="24"/><path fill="#00286f" d="M21.159 36.4c5.008 2.179 7.276 1.065 8.853-1.14 1.824-2.549-1.432-7.143-7.277-10.261-5.669-3.031-11.694-3.543-13.7-1.231a3.485 3.485 0 01.258-.413c2.331-3.267 10.295-2.683 17.779 1.308s11.661 9.885 9.325 13.156-8.8 4.2-15.99-.275"/><path fill="#d53c0f" d="M6.834 38.817s13.347-11.111 18.4-18.341a56.851 56.851 0 01-9.322.534c.4-.193 12.45-6.037 21.113-14.861 0 0-6.35 18.211-18.529 32.669zm25.488-14.359a.477.477 0 01.028-.1c.016-.039.021-.068.031-.086v-.01l.016-.044c.063-.154.1-.272.141-.366a3.926 3.926 0 00.115-.387l.134-.395c.013 0 .019-.008.019-.031a.1.1 0 000-.034 3.627 3.627 0 01.211-.813c.162-.486.3-.74.411-.758l-.014-.013c.014-.024.076-.044.181-.081a.6.6 0 01.165-.047l.008.068a2.191 2.191 0 01-.092.539 5.475 5.475 0 00-.136.536c-.019.008-.026.031-.026.065a.223.223 0 01-.028.06c-.019.039-.023.068 0 .081-.019.026-.039.047-.055.071l-.008.063c-.011 0-.021 0-.026.013s.013 0 .016.005l-.065.23h.019a.154.154 0 00.125-.1c.037-.068.073-.131.11-.194.078-.1.186-.222.321-.384.068-.078.131-.154.207-.235a1.255 1.255 0 01.335-.426.579.579 0 01.342-.1l.053.013v.037a.313.313 0 01-.05.165 1.391 1.391 0 00-.1.152l-.019.008a.249.249 0 01-.07.141.015.015 0 000 .016h.011c-.045.115-.073.207-.1.269a.9.9 0 00-.061.264.364.364 0 01-.028.115.373.373 0 00-.026.112.309.309 0 01-.045.089.11.11 0 00-.023.055l.011.029.036-.008c.095-.131.23-.309.411-.528.136-.175.277-.348.421-.518h.013l.4-.484c.026-.031.053-.068.084-.1s.07-.071.081-.06a.376.376 0 01.117-.1.216.216 0 01.146-.047l.016-.024.058-.01.026.058s.011.013.019.016a.238.238 0 00.063.008c.014.024.026.037.034.026l-.045.06a.061.061 0 01-.01.034.1.1 0 01-.026.037l-.042.037a.092.092 0 01-.023.01v.01c-.047.044-.076.076-.1.094a.109.109 0 00-.031.05l-.128.123v.018a.242.242 0 01-.165.1l.019.013h.052l-.023.01c-.008 0-.021 0-.023.01-.031.024-.055.052-.081.073l.019.01-.031.055c-.014 0-.045.026-.095.076a.219.219 0 00-.07.126h-.029a.14.14 0 01-.06.013.067.067 0 00.023.031l-.023.024c-.042.008-.061.021-.061.042h.016v-.013c.014 0 .021.008.021.013l.01.01-.06.021c-.021.034-.047.065-.068.1l-.055.018.013.031c0 .01-.013.026-.031.039a.076.076 0 00-.028.044c0 .005-.016.01-.045.013l-.028.037.008.01-.061.065-.025.005a.122.122 0 01-.084.078c-.011.024-.023.052-.037.076a.584.584 0 01-.05.078.037.037 0 00-.013.018l-.036.034v.016l-.062.037-.056.1c-.01 0-.021 0-.025.016a.131.131 0 00-.021.052h-.021l-.034.037c-.02.021-.021.039-.026.039l-.019.044a1.084 1.084 0 00-.1.133l.013.026-.049.026-.037.063-.021.01v.021h-.048l.011.013.037.016-.026.016c-.013.008-.019.031-.019.065l-.031.026-.036.094-.032.01v.058a.146.146 0 00-.033.024c-.011.008-.014.016 0 .024-.021.024-.04.047-.058.071s-.039.042-.053.037a.513.513 0 01-.141.118.284.284 0 01-.157.044l-.065-.013v-.1l.008-.251v-.039l.031-.089.036-.084-.021-.034a.727.727 0 00.028-.1.822.822 0 01.016-.084h.021l.026-.139a.652.652 0 01.039-.133v-.016c-.008-.031-.011-.047 0-.052l.025-.042a.037.037 0 010-.044.15.15 0 00.017-.042.464.464 0 01.033-.16c.014-.037.023-.076.034-.115a3.439 3.439 0 00-.246.3 3.228 3.228 0 01-.376.447.087.087 0 01-.026.047c-.021.026-.034.034-.036.034l-.1.128a.272.272 0 00-.081.149l-.07.047c-.011.008-.008.016.011.029s.021.013.021.024a.15.15 0 01-.037.05.706.706 0 01-.044.055l.023.016c0 .005-.013.01-.044.013l-.011.071-.045.034a.029.029 0 00-.028.008v.008a.1.1 0 000 .042l-.034.029c-.008 0-.013 0-.013-.018l-.011-.021-.045.1h-.031a.042.042 0 00-.025 0h-.029l-.026.047a.045.045 0 01-.047.013.063.063 0 01-.031 0l-.031.034-.037-.005a.148.148 0 01-.1.065.16.16 0 00-.092.001zm5.473-.112l-.039-.058a.836.836 0 01.126-.267c.033-.047.067-.1.1-.157h.013l.006.008a.6.6 0 01.06-.094.513.513 0 00.056-.081l.06-.076a.652.652 0 00.053-.086.154.154 0 01.028-.026l.218-.3a.1.1 0 01.039-.029.979.979 0 01.078-.118c.045-.06.07-.086.092-.092a1.731 1.731 0 01.115-.165 8.49 8.49 0 00.141-.17l.087-.1.028-.008.039-.076a.11.11 0 00.042-.018.624.624 0 01.1-.165v-.018a.652.652 0 00.12-.118c.036-.039.076-.081.115-.128a3.932 3.932 0 00.309-.345.936.936 0 00.081-.086 1.613 1.613 0 00.12-.165l.013.016a.4.4 0 01.139-.065.967.967 0 00.123-.044l.039-.018h.029l.013-.016.1-.008.039.013a.13.13 0 01-.021.092h.016l.014.01h-.021c-.023.1-.044.2-.065.3a1.379 1.379 0 01-.078.28s.011 0 .019.008.008.013 0 .021l-.045.081.026.058a.607.607 0 00-.021.1c-.008.047-.014.092-.021.128l-.036.042v.115h-.019l.016.052a.259.259 0 00-.021.078.227.227 0 01-.011.068l.013.068-.031.039a.2.2 0 00.011.044l.008.037a.024.024 0 01-.019.031v-.016l-.008.008c0 .029.013.037.034.031 0 .016-.011.071-.019.165s-.016.144-.016.146a.114.114 0 000 .044l-.055.034v.052l.039-.008a.023.023 0 01.019.037.127.127 0 01-.019.042l.037.034c.008.013 0 .024-.017.026s-.021.008-.021.016v.016c.019.013.026.024.026.026s-.008.013-.026.008v.042a.868.868 0 00.011.086c-.019.026-.026.039-.026.055s.008.018.023.024a.026.026 0 01.026.026h-.016a.269.269 0 01-.006.136.772.772 0 01-.052.144l-.058-.013a.139.139 0 00-.016.029.023.023 0 01-.031.013h-.006l-.021.055c-.089.05-.178.094-.267.144a.2.2 0 01-.118-.136.6.6 0 01-.039-.23.626.626 0 01.011-.12c.008-.042.011-.076.013-.092a.4.4 0 01.016-.052.045.045 0 00-.008-.044V23.6l.026-.016c-.013-.018-.019-.024-.026-.021v-.191l-.065-.008-.05.018a.033.033 0 00-.023-.013s-.013.005-.018.024H39.4c0-.008-.013-.01-.016-.021a.08.08 0 01-.055.037.455.455 0 01-.058.013v-.029a.029.029 0 010-.018h-.021c-.008 0-.019.01-.034.021a.244.244 0 01-.146.047c-.021.01-.042.021-.062.034s-.031.026-.05.039l-.076-.044a.194.194 0 00-.028.063l-.065.016h-.031l-.071.034-.023.052-.033-.008-.034.013-.014.068a.407.407 0 01-.052.063.367.367 0 01-.065.042l-.008.034h.031a.1.1 0 01-.016.037c-.011.008-.016 0-.019-.008a.174.174 0 00-.062.131.489.489 0 00-.112.055.166.166 0 00-.071.084l-.075.068c-.008 0-.014 0-.019-.013v-.016l-.207.1-.094.052zm1.938-2.129a.8.8 0 01-.081.11.335.335 0 00-.072.123.24.24 0 00-.076.063 1 1 0 01-.1.131.549.549 0 01-.126.18c-.016.037-.028.071-.042.1a.645.645 0 00.157-.018c.17-.031.262-.052.27-.052l.021-.008c.025-.167.055-.335.086-.5l.039-.17a.126.126 0 01-.077.041zm-4.071 2.11a1.171 1.171 0 01-.136 0l-.128-.044a.369.369 0 01-.1-.188.834.834 0 01.125-.267.333.333 0 00.058-.139c0-.005.008-.013.029-.031a.044.044 0 00.016-.045v.008l.037-.024v-.029c.026-.047.047-.076.06-.1a1.022 1.022 0 01.065-.112c.026-.047.053-.094.079-.149h.023l.019-.073.028-.008.039-.092c.011 0 .023-.024.039-.06a2.583 2.583 0 01.226-.408c.287-.434.434-.662.444-.68l.013-.018-.008-.013-.047.01-.073-.01-.058-.047a.534.534 0 01.087-.162.52.52 0 01.117-.133c0-.016.008-.026.016-.031s.008 0 .008 0a.537.537 0 01.327-.152 2.513 2.513 0 01.5-.05.315.315 0 01.07 0 .5.5 0 01.089 0l.126.01a.305.305 0 01.1.031l.019.024h.021v-.008a.918.918 0 01.1.034.584.584 0 01.095.058v.024h.023a.055.055 0 01.034.024c.013.018.025.024.033.008l.031.044h.011l.011.013a.119.119 0 00.031.06c.026.024.036.037.039.052l-.039.021.031.037.016.005a.054.054 0 01-.034.052h.071v.018h-.019s-.008.013-.011.039h.011l.019-.008s-.011.013-.039.037a.02.02 0 000 .018l-.034.042h.075c-.008 0-.013.016-.013.037s0 .031-.011.031h-.047v.021l.016.013a.252.252 0 01.061-.029.087.087 0 01-.076.073.03.03 0 010 .042.033.033 0 00-.021.026h.021l.089-.044-.028.021v.008l-.05.042h-.026l-.031.073-.05.039v.034l.047-.01.011.076h-.042a.044.044 0 01-.008.024.023.023 0 01-.028.005l.039.034v.031a.053.053 0 01-.061.06l.008.037a.132.132 0 01-.112.01.021.021 0 000 .029l.011.018-.006.039-.052.021-.029.008h.048l.031.008.031-.034.019.026-.048.052-.094.005a.092.092 0 00-.019.058h.016l.029-.018v.024a.276.276 0 01-.065 0l-.053.047v.029l.053.008-.095.031-.031.05c.008.01 0 .016-.013.024l-.065.013v.029l.084.016.038-.031-.033.065a.228.228 0 01-.039-.013.145.145 0 01-.053.06.3.3 0 01-.1.037.057.057 0 00.011.013.062.062 0 01.031.01l-.061.021-.028.05-.044.01c-.021.034-.032.052-.029.058h-.047c.016.018.013.031 0 .031a.177.177 0 01-.053 0l-.07.01v.021h.023a.016.016 0 00.016 0 .051.051 0 00-.026.05l-.044.013c0 .005-.011.008-.011.016h-.036l-.006.026a.078.078 0 01-.036.024.03.03 0 01-.021 0l-.01-.013-.026.058h-.076c0 .029-.026.047-.067.065a.118.118 0 00.031.034l-.05-.01-.05.026v.021h.028c.006 0 .006 0 .006.01l-.037.013c-.013.01-.021.021-.031.031a.1.1 0 01-.055.008.07.07 0 00-.013.034.243.243 0 00-.071.024.076.076 0 00-.042.047l-.021-.01c-.031 0-.05.016-.065.05h-.042a1.29 1.29 0 01-.206.128.576.576 0 01-.23.094.475.475 0 01-.2.126 1.148 1.148 0 01-.24.073.075.075 0 00-.041-.005zm.471-.573v.034l.031.013.092-.013.039-.034h.029c.013-.008.052-.021.112-.05a.25.25 0 00.117-.065h.04s.008-.013.008-.037a.969.969 0 00.12-.042l.028-.029.011-.029a.133.133 0 00.068-.021h.013a.316.316 0 01.086-.092.8.8 0 01.118-.068v-.029a1.611 1.611 0 00.165-.131c.041-.039.091-.1.148-.16l.115-.152c.034-.05.073-.112.115-.183h.021a.269.269 0 01.029-.12.345.345 0 01.06-.112v-.021l.023-.016a.225.225 0 010-.1c.011-.044.019-.1.026-.152a.349.349 0 00-.131-.288.461.461 0 00-.318-.11l-.105.01a.048.048 0 01.021.037c-.021 0-.031.018-.042.047a.126.126 0 00-.011.076.08.08 0 00-.031.092l-.034.013-.008.024a.016.016 0 00-.016 0c-.008 0-.008.008 0 .018l-.034.06v.031l-.044.016v.039l-.042.01-.011.037.023.037-.01.01-.068.01v.013l.011.031.047-.01a.22.22 0 00-.05.047.211.211 0 00-.031.058l-.026.044h-.018l-.014.024h-.019l-.008.034.019.008.042-.016a.085.085 0 01-.073.039v.05h-.019v-.013c0-.005 0-.013-.013-.013l-.011.018.023.026.011.021-.047.068-.011.013-.047.01-.031.071.028.065h-.081v.013l.036.021h.021a.145.145 0 01-.05.031l-.062.016-.014.031.006.024.025-.021h.034v.024l-.016.024h-.047v.016l-.039.01c0 .013.01.024.016.024l.008.01-.045.024v-.021a.22.22 0 00-.073.118l-.034.008v.039a.249.249 0 01.092-.034l.008.008-.039.021a.111.111 0 01-.076.076l.011.021-.05.029-.008.037h.031l.016-.024.011.018a.033.033 0 00-.013.034l-.039-.013c-.04.021-.065.039-.071.06v.026l.014-.013.008-.005.047-.013.016-.013-.037.06-.033.008h.013v.031l-.023.05-.039-.01-.034.01v.06l-.016.008-.008.026h.022zm.014-.021s0 .016-.012.018zm-.62-.131v.01zm2.327-.6l-.013.026zm-21.947-1.993h.011l-.011.005z"/><path fill="rgba(0,0,0,0)" d="M18.732 39.317H5.452l1.062-.884c.128-.106 12.245-10.225 17.633-17.311a57.567 57.567 0 01-6.808.406 58.6 58.6 0 01-1.325-.015l-.6.258V21.5l-1.574-.039 1.571-.757v-.2l.4.009c1.3-.639 12.624-6.313 20.866-14.709l1.563-1.593-.735 2.108a111.9 111.9 0 01-4.72 10.968 124.438 124.438 0 01-5.822 10.6 94.807 94.807 0 01-8.076 11.264zm-10.534-1h10.068a108.806 108.806 0 0013.609-21.461 123.86 123.86 0 003.886-8.771 87.445 87.445 0 01-17.8 12.439 56.568 56.568 0 007.208-.543l1.138-.16-.658.941c-2.118 3.028-5.876 7.052-11.169 11.962-2.62 2.43-4.98 4.483-6.28 5.593zm23.528-13.175l.1-.75a.868.868 0 01.038-.166v-.009l.067-.192c.031-.075.056-.143.078-.2l.059-.153c.04-.116.072-.223.1-.326l.013-.044.135-.4a4.194 4.194 0 01.231-.884 2.176 2.176 0 01.494-.935.805.805 0 01.373-.214 1.1 1.1 0 01.279-.076l.506-.069.058.5a1.074 1.074 0 01.528-.148l.212-.23-.067.244.055.014.286.071.016-.019a1.48 1.48 0 01.067-.081.739.739 0 01.154-.142.935.935 0 01.113-.092l-1.1-.961 1.485.794.439-.08.065.142h.037l.1.165a1.028 1.028 0 01.258-.066 3.027 3.027 0 01.506-.054v-.068l.337.077.091.008a.865.865 0 01.132.029l.157-.315.45.639.032.025.259-.109v.212l.127-.046-.022.15.146-.033.25-.2-.28.548.014-.016.03-.034a3.439 3.439 0 00.271-.3l.024-.031.029-.027a.441.441 0 00.037-.041 1.3 1.3 0 00.083-.114l.374-.581.192.238.239-.018.352-.4-.1.427.016.005.289.1.033.212 1 .768H40.88q-.01.045-.023.089a.542.542 0 01-.006.089l.017.036-.057.177v.043l-.006.04c-.007.04-.013.078-.02.111l-.016.073.017.058-.026.065v.192l.012.064-.012.015v.085h-.029l-.006.046c0 .015 0 .032-.007.053l.263.233h-.266l.039.209-.034.021a.518.518 0 01-.013.067c0 .015 0 .031-.008.045a.491.491 0 01.016.085l.013.061-.01.014v.478h-.123l-.175.352-.186-.042-.117.063-.123.066-.21.117-.223-.091a.7.7 0 01-.407-.448q-.016-.048-.029-.1v-.006a1.062 1.062 0 01-.029-.2l-.062.043-.056.123-.059-.014v.163l-.1.032.278.213-.517-.109-.232.21h-.153l-.035.017-.074.042-.011.019-.007-.009-.106.059h-.424l-.317-.467.03-.112-.138.015-.111.3-.277-.142a1.988 1.988 0 01-.079.043 1.107 1.107 0 01-.244.116.982.982 0 01-.264.138 1.665 1.665 0 01-.321.1l-.2.039-.059-.039h-.121l-.308-.107-.084-.088a.878.878 0 01-.04-.046.872.872 0 01-.186-.4l-.01-.054h-.112v.074l-.155.1-.009.01-.026.033a.631.631 0 01-.157.151 1.046 1.046 0 01-.176.131.787.787 0 01-.418.117h-.05l-.5-.1v-.051l-.089.206h-.222l-.041.019-.1.107-.112-.016a.635.635 0 01-.162.041l-.1.011z"/></svg>