<svg xmlns="http://www.w3.org/2000/svg" width="128" height="104"><g transform="translate(2 18)"><path d="M17.895 58.112h87.554v-5.278c0-1.1-1.328-2.187-3.644-2.977l-.024-.008c-1.564-.552-11.56-4.478-16.967-4.359a18.633 18.633 0 00-7.268 1.439c-6.121 2.779-14.161 3.8-18.409 3a139.873 139.873 0 00-17.818-1.833c-5.318.073-5.334.962-10.793 3.829-2.085 1.094-2.865 1.232-12.627 2.1z" fill="#f2f2f2" style="isolation:isolate"/><path d="M3.78 50.352c-.191-2.831 1.011-5.692 3.5-6.743a13.712 13.712 0 001.716 8.97c.623 1.095 1.423 2.263 1.253 3.407a2.409 2.409 0 01-1.182 1.644 7.576 7.576 0 01-1.977.757l-.119.125a17.86 17.86 0 01-3.191-8.16z" fill="#f2f2f2"/><path d="M7.319 43.663a9.953 9.953 0 00-1.556 6.424 5.131 5.131 0 00.342 1.5 3.344 3.344 0 00.926 1.245 7.051 7.051 0 011.083 1.016 1.811 1.811 0 01.346 1.374 3.7 3.7 0 01-.688 1.5 3.636 3.636 0 00-.764 1.667c-.007.078-.133.045-.125-.033.107-1.126 1.057-1.811 1.376-2.837a1.74 1.74 0 00-.172-1.506 5.468 5.468 0 00-1.082-1.049 3.588 3.588 0 01-.947-1.19 4.813 4.813 0 01-.4-1.492 10.331 10.331 0 01.156-3.332 9.658 9.658 0 011.4-3.378c.047-.06.147.029.105.091z" fill="#fff"/><path d="M5.652 49.33a2.008 2.008 0 01-1.6-1.691c-.009-.08.116-.081.125 0a1.859 1.859 0 001.494 1.57.061.061 0 01-.016.121zM6.825 52.693a2.7 2.7 0 001.077-1.932c.008-.078.133-.045.125.033a2.808 2.808 0 01-1.125 2.008c-.061.044-.138-.065-.077-.109zM6.21 45.839a.913.913 0 00.884-.091c.06-.045.137.064.077.109a1.022 1.022 0 01-.977.1.076.076 0 01-.055-.077.054.054 0 01.071-.044z" fill="#fff"/><path d="M16.37 48.224l-.11.09a10.138 10.138 0 00-1.348 1.327 9.428 9.428 0 00-.095.112 10.994 10.994 0 00-2.092 4.058 11.555 11.555 0 00-.349 1.847 7.514 7.514 0 01-.5 2.559 1.811 1.811 0 01-.129.22l-4.593.233-.034-.013-.182.018v-.1-.058-.037-.012-.033c.01-.191.021-.382.034-.574a17.026 17.026 0 01.777-4.233c.014-.04.027-.081.042-.121a10.285 10.285 0 01.771-1.718 8.842 8.842 0 01.556-.858 7.3 7.3 0 011.908-1.794 6.655 6.655 0 015.185-.946z" fill="#f2f2f2"/><path d="M16.366 48.284a9.284 9.284 0 00-5.321 3.649 4.031 4.031 0 00-.621 1.279 2.721 2.721 0 00.053 1.446 6.125 6.125 0 01.333 1.377 1.438 1.438 0 01-.539 1.189 3.793 3.793 0 01-1.529.656 3.725 3.725 0 00-1.7.73c-.055.051-.145-.048-.09-.1.787-.739 2.046-.656 2.958-1.2a1.423 1.423 0 00.773-1.179 4.715 4.715 0 00-.311-1.4 2.949 2.949 0 01-.106-1.419 3.764 3.764 0 01.565-1.3 8.8 8.8 0 012.185-2.284 9.723 9.723 0 013.315-1.566c.082-.022.114.102.035.122z" fill="#fff"/><path d="M11.418 51.325a1.736 1.736 0 01-.377-2.171c.041-.063.152.012.111.075a1.608 1.608 0 00.355 2.019c.062.06-.028.136-.089.077zM10.387 54.43a2.867 2.867 0 002.138-.731c.055-.051.145.048.09.1a2.985 2.985 0 01-2.227.756c-.081 0-.082-.129 0-.124zM14.055 49.169a1.127 1.127 0 00.837.467c.081 0 .082.128 0 .124a1.262 1.262 0 01-.926-.515.063.063 0 010-.088.066.066 0 01.089.012z" fill="#fff"/><path d="M118.763 50.352c.191-2.831-1.011-5.692-3.5-6.743a13.713 13.713 0 01-1.716 8.97c-.623 1.095-1.423 2.263-1.253 3.407a2.409 2.409 0 001.182 1.644 7.575 7.575 0 001.977.757l.119.125a17.86 17.86 0 003.191-8.16z" fill="#f2f2f2"/><path d="M115.224 43.663a9.953 9.953 0 011.556 6.424 5.131 5.131 0 01-.342 1.5 3.344 3.344 0 01-.926 1.245 7.05 7.05 0 00-1.083 1.016 1.811 1.811 0 00-.346 1.374 3.7 3.7 0 00.688 1.5 3.636 3.636 0 01.764 1.667c.008.078.133.045.125-.033-.107-1.126-1.057-1.811-1.376-2.837a1.74 1.74 0 01.172-1.506 5.468 5.468 0 011.082-1.049 3.588 3.588 0 00.947-1.19 4.812 4.812 0 00.4-1.492 10.33 10.33 0 00-.156-3.332 9.657 9.657 0 00-1.4-3.378c-.047-.06-.147.029-.105.091z" fill="#fff"/><path d="M116.89 49.33a2.008 2.008 0 001.6-1.691c.009-.08-.116-.081-.125 0a1.859 1.859 0 01-1.494 1.57.061.061 0 10.016.121zM115.72 52.693a2.7 2.7 0 01-1.077-1.932c-.008-.078-.133-.045-.125.033a2.808 2.808 0 001.125 2.008c.061.045.138-.064.077-.109zM116.333 45.839a.913.913 0 01-.884-.091c-.06-.045-.137.064-.077.109a1.022 1.022 0 00.977.1.076.076 0 00.055-.077.054.054 0 00-.071-.044z" fill="#fff"/><path d="M106.173 48.224l.11.09a10.141 10.141 0 011.348 1.327l.095.112a11 11 0 012.092 4.058 11.556 11.556 0 01.349 1.847 7.513 7.513 0 00.5 2.559 1.814 1.814 0 00.129.22l4.593.233.034-.013.182.018v-.1-.058-.037-.012-.033q-.015-.287-.034-.574a17.029 17.029 0 00-.777-4.233c-.014-.04-.027-.081-.042-.121a10.28 10.28 0 00-.771-1.718 8.851 8.851 0 00-.556-.858 7.3 7.3 0 00-1.908-1.794 6.655 6.655 0 00-5.185-.946z" fill="#f2f2f2"/><path d="M106.172 48.284a9.284 9.284 0 015.321 3.649 4.032 4.032 0 01.621 1.279 2.722 2.722 0 01-.053 1.446 6.125 6.125 0 00-.333 1.376 1.438 1.438 0 00.539 1.189 3.793 3.793 0 001.529.656 3.725 3.725 0 011.7.73c.055.051.145-.048.09-.1-.787-.739-2.046-.656-2.958-1.2a1.423 1.423 0 01-.773-1.179 4.717 4.717 0 01.311-1.4 2.949 2.949 0 00.106-1.419 3.764 3.764 0 00-.565-1.3 8.8 8.8 0 00-2.185-2.284 9.723 9.723 0 00-3.315-1.566c-.075-.02-.108.1-.033.124z" fill="#fff"/><path d="M111.125 51.325a1.736 1.736 0 00.377-2.171c-.042-.063-.152.012-.111.075a1.608 1.608 0 01-.355 2.019c-.062.06.027.136.089.077zM112.155 54.43a2.867 2.867 0 01-2.138-.731c-.055-.051-.145.048-.09.1a2.985 2.985 0 002.227.756c.086-.005.086-.13.001-.125zM108.488 49.169a1.126 1.126 0 01-.837.467c-.081 0-.082.128 0 .124a1.262 1.262 0 00.926-.515.063.063 0 000-.088.066.066 0 00-.089.012z" fill="#fff"/><path fill="#e6e6e6" d="M7.01 36.337h.842v.281H7.01zM113.801 36.618h-1.709v-.281h1.709zm-3.418 0h-1.709v-.281h1.709zm-3.418 0h-1.709v-.281h1.709zm-3.418 0h-1.709v-.281h1.709zm-3.418 0H98.42v-.281h1.709zm-3.418 0h-1.707v-.281h1.71zm-3.418 0h-1.709v-.281h1.709zm-3.418 0h-1.709v-.281h1.709zm-3.418 0h-1.709v-.281h1.709zm-3.418 0H81.33v-.281h1.709zm-3.418 0h-1.707v-.281h1.709zm-3.418 0h-1.709v-.281h1.709zm-3.418 0h-1.709v-.281h1.709zm-3.418 0h-1.709v-.281h1.709zm-3.418 0h-1.705v-.281h1.709zm-3.418 0h-1.709v-.281h1.709zm-3.418 0h-1.699v-.281h1.7zm-3.418 0h-1.709v-.281h1.709zm-3.418 0h-1.703v-.281h1.709zm-3.418 0H47.15v-.281h1.709zm-3.418 0h-1.709v-.281h1.709zm-3.418 0h-1.709v-.281h1.709zm-3.418 0h-1.709v-.281h1.718zm-3.418 0h-1.709v-.281h1.709zm-3.418 0H30.06v-.281h1.709zm-3.418 0h-1.709v-.281h1.709zm-3.418 0h-1.709v-.281h1.709zm-3.418 0h-1.701v-.281h1.709zm-3.418 0h-1.709v-.281h1.709zm-3.418 0H12.97v-.281h1.709zm-3.418 0H9.552v-.281h1.709zM115.51 36.337h.842v.281h-.842zM7.01 34.372h.842v.281H7.01zM113.801 34.653h-1.709v-.281h1.709zm-3.418 0h-1.709v-.281h1.709zm-3.418 0h-1.709v-.281h1.709zm-3.418 0h-1.709v-.281h1.709zm-3.418 0H98.42v-.281h1.709zm-3.418 0h-1.707v-.281h1.71zm-3.418 0h-1.709v-.281h1.709zm-3.418 0h-1.709v-.281h1.709zm-3.418 0h-1.709v-.281h1.709zm-3.418 0H81.33v-.281h1.709zm-3.418 0h-1.707v-.281h1.709zm-3.418 0h-1.709v-.281h1.709zm-3.418 0h-1.709v-.281h1.709zm-3.418 0h-1.709v-.281h1.709zm-3.418 0h-1.705v-.281h1.709zm-3.418 0h-1.709v-.281h1.709zm-3.418 0h-1.699v-.281h1.7zm-3.418 0h-1.709v-.281h1.709zm-3.418 0h-1.703v-.281h1.709zm-3.418 0H47.15v-.281h1.709zm-3.418 0h-1.709v-.281h1.709zm-3.418 0h-1.709v-.281h1.709zm-3.418 0h-1.709v-.281h1.718zm-3.418 0h-1.709v-.281h1.709zm-3.418 0H30.06v-.281h1.709zm-3.418 0h-1.709v-.281h1.709zm-3.418 0h-1.709v-.281h1.709zm-3.418 0h-1.701v-.281h1.709zm-3.418 0h-1.709v-.281h1.709zm-3.418 0H12.97v-.281h1.709zm-3.418 0H9.552v-.281h1.709zM115.51 34.372h.842v.281h-.842zM7.01 30.303h.842v.281H7.01zM113.801 30.584h-1.709v-.281h1.709zm-3.418 0h-1.709v-.281h1.709zm-3.418 0h-1.709v-.281h1.709zm-3.418 0h-1.709v-.281h1.709zm-3.418 0H98.42v-.281h1.709zm-3.418 0h-1.707v-.281h1.71zm-3.418 0h-1.709v-.281h1.709zm-3.418 0h-1.709v-.281h1.709zm-3.418 0h-1.709v-.281h1.709zm-3.418 0H81.33v-.281h1.709zm-3.418 0h-1.707v-.281h1.709zm-3.418 0h-1.709v-.281h1.709zm-3.418 0h-1.709v-.281h1.709zm-3.418 0h-1.709v-.281h1.709zm-3.418 0h-1.705v-.281h1.709zm-3.418 0h-1.709v-.281h1.709zm-3.418 0h-1.699v-.281h1.7zm-3.418 0h-1.709v-.281h1.709zm-3.418 0h-1.703v-.281h1.709zm-3.418 0H47.15v-.281h1.709zm-3.418 0h-1.709v-.281h1.709zm-3.418 0h-1.709v-.281h1.709zm-3.418 0h-1.709v-.281h1.718zm-3.418 0h-1.709v-.281h1.709zm-3.418 0H30.06v-.281h1.709zm-3.418 0h-1.709v-.281h1.709zm-3.418 0h-1.709v-.281h1.709zm-3.418 0h-1.701v-.281h1.709zm-3.418 0h-1.709v-.281h1.709zm-3.418 0H12.97v-.281h1.709zm-3.418 0H9.552v-.281h1.709zM115.51 30.303h.842v.281h-.842zM7.01 27.497h.842v.281H7.01zM113.801 27.777h-1.709v-.281h1.709zm-3.418 0h-1.709v-.281h1.709zm-3.418 0h-1.709v-.281h1.709zm-3.418 0h-1.709v-.281h1.709zm-3.418 0H98.42v-.281h1.709zm-3.418 0h-1.707v-.281h1.71zm-3.418 0h-1.709v-.281h1.709zm-3.418 0h-1.709v-.281h1.709zm-3.418 0h-1.709v-.281h1.709zm-3.418 0H81.33v-.281h1.709zm-3.418 0h-1.707v-.281h1.709zm-3.418 0h-1.709v-.281h1.709zm-3.418 0h-1.709v-.281h1.709zm-3.418 0h-1.709v-.281h1.709zm-3.418 0h-1.705v-.281h1.709zm-3.418 0h-1.709v-.281h1.709zm-3.418 0h-1.699v-.281h1.7zm-3.418 0h-1.709v-.281h1.709zm-3.418 0h-1.703v-.281h1.709zm-3.418 0H47.15v-.281h1.709zm-3.418 0h-1.709v-.281h1.709zm-3.418 0h-1.709v-.281h1.709zm-3.418 0h-1.709v-.281h1.718zm-3.418 0h-1.709v-.281h1.709zm-3.418 0H30.06v-.281h1.709zm-3.418 0h-1.709v-.281h1.709zm-3.418 0h-1.709v-.281h1.709zm-3.418 0h-1.701v-.281h1.709zm-3.418 0h-1.709v-.281h1.709zm-3.418 0H12.97v-.281h1.709zm-3.418 0H9.552v-.281h1.709zM115.51 27.497h.842v.281h-.842zM7.01 21.464h.842v.281H7.01zM113.801 21.744h-1.709v-.281h1.709zm-3.418 0h-1.709v-.281h1.709zm-3.418 0h-1.709v-.281h1.709zm-3.418 0h-1.709v-.281h1.709zm-3.418 0H98.42v-.281h1.709zm-3.418 0h-1.707v-.281h1.71zm-3.418 0h-1.709v-.281h1.709zm-3.418 0h-1.709v-.281h1.709zm-3.418 0h-1.709v-.281h1.709zm-3.418 0H81.33v-.281h1.709zm-3.418 0h-1.707v-.281h1.709zm-3.418 0h-1.709v-.281h1.709zm-3.418 0h-1.709v-.281h1.709zm-3.418 0h-1.709v-.281h1.709zm-3.418 0h-1.705v-.281h1.709zm-3.418 0h-1.709v-.281h1.709zm-3.418 0h-1.699v-.281h1.7zm-3.418 0h-1.709v-.281h1.709zm-3.418 0h-1.703v-.281h1.709zm-3.418 0H47.15v-.281h1.709zm-3.418 0h-1.709v-.281h1.709zm-3.418 0h-1.709v-.281h1.709zm-3.418 0h-1.709v-.281h1.718zm-3.418 0h-1.709v-.281h1.709zm-3.418 0H30.06v-.281h1.709zm-3.418 0h-1.709v-.281h1.709zm-3.418 0h-1.709v-.281h1.709zm-3.418 0h-1.701v-.281h1.709zm-3.418 0h-1.709v-.281h1.709zm-3.418 0H12.97v-.281h1.709zm-3.418 0H9.552v-.281h1.709zM115.51 21.464h.842v.281h-.842z"/><path d="M47.774 13.357a7.6 7.6 0 11-2.227-5.41 7.637 7.637 0 012.227 5.41z" fill="#f2f2f2"/><path d="M43.258 11.529l-.038.068a2.424 2.424 0 00-.57-2.475 3.774 3.774 0 00-2.256-1.024 3.663 3.663 0 00-1.822.142 4.715 4.715 0 00-2.017 1.851 2.019 2.019 0 00-.461 1.208 2.619 2.619 0 00.469 1.114 1.432 1.432 0 01.224 1.168 2.294 2.294 0 01-.415.579.776.776 0 00-.2.673.549.549 0 00.409.355 1.446 1.446 0 00.543-.013l4.682-.707a2 2 0 001.448-2.938z" fill="#2f2e41"/><circle cx="2.289" cy="2.289" r="2.289" transform="translate(37.487 9.856)" fill="#ffb9b9"/><path d="M45.87 18.399a7.635 7.635 0 01-10.685.772l.655-1.828a1.966 1.966 0 011.67-1.147l.417-.026.994-.857s2.678-.1 2.638-.141l1.622.976v-.007l.638.039a1.965 1.965 0 011.67 1.147z" fill="#66c4c5"/><path d="M41.947 10.021c-.059-.313-.378-.456-.651-.525a6.272 6.272 0 00-2.426-.133 2.653 2.653 0 00-1.623.73 2.182 2.182 0 00-.552 1.406 1.674 1.674 0 00.2.893.828.828 0 00.688.443l.027.1A4.167 4.167 0 0040.499 11a2.479 2.479 0 01-.724 1.17 4.513 4.513 0 001.948-1.5.85.85 0 00.224-.649z" fill="#2f2e41"/><circle cx="7.637" cy="7.637" r="7.637" transform="translate(97.581 8.14)" fill="#f2f2f2"/><circle cx="1.078" cy="1.078" r="1.078" transform="translate(102.043 10.755)" fill="#2f2e41"/><circle cx="2.732" cy="2.732" r="2.732" transform="translate(102.115 11.546)" fill="#2f2e41"/><circle cx="2.22" cy="2.22" r="2.22" transform="translate(102.853 12.569)" fill="#9e616a"/><path d="M106.58 12.525a2.543 2.543 0 00-3.866 2.219 5.9 5.9 0 003.526.068l.285-.7.168.7a1.028 1.028 0 001.1 0 2.6 2.6 0 00-1.217-2.286z" fill="#2f2e41"/><path d="M102.118 8.906a2.206 2.206 0 00-2.3.355 2.5 2.5 0 00-.8 2.22 5.728 5.728 0 001.089 2.237 4.306 4.306 0 01.917 2.3 2.276 2.276 0 01-2.27 2.27 5.125 5.125 0 002.215.579 1.754 1.754 0 001.7-1.29 2.9 2.9 0 00-.4-1.589 11.243 11.243 0 01-.786-2.586 2.6 2.6 0 01.015-1.28 1.5 1.5 0 011.494-.987l.254-.229a1.979 1.979 0 00-1.128-2z" fill="#2f2e41"/><path d="M110.965 20.887a7.635 7.635 0 01-10.685.772l.655-1.828a1.966 1.966 0 011.67-1.147l.417-.026.994-.857s2.678-.1 2.638-.141l1.622.976v-.007l.638.039a1.965 1.965 0 011.67 1.147z" fill="#66c4c5"/><path d="M91.128 7.651a7.618 7.618 0 11-2.222-5.41 7.637 7.637 0 012.222 5.41z" fill="#f2f2f2"/><path d="M79.949 5.153a3.431 3.431 0 012.027-2.27 3.526 3.526 0 013.194.922c1.366 1.361 1.7 6.038.761 7.515-.187-.01-.831-.017-1.02-.024l-.267-.891v.882q-.451-.014-.91-.019a3.96 3.96 0 01-3.91-3.862 9.079 9.079 0 01.125-2.253z" fill="#2f2e41"/><circle cx="2.177" cy="2.177" r="2.177" transform="translate(81.199 4.135)" fill="#9e616a"/><path d="M81.497 4.401l2.506-1.255a3.15 3.15 0 011.845 2.61l.063.748-1.049-.267-.115-.957-.178.882-.484-.123V4.554L83.6 6.038l-1.73-.4z" fill="#2f2e41"/><path d="M89.156 12.691a7.635 7.635 0 01-10.685.772l.655-1.828a1.966 1.966 0 011.67-1.147l.417-.026.994-.857s2.678-.1 2.638-.141l1.622.976v-.007l.638.039a1.965 1.965 0 011.67 1.147z" fill="#66c4c5"/><circle cx="7.637" cy="7.637" r="7.637" transform="translate(54.855 12.349)" fill="#f2f2f2"/><circle cx="2.438" cy="2.438" r="2.438" transform="translate(59.844 16.057)" fill="#ffb6b6"/><path d="M68.223 25.097a7.635 7.635 0 01-10.685.772l.655-1.828a1.966 1.966 0 011.67-1.147l.417-.026.994-.857s2.677-.1 2.638-.141l1.622.976v-.007l.638.039a1.965 1.965 0 011.67 1.147z" fill="#66c4c5"/><path d="M64.853 16.983a3.143 3.143 0 00-1.316-1.791 2.141 2.141 0 00-1.73-.321 1.409 1.409 0 00-1.022 1.357.6.6 0 00-.6.185 1.377 1.377 0 00-.295.6 3.792 3.792 0 00.036 2.1l-.012.1a.951.951 0 00.631-.548c.133-.259.21-.546.355-.8a.865.865 0 01.671-.485l-.025.438.739-.381-.176.421.646-.27-.072.4a.961.961 0 011.323-.428 1.277 1.277 0 01.522.734 3.871 3.871 0 01.125.916 3.2 3.2 0 00.2-2.227z" fill="#2f2e41"/><circle cx="7.637" cy="7.637" r="7.637" transform="translate(10.64 15.821)" fill="#f2f2f2"/><circle cx="2.317" cy="2.317" r="2.317" transform="translate(15.792 19.617)" fill="#9e616a"/><path d="M23.909 28.501a7.635 7.635 0 01-10.685.772l.655-1.828a1.966 1.966 0 011.67-1.147l.417-.026.994-.857s2.678-.1 2.638-.141l1.622.976v-.007l.638.039a1.965 1.965 0 011.67 1.147z" fill="#66c4c5"/><path d="M16.004 23.005l-.013-.038-.027.023zM20.885 21.109a1.666 1.666 0 00-.622-1.216 1.461 1.461 0 01-.381-.344 2.352 2.352 0 01-.129-.322 1.081 1.081 0 00-1.139-.584 1.712 1.712 0 00-1.113.745.758.758 0 00-1.06.878.545.545 0 00-.763.226 1.4 1.4 0 00-.08.887 8.38 8.38 0 00.394 1.588 1.034 1.034 0 00.187-.88c-.029-.323-.012-.717.271-.876s.6.015.9.1a1.71 1.71 0 001.414-.222 4.458 4.458 0 01.465-.324.549.549 0 01.541-.01.756.756 0 01.251.441l.347 1.178a1.666 1.666 0 00.517-1.265z" fill="#2f2e41"/><path fill="#3f3d56" d="M17.574 36.974h.729v21.369h-.729zM39.4 26.994h.729v31.349H39.4zM61.271 33.555H62v24.787h-.729zM83.142 21.526h.729v36.817h-.729zM105.014 29.91h.729v28.433h-.729z"/><circle cx="2.23" cy="2.23" r="2.23" transform="translate(37.579 25.266)" fill="#66c4c5"/><circle cx="2.23" cy="2.23" r="2.23" transform="translate(81.322 19.434)" fill="#66c4c5"/><circle cx="2.23" cy="2.23" r="2.23" transform="translate(59.451 31.463)" fill="#66c4c5"/><circle cx="2.23" cy="2.23" r="2.23" transform="translate(15.708 34.744)" fill="#66c4c5"/><circle cx="2.23" cy="2.23" r="2.23" transform="translate(103.193 27.453)" fill="#66c4c5"/><path d="M121.067 58.123H2.667l-.743.372a.372.372 0 00.372.372h118.771a.372.372 0 100-.743z" fill="#3f3d56"/><circle cx="2.23" cy="2.23" r="2.23" transform="translate(0 56.088)" fill="#3f3d56"/><circle cx="2.23" cy="2.23" r="2.23" transform="translate(15.714 62.542)" fill="#e6e6e6"/><circle cx="2.23" cy="2.23" r="2.23" transform="translate(37.602 62.542)" fill="#e6e6e6"/><circle cx="2.23" cy="2.23" r="2.23" transform="translate(59.489 62.542)" fill="#e6e6e6"/><circle cx="2.23" cy="2.23" r="2.23" transform="translate(81.236 62.542)" fill="#e6e6e6"/><circle cx="2.23" cy="2.23" r="2.23" transform="translate(103.124 62.542)" fill="#e6e6e6"/><circle cx="2.23" cy="2.23" r="2.23" transform="translate(119.539 56.088)" fill="#3f3d56"/></g></svg>