<svg xmlns="http://www.w3.org/2000/svg" width="128" height="104"><g transform="translate(2 5.497)"><path d="M123.945 89.89H86.501v-.306h37.5z" fill="#3f3d56"/><circle cx="1.079" cy="1.079" r="1.079" transform="translate(4.929 .001)" fill="#e6e6e6"/><circle cx="1.079" cy="1.079" r="1.079" transform="translate(10.392 .001)" fill="#e6e6e6"/><circle cx="1.079" cy="1.079" r="1.079" transform="translate(15.856 .001)" fill="#e6e6e6"/><circle cx="1.079" cy="1.079" r="1.079" transform="translate(21.319 .001)" fill="#e6e6e6"/><circle cx="1.079" cy="1.079" r="1.079" transform="translate(26.782 .001)" fill="#e6e6e6"/><circle cx="1.079" cy="1.079" r="1.079" transform="translate(32.245 .001)" fill="#e6e6e6"/><circle cx="1.079" cy="1.079" r="1.079" transform="translate(37.708 .001)" fill="#e6e6e6"/><circle cx="1.079" cy="1.079" r="1.079" transform="translate(43.172 .001)" fill="#e6e6e6"/><circle cx="1.079" cy="1.079" r="1.079" transform="translate(48.635 .001)" fill="#e6e6e6"/><circle cx="1.079" cy="1.079" r="1.079" transform="translate(54.098 .001)" fill="#e6e6e6"/><circle cx="1.079" cy="1.079" r="1.079" transform="translate(4.929 5.533)" fill="#e6e6e6"/><circle cx="1.079" cy="1.079" r="1.079" transform="translate(10.392 5.533)" fill="#e6e6e6"/><circle cx="1.079" cy="1.079" r="1.079" transform="translate(15.856 5.533)" fill="#e6e6e6"/><circle cx="1.079" cy="1.079" r="1.079" transform="translate(21.319 5.533)" fill="#66c4c5"/><circle cx="1.079" cy="1.079" r="1.079" transform="translate(26.782 5.533)" fill="#e6e6e6"/><circle cx="1.079" cy="1.079" r="1.079" transform="translate(32.245 5.533)" fill="#e6e6e6"/><circle cx="1.079" cy="1.079" r="1.079" transform="translate(37.708 5.533)" fill="#e6e6e6"/><circle cx="1.079" cy="1.079" r="1.079" transform="translate(43.172 5.533)" fill="#e6e6e6"/><circle cx="1.079" cy="1.079" r="1.079" transform="translate(48.635 5.533)" fill="#e6e6e6"/><circle cx="1.079" cy="1.079" r="1.079" transform="translate(54.098 5.533)" fill="#e6e6e6"/><circle cx="1.079" cy="1.079" r="1.079" transform="translate(4.929 11.064)" fill="#e6e6e6"/><circle cx="1.079" cy="1.079" r="1.079" transform="translate(10.392 11.064)" fill="#e6e6e6"/><circle cx="1.079" cy="1.079" r="1.079" transform="translate(15.856 11.064)" fill="#e6e6e6"/><circle cx="1.079" cy="1.079" r="1.079" transform="translate(21.319 11.064)" fill="#e6e6e6"/><circle cx="1.079" cy="1.079" r="1.079" transform="translate(26.782 11.064)" fill="#e6e6e6"/><circle cx="1.079" cy="1.079" r="1.079" transform="translate(32.245 11.064)" fill="#e6e6e6"/><circle cx="1.079" cy="1.079" r="1.079" transform="translate(37.708 11.064)" fill="#e6e6e6"/><circle cx="1.079" cy="1.079" r="1.079" transform="translate(43.172 11.064)" fill="#e6e6e6"/><circle cx="1.079" cy="1.079" r="1.079" transform="translate(48.635 11.064)" fill="#e6e6e6"/><circle cx="1.079" cy="1.079" r="1.079" transform="translate(54.098 11.064)" fill="#e6e6e6"/><circle cx="1.079" cy="1.079" r="1.079" transform="translate(4.929 16.596)" fill="#e6e6e6"/><circle cx="1.079" cy="1.079" r="1.079" transform="translate(10.392 16.596)" fill="#e6e6e6"/><circle cx="1.079" cy="1.079" r="1.079" transform="translate(15.856 16.596)" fill="#e6e6e6"/><circle cx="1.079" cy="1.079" r="1.079" transform="translate(21.319 16.596)" fill="#e6e6e6"/><circle cx="1.079" cy="1.079" r="1.079" transform="translate(26.782 16.596)" fill="#e6e6e6"/><circle cx="1.079" cy="1.079" r="1.079" transform="translate(32.245 16.596)" fill="#e6e6e6"/><circle cx="1.079" cy="1.079" r="1.079" transform="translate(37.708 16.596)" fill="#e6e6e6"/><circle cx="1.079" cy="1.079" r="1.079" transform="translate(43.172 16.596)" fill="#e6e6e6"/><circle cx="1.079" cy="1.079" r="1.079" transform="translate(48.635 16.596)" fill="#e6e6e6"/><circle cx="1.079" cy="1.079" r="1.079" transform="translate(54.098 16.596)" fill="#e6e6e6"/><circle cx="1.079" cy="1.079" r="1.079" transform="translate(4.929 22.128)" fill="#e6e6e6"/><circle cx="1.079" cy="1.079" r="1.079" transform="translate(10.392 22.128)" fill="#66c4c5"/><circle cx="1.079" cy="1.079" r="1.079" transform="translate(15.856 22.128)" fill="#e6e6e6"/><circle cx="1.079" cy="1.079" r="1.079" transform="translate(21.319 22.128)" fill="#e6e6e6"/><circle cx="1.079" cy="1.079" r="1.079" transform="translate(26.782 22.128)" fill="#e6e6e6"/><circle cx="1.079" cy="1.079" r="1.079" transform="translate(32.245 22.128)" fill="#e6e6e6"/><circle cx="1.079" cy="1.079" r="1.079" transform="translate(37.708 22.128)" fill="#e6e6e6"/><circle cx="1.079" cy="1.079" r="1.079" transform="translate(43.172 22.128)" fill="#e6e6e6"/><circle cx="1.079" cy="1.079" r="1.079" transform="translate(48.635 22.128)" fill="#e6e6e6"/><circle cx="1.079" cy="1.079" r="1.079" transform="translate(54.098 22.128)" fill="#e6e6e6"/><circle cx="1.079" cy="1.079" r="1.079" transform="translate(4.929 27.66)" fill="#e6e6e6"/><circle cx="1.079" cy="1.079" r="1.079" transform="translate(10.392 27.66)" fill="#e6e6e6"/><circle cx="1.079" cy="1.079" r="1.079" transform="translate(15.856 27.66)" fill="#e6e6e6"/><circle cx="1.079" cy="1.079" r="1.079" transform="translate(21.319 27.66)" fill="#e6e6e6"/><circle cx="1.079" cy="1.079" r="1.079" transform="translate(26.782 27.66)" fill="#e6e6e6"/><circle cx="1.079" cy="1.079" r="1.079" transform="translate(32.245 27.66)" fill="#e6e6e6"/><circle cx="1.079" cy="1.079" r="1.079" transform="translate(37.708 27.66)" fill="#e6e6e6"/><circle cx="1.079" cy="1.079" r="1.079" transform="translate(43.172 27.66)" fill="#e6e6e6"/><circle cx="1.079" cy="1.079" r="1.079" transform="translate(48.635 27.66)" fill="#e6e6e6"/><circle cx="1.079" cy="1.079" r="1.079" transform="translate(54.098 27.66)" fill="#e6e6e6"/><circle cx="1.079" cy="1.079" r="1.079" transform="translate(4.929 33.191)" fill="#e6e6e6"/><circle cx="1.079" cy="1.079" r="1.079" transform="translate(10.392 33.191)" fill="#e6e6e6"/><circle cx="1.079" cy="1.079" r="1.079" transform="translate(15.856 33.191)" fill="#66c4c5"/><circle cx="1.079" cy="1.079" r="1.079" transform="translate(21.319 33.191)" fill="#e6e6e6"/><circle cx="1.079" cy="1.079" r="1.079" transform="translate(26.782 33.191)" fill="#e6e6e6"/><circle cx="1.079" cy="1.079" r="1.079" transform="translate(32.245 33.191)" fill="#e6e6e6"/><circle cx="1.079" cy="1.079" r="1.079" transform="translate(37.708 33.191)" fill="#e6e6e6"/><circle cx="1.079" cy="1.079" r="1.079" transform="translate(43.172 33.191)" fill="#e6e6e6"/><circle cx="1.079" cy="1.079" r="1.079" transform="translate(48.635 33.191)" fill="#e6e6e6"/><circle cx="1.079" cy="1.079" r="1.079" transform="translate(54.098 33.191)" fill="#e6e6e6"/><circle cx="1.079" cy="1.079" r="1.079" transform="translate(4.929 38.723)" fill="#e6e6e6"/><circle cx="1.079" cy="1.079" r="1.079" transform="translate(10.392 38.723)" fill="#e6e6e6"/><circle cx="1.079" cy="1.079" r="1.079" transform="translate(15.856 38.723)" fill="#e6e6e6"/><circle cx="1.079" cy="1.079" r="1.079" transform="translate(21.319 38.723)" fill="#e6e6e6"/><circle cx="1.079" cy="1.079" r="1.079" transform="translate(26.782 38.723)" fill="#e6e6e6"/><circle cx="1.079" cy="1.079" r="1.079" transform="translate(32.245 38.723)" fill="#e6e6e6"/><circle cx="1.079" cy="1.079" r="1.079" transform="translate(37.708 38.723)" fill="#e6e6e6"/><circle cx="1.079" cy="1.079" r="1.079" transform="translate(43.172 38.723)" fill="#e6e6e6"/><circle cx="1.079" cy="1.079" r="1.079" transform="translate(48.635 38.723)" fill="#e6e6e6"/><circle cx="1.079" cy="1.079" r="1.079" transform="translate(54.098 38.723)" fill="#e6e6e6"/><circle cx="1.079" cy="1.079" r="1.079" transform="translate(4.929 44.255)" fill="#e6e6e6"/><circle cx="1.079" cy="1.079" r="1.079" transform="translate(10.392 44.255)" fill="#e6e6e6"/><circle cx="1.079" cy="1.079" r="1.079" transform="translate(15.856 44.255)" fill="#e6e6e6"/><circle cx="1.079" cy="1.079" r="1.079" transform="translate(21.319 44.255)" fill="#e6e6e6"/><circle cx="1.079" cy="1.079" r="1.079" transform="translate(26.782 44.255)" fill="#e6e6e6"/><circle cx="1.079" cy="1.079" r="1.079" transform="translate(32.245 44.255)" fill="#e6e6e6"/><circle cx="1.079" cy="1.079" r="1.079" transform="translate(37.708 44.255)" fill="#e6e6e6"/><circle cx="1.079" cy="1.079" r="1.079" transform="translate(43.172 44.255)" fill="#e6e6e6"/><circle cx="1.079" cy="1.079" r="1.079" transform="translate(48.635 44.255)" fill="#e6e6e6"/><circle cx="1.079" cy="1.079" r="1.079" transform="translate(54.098 44.255)" fill="#e6e6e6"/><circle cx="1.079" cy="1.079" r="1.079" transform="translate(4.929 49.787)" fill="#e6e6e6"/><circle cx="1.079" cy="1.079" r="1.079" transform="translate(10.392 49.787)" fill="#e6e6e6"/><circle cx="1.079" cy="1.079" r="1.079" transform="translate(15.856 49.787)" fill="#e6e6e6"/><circle cx="1.079" cy="1.079" r="1.079" transform="translate(21.319 49.787)" fill="#e6e6e6"/><circle cx="1.079" cy="1.079" r="1.079" transform="translate(26.782 49.787)" fill="#e6e6e6"/><circle cx="1.079" cy="1.079" r="1.079" transform="translate(32.245 49.787)" fill="#e6e6e6"/><circle cx="1.079" cy="1.079" r="1.079" transform="translate(37.708 49.787)" fill="#e6e6e6"/><circle cx="1.079" cy="1.079" r="1.079" transform="translate(43.172 49.787)" fill="#e6e6e6"/><circle cx="1.079" cy="1.079" r="1.079" transform="translate(48.635 49.787)" fill="#e6e6e6"/><circle cx="1.079" cy="1.079" r="1.079" transform="translate(54.098 49.787)" fill="#e6e6e6"/><path d="M44.862 42.829l12.809-22.445H32.04l-12.823 22.21 12.823 22.21h25.645l12.8-22.168z" fill="#3f3d56"/><path d="M73.664 40.75l.024-.042-12.822-22.211h-.016L48.041 40.942z" fill="#66c4c5"/><path d="M92.215 19.41a1.979 1.979 0 010-2.138 1.081 1.081 0 01.868-.366 1.1 1.1 0 01.878.366 1.962 1.962 0 010 2.138 1.1 1.1 0 01-.878.366 1.081 1.081 0 01-.868-.366zm1.244-.379a1.493 1.493 0 00.119-.693 1.441 1.441 0 00-.122-.683.4.4 0 00-.373-.214.389.389 0 00-.363.214 1.476 1.476 0 00-.119.683 1.493 1.493 0 00.119.689.388.388 0 00.363.214.4.4 0 00.38-.21zm-.422 2.639l2.718-4.7h.732l-2.725 4.7zm2.524-.32a1.618 1.618 0 01-.313-1.079 1.583 1.583 0 01.313-1.062 1.235 1.235 0 011.748 0 1.985 1.985 0 010 2.141 1.227 1.227 0 01-1.748 0zm1.244-.383a1.494 1.494 0 00.119-.689 1.442 1.442 0 00-.122-.683.423.423 0 00-.736 0 1.477 1.477 0 00-.119.683 1.5 1.5 0 00.119.689.426.426 0 00.739 0zM.313 59.935a1.979 1.979 0 010-2.138 1.081 1.081 0 01.868-.366 1.1 1.1 0 01.878.366 1.962 1.962 0 010 2.138 1.1 1.1 0 01-.878.366 1.081 1.081 0 01-.868-.366zm1.244-.379a1.493 1.493 0 00.119-.693 1.441 1.441 0 00-.122-.683.4.4 0 00-.373-.214.389.389 0 00-.363.214 1.475 1.475 0 00-.119.683 1.493 1.493 0 00.119.689.388.388 0 00.363.214.4.4 0 00.376-.21zm-.422 2.639l2.718-4.7h.732l-2.725 4.7zm2.524-.32a1.618 1.618 0 01-.313-1.079 1.583 1.583 0 01.313-1.062 1.235 1.235 0 011.748 0 1.985 1.985 0 010 2.141 1.227 1.227 0 01-1.748 0zm1.244-.383a1.494 1.494 0 00.119-.69 1.442 1.442 0 00-.122-.683.423.423 0 00-.736 0 1.476 1.476 0 00-.119.683 1.5 1.5 0 00.119.69.426.426 0 00.739 0z" fill="#3f3d56"/><path d="M61.513 32.888l-.166-.044 3.62-13.619h21v.172H65.099z" fill="#2f2e41"/><path d="M87.682 21.113a1.8 1.8 0 111.8-1.8 1.8 1.8 0 01-1.8 1.8zm0-3.432a1.63 1.63 0 101.63 1.63 1.63 1.63 0 00-1.63-1.63z" fill="#2f2e41"/><circle cx=".686" cy=".686" r=".686" transform="translate(86.995 18.625)" fill="#66c4c5"/><path d="M35.001 46.258l.166.044-3.62 13.619h-21v-.172h20.868z" fill="#2f2e41"/><path d="M8.832 58.034a1.8 1.8 0 11-1.8 1.8 1.8 1.8 0 011.8-1.8zm0 3.432a1.63 1.63 0 10-1.63-1.63 1.63 1.63 0 001.63 1.63z" fill="#2f2e41"/><circle cx=".686" cy=".686" r=".686" transform="translate(8.146 59.149)" fill="#66c4c5"/><path fill="#a0616a" d="M100.702 86.998h2.605v3.543h-2.605zM113.936 86.998h2.605v3.543h-2.605zM118.349 57.616a1.546 1.546 0 01-1.527-1.785l.427-2.72.127-.809h1.98l.1 1.146.412 2.356a1.546 1.546 0 01-1.523 1.812zM98.967 57.3a1.546 1.546 0 01-1.527-1.785l.427-2.72.127-.809h1.98l.1 1.146.412 2.356a1.546 1.546 0 01-1.523 1.812z"/><path d="M116.85 87.728l-3.126-.1-5.106-30.844-5.106 30.948-3.022-.1-.834-35.638h17.506zM103.242 93.001c-2.652.077-4.729-.64-6.09-2.342a1.124 1.124 0 01-.085-1.28 1.124 1.124 0 011.094-.538l.862.1 1.795-.9c-.367 2.135.632 2.175 3.02 1.46l.43 2.206a1.083 1.083 0 01-1.027 1.292zM116.476 92.997c-2.652.077-4.729-.64-6.09-2.342a1.124 1.124 0 01-.085-1.28 1.124 1.124 0 011.094-.538l.862.1 1.781-.751c-.367 2.135.645 2.03 3.034 1.314l.43 2.206a1.083 1.083 0 01-1.027 1.292z" fill="#2f2e41"/><circle cx="4.168" cy="4.168" r="4.168" transform="translate(103.412 11.034)" fill="#a0616a"/><path d="M111.748 22.806l-4.481.208-.208-4.689 3.856-1.459z" fill="#a0616a"/><path d="M118.209 53.444c-6.11-1.156-13.072-1.57-17.715 0l1.459-30.636 4.9-1.459.365-.573 4.116-.677 1.98.625 1.25 1.876 5.419 3.022c-2.67 10.318-3.46 19.692-1.774 27.822z" fill="#2f2e41"/><path d="M121.126 53.236l-4.481-.521c.934-4.551.552-10.469.782-16.412.146-3.769.927-7.2 1.2-11.41a3.718 3.718 0 012.589 3.881c.046 8.819.879 17.083-.09 24.462zM101.641 52.819l-4.377-.313 2.605-14.8.882-12.313c-.137-1.8.823-2.839 2.244-2.9 3.105 3.677 3.466 8.745 2.5 14.484zM108.932 18.266l-.538-1.53a5.019 5.019 0 00-3.977-3.3l-3.369-.077.935-1.5a4.571 4.571 0 014.334-2.133l3.367.336a3.05 3.05 0 012.734 3.318l-.309 3.311a2.086 2.086 0 01-3.178 1.577z" fill="#2f2e41"/></g></svg>