<svg xmlns="http://www.w3.org/2000/svg" width="128" height="104"><g transform="translate(2 8.526)"><path d="M101.28 54.528H21.416a2.059 2.059 0 01-2.056-2.056V3.227a1.508 1.508 0 011.506-1.506h80.937a1.534 1.534 0 011.533 1.533v49.219a2.059 2.059 0 01-2.056 2.055z" fill="#f2f2f2"/><path d="M98.368 51.616H23.936a1.921 1.921 0 01-1.979-1.853V6.88a1.424 1.424 0 011.466-1.374h75.431a1.448 1.448 0 011.491 1.4v42.859a1.921 1.921 0 01-1.977 1.851z" fill="#fff"/><path d="M103.308 3.11H19.331V2.063A2.065 2.065 0 0121.395.001h79.849a2.065 2.065 0 012.064 2.062z" fill="#ccc"/><circle cx=".534" cy=".534" r=".534" transform="translate(22.548 1.024)" fill="#fff"/><circle cx=".534" cy=".534" r=".534" transform="translate(24.574 1.024)" fill="#fff"/><circle cx=".534" cy=".534" r=".534" transform="translate(26.601 1.024)" fill="#fff"/><path d="M90.178 44.425h-57.68a2.183 2.183 0 01-2.181-2.181v-27.81a1.633 1.633 0 011.631-1.631h58.754a1.659 1.659 0 011.657 1.657v27.784a2.183 2.183 0 01-2.181 2.181zm-58.23-31.373a1.383 1.383 0 00-1.382 1.382v27.81a1.934 1.934 0 001.932 1.932h57.68a1.934 1.934 0 001.932-1.932V14.46a1.409 1.409 0 00-1.408-1.408z" fill="#ccc"/><path d="M34.487 42.244h53.692a1.994 1.994 0 001.994-1.994V17.002a1.994 1.994 0 00-1.994-1.994H34.487a1.994 1.994 0 00-1.994 1.994V40.25a1.994 1.994 0 001.994 1.994z" fill="#f2f2f2"/><circle cx="1.122" cy="1.122" r="1.122" transform="translate(39.462 19.528)" fill="#ccc"/><circle cx="1.122" cy="1.122" r="1.122" transform="translate(39.462 23.765)" fill="#ccc"/><circle cx="1.122" cy="1.122" r="1.122" transform="translate(39.462 28.002)" fill="#ccc"/><circle cx="1.122" cy="1.122" r="1.122" transform="translate(39.462 32.239)" fill="#ccc"/><path d="M83.081 20.77H46.192a.125.125 0 110-.249H83.08a.125.125 0 110 .249zM83.081 25.007H46.192a.125.125 0 110-.249H83.08a.125.125 0 110 .249zM83.081 29.245H46.192a.125.125 0 110-.249H83.08a.125.125 0 110 .249zM83.081 33.482H46.192a.125.125 0 110-.249H83.08a.125.125 0 110 .249z" fill="#ccc"/><path d="M53.171 37.723h-3.614a.624.624 0 01-.623-.623v-3.365a.624.624 0 01.623-.623h3.614a.624.624 0 01.623.623V37.1a.624.624 0 01-.623.623zM61.272 37.72h-3.614a.624.624 0 01-.623-.623v-7.6a.624.624 0 01.623-.623h3.614a.624.624 0 01.623.623v7.6a.624.624 0 01-.623.623zM69.497 37.723h-3.614a.624.624 0 01-.623-.623V25.261a.624.624 0 01.623-.623h3.614a.624.624 0 01.623.623V37.1a.624.624 0 01-.623.623zM77.971 37.723h-3.614a.624.624 0 01-.623-.623V21.148a.624.624 0 01.623-.623h3.614a.624.624 0 01.623.623V37.1a.624.624 0 01-.623.623z" fill="#66c4c5"/><path d="M83.081 37.719H46.192a.125.125 0 110-.249H83.08a.125.125 0 110 .249z" fill="#3f3d56"/><path d="M99.284 60.971a1.253 1.253 0 011.909-.217l3.957-2.042-.246 2.3-3.72 1.587a1.26 1.26 0 01-1.9-1.628z" fill="#ffb8b8"/><path d="M102.692 61.829a.561.561 0 01-.19-.276l-.315-1.017a.563.563 0 01.2-.613l3.208-2.423 3.474-6.445a1.807 1.807 0 112.854 2.216l-1.976 4.171a5.779 5.779 0 01-2.924 2.828l-3.759 1.63a.561.561 0 01-.569-.073z" fill="#3f3d56"/><circle cx="3.061" cy="3.061" r="3.061" transform="translate(108.947 42.245)" fill="#ffb8b8"/><path d="M110.766 85.458h-1.528l-.727-5.893h2.255z" fill="#ffb8b8"/><path d="M108.148 85.022h2.947v1.855h-4.8a1.855 1.855 0 011.853-1.855z" fill="#2f2e41"/><path d="M115.751 85.459h-1.528l-.727-5.893h2.255z" fill="#ffb8b8"/><path d="M113.133 85.022h2.947v1.855h-4.8a1.855 1.855 0 011.853-1.855zM115.863 83.964h-1.79a.562.562 0 01-.541-.415l-2.577-9.559a.062.062 0 00-.122.02l.521 9.065a.561.561 0 01-.607.591l-2.012-.168a.562.562 0 01-.51-.494l-1.833-19.036.709.426 6.646-1.128 2.674 20.063a.561.561 0 01-.556.635z" fill="#2f2e41"/><path d="M108.612 65.974a4.1 4.1 0 01-2.08-.585.558.558 0 01-.266-.572c.234-1.431 1.456-8.774 2.568-12.778a3.161 3.161 0 012.977-2.61 4.235 4.235 0 014.412 3.888c.364 4.044-1.113 9.789-1.765 12.072a.56.56 0 01-.883.287l-1.329-1.034a.44.44 0 00-.563.023 4.563 4.563 0 01-3.071 1.309z" fill="#3f3d56"/><path d="M113.007 55.3l1.122 4.736-1.62 3.988 1.122-3.863z" opacity=".2"/><path d="M113.755 47.82a2.061 2.061 0 00.8-.144c.111-.043.227-.078.338-.121a2.744 2.744 0 001.653-2.478 3.569 3.569 0 00-1.331-2.748 5.153 5.153 0 00-2.908-1.1 3.3 3.3 0 00-3.036 1.142.992.992 0 00-.186.858.549.549 0 00.155.238c.282.251.564.062.851.046a.941.941 0 01.878.672 2.026 2.026 0 01-.032 1.17 2.923 2.923 0 00-.147.712.715.715 0 00.3.63.817.817 0 00.819-.086 5.683 5.683 0 01.728-.466.644.644 0 01.781.158.865.865 0 01.1.285c.139.635.107.6.247 1.232z" fill="#2f2e41"/><path d="M109.013 81.184l-19.167-6.675a1.316 1.316 0 01-.809-1.673l4.981-14.3a.964.964 0 011.226-.593l19.814 6.9a.98.98 0 01.6 1.247l-4.975 14.286a1.316 1.316 0 01-1.67.808z" fill="#e6e6e6"/><path d="M91.48 73.686l16.76 5.837a1.274 1.274 0 001.622-.784l4.022-11.548a1.274 1.274 0 00-.784-1.622l-16.76-5.837a1.274 1.274 0 00-1.622.784l-4.022 11.548a1.274 1.274 0 00.784 1.622z" fill="#fff"/><path d="M95.688 65.573l-.83-.289a.18.18 0 01-.111-.229l.289-.83a.18.18 0 01.229-.111l.83.289a.18.18 0 01.111.229l-.289.83a.18.18 0 01-.229.111z" fill="#66c4c5"/><path d="M94.94 67.723l-.83-.289a.18.18 0 01-.111-.229l.289-.83a.18.18 0 01.229-.111l.83.289a.18.18 0 01.111.229l-.289.83a.18.18 0 01-.229.111z" fill="#3f3d56"/><path d="M94.19 69.874l-.83-.289a.18.18 0 01-.111-.229l.289-.83a.18.18 0 01.229-.111l.83.289a.18.18 0 01.111.229l-.289.83a.18.18 0 01-.229.111zM101.265 67.05l-4-1.393a.18.18 0 01.118-.34l4 1.393a.18.18 0 01-.118.34zM100.517 69.202l-4-1.393a.18.18 0 01.118-.34l4 1.393a.18.18 0 01-.118.34zM99.768 71.351l-4-1.393a.18.18 0 01.118-.34l4 1.393a.18.18 0 11-.118.34z" fill="#ccc"/><path d="M110.407 72.516c.029-.07.057-.141.082-.213a3.768 3.768 0 00-2.319-4.8l-1.315 3.774z" fill="#66c4c5"/><path d="M106.476 71.509l1.314-3.774a3.768 3.768 0 102.238 5.012z" fill="#3f3d56"/><path d="M111.182 66.094a1.253 1.253 0 011.368-1.349l1.854-4.049 1.226 1.963-1.948 3.544a1.26 1.26 0 01-2.5-.108z" fill="#ffb8b8"/><path d="M114.391 64.668a.562.562 0 01-.32-.1l-.875-.606a.563.563 0 01-.223-.6l1.029-3.886-1.244-7.215a1.807 1.807 0 113.613-.017l1.019 4.5a5.78 5.78 0 01-.555 4.03l-1.952 3.6a.562.562 0 01-.363.278.555.555 0 01-.129.016z" fill="#3f3d56"/><path d="M123.872 86.947h-23.675a.125.125 0 010-.249h23.675a.125.125 0 010 .249z" fill="#ccc"/><path d="M61.133 85.396h1.528l.727-5.893h-2.255z" fill="#a0616a"/><path d="M60.743 84.903h3.009a1.917 1.917 0 011.917 1.918v.062h-4.926z" fill="#2f2e41"/><path d="M55.026 85.396h1.528l.727-5.893h-2.255z" fill="#a0616a"/><path d="M54.637 84.903h3.009a1.917 1.917 0 011.918 1.918v.062h-4.926z" fill="#2f2e41"/><circle cx="3.061" cy="3.061" r="3.061" transform="translate(58.377 38.476)" fill="#a0616a"/><path d="M63.496 84.125h-2.835a.561.561 0 01-.561-.568l.165-13.463a.187.187 0 00-.373-.025l-1.65 13.563a.561.561 0 01-.557.493h-2.862a.561.561 0 01-.559-.6l1.89-24.186.051-.006 9.051-.978-1.2 25.24a.56.56 0 01-.56.53z" fill="#2f2e41"/><path d="M56.264 60.818a.56.56 0 01-.559-.543 44.409 44.409 0 01.85-10.706 5.1 5.1 0 014.71-3.843 5.132 5.132 0 015.055 3.243c1.654 4.2 3.218 9.377 1.269 10.189-2.554 1.064-9.287 1.539-11.29 1.659z" fill="#3f3d56"/><path d="M67.963 38.443a1.315 1.315 0 00.155.136l-.321 6.172-1.336.684.769 2.152 2.484-.981a1 1 0 00.626-1.02l-.651-7a1.308 1.308 0 10-1.726-.142z" fill="#a0616a"/><path d="M67.822 44.981l.94 2.672a.561.561 0 01-.422.737l-2.772.537a1.557 1.557 0 11-1.025-2.941l2.489-1.314a.561.561 0 01.791.31z" fill="#3f3d56"/><path d="M54.705 38.443a1.312 1.312 0 01-.155.136l.321 6.172 1.336.684-.769 2.152-2.484-.981a1 1 0 01-.626-1.02l.651-7a1.308 1.308 0 111.726-.142z" fill="#a0616a"/><path d="M55.169 44.645a.56.56 0 01.466.026l2.489 1.314a1.557 1.557 0 01-1.025 2.941l-2.772-.537a.561.561 0 01-.422-.737l.94-2.672a.56.56 0 01.324-.335z" fill="#3f3d56"/><path d="M62.626 42.058a2.012 2.012 0 011.127-1.89 2.224 2.224 0 001.259-2.44 2.688 2.688 0 00-3.278-1.562 6.052 6.052 0 00-1.029.478l-.863.462a8.945 8.945 0 00-1.064.628 3.529 3.529 0 00-1.4 3.306 4.718 4.718 0 002.058 3.1 3.481 3.481 0 001.411.627 1.874 1.874 0 001.488-.337 1.957 1.957 0 00.343-2.071 1.5 1.5 0 01-.052-.301z" fill="#2f2e41"/><path d="M73.026 86.947H49.351a.125.125 0 010-.249h23.675a.125.125 0 010 .249z" fill="#ccc"/><path d="M34.382 64.212l-19.538 8.015a1.369 1.369 0 01-1.784-.746L7.082 56.903a1 1 0 01.547-1.307l20.2-8.286a1.02 1.02 0 011.33.556l5.974 14.563a1.369 1.369 0 01-.751 1.783z" fill="#e6e6e6"/><path d="M15.554 70.459l17.085-7.009a1.326 1.326 0 00.723-1.73l-4.83-11.772a1.326 1.326 0 00-1.73-.723L9.717 56.233a1.326 1.326 0 00-.723 1.73l4.83 11.772a1.326 1.326 0 001.73.724z" fill="#fff"/><path fill="#e6e6e6" d="M28.187 53.262l.25-.103.018.042-.25.103zM27.697 53.512l-.507.208-.017-.042.507-.208zm-1.015.416l-.507.208-.017-.042.507-.208zm-1.015.416l-.507.208-.017-.042.507-.208zm-1.015.416l-.507.208-.017-.042.507-.208zm-1.015.416l-.507.208-.017-.042.507-.208zm-1.015.416l-.507.208-.017-.042.507-.208zm-1.015.416l-.507.208-.017-.042.507-.208zm-1.015.416l-.507.208-.017-.042.507-.208zm-1.015.416l-.507.208-.017-.042.507-.208zm-1.012.415l-.507.208-.017-.042.507-.208zm-1.015.416l-.507.208-.017-.042.507-.208zm-1.015.416l-.507.208-.017-.042.507-.208zm-1.015.416l-.507.208-.017-.042.507-.208zm-1.015.416l-.507.208-.017-.042.507-.208zm-1.015.416l-.507.208-.017-.042.507-.208zm-1.015.416l-.507.208-.017-.042.507-.208zM11.191 60.235l.25-.103.018.042-.25.103zM21.538 60.539l.25-.103.018.042-.25.103zM21.054 60.786l-.5.205-.017-.042.5-.205zm-1 .41l-.5.205-.017-.042.5-.205zm-1 .41l-.5.205-.017-.042.5-.205zm-1 .41l-.5.205-.017-.042.5-.205zm-1 .41l-.5.205-.017-.042.5-.205zm-1 .41l-.5.205-.017-.042.5-.205zm-1 .41l-.5.205-.017-.042.5-.205zm-1 .41l-.5.205-.017-.042.5-.205zM12.788 64.128l.25-.103.018.042-.25.103zM17.395 64.39l.25-.103.018.042-.25.103zM16.898 64.643l-.514.211-.017-.042.514-.211zm-1.029.422l-.514.211-.017-.042.514-.211zm-1.029.422l-.514.211-.017-.042.514-.211zM13.544 65.97l.25-.103.018.042-.25.103zM18.685 67.533l.25-.103.018.042-.25.103zM18.188 67.79l-.514.211-.017-.042.514-.211zm-1.029.422l-.514.211-.017-.042.514-.211zm-1.029.422l-.514.211-.017-.042.514-.211zM14.833 69.113l.25-.103.018.042-.25.103z"/><path d="M16.279 68.606l14.478-5.94a1.431 1.431 0 00.78-1.865l-2.925-7.13-.028.013-3.553 8.5-2.635-1.1a.342.342 0 00-.3.019.364.364 0 00-.151.179l-1.862 4.452-1.927-.805a.343.343 0 00-.449.184c-.016.026-1.204 2.938-1.428 3.493z" fill="#66c4c5"/><path d="M16.236 68.673l-.042-.017 1.49-3.562a.385.385 0 01.5-.206l1.889.79 1.851-4.427a.385.385 0 01.5-.206l2.6 1.086 3.571-8.54.042.017-3.589 8.581-2.639-1.1a.339.339 0 00-.444.182l-1.869 4.469-1.93-.807a.34.34 0 00-.444.182z" fill="#3f3d56"/><circle cx=".317" cy=".317" r=".317" transform="translate(17.338 63.991)" fill="#3f3d56"/><circle cx=".317" cy=".317" r=".317" transform="translate(21.481 60.14)" fill="#3f3d56"/><circle cx=".317" cy=".317" r=".317" transform="translate(27.931 52.852)" fill="#3f3d56"/><path d="M10.518 63.949a1.258 1.258 0 00.45-1.876l.941-9.2H9.876l-.748 8.981a1.265 1.265 0 001.39 2.092z" fill="#ffb8b8"/><circle cx="2.876" cy="2.876" r="2.876" transform="translate(9.509 42.046)" fill="#ffb8b8"/><path d="M12.926 58.231a.526.526 0 01-.507-.386 29.086 29.086 0 00-1.782-4.208 3.485 3.485 0 011.979-4.812 3.484 3.484 0 014.477 2.219 17.24 17.24 0 01.653 5.749.528.528 0 01-.414.488l-4.293.937a.523.523 0 01-.113.013z" fill="#ff6584"/><path d="M17.083 85.545h1.436l.683-5.538h-2.119z" fill="#ffb8b8"/><path d="M21.288 86.878h-4.512v-1.743h2.769a1.743 1.743 0 011.743 1.743z" fill="#2f2e41"/><path d="M2.727 83.684l1.258.692 3.267-4.524-1.857-1.021z" fill="#ffb8b8"/><path d="M5.769 86.877l-3.954-2.174.84-1.527L5.08 84.51a1.743 1.743 0 01.688 2.367zM17.017 82.471a.527.527 0 01-.522-.459l-1.8-13.836a.293.293 0 00-.547-.1L6.665 81.652a.53.53 0 01-.649.238l-1.631-.621a.527.527 0 01-.3-.691l5.184-12.734a.407.407 0 00.026-.1c.7-5.434 2.488-8.2 3.019-8.915a.408.408 0 00.058-.372l-.073-.219a.527.527 0 01.1-.513c1.913-2.178 5.246-.99 5.279-.977l.017.006.01.014c3.738 5.126 2.356 21.776 2.041 25.061a.525.525 0 01-.484.474l-2.21.17z" fill="#2f2e41"/><path d="M23.567 48.264a1.231 1.231 0 00-.028.192l-5.031 2.9-1.223-.7-1.3 1.707 2.044 1.457a.937.937 0 001.124-.027l5.188-4.092a1.229 1.229 0 10-.77-1.434z" fill="#ffb8b8"/><path d="M18.34 51.495l-1.626 2.107a.527.527 0 01-.8.044l-1.841-1.911a1.464 1.464 0 011.795-2.312l2.309 1.291a.527.527 0 01.16.782zM12.038 55.156l-2.619-.473a.527.527 0 01-.406-.687l.849-2.514a1.464 1.464 0 012.879.529l-.083 2.644a.527.527 0 01-.62.5z" fill="#ff6584"/><path d="M12.84 44.261c.739.506 1.71 1.026 2.465.487a1.374 1.374 0 00.451-1.584 3.379 3.379 0 00-2.3-1.838 6.619 6.619 0 00-3.854-.49 2.735 2.735 0 00-2.171 2.854c.185 1.042 1.168 1.908 1.028 2.957s-1.327 1.611-2.375 1.8-2.22.249-2.973 1a2.794 2.794 0 00.183 3.69 6.734 6.734 0 003.59 1.786 8.734 8.734 0 005.303-.052c1.663-.687 2.958-2.536 2.476-4.27a5.957 5.957 0 00-1.146-1.954 5.445 5.445 0 01-1.109-1.972 2.05 2.05 0 01.37-1.793.52.52 0 00.07-.607z" fill="#2f2e41"/><path d="M23.8 86.947H.125a.125.125 0 010-.249H23.8a.125.125 0 010 .249z" fill="#ccc"/></g></svg>