<svg xmlns="http://www.w3.org/2000/svg" width="128" height="104"><g transform="translate(2 1.774)"><path d="M19.691 0l-8.2 15.993h1.655v13.041h-8.34L0 38.407l59.545 30.529 19.692-38.407z" fill="#f2f2f2"/><path fill="#3f3d56" d="M17.96 10.403h91.29v45.8H17.96z"/><path fill="#66c4c5" opacity=".3" d="M30.769 26.861H98.15v.155H30.769zM30.846 30.742h67.381v.155H30.846zM30.846 38.505h67.381v.155H30.846zM30.846 41.92h67.381v.155H30.846zM30.846 34.623h67.381v.155H30.846z"/><ellipse cx="28.878" cy="2.639" rx="28.878" ry="2.639" transform="translate(59.103 95.173)" fill="#3f3d56"/><path d="M32.716 42.033l-.214-.225 10.03-9.56 8.841 6.36 7.15-7.927 3.135 2.665 8.528-5.117 9.473 6.367 14.867-8.457.153.27-15.035 8.552-9.468-6.364-8.55 5.13-3.075-2.614-7.134 7.909-8.858-6.371z" fill="#66c4c5"/><path d="M61.599 92.509a8.67 8.67 0 003.229 4.368 7.464 7.464 0 00-2.643-9.768 8.67 8.67 0 00-.586 5.4z" fill="#3f3d56"/><path d="M62.676 91.929a8.67 8.67 0 012.247 4.945 7.465 7.465 0 01-7.256-7.056 8.67 8.67 0 015.009 2.111z" fill="#66c4c5"/><circle cx="5.201" cy="5.201" r="5.201" transform="translate(113.598 3.106)" fill="#66c4c5" opacity=".4"/><circle cx="3.649" cy="3.649" r="3.649" transform="translate(105.525 7.143)" fill="#66c4c5" opacity=".4"/><circle cx="1.941" cy="1.941" r="1.941" transform="translate(102.73 75.766)" fill="#66c4c5" opacity=".4"/><circle cx="1.475" cy="1.475" r="1.475" transform="translate(70.126 86.324)" fill="#66c4c5" opacity=".4"/><circle cx="1.941" cy="1.941" r="1.941" transform="translate(64.692 66.296)" fill="#66c4c5" opacity=".4"/><circle cx="2.018" cy="2.018" r="2.018" transform="translate(92.405 24.92)" fill="#66c4c5"/><path d="M81.31 63.496l-1.711.19a23.018 23.018 0 000 7.985c.76 4.563 1.711 9.125 1.711 9.125s.76 14.829 1.141 15.019 3.8 1.331 3.992.19.19-27.186.19-27.186l2.662 12.547s.38 15.779 1.141 15.779 3.232-.19 3.232-1.521.57-18.821.57-18.821-.19-12.928-.951-13.308-11.977.001-11.977.001z" fill="#2f2e41"/><path d="M82.831 95.242a7.564 7.564 0 00-2.091 0 1.522 1.522 0 000 2.281 11.51 11.51 0 004.182 1.9 3.933 3.933 0 001.521-.38l-.38-3.232zM90.435 96.194l.19 2.662s2.471.38 2.662 0 2.091-1.331 2.281-1.521.38-2.281-.76-2.471-1.521.38-1.521.38z" fill="#2f2e41"/><path d="M74.465 47.526s-4.563 4.373-3.992 6.654 5.133 8.935 5.133 8.935 4.373 2.281 4.943 0-3.042-1.711-3.042-1.711l-2.852-6.844 3.232-4.563zM94.853 40.874s4.156-2.673 4.06-4.509-2.6-7.626-2.6-7.626-1.96-4.075-2.739-2.41 1.024 3.438 1.024 3.438l1.164 5.68-3.164 3.018z" fill="#ffb8b8"/><circle cx="3.422" cy="3.422" r="3.422" transform="translate(81.12 30.226)" fill="#ffb8b8"/><path d="M82.83 35.74l.57 3.612 4.182-.76s-.19-3.612-.19-3.992-4.562 1.14-4.562 1.14z" fill="#ffb8b8"/><path d="M82.64 39.353s4.753-1.141 5.323-.76a16.292 16.292 0 003.422.76l3.232 4.943-.951 6.274s-.19 10.076.19 11.787 2.471 1.9-1.9 2.281-5.133-.19-8.175.57-5.513-.38-4.753-1.141 2.091-12.928.57-14.068-2.091-7.034-2.091-7.034 5.133-2.663 5.133-3.612z" fill="#d0cde1"/><path d="M90.817 39.921l.57-.57 1.141-1.141s3.707 1.616 3.517 2.186-1.426 3.9-1.426 3.9l-1.711.57zM79.788 43.34l-2.281-.38s-1.711 1.9-2.281 2.662-1.711 2.662-1.711 2.662l3.992 2.852 3.042-3.232z" fill="#d0cde1"/><path d="M85.735 29.503l-.035-.274a2.156 2.156 0 00-.685.108 1.125 1.125 0 01.042-.493 2.191 2.191 0 00-.634.276l-.138-.5-1.9.937a4.008 4.008 0 00-1.791 1.359 2.884 2.884 0 00-.062 2.458 19.967 19.967 0 001.187 2.247 5.613 5.613 0 00.539.918 2.565 2.565 0 003.125.535 1.808 1.808 0 00.866-.891 5.783 5.783 0 00.173-.738c.125-.511.27-1.566.685-1.889.183-.142.545.329.7.154a1.619 1.619 0 00.066-1.688 12.318 12.318 0 00-.811-1.582 7.5 7.5 0 00-1.327-.937z" fill="#2f2e41"/><path fill="#3f3d56" d="M1.969 17.856h9.936v9.936H1.969z"/></g></svg>