<svg xmlns="http://www.w3.org/2000/svg" width="415" height="552"><path fill="none" d="M0 0h415v552H0z"/><path d="M95.881 250.573c-14.2-1.138-15.68-2.821-15.759-17.863-.074-14.11-2.045-18.816-9.282-22.153-4.825-2.225-5.166-2.228-13.815-.136a127.313 127.313 0 00-15.509 4.9c-9.448 3.927-14.355 4.579-18.638 2.478-5.192-2.547-13.074-8.677-12.208-9.5.406-.383-.178-1.561-1.3-2.617-1.188-1.122-2.033-3.871-2.033-6.611 0-4.275.338-4.754 3.812-5.411 4.009-.757 6.592-3.86 6.059-7.275-.865-5.544 1.891-11.65 8.44-18.7 3.743-4.028 6.806-7.733 6.806-8.234 0-1.127 6.949-8.916 14.3-16.028 3.034-2.936 5.9-6.54 6.369-8.008a3.586 3.586 0 013.655-2.669c3.089 0 5.818-2.029 5.818-4.326 0-4.756 16.328-25.334 20.1-25.334.579 0 1.691-1.826 2.471-4.057s2.177-4.653 3.106-5.381 2.055-3.173 2.5-5.434c.843-4.244 2.345-5.209 4.094-2.627.552.816 3.476 2.676 6.5 4.133 5.183 2.5 5.685 2.542 8.941.726 3.184-1.777 3.914-1.776 9.478.015 3.316 1.067 6.18 1.8 6.364 1.623 1.939-1.831 5.517-12.894 5.517-17.056a13.191 13.191 0 013.181-9.259c2.84-3.518 4.048-4.027 11.287-4.759 7.04-.712 8.451-1.276 10.72-4.286 1.9-2.521 3.647-3.466 6.408-3.466 4.76 0 8.494-3.982 8.551-9.117a22.163 22.163 0 011.206-6.672c1.35-3.354 9.4-8.46 11.91-7.551.939.34 2.968-.215 4.508-1.234 2.4-1.586 2.707-2.628 2.158-7.236-.451-3.777-.1-5.9 1.174-7.1a11.173 11.173 0 002.5-4.967c.467-2.207 2.074-3.876 5-5.2 6.2-2.792 7.315-2.476 8.857 2.5.758 2.447 1.989 6.051 2.736 8.008a53.517 53.517 0 012.01 6.689c.482 2.311 2 3.64 5.816 5.081 2.922 1.1 5.439 2.948 5.8 4.246a4.891 4.891 0 002.992 3c2.018.6 1.434 1.529-4.067 6.434-6.289 5.607-6.406 5.837-5.592 10.964 1.029 6.484-3.771 18.042-7.918 19.067-4.204 1.044-5.904 6.069-4.032 11.93 1.992 6.224 2 6.9.148 15.908-1.4 6.79-1.853 7.5-5.707 8.813-2.971 1.015-5.126 3.056-7.407 7.015-1.769 3.071-3.217 6.236-3.217 7.032s-1.638 3.4-3.641 5.791c-2.622 3.127-3.9 6.285-4.559 11.287-1.094 8.269-4.263 11.561-11.49 11.933a22.373 22.373 0 00-9.684 3.419c-2.687 1.744-5.409 3.172-6.049 3.172s-3.18 1.452-5.644 3.228l-4.48 3.228.713 10.394c.437 6.37.229 10.677-.537 11.124a8.794 8.794 0 00-2.4 3.581 4.226 4.226 0 01-3.666 2.851c-1.727 0-2.757 1.025-3.276 3.263a34.644 34.644 0 01-2.715 6.932c-1.793 3.36-1.773 4.127.239 9.1 2.228 5.512 1.875 7.989-1.14 7.989-2.456 0-5.279 4.688-6.316 10.489-.5 2.8-1.632 5.36-2.513 5.679s-2.585 2.641-3.788 5.161c-1.79 3.75-3.582 5.18-9.89 7.892-9.252 3.977-7.877 3.665-13.984 3.175z" fill="#6667ab" opacity=".55"/><path d="M131.674 293.39c0-.589-1.554-1.678-3.454-2.42s-4.941-2.128-6.76-3.08c-2.832-1.482-3.912-1.5-7.535-.106a52.334 52.334 0 01-10.509 2.332l-6.279.708-5.024-9.72a64.214 64.214 0 00-12.948-17.38c-4.359-4.213-9.7-9.776-11.868-12.362-6.542-7.8-16.985-11.619-36.018-13.162-17.071-1.384-18.77-2.043-25.893-10.04l-3.394-3.812 2.3-4.984c4.427-9.606 4.515-9.646 10.057-4.542 6.409 5.9 11.825 7.658 18.611 6.032 5.261-1.261 10.933-3.526 12.061-4.817 1.4-1.609 19.15-5.993 21.755-5.375 1.542.366 4.39 2.228 6.328 4.139 3.788 3.735 5.7 12.506 5.785 26.539.039 6.446.248 6.893 4.123 8.785 5.439 2.657 19.782 4.134 22.292 2.3a60.858 60.858 0 018.17-4.058c5.432-2.314 6.837-3.676 10.341-10.026a62.4 62.4 0 004.808-10.493c.794-3.317 4.845-8.125 6.847-8.125 2.392 0 2.691-5.939.565-11.2-2.01-4.971-2.019-5.579-.123-8.311a11.3 11.3 0 002.045-4.831c0-1.036 1.621-2.417 3.6-3.07 5.39-1.775 7.45-7.855 6.717-19.822-.392-6.39-.141-9.715.732-9.715a5.741 5.741 0 002.987-1.491c3.637-3.269 18.165-9.561 21.588-9.35 5.507.34 10.249-5.024 11.209-12.679a24.658 24.658 0 014.667-11.494 43.822 43.822 0 005.186-9.193q3.084-9.191 5.551-9.181c3.377 0 7.291-4.679 9.5-11.351 2.774-8.4 2.882-11.966.479-15.936-2.844-4.7-3.117-7.3 1.57-10.724 3.956-2.886 4.843-4.016 7.327-10.139 2.962-7.3 1.821-10.576.289-12.965-.409-.637.015-.49.115-1.175.118-.8.229-.7.474-1 .319-.387 2.936-1.931 6.185-4.789 5.582-4.911 13.123-7.792 16-6.112a1.481 1.481 0 001.937-.536 3.881 3.881 0 012.93-1.2c1.535 0 2.551 1.616 3.544 5.635 1.227 4.969 1.1 6.022-1.06 8.9-1.348 1.8-2.319 4.466-2.157 5.932a12.276 12.276 0 01-1.285 5.755c-1.358 2.656-1.21 3.774 1.051 7.961 1.447 2.679 2.63 5.508 2.63 6.286s-2.826 4.238-6.279 7.688c-5.066 5.061-6.279 7.072-6.279 10.411 0 2.276.887 4.977 1.972 6 2.392 2.26 7.371 3.562 9.991 2.612 1.092-.4 2.84.317 4.049 1.652a8.551 8.551 0 006.156 2.348c3.8 0 4.139.363 6.051 6.575 1.965 6.387 1.944 6.709-.739 11.218-2.984 5.015-2.234 7.433 2.772 8.933a5.85 5.85 0 013.225 3.9 23.965 23.965 0 002.316 5.556 44.39 44.39 0 013.17 7.5c1.3 3.959 3.272 6.262 8.676 10.135 6.764 4.849 7 5.216 7.374 11.245.324 5.294.847 6.432 3.474 7.563l3.093 1.331L296 181.36c-1.513 1.522-3.743 2.767-4.955 2.767-3.041 0-6.15 3.2-6.15 6.334 0 1.433-1.374 4.516-3.054 6.851a31.331 31.331 0 00-4.119 8.129c-.914 3.331-1.686 3.938-5.423 4.264a64.776 64.776 0 00-6.87.953 31.544 31.544 0 01-4.1.664c-.873.05-2.95 2.907-4.617 6.348-2.554 5.275-3.976 6.669-9.051 8.874-3.932 1.709-6.448 2.213-7.251 1.454-1.837-1.735-7.087-1.307-11.917.971-4.412 2.081-4.784 2.533-8.214 9.992-1.647 3.583-3 4.66-7.18 5.724-2.833.721-6.392 1.016-7.908.657-2.914-.691-5.763 2.059-9.831 9.489-1.6 2.915-3.676 4.205-10.066 6.244-7.381 2.355-8.358 2.421-11.684.782-8.033-3.958-12.585-1.812-27.71 13.064-4.955 4.874-9.557 8.861-10.227 8.861-1.883 0-2.751 3.219-1.922 7.131.478 2.256.237 3.546-.662 3.546a1.282 1.282 0 01-1.413-1.07z" fill="#6667ab" opacity=".88"/><path d="M229.521 348.738c-.061-.816-.035-3.885.059-6.822a38.716 38.716 0 00-2.2-11.864l-2.38-6.525 2.927-5.932c3.462-7.016 3.667-10.738.947-17.161-1.555-3.672-3.574-5.6-8.88-8.464-4.851-2.622-7.471-4.978-8.927-8.025-2.809-5.883-5.251-8.466-8.005-8.466a2.11 2.11 0 01-2.317-2.232c0-1.228-1.978-3.657-4.4-5.4-5-3.605-5.267-4.526-2.2-7.672a79.356 79.356 0 005.337-6.492c1.727-2.332 4.086-4.254 5.242-4.272a68.728 68.728 0 008.552-1.439c6.583-1.436 7.948-2.958 11.7-13.06.411-1.1 3.073-2.668 5.917-3.473 4.414-1.249 5.677-1.181 8.632.468 3.261 1.82 3.582 1.8 5.558-.383 1.153-1.273 2.874-2.314 3.824-2.314 3.071 0 8.315-4.814 10.769-9.886 1.965-4.06 3.337-5.219 7.674-6.479 4.9-1.424 6.7-1.232 6.961.744a30.148 30.148 0 001.57 4.131 17.313 17.313 0 011.465 4.9c0 .891 4.706 3.117 10.989 5.2 6.044 2 14.039 4.68 17.768 5.953a34.438 34.438 0 0110.864 6.292c9.277 9.035 12.765 11.69 15.357 11.69 2.355 0 2.575.388 1.6 2.815-1.2 2.986.885 10.434 4.307 15.367 1.544 2.226 1.566 3.311.147 7.211-.919 2.525-2.569 5.065-3.666 5.646s-2.993 4.111-4.212 7.846-2.939 7.218-3.822 7.74c-.949.561-1.605 3.332-1.605 6.78 0 4.577-.529 6.1-2.461 7.075-1.353.684-3.356 3.027-4.451 5.206-1.59 3.166-2.579 3.855-4.921 3.432-2.227-.4-3.738.47-6.289 3.629-3.831 4.744-9.612 7.262-19.555 8.515a42.624 42.624 0 00-8.93 1.874c-1.7.841-2 .293-1.884-3.4.123-3.9-.233-4.443-3.14-4.762-2.721-.3-3.663.408-5.538 4.152-4.786 9.558-9.349 12.488-26.277 16.875-11.128 2.884-11.965 2.952-12.113.984z" fill="#6667ab" opacity=".66"/><path d="M146.963 361.538a118.466 118.466 0 00-15.331-3.61c-6.118-.8-6.129-.8-5.243-4.548.489-2.063.742-8.556.564-14.429-.878-28.9-.67-34.369 1.487-39.151 2.034-4.51 2.23-4.631 3.943-2.443a8.714 8.714 0 011.8 3.263c0 .528.925.96 2.055.96 1.7 0 1.926-.884 1.315-5.1a42.565 42.565 0 00-1.519-7.015c-.455-1.121-.077-2.085.908-2.319.928-.22 6.517-5.462 12.42-11.649 12.217-12.8 15.723-14.531 22.939-11.3 4.507 2.021 5.55 1.932 13.6-1.157 1.534-.589 2.64.152 4.038 2.706a9.3 9.3 0 004.948 4.233 4.787 4.787 0 013.746 4.131c.557 2.631 1.6 3.58 4.556 4.138 3.021.571 3.833 1.34 3.833 3.629 0 3.735 5.107 9.458 10.227 11.462l4 1.565-4.81 3.928c-2.646 2.16-5.493 3.928-6.327 3.928s-3.989-1.271-7.012-2.825a48.11 48.11 0 00-9-3.593c-3.054-.67-3.707-.3-5.129 2.893-2.327 5.228-7.024 7.084-17.928 7.084-7.465 0-9.472.385-10.1 1.941-1.016 2.5 1.1 5.656 4.142 6.179 3.071.528 17.86 9.825 18.631 11.713.324.794-.222 4.027-1.215 7.184-1.462 4.65-2.644 6.119-6.224 7.732-4.226 1.9-4.42 2.265-4.433 8.239a77.622 77.622 0 01-.792 10.7l-.778 4.449-7.057-.053a70.326 70.326 0 01-16.257-2.867z" fill="#6667ab" opacity=".22"/><path d="M98.03 357.572c-1.294-.818-1.312-1.715-.088-4.483.842-1.9 1.689-8.266 1.883-14.138s.7-14.682 1.128-19.575a56.271 56.271 0 00-1.072-17.2c-1.016-4.568-1.678-8.478-1.471-8.689a43.812 43.812 0 017.087-1.261 38.757 38.757 0 009.53-2.324c2.386-1.224 3.593-1.031 7.849 1.261 3.419 1.841 4.794 3.278 4.293 4.488-2.579 6.233-4.381 19.155-3.641 26.1 1.565 14.682 1.357 31.8-.4 33.458-.909.853-4.835 1.614-8.791 1.7a81.545 81.545 0 00-10.916.924c-2.072.418-4.5.3-5.386-.262z" fill="#6667ab" opacity=".44"/><path d="M144.232 440.516c-3.387-1.133-6.051-3.767-11.608-11.477-6.325-8.775-8.017-10.323-13.746-12.572-3.816-1.5-6.931-3.58-7.49-5.007a6.167 6.167 0 00-3.958-3.154c-1.651-.391-5.1-3.085-7.668-5.986l-4.662-5.273 3.218-7.6c1.77-4.18 3.218-9.131 3.218-11 0-5.385 3.662-17.411 5.758-18.908 3.134-2.238 22.272-.757 35.372 2.737l6.593 1.759v25.01l-4.71-.826c-2.59-.454-5.6-1.581-6.692-2.5a7.185 7.185 0 00-2.884-1.679c-1.629 0-7.04 12.378-7.052 16.135-.013 4.032 4.563 10.823 13.111 19.457 2.907 2.936 7.965 8.376 11.238 12.088l5.953 6.749-3.792 1.852c-4.385 2.142-4.393 2.142-10.2.2z" fill="#6667ab"/><path d="M70.357 440.016c-4-4.018-6.859-14.207-5.881-20.924.711-4.887.162-6.946-4.471-16.756-7.324-15.508-6.864-20.357 2.212-23.34 6.247-2.053 25.822-13.25 28.852-16.5 2.3-2.467 3.425-2.8 7.211-2.129s4.389 1.2 3.87 3.335c-3.972 16.324-5.636 22.226-7.366 26.115a23.847 23.847 0 00-2.042 7.523c0 3.659 7.555 12.165 12.576 14.159 4.537 1.8 4.9 3.977.673 3.977-3.086 0-6.227 3.016-16.028 15.389C85.9 436 77.2 442.64 74.436 442.72c-.743.022-2.579-1.2-4.079-2.7z" fill="#6667ab" opacity=".66"/><path d="M169.454 445.153c-4.8-.532-5.9-1.2-8.163-5.016-2.888-4.859-9.816-13.187-21.792-26.2-4.33-4.7-8.213-9.777-8.627-11.273s.223-5.135 1.415-8.086c1.684-4.166 2.63-5.182 4.231-4.545 4.577 1.819 12.159 2.649 13.637 1.493.964-.754 1.659-5.569 1.884-13.05l.357-11.856 17.582.167c9.67.092 20.308.216 23.639.276l6.057.11-.406 16.383-.406 16.383-4.71 4.553c-5.2 5.029-5.853 7.683-2.458 10.021 3.107 2.139 16.026 18.618 17.979 22.934a27.526 27.526 0 004.089 6.2c4.21 4.511-.137 3-5.965-2.076-3-2.61-6.431-4.746-7.631-4.746s-3.722 1.558-5.6 3.461c-2.438 2.465-3.938 3.153-5.213 2.391-2.671-1.6-6.942-1.326-8.585.545-1.934 2.2-4.655 2.666-11.311 1.929z" fill="#6667ab" opacity=".55"/><path d="M216.283 441.87a28.983 28.983 0 01-3.3-5.241c-.7-1.767-4.741-7.086-16.388-21.542l-3.656-4.538 4.153-4.882 4.153-4.882.233-15.495c.128-8.522.3-16.353.378-17.4.089-1.182 4-3.548 10.3-6.229 9.079-3.865 11.266-4.322 20.674-4.322h10.52l1.322 4.637c1.135 3.982 7.044 10.56 10.9 12.132 1.456.594 6.722 10.691 6.723 12.891 0 .979 1.1 3.474 2.432 5.546l2.431 3.766-3.378 2.071c-5.464 3.35-10.285 10.627-10.285 15.524 0 3.938-1.642 6.564-7.89 12.62a26.421 26.421 0 01-11.262 6.79c-3.281.911-5.965 2.118-5.965 2.682 0 .914-8.285 9.133-9.206 9.133a18.1 18.1 0 01-2.888-3.263z" fill="#6667ab" opacity=".99"/><path d="M180.829 365.764l-7.987-1.282.766-5.278a79.435 79.435 0 00.766-9.249c0-3.376.625-4.218 4.17-5.617 3.465-1.368 4.651-2.894 7.021-9.033l2.852-7.388-3.41-3.362c-3.688-3.637-17.05-11.822-19.3-11.822a1.3 1.3 0 01-1.381-1.186c0-.68 3.809-1.186 8.915-1.186 9.825 0 16.884-2.355 18.125-6.046 1.016-3.024 3.755-2.839 11.264.764 7.472 3.585 10.1 3.193 16.432-2.447 2.572-2.291 4.8-4.025 4.951-3.854 1.593 1.806 4.362 8.463 4.362 10.486 0 1.419-1.429 5.588-3.176 9.265l-3.176 6.685 2.548 7a48.363 48.363 0 012.548 13.849c0 5.963.349 6.957 2.691 7.66 1.48.444 4.874.127 7.542-.7 5.219-1.627 6.839-1.116 5.66 1.786-.59 1.452-2.957 1.831-11.435 1.831-9.848 0-11.561.379-21.7 4.808-12.386 5.407-17.539 6.175-29.046 4.328zM244.357 436.105c-1.975-1.865-.671-4.508 4.685-9.5 3.877-3.611 5.85-6.576 6.424-9.657 1.025-5.5 7.448-15.369 10.619-16.32a4.63 4.63 0 002.137-7.49 15.191 15.191 0 01-2.631-6.138c-1.129-5.816-6.1-15.423-7.978-15.423-2.9 0-9.4-6.579-11.086-11.224-2.57-7.061-1.192-11.063 4.3-12.485 7.843-2.032 14.119-6.467 17.6-12.436 4.184-7.182 6.853-7.128 4.52.093-1.113 3.446 2 4.357 7.485 2.191a28.738 28.738 0 018.786-1.731c6.057 0 17.293-4.916 19.932-8.721 2.5-3.607 4.625-4.094 4.653-1.067.015 1.66.241 1.745 1.128.422 1.663-2.481 9.518 2.506 11.533 7.322.879 2.1 1.824 4.224 2.1 4.714s-.738.89-2.252.89c-2.3 0-2.625.48-1.97 2.944.649 2.443.034 3.4-3.616 5.635-3.743 2.29-4.4 3.36-4.414 7.18-.014 3.914 3.128 11.024 8.181 18.514 3.19 4.729 9.194 9.248 14.1 10.609 2.936.815 5.337 1.995 5.337 2.621s1.272 1.15 2.826 1.165c3.3.03 10.527 3.256 18.524 8.262 3.108 1.946 6.5 3.914 7.535 4.373a9.987 9.987 0 013.14 2.394c.812 1.008 4.8 1.662 11.3 1.853 8.874.261 10.507-.031 13.986-2.5 5.254-3.725 11.759-2.741 11.759 1.779a12.539 12.539 0 01-1.284 5.216c-1.354 2.39-1.178 2.387-19.843.358-5.647-.614-7.261-.324-10.4 1.866l-3.711 2.592-3.264-2.425c-2.72-2.021-4.369-2.3-9.888-1.69-5.039.559-7.321.274-9.539-1.194-5.465-3.616-8.5-2.558-11.37 3.969-1.43 3.251-3.654 6.215-4.954 6.605s-2.359 1.12-2.359 1.623c0 3.457-15.811 3.947-17.2.534-.378-.93-2.5-1.61-5.035-1.61a19.791 19.791 0 01-8.113-2.076c-3.554-1.977-3.791-1.977-4.966 0-.713 1.2-2.707 2.076-4.727 2.076-3.518 0-5.281 2-7.063 8.008-.543 1.832-1.75 2.669-3.847 2.669-1.68 0-3.055-.6-3.055-1.332 0-.929-.475-.96-1.57-.1a9.11 9.11 0 01-4.71 1.221c-4.08-.008-9.327.842-10.91 1.766a44.607 44.607 0 01-8.043 1.864c-3.735.623-7.936 1.476-9.335 1.894s-2.953.374-3.454-.1z" fill="#6667ab" opacity=".77"/><path d="M274.733 545.828c-2.668-3.539-3.094-3.677-9.465-3.055-5.445.531-8.426.013-16.21-2.819-11.222-4.082-16.348-4.456-17.233-1.258-1.16 4.189-16.49 4.646-23.1.689-1.486-.889-3.689-4.174-4.9-7.3s-4.036-9.263-6.289-13.637c-3.625-7.036-4.02-8.757-3.427-14.93.829-8.636-.839-12.116-5.808-12.116-2.923 0-3.7.615-4.288 3.409-1.368 6.464-8.383 5.589-8.383-1.045 0-3.079-.414-3.326-6.849-4.086-7.285-.86-7.3-.875-8.809-9.315-.444-2.481-1.613-4.8-2.6-5.16-1.844-.668-6.758 4.083-11.137 10.768-3.048 4.653-4.182 2.054-1.378-3.158a59.911 59.911 0 006.892-27.467c.013-7.511.45-9.672 2.214-10.936 2.883-2.067 5.337-2.067 5.337 0s1.658 2.673 10.3 3.694c5.129.605 7.893.347 10.639-.994a15.746 15.746 0 018.936-1.15c4.717.6 5.342.374 6.416-2.294 1.915-4.758 4.673-4.838 9.5-.276 3.667 3.464 5.24 4.115 9.952 4.115 5.556 0 11.294-3.131 15.494-8.454 2.415-3.061 7.521-3.744 11.478-1.536 3.239 1.808 4.2 1.8 13.445-.086 17.877-3.649 21.04-4.171 21.67-3.576.342.323-.035 2.654-.836 5.181-1.778 5.605-1.924 16.776-.219 16.776.681 0 2.735 2.137 4.565 4.749 3.283 4.686 3.3 4.816 1.274 9.827-2.948 7.292-2.623 12.007 1.087 15.789s3.7 3.685 1.119 6.118c-1.54 1.455-1.881 3.48-1.434 8.517.323 3.634.03 7.77-.651 9.19-3.17 6.614 4.477 12.225 19.163 14.06 7.126.89 19.364 6.512 20.554 9.441.49 1.206-1.161 2.015-6.075 2.979a37.807 37.807 0 00-11.8 4.778 33.2 33.2 0 01-8.485 4.269 38.033 38.033 0 00-6.66 2.4c-5.727 2.823-10.879 2.05-14.009-2.1z" fill="#6667ab" opacity=".44"/><text transform="translate(88 135)" font-size="20" font-family="NotoSansCJKtc-Black, Noto Sans CJK TC" font-weight="800"><tspan x="0" y="0">北投區</tspan></text><path d="M126.031 137.515l-.383-.088a16.987 16.987 0 01-4.878-1.908 20.151 20.151 0 01-5.055 1.848l-.435.1-.151-.421a12.069 12.069 0 00-.991-2.014 2.222 2.222 0 01-1.132 1.624 6.924 6.924 0 01-3.486.585h-.449l-.048-.446a9.338 9.338 0 00-.735-2.46l-.348-.735.814.023c.608.017 1.305.02 1.646.02v-2.828l-1.6.385-.977-3.771.75-.146a97.783 97.783 0 001.828-.368v-2.155H108.2v-3.68h2.2v-3.68h3.84v3.68h1.9v1.5a2.955 2.955 0 00.52-1.939V118h8.52v4.74c0 .079 0 .224.006.34h.634a4.113 4.113 0 001.022-.134l.621-.207.036.654c.03.536.092 1.65.2 2.333l.056.369-.337.159a3.244 3.244 0 01-1.263.224l.947.387-.114.426a13.5 13.5 0 01-2.809 5.5 18.694 18.694 0 003.493.954l.927.164-.655.676a12.592 12.592 0 00-1.732 2.576zm-5.241-3.157l.253.157a15.448 15.448 0 004.457 1.848 15.723 15.723 0 011.156-1.8 18.214 18.214 0 01-3.538-1.131l-.66-.294.507-.515a12.017 12.017 0 002.935-5.169l-1.31-.534-.4.08h-7.924l-.084.038-.023-.038h-.1v1.7h.92l.166.972-.519.183a14.29 14.29 0 002.11 2.8l.494.5-.639.3a15.78 15.78 0 01-3.55 1.137 13.82 13.82 0 01.865 1.7 18.221 18.221 0 004.625-1.786zm-11.3.277a11.118 11.118 0 01.456 1.6 5.447 5.447 0 002.562-.45h.009c.468-.259.722-.654.722-2v-4.715l1.544-.386-.227-1.676-1.318.3v-3.548h1.28l.086.364.188-.233c.1.081.218.186.346.307v-2.118h-1.9v-3.68H111.4v3.68h-2.2v1.68h2.2v3.961l-.392.087c-.7.155-1.355.285-1.951.4l.464 1.792 1.879-.455v4.215a.8.8 0 01-.23.65.8.8 0 01-.65.23h-1.029zm4.75-4.785v3.875a16.349 16.349 0 003.293-.9 16 16 0 01-2.073-3.008l-.06-.117h-.34v-.055zm0-5.09v1.3l1.06-.239a12.49 12.49 0 00-1.025-1.056zm3.792 1.24h4.561a2.119 2.119 0 01-.544-.5 4.435 4.435 0 01-.63-2.8v-1.02h-1.1a6.521 6.521 0 01-.81 2.645 5.7 5.7 0 01-1.477 1.675zm-2.646-1.56a14.2 14.2 0 011.161 1.324 5.022 5.022 0 002.814-4.609l.024-.475h3.035v2.02c0 2.234.447 2.78 2.28 2.78h1.16a5.624 5.624 0 00.789-.043 31.39 31.39 0 01-.115-1.41 5.58 5.58 0 01-.715.053h-.84a.738.738 0 01-.735-.563 2.93 2.93 0 01-.065-.777V119h-6.519v1.64a3.659 3.659 0 01-1.748 3.46zm-26.095 12.777l-1.719-3.968.556-.149c1.218-.332 2.916-.881 4.713-1.463l.059-.021v-5.756h-4.38v-3.9h4.38v-4.26h4.04v12.546l.78-.26.44 2.214v-14.48h4.04v4.2h5.04v3.9h-5.04v6.44a5.8 5.8 0 00.036.8h1.571a2.086 2.086 0 00.219-.9c.083-.676.13-1.688.175-3l.034-1 .778.622a8.08 8.08 0 002.58 1.243l.407.1-.024.421c-.232 4.122-.917 6.354-3.856 6.354h-2.24a3.381 3.381 0 01-2.936-1.082 4.139 4.139 0 01-.72-2.168l-.17.071a289.015 289.015 0 01-8.316 3.326zm-.345-3.311l.883 2.036c2.3-.879 5.023-1.97 7.461-2.986l-.33-1.662-1.02.34V118.7H93.9v4.26h-4.38v1.9h4.38v7.484l-.751.243c-1.549.502-3.03.98-4.203 1.319zM99.16 118.72v13.52a5.054 5.054 0 00.576 2.967c.374.486 1.015.693 2.144.693h2.24a2.051 2.051 0 002.064-1.1 10.142 10.142 0 00.772-3.908 10.066 10.066 0 01-1.79-.8 20.327 20.327 0 01-.223 2.681c-.068.353-.249 1.29-1.143 1.29h-1.44c-1.16 0-1.16-.794-1.16-1.8v-7.44h5.04v-1.9h-5.04v-4.2zm43.68 18.08h-7.38c-2.187 0-3.591-.376-4.552-1.219-1.043-.915-1.528-2.364-1.528-4.561v-9.5h-.78v-3.54h18.2v3.54h-2.96v5.3h2.08v6.163c.349-.039.658-.084.9-.133l.533-.107.062.54c.065.571.232 1.972.373 2.656l.1.46-.453.123a22.939 22.939 0 01-4.59.278zm-13.24-16.28h.78v10.5c0 1.888.377 3.1 1.187 3.809.766.671 1.966.971 3.893.971h7.38a32.849 32.849 0 003.881-.154 45.152 45.152 0 01-.236-1.727 27.12 27.12 0 01-3.485.221h-7.78a3.108 3.108 0 01-2.358-.7l-.055-.059h-.067v-.081a3.317 3.317 0 01-.52-2.08v-10.7h13.58v-1.54h-16.2zm10.48 11.86h4.84v-4.56h-4.84zm-6.34 0h4.7v-4.56h-4.7zm-.52-5.56h1.5v-5.3h-1.5zm2.5-.6h7.12v-3.98h-7.12zm-14.9 5.888l-.32-.255a9.739 9.739 0 01-2.2-2.383l-.5-.77h5.745l-.437.751a9.4 9.4 0 01-1.985 2.387zm-1.12-2.408a8.928 8.928 0 001.081 1.1 8.44 8.44 0 00.971-1.1zm23.72 1.78h-1.98v-2.76h1.98zm-6.44 0h-1.92v-2.76h1.92zm3.98-6.12h-3.54v-2.28h3.54zm-2.54-1h1.54v-.28h-1.54z" fill="#fff"/><text transform="translate(185 187)" font-size="20" font-family="NotoSansCJKtc-Black, Noto Sans CJK TC" font-weight="800"><tspan x="0" y="0">士林區</tspan></text><path d="M208.34 169.38h3.84v4.08h5.12v-4.08h3.92v4.08h3.4v3.74h-2.641a20.374 20.374 0 003.146 5.881l.338.408-.427.314a10 10 0 00-2.036 2.112l-.415.631-.419-.628a15.311 15.311 0 01-.944-1.652v5.114H217.3v-5.78a15.041 15.041 0 01-2.246 2.974l-.546.546-.275-.72a12.84 12.84 0 00-1.533-2.565l-.257-.355.119-.112-.192-.388a10.324 10.324 0 00-.19-.374v6.774h-3.84v-5.241A11.673 11.673 0 01207.1 186l-.579.7-.28-.861a16.738 16.738 0 00-1.375-2.761l-.186-.315.244-.272a15.88 15.88 0 002.836-5.291h-2.38v-3.74h2.96zm2.84 1h-1.84v4.08h-2.96v1.74h2.728l-.188.641a17.756 17.756 0 01-3.009 6.035c.317.55.667 1.2.941 1.793a16.269 16.269 0 001.524-2.956l.963.188v6.479h1.84v-9.417l.927 1.516c.314.513.569.948.777 1.324l1.084-1.535c-.688-.8-2.126-2.452-2.63-2.923l-.157-.145v-1h2.5v-1.74h-2.5zm9.04 0h-1.92v4.08h-3.14v1.74h2.913l-.243.67a19.072 19.072 0 01-4.075 6.73 16.663 16.663 0 011.087 1.737 17.829 17.829 0 002.508-3.955l.95.218v6.78h1.92v-6.5l.966-.181a21.867 21.867 0 001.433 3.057 12.247 12.247 0 011.42-1.436 22.873 22.873 0 01-3.239-6.465l-.213-.655h3.033v-1.74h-3.4zm-5.54 6.82h-2.089a97.439 97.439 0 012.392 2.718l.181.215a19.938 19.938 0 001.47-2.933zm-21.78-7.78h4.14v5.78h7.7v3.88h-7.7v5.62h6.64v3.9h-17.22v-3.9h6.44v-5.62h-7.54v-3.88h7.54zm3.14 1h-2.14v5.78h-7.54v1.88h7.54v7.62h-6.44v1.9h15.22v-1.9h-6.64v-7.62h7.7v-1.88h-7.7zm29.56-.44h18.2v3.54h-2.96v5.3h2.08v6.163c.349-.039.658-.084.9-.133l.533-.107.062.54c.065.571.232 1.972.373 2.656l.1.46-.453.123a22.939 22.939 0 01-4.59.278h-7.385c-2.187 0-3.591-.376-4.552-1.219-1.043-.915-1.528-2.364-1.528-4.561v-9.5h-.78zm17.2 1h-16.2v1.54h.78v10.5c0 1.888.377 3.1 1.187 3.809.766.671 1.966.971 3.893.971h7.38a32.849 32.849 0 003.881-.154 45.152 45.152 0 01-.236-1.727 27.12 27.12 0 01-3.485.221h-7.78a3.108 3.108 0 01-2.358-.7l-.055-.059h-.067v-.081a3.317 3.317 0 01-.52-2.08v-10.7h13.58zm-11.08 2.54h-1.5v5.3h1.5zm8.12.72h-7.12v3.98h7.12zm-4.4 5.58h-4.7v4.56h4.7zm6.48 0h-4.84v4.56h4.84zm-7.5-4.74h3.54v2.28h-3.54zm2.54 1h-1.54v.28h1.54zm-4.9 4.64h1.92v2.76h-1.92zm6.38 0h1.98v2.76h-1.98z" fill="#fff"/><text transform="translate(245 283)" font-size="20" font-family="NotoSansCJKtc-Black, Noto Sans CJK TC" font-weight="800"><tspan x="0" y="0">內湖區</tspan></text><path d="M267.612 265.538l.35.136a12.917 12.917 0 013.35 1.872l.344.3-.956 1.294h1.3v-3.04h3.64v3.04h1.52v-3.12h7.4v16a2.737 2.737 0 01-1.115 2.6 4.894 4.894 0 01-2.654.559h-.32l-.423-.007-.063-.418a7.878 7.878 0 00-.585-1.816 9.172 9.172 0 01-1.379 2.378l-.342.416-.39-.373a10.222 10.222 0 00-2.026-1.348l-.582-.27.407-.5a6.829 6.829 0 00.44-.6h-1.908v1.239h-3.46v-2.636a71.486 71.486 0 01-1.335 3.64l-.209.529-3.547-1.962.2-.423a61.42 61.42 0 002.5-6.422l.2-.616 2.191 1.41v-2.9H272v-1.74h-1.428l.3.261-2.272 3.118-.413-.4a12.077 12.077 0 00-2.915-1.8l-.572-.257 2.165-2.882.351.133a15.859 15.859 0 012.443 1.18v-1.578l-.3.4-.409-.4a12.824 12.824 0 00-2.962-1.885l-.567-.262zm2.677 2.473a13.32 13.32 0 00-2.344-1.265l-.978 1.275a15.225 15.225 0 012.253 1.429zm13.271-.991h-5.4v7.52a21.6 21.6 0 01-.76 6.473l-.98-.153v-5.36h-1.78v-3.74h2.06v-1.62h-2.06v-3.04H273v3.04h-2.34v1.62H273v3.74h-1.84V282.88h1.46v-1.24h4.6l-.38.731a9.343 9.343 0 01-.609 1.023 13.142 13.142 0 011.329.886 9.429 9.429 0 001.2-2.492l-.029-.049h.044a18.23 18.23 0 00.743-3.733l.963-.13.122.315.017-.02c.158-.181.321-.368.482-.547l.873-.975v5.331a.78.78 0 01-.2.6.78.78 0 01-.58.256h-.042c-.139 0-.4 0-.711-.007a9.549 9.549 0 01.441 1.349 3.73 3.73 0 002.021-.4h.006c.407-.251.643-.619.643-1.755zm-14.052 6.18a13.43 13.43 0 00-2.3-1.2l-.965 1.286a14.5 14.5 0 012.207 1.358zm7.652-.441h-1.52v1.741h1.52zm-7.166 5.719l-1.482-.95a64.005 64.005 0 01-2.144 5.5l1.732.958c.7-1.81 1.351-3.697 1.894-5.508zm10.986 3.362v-2.554l-.168.189-.543.6-.025-.065a17.041 17.041 0 01-.438 1.8c.433.023.894.029 1.174.03zm4.62-15.86h18.2v3.54h-2.96v5.3h2.08v6.163c.349-.039.658-.084.9-.133l.533-.107.062.54c.065.571.232 1.972.373 2.656l.1.46-.453.123a22.939 22.939 0 01-4.59.278h-7.385c-2.187 0-3.591-.376-4.552-1.219-1.043-.915-1.528-2.364-1.528-4.561v-9.5h-.78zm17.2 1h-16.2v1.54h.78v10.5c0 1.888.377 3.1 1.187 3.809.766.671 1.966.971 3.893.971h7.38a32.849 32.849 0 003.881-.154 45.152 45.152 0 01-.236-1.727 27.12 27.12 0 01-3.485.221h-7.78a3.108 3.108 0 01-2.358-.7l-.055-.059h-.067v-.081a3.317 3.317 0 01-.52-2.08v-10.7h13.58zm-11.08 2.54h-1.5v5.3h1.5zm8.12.72h-7.12v3.98h7.12zm-4.4 5.58h-4.7v4.56h4.7zm6.48 0h-4.84v4.56h4.84zm-51.96-9.64h6.785l.015.484a27.407 27.407 0 00.266 3.2h6.794v11.776c0 1.489-.259 2.6-1.524 3.211a10.16 10.16 0 01-4.256.549h-.44l-.052-.441a10.043 10.043 0 00-.908-2.771l-.4-.78.875.052c.654.039 1.572.059 2.73.059v-1.7a9.698 9.698 0 00-.474.687l-.269.437-.43-.28a10.363 10.363 0 01-3.614-4.073 9.263 9.263 0 01-4 4.254l-.436.235-.239-.434a6.06 6.06 0 00-.1-.175v4.95h-3.963v-15.56h6.931l-.016-.16h-3.275zm5.818 1h-4.818v1.52h3.214l.025.474a10.92 10.92 0 00.115 1.108l.091.578h-7.085v13.56h1.96V272.7h4.314l-.219.658a8.483 8.483 0 01-3.321 4.6l-.287.188.4.472a12.409 12.409 0 01.833 1.106 8.756 8.756 0 003.573-4.543l.452-1.181.475 1.17a9.831 9.831 0 003.3 4.37c.356-.506.8-1.06 1.157-1.467l.232-.267-.135-.092a8.673 8.673 0 01-3.2-4.343l-.245-.671h4.231v8.9a.874.874 0 01-.28.7.874.874 0 01-.72.221c-.758 0-1.418-.008-1.971-.025a11.674 11.674 0 01.594 1.9 8.436 8.436 0 003.4-.45c.62-.3.956-.753.956-2.309V270.86h-6.64l-.072-.415a25.876 25.876 0 01-.329-3.265zm-3.595 6.52h-1.903v2.823a7.643 7.643 0 001.903-2.823zm7.657 0h-1.78a7.643 7.643 0 001.78 2.565zm19.84-5.12h2.3v6.994l-.18.15c-.444.37-.9.732-1.36 1.076l-.832.624.032-1.04c.02-.625.04-1.272.04-1.844zm1.3 1h-.3v.893l.234.234.066.066zm.756 3.486l-.631-.715c-.2-.222-.4-.436-.606-.643l-.62.424.693.878c.173.219.332.429.471.62zm-.914 2.034l-.144-.224c0 .157 0 .317-.008.479q.156-.125.31-.252v-.132zm13.6-4.021h3.54v2.28h-3.542zm2.54 1h-1.542v.28h1.54zm-4.9 4.64h1.92v2.76h-1.922zm6.38 0h1.98v2.76h-1.982zm-25.82.26h2.3v3.18h-2.3zm1.3 1h-.3v1.18h.3z" fill="#fff"/><text transform="translate(128 293)" font-size="20" font-family="NotoSansCJKtc-Black, Noto Sans CJK TC" font-weight="800"><tspan x="0" y="0">中山區</tspan></text><path d="M166.92 295.4h-4.04V294H149.2v-14.18h4V290h2.74v-14.48h4.08V290h2.86v-10.28h4.04zm-3.04-1h2.04v-13.68h-2.04V291h-4.86v-14.48h-2.08V291h-4.74v-10.18h-2V293h13.68zm-23.88 1h-4.08v-6.12h-2.84v1.04h-3.92v-11.5h6.76v-3.42H140v3.42h6.92v11.4h-4.06v-.94H140zm-3.08-1H139v-6.12h4.86v.94h2.06v-9.4H139v-3.42h-2.08v3.42h-6.76v9.5h1.92v-1.04h4.84zm45.92.4h-7.38c-2.187 0-3.591-.376-4.552-1.219-1.043-.915-1.528-2.364-1.528-4.561v-9.5h-.78v-3.54h18.2v3.54h-2.96v5.3h2.08v6.163c.349-.039.658-.084.9-.133l.533-.107.062.54c.065.571.232 1.972.373 2.656l.1.46-.453.123a22.939 22.939 0 01-4.59.278zm-13.24-16.28h.78v10.5c0 1.888.377 3.1 1.187 3.809.766.671 1.966.971 3.893.971h7.38a32.849 32.849 0 003.881-.154 45.152 45.152 0 01-.236-1.727 27.12 27.12 0 01-3.485.221h-7.78a3.108 3.108 0 01-2.358-.7l-.055-.059h-.067v-.081a3.317 3.317 0 01-.52-2.08v-10.7h13.58v-1.54h-16.2zm10.48 11.86h4.84v-4.56h-4.84zm-6.34 0h4.7v-4.56h-4.7zm-.52-5.56h1.5v-5.3h-1.5zm2.5-.6h7.12v-3.98h-7.12zm7.7 5.26h-1.98v-2.76h1.98zm-6.44 0h-1.92v-2.76h1.92zm-33.12-3.06H139v-4.74h4.86zm-3.86-1h2.86v-2.74H140zm-3.08 1h-4.84v-4.74h4.84zm-3.84-1h2.84v-2.74h-2.84zm47.88-2.06h-3.54v-2.28h3.54zm-2.54-1h1.54v-.28h-1.54z" fill="#fff"/><text transform="translate(71 337)" font-size="20" font-family="NotoSansCJKtc-Black, Noto Sans CJK TC" font-weight="800"><tspan x="0" y="0">大同區</tspan></text><path d="M78.806 319.4h4.2l-.006.549c-.018 1.5-.037 3.055-.156 4.631h7.636v4.02h-6.574a11.831 11.831 0 006.754 6.994l.765.3-.613.545a12.125 12.125 0 00-2.053 2.621l-.224.409-.424-.195a14.307 14.307 0 01-7.023-7.03 14.36 14.36 0 01-7 7.024l-.421.21-.24-.408a8.562 8.562 0 00-2.066-2.329l-.681-.507.774-.35a11.057 11.057 0 006.574-7.284H71.56v-4.02h7.14c.079-1.232.088-2.465.1-3.662q0-.517.009-1.024zm3.188 1H79.8v.525c-.01 1.364-.02 2.773-.133 4.195l-.037.46h-7.07v2.02h6.758l-.152.619a12.285 12.285 0 01-2.26 4.79 12.65 12.65 0 01-4.33 3.446 10.114 10.114 0 011.464 1.711 13.25 13.25 0 006.551-7.34l.431-1.166.5 1.14a13.844 13.844 0 006.6 7.37 14.284 14.284 0 011.478-1.938 12.027 12.027 0 01-4.038-3 15.183 15.183 0 01-2.854-4.967l-.24-.669h7.012v-2.02h-7.728l.05-.545c.142-1.561.173-3.118.192-4.631zm29.606-.42h18.2v3.54h-2.96v5.3h2.08v6.163c.349-.039.658-.084.9-.133l.533-.107.062.54c.065.571.232 1.972.373 2.656l.1.46-.453.123a22.939 22.939 0 01-4.59.278h-7.385c-2.187 0-3.591-.376-4.552-1.219-1.043-.915-1.528-2.364-1.528-4.561v-9.5h-.78zm17.2 1h-16.2v1.54h.78v10.5c0 1.888.377 3.1 1.187 3.809.766.671 1.966.971 3.893.971h7.38a32.849 32.849 0 003.881-.154 45.152 45.152 0 01-.236-1.727 27.12 27.12 0 01-3.485.221h-7.78a3.108 3.108 0 01-2.358-.7l-.055-.059h-.067v-.081a3.317 3.317 0 01-.52-2.08v-10.7h13.58zm-11.08 2.54h-1.5v5.3h1.5zm8.12.72h-7.12v3.98h7.12zm-4.4 5.58h-4.7v4.56h4.7zm6.48 0h-4.84v4.56h4.84zm-36.06-9.52h18.32v15.38c0 1.235-.167 2.468-1.38 3.119a7.986 7.986 0 01-3.92.621h-.441l-.055-.438a9.173 9.173 0 00-.9-2.7l-.367-.647h-3.057v1.265H96.4v-9.2h9.24v7.9h.68v-8.1H95.68v11.9h-3.82zm17.32 1H92.86v17.1h1.82v-15.36h12.64v12.6a.887.887 0 01-.248.691.887.887 0 01-.683.268h-.029c-.61 0-1.156-.008-1.633-.023a11.132 11.132 0 01.574 1.84 6.52 6.52 0 003.015-.493h.008c.542-.29.856-.749.856-2.239zm-2.86 2.74H95.68v.04h10.64zm-.9 1.04H96.5v1.42h8.92zm-.78 3.62H97.4v7.2h1.66v-1.26h5.58zm15.78-3.62h3.54v2.28h-3.54zm2.54 1h-1.54v.28h1.54zm-23.9 3.98h3.9v3.2h-3.9zm2.9 1h-1.9v1.2h1.9zm16.1-.34h1.92v2.76h-1.92zm6.38 0h1.98v2.76h-1.98z" fill="#fff"/><text transform="translate(170 344)" font-size="20" font-family="NotoSansCJKtc-Black, Noto Sans CJK TC" font-weight="800"><tspan x="0" y="0">松山區</tspan></text><path d="M172.62 326.4h3.62v3.78h2.24v.65a30.132 30.132 0 00.706-3.386l.08-.52 3.015.621v-.625h4.6l.073.413a16.489 16.489 0 003.006 7.38l.332.384-.389.326a13.745 13.745 0 00-2.025 2.254l-.4.606-.078-.117.124.283c.9 2.052 1.916 4.379 2.422 5.914l.138.418-3.622 1.725-.162-.569a31.88 31.88 0 00-.5-1.567c-5.545.746-6.582.929-7.238 1.257l-.562.279-.151-.6a24.913 24.913 0 00-.9-2.627l-.217-.515.546-.164c.337-.1.617-.424 1.151-1.334l.005-.008a33.465 33.465 0 002.037-4.6 13.958 13.958 0 01-.935 1.66l-.42.629-.367-.56-2.256 2.663-.253-.667v6.617h-3.62v-4.5a11.262 11.262 0 01-.6 1.053l-.582.893-.316-1.018a17.453 17.453 0 00-1.3-2.879l-.17-.3.212-.266a16.3 16.3 0 002.457-5.523h-2.141v-3.68h2.44zm2.62 1h-1.62v3.78h-2.44v1.68h2.409l-.142.613a18.939 18.939 0 01-2.591 6.269c.274.507.585 1.155.841 1.767a17.437 17.437 0 00.95-2.272l.973.163v6h1.62v-8.02l.952-.214q.362.763.619 1.362l.889-1.044c-.553-.819-1.817-2.62-2.339-3.242l-.121-.142v-1.24h2.24v-1.68h-2.24zm10.8.52h-2.76v1.4h1.392l.094.38a23.98 23.98 0 002.717 6.83 16.34 16.34 0 011.411-1.545 17.749 17.749 0 01-2.849-7.065zm-4.229.55l-1.725-.355a24.2 24.2 0 01-1.606 5.739v.006a11.317 11.317 0 01-.623 1.2c.388.418.862.993 1.235 1.485a27.826 27.826 0 002.724-8.07zm2.075 1.85h-1.452a36.444 36.444 0 01-.707 2.534l3.223.773a30.52 30.52 0 01-1.059-3.307zm-6.518 3.54h-1.035c.171.219.376.493.594.792q.228-.363.441-.792zm6.758.6l-1.917-.46a39.1 39.1 0 01-2.92 7.179 4.6 4.6 0 01-1.233 1.546c.215.562.45 1.253.612 1.783a59.287 59.287 0 017.405-1.184l.4-.054.135.384c.181.515.344 1 .48 1.443l1.754-.836c-.526-1.482-1.435-3.561-2.242-5.41l-.218-.5-1.57.659.142.348c.239.586.486 1.191.718 1.8l.228.6-5.441.6.468-.845a48.636 48.636 0 003.2-7.056zm2.558 2.682a19.129 19.129 0 01-1.452-2.816 46.664 46.664 0 01-1.644 4.114zm-2.184 3.772c-.157-.4-.318-.792-.475-1.178-.114-.278-.224-.55-.328-.81l-.154-.386c-.4.886-.836 1.765-1.288 2.619zm13.44-14.394h4.08V341h2.86v-10.28h4.04v15.68h-4.04V345H191.2v-14.18h4V341h2.74zm3.08 1h-2.08V342h-4.74v-10.18h-2V344h13.68v1.4h2.04v-13.68h-2.04V342h-4.86zm9.58-.54h18.2v3.54h-2.96v5.3h2.08v6.163c.349-.039.658-.084.9-.133l.533-.107.062.54c.065.571.232 1.972.373 2.656l.1.46-.453.123a22.939 22.939 0 01-4.59.278h-7.385c-2.187 0-3.591-.376-4.552-1.219-1.043-.915-1.528-2.364-1.528-4.561v-9.5h-.78zm17.2 1h-16.2v1.54h.78v10.5c0 1.888.377 3.1 1.187 3.809.766.671 1.966.971 3.893.971h7.38a32.849 32.849 0 003.881-.154 45.152 45.152 0 01-.236-1.727 27.12 27.12 0 01-3.485.221h-7.78a3.108 3.108 0 01-2.358-.7l-.055-.059h-.067v-.081a3.317 3.317 0 01-.52-2.08v-10.7h13.58zm-11.08 2.54h-1.5v5.3h1.5zm8.12.72h-7.12v3.98h7.12zm-4.4 5.58h-4.7v4.56h4.7zm6.48 0h-4.84v4.56h4.84zm-7.5-4.74h3.54v2.28h-3.54zm2.54 1h-1.54v.28h1.54zm-4.9 4.64h1.92v2.76h-1.92zm6.38 0h1.98v2.76h-1.98z" fill="#fff"/><text transform="translate(37 428)" font-size="20" font-family="NotoSansCJKtc-Black, Noto Sans CJK TC" font-weight="800"><tspan x="0" y="0">萬華區</tspan></text><path d="M41.46 410.4h3.84v.9h3.28v-.9h3.84v.9h4.12v3.36h-2.12v7.12h1.44v5.64c0 1.187-.183 2.025-1.093 2.535a5.255 5.255 0 01-2.687.465h-.424l-.069-.42a8.805 8.805 0 00-.281-1.106l-1.8.428-.045-.584a7.003 7.003 0 00-.043-.405 468.76 468.76 0 01-4.767.324c-.769.05-1.5.1-2.157.142l-.334.023v1.518h-3.78v-5.26h-.72v-3.3h.72v-.46h1.26v-6.66h-2.2v-3.36h4.02zm2.84 1h-1.84v.9h-4.02v1.36h4.02v.62h1.84v-.62h1.88v-1.36H44.3zm7.12 0h-1.84v.9H47.8v1.36h1.78v.62h1.84v-.62h4.12v-1.36h-4.12zm2 4.18H40.64v5.6h5.42v1.6h-4.9v-.46h-1.78v.46h-.72v1.3h.72v5.26h1.78v-5.26h4.9v2.136l-.476.023c-.831.04-1.626.072-2.327.1l-.472.019.128 1.41 1.673-.109a414.93 414.93 0 005.214-.359l.447-.034.083.441c.023.122.044.249.062.375l1.288-.305-.012-.071a13.932 13.932 0 00-.925-2.925l-.306-.7h2.6v3.3a.687.687 0 01-.2.541.687.687 0 01-.541.2H52.1l.007.022c.166.5.29.92.373 1.276a3.673 3.673 0 001.783-.331h.006c.4-.221.584-.526.584-1.664v-4.645H47.82v-1.6h5.6zm-8.36 9.5h-2.9v.3h.059l1-.041c.564-.022 1.188-.047 1.842-.077zm16.48-14.68h3.84v.98h3.12v-.98h3.84v.98h4.2v3.52h-4.2v.3h3.82v3.36h-.14v3.08h-2.18v.02h2.9v3.48H75.3v3h-6.44v2.24h-3.88v-2.24h-6.36v-3h-1.26v-3.48h.46v-3.32h.04v-3.14h3.68v-.3h-4.1v-3.52h4.1zm2.84 1h-1.84v.98h-4.1v1.52h4.1v.92h1.84v-.92h1.8v-1.52h-1.8zm6.96 0H69.5v.98h-1.7v1.52h1.7v.92h1.84v-.92h4.2v-1.52h-4.2zm-4.16 3.5h-1.8v.3h3.12v-.3zm7.98 1.3h-16.3v1.36h7.12v5.1h-7.62v1.48h7.62v1.64h-6.36v1.36h6.36v2.24h1.88v-2.24h6.44v-1.36h-6.44v-1.64h7.88v-1.48h-7.88v-5.1h7.3zm-12.36 2.6h-1.68v.54h-2.3v1.42h2.3v.64h1.68v-.64h1.52v-1.42H62.8zm10.04 0h-1.68v.42h-1.64v1.42h1.64v.76h1.68v-.76h2.18v-1.42h-2.18zm-2.68 2.84h-1.3v.02h1.3zm7.44-10.66h18.2v3.54h-2.96v5.3h2.08v6.163c.349-.039.658-.084.9-.133l.533-.107.062.54c.065.571.232 1.972.373 2.656l.1.46-.453.123a22.939 22.939 0 01-4.59.278H84.46c-2.187 0-3.591-.376-4.552-1.219-1.043-.915-1.528-2.364-1.528-4.561v-9.5h-.78zm17.2 1H78.6v1.54h.78v10.5c0 1.888.377 3.1 1.187 3.809.766.671 1.966.971 3.893.971h7.38a32.848 32.848 0 003.881-.154 45.152 45.152 0 01-.236-1.727 27.12 27.12 0 01-3.485.221h-7.78a3.108 3.108 0 01-2.358-.7l-.055-.059h-.067v-.081a3.317 3.317 0 01-.52-2.08v-10.7H94.8zm-11.08 2.54h-1.5v5.3h1.5zm8.12.72h-7.12v3.98h7.12zm-4.4 5.58h-4.7v4.56h4.7zm6.48 0h-4.84v4.56h4.84zm-7.5-4.74h3.54v2.28h-3.54zm2.54 1h-1.54v.28h1.54zm-46.54-.66h3.64v1.6h-3.64zm5.4 0h3.68v1.6h-3.68zm-5.4 2.32h3.64v1.6h-3.64zm5.4 0h3.68v1.6h-3.68zm36.24 2.98h1.92v2.76h-1.92zm6.38 0h1.98v2.76h-1.98zm-42.62 2.36h2.3l.111.987-.569.13q.038.1.072.2l.2.616-2.12.135z" fill="#fff"/><text transform="translate(90 390)" font-size="20" font-family="NotoSansCJKtc-Black, Noto Sans CJK TC" font-weight="800"><tspan x="0" y="0">中正區</tspan></text><path d="M102 392.4h-4.08v-6.12h-2.84v1.04h-3.92v-11.5h6.76v-3.42H102v3.42h6.92v11.4h-4.06v-.94H102zm-3.08-1H101v-6.12h4.86v.94h2.06v-9.4H101v-3.42h-2.08v3.42h-6.76v9.5h1.92v-1.04h4.84zm45.92.4h-7.38c-2.187 0-3.591-.376-4.552-1.219-1.043-.915-1.528-2.364-1.528-4.561v-9.5h-.78v-3.54h18.2v3.54h-2.96v5.3h2.08v6.163c.349-.039.658-.084.9-.133l.533-.107.062.54c.065.571.232 1.972.373 2.656l.1.46-.453.123a22.939 22.939 0 01-4.59.278zm-13.24-16.28h.78v10.5c0 1.888.377 3.1 1.187 3.809.766.671 1.966.971 3.893.971h7.38a32.849 32.849 0 003.881-.154 45.152 45.152 0 01-.236-1.727 27.12 27.12 0 01-3.485.221h-7.78a3.108 3.108 0 01-2.358-.7l-.055-.059h-.067v-.081a3.317 3.317 0 01-.52-2.08v-10.7h13.58v-1.54h-16.2zm10.48 11.86h4.84v-4.56h-4.84zm-6.34 0h4.7v-4.56h-4.7zm-.52-5.56h1.5v-5.3h-1.5zm2.5-.6h7.12v-3.98h-7.12zm-7.96 10.5H110.3v-3.84h2.32v-8.66h4.04v8.66h1.96v-10.44h-7.68v-3.84h18.3v3.84h-6.52v2.88h5.36v3.84h-5.36v3.72h7.04zm-18.46-1h17.46v-1.84h-7.04v-5.72h5.36v-1.84h-5.36v-4.88h6.52v-1.84h-16.3v1.84h7.68v12.44h-3.96v-8.66h-2.04v8.66h-2.32zm34.12-4.24h-1.98v-2.76h1.98zm-6.44 0h-1.92v-2.76h1.92zm-33.12-3.06H101v-4.74h4.86zm-3.86-1h2.86v-2.74H102zm-3.08 1h-4.84v-4.74h4.84zm-3.84-1h2.84v-2.74h-2.84zm47.88-2.06h-3.54v-2.28h3.54zm-2.54-1h1.54v-.28h-1.54z" fill="#fff"/><text transform="translate(140 423)" font-size="20" font-family="NotoSansCJKtc-Black, Noto Sans CJK TC" font-weight="800"><tspan x="0" y="0">大安區</tspan></text><path d="M171.387 405.064l.168.368c.246.538.55 1.27.849 2.048h6.8v5.72h-2.458l-.02.12h2.754v3.74h-3.7a12.839 12.839 0 01-1.209 2.58 41.244 41.244 0 014.69 2.313l.5.3-2.781 3.347-.374-.245a40.233 40.233 0 00-4.993-2.641c-2.032 1.386-4.756 2.238-8.771 2.742l-.407.051-.13-.389a12.227 12.227 0 00-1.674-2.8l-.287-.354-.532.473a12.125 12.125 0 00-2.053 2.623l-.224.409-.424-.195a14.307 14.307 0 01-7.023-7.03 14.36 14.36 0 01-7 7.024l-.421.21-.24-.408a8.562 8.562 0 00-2.066-2.329l-.681-.507.774-.35a11.057 11.057 0 006.574-7.284h-6.468v-4.02h7.14c.079-1.232.088-2.465.1-3.662q0-.517.009-1.024l.001-.494h4.2l-.01.549c-.018 1.5-.037 3.055-.156 4.631h7.636v4.02h-6.574a11.831 11.831 0 006.754 6.994l.563.217-.2-.244.961-.065a25.093 25.093 0 005.616-.892 75.673 75.673 0 00-3.515-1.234l-.646-.209.391-.555c.314-.444.652-.964 1.01-1.552h-3.28v-3.74h5.283c.34-.733.641-1.469.882-2.16h-1.885v2.04h-3.96v-5.72h6.743c-.121-.351-.232-.66-.331-.924l-.2-.539zm6.813 3.416h-6.485l-.122-.323a43.849 43.849 0 00-.783-1.94l-2.385.528c.113.319.237.679.369 1.077l.219.658h-7.133v3.72h1.96v-2.04h12.24v2.04h2.12zm-27.206-2.08H148.8v.525c-.01 1.364-.02 2.773-.133 4.195l-.037.46h-7.07v2.02h6.758l-.152.619a12.285 12.285 0 01-2.26 4.79 12.65 12.65 0 01-4.33 3.446 10.114 10.114 0 011.464 1.711 13.25 13.25 0 006.551-7.34l.431-1.166.5 1.14a13.844 13.844 0 006.6 7.37 14.284 14.284 0 011.478-1.938 12.027 12.027 0 01-4.038-3 15.183 15.183 0 01-2.854-4.967l-.24-.669h7.012v-2.02h-7.728l.05-.545c.142-1.561.173-3.118.192-4.631zm24.086 4.76h-3.854l.18.033-.194.553a23.735 23.735 0 01-.621 1.574h1.553q.073-.6.118-1.253l.033-.494 2.786.158zm-5.015.806l-2.41-.437a25.232 25.232 0 01-1.044 2.507l-.136.284h-4.915v1.74h4.029l-.437.751a40.91 40.91 0 01-1.124 1.821c1.446.482 2.842.994 4.159 1.523l1.091.439-1.078.482a19.587 19.587 0 01-6.243 1.353 13.792 13.792 0 011.143 1.985c3.787-.508 6.316-1.339 8.167-2.679l.235-.17.264.12a45.4 45.4 0 015.01 2.6l1.463-1.77a50.54 50.54 0 00-4.616-2.2l-.571-.246.362-.5a11.522 11.522 0 001.531-3.169l.113-.344h3.422v-1.736h-2.98l.135-.608c.066-.3.12-.62.17-.938l-2.581-.146a20.1 20.1 0 01-.147 1.266l-.063.427h-3.974l.326-.709c.272-.594.5-1.138.7-1.646zm10.535-5.986h18.2v3.54h-2.96v5.3h2.08v6.163c.349-.039.658-.084.9-.133l.533-.107.062.54c.065.571.232 1.972.373 2.656l.1.46-.453.123a22.939 22.939 0 01-4.59.278h-7.385c-2.187 0-3.591-.376-4.552-1.219-1.043-.915-1.528-2.364-1.528-4.561v-9.5h-.78zm17.2 1h-16.2v1.54h.78v10.5c0 1.888.377 3.1 1.187 3.809.766.671 1.966.971 3.893.971h7.38a32.849 32.849 0 003.881-.154 45.152 45.152 0 01-.236-1.727 27.12 27.12 0 01-3.485.221h-7.78a3.108 3.108 0 01-2.358-.7l-.055-.059h-.067v-.081a3.317 3.317 0 01-.52-2.08v-10.7h13.58zm-11.08 2.54h-1.5v5.3h1.5zm8.12.72h-7.12v3.98h7.12zm-4.4 5.58h-4.7v4.56h4.7zm6.48 0h-4.84v4.56h4.84zm-7.5-4.74h3.54v2.28h-3.54zm2.54 1h-1.54v.28h1.54zm-23.8 3.98h4.463l-.253.676a7.56 7.56 0 01-1.286 2.224l-.227.273-.332-.125c-1.044-.392-2.06-.749-2.829-1.016l-.576-.2.309-.525c.2-.344.394-.67.589-1.039zm2.98 1h-2.38q-.081.147-.162.288c.579.2 1.246.441 1.936.7a6.442 6.442 0 00.605-.988zm15.92-.34h1.92v2.76h-1.92zm6.38 0h1.98v2.76h-1.98z" fill="#fff"/><text transform="translate(203 405)" font-size="20" font-family="NotoSansCJKtc-Black, Noto Sans CJK TC" font-weight="800"><tspan x="0" y="0">信義區</tspan></text><path d="M216.4 387.207l.22.343a19.683 19.683 0 011.5 2.783l.036.088h4.7v3.32h-1.4v5.759h.28v7.78H218.2v-.46h-4.9v.52h-3.44v-7.84h.32v-5.76h-1v13.72h-3.64v-9.4c-.119.142-.235.275-.351.4l-.557.61-.282-.779a18.094 18.094 0 00-1.384-2.771l-.222-.328.268-.292a20.581 20.581 0 003.973-7.077l.153-.467 3.546 1.1-.172.49q-.262.744-.558 1.474h4.124c-.2-.416-.457-.889-.753-1.415l-.283-.5zm.6 3.055a20.626 20.626 0 00-1-1.828l-1.52.586c.359.661.643 1.233.844 1.7l.3.7H209.8v1.32h12.06v-1.32h-5.12l-.2-.959zm-7.608-1.162l-1.616-.5a21.9 21.9 0 01-3.776 6.692 20.709 20.709 0 01.963 1.884c.208-.26.427-.552.666-.887l.911-1.269v11.44h1.64v-14.514l.049-.1q.3-.617.57-1.256v-.167h.071q.275-.654.522-1.323zm11.068 5.4h-9.28v1.24h9.28zm0 2.96h-9.28v1.24h9.28zm.28 3.04h-9.88v5.84h1.44v-.52h6.9v.46h1.54zm14.632-13.21l4.468.8-.479.647q-.158.214-.315.423h2.534v3.1h-1.02v1.84h1.96v3.16h-1.746a7.927 7.927 0 01.9.611l.422.34-.653.689h1.217v3.1h-1l-.247.323q-.193.253-.41.5a5.687 5.687 0 001.674.818l.427.126-.071.433a4.133 4.133 0 01-1.115 2.542 3.358 3.358 0 01-2.3.633 5.168 5.168 0 01-3.349-1.252 26.415 26.415 0 01-3.6 1.254l-.414.115-.171-.392a13.93 13.93 0 00-1.074-1.819 2.463 2.463 0 01-.245.809 1.985 1.985 0 01-1.151.938 10.632 10.632 0 01-3.614.372h-.408l-.082-.4a9.142 9.142 0 00-.755-2.072l-.063-.121-.545.031-.477.026-.322-3.174h.112v-2.79h.931a6.635 6.635 0 00-.474-1.289l-.183-.351h-.234v-3.16h2v-1.84h-1.04v-3.1h2.84q-.057-.081-.112-.151l-.448-.57 3.547-1.109.214.223a6.66 6.66 0 011.1 1.606h3.063a12.247 12.247 0 00.576-1.447zm2.7 1.5l-2.018-.361a14.672 14.672 0 01-.628 1.456l-.138.276h-4.344l-.127-.311a5.839 5.839 0 00-.836-1.375l-1.611.5c.081.136.165.285.252.449l.389.734h-3.551v1.1h6.5v1.44h-5.46v.96h5.46v1.442h-7.46v1.16h17.02v-1.16h-7.56v-1.44h5.6v-.96h-5.6v-1.44h6.62v-1.1h-3.628l.683-.82q.219-.263.439-.551zm-6.043 9.117l-1.564-1.585.082.931a51.017 51.017 0 01-5.442.588c.09.242.172.5.234.729a43.436 43.436 0 002.38-.128l.541-.042v1.5h-3.8v1.1h3.8v1.546l-.486.013c-.641.018-1.248.039-1.835.059-.521.018-1.021.036-1.486.048l.117 1.146c.592-.034 1.225-.074 1.888-.115l1.273-.078.53-.032v.813a.782.782 0 01-.24.631.782.782 0 01-.642.209c-.122.008-.34.012-.6.012-.125 0-.426 0-.778-.011a10.482 10.482 0 01.399 1.159 8.755 8.755 0 002.873-.308c.56-.208.794-.478.794-1.611v-1.028l2.625-.18.01-.929-2.635.12V401h4.306l.11.349a12.028 12.028 0 00.845 2.016l.266.5-.53.2a21.378 21.378 0 01-3.064.893 15.443 15.443 0 01.8 1.348 24.025 24.025 0 003.351-1.22l.3-.14.249.228a4.185 4.185 0 002.92 1.206 2.41 2.41 0 001.642-.387 2.759 2.759 0 00.7-1.539 7.038 7.038 0 01-1.162-.563 1.014 1.014 0 01-1.045.87 2.317 2.317 0 01-1.077-.28l-.688-.371.626-.469a11.519 11.519 0 001.374-1.2l.024-.235-.7-.236.166-.97h2.18v-1.1h-5.775l-.091-.385a12.11 12.11 0 01-.213-1.151l-.181-.072.154-.159q-.037-.309-.061-.633h-1.76q.031.394.081.793l.186.184-.152.037q.055.4.128.8l.109.591h-4.025v-1.681l.432-.059a25.377 25.377 0 001.537-.258zm8.575.425a14.047 14.047 0 00-2.137-1.11l.167-.829-1.489 1.533a15.919 15.919 0 011.927 1.054l.568.368zm-6.424 4.989a13.23 13.23 0 01-.484-1.159l-.014 1.322q.253-.084.498-.163zm9.42-15.341h18.2v3.54h-2.96v5.3h2.08v6.163c.349-.039.658-.084.9-.133l.533-.107.062.54c.065.571.232 1.972.373 2.656l.1.46-.453.123a22.939 22.939 0 01-4.59.278h-7.385c-2.187 0-3.591-.376-4.552-1.219-1.043-.915-1.528-2.364-1.528-4.561v-9.5h-.78zm17.2 1h-16.2v1.54h.78v10.5c0 1.888.377 3.1 1.187 3.809.766.671 1.966.971 3.893.971h7.38a32.849 32.849 0 003.881-.154 45.152 45.152 0 01-.236-1.727 27.12 27.12 0 01-3.485.221h-7.78a3.108 3.108 0 01-2.358-.7l-.055-.059h-.067v-.081a3.317 3.317 0 01-.52-2.08v-10.7h13.58zm-11.08 2.54h-1.5v5.3h1.5zm8.12.72h-7.12v3.98h7.12zm-4.4 5.58h-4.7v4.56h4.7zm6.48 0h-4.84v4.56h4.84zm-7.5-4.74h3.54v2.28h-3.54zm2.54 1h-1.54v.28h1.54zm-4.9 4.64h1.92v2.76h-1.92zm6.38 0h1.98v2.76h-1.98zM236.2 401h3.269l-.785.841a7.006 7.006 0 01-1.053.884l-.463.334-.27-.5a8.256 8.256 0 01-.424-.871zm-23.9.78h6.9v2.76h-6.9zm5.9 1h-4.9v.76h4.9z" fill="#fff"/><text transform="translate(275 380)" font-size="20" font-family="NotoSansCJKtc-Black, Noto Sans CJK TC" font-weight="800"><tspan x="0" y="0">南港區</tspan></text><path d="M280.06 382.34h-3.92v-14.62h6.594l.025-.16h-7.179v-3.7h7.586c.025-.323.039-.636.052-.943l.025-.58 4.29.371-.173 1.152h7.06v3.7h-7.71l-.033.16h7.183v11.34c0 1.274-.258 2.237-1.517 2.8a9.877 9.877 0 01-3.9.463h-.412l-.079-.4a9.175 9.175 0 00-.885-2.27l-.267-.478v2.525h-3.74v-2.68h-3zm-2.92-1h1.92v-10.96h7.859l-.107.589c-.12.66-.323 1.521-.531 2.248l-.1.363h-2.821l-.131-.98.464-.126a11.672 11.672 0 00-.543-1.374l-.2-.4.075.672-1.109.248a13.447 13.447 0 01.429 1.339l.155.621h-1.38v1.22h2.94v1.92h-3.36v1.3h3.36v2.68h1.74v-2.68h3.46v-1.3h-3.46v-1.92h2.98v-1.22h-1.274l.268-.683c.156-.4.324-.85.493-1.312l-1.157-.213.09-.992h3.66v8.66c0 .334-.126.893-.963.9-.129.008-.369.012-.663.012-.145 0-.5 0-.909-.013a10.514 10.514 0 01.509 1.38 8.174 8.174 0 003.1-.376c.625-.278.923-.631.923-1.883v-10.34h-7.42l.135-.608c.079-.355.16-.759.238-1.15l.08-.4h7.53v-1.7h-7.22l.187-1.248-2.187-.191c-.016.316-.039.652-.079.994l-.051.443h-7.49v1.7h7.341l-.086.574c-.059.4-.121.8-.181 1.168l-.07.418h-6.444zm12.64-5.62h.08v-4.34h-.453c-.146.4-.3.812-.44 1.2h.814zm-9.72 0h.06v-3.14h1.073a17.054 17.054 0 00-.416-1.131l-.028-.069h-.689zm4.712-3.14h.647c.106-.4.207-.813.29-1.2h-1.347c.17.43.314.863.41 1.2zm25.888 9.54h-3.58a4.446 4.446 0 01-3.086-.775 3.561 3.561 0 01-.894-2.865v-1.9a9.148 9.148 0 01-.742.617l-.422.313-.291-.437a9.223 9.223 0 00-.606-.792 85.88 85.88 0 01-2.225 5.249l-.241.52-3.433-2.199.22-.408a59.1 59.1 0 002.854-6.183l.054-.14a24.12 24.12 0 00-3.154-2.064l-.507-.287 2.255-2.86.366.186c1.281.653 2.236 1.18 2.893 1.6v-1.775h3.079v-.04h-2.34v-1.035l-1.123 1.4-.394-.359a25.249 25.249 0 00-3.125-2.164l-.5-.306 2.363-2.775.358.2c.5.28 1.585.887 2.477 1.458h.7l.244-.305v.305h1.34v-1.88h3.82v1.88h1.14v-1.88h3.86v1.88h2.36v3.58h-2.36v.04H315v3.6h-2.39a9.275 9.275 0 002.432 2.254l.609.376-.562.443a10.161 10.161 0 00-1.923 2.168l-.282.461-.437-.321a8.039 8.039 0 01-.827-.694v.571l.268.188a6.908 6.908 0 002.093.819l.451.093-.056.457a4.928 4.928 0 01-1.041 2.946 3.433 3.433 0 01-2.675.84zm-6.56-8.075v4.435c0 1.133.168 1.767.561 2.12a3.718 3.718 0 002.419.52h3.58a2.584 2.584 0 001.955-.535 3.559 3.559 0 00.708-1.928 9.239 9.239 0 01-1.3-.472c-.123 1.053-.423 1.635-1.583 1.635h-3.1a2.3 2.3 0 01-1.326-.236 1.282 1.282 0 01-.434-1.144v-1.28h5.04v-3.6l.88 1.06a9.6 9.6 0 001.124 1.155 12.557 12.557 0 011.337-1.522 10.8 10.8 0 01-2.73-2.97l-.472-.763H314v-1.6h-2.98v-2.04h2.36v-1.58h-2.36v-1.88h-1.86v1.88h-3.14v-1.88h-1.82v1.88h-2.34v1.58h2.34v2.04h-3.08v1.6h3.1l-.422.746a11.324 11.324 0 01-2.908 3.383l.331.345a13.682 13.682 0 01.938 1.089 10.787 10.787 0 001.068-1.055zm-7.642 5.463l1.688 1.081a81.988 81.988 0 002.246-5.422l.082-.221-.017.011-.291.192-1.259-.923a62.082 62.082 0 01-2.449 5.282zm10.142-.738a3.1 3.1 0 00.737.05h3.1c.374 0 .408-.057.435-.1a1.708 1.708 0 00.146-.557h-4.438v.28a1.519 1.519 0 00.02.327zm-7.562-5.687l1.149.843a10.133 10.133 0 002.273-2.406h-2.26zm-2.928-2.607a27.183 27.183 0 012.439 1.587l1.1-1.484c-.564-.364-1.405-.834-2.512-1.406zm1.126-5.293c.692.436 1.681 1.082 2.372 1.626l1.14-1.425c-.758-.51-1.818-1.12-2.434-1.467zM329.84 381.8h-7.38c-2.187 0-3.591-.376-4.552-1.219-1.043-.915-1.528-2.364-1.528-4.561v-9.5h-.78v-3.54h18.2v3.54h-2.96v5.3h2.08v6.163c.349-.039.658-.084.9-.133l.533-.107.062.54c.065.571.232 1.972.373 2.656l.1.46-.453.123a22.939 22.939 0 01-4.59.278zm-13.24-16.28h.78v10.5c0 1.888.377 3.1 1.187 3.809.766.671 1.966.971 3.893.971h7.38a32.849 32.849 0 003.881-.154 45.152 45.152 0 01-.236-1.727 27.12 27.12 0 01-3.485.221h-7.78a3.108 3.108 0 01-2.358-.7l-.055-.059h-.067v-.081a3.317 3.317 0 01-.52-2.08v-10.7h13.58v-1.54h-16.2zm10.48 11.86h4.84v-4.56h-4.84zm-6.34 0h4.7v-4.56h-4.7zm-.52-5.56h1.5v-5.3h-1.5zm2.5-.6h7.12v-3.98h-7.12zm7.7 5.26h-1.98v-2.76h1.98zm-6.44 0h-1.92v-2.76h1.92zm-14.6-.34h-3.8v-2.2h3.8zm-2.8-1h1.8v-.2h-1.8zm3.685-2.22h-5.49l.382-.731c.249-.478.459-.923.642-1.361l.128-.308h3.181l.131.3c.235.542.44.976.645 1.368zm-3.858-1h2.229c-.06-.127-.12-.26-.183-.4h-1.863l-.183.4zm21.553-1.56h-3.54v-2.28h3.54zm-2.54-1h1.54v-.28h-1.54zm-16.26-.44h-3.14v-2.04h3.14zm-2.14-1h1.14v-.04h-1.14z" fill="#fff"/><text transform="translate(203 500)" font-size="20" font-family="NotoSansCJKtc-Black, Noto Sans CJK TC" font-weight="800"><tspan x="0" y="0">文山區</tspan></text><path d="M214.49 482.045l.192.36a15.759 15.759 0 011.3 3.159l.028.116h6.77v3.84h-3.166a20.527 20.527 0 01-3.474 6.245 19.52 19.52 0 006.688 2.747l.907.2-.667.647a13.266 13.266 0 00-1.87 2.6l-.187.341-.376-.1a20.5 20.5 0 01-7.517-3.55 23.009 23.009 0 01-7.844 3.712l-.411.115-.178-.388a16.255 16.255 0 00-1.691-2.631l-.518-.629.8-.177a19.927 19.927 0 006.951-2.807 23.738 23.738 0 01-3.588-6.325h-3.319v-3.84h8.08a14.931 14.931 0 00-.732-1.905l-.251-.529zm.4 3.3a16.511 16.511 0 00-.9-2.11l-2.176.642a15.782 15.782 0 01.736 2.181l.155.621h-8.385v1.84h3l.123.32a22.562 22.562 0 003.9 6.774l.354.41-.437.32a19.715 19.715 0 01-7.017 3.108 18.988 18.988 0 011.157 1.835 21.456 21.456 0 007.41-3.659l.313-.247.31.25a19.139 19.139 0 007.084 3.507 16.632 16.632 0 011.272-1.845 19.744 19.744 0 01-6.682-3.026l-.448-.322.365-.414a19.486 19.486 0 003.762-6.673l.116-.337h2.878v-1.84h-7.9l-.147-.978zm16.05-2.825h4.08V497h2.86v-10.28h4.04v15.68h-4.04V501H224.2v-14.18h4V497h2.74zm3.08 1h-2.08V498h-4.74v-10.18h-2V500h13.68v1.4h2.04v-13.68h-2.04V498h-4.86zm9.58-.54h18.2v3.54h-2.96v5.3h2.08v6.163c.349-.039.658-.084.9-.133l.533-.107.062.54c.065.571.232 1.972.373 2.656l.1.46-.453.123a22.939 22.939 0 01-4.59.278h-7.385c-2.187 0-3.591-.376-4.552-1.219-1.043-.915-1.528-2.364-1.528-4.561v-9.5h-.78zm17.2 1h-16.2v1.54h.78v10.5c0 1.888.377 3.1 1.187 3.809.766.671 1.966.971 3.893.971h7.38a32.849 32.849 0 003.881-.154 45.152 45.152 0 01-.236-1.727 27.12 27.12 0 01-3.485.221h-7.78a3.108 3.108 0 01-2.358-.7l-.055-.059h-.067v-.081a3.317 3.317 0 01-.52-2.08v-10.7h13.58zm-11.08 2.54h-1.5v5.3h1.5zm8.12.72h-7.12v3.98h7.12zm-4.4 5.58h-4.7v4.56h4.7zm6.48 0h-4.84v4.56h4.84zm-7.5-4.74h3.54v2.28h-3.54zm2.54 1h-1.54v.28h1.54zm-45.715-.56h7.443l-.236.667a15.625 15.625 0 01-2.894 5.061l-.362.417-.379-.4a16.969 16.969 0 01-3.277-5.05zm6.012 1h-4.483a15.924 15.924 0 002.389 3.638 14.573 14.573 0 002.093-3.638zm34.8 4.2h1.92v2.76h-1.917zm6.38 0h1.98v2.76h-1.977z" fill="#fff"/></svg>