<svg xmlns="http://www.w3.org/2000/svg" xmlns:xlink="http://www.w3.org/1999/xlink" width="600.001" height="400.003"><defs><radialGradient id="d" cx="4.583" cy="1.057" r="6.953" gradientTransform="matrix(0 1 .663 0 -9.661 13.167)" gradientUnits="objectBoundingBox"><stop offset="0" stop-color="#868686"/><stop offset="1" stop-color="#1d1d1b"/></radialGradient><radialGradient id="a" cx="317.558" cy="-805.04" r="2644.01" gradientTransform="matrix(.279 0 0 -.785 -978.953 16476.561)" gradientUnits="objectBoundingBox"><stop offset="0" stop-color="#f85e80"/><stop offset=".031" stop-color="#f85e80"/><stop offset=".452" stop-color="#f85480"/><stop offset=".751" stop-color="#f85079"/><stop offset="1" stop-color="#f84a70"/></radialGradient><radialGradient id="g" cx="413.717" cy="-1153.577" r="2050.425" gradientTransform="matrix(.357 0 0 -1 -810.069 13157.403)" xlink:href="#a"/><radialGradient id="i" cx="1197.698" cy="-384.95" r="1292.237" gradientTransform="matrix(1.388 0 0 -1 1132.322 8843.186)" gradientUnits="objectBoundingBox"><stop offset="0" stop-color="#ffffe5"/><stop offset=".031" stop-color="#ffffe5"/><stop offset=".452" stop-color="#ffe5e5"/><stop offset=".657" stop-color="#ffdede"/><stop offset=".942" stop-color="#fcc"/><stop offset="1" stop-color="#ffc8c8"/></radialGradient><radialGradient id="k" cx="3.475" cy="3.059" r="6.028" gradientTransform="matrix(.759 0 0 -1 -2.457 59.1)" gradientUnits="objectBoundingBox"><stop offset="0" stop-color="#8f86d9"/><stop offset=".308" stop-color="#8f86d9"/><stop offset="1" stop-color="#8f72c2"/></radialGradient><radialGradient id="m" cx="1.438" cy=".951" r="1.948" gradientTransform="matrix(.735 0 0 -1 -.765 19.036)" gradientUnits="objectBoundingBox"><stop offset="0" stop-color="#ffefe6"/><stop offset=".308" stop-color="#ffefe6"/><stop offset="1" stop-color="#ffcbce"/></radialGradient><radialGradient id="o" cx="134.042" cy="-8.412" r="141.879" gradientTransform="matrix(.956 0 0 -1 -12.356 1215.476)" gradientUnits="objectBoundingBox"><stop offset="0" stop-color="#f85881"/><stop offset=".308" stop-color="#f85881"/><stop offset="1" stop-color="#f84b74"/></radialGradient><radialGradient id="b" cx="-2.881" cy="-13.079" r="26.461" gradientTransform="matrix(.799 0 0 -1 -105.09 1504.481)" gradientUnits="objectBoundingBox"><stop offset="0" stop-color="#90aa9e"/><stop offset=".508" stop-color="#879a8c"/><stop offset="1" stop-color="#819081"/></radialGradient><radialGradient id="r" cx="-13.051" cy="-2.857" r="20.998" gradientTransform="matrix(0 1 -1.258 0 96.39 1532.538)" xlink:href="#b"/><clipPath id="c"><path d="M228.388 189.493l-.016.011-.062.04zm-3.217 7.24l14.556 10.067-10.693-24.123zm-12.724-1.5s1.773 19.4 11.528 29.672q.527.554 1.073 1.037a186.866 186.866 0 00-1.257-30.168l.836.58c-2.8-5.445-.851-13.564 1.6-20l-5.127-11.58z" transform="translate(-212.447 -164.774)" fill="none"/></clipPath><clipPath id="e"><path d="M233.541 210.76l-.164-.042z" transform="translate(-233.377 -210.718)" fill="none"/></clipPath><clipPath id="f"><path d="M237.564 210.7l-.179-.06z" transform="translate(-237.385 -210.64)" fill="none"/></clipPath><clipPath id="h"><path d="M222.493 185.657l-.052.077.065-.095zm.013-.018z" transform="translate(-222.441 -185.637)" fill="none"/></clipPath><clipPath id="j"><path d="M235.225 152.445c7.28-2.86 14-5.52 19.947-7.9l-6.061-5.44z" transform="translate(-235.225 -139.108)" fill="none"/></clipPath><clipPath id="l"><path d="M234.371 152.691l-17.344 16.661a74.9 74.9 0 00-1.576 11.077l4.539 5.216-.105-3.4 59.547-14.914-25.114-22.537a3925.706 3925.706 0 01-19.947 7.9" transform="translate(-215.451 -144.794)" fill="none"/></clipPath><clipPath id="n"><path d="M220.65 203.112l-.011-.4-.632-.2q.309.314.644.6" transform="translate(-220.006 -202.508)" fill="none"/></clipPath><clipPath id="p"><path d="M255.332 360.862h.006a4.423 4.423 0 01-.452-.156.614.614 0 00.446.156" transform="translate(-254.886 -360.706)" fill="none"/></clipPath><clipPath id="q"><path d="M315.98 299.858a4.117 4.117 0 01.451-.162.616.616 0 00-.451.162" transform="translate(-315.98 -299.696)" fill="none"/></clipPath></defs><path d="M20.125 327.491H6.514A6.515 6.515 0 000 334.005v59.483a6.514 6.514 0 006.514 6.514h13.611a6.513 6.513 0 006.513-6.514v-59.483a6.513 6.513 0 00-6.513-6.514M59.447 310.722h-15.3a5.672 5.672 0 00-5.671 5.672v77.939a5.672 5.672 0 005.671 5.671h15.3a5.671 5.671 0 005.671-5.671v-77.941a5.671 5.671 0 00-5.671-5.67M97.251 294.934H82.302a5.845 5.845 0 00-5.844 5.844v93.379a5.845 5.845 0 005.844 5.844H97.25a5.845 5.845 0 005.844-5.844v-93.378a5.845 5.845 0 00-5.844-5.844" fill="#774fe8"/><path d="M31.639 393.605H18.028a6.514 6.514 0 01-6.514-6.514v-59.483a6.515 6.515 0 016.514-6.514h13.611a6.513 6.513 0 016.513 6.514v59.483a6.513 6.513 0 01-6.513 6.514" fill="#ffd066"/><path d="M70.957 393.606h-15.3a5.672 5.672 0 01-5.671-5.671v-77.94a5.672 5.672 0 015.671-5.672h15.3a5.671 5.671 0 015.671 5.672v77.939a5.671 5.671 0 01-5.671 5.671" fill="#fe504f"/><path d="M108.766 393.605H93.813a5.844 5.844 0 01-5.843-5.844v-93.379a5.845 5.845 0 015.843-5.844h14.949a5.845 5.845 0 015.844 5.844v93.379a5.845 5.845 0 01-5.844 5.844" fill="#2d2d2d"/><path d="M74.382 381.838v-70.123a5.41 5.41 0 00-5.409-5.41h-9.229a1.641 1.641 0 000 3.282h9.229a2.133 2.133 0 012.128 2.128v70.123a1.641 1.641 0 103.282 0zM36.168 378.328v-50.041a5.41 5.41 0 00-5.409-5.41H21.53a1.641 1.641 0 000 3.282h9.229a2.133 2.133 0 012.128 2.128v50.042a1.641 1.641 0 103.282 0zM112.401 366.435v-70.119a5.409 5.409 0 00-5.41-5.41h-9.228a1.641 1.641 0 100 3.282h9.228a2.131 2.131 0 012.128 2.128v70.122a1.641 1.641 0 003.282 0" fill="#fff"/><g><path d="M589.521 46.507a66.9 66.9 0 00-39.506-38.62 3.577 3.577 0 00-4.509 2.027l-18.26 44.52a3.589 3.589 0 003.831 4.914l55.6-7.985a3.594 3.594 0 002.84-4.857M583.466 62.268l-57.688 8.135a1.969 1.969 0 00-.745 3.632l53.252 32.315a1.978 1.978 0 002.823-.876 66.811 66.811 0 004.564-41.647 1.977 1.977 0 00-2.205-1.562" fill="#774fe8"/><path d="M570.461 112.483L513.35 77.446a5.08 5.08 0 01-2.094-6.124l18.97-50.176a5.015 5.015 0 00-4.255-6.786h-.066a64.862 64.862 0 00-28.38 4.151c-.382.147-.758.307-1.136.461a60.534 60.534 0 00-4.028 1.804c-.422.207-.844.411-1.261.627q-.993.512-1.967 1.058c-.371.209-.737.425-1.1.64q-.649.38-1.288.775c-.361.223-.722.446-1.078.676-.551.356-1.094.721-1.633 1.093q-.633.436-1.254.888c-.46.334-.919.67-1.371 1.015q-.489.375-.973.761-.639.508-1.265 1.033c-.285.239-.573.474-.854.717q-.95.821-1.868 1.68c-.264.247-.521.5-.78.751q-.617.6-1.218 1.207a66.87 66.87 0 00-.787.812q-.712.749-1.4 1.521c-.225.254-.45.506-.672.763q-.741.86-1.452 1.744c-.218.272-.432.546-.646.822q-.573.735-1.122 1.486c-.188.257-.38.513-.565.773q-.769 1.081-1.5 2.193c-.143.219-.277.444-.418.664q-.55.867-1.073 1.752a53.86 53.86 0 00-.488.839q-.551.963-1.068 1.949c-.093.177-.191.35-.283.528q-.627 1.223-1.2 2.477c-.12.259-.233.521-.349.782q-.428.959-.824 1.935c-.107.262-.216.524-.32.788-.342.874-.67 1.754-.975 2.647-.047.135-.087.273-.132.408q-.393 1.171-.74 2.363c-.082.278-.161.559-.239.84q-.31 1.118-.583 2.252c-.049.2-.1.4-.149.608q-.323 1.412-.586 2.848c-.043.236-.079.474-.121.711q-.2 1.14-.352 2.294c-.038.279-.077.559-.111.84a59.746 59.746 0 00-.3 2.983 65.12 65.12 0 00115.82 45.608 5.058 5.058 0 00-1.355-7.444" fill="#774fe8"/><path d="M560.252.21a66.9 66.9 0 0139.5 38.62 3.593 3.593 0 01-2.839 4.856l-55.605 7.987a3.591 3.591 0 01-3.831-4.916l18.261-44.519A3.578 3.578 0 01560.247.21" fill="#2d2d2d"/><path d="M536.013 62.727l57.688-8.135a1.977 1.977 0 012.205 1.563 66.824 66.824 0 01-4.565 41.647 1.977 1.977 0 01-2.822.876l-53.254-32.319a1.969 1.969 0 01.746-3.632" fill="#fe504f"/><path d="M536.144 6.679h.066a5.014 5.014 0 014.254 6.787l-18.973 50.176a5.08 5.08 0 002.094 6.125l57.111 35.037a5.057 5.057 0 011.354 7.444A65.123 65.123 0 11536.144 6.679" fill="#ffd066"/><path d="M580.696 104.807l-1.57-.963c-.6.615-1.206 1.226-1.843 1.819a61.456 61.456 0 01-42.119 17.445c-16.138 0-30.463-6.747-42.116-17.445-11.7-10.736-16.756-26.713-17.446-42.117a44.86 44.86 0 015.129-22.947 44.632 44.632 0 0112.316-19.169 58.716 58.716 0 0114.714-10.6 65.128 65.128 0 1074.287 101.421 5.058 5.058 0 00-1.355-7.444" fill="#ffb166"/><path d="M562.563 8.263h.01a78.213 78.213 0 0112.019 7.494 61.307 61.307 0 019.155 8.381 34.769 34.769 0 016.647 10.751 1.575 1.575 0 002.958-1.084 38.066 38.066 0 00-7.378-11.9 70.862 70.862 0 00-14.448-12.124 73.993 73.993 0 00-7.612-4.363 1.575 1.575 0 00-1.351 2.846M590.798 61.432a72.123 72.123 0 01.809 10.453c0 6.06-.925 12.471-3.662 17.812a1.575 1.575 0 102.805 1.434c3.06-6 4-12.876 4.006-19.246a75.1 75.1 0 00-.843-10.914 1.575 1.575 0 00-3.116.461" fill="#fff"/></g><g><path d="M125.706 376.033h340.731a29.324 29.324 0 0029.325-29.325V119.556a29.324 29.324 0 00-29.325-29.325H125.706a29.325 29.325 0 00-29.325 29.325v227.153a29.325 29.325 0 0029.325 29.325" fill="#774fe8"/><path d="M492.98 342.249H152.251a29.325 29.325 0 01-29.325-29.325V85.772a29.325 29.325 0 0129.325-29.325H492.98a29.325 29.325 0 0129.326 29.325v227.153a29.325 29.325 0 01-29.326 29.325" fill="#ffd066"/><path d="M522.305 85.771a29.325 29.325 0 00-29.326-29.325H152.251a29.325 29.325 0 00-29.325 29.325v12.57h399.379z" fill="#fe504f"/><path d="M492.98 342.248v-3.918H152.251a25.409 25.409 0 01-25.407-25.406V85.771a25.407 25.407 0 0125.407-25.406H492.98a25.407 25.407 0 0125.407 25.406v227.153a25.409 25.409 0 01-25.407 25.406v7.835a33.243 33.243 0 0033.243-33.242V85.771a33.243 33.243 0 00-33.243-33.243H152.251a33.243 33.243 0 00-33.243 33.243v227.153a33.243 33.243 0 0033.243 33.242H492.98z" fill="#2d2d2d"/><path d="M497.125 80.186a5.586 5.586 0 11-5.587-5.586 5.586 5.586 0 015.587 5.586M478.842 80.186a5.586 5.586 0 11-5.586-5.586 5.585 5.585 0 015.586 5.586M460.559 80.186a5.586 5.586 0 11-5.586-5.586 5.585 5.585 0 015.586 5.586" fill="#fff"/><g transform="translate(294.828 115.834)" clip-path="url(#c)"><path transform="rotate(-72.868 29.229 39.596)" fill="url(#d)" d="M0 0h66.494v44.089H0z"/></g><path d="M363.729 211.001c-35.9-20.42-24.374-44.309-24.374-44.309l-37.066-19.605c15.636 66.913-10.369 62.407-6.695 79.422 11.14 30.012 50.124 67.216 67.766 57.232 10.027-5.675 81.82-58.641.369-72.739" fill="#ffa3a3"/><path d="M344.296 194.83c-11.244-15.069-4.942-28.138-4.942-28.138l-37.066-19.605c3.664 15.678 18.282 60.714 36.819 60.07 6.223-.216 4.168-9.962 5.189-12.327" fill="#f85e8f"/><path d="M422.762 338.029h65.96s-54.191-80.714-63.916-96.665c-12.227-20.052-54.666-26.145-54.666-26.145l30.6 102.3a272.118 272.118 0 0122.025 20.509" fill="#fe504f"/><path d="M382.459 240.35q-3.582-4.4-7.373-8.612l25.656 85.782a272.118 272.118 0 0122.017 20.509h13.675s-.1-99.544-53.983-97.679" fill="#e3364f"/><path d="M317.643 227.572zm-.035-.031l.009.009-.009-.009m-.037-.033l.015.014-.015-.014m-.037-.031l.019.014-.019-.014m-.036-.033l.02.017-.02-.017m-.05-.044l.035.031-.035-.031" fill="#fbe3e9"/><path d="M396.016 222.398s-10.509-10.81-33.613-12.754l-6.171 37.411-56.3-36.592c-34.9 1.688-55.355 26.582-55.355 26.582s-53.722 74.843-62.147 88.029c-21.412 33.513-7.79 79.724 44.221 67.959l39.17-53.111 160.354-1.862c-2.413-59.756-30.165-115.662-30.165-115.662" fill="#fe504f"/><path d="M211.965 376.958c2.75-6.524 50.138-35.175 50.138-35.175l47.234-1.983c-4.776-33.34-14.367-73.431-42.418-96.071l2.793 32.816-19.783 29.79-57.717 18.153 19.089 53.635s.441-.779.666-1.166" fill="#e3364f"/><g transform="translate(314.855 159.794)" clip-path="url(#e)"><path transform="rotate(-1.312 0 .044)" fill="url(#a)" d="M0 0h.165v.046H0z"/></g><g transform="translate(318.69 159.72)" clip-path="url(#f)"><path transform="rotate(-1.309 0 .044)" fill="url(#g)" d="M0 0h.18v.064H0z"/></g><g transform="translate(304.391 135.797)" clip-path="url(#h)"><path transform="rotate(-4.18 -.004 .096)" fill="url(#i)" d="M0 0h.073v.101H0z"/></g><g transform="translate(316.623 91.277)" clip-path="url(#j)"><path transform="rotate(-10.26 1.217 13.265)" fill="url(#k)" d="M0 0h22.017v16.701H0z"/></g><g transform="translate(297.702 96.717)" clip-path="url(#l)"><path transform="rotate(-10.26 3.72 40.629)" fill="url(#m)" d="M0 0h70.273v51.671H0z"/></g><g transform="translate(302.061 151.939)" clip-path="url(#n)"><path transform="rotate(-10.26 .052 .602)" fill="url(#o)" d="M0 0h.742v.71H0z"/></g><path d="M347.106 92.503c-84.671-8.968-48.178 75.281-43.714 64.59 1.049 14.815 13.245 29.908 28.263 34.739 28.783 9.259 39.2-29 39.2-29s.3-12.879 1.531-20.639c4.576-28.831 3.08-47.1-25.285-49.688" fill="#ffa3a3"/><path d="M372.392 142.191c3-18.89 3.387-33.244-4.677-41.625-2.225 8.841-6.33 24.034-22.277 28.786 3.526 8.3 7.164 23.613 7.164 23.613 17.311-1.368 1.719 11.74 1.719 11.74s-38.89 28.1-13.733 28.918 30.273-30.793 30.273-30.793.3-12.879 1.531-20.639" fill="#fcc8ba"/><path d="M351.776 70.148c-10.474 1.344-14.776 11.974-30.64 16.884 0 0-37.438-5.972-29.264 24 0 0-16.843 12.658 2.186 33.5 0 0 3.69-34.479 10.081 4.691l2.205.323c2.709-2.57-.56-6.857.738-9.509 5.888-12.031 4.507-22.039 4.507-22.039 1.695 1.714 18.638 9.93 27.115 9.029 4.513-.479-.9-8.477-.9-8.477 4.515 1.106 16.843 4.674 22.725 4.271a10.3 10.3 0 008.3-5.584l7.261 7.928c13.9-11.444.308-12.254 1.183-13.246 15.78-17.894-4.911-20.256-4.911-20.256s2.411-24.47-20.588-21.519" fill="#2d2d2d"/><path d="M339.911 239.48h.014z" fill="#ffcd91"/><g transform="translate(335.435 303.305)" clip-path="url(#p)"><path transform="rotate(-32.099 .041 .144)" fill="url(#b)" d="M0 0h.465v.372H0z"/></g><g transform="translate(393.89 244.93)" clip-path="url(#q)"><path transform="rotate(-58.61 .07 .123)" fill="url(#r)" d="M0 0h.373v.469H0z"/></g><path d="M347.182 138.446l4.068 16.121 1.045-.031a13.312 13.312 0 011.727.1 8.094 8.094 0 013.066.9 2.262 2.262 0 01.828.789 1.778 1.778 0 01.186 1.141 6.6 6.6 0 01-1.134 2.661 26.122 26.122 0 01-3.636 4.267 1.303 1.303 0 001.828 1.858 28.706 28.706 0 004-4.712 9.1 9.1 0 001.532-3.766 4.406 4.406 0 00-.5-2.732 4.6 4.6 0 00-1.251-1.4 7.461 7.461 0 00-2.335-1.132 13.283 13.283 0 00-2.269-.459 15.707 15.707 0 00-2.113-.115l.037 1.3 1.264-.319-3.812-15.108a1.303 1.303 0 10-2.527.638M339.723 141.557c-.3 2.547-2.017 4.437-3.828 4.221s-3.033-2.455-2.73-5 2.018-4.436 3.828-4.221 3.033 2.455 2.73 5M363.413 143.34c-.3 2.547-2.017 4.437-3.828 4.221s-3.033-2.456-2.73-5 2.018-4.436 3.828-4.221 3.033 2.455 2.73 5M333.728 170.615a11.734 11.734 0 001.707 3.056 10.105 10.105 0 002.379 2.258 8.337 8.337 0 003.681 1.363 11.2 11.2 0 005.886-1.062 1.302 1.302 0 10-1.054-2.382 8.628 8.628 0 01-4.525.856 5.736 5.736 0 01-2.541-.942 8.123 8.123 0 01-2.36-2.559 9.61 9.61 0 01-.552-1.053 5.858 5.858 0 01-.125-.3l-.027-.07v-.012l-.351.123.352-.121-.351.123.352-.121a1.303 1.303 0 10-2.465.845M268.057 256.257l.017.04a102.08 102.08 0 017.411 37.68 75.16 75.16 0 01-9.082 36.84 1.303 1.303 0 102.278 1.266 77.784 77.784 0 009.409-38.106 104.27 104.27 0 00-7.656-38.787 1.303 1.303 0 10-2.377 1.067M199.149 328.106a33.015 33.015 0 0114.121 5.535 35.01 35.01 0 0111.053 13.085 38.183 38.183 0 012.138 5.18c.211.647.358 1.164.451 1.513.046.175.078.308.1.394l.022.1.006.023a1.303 1.303 0 102.549-.542 39.159 39.159 0 00-5.662-12.494 36.176 36.176 0 00-9.162-9.39 35.633 35.633 0 00-15.219-5.976 1.303 1.303 0 00-.4 2.576" fill="#2d2d2d"/><path d="M312.517 258.538l19.731-13.288 23.758 2.013-56.3-31.968a10.679 10.679 0 004.026-10.067s-10.469 2.014-11.274 11.275 20.055 42.035 20.055 42.035" fill="#e3364f"/><path d="M315.739 251.692l16.107-13.691 24.387 9.053-51.127-46.5s-9.9 2.013-10.71 11.274 21.342 39.865 21.342 39.865M378.356 232.968l-21.544 14.295-2.617-42.08-7.384-6.678s9.973.691 17.249 6.476 14.295 27.987 14.295 27.987" fill="#fe504f"/><path d="M293.271 211.927a35.856 35.856 0 005 14.185c4.238 6.861 16.516 26.183 16.518 26.186l.689 1.084 18.906-15.72a1.13 1.13 0 00-1.444-1.738l-17.919 14.9.722.869.953-.606-.536-.844c-2.407-3.791-12.275-19.342-15.966-25.318a34.1 34.1 0 01-3.87-9.108 32.281 32.281 0 01-.648-2.995 17.586 17.586 0 01-.144-1.034v-.06a1.13 1.13 0 00-2.251.2" fill="#2d2d2d"/><path d="M366.727 230.29l-10.966 17.571-23.881-10.093a1.129 1.129 0 10-.878 2.08l25.652 10.846 11.985-19.208a1.13 1.13 0 10-1.916-1.2" fill="#2d2d2d"/><path d="M364.765 236.824l15.277 3.294-.229-1.6a80.9 80.9 0 00-1.8-8.394 74.868 74.868 0 00-6.636-17.025 1.129 1.129 0 10-1.971 1.1 72.679 72.679 0 016.422 16.5 89.839 89.839 0 011.349 5.873c.139.72.238 1.289.3 1.677.033.193.055.342.071.44l.017.111v.033l1.119-.16.238-1.1-13.691-2.953a1.13 1.13 0 00-.477 2.208" fill="#2d2d2d"/><path d="M317.113 299.316c-1.862-6.207-3.1-.62-9.309-3.413-4.617-2.078-11.8 4.6-15.187 8.155q-.606 0-1.261.068l-98.215 19.9c-37.158 15.8-23.74 92.164 32.118 72.614 3.964-1.388 57.511-54.376 72.518-69.277 31.119 9.978 21.142-22.024 19.335-28.044" fill="#ffa3a3"/><path d="M319.7 310.527a72.234 72.234 0 00-2.585-11.21c-1.862-6.207-3.1-.621-9.309-3.413-4.617-2.078-11.8 4.6-15.187 8.155q-.606 0-1.261.068l-98.215 19.9a31.959 31.959 0 00-14.453 12.321c37.364-6.785 112.388-19.007 112.388-19.007 14.865-28.379 19.141-4.25 28.622-6.811" fill="#fcc8ba"/><path d="M405.022 244.755l.1-.092-.1.092.1-.092-.1.092c.135.163 20.659 23.758 26.232 91.769a1.27 1.27 0 002.531-.208c-5.644-69-26.669-93.034-26.858-93.24a1.27 1.27 0 00-1.905 1.678z" fill="#2d2d2d"/><path d="M249.706 312.565l-56.564 11.46c-37.158 15.8-23.74 92.164 32.117 72.615 2.462-.862 24.038-21.616 43.636-40.8-7.254-14.022-14.07-28.243-19.189-43.279" fill="#fe504f"/><path d="M246.672 349.075c-13.722 7.188-27.613 14.065-40.3 23.03-11.129 7.864-26.481 2.191-33.89-7.74 2.247 22.67 20.365 43.615 52.773 32.272 2.462-.86 24.038-21.615 43.635-40.795a510.738 510.738 0 01-7.479-15 300.23 300.23 0 01-14.744 8.232" fill="#e3364f"/><path d="M545.589 214.812c-.058-.133-.12-.269-.181-.4 1.9-.8 4.62-1.5 7.011-.433 4.207 1.873 5.162-2.072 5.162-2.072-1.914-7.864-10.336-7.063-15.56-5.735a7.993 7.993 0 015.251-1.508c4.573.542 4.316-3.509 4.316-3.509-4.145-6.921-11.913-3.7-16.515-.894-.112-.072-.223-.145-.335-.212a7.3 7.3 0 013.512-2.476c4.418-1.3 2.591-4.922 2.591-4.922-5.757-4.176-11.008 0-14.314 4.057.333.345-3.909 2.839-4.365 3.205-.5.3-.974.6-1.385.872l-.219.107c-.677-5.2-2.9-9.884-7.241-11.014 0 0-3.959.892-2.155 5.128s1.433 3.982-1.856 9.4.855 13.1.524 13.389l-67.562 76.6 1.745 40.109a142.343 142.343 0 0035.659-9.139l10.256 9.651s35.526-83.866 38.626-102.035c5.3-1.695 21.212-11.72 23.413-9.875 3.529 2.958 6.435-.7 6.435-.7.7-6.937-8.269-7.807-12.814-7.585" fill="#ffa3a3"/><path d="M558.259 217.375a8.027 8.027 0 00-2.274-1.893 4.055 4.055 0 00.682-.316 4.688 4.688 0 001.709-1.855 5.123 5.123 0 00.439-1.11 1.28 1.28 0 000-.6 10.346 10.346 0 00-1.628-3.647 8.843 8.843 0 00-4.119-3.1 11.232 11.232 0 00-1.329-.4l.164-.177a4.719 4.719 0 00.816-1.791 5.59 5.59 0 00.142-1.216v-.172a1.278 1.278 0 00-.179-.594 9.8 9.8 0 00-3.7-3.689 9.224 9.224 0 00-4.451-1.075 13 13 0 00-2.376.246 4.306 4.306 0 00.338-1.658 5.323 5.323 0 00-.51-2.248 1.292 1.292 0 00-.388-.456 9.526 9.526 0 00-5.653-1.974 10.571 10.571 0 00-5.959 2.043 21.713 21.713 0 00-4.431 4.214 1.229 1.229 0 00-.166.3l-.113.095c-.444.362-1.325.947-2.11 1.45-.394.254-.769.491-1.074.685-.152.1-.286.185-.4.26-.083.056-.152.1-.223.156l-.187.115a1.27 1.27 0 101.327 2.164l.222-.136.138-.1c.038-.028.159-.109.312-.208.546-.355 1.55-.978 2.427-1.572.442-.3.852-.59 1.189-.864a4.449 4.449 0 00.475-.439 2.064 2.064 0 00.242-.322 2.181 2.181 0 00.107-.22 18.948 18.948 0 013.7-3.491 8.073 8.073 0 014.523-1.6 6.84 6.84 0 013.872 1.3 2.886 2.886 0 01.14.844 1.624 1.624 0 01-.32 1.015 3.182 3.182 0 01-1.734 1.013 8.557 8.557 0 00-4.133 2.885 1.269 1.269 0 00.323 1.9c.08.049.181.115.3.193a1.271 1.271 0 001.349.016 25.933 25.933 0 014.219-2.11 13.107 13.107 0 014.57-.957 6.683 6.683 0 013.24.767 7.063 7.063 0 012.545 2.463 2.65 2.65 0 01-.319 1.069 1.548 1.548 0 01-.584.579 2.65 2.65 0 01-1.331.288 5.534 5.534 0 01-.654-.041 7.351 7.351 0 00-.852-.05 9.684 9.684 0 00-5.246 1.759 1.27 1.27 0 001.011 2.291 24.344 24.344 0 015.826-.814 10.066 10.066 0 015.133 1.182 6.057 6.057 0 011.835 1.675 7.623 7.623 0 011.121 2.425 2.772 2.772 0 01-.408.7 1.81 1.81 0 01-.54.457 1.656 1.656 0 01-.807.188 3.9 3.9 0 01-1.562-.394 7.836 7.836 0 00-3.206-.652 12.694 12.694 0 00-4.812 1.073 1.27 1.27 0 00-.667 1.691c.062.138.122.271.178.4a1.27 1.27 0 001.225.755c.366-.018.765-.029 1.186-.029a18.77 18.77 0 017.009 1.192 6.193 6.193 0 012.432 1.721 4.093 4.093 0 01.892 2.679l-.011.225a4.638 4.638 0 01-.957.72 2.9 2.9 0 01-1.4.4 3.1 3.1 0 01-2.021-.858 2.169 2.169 0 00-.833-.424 3.071 3.071 0 00-.809-.1 8.036 8.036 0 00-2.285.426 40.6 40.6 0 00-5.064 2.1c-2.824 1.343-5.981 3.019-8.823 4.482-1.42.73-2.76 1.407-3.93 1.959a25.842 25.842 0 01-2.871 1.2 1.269 1.269 0 00-.864 1 61.375 61.375 0 01-2.021 7.294c-1.486 4.585-3.484 10.067-5.108 14.393-.811 2.164-1.53 4.04-2.046 5.374-.257.668-.465 1.2-.607 1.564l-.22.562a1.27 1.27 0 002.362.931c0-.007 2.232-5.672 4.611-12.2 1.189-3.263 2.416-6.742 3.423-9.843.88-2.72 1.59-5.129 1.966-6.92 1.247-.471 2.758-1.184 4.477-2.043 3.078-1.542 6.722-3.507 9.945-5.075 1.609-.784 3.114-1.467 4.365-1.942a16.548 16.548 0 011.651-.544 4.43 4.43 0 011.038-.171h.108a5.614 5.614 0 003.555 1.375 5.217 5.217 0 001.928-.38 6.752 6.752 0 001.93-1.207 6.384 6.384 0 00.735-.751 1.283 1.283 0 00.268-.662 8.693 8.693 0 00.046-.881 6.659 6.659 0 00-1.452-4.269" fill="#2d2d2d"/><path d="M511.027 212.242c0-4.642 2.836-7.139 3.641-10.457s-3.922-8.144-2.341-11.5c-1.034.588-2.351 1.923-1.16 4.717 1.8 4.236 1.432 3.982-1.857 9.4s.855 13.1.525 13.389l-67.562 76.193 2.412 38.61s23.858-31.391 35.322-48.028c12.281-17.82 22.624-36.889 31.92-56.41a9.78 9.78 0 012.944-3.574c-.256-1.3 7.8 5.567 7.74 4.246-2.068-2.239-11.584-13.384-11.584-16.59" fill="#fcc8ba"/><path d="M484.545 244.882l-42.678 50.715 1.006 42.633h45.85s20.249-42.606 31.551-74.377c-11.932-6.3-23.914-12.511-35.728-18.971" fill="#fe504f"/><path d="M501.664 254.055l-56.982 83.773 44.04.4s20.249-42.606 31.551-74.377q-9.3-4.911-18.609-9.8" fill="#e3364f"/><path d="M440.425 298.426l44.37-52.69 34.328 19.2a1.27 1.27 0 001.239-2.216l-36.158-20.219-45.721 54.295a1.27 1.27 0 001.942 1.635z" fill="#2d2d2d"/><path d="M527.533 201.081s11.865 6.636 13.474 16.692c.4-5.43 2.011-10.86-13.474-16.692" fill="#fcc8ba"/><path d="M200.411 324.389l48.551-10.368 18.772 42.337a1.27 1.27 0 102.321-1.029l-19.607-44.222-50.567 10.8a1.27 1.27 0 10.531 2.483" fill="#2d2d2d"/><path d="M344.586 77.609l.021-.012a32.852 32.852 0 015.67-2.418c3.091-.993 6.922-1.639 10.093-.65a8.679 8.679 0 014.6 3.311 16.519 16.519 0 012.656 7.944.9.9 0 101.783-.2 18.268 18.268 0 00-2.984-8.8 10.5 10.5 0 00-5.526-3.974c-3.892-1.186-8.164-.331-11.482.757a34 34 0 00-5.727 2.482.9.9 0 00.895 1.556zM367.478 93.983a39.75 39.75 0 017.283 1.214 7.709 7.709 0 013.885 2.292 3.653 3.653 0 01.749 1.782 6.061 6.061 0 01-.291 2.6 16.191 16.191 0 01-1.965 3.95.9.9 0 101.5.98 17.935 17.935 0 002.177-4.4 7.818 7.818 0 00.354-3.376 5.642 5.642 0 00-2.079-3.63 11.038 11.038 0 00-3.8-1.913 41.169 41.169 0 00-7.62-1.283.9.9 0 10-.191 1.784z" fill="#fff"/><path d="M258.063 64.134a38.913 38.913 0 00-38.908-38.913h-88.688a38.913 38.913 0 000 77.826h73.843l45.609 19.909-14.479-23.483a38.911 38.911 0 0022.623-35.338" fill="#2d2d2d"/><path d="M138.069 65.405a6.485 6.485 0 106.485-6.485 6.486 6.486 0 00-6.485 6.485M167.759 65.405a6.485 6.485 0 106.485-6.485 6.486 6.486 0 00-6.485 6.485M197.449 65.405a6.485 6.485 0 106.485-6.485 6.486 6.486 0 00-6.485 6.485" fill="#fff"/></g></svg>