<svg xmlns="http://www.w3.org/2000/svg" width="128" height="104"><defs><clipPath id="a"/></defs><g clip-path="url(#a)" transform="translate(10080 -2171)"><g transform="translate(-10080 2174.997)"><path d="M127.943 92.789H89.291v-.316H128z" fill="#3f3d56"/><circle cx="1.114" cy="1.114" r="1.114" transform="translate(5.088)" fill="#e6e6e6"/><circle cx="1.114" cy="1.114" r="1.114" transform="translate(10.728)" fill="#e6e6e6"/><circle cx="1.114" cy="1.114" r="1.114" transform="translate(16.367)" fill="#e6e6e6"/><circle cx="1.114" cy="1.114" r="1.114" transform="translate(22.006)" fill="#e6e6e6"/><circle cx="1.114" cy="1.114" r="1.114" transform="translate(27.646)" fill="#e6e6e6"/><circle cx="1.114" cy="1.114" r="1.114" transform="translate(33.285)" fill="#e6e6e6"/><circle cx="1.114" cy="1.114" r="1.114" transform="translate(38.925)" fill="#e6e6e6"/><circle cx="1.114" cy="1.114" r="1.114" transform="translate(44.564)" fill="#e6e6e6"/><circle cx="1.114" cy="1.114" r="1.114" transform="translate(50.204)" fill="#e6e6e6"/><circle cx="1.114" cy="1.114" r="1.114" transform="translate(55.843)" fill="#e6e6e6"/><circle cx="1.114" cy="1.114" r="1.114" transform="translate(5.088 5.71)" fill="#e6e6e6"/><circle cx="1.114" cy="1.114" r="1.114" transform="translate(10.728 5.71)" fill="#e6e6e6"/><circle cx="1.114" cy="1.114" r="1.114" transform="translate(16.367 5.71)" fill="#e6e6e6"/><circle cx="1.114" cy="1.114" r="1.114" transform="translate(22.006 5.71)" fill="#ea5e66"/><circle cx="1.114" cy="1.114" r="1.114" transform="translate(27.646 5.71)" fill="#e6e6e6"/><circle cx="1.114" cy="1.114" r="1.114" transform="translate(33.285 5.71)" fill="#e6e6e6"/><circle cx="1.114" cy="1.114" r="1.114" transform="translate(38.925 5.71)" fill="#e6e6e6"/><circle cx="1.114" cy="1.114" r="1.114" transform="translate(44.564 5.71)" fill="#e6e6e6"/><circle cx="1.114" cy="1.114" r="1.114" transform="translate(50.204 5.71)" fill="#e6e6e6"/><circle cx="1.114" cy="1.114" r="1.114" transform="translate(55.843 5.71)" fill="#e6e6e6"/><circle cx="1.114" cy="1.114" r="1.114" transform="translate(5.088 11.421)" fill="#e6e6e6"/><circle cx="1.114" cy="1.114" r="1.114" transform="translate(10.728 11.421)" fill="#e6e6e6"/><circle cx="1.114" cy="1.114" r="1.114" transform="translate(16.367 11.421)" fill="#e6e6e6"/><circle cx="1.114" cy="1.114" r="1.114" transform="translate(22.006 11.421)" fill="#e6e6e6"/><circle cx="1.114" cy="1.114" r="1.114" transform="translate(27.646 11.421)" fill="#e6e6e6"/><circle cx="1.114" cy="1.114" r="1.114" transform="translate(33.285 11.421)" fill="#e6e6e6"/><circle cx="1.114" cy="1.114" r="1.114" transform="translate(38.925 11.421)" fill="#e6e6e6"/><circle cx="1.114" cy="1.114" r="1.114" transform="translate(44.564 11.421)" fill="#e6e6e6"/><circle cx="1.114" cy="1.114" r="1.114" transform="translate(50.204 11.421)" fill="#e6e6e6"/><circle cx="1.114" cy="1.114" r="1.114" transform="translate(55.843 11.421)" fill="#e6e6e6"/><circle cx="1.114" cy="1.114" r="1.114" transform="translate(5.088 17.131)" fill="#e6e6e6"/><circle cx="1.114" cy="1.114" r="1.114" transform="translate(10.728 17.131)" fill="#e6e6e6"/><circle cx="1.114" cy="1.114" r="1.114" transform="translate(16.367 17.131)" fill="#e6e6e6"/><circle cx="1.114" cy="1.114" r="1.114" transform="translate(22.006 17.131)" fill="#e6e6e6"/><circle cx="1.114" cy="1.114" r="1.114" transform="translate(27.646 17.131)" fill="#e6e6e6"/><circle cx="1.114" cy="1.114" r="1.114" transform="translate(33.285 17.131)" fill="#e6e6e6"/><circle cx="1.114" cy="1.114" r="1.114" transform="translate(38.925 17.131)" fill="#e6e6e6"/><circle cx="1.114" cy="1.114" r="1.114" transform="translate(44.564 17.131)" fill="#e6e6e6"/><circle cx="1.114" cy="1.114" r="1.114" transform="translate(50.204 17.131)" fill="#e6e6e6"/><circle cx="1.114" cy="1.114" r="1.114" transform="translate(55.843 17.131)" fill="#e6e6e6"/><circle cx="1.114" cy="1.114" r="1.114" transform="translate(5.088 22.841)" fill="#e6e6e6"/><circle cx="1.114" cy="1.114" r="1.114" transform="translate(10.728 22.841)" fill="#ea5e66"/><circle cx="1.114" cy="1.114" r="1.114" transform="translate(16.367 22.841)" fill="#e6e6e6"/><circle cx="1.114" cy="1.114" r="1.114" transform="translate(22.006 22.841)" fill="#e6e6e6"/><circle cx="1.114" cy="1.114" r="1.114" transform="translate(27.646 22.841)" fill="#e6e6e6"/><circle cx="1.114" cy="1.114" r="1.114" transform="translate(33.285 22.841)" fill="#e6e6e6"/><circle cx="1.114" cy="1.114" r="1.114" transform="translate(38.925 22.841)" fill="#e6e6e6"/><circle cx="1.114" cy="1.114" r="1.114" transform="translate(44.564 22.841)" fill="#e6e6e6"/><circle cx="1.114" cy="1.114" r="1.114" transform="translate(50.204 22.841)" fill="#e6e6e6"/><circle cx="1.114" cy="1.114" r="1.114" transform="translate(55.843 22.841)" fill="#e6e6e6"/><circle cx="1.114" cy="1.114" r="1.114" transform="translate(5.088 28.551)" fill="#e6e6e6"/><circle cx="1.114" cy="1.114" r="1.114" transform="translate(10.728 28.551)" fill="#e6e6e6"/><circle cx="1.114" cy="1.114" r="1.114" transform="translate(16.367 28.551)" fill="#e6e6e6"/><circle cx="1.114" cy="1.114" r="1.114" transform="translate(22.006 28.551)" fill="#e6e6e6"/><circle cx="1.114" cy="1.114" r="1.114" transform="translate(27.646 28.551)" fill="#e6e6e6"/><circle cx="1.114" cy="1.114" r="1.114" transform="translate(33.285 28.551)" fill="#e6e6e6"/><circle cx="1.114" cy="1.114" r="1.114" transform="translate(38.925 28.551)" fill="#e6e6e6"/><circle cx="1.114" cy="1.114" r="1.114" transform="translate(44.564 28.551)" fill="#e6e6e6"/><circle cx="1.114" cy="1.114" r="1.114" transform="translate(50.204 28.551)" fill="#e6e6e6"/><circle cx="1.114" cy="1.114" r="1.114" transform="translate(55.843 28.551)" fill="#e6e6e6"/><circle cx="1.114" cy="1.114" r="1.114" transform="translate(5.088 34.261)" fill="#e6e6e6"/><circle cx="1.114" cy="1.114" r="1.114" transform="translate(10.728 34.261)" fill="#e6e6e6"/><circle cx="1.114" cy="1.114" r="1.114" transform="translate(16.367 34.261)" fill="#ea5e66"/><circle cx="1.114" cy="1.114" r="1.114" transform="translate(22.006 34.261)" fill="#e6e6e6"/><circle cx="1.114" cy="1.114" r="1.114" transform="translate(27.646 34.261)" fill="#e6e6e6"/><circle cx="1.114" cy="1.114" r="1.114" transform="translate(33.285 34.261)" fill="#e6e6e6"/><circle cx="1.114" cy="1.114" r="1.114" transform="translate(38.925 34.261)" fill="#e6e6e6"/><circle cx="1.114" cy="1.114" r="1.114" transform="translate(44.564 34.261)" fill="#e6e6e6"/><circle cx="1.114" cy="1.114" r="1.114" transform="translate(50.204 34.261)" fill="#e6e6e6"/><circle cx="1.114" cy="1.114" r="1.114" transform="translate(55.843 34.261)" fill="#e6e6e6"/><circle cx="1.114" cy="1.114" r="1.114" transform="translate(5.088 39.972)" fill="#e6e6e6"/><circle cx="1.114" cy="1.114" r="1.114" transform="translate(10.728 39.972)" fill="#e6e6e6"/><circle cx="1.114" cy="1.114" r="1.114" transform="translate(16.367 39.972)" fill="#e6e6e6"/><circle cx="1.114" cy="1.114" r="1.114" transform="translate(22.006 39.972)" fill="#e6e6e6"/><circle cx="1.114" cy="1.114" r="1.114" transform="translate(27.646 39.972)" fill="#e6e6e6"/><circle cx="1.114" cy="1.114" r="1.114" transform="translate(33.285 39.972)" fill="#e6e6e6"/><circle cx="1.114" cy="1.114" r="1.114" transform="translate(38.925 39.972)" fill="#e6e6e6"/><circle cx="1.114" cy="1.114" r="1.114" transform="translate(44.564 39.972)" fill="#e6e6e6"/><circle cx="1.114" cy="1.114" r="1.114" transform="translate(50.204 39.972)" fill="#e6e6e6"/><circle cx="1.114" cy="1.114" r="1.114" transform="translate(55.843 39.972)" fill="#e6e6e6"/><circle cx="1.114" cy="1.114" r="1.114" transform="translate(5.088 45.682)" fill="#e6e6e6"/><circle cx="1.114" cy="1.114" r="1.114" transform="translate(10.728 45.682)" fill="#e6e6e6"/><circle cx="1.114" cy="1.114" r="1.114" transform="translate(16.367 45.682)" fill="#e6e6e6"/><circle cx="1.114" cy="1.114" r="1.114" transform="translate(22.006 45.682)" fill="#e6e6e6"/><circle cx="1.114" cy="1.114" r="1.114" transform="translate(27.646 45.682)" fill="#e6e6e6"/><circle cx="1.114" cy="1.114" r="1.114" transform="translate(33.285 45.682)" fill="#e6e6e6"/><circle cx="1.114" cy="1.114" r="1.114" transform="translate(38.925 45.682)" fill="#e6e6e6"/><circle cx="1.114" cy="1.114" r="1.114" transform="translate(44.564 45.682)" fill="#e6e6e6"/><circle cx="1.114" cy="1.114" r="1.114" transform="translate(50.204 45.682)" fill="#e6e6e6"/><circle cx="1.114" cy="1.114" r="1.114" transform="translate(55.843 45.682)" fill="#e6e6e6"/><circle cx="1.114" cy="1.114" r="1.114" transform="translate(5.088 51.392)" fill="#e6e6e6"/><circle cx="1.114" cy="1.114" r="1.114" transform="translate(10.728 51.392)" fill="#e6e6e6"/><circle cx="1.114" cy="1.114" r="1.114" transform="translate(16.367 51.392)" fill="#e6e6e6"/><circle cx="1.114" cy="1.114" r="1.114" transform="translate(22.006 51.392)" fill="#e6e6e6"/><circle cx="1.114" cy="1.114" r="1.114" transform="translate(27.646 51.392)" fill="#e6e6e6"/><circle cx="1.114" cy="1.114" r="1.114" transform="translate(33.285 51.392)" fill="#e6e6e6"/><circle cx="1.114" cy="1.114" r="1.114" transform="translate(38.925 51.392)" fill="#e6e6e6"/><circle cx="1.114" cy="1.114" r="1.114" transform="translate(44.564 51.392)" fill="#e6e6e6"/><circle cx="1.114" cy="1.114" r="1.114" transform="translate(50.204 51.392)" fill="#e6e6e6"/><circle cx="1.114" cy="1.114" r="1.114" transform="translate(55.843 51.392)" fill="#e6e6e6"/><path d="M46.309 44.21l13.222-23.169H33.073L19.836 43.967l13.237 22.926h26.472L72.757 44.01z" fill="#3f3d56"/><path d="M76.041 42.064l.025-.043-13.237-22.926h-.014L49.593 42.264z" fill="#ea5e66"/><path d="M95.19 20.036a2.043 2.043 0 010-2.207 1.116 1.116 0 01.9-.378 1.135 1.135 0 01.906.378 2.026 2.026 0 010 2.207 1.135 1.135 0 01-.906.378 1.116 1.116 0 01-.9-.378zm1.284-.392a1.541 1.541 0 00.123-.715 1.487 1.487 0 00-.126-.7.414.414 0 00-.385-.221.4.4 0 00-.375.221 1.523 1.523 0 00-.123.7 1.541 1.541 0 00.123.712.4.4 0 00.374.221.414.414 0 00.388-.218zm-.436 2.724l2.806-4.849h.756l-2.813 4.849zm2.605-.33a1.67 1.67 0 01-.324-1.114 1.634 1.634 0 01.324-1.1 1.274 1.274 0 011.8 0 2.049 2.049 0 010 2.21 1.266 1.266 0 01-1.8 0zm1.284-.4a1.542 1.542 0 00.123-.712 1.489 1.489 0 00-.126-.7.436.436 0 00-.759 0 1.525 1.525 0 00-.123.7 1.544 1.544 0 00.123.712.439.439 0 00.763 0zM.323 61.867a2.043 2.043 0 010-2.207 1.116 1.116 0 01.9-.378 1.135 1.135 0 01.906.378 2.026 2.026 0 010 2.207 1.135 1.135 0 01-.906.378 1.116 1.116 0 01-.9-.378zm1.284-.392a1.541 1.541 0 00.123-.715 1.487 1.487 0 00-.126-.7.414.414 0 00-.385-.221.4.4 0 00-.374.221 1.523 1.523 0 00-.123.7 1.542 1.542 0 00.123.712.4.4 0 00.374.221.414.414 0 00.388-.218zM1.172 64.2l2.806-4.849h.756L1.921 64.2zm2.605-.33a1.67 1.67 0 01-.324-1.114 1.634 1.634 0 01.324-1.1 1.274 1.274 0 011.8 0 2.049 2.049 0 010 2.21 1.266 1.266 0 01-1.8 0zm1.284-.4a1.542 1.542 0 00.123-.712 1.489 1.489 0 00-.126-.7.436.436 0 00-.759 0 1.524 1.524 0 00-.123.7 1.544 1.544 0 00.123.712.439.439 0 00.763 0z" fill="#3f3d56"/><path d="M63.5 33.949l-.171-.046 3.737-14.058h21.673v.177H67.2z" fill="#2f2e41"/><path d="M90.51 21.793a1.86 1.86 0 111.86-1.86 1.86 1.86 0 01-1.86 1.86zm0-3.542a1.683 1.683 0 101.683 1.683 1.683 1.683 0 00-1.683-1.683z" fill="#2f2e41"/><circle cx=".708" cy=".708" r=".708" transform="translate(89.802 19.225)" fill="#ea5e66"/><path d="M36.13 47.75l.171.046-3.737 14.057H10.888v-.177h21.54z" fill="#2f2e41"/><path d="M9.117 59.905a1.86 1.86 0 11-1.86 1.86 1.86 1.86 0 011.86-1.86zm0 3.542a1.683 1.683 0 10-1.683-1.683 1.683 1.683 0 001.683 1.684z" fill="#2f2e41"/><circle cx=".708" cy=".708" r=".708" transform="translate(8.408 61.056)" fill="#ea5e66"/><path fill="#a0616a" d="M103.951 89.804h2.689v3.657h-2.689zM117.612 89.804h2.689v3.657h-2.689zM122.166 59.47a1.6 1.6 0 01-1.576-1.843l.44-2.808.131-.835h2.044l.108 1.183.426 2.432a1.6 1.6 0 01-1.572 1.871zM102.159 59.148a1.6 1.6 0 01-1.576-1.843l.44-2.808.131-.835h2.044l.108 1.183.426 2.432a1.6 1.6 0 01-1.572 1.871z"/><path d="M120.623 90.557l-3.227-.108-5.27-31.839-5.271 31.947-3.119-.108-.86-36.787h18.071zM106.572 96c-2.738.079-4.881-.661-6.286-2.418a1.161 1.161 0 01-.088-1.322 1.16 1.16 0 011.13-.556l.89.1 1.853-.926c-.379 2.2.652 2.245 3.118 1.507l.444 2.277a1.118 1.118 0 01-1.06 1.333zM120.233 96c-2.738.079-4.881-.661-6.286-2.418a1.161 1.161 0 01-.088-1.322 1.16 1.16 0 011.13-.556l.89.1 1.839-.776c-.379 2.2.666 2.1 3.132 1.357l.444 2.277a1.118 1.118 0 01-1.06 1.333z" fill="#2f2e41"/><circle cx="4.303" cy="4.303" r="4.303" transform="translate(106.748 11.389)" fill="#a0616a"/><path d="M115.353 23.544l-4.625.215-.215-4.84 3.98-1.506z" fill="#a0616a"/><path d="M122.022 55.168c-6.307-1.193-13.493-1.621-18.286 0l1.506-31.624 5.056-1.506.376-.592 4.249-.7 2.044.645 1.291 1.936 5.593 3.119c-2.754 10.653-3.569 20.329-1.829 28.722z" fill="#2f2e41"/><path d="M125.034 54.957l-4.625-.538c.964-4.7.57-10.807.807-16.942.15-3.891.957-7.431 1.237-11.778 1.754.457 2.662 2.086 2.673 4.006.046 9.1.908 17.631-.092 25.252zM104.919 54.522l-4.518-.323 2.689-15.274.91-12.711c-.142-1.854.849-2.931 2.317-2.994 3.206 3.8 3.577 9.027 2.582 14.952zM112.446 18.857l-.555-1.58a5.181 5.181 0 00-4.1-3.4l-3.477-.08.958-1.557a4.718 4.718 0 014.474-2.2l3.475.346a3.148 3.148 0 012.822 3.425l-.319 3.418a2.153 2.153 0 01-3.281 1.628z" fill="#2f2e41"/></g></g></svg>