<svg xmlns="http://www.w3.org/2000/svg" width="128" height="104"><defs><clipPath id="a"/></defs><g clip-path="url(#a)" transform="translate(10080 -2342)"><g transform="translate(-10078.083 2342)"><path d="M114.311 102h-1.854l-.882-7.15h2.736z" fill="#9e616a"/><path d="M114.784 103.794h-5.977v-.076a2.327 2.327 0 012.326-2.326h3.651z" fill="#2f2e41"/><path d="M107.2 102h-1.854l-.882-7.15h2.736z" fill="#9e616a"/><path d="M107.677 103.794H101.7v-.076a2.327 2.327 0 012.326-2.326h3.651z" fill="#2f2e41"/><path d="M27.116 103.517V46.088a1.334 1.334 0 011.334-1.331h5.951a1.334 1.334 0 011.334 1.334v57.576zM46.773 103.697V58.033a1.334 1.334 0 011.334-1.334h5.952a1.334 1.334 0 011.334 1.334v45.566z" fill="#3f3d56"/><path d="M11.844 49.444a.454.454 0 01-.338-.756l19.9-22.2 19.584 11 19.7-33.945 20.069 16.519a.454.454 0 01-.577.7L70.939 4.923 51.326 38.718l-19.73-11.079-19.414 21.654a.452.452 0 01-.338.151z" fill="#3f3d56"/><circle cx="4.234" cy="4.234" r="4.234" transform="translate(7.535 44.757)" fill="#ea5e66"/><circle cx="4.234" cy="4.234" r="4.234" transform="translate(27.192 22.832)" fill="#ccc"/><circle cx="4.234" cy="4.234" r="4.234" transform="translate(46.849 33.87)" fill="#e6e6e6"/><circle cx="4.234" cy="4.234" r="4.234" transform="translate(66.505)" fill="#ea5e66"/><circle cx="4.234" cy="4.234" r="4.234" transform="translate(104.307 31.532)" fill="#ea5e66"/><path d="M107.044 68.747c1.585.191 5.637-1.255 5.856.944 2.086 6.14 2.024 29.675 2.024 29.675l-3.175.151s-2.537-18.7-3.737-22.7c-.6 4.863-.5 23.457-.5 23.457l-2.873.151s-2.577-15.834-2.592-20.481c-.313-3.4.455-8.449.126-11.74a12.583 12.583 0 004.867.543zM86.086 103.494V37.303a1.446 1.446 0 011.334-1.537h5.951a1.446 1.446 0 011.334 1.537v66.364z" fill="#3f3d56"/><path d="M101.653 50.935a19.755 19.755 0 00-2.315-3.655 5.8 5.8 0 01-.514-.7 9.735 9.735 0 01-.628-1.843c-.575-1.73-2.008-3.119-2.357-4.908-.127-.65-1.2 1.24-.918 2.046.5 1.459.569 3 1.21 4.414s1.394 2.761 1.948 4.2a14.49 14.49 0 001.027 2.419 2.978 2.978 0 002.05 1.5 5.058 5.058 0 01.246-1.615c.189-.593.525-1.294.251-1.858zM111.166 51.914a8.355 8.355 0 01.491-3.142 3.257 3.257 0 00.289-1.187 2.911 2.911 0 00-.366-1.075 27.574 27.574 0 01-1.361-3.7l-.756-2.366c-.246-.181 1.193-.243 1.5.181a36.75 36.75 0 012.56 4.518 7.649 7.649 0 01.517 1.133 6.228 6.228 0 01.272 1.957 27.152 27.152 0 01-.333 3.7 3.309 3.309 0 01-.83 2.117 11.985 11.985 0 00-1.983-2.136z" fill="#9e616a"/><circle cx="3.138" cy="3.138" r="3.138" transform="translate(104.03 44.414)" fill="#9e616a"/><path d="M104.617 44.422a.545.545 0 01.115-.563c.078-.062.182-.085.266-.144a1.149 1.149 0 00.287-.363 1.56 1.56 0 011.952-.5c.518.271.832.815 1.293 1.181.234.19.506.33.741.52a3.046 3.046 0 01.961 1.554 8.818 8.818 0 01.266 1.833 1.648 1.648 0 01-.021.557 1.56 1.56 0 01-.211.431 4.8 4.8 0 01-1.882 1.741 2.907 2.907 0 01-2.507.043.431.431 0 01-.192-.154.553.553 0 01-.03-.332 2.271 2.271 0 00-.25-1.271c-.144-.287-.359-.534-.474-.832a2.9 2.9 0 01-.135-1.031 11.2 11.2 0 00-.179-2.67z" fill="#2d293d"/><path d="M7.459 103.584V71.628c0-.41.6-.742 1.334-.742h5.951c.737 0 1.334.333 1.334.742v32.039z" fill="#3f3d56"/><path d="M124.015 104H.151a.151.151 0 110-.3h123.863a.151.151 0 010 .3z" fill="#e6e6e6"/><path d="M66.43 103.471V28.357a1.581 1.581 0 011.329-1.745h5.951a1.581 1.581 0 011.334 1.744v75.311z" fill="#ea5e66"/><circle cx="1.361" cy="1.361" r="1.361" transform="translate(93.473 38.764)" fill="#a0616a"/><circle cx="1.361" cy="1.361" r="1.361" transform="translate(108.594 38.159)" fill="#a0616a"/><path d="M113.259 56.366c.133-.122 1.215-6.453 1.209-6.6-.017-.78-2.4-1.671-2.873-1.361-.449.292-1.232 3.648-1.735 4.259l-.533-.932h-4.234l-.257.477c-.556-.335-1.055-.643-1.234-.745a.8.8 0 00-.2-.1 3.071 3.071 0 01-1.21-.569c-.348-.268-1.962-3.071-2.394-3a3.769 3.769 0 00-2.117 2.873 54.2 54.2 0 012.943 5.591c.207.85.891 13.243 1.112 13.82 1.017-.1.214-.274 1.2 0a8.776 8.776 0 003.272-.142 12.568 12.568 0 011.37-.06 26.325 26.325 0 015.648.513 19.215 19.215 0 00-1.261-4.335 2.91 2.91 0 010-.9c.052-.353.937-8.386 1.294-8.789z" fill="#e6e6e6"/></g></g></svg>