<svg xmlns="http://www.w3.org/2000/svg" width="128" height="104"><defs><clipPath id="a"/></defs><g clip-path="url(#a)" transform="translate(10080 -2513)"><g transform="translate(-10080 2524.049)"><circle cx="5.631" cy="5.631" r="5.631" transform="translate(95.172 3.754)" fill="#2f2e41"/><path d="M98.58 14.175s.1 3.26-2.074 4.248 8.5.889 8.5.889-3.161-3.853-2.272-5.137z" fill="#ffb8b8"/><path d="M98.58 14.175s.1 3.26-2.074 4.248 8.5.889 8.5.889-3.161-3.853-2.272-5.137z" opacity=".1"/><circle cx="3.853" cy="3.853" r="3.853" transform="translate(96.9 8.347)" fill="#ffb8b8"/><path d="M100.259 17.731l-3.309-.741-1.926 2.025-2.173.3 2.864 11.754-.1 2.963s-3.161 2.369-2.961 13.337-1.581 32.7.593 32.894 6.717 1.185 7.014.3.79-35.957.79-35.957-.1 35.166 1.383 35.562 6.026 1.185 6.618-.1 0-34.771 0-34.771-.1-8.693-3.655-11.261l-.4-2.272 3.062-12.447h-2.47l-1.482-2.568-3.053 1.081z" fill="#2f2e41"/><path d="M92.188 31.197l-4.234 7.142s-3.1 3.177-1.547 4.055 3.2-3.7 3.2-3.7l4.555-6zM109.532 31.349l3.424 7.564s2.729 3.5 1.092 4.2-2.771-4.028-2.771-4.028l-3.869-6.461z" fill="#ffb8b8"/><path d="M94.135 20.003l-1.284-.691s-2.272 3.754-1.877 10.076c0 0-.4 3.359.4 3.556s3.062.593 3.161.2 1.284-7.705 1.284-7.705zM106.878 19.806l1.185-.494a7.114 7.114 0 011.581 3.657c.3 2.272 1.679 9.582.593 9.779s-3.655.593-3.655 0-.889-7.507-.889-7.507zM104.519 8.734l-2.857-1.5-3.946.612-.816 3.609 2.032-.078.568-1.325v1.3l.938-.036.544-2.109.34 2.245 3.334-.068z" fill="#2f2e41"/><circle cx="2.272" cy="2.272" r="2.272" transform="translate(98.827 .691)" fill="#2f2e41"/><path d="M98.234 2.269A2.272 2.272 0 01100.16.023a2.272 2.272 0 100 4.492 2.273 2.273 0 01-1.926-2.246z" fill="#2f2e41"/><ellipse cx=".969" cy=".66" rx=".969" ry=".66" transform="translate(60.316 70.787)" fill="#ea5e66"/><path d="M61.286 71.447s4.6 8 4.483 9.154" fill="#ea5e66"/><path d="M64.315 71.999v4.68c-.964-1.336-2.888-2.712-6.493-3.829l6.493 8.919v.068l.035-.02.011.015.026-.036c.756-.439 7.1-4.39-.072-9.797z" fill="#3f3d56"/><path fill="#3f3d56" d="M60.677 81.656H128v.246H60.677z"/><path d="M78.031 81.81h-2.43v-2.43h2.43zm-2.243-.187h2.056v-2.054h-2.056z" fill="#3f3d56"/><circle cx="1.24" cy="1.24" r="1.24" transform="translate(122.121 76.803)" fill="#ea5e66"/><path d="M123.361 81.627a3.584 3.584 0 113.583-3.584 3.584 3.584 0 01-3.583 3.584zm0-6.891a3.308 3.308 0 103.308 3.308 3.308 3.308 0 00-3.308-3.308z" fill="#2f2e41"/><path fill="#ea5e66" d="M4.431 4.941h82.831v49.477H4.431z"/><path d="M56.182 4.941L4.431 40.469v-8.51L43.787 4.941zM80.985 4.941V5.8L10.166 54.418H4.431v-4.571L69.844 4.941z" opacity=".1"/><path fill="#3f3d56" d="M11.492 45.68h.246v8.738h-.246z"/><circle cx="3.077" cy="3.077" r="3.077" transform="translate(8.554 42.603)" fill="#3f3d56"/><path fill="#3f3d56" d="M28.6 38.172h.246v16.246H28.6z"/><circle cx="3.077" cy="3.077" r="3.077" transform="translate(25.662 35.464)" fill="#3f3d56"/><path fill="#3f3d56" d="M45.708 24.51h.246v29.908h-.246z"/><circle cx="3.077" cy="3.077" r="3.077" transform="translate(42.769 21.433)" fill="#3f3d56"/><path fill="#3f3d56" d="M62.816 33.495h.246v20.923h-.246z"/><circle cx="3.077" cy="3.077" r="3.077" transform="translate(59.877 30.418)" fill="#3f3d56"/><path fill="#3f3d56" d="M79.923 15.649h.246v38.769h-.246z"/><circle cx="3.077" cy="3.077" r="3.077" transform="translate(76.985 12.572)" fill="#3f3d56"/><path fill="#3f3d56" d="M4.431 45.557h.738v.246h-.738zM9.797 45.803H8.64v-.246h1.157zm-2.314 0H6.326v-.246h1.157zM10.954 45.557h.738v.246h-.738zM4.431 38.418h.738v.246h-.738zM26.076 38.669h-1.493v-.246h1.493zm-2.987 0h-1.493v-.246h1.493zm-2.987 0h-1.493v-.246h1.493zm-2.987 0h-1.492v-.246h1.493zm-2.987 0h-1.492v-.246h1.493zm-2.987 0H9.654v-.246h1.493zm-2.987 0H6.663v-.246h1.491zM27.569 38.418h.738v.246h-.738zM4.431 33.372h.738v.246h-.738zM58.698 33.618h-1.487v-.249h1.487zm-2.974 0h-1.487v-.249h1.487zm-2.974 0h-1.487v-.249h1.491zm-2.974 0H48.29v-.249h1.487zm-2.974 0h-1.486v-.249h1.487zm-2.974 0h-1.486v-.249h1.487zm-2.974 0h-1.486v-.249h1.486zm-2.974 0h-1.486v-.249h1.487zm-2.974 0h-1.485v-.249h1.487zm-2.974 0h-1.485v-.249h1.487zm-2.974 0h-1.485v-.249h1.487zm-2.974 0h-1.485v-.249h1.487zm-2.974 0h-1.485v-.249h1.487zm-2.974 0h-1.482v-.249h1.487zm-2.974 0h-1.484v-.249h1.487zm-2.974 0h-1.484v-.249h1.487zm-2.974 0H9.63v-.249h1.487zm-2.974 0H6.654v-.249h1.487zM60.185 33.372h.738v.246h-.738zM4.431 24.387h.738v.246h-.738zM41.679 24.633h-1.525v-.246h1.521zm-3.042 0h-1.522v-.246h1.521zm-3.042 0h-1.522v-.246h1.521zm-3.042 0H31.03v-.246h1.524zm-3.042 0h-1.523v-.246h1.521zm-3.042 0h-1.524v-.246h1.521zm-3.042 0h-1.524v-.246h1.521zm-3.042 0H18.86v-.246h1.521zm-3.042 0h-1.525v-.246h1.521zm-3.042 0h-1.525v-.246h1.521zm-3.042 0H9.733v-.246h1.521zm-3.042 0H6.691v-.246h1.521zM43.2 24.387h.738v.246H43.2zM4.43 15.772l.738-.003v.246l-.737.003zM6.625 16.011v-.242H8.08v.246zm2.91-.009v-.246h1.455v.246zm2.91-.009v-.246H13.9v.246zm2.91-.009v-.246h1.455v.246zm2.91-.009v-.246h1.455v.24zm2.91-.009v-.246h1.455v.246zm2.91-.009v-.246h1.455v.246zm2.91-.009v-.246h1.455v.246zm2.91-.009v-.25h1.455v.246zm2.91-.009v-.246h1.455v.246zm2.91-.009v-.252h1.455v.246zm2.91-.009v-.246h1.455v.246zm2.91-.009v-.246H43v.246zm2.91-.009v-.246h1.455v.246zm2.91-.009v-.246h1.455v.23zm2.91-.009v-.246h1.455v.239zm2.91-.009v-.246h1.455v.246zm2.91-.009v-.246h1.455v.246zm2.91-.009v-.246h1.455v.246zm2.91-.009v-.246h1.455v.246zm2.91-.009v-.246h1.455v.246zm2.91-.009v-.253h1.455v.246zm2.91-.009v-.246H72.1v.246zm2.91-.009v-.246h1.455v.246zm2.91-.009v-.246h1.455v.246zM79.385 15.528l.738-.002v.246l-.737.002zM0 14.541h2.462v2.462H0zM0 23.28h2.462v2.462H0zM0 32.264h2.462v2.462H0zM0 37.31h2.462v2.462H0zM0 44.449h2.462v2.462H0z"/><path fill="#ea5e66" d="M122.713 37.521l-1.626 6.189-6.188-1.626 1.625-6.189z"/><path d="M113.621 42.514a1.477 1.477 0 111.9.861 1.477 1.477 0 01-1.9-.861zm2.533-.954a1.231 1.231 0 10-.718 1.586 1.231 1.231 0 00.718-1.586z" fill="#3f3d56"/><ellipse cx="2.092" cy="1.108" rx="2.092" ry="1.108" transform="translate(94.154 79.526)" fill="#2f2e41"/><ellipse cx="2.092" cy="1.108" rx="2.092" ry="1.108" transform="translate(103.754 79.526)" fill="#2f2e41"/><path d="M67.714 27.621a1.477 1.477 0 111.477-1.477 1.477 1.477 0 01-1.477 1.477zm0-2.708a1.231 1.231 0 101.231 1.231 1.231 1.231 0 00-1.231-1.231zM34.854 49.898a1.477 1.477 0 111.477-1.477 1.477 1.477 0 01-1.477 1.477zm0-2.708a1.231 1.231 0 101.231 1.231 1.231 1.231 0 00-1.231-1.231zM20.329 14.082a1.477 1.477 0 111.477-1.477 1.477 1.477 0 01-1.477 1.477zm0-2.708a1.231 1.231 0 101.231 1.231 1.231 1.231 0 00-1.231-1.231z" fill="#fff"/></g></g></svg>