<svg xmlns="http://www.w3.org/2000/svg" width="128" height="104"><defs><clipPath id="a"/></defs><g clip-path="url(#a)" transform="translate(10080 -2684)"><g transform="translate(-10080 2684.064)"><path d="M122.339 63.447c-.14.27-.287.535-.438.8-5.8 10.1-19.286 16.375-42.033 13.055-12.916-1.975-18.416 5.269-23.742 12.689-.091.128-.182.256-.275.384-5.578 7.781-11.1 15.583-24.907 12.99-14.638-2.314-23.671-14.2-25.069-26.888-.017-.154-.032-.31-.046-.464a29.107 29.107 0 017.837-23.178 19.811 19.811 0 0114.539-5.882 26.725 26.725 0 004.931-.366c.359-.063.708-.133 1.048-.211 6.988-1.6 10.208-6.344 12.183-12.138.046-.137.093-.275.137-.414C51.039 20.008 48.939.615 73.594 3.465c22.06 1.626 38.25 13.858 46.192 27.971l.235.426a43.045 43.045 0 014.618 12.549c.049.247.094.494.136.741a28.706 28.706 0 01-2.436 18.295z" fill="#f2f2f2"/><path d="M120.02 31.865a33.782 33.782 0 01-5.318 5.078 49.968 49.968 0 01-26.74 9.659 53.128 53.128 0 01-14.584-.991 64.723 64.723 0 01-14.03-4.922c-4.38-2.044-8.631-4.349-12.982-6.451.046-.137.093-.275.137-.414 4.744 2.284 9.392 4.8 14.192 6.975a60.641 60.641 0 0014.1 4.618 52.942 52.942 0 0014.809.58c9.477-.954 19.117-4.45 26.4-10.7a31.526 31.526 0 003.78-3.854c.081.139.155.281.236.422z" fill="#fff"/><path d="M87.095.145h-.033a22.266 22.266 0 000 44.443.508.508 0 00.383-.138.5.5 0 00.16-.37V.653a.51.51 0 00-.51-.508zM104.974 37.207a.656.656 0 01-.462-.191l-15.12-15.12a.649.649 0 01-.191-.462V.653a.646.646 0 01.206-.475.656.656 0 01.491-.177 22.412 22.412 0 0115.571 36.98.656.656 0 01-.47.226z" fill="#ccc"/><path d="M89.856 44.735a.658.658 0 01-.449-.178.647.647 0 01-.206-.476V25.332a.653.653 0 011.114-.462l13.194 13.195a.654.654 0 01-.025.948 22.459 22.459 0 01-13.588 5.722z" fill="#ea5e66"/><path d="M124.773 45.151a32.5 32.5 0 01-8.528 9.689 49.968 49.968 0 01-26.74 9.659 53.128 53.128 0 01-14.584-.991 64.723 64.723 0 01-14.03-4.922c-4.585-2.14-9.031-4.567-13.6-6.747a74.4 74.4 0 00-14.152-5.251c.36-.063.708-.133 1.048-.211q.481.125.96.259c9.6 2.685 18.078 7.975 27.095 12.062a60.641 60.641 0 0014.1 4.618 52.942 52.942 0 0014.809.58c9.477-.954 19.117-4.45 26.4-10.7a30.774 30.774 0 007.088-8.781c.047.243.092.49.134.736zM29.439 78.111c9.461 2.645 17.827 7.819 26.7 11.879-.091.128-.182.256-.275.384-.225-.1-.449-.207-.673-.312-4.585-2.14-9.031-4.567-13.6-6.747a73.938 73.938 0 00-14.472-5.329 64.668 64.668 0 00-21.235-1.51c-.017-.154-.032-.31-.046-.464a65.154 65.154 0 0123.6 2.1z" fill="#fff"/><path d="M67.461 92.998H.176a.177.177 0 110-.353h67.285a.177.177 0 110 .353z" fill="#ccc"/><circle cx="4.338" cy="4.338" r="4.338" transform="translate(23.057 60.499)" fill="#a0616a"/><path d="M43.624 95.443l.1 2.163-8.294 1.42-.149-3.192z" fill="#a0616a"/><path d="M45.694 94.793l.23 4.917h-.088a3.354 3.354 0 01-1.946-.471 1.679 1.679 0 01-.858-1.316l-.141-3z" fill="#2f2e41"/><path d="M43.392 99h2.165l1.03-8.351h-3.2z" fill="#a0616a"/><path d="M42.839 98.294h4.264a2.717 2.717 0 012.717 2.717v.088h-6.981z" fill="#2f2e41"/><path d="M22.951 96.978a1.9 1.9 0 00.442-2.875l1.728-17.193-4.116.288-.4 16.81a1.907 1.907 0 002.35 2.971z" fill="#a0616a"/><path d="M25.101 79.89l-4.265-.52a.851.851 0 01-.717-1.07l1.136-4.13a2.363 2.363 0 114.689.585l.111 4.268a.851.851 0 01-.953.866z" fill="#ea5e66"/><path d="M24.504 99.414a2.943 2.943 0 01-2.231-4.592l2.786-2.892 10.155-9.095 5.429-4.5a2.431 2.431 0 013.912 1.287l2.836 11.474a.793.793 0 01-.5.939l-3.092 1.113a.795.795 0 01-1.037-.543l-1.176-4.411-6.547 6.251 2.042.752a.8.8 0 01.49.961l-.66 2.338a.792.792 0 01-.742.578z" fill="#2f2e41"/><path d="M24.227 92.892l-.269-9.811-1.694-4.3a6.475 6.475 0 014.71-8.715l.417-.085a6.474 6.474 0 017.7 5.717l.8 7.386v.014c-1.27 5.647-4.943 8.755-11.562 9.781z" fill="#ea5e66"/><path d="M28.239 86.078a1.86 1.86 0 01.292-.022l4.9-7.258-.928-1.914 2.706-1.779 1.973 3.229a1.413 1.413 0 01-.161 1.688l-6.709 7.367a1.854 1.854 0 11-2.074-1.311z" fill="#a0616a"/><path d="M32.999 78.665a.794.794 0 01-.505-.427l-1.7-3.61a2.207 2.207 0 113.67-2.453l2.679 2.973a.795.795 0 01-.151 1.194l-3.343 2.221a.794.794 0 01-.65.102z" fill="#ea5e66"/><path d="M84.924 68.201H70.607a.778.778 0 110-1.556h14.317a.778.778 0 110 1.556z" fill="#ccc"/><path d="M66.328 68.979a1.634 1.634 0 111.634-1.634 1.634 1.634 0 01-1.634 1.634z" fill="#3f3d56"/><path d="M84.924 72.865H70.607a.778.778 0 110-1.556h14.317a.778.778 0 110 1.556z" fill="#ccc"/><path d="M66.328 73.647a1.634 1.634 0 111.634-1.634 1.634 1.634 0 01-1.634 1.634z" fill="#3f3d56"/><path d="M84.924 77.538H70.607a.778.778 0 110-1.556h14.317a.778.778 0 010 1.556z" fill="#ccc"/><path d="M66.328 78.316a1.634 1.634 0 111.634-1.634 1.634 1.634 0 01-1.634 1.634zM89.039 72.07h5.914a.156.156 0 00.156-.156V35.356a.156.156 0 00-.311 0v36.4h-5.759a.156.156 0 100 .311z" fill="#3f3d56"/><path d="M114.378 11.465a2.006 2.006 0 111.838-2.16 2.006 2.006 0 01-1.838 2.16zm-.025-.308a1.7 1.7 0 10-1.828-1.555 1.7 1.7 0 001.828 1.555z" fill="#ccc"/><circle cx="1.234" cy="1.234" r="1.234" transform="translate(120.05 3.847)" fill="#ccc"/><circle cx=".648" cy=".648" r=".648" transform="translate(126.703 .555)" fill="#ccc"/><path d="M104.953 50.942a2.006 2.006 0 11-.568-2.779 2.008 2.008 0 01.568 2.779zm-3.089-2.041a1.7 1.7 0 102.352-.48 1.7 1.7 0 00-2.353.48z" fill="#ccc"/><circle cx="1.234" cy="1.234" r="1.234" transform="translate(106.122 55.85)" fill="#ccc"/><circle cx=".648" cy=".648" r=".648" transform="translate(110.151 62.761)" fill="#ccc"/><path d="M55.148 17.255a2.006 2.006 0 112.689.9 2.008 2.008 0 01-2.689-.9zm3.316-1.648a1.7 1.7 0 10-.765 2.275 1.7 1.7 0 00.765-2.275z" fill="#ccc"/><circle cx="1.234" cy="1.234" r="1.234" transform="translate(47.395 15.017)" fill="#ccc"/><circle cx=".648" cy=".648" r=".648" transform="translate(40.783 15.407)" fill="#ccc"/><path d="M31.978 65.216l-.181-.461a3.926 3.926 0 00-2.968-2.432 3.392 3.392 0 00-3.29 1.526 7.435 7.435 0 00-.7 1.626c-.057.169-.114.291-.224.328s-.247-.032-.452-.159a.283.283 0 00-.429.279l.214 1.531-.179-.16a3.392 3.392 0 01-.564-4.236l-1.92.394.087-.165a6.557 6.557 0 013.822-3.228l-1.839-.4.186-.115a5.32 5.32 0 015.535.071 6.277 6.277 0 012.888 5.11z" fill="#2f2e41"/></g></g></svg>