<svg width="1764" height="1351" xmlns="http://www.w3.org/2000/svg" xmlns:xlink="http://www.w3.org/1999/xlink"><defs><path id="a" d="M6.23.067V5.69H.61V.066h5.62z"/><path id="c" d="M.67.697h9.937v9.938H.67z"/><path id="e" d="M6.23.067V5.69H.61V.066h5.62z"/></defs><g fill="none" fill-rule="evenodd"><path d="M717.978 92.117l2.756 1.507a.394.394 0 010 .69l-2.756 1.508a.4.4 0 00-.156.156l-1.507 2.756a.393.393 0 01-.69 0l-1.508-2.755a.395.395 0 00-.157-.16l-2.755-1.505a.394.394 0 010-.69l2.755-1.508a.393.393 0 00.157-.157l1.507-2.754a.393.393 0 01.69 0l1.508 2.754c.036.067.09.12.156.157" fill="#D15D64" style="mix-blend-mode:lighten"/><path d="M239.057 166.72l1.36.745a.395.395 0 010 .692l-1.36.743a.4.4 0 00-.156.157l-.743 1.36a.394.394 0 01-.692 0l-.743-1.36a.395.395 0 00-.157-.157l-1.36-.743a.395.395 0 010-.692l1.36-.744a.393.393 0 00.157-.155l.743-1.36a.395.395 0 01.692 0l.744 1.36c.037.066.092.12.157.156" fill="#FCD05C" style="mix-blend-mode:lighten"/><path d="M409.472 108L408 109.47m5.47-5.47l-1.47 1.472m-2.457 2.691a1.852 1.852 0 102.62-2.62 1.852 1.852 0 10-2.62 2.62z" stroke="#7B63AB" stroke-width="1.097" stroke-linecap="round" stroke-linejoin="round"/><path d="M961.978 138.117l2.756 1.507a.394.394 0 010 .69l-2.756 1.507a.4.4 0 00-.156.16l-1.507 2.754a.393.393 0 01-.69 0l-1.508-2.756a.395.395 0 00-.157-.157l-2.755-1.505a.394.394 0 010-.69l2.755-1.508a.393.393 0 00.157-.156l1.507-2.755a.393.393 0 01.69 0l1.508 2.755a.39.39 0 00.156.156" fill="#D15D64" style="mix-blend-mode:lighten"/><path d="M1144.978 177.117l2.755 1.507a.394.394 0 010 .69l-2.755 1.508a.397.397 0 00-.156.156l-1.506 2.756a.393.393 0 01-.692 0l-1.506-2.756a.402.402 0 00-.16-.156l-2.753-1.507a.393.393 0 010-.69l2.755-1.508a.402.402 0 00.158-.156l1.506-2.755a.394.394 0 01.69 0l1.508 2.756c.037.066.09.12.157.157" fill="#E98333" style="mix-blend-mode:lighten"/><path d="M1083.057 100.72l1.36.745a.395.395 0 010 .692l-1.36.743a.4.4 0 00-.156.157l-.743 1.36a.394.394 0 01-.692 0l-.743-1.36a.395.395 0 00-.157-.157l-1.36-.743a.395.395 0 010-.692l1.36-.744a.393.393 0 00.157-.155l.743-1.36a.395.395 0 01.692 0l.744 1.36c.037.066.092.12.157.156" fill="#FCD05C" style="mix-blend-mode:lighten"/><path d="M1206.813 253.907a2.907 2.907 0 11-5.815-.003 2.907 2.907 0 015.815.003M114.978 319.116l2.756 1.507a.394.394 0 010 .692l-2.756 1.507a.4.4 0 00-.156.156l-1.507 2.755a.393.393 0 01-.69 0l-1.508-2.755a.395.395 0 00-.157-.156l-2.755-1.507a.394.394 0 010-.692l2.755-1.507a.393.393 0 00.157-.155l1.507-2.755a.393.393 0 01.69 0l1.508 2.756c.036.067.09.12.156.156" fill="#D15D64" style="mix-blend-mode:lighten"/><path d="M206.057 452.72l1.36.745a.395.395 0 010 .692l-1.36.743a.4.4 0 00-.156.157l-.743 1.36a.394.394 0 01-.692 0l-.743-1.36a.395.395 0 00-.157-.157l-1.36-.743a.395.395 0 010-.692l1.36-.744a.393.393 0 00.157-.155l.743-1.36a.395.395 0 01.692 0l.744 1.36c.037.066.092.12.157.156" fill="#FCD05C" style="mix-blend-mode:lighten"/><path d="M1661.978 527.116l2.755 1.508a.395.395 0 010 .692l-2.755 1.506a.39.39 0 00-.156.157l-1.506 2.754a.393.393 0 01-.692 0l-1.506-2.755a.39.39 0 00-.16-.158l-2.753-1.506a.394.394 0 010-.692l2.755-1.508a.39.39 0 00.158-.155l1.506-2.755a.393.393 0 01.69 0l1.508 2.755a.39.39 0 00.157.156m-285.102-426.47l1.3.71c.26.144.26.52 0 .66l-1.3.713a.38.38 0 00-.15.148l-.71 1.3a.377.377 0 01-.66 0l-.71-1.3a.386.386 0 00-.152-.148l-1.3-.712a.377.377 0 010-.66l1.3-.71a.39.39 0 00.15-.15l.71-1.3a.376.376 0 01.662 0l.71 1.3a.384.384 0 00.15.15" fill="#D15D64" style="mix-blend-mode:lighten"/><path d="M1634.057 382.72l1.36.745a.395.395 0 010 .692l-1.36.743a.4.4 0 00-.156.157l-.743 1.36a.394.394 0 01-.692 0l-.743-1.36a.395.395 0 00-.157-.157l-1.36-.743a.395.395 0 010-.692l1.36-.744a.393.393 0 00.157-.155l.743-1.36a.395.395 0 01.692 0l.744 1.36c.037.066.092.12.157.156" fill="#FCD05C" style="mix-blend-mode:lighten"/><path stroke="#E98333" stroke-width="1.097" stroke-linecap="round" stroke-linejoin="round" d="M411 385.888l3.554-.888-.887 3.554z"/><path fill="#00A959" style="mix-blend-mode:lighten" d="M522.226 503.018l2.018 1.104-2.018 1.103-1.104 2.018-1.104-2.018-2.018-1.103 2.018-1.104 1.104-2.018z"/><path d="M530.98 40.117l2.754 1.507a.394.394 0 010 .69l-2.755 1.508a.397.397 0 00-.158.156l-1.506 2.756a.393.393 0 01-.692 0l-1.507-2.756a.402.402 0 00-.157-.156l-2.755-1.507a.393.393 0 010-.69l2.755-1.508a.402.402 0 00.157-.156l1.508-2.755a.394.394 0 01.69 0l1.507 2.756c.037.066.09.12.157.157" fill="#E98333" style="mix-blend-mode:lighten"/><path d="M653.86 202.256l-.847-1.6a.44.44 0 00-.18-.18l-1.6-.848a.434.434 0 010-.768l1.6-.847a.442.442 0 00.18-.18l.847-1.6a.435.435 0 01.77 0l.845 1.6a.44.44 0 00.18.18l1.6.847c.31.163.31.605 0 .768l-1.6.847a.436.436 0 00-.18.18l-.846 1.6a.435.435 0 01-.77 0z" stroke="#7B63AB" stroke-width="1.097" stroke-linecap="round" stroke-linejoin="round"/><path d="M593.978 161.117l2.756 1.507a.394.394 0 010 .69l-2.756 1.507a.4.4 0 00-.156.16l-1.507 2.754a.393.393 0 01-.69 0l-1.508-2.756a.395.395 0 00-.157-.157l-2.755-1.505a.394.394 0 010-.69l2.755-1.508a.393.393 0 00.157-.156l1.507-2.755a.393.393 0 01.69 0l1.508 2.755a.39.39 0 00.156.156" fill="#D15D64" style="mix-blend-mode:lighten"/><path d="M177.98 127.117l2.754 1.507a.394.394 0 010 .69l-2.756 1.508a.397.397 0 00-.156.156l-1.507 2.756a.393.393 0 01-.69 0l-1.507-2.756a.402.402 0 00-.16-.156l-2.752-1.507a.393.393 0 010-.69l2.754-1.508a.402.402 0 00.157-.156l1.508-2.755a.394.394 0 01.69 0l1.507 2.756a.4.4 0 00.156.157" fill="#E98333" style="mix-blend-mode:lighten"/><path d="M299.813 56.907a2.907 2.907 0 11-5.815-.003 2.907 2.907 0 015.815.003" fill="#D15D64" style="mix-blend-mode:lighten"/><path d="M50.86 205.256l-.847-1.6a.44.44 0 00-.18-.18l-1.6-.848a.434.434 0 010-.768l1.6-.847a.442.442 0 00.18-.18l.847-1.6a.435.435 0 01.77 0l.845 1.6a.44.44 0 00.18.18l1.6.847c.31.163.31.605 0 .768l-1.6.847a.436.436 0 00-.18.18l-.846 1.6a.435.435 0 01-.77 0z" stroke="#7B63AB" stroke-width="1.097" stroke-linecap="round" stroke-linejoin="round"/><path d="M1690.978 261.116l2.755 1.507a.395.395 0 010 .692l-2.755 1.507a.39.39 0 00-.156.156l-1.506 2.755a.393.393 0 01-.692 0l-1.506-2.755a.39.39 0 00-.16-.156l-2.753-1.507a.394.394 0 010-.692l2.755-1.507a.39.39 0 00.158-.155l1.506-2.755a.393.393 0 01.69 0l1.508 2.756a.39.39 0 00.157.156" fill="#D15D64" style="mix-blend-mode:lighten"/><path d="M1637.057 223.722l1.36.743a.395.395 0 010 .692l-1.36.744a.397.397 0 00-.156.157l-.743 1.36a.395.395 0 01-.692 0l-.743-1.36a.393.393 0 00-.157-.156l-1.36-.743a.395.395 0 010-.692l1.36-.743a.395.395 0 00.157-.157l.743-1.36a.395.395 0 01.692 0l.744 1.36a.4.4 0 00.157.157" fill="#7B63AB" style="mix-blend-mode:lighten"/><path d="M1611.877 48.645l1.3.71c.26.145.26.52 0 .662l-1.3.71a.38.38 0 00-.15.15l-.71 1.3a.377.377 0 01-.66 0l-.71-1.3a.386.386 0 00-.152-.15l-1.3-.71a.377.377 0 010-.662l1.3-.71a.39.39 0 00.15-.15l.71-1.298a.376.376 0 01.662 0l.71 1.298a.384.384 0 00.15.15" fill="#D15D64" style="mix-blend-mode:lighten"/><path d="M1663.057 116.72l1.36.745a.395.395 0 010 .692l-1.36.743a.4.4 0 00-.156.157l-.743 1.36a.394.394 0 01-.692 0l-.743-1.36a.395.395 0 00-.157-.157l-1.36-.743a.395.395 0 010-.692l1.36-.744a.393.393 0 00.157-.155l.743-1.36a.395.395 0 01.692 0l.744 1.36c.037.066.092.12.157.156" fill="#FCD05C" style="mix-blend-mode:lighten"/><g transform="translate(1580 434)"><mask id="b" fill="#fff"><use xlink:href="#a"/></mask><path d="M4.667 1.79l1.36.743a.394.394 0 010 .692l-1.36.743a.4.4 0 00-.157.156l-.743 1.36a.394.394 0 01-.692 0l-.744-1.36a.397.397 0 00-.155-.156l-1.36-.743a.395.395 0 010-.692l1.36-.744a.39.39 0 00.156-.157l.745-1.36a.394.394 0 01.692 0l.743 1.36c.036.066.09.12.157.156" fill="#7B63AB" mask="url(#b)"/></g><path d="M1384.978 483.118l2.755 1.507a.394.394 0 010 .69l-2.755 1.507a.393.393 0 00-.157.156l-1.505 2.755a.393.393 0 01-.692 0l-1.506-2.755a.387.387 0 00-.158-.156l-2.755-1.507a.393.393 0 010-.69l2.755-1.507a.39.39 0 00.157-.157l1.506-2.755a.393.393 0 01.69 0l1.508 2.756a.399.399 0 00.16.158" fill="#FCD05C" style="mix-blend-mode:lighten"/><path d="M1273.877 338.646l1.3.71c.26.144.26.52 0 .66l-1.3.712a.38.38 0 00-.15.15l-.71 1.298a.377.377 0 01-.66 0l-.71-1.3a.386.386 0 00-.152-.148l-1.3-.712a.377.377 0 010-.66l1.3-.71a.39.39 0 00.15-.15l.71-1.3a.376.376 0 01.662 0l.71 1.3a.384.384 0 00.15.15" fill="#D15D64" style="mix-blend-mode:lighten"/><path d="M1494.057 406.72l1.36.745a.395.395 0 010 .692l-1.36.743a.4.4 0 00-.156.157l-.743 1.36a.394.394 0 01-.692 0l-.743-1.36a.395.395 0 00-.157-.157l-1.36-.743a.395.395 0 010-.692l1.36-.744a.393.393 0 00.157-.155l.743-1.36a.395.395 0 01.692 0l.744 1.36c.037.066.092.12.157.156" fill="#FCD05C" style="mix-blend-mode:lighten"/><path stroke="#00A959" stroke-width="1.097" stroke-linecap="round" stroke-linejoin="round" d="M1712 450.524l1.762-.542 1.762.542-.543-1.762.544-1.762-1.762.543L1712 447l.542 1.762z"/><g transform="translate(1598 622)"><mask id="d" fill="#fff"><use xlink:href="#c"/></mask><path d="M7.648 3.813l2.755 1.507a.394.394 0 010 .69L7.648 7.52a.39.39 0 00-.157.157L5.985 10.43a.394.394 0 01-.69 0l-1.51-2.755a.39.39 0 00-.157-.157L.873 6.01a.394.394 0 010-.69L3.63 3.813a.39.39 0 00.156-.157L5.293.9a.394.394 0 01.69 0l1.508 2.756a.39.39 0 00.158.157" fill="#D15D64" mask="url(#d)"/></g><path d="M70.472 513L69 514.47m5.47-5.47L73 510.47m-2.457 2.693a1.852 1.852 0 002.62-2.62 1.852 1.852 0 00-2.62 2.62z" stroke="#E98333" stroke-width="1.097" stroke-linecap="round" stroke-linejoin="round"/><path d="M239.057 1200.9l1.36-.743a.395.395 0 000-.692l-1.36-.743a.4.4 0 01-.156-.157l-.743-1.36a.394.394 0 00-.692 0l-.743 1.36a.395.395 0 01-.157.157l-1.36.743a.395.395 0 000 .692l1.36.744c.066.037.12.09.157.157l.743 1.36c.15.273.542.273.692 0l.744-1.36a.397.397 0 01.157-.156" fill="#FCD05C" style="mix-blend-mode:lighten"/><path d="M1206.813 1132.906a2.907 2.907 0 10-5.815.003 2.907 2.907 0 005.815-.004m-1091.835-97.083l2.756-1.506a.394.394 0 000-.692l-2.756-1.507a.4.4 0 01-.156-.157l-1.507-2.755a.393.393 0 00-.69 0l-1.508 2.755a.395.395 0 01-.157.157l-2.755 1.507a.394.394 0 000 .69l2.755 1.508c.066.036.12.09.157.157l1.507 2.753c.15.274.542.274.69 0l1.508-2.755a.397.397 0 01.156-.156" fill="#D15D64" style="mix-blend-mode:lighten"/><path d="M206.057 793.9l1.36-.744a.395.395 0 000-.692l-1.36-.743a.4.4 0 01-.156-.156l-.743-1.36a.394.394 0 00-.692 0l-.743 1.36a.395.395 0 01-.157.158l-1.36.742a.395.395 0 000 .692l1.36.745c.066.037.12.09.157.156l.743 1.36c.15.273.542.273.692 0l.744-1.36a.397.397 0 01.157-.156" fill="#FCD05C" style="mix-blend-mode:lighten"/><path d="M1455.978 1061.822l2.755-1.506a.395.395 0 000-.693l-2.755-1.507a.39.39 0 01-.156-.156l-1.506-2.755a.393.393 0 00-.692 0l-1.506 2.755a.39.39 0 01-.16.156l-2.753 1.507a.394.394 0 000 .692l2.755 1.507a.39.39 0 01.158.157l1.506 2.753c.15.274.543.274.69 0l1.508-2.755a.39.39 0 01.157-.156" fill="#D15D64" style="mix-blend-mode:lighten"/><path d="M1402.057 1085.9l1.36-.743a.395.395 0 000-.692l-1.36-.744a.397.397 0 01-.156-.155l-.743-1.36a.395.395 0 00-.692 0l-.743 1.36a.393.393 0 01-.157.156l-1.36.745a.395.395 0 000 .692l1.36.743c.066.036.12.09.157.157l.743 1.36c.15.273.542.273.692 0l.744-1.36a.4.4 0 01.157-.157" fill="#7B63AB" style="mix-blend-mode:lighten"/><path stroke="#E98333" stroke-width="1.097" stroke-linecap="round" stroke-linejoin="round" d="M411 894.666l3.554.888-.887-3.554z"/><path fill="#00A959" style="mix-blend-mode:lighten" d="M522.226 745.225l2.018-1.104-2.018-1.102-1.104-2.018-1.104 2.018L518 744.12l2.018 1.105 1.104 2.018z"/><path d="M177.98 1225.822l2.754-1.506a.394.394 0 000-.692l-2.756-1.507a.397.397 0 01-.156-.156l-1.507-2.755a.393.393 0 00-.69 0l-1.507 2.756a.402.402 0 01-.16.157l-2.752 1.507a.393.393 0 000 .69l2.754 1.508c.066.036.12.09.157.157l1.508 2.754c.15.274.54.274.69 0l1.507-2.755a.397.397 0 01.156-.158" fill="#E98333" style="mix-blend-mode:lighten"/><path d="M299.813 1325.906a2.907 2.907 0 10-5.815.003 2.907 2.907 0 005.815-.004" fill="#D15D64" style="mix-blend-mode:lighten"/><path d="M50.86 1174.232l-.847 1.6a.44.44 0 01-.18.18l-1.6.848a.434.434 0 000 .768l1.6.847c.076.04.14.104.18.18l.847 1.6c.163.31.605.31.77 0l.845-1.6a.44.44 0 01.18-.18l1.6-.847a.434.434 0 000-.768l-1.6-.847a.436.436 0 01-.18-.18l-.846-1.6a.435.435 0 00-.77 0z" stroke="#7B63AB" stroke-width="1.097" stroke-linecap="round" stroke-linejoin="round"/><path d="M1690.978 1110.822l2.755-1.506a.395.395 0 000-.693l-2.755-1.507a.39.39 0 01-.156-.156l-1.506-2.755a.393.393 0 00-.692 0l-1.506 2.755a.39.39 0 01-.16.156l-2.753 1.507a.394.394 0 000 .692l2.755 1.507a.39.39 0 01.158.157l1.506 2.753c.15.274.543.274.69 0l1.508-2.755a.39.39 0 01.157-.156" fill="#D15D64" style="mix-blend-mode:lighten"/><path d="M1637.057 1155.9l1.36-.743a.395.395 0 000-.692l-1.36-.744a.397.397 0 01-.156-.155l-.743-1.36a.395.395 0 00-.692 0l-.743 1.36a.393.393 0 01-.157.156l-1.36.745a.395.395 0 000 .692l1.36.743c.066.036.12.09.157.157l.743 1.36c.15.273.542.273.692 0l.744-1.36a.4.4 0 01.157-.157" fill="#7B63AB" style="mix-blend-mode:lighten"/><path d="M1611.877 1349.727l1.3-.71a.377.377 0 000-.66l-1.3-.712a.38.38 0 01-.15-.15l-.71-1.3a.377.377 0 00-.66 0l-.71 1.3a.386.386 0 01-.152.15l-1.3.71a.377.377 0 000 .662l1.3.71a.39.39 0 01.15.15l.71 1.3a.376.376 0 00.662 0l.71-1.3a.384.384 0 01.15-.15" fill="#D15D64" style="mix-blend-mode:lighten"/><path d="M1663.057 1249.9l1.36-.743a.395.395 0 000-.692l-1.36-.743a.4.4 0 01-.156-.157l-.743-1.36a.394.394 0 00-.692 0l-.743 1.36a.395.395 0 01-.157.157l-1.36.743a.395.395 0 000 .692l1.36.744c.066.037.12.09.157.157l.743 1.36c.15.273.542.273.692 0l.744-1.36a.397.397 0 01.157-.156" fill="#FCD05C" style="mix-blend-mode:lighten"/><g transform="matrix(1 0 0 -1 1587 986)"><mask id="f" fill="#fff"><use xlink:href="#e"/></mask><path d="M4.667 1.79l1.36.743a.394.394 0 010 .692l-1.36.743a.4.4 0 00-.157.156l-.743 1.36a.394.394 0 01-.692 0l-.744-1.36a.397.397 0 00-.155-.156l-1.36-.743a.395.395 0 010-.692l1.36-.744a.39.39 0 00.156-.157l.745-1.36a.394.394 0 01.692 0l.743 1.36c.036.066.09.12.157.156" fill="#7B63AB" mask="url(#f)"/></g><path d="M1164 915l2.78-2.78M1156 923l2.78-2.78m2.827-7.314c0-.997-5.483 4.486-4.486 4.486-.996 0 4.487 5.484 4.487 4.487 0 .996 5.483-4.488 4.486-4.488.997 0-4.486-5.483-4.486-4.486z" stroke="#7B63AB" stroke-width="1.097" stroke-linecap="round" stroke-linejoin="round"/><path d="M1384.978 770.822l2.755-1.507a.394.394 0 000-.692l-2.755-1.506a.393.393 0 01-.157-.156l-1.505-2.755a.393.393 0 00-.692 0l-1.506 2.755a.387.387 0 01-.158.157l-2.755 1.507a.393.393 0 000 .69l2.755 1.508a.39.39 0 01.157.157l1.506 2.754c.15.274.543.274.69 0l1.508-2.755a.395.395 0 01.16-.158" fill="#FCD05C" style="mix-blend-mode:lighten"/><path d="M1273.877 962.727l1.3-.71a.377.377 0 000-.66l-1.3-.712a.38.38 0 01-.15-.15l-.71-1.3a.377.377 0 00-.66 0l-.71 1.3a.386.386 0 01-.152.15l-1.3.71a.377.377 0 000 .662l1.3.71a.39.39 0 01.15.15l.71 1.3a.376.376 0 00.662 0l.71-1.3a.384.384 0 01.15-.15" fill="#D15D64" style="mix-blend-mode:lighten"/><path d="M1494.057 873.9l1.36-.744a.395.395 0 000-.692l-1.36-.743a.4.4 0 01-.156-.156l-.743-1.36a.394.394 0 00-.692 0l-.743 1.36a.395.395 0 01-.157.158l-1.36.742a.395.395 0 000 .692l1.36.745c.066.037.12.09.157.156l.743 1.36c.15.273.542.273.692 0l.744-1.36a.397.397 0 01.157-.156" fill="#FCD05C" style="mix-blend-mode:lighten"/><path stroke="#00A959" stroke-width="1.097" stroke-linecap="round" stroke-linejoin="round" d="M1712 812l1.762.542 1.762-.542-.543 1.762.544 1.762-1.762-.543-1.762.544.542-1.762z"/><path d="M70.472 721L69 719.53m5.47 5.47L73 723.53m-2.457-2.693a1.852 1.852 0 012.62 2.62 1.852 1.852 0 01-2.62-2.62z" stroke="#E98333" stroke-width="1.097" stroke-linecap="round" stroke-linejoin="round"/><g opacity=".5"><path d="M373.247 442.788c4.296 3.612 4.85 10.023 1.237 14.32a10.16 10.16 0 01-10.065 3.36c-1.154 1.653-1.81 3.362-1.5 4.926.158.796-.377.72-.654.36-1.387-1.802-2.994-4.632-2.882-8.138-3.57-3.698-3.838-9.57-.457-13.59 3.613-4.297 10.024-4.85 14.32-1.238" fill="#DBE7F0"/><path d="M370.31 449.378h-1.215l.012-.59c0-.78-.703-3.015-1.803-3.015-.35 0-.703.18-.937.46a1.02 1.02 0 00-.252.85c.15.89.168 1.37-.38 1.97-.6.655-.89.93-1.436.93h-1.203c-.637-.004-1.2.56-1.2 1.198v2.404c0 .638.563 1.202 1.2 1.202h1.034l.867.517a.62.62 0 00.312.084h3.803c.68 0 1.707-.3 1.802-1.13l.59-3.575c.012-.048.012-.084.012-.12-.02-.704-.505-1.184-1.202-1.184h-.006zm0 4.808c-.03.414-.765.6-1.203.6h-3.804l-1.004-.6v-3.607c.817 0 1.268-.45 1.88-1.13.74-.817.686-1.54.53-2.482-.048-.3.3-.6.6-.6.5 0 1.202 1.64 1.202 2.403l-.012.62c0 .415.2.583.613.583h1.202c.38 0 .59.217.6.6l-.6 3.607-.006.006z" fill="#27363A"/><path d="M400.562 483.592c0-4.514-1.568-8.66-4.186-11.93-2.117-2.222-4.432-.835-5.07 9.53-.766 12.432-7.31 4.13-12.526 9.985-5.203 5.844-17.318-4.782-14.19 1.43 3.22 6.01 9.56 10.1 16.857 10.1 10.556 0 19.115-8.558 19.115-19.115" fill="#4D595D"/><path d="M381.446 464.478c10.557 0 19.115 8.558 19.115 19.114 0 10.557-8.557 19.115-19.114 19.115s-19.114-8.558-19.114-19.115c0-10.556 8.557-19.114 19.114-19.114z" stroke="#DBE7F0" stroke-width="1.097" stroke-linecap="round" stroke-linejoin="round"/><path d="M381.446 464.478c10.557 0 19.115 8.558 19.115 19.114 0 10.557-8.557 19.115-19.114 19.115s-19.114-8.558-19.114-19.115c0-10.556 8.557-19.114 19.114-19.114z" stroke="#DBE7F0" stroke-width="1.097" stroke-linecap="round" stroke-linejoin="round"/><path d="M363.84 476.14c3.66 1.605 8.12 3.147 11.752 3.147 7.577 0 9.3-4.65 18.253-4.822 1.615-.03 3.07-.05 4.366-.06m-24.178 26.811c1.376-3.52 4.187-8.467 9.652-11.252 6.53-3.326 11.208-.57 16.055-.814" stroke="#DBE7F0" stroke-width="1.097" stroke-linecap="round" stroke-linejoin="round"/><path d="M365.356 493.916c2.948-.404 7.794-1.682 11.786-5.674 6.2-6.2 7.92-6.37 11.71-6.37 3.103 0 7.71 3.234 11.64 3.363M373.727 466.1c3.98.616 8.786 1.863 11.853 4.404 2.395 1.985 6.528 1.848 10.644.963m-26.459-3.005c1.467.318 2.818.663 3.696.947 2.897.936 5.453 1.277 4.715 3.333-.938 2.61-5.274 1.137-8.17.2-.95-.306-2.138-.87-3.3-1.518m-4.248 9.971c3.822.546 9.144 1.832 9.69 4.78.376 2.04-3.85 3.184-8.714 3.828m13.074 12.06c3.32-3.523 11.45-10.65 21.097-8.256h.002" stroke="#DBE7F0" stroke-width="1.097" stroke-linecap="round" stroke-linejoin="round"/></g><g opacity=".5"><path d="M1532.112 302.432c-40.54-52.804-43.992 39.154-122.523 23.703 22.006 27.912 56.123 45.83 94.426 45.83 66.372 0 120.18-53.805 120.18-120.178 0-39.354-18.916-74.285-48.15-96.208l-5.04 2.005c22.04 27.215-19.393 170.245-38.894 144.847" fill="#4D595D"/><path d="M1383.837 249.923c.11-7.848.99-15.757 2.696-23.617m42.362 119.034a118.99 118.99 0 01-8.532-7.51m123.49 26.874a120.262 120.262 0 01-30.652 6.533M1617.31 212.7a119.94 119.94 0 013.83 13.762m-38.282-65.155a118.96 118.96 0 0110.203 10.076m-109.315-38.067a119.536 119.536 0 0123.026-1.673" stroke="#DBE7F0" stroke-width="1.097" stroke-linecap="round" stroke-linejoin="round"/><path d="M1429.216 347.407c4.525 3.988 9.963 7.712 16.628 10.84.277.13.504.33.674.587.734 1.124 3.406 3.995 4.255 4.897.175.188.384.323.624.41l8.84 3.218c.254.095.482.25.662.454l5.732 6.455c.38.424.95.62 1.507.523l6.055-1.065a1.57 1.57 0 01.648.017l4.28.978c.22.05.45.055.672.012l4.958-.94c.213-.04.43-.038.64.005l9.515 1.985c.344.072.703.03 1.023-.12l5.018-2.32c.216-.098.452-.152.69-.152l7.943.008c.31 0 .608-.086.87-.248l5.004-3.12c1.056-.66.556-2.29-.69-2.242l-3.87.148a1.62 1.62 0 01-.767-.158l-9.46-4.507a1.64 1.64 0 00-1.094-.11l-5.363 1.316c-.375.09-.77.05-1.117-.123l-15.316-7.585a1.682 1.682 0 00-.484-.15l-12.27-1.845a1.614 1.614 0 01-.737-.305l-9.95-7.432a1.63 1.63 0 00-1.018-.326l-11.674.275a1.706 1.706 0 01-.37-.033l-10.64-2.186c-1.644-.338-2.68 1.73-1.418 2.84" fill="#27363A"/><path d="M1429.216 347.407c4.525 3.988 9.963 7.712 16.628 10.84.277.13.504.33.674.587.734 1.124 3.406 3.995 4.255 4.897.175.188.384.323.624.41l8.84 3.218c.254.095.482.25.662.454l5.732 6.455c.38.424.95.62 1.507.523l6.055-1.065a1.57 1.57 0 01.648.017l4.28.978c.22.05.45.055.672.012l4.958-.94c.213-.04.43-.038.64.005l9.515 1.985c.344.072.703.03 1.023-.12l5.018-2.32c.216-.098.452-.152.69-.152l7.943.008c.31 0 .608-.086.87-.248l5.004-3.12c1.056-.66.556-2.29-.69-2.242l-3.87.148a1.62 1.62 0 01-.767-.158l-9.46-4.507a1.64 1.64 0 00-1.094-.11l-5.363 1.316c-.375.09-.77.05-1.117-.123l-15.316-7.585a1.682 1.682 0 00-.484-.15l-12.27-1.845a1.614 1.614 0 01-.737-.305l-9.95-7.432a1.63 1.63 0 00-1.018-.326l-11.674.275a1.706 1.706 0 01-.37-.033l-10.64-2.186c-1.644-.338-2.68 1.73-1.418 2.84z" stroke="#DBE7F0" stroke-width="1.097" stroke-linecap="round" stroke-linejoin="round"/><path d="M1595.746 171.66c8.49 9.6 19.728 26.172 22.898 39.2a1.624 1.624 0 01-.414 1.513c-3.71 3.898-21.428 20.263-23.31 22-.118.11-.234.185-.378.254l-10.532 5.145c-.125.062-.26.11-.397.134l-5.52 1.105a1.63 1.63 0 00-1.02.67l-6.537 9.33a1.637 1.637 0 01-2.137.494l-24.443-13.58a1.64 1.64 0 01-.823-1.182l-3.094-20.038a1.64 1.64 0 01.818-1.682l15.878-8.86c.394-.222.68-.595.787-1.034l6.738-27.035a1.632 1.632 0 011.27-1.21l28.674-5.73a1.617 1.617 0 011.542.508" fill="#27363A"/><path d="M1595.746 171.66c8.49 9.6 19.728 26.172 22.898 39.2a1.624 1.624 0 01-.414 1.513c-3.71 3.898-21.428 20.263-23.31 22-.118.11-.234.185-.378.254l-10.532 5.145c-.125.062-.26.11-.397.134l-5.52 1.105a1.63 1.63 0 00-1.02.67l-6.537 9.33a1.637 1.637 0 01-2.137.494l-24.443-13.58a1.64 1.64 0 01-.823-1.182l-3.094-20.038a1.64 1.64 0 01.818-1.682l15.878-8.86c.394-.222.68-.595.787-1.034l6.738-27.035a1.632 1.632 0 011.27-1.21l28.674-5.73a1.617 1.617 0 011.542.508z" stroke="#DBE7F0" stroke-width="1.097" stroke-linecap="round" stroke-linejoin="round"/><path d="M1383.83 277.438a115.53 115.53 0 01-2.57-26.214c.02-1.37 1.65-2.09 2.7-1.21l7.906 6.636c.343.29.792.423 1.237.373l12.898-1.46c.368-.04.74.045 1.053.24l15.875 9.933c.166.105.353.18.546.22l16.18 3.235c.376.077.764.018 1.1-.163l13.964-7.536a1.636 1.636 0 012 .352l10.16 11.405c.244.27.388.616.414.98l1.868 27.814c.033.502-.162.99-.535 1.326l-13.413 12.154a1.65 1.65 0 00-.477.773l-3.872 13.864a1.638 1.638 0 01-1.34 1.18l-16.906 2.457a1.652 1.652 0 01-.47 0l-7.174-1.048a1.624 1.624 0 00-1.64.778c-.546.912-1.39 2.33-2.084 3.5a1.648 1.648 0 01-2.515.38c-7.462-6.728-13.777-14.133-18.978-22.02h21.636c7.013 0-3.504-3.665-10.993-3.187-.992.063-2.01.127-3.04.188-.25-2.444-2.85-6.547-8.617-6.613a17.45 17.45 0 001.14-1.862c11.31-18.812-3.523-28.586-16.053-26.472z" fill="#27363A"/><path d="M1399.757 315.384c5.2 7.887 11.516 15.29 18.978 22.02a1.648 1.648 0 002.514-.38c.694-1.17 1.537-2.588 2.082-3.5a1.624 1.624 0 011.64-.778l7.174 1.048c.155.023.315.023.47 0l16.906-2.458a1.638 1.638 0 001.34-1.18l3.873-13.863a1.65 1.65 0 01.477-.773l13.413-12.154c.373-.336.568-.824.535-1.325l-1.868-27.812a1.637 1.637 0 00-.414-.98l-10.16-11.406a1.636 1.636 0 00-2-.35l-13.964 7.535a1.64 1.64 0 01-1.1.164l-16.18-3.234a1.685 1.685 0 01-.546-.22l-15.875-9.933a1.663 1.663 0 00-1.052-.24l-12.897 1.46a1.64 1.64 0 01-1.237-.373l-7.907-6.636c-1.05-.88-2.68-.16-2.7 1.21a115.53 115.53 0 002.574 26.233m98.012-145.596c-40.293 6.95-84.5 37.83-96.602 92.68-.256 1.166.798 2.212 1.965 1.96 1.21-.263 2.594-.59 3.488-.808a1.627 1.627 0 011.6.496l9.014 10.01c.39.435.984.627 1.556.506l23.454-4.997c.398-.087.75-.317.99-.647l14.668-20.428a1.64 1.64 0 00-.11-2.048l-7.536-8.405a1.633 1.633 0 01-.39-1.39l2.432-13.225c.097-.527.445-.974.933-1.195l14.23-6.466a1.638 1.638 0 012.312 1.38l.743 11.123c.03.41.21.794.51 1.08l19.442 18.422c.413.387.997.537 1.545.393l16.548-4.365c.162-.043.326-.06.492-.052 2.147.1 17.425.794 17.647.257.217-.525 1.7-15.952 1.962-18.685a1.58 1.58 0 01.282-.763l9.51-13.675a1.64 1.64 0 00-.087-1.985l-16.126-19.296a1.63 1.63 0 00-.663-.474l-19.852-7.74a1.626 1.626 0 01-1.027-1.303c-.255-1.916-.816-6.277-1.026-8.87a1.64 1.64 0 00-1.907-1.49z" stroke="#DBE7F0" stroke-width="1.097" stroke-linecap="round" stroke-linejoin="round"/><path d="M1620.344 227.284l-4.855 11.086c-.196.443-.57.775-1.035.914l-12.18 3.624c-.28.084-.533.242-.734.457l-10.937 11.832a1.64 1.64 0 00-.42 1.314l2.075 16.555c.057.464-.084.93-.392 1.28l-9.227 10.573a1.63 1.63 0 01-1.277.56l-16.347-.43a1.64 1.64 0 00-1.68 1.547l-1.076 19.236c-.01.198-.057.393-.14.573l-7.605 17.106a1.65 1.65 0 00-.02 1.28l5.99 14.818c.184.463.15.986-.095 1.42l-8.3 14.683a1.45 1.45 0 01-.29.374c-.85.806-4.726 4.514-7.488 7.372-1.142 1.183-.02 3.11 1.58 2.723 26.152-6.267 91.19-51.263 77.582-138.47-.255-1.625-2.47-1.93-3.13-.426" fill="#27363A"/><path d="M1620.344 227.284l-4.855 11.086c-.196.443-.57.775-1.035.914l-12.18 3.624c-.28.084-.533.242-.734.457l-10.937 11.832a1.64 1.64 0 00-.42 1.314l2.075 16.555c.057.464-.084.93-.392 1.28l-9.227 10.573a1.63 1.63 0 01-1.277.56l-16.347-.43a1.64 1.64 0 00-1.68 1.547l-1.076 19.236c-.01.198-.057.393-.14.573l-7.605 17.106a1.65 1.65 0 00-.02 1.28l5.99 14.818c.184.463.15.986-.095 1.42l-8.3 14.683a1.45 1.45 0 01-.29.374c-.85.806-4.726 4.514-7.488 7.372-1.142 1.183-.02 3.11 1.58 2.723 26.152-6.267 91.19-51.263 77.582-138.47-.255-1.625-2.47-1.93-3.13-.426zm-112.067-97.414l14.245-.803c.394-.023.783.098 1.093.34l2.198 1.702c.392.303.9.413 1.384.296l8.717-2.083c.43-.102.88-.027 1.255.207l3.643 2.303c.344.22.76.3 1.16.23l5.543-.978c.306-.056.62-.02.906.096l1.95.803c.364.15.663.426.837.777l1.834 3.646c.232.46.667.783 1.175.873l3.756.672c.394.07.746.28.995.593l2.818 3.55c.105.132.23.247.37.34l6.405 4.297c.21.142.38.32.505.54.438.77 1.533 2.663 1.796 2.89.287.25 9.896 8.11 12.564 10.293.28.23.176.683-.177.765-.88.21-2.217.514-2.886.607a1.202 1.202 0 01-.687-.107l-8.67-4.134a1.817 1.817 0 00-.336-.12l-9.538-2.203a1.6 1.6 0 00-.585-.03l-9.56 1.272a1.64 1.64 0 01-1.14-.272l-14.58-9.99a1.626 1.626 0 00-.516-.234l-16.947-4.396a1.64 1.64 0 01-.88-.576l-4.424-5.66a1.64 1.64 0 00-.614-.483l-4.194-1.9c-1.558-.71-1.124-3.03.585-3.126z" stroke="#DBE7F0" stroke-width="1.097" stroke-linecap="round" stroke-linejoin="round"/><path d="M1350.275 152.803c10.917-3.648 22.724 2.246 26.372 13.163 2.566 7.677.408 15.79-4.894 21.203 1.654 3.784 3.945 6.757 7.013 7.89 1.56.577.85 1.43-.074 1.53-4.635.5-11.303.28-17.32-3.67-10.285 2.287-20.845-3.53-24.26-13.744-3.645-10.918 2.248-22.725 13.163-26.373" fill="#DBE7F0"/><path d="M1363.83 167.265c-.683-.828-1.644-1.25-2.89-1.314-1.277 0-2.222.552-2.893 1.315-.217.246-.4.458-.55.638a.652.652 0 01-1 0c-.15-.18-.334-.392-.553-.638-.685-.763-1.538-1.314-2.892-1.314-1.248.066-2.222.5-2.89 1.315-.686.802-1.026 1.684-1.055 2.63 0 .682.12 1.996.882 3.51.733 1.456 2.91 3.695 6.587 6.668.24.195.595.195.837 0 3.666-2.973 5.877-5.2 6.6-6.668.75-1.526.868-2.853.868-3.51-.027-.946-.37-1.828-1.052-2.656v.025z" fill="#27363A"/><path d="M1616.754 204.907h69.555c11.152 0 6.372-4.142-7.652-2.866-.7.062-1.39.11-2.077.153-1.574-1.702-5.468-3.782-9.27-2.613-.64-4.567-8.22-10.058-15.36-5.288-.52-7.097-7.663-13.905-15.19-7.848 2.247-11.497-.782-24.157-18.335-22.648-10.806.93-15.68 6.52-17.204 13.25M1410.4 312.197c-.992.063-2.01.127-3.04.188-.25-2.444-2.85-6.547-8.617-6.613a17.45 17.45 0 001.14-1.862c16.572-27.565-22.99-35.727-29.182-15.508-1.31 4.28-1.848 8.465-1.838 12.162-1.975-1.26-4.667-2.07-8.338-2.07-10 0-13.275 8.763-12.264 12.954-1.802-1.124-3.82-2.215-8.293-1.8-8.604.797-17.208 5.737-4.142 5.737h85.568c7.013 0-3.504-3.666-10.993-3.188z" stroke="#DBE7F0" stroke-width="1.097" stroke-linecap="round" stroke-linejoin="round"/></g></g></svg>